<svg width="112" height="85" viewBox="0 0 112 85" fill="none" xmlns="http://www.w3.org/2000/svg">
<path fill-rule="evenodd" clip-rule="evenodd" d="M55.999 84.9998C86.451 84.9998 111.287 80.0318 111.287 73.9418C111.287 67.8518 86.451 62.8838 55.999 62.8838C25.547 62.8838 0.710938 67.8508 0.710938 73.9418C0.710938 80.0328 25.547 84.9998 55.999 84.9998Z" fill="#D7E2EC"/>
<path fill-rule="evenodd" clip-rule="evenodd" d="M25.0576 73.9402H86.9404C88.0221 73.9365 89.0584 73.5055 89.8237 72.7411C90.5891 71.9768 91.0214 70.9409 91.0264 69.8592V25.0792L55.9995 22.4082L20.9727 25.0792V69.8592C20.9761 70.9412 21.4074 71.9778 22.1729 72.7425C22.9383 73.5072 23.9756 73.9378 25.0576 73.9402Z" fill="#EFF6FF"/>
<path fill-rule="evenodd" clip-rule="evenodd" d="M20.9717 25.0787H91.0254C91.4022 25.0781 91.7644 24.9305 92.0342 24.6674C92.304 24.4043 92.4606 24.0464 92.4707 23.6697V19.7357L55.4077 15.3877L19.5254 19.7357V23.6607C19.5335 24.0391 19.6893 24.3993 19.9595 24.6643C20.2297 24.9293 20.5932 25.078 20.9717 25.0787Z" fill="#9FD4FE"/>
<path fill-rule="evenodd" clip-rule="evenodd" d="M19.5254 19.7356H92.4707V9.76056C92.4606 9.38375 92.304 9.02573 92.0342 8.76248C91.7644 8.49923 91.4023 8.35149 91.0254 8.35059H20.9717C20.593 8.35129 20.2297 8.50015 19.9595 8.76535C19.6892 9.03055 19.5332 9.391 19.5254 9.76956V19.7356Z" fill="#EB5468"/>
<path fill-rule="evenodd" clip-rule="evenodd" d="M71.8164 8.35059C73.8398 11.9768 75.5099 15.7894 76.8027 19.7356H92.4697V9.76056C92.4596 9.38375 92.303 9.02573 92.0332 8.76248C91.7634 8.49923 91.4014 8.35149 91.0244 8.35059H84.9697V11.3846C84.9697 12.264 84.6204 13.1075 83.9985 13.7293C83.3767 14.3512 82.5328 14.7006 81.6533 14.7006C80.7739 14.7006 79.9305 14.3512 79.3086 13.7293C78.6867 13.1075 78.3374 12.264 78.3374 11.3846V8.35059H71.8164Z" fill="#E5384F"/>
<path fill-rule="evenodd" clip-rule="evenodd" d="M76.8047 19.7363C77.3777 21.4643 77.9047 23.2493 78.3657 25.0793H91.0264C91.4032 25.0787 91.7653 24.9312 92.0352 24.6681C92.305 24.405 92.4615 24.0471 92.4717 23.6703V19.7363H76.8047Z" fill="#85BEEF"/>
<path fill-rule="evenodd" clip-rule="evenodd" d="M27.0273 11.3851C27.0273 12.2645 27.3767 13.1079 27.9985 13.7298C28.6204 14.3517 29.4643 14.701 30.3438 14.701C31.2232 14.701 32.0666 14.3517 32.6885 13.7298C33.3103 13.1079 33.6597 12.2645 33.6597 11.3851V4.31404C33.6597 3.43458 33.3103 2.59115 32.6885 1.96928C32.0666 1.34741 31.2232 0.998047 30.3438 0.998047C29.4643 0.998047 28.6204 1.34741 27.9985 1.96928C27.3767 2.59115 27.0273 3.43458 27.0273 4.31404V11.3851Z" fill="#FFE07D"/>
<path fill-rule="evenodd" clip-rule="evenodd" d="M44.1309 11.3851C44.1309 12.2645 44.4802 13.1079 45.1021 13.7298C45.7239 14.3517 46.5678 14.701 47.4473 14.701C48.3267 14.701 49.1701 14.3517 49.792 13.7298C50.4139 13.1079 50.7632 12.2645 50.7632 11.3851V4.31404C50.7632 3.43458 50.4139 2.59115 49.792 1.96928C49.1701 1.34741 48.3267 0.998047 47.4473 0.998047C46.5678 0.998047 45.7239 1.34741 45.1021 1.96928C44.4802 2.59115 44.1309 3.43458 44.1309 4.31404V11.3851Z" fill="#FFE07D"/>
<path fill-rule="evenodd" clip-rule="evenodd" d="M61.2344 11.3851C61.2344 12.2645 61.5837 13.1079 62.2056 13.7298C62.8274 14.3517 63.6708 14.701 64.5503 14.701C65.4298 14.701 66.2736 14.3517 66.8955 13.7298C67.5174 13.1079 67.8667 12.2645 67.8667 11.3851V4.31404C67.8667 3.43458 67.5174 2.59115 66.8955 1.96928C66.2736 1.34741 65.4298 0.998047 64.5503 0.998047C63.6708 0.998047 62.8274 1.34741 62.2056 1.96928C61.5837 2.59115 61.2344 3.43458 61.2344 4.31404V11.3851Z" fill="#FFE07D"/>
<path fill-rule="evenodd" clip-rule="evenodd" d="M78.3379 4.31404V11.3851C78.3379 12.2645 78.6872 13.1079 79.3091 13.7298C79.931 14.3517 80.7744 14.701 81.6538 14.701C82.5333 14.701 83.3772 14.3517 83.999 13.7298C84.6209 13.1079 84.9702 12.2645 84.9702 11.3851V4.31404C84.9702 3.43458 84.6209 2.59115 83.999 1.96928C83.3772 1.34741 82.5333 0.998047 81.6538 0.998047C80.7744 0.998047 79.931 1.34741 79.3091 1.96928C78.6872 2.59115 78.3379 3.43458 78.3379 4.31404Z" fill="#FFE07D"/>
<path fill-rule="evenodd" clip-rule="evenodd" d="M47.5034 4.31404V11.3851C47.5025 11.9724 47.3461 12.5491 47.0498 13.0562C46.7535 13.5633 46.3277 13.9829 45.8164 14.2721C46.3129 14.5541 46.8748 14.7019 47.4458 14.701C48.3244 14.6984 49.1663 14.3482 49.7876 13.7269C50.4089 13.1056 50.7591 12.2637 50.7617 11.3851V4.31404C50.7588 3.43548 50.4084 2.59373 49.7871 1.97249C49.1659 1.35125 48.3244 1.00095 47.4458 0.998048C46.8747 0.997515 46.3129 1.1457 45.8164 1.42804C46.3281 1.71642 46.7544 2.13564 47.0508 2.64275C47.3472 3.14986 47.5032 3.72665 47.5034 4.31404Z" fill="#FFC250"/>
<path fill-rule="evenodd" clip-rule="evenodd" d="M30.3979 4.3139V11.3849C30.3972 11.9723 30.2407 12.549 29.9443 13.0562C29.648 13.5634 29.2223 13.9829 28.7109 14.2719C29.2153 14.557 29.7859 14.705 30.3652 14.701C30.9446 14.6969 31.5124 14.5411 32.0127 14.249C32.513 13.9569 32.9285 13.5387 33.2168 13.0362C33.5051 12.5336 33.6566 11.9643 33.6562 11.3849V4.3139C33.6567 3.7345 33.5051 3.1651 33.2168 2.66252C32.9285 2.15994 32.5136 1.74175 32.0132 1.4497C31.5128 1.15765 30.9441 1.00195 30.3647 0.998119C29.7854 0.994293 29.2152 1.14248 28.7109 1.4279C29.2227 1.71628 29.6489 2.13549 29.9453 2.6426C30.2417 3.14972 30.3978 3.7265 30.3979 4.3139Z" fill="#FFC250"/>
<path fill-rule="evenodd" clip-rule="evenodd" d="M64.6089 4.31404V11.3851C64.6081 11.9725 64.4516 12.5492 64.1553 13.0564C63.8589 13.5635 63.4333 13.983 62.9219 14.2721C63.4184 14.5541 63.9797 14.7019 64.5508 14.701C65.4294 14.6984 66.2718 14.3482 66.8931 13.7269C67.5144 13.1056 67.8645 12.2637 67.8672 11.3851V4.31404C67.8645 3.4354 67.5144 2.5935 66.8931 1.9722C66.2718 1.3509 65.4294 1.00069 64.5508 0.998049C63.9797 0.997469 63.4183 1.14566 62.9219 1.42804C63.4336 1.71642 63.8598 2.13564 64.1562 2.64275C64.4527 3.14986 64.6087 3.72665 64.6089 4.31404Z" fill="#FFC250"/>
<path fill-rule="evenodd" clip-rule="evenodd" d="M81.7124 4.31404V11.3851C81.7105 11.9722 81.5536 12.5485 81.2573 13.0555C80.9611 13.5625 80.536 13.9822 80.0254 14.2721C80.5219 14.5541 81.0833 14.7019 81.6543 14.701C82.5329 14.6984 83.3753 14.3482 83.9966 13.7269C84.6179 13.1056 84.9681 12.2637 84.9707 11.3851V4.31404C84.9678 3.43548 84.6173 2.59373 83.9961 1.97249C83.3749 1.35125 82.5329 1.00095 81.6543 0.998049C81.0832 0.997469 80.5218 1.14566 80.0254 1.42804C80.5364 1.7173 80.962 2.13672 81.2583 2.64363C81.5546 3.15055 81.7111 3.72688 81.7124 4.31404Z" fill="#FFC250"/>
<path fill-rule="evenodd" clip-rule="evenodd" d="M77.8643 73.9401H86.9399C88.0216 73.9364 89.0579 73.5054 89.8232 72.741C90.5886 71.9766 91.0209 70.9408 91.0259 69.8591V25.0791H74.7402C80.8902 40.7161 81.5293 57.3101 77.8643 73.9401Z" fill="#D9EEFF"/>
<path fill-rule="evenodd" clip-rule="evenodd" d="M77.5647 37.5469C73.5244 37.5461 69.5745 38.7434 66.2146 40.9875C62.8548 43.2316 60.236 46.4216 58.6892 50.1542C57.1424 53.8867 56.7371 57.9941 57.5247 61.957C58.3123 65.9199 60.2575 69.5602 63.114 72.4175C65.9706 75.2749 69.6104 77.2211 73.573 78.0098C77.5356 78.7986 81.6428 78.3946 85.3758 76.8488C89.1087 75.3031 92.2996 72.6851 94.5447 69.3259C96.7898 65.9667 97.9886 62.0172 97.989 57.9769C97.9888 52.5596 95.8366 47.3643 92.0066 43.5331C88.1766 39.702 82.982 37.5487 77.5647 37.5469Z" fill="#95D6A4"/>
<path fill-rule="evenodd" clip-rule="evenodd" d="M77.5648 42.8779C74.578 42.8767 71.6581 43.7613 69.1742 45.4198C66.6902 47.0783 64.754 49.4362 63.6102 52.1953C62.4664 54.9543 62.1664 57.9906 62.7484 60.9201C63.3303 63.8496 64.7677 66.5408 66.8792 68.6531C68.9908 70.7655 71.6814 72.2042 74.6107 72.7874C77.54 73.3705 80.5763 73.0718 83.3358 71.9291C86.0953 70.7864 88.4541 68.851 90.1136 66.3677C91.7731 63.8844 92.659 60.9647 92.659 57.9779C92.659 53.9742 91.0686 50.1344 88.2381 47.3027C85.4076 44.4711 81.5685 42.8795 77.5648 42.8779Z" fill="#EFF6FF"/>
<path fill-rule="evenodd" clip-rule="evenodd" d="M71.3433 55.2469C70.6198 55.2469 69.9257 55.5343 69.4141 56.0459C68.9025 56.5575 68.6152 57.2514 68.6152 57.9749C68.6152 58.6984 68.9025 59.3923 69.4141 59.9039C69.9257 60.4155 70.6198 60.7029 71.3433 60.7029H74.834V64.1929C74.827 64.5555 74.8924 64.9158 75.0264 65.2528C75.1603 65.5898 75.3603 65.8967 75.6143 66.1556C75.8682 66.4144 76.171 66.6201 76.5054 66.7605C76.8397 66.9008 77.1989 66.9731 77.5615 66.9731C77.9242 66.9731 78.2833 66.9008 78.6177 66.7605C78.952 66.6201 79.2548 66.4144 79.5088 66.1556C79.7627 65.8967 79.9627 65.5898 80.0967 65.2528C80.2306 64.9158 80.296 64.5555 80.2891 64.1929V60.6999H83.7803C84.5038 60.6999 85.1974 60.4125 85.709 59.9009C86.2206 59.3893 86.5078 58.6954 86.5078 57.9719C86.5078 57.2484 86.2206 56.5545 85.709 56.0429C85.1974 55.5313 84.5038 55.2439 83.7803 55.2439H80.2891V51.7539C80.2754 51.0396 79.9822 50.3591 79.4722 49.8588C78.9622 49.3584 78.276 49.0781 77.5615 49.0781C76.8471 49.0781 76.1609 49.3584 75.6509 49.8588C75.1409 50.3591 74.8477 51.0396 74.834 51.7539V55.2439L71.3433 55.2469Z" fill="#95D6A4"/>
<path fill-rule="evenodd" clip-rule="evenodd" d="M76.3516 49.3173C77.1663 53.177 77.5727 57.1116 77.5645 61.0563C77.563 63.0098 77.4631 64.9619 77.2646 66.9053C77.3646 66.9143 77.4645 66.9233 77.5645 66.9233C78.2871 66.9202 78.9793 66.6313 79.4897 66.1199C80.0002 65.6085 80.2877 64.9159 80.2896 64.1933V60.7003H83.7808C84.5043 60.7003 85.1979 60.4129 85.7095 59.9013C86.2211 59.3897 86.5083 58.6958 86.5083 57.9723C86.5083 57.2488 86.2211 56.5549 85.7095 56.0433C85.1979 55.5317 84.5043 55.2443 83.7808 55.2443H80.2896V51.7533C80.2874 51.0312 79.9998 50.3394 79.4893 49.8288C78.9787 49.3182 78.2865 49.0304 77.5645 49.0283C77.1433 49.027 76.7278 49.125 76.3516 49.3143V49.3173Z" fill="#78C2A4"/>
<path fill-rule="evenodd" clip-rule="evenodd" d="M77.5645 49.031C78.2867 49.0331 78.9786 49.321 79.4893 49.8318C79.9999 50.3426 80.2877 51.0348 80.2896 51.757V55.247H83.7808C84.5043 55.247 85.1979 55.5344 85.7095 56.046C86.2211 56.5576 86.5083 57.2515 86.5083 57.975C86.5083 58.6985 86.2211 59.3924 85.7095 59.904C85.1979 60.4156 84.5043 60.703 83.7808 60.703H80.2896V64.193C80.288 64.9157 80.0003 65.6084 79.4897 66.1199C78.9792 66.6314 78.2871 66.9201 77.5645 66.923C77.4645 66.923 77.3646 66.914 77.2646 66.905C77.0581 68.9612 76.7337 71.0039 76.2935 73.023C76.7095 73.059 77.1345 73.072 77.5605 73.072C79.6719 73.077 81.7607 72.6392 83.6924 71.7868C85.624 70.9344 87.3555 69.6863 88.7749 68.1233C90.1943 66.5602 91.2703 64.7168 91.9331 62.7121C92.5959 60.7075 92.831 58.5861 92.623 56.485C92.4151 54.3839 91.7689 52.3497 90.7261 50.5139C89.6832 48.678 88.2666 47.0812 86.5684 45.8267C84.8701 44.5721 82.928 43.6877 80.8667 43.2304C78.8054 42.7732 76.671 42.7533 74.6016 43.172C75.3179 45.1815 75.9013 47.2359 76.3477 49.322C76.7233 49.132 77.1386 49.0337 77.5596 49.035L77.5645 49.031Z" fill="#D9EEFF"/>
<path fill-rule="evenodd" clip-rule="evenodd" d="M77.5645 37.547C75.834 37.5465 74.1106 37.7663 72.4355 38.201C73.2721 39.805 73.9974 41.4645 74.6064 43.168C76.6759 42.7492 78.8103 42.7691 80.8716 43.2264C82.9329 43.6837 84.8755 44.5682 86.5737 45.8228C88.272 47.0774 89.6881 48.6742 90.731 50.5101C91.7738 52.3461 92.4201 54.3803 92.6279 56.4814C92.8358 58.5826 92.6009 60.704 91.938 62.7087C91.2751 64.7133 90.1988 66.5567 88.7793 68.1198C87.3598 69.6828 85.6285 70.9308 83.6968 71.7831C81.765 72.6354 79.6759 73.0731 77.5645 73.068C77.1385 73.068 76.7134 73.054 76.2974 73.019C75.9165 74.7784 75.4355 76.5145 74.8564 78.219C75.754 78.3398 76.6588 78.3997 77.5645 78.398C82.9574 78.3602 88.1169 76.1914 91.917 72.3646C95.7171 68.5378 97.8496 63.3635 97.8496 57.9705C97.8496 52.5774 95.7171 47.4031 91.917 43.5763C88.1169 39.7495 82.9574 37.5807 77.5645 37.543V37.547Z" fill="#78C2A4"/>
<path fill-rule="evenodd" clip-rule="evenodd" d="M64.1875 34.1942H34.9517C34.6376 34.1942 34.3363 34.0695 34.1143 33.8474C33.8922 33.6254 33.7676 33.3242 33.7676 33.0102C33.7676 32.6962 33.8922 32.395 34.1143 32.173C34.3363 31.9509 34.6376 31.8262 34.9517 31.8262H64.1875C64.5015 31.8262 64.8029 31.9509 65.0249 32.173C65.2469 32.395 65.3716 32.6962 65.3716 33.0102C65.3716 33.3242 65.2469 33.6254 65.0249 33.8474C64.8029 34.0695 64.5015 34.1942 64.1875 34.1942Z" fill="#2B4D66"/>
<path fill-rule="evenodd" clip-rule="evenodd" d="M55.4077 42.2274H34.9517C34.7962 42.2274 34.6422 42.1967 34.4985 42.1372C34.3549 42.0777 34.2242 41.9905 34.1143 41.8806C34.0043 41.7706 33.9169 41.6401 33.8574 41.4965C33.7979 41.3528 33.7676 41.1989 33.7676 41.0434C33.7676 40.8879 33.7979 40.7339 33.8574 40.5903C33.9169 40.4466 34.0043 40.3161 34.1143 40.2061C34.2242 40.0962 34.3549 40.009 34.4985 39.9495C34.6422 39.89 34.7962 39.8594 34.9517 39.8594H55.4077C55.7217 39.8594 56.0226 39.9841 56.2446 40.2061C56.4667 40.4282 56.5913 40.7293 56.5913 41.0434C56.5913 41.3574 56.4667 41.6585 56.2446 41.8806C56.0226 42.1026 55.7217 42.2274 55.4077 42.2274Z" fill="#2B4D66"/>
<path fill-rule="evenodd" clip-rule="evenodd" d="M50.7808 50.2596H34.9517C34.6376 50.2596 34.3363 50.1349 34.1143 49.9128C33.8922 49.6908 33.7676 49.3896 33.7676 49.0756C33.7676 48.7616 33.8922 48.4604 34.1143 48.2384C34.3363 48.0164 34.6376 47.8916 34.9517 47.8916H50.7808C51.0948 47.8916 51.3956 48.0164 51.6177 48.2384C51.8397 48.4604 51.9644 48.7616 51.9644 49.0756C51.9644 49.3896 51.8397 49.6908 51.6177 49.9128C51.3956 50.1349 51.0948 50.2596 50.7808 50.2596Z" fill="#2B4D66"/>
<path fill-rule="evenodd" clip-rule="evenodd" d="M50.7808 58.2928H34.9517C34.7962 58.2928 34.6422 58.2622 34.4985 58.2027C34.3549 58.1432 34.2242 58.056 34.1143 57.946C34.0043 57.8361 33.9169 57.7056 33.8574 57.5619C33.7979 57.4183 33.7676 57.2643 33.7676 57.1088C33.7676 56.9533 33.7979 56.7994 33.8574 56.6557C33.9169 56.5121 34.0043 56.3816 34.1143 56.2716C34.2242 56.1617 34.3549 56.0745 34.4985 56.015C34.6422 55.9555 34.7962 55.9248 34.9517 55.9248H50.7808C51.0948 55.9248 51.3956 56.0496 51.6177 56.2716C51.8397 56.4936 51.9644 56.7948 51.9644 57.1088C51.9644 57.4228 51.8397 57.724 51.6177 57.946C51.3956 58.1681 51.0948 58.2928 50.7808 58.2928Z" fill="#2B4D66"/>
<path fill-rule="evenodd" clip-rule="evenodd" d="M47.8804 66.326H34.9517C34.6376 66.326 34.3363 66.2013 34.1143 65.9792C33.8922 65.7572 33.7676 65.456 33.7676 65.142C33.7676 64.828 33.8922 64.5268 34.1143 64.3048C34.3363 64.0827 34.6376 63.958 34.9517 63.958H47.8804C48.1944 63.958 48.4957 64.0827 48.7178 64.3048C48.9398 64.5268 49.0645 64.828 49.0645 65.142C49.0645 65.456 48.9398 65.7572 48.7178 65.9792C48.4957 66.2013 48.1944 66.326 47.8804 66.326Z" fill="#2B4D66"/>
<path fill-rule="evenodd" clip-rule="evenodd" d="M30.0391 34.1942H28.7231C28.4091 34.1942 28.1078 34.0695 27.8857 33.8474C27.6637 33.6254 27.5391 33.3242 27.5391 33.0102C27.5391 32.6962 27.6637 32.395 27.8857 32.173C28.1078 31.9509 28.4091 31.8262 28.7231 31.8262H30.0391C30.3531 31.8262 30.6544 31.9509 30.8765 32.173C31.0985 32.395 31.2231 32.6962 31.2231 33.0102C31.2231 33.3242 31.0985 33.6254 30.8765 33.8474C30.6544 34.0695 30.3531 34.1942 30.0391 34.1942Z" fill="#78C2A4"/>
<path fill-rule="evenodd" clip-rule="evenodd" d="M30.0391 42.2274H28.7231C28.5677 42.2274 28.4137 42.1967 28.27 42.1372C28.1264 42.0777 27.9957 41.9905 27.8857 41.8806C27.7758 41.7706 27.6884 41.6401 27.6289 41.4965C27.5694 41.3528 27.5391 41.1989 27.5391 41.0434C27.5391 40.8879 27.5694 40.7339 27.6289 40.5903C27.6884 40.4466 27.7758 40.3161 27.8857 40.2061C27.9957 40.0962 28.1264 40.009 28.27 39.9495C28.4137 39.89 28.5677 39.8594 28.7231 39.8594H30.0391C30.3531 39.8594 30.6544 39.9841 30.8765 40.2061C31.0985 40.4282 31.2231 40.7293 31.2231 41.0434C31.2231 41.3574 31.0985 41.6585 30.8765 41.8806C30.6544 42.1026 30.3531 42.2274 30.0391 42.2274Z" fill="#2B4D66"/>
<path fill-rule="evenodd" clip-rule="evenodd" d="M30.0391 50.2596H28.7231C28.4091 50.2596 28.1078 50.1349 27.8857 49.9128C27.6637 49.6908 27.5391 49.3896 27.5391 49.0756C27.5391 48.7616 27.6637 48.4604 27.8857 48.2384C28.1078 48.0164 28.4091 47.8916 28.7231 47.8916H30.0391C30.3531 47.8916 30.6544 48.0164 30.8765 48.2384C31.0985 48.4604 31.2231 48.7616 31.2231 49.0756C31.2231 49.3896 31.0985 49.6908 30.8765 49.9128C30.6544 50.1349 30.3531 50.2596 30.0391 50.2596Z" fill="#78C2A4"/>
<path fill-rule="evenodd" clip-rule="evenodd" d="M30.0391 58.2928H28.7231C28.5677 58.2928 28.4137 58.2622 28.27 58.2027C28.1264 58.1432 27.9957 58.056 27.8857 57.946C27.7758 57.8361 27.6884 57.7056 27.6289 57.5619C27.5694 57.4183 27.5391 57.2643 27.5391 57.1088C27.5391 56.9533 27.5694 56.7994 27.6289 56.6557C27.6884 56.5121 27.7758 56.3816 27.8857 56.2716C27.9957 56.1617 28.1264 56.0745 28.27 56.015C28.4137 55.9555 28.5677 55.9248 28.7231 55.9248H30.0391C30.3531 55.9248 30.6544 56.0496 30.8765 56.2716C31.0985 56.4936 31.2231 56.7948 31.2231 57.1088C31.2231 57.4228 31.0985 57.724 30.8765 57.946C30.6544 58.1681 30.3531 58.2928 30.0391 58.2928Z" fill="#2B4D66"/>
<path fill-rule="evenodd" clip-rule="evenodd" d="M30.0391 66.326H28.7231C28.4091 66.326 28.1078 66.2013 27.8857 65.9792C27.6637 65.7572 27.5391 65.456 27.5391 65.142C27.5391 64.828 27.6637 64.5268 27.8857 64.3048C28.1078 64.0827 28.4091 63.958 28.7231 63.958H30.0391C30.3531 63.958 30.6544 64.0827 30.8765 64.3048C31.0985 64.5268 31.2231 64.828 31.2231 65.142C31.2231 65.456 31.0985 65.7572 30.8765 65.9792C30.6544 66.2013 30.3531 66.326 30.0391 66.326Z" fill="#78C2A4"/>
</svg>
