<svg width="96" height="85" viewBox="0 0 96 85" fill="none" xmlns="http://www.w3.org/2000/svg">
<path fill-rule="evenodd" clip-rule="evenodd" d="M87.8265 32.2H43.1655C41.3239 32.194 39.5346 32.8127 38.0898 33.9547C36.6451 35.0967 35.63 36.6948 35.2104 38.488L35.1904 38.561L24.4005 76.661C23.7238 79.5087 22.1764 82.0746 19.9735 84.002H79.3564C81.2481 83.997 83.0799 83.3382 84.5414 82.1372C86.0028 80.9362 87.0041 79.2668 87.3755 77.412L87.3895 77.3459L95.8525 41.928C96.081 40.745 96.0451 39.5261 95.7474 38.3585C95.4498 37.191 94.8978 36.1037 94.1309 35.1744C93.3639 34.2452 92.401 33.497 91.3112 32.9833C90.2213 32.4696 89.0314 32.2031 87.8265 32.203V32.2ZM62.7104 20.972H26.8005C23.7142 20.9757 20.7552 22.2033 18.5728 24.3856C16.3903 26.5679 15.1624 29.5267 15.1584 32.613V83.0229C13.1463 83.9502 10.8948 84.2258 8.71851 83.811V24.687C8.72115 22.52 9.58322 20.4426 11.1156 18.9104C12.648 17.3782 14.7255 16.5164 16.8925 16.514H56.7715C58.1108 16.5154 59.4137 16.9504 60.4852 17.754C61.5567 18.5576 62.3391 19.6866 62.7155 20.972H62.7104ZM21.0544 75.7469L21.0355 75.8199C20.6308 77.5429 19.8016 79.1373 18.6235 80.458V32.613C18.6257 30.4459 19.4875 28.3681 21.02 26.8358C22.5525 25.3035 24.6303 24.4418 26.7975 24.4399H66.8405C68.1356 24.4414 69.3958 24.8594 70.4352 25.6321C71.4745 26.4048 72.238 27.4912 72.6125 28.731H43.1655C40.5494 28.7233 38.0074 29.6003 35.9524 31.2194C33.8974 32.8385 32.4501 35.1047 31.8455 37.65L21.0544 75.75V75.7469ZM56.7675 13.047H16.8875C13.801 13.0504 10.8421 14.278 8.65955 16.4603C6.47702 18.6427 5.24919 21.6016 5.24548 24.688V82.494C3.66552 81.5517 2.3572 80.2154 1.44836 78.616C0.539524 77.0165 0.0613362 75.2086 0.0605469 73.369V8.78296C0.062929 6.45447 0.988854 4.22203 2.63525 2.57544C4.28165 0.928852 6.51404 0.00264722 8.84253 1.883e-08H33.3645C35.3372 -0.000133809 37.2433 0.713102 38.7314 2.00806L44.2085 6.77502C46.3275 8.61952 49.0421 9.63533 51.8514 9.63501H69.0385C71.367 9.63792 73.5993 10.5642 75.2458 12.2107C76.8923 13.8572 77.8186 16.0895 77.8215 18.418V28.7321H76.1735C75.766 26.5539 74.6105 24.5864 72.9066 23.1697C71.2027 21.753 69.0574 20.976 66.8414 20.973H66.2695C65.8611 18.7498 64.6872 16.7397 62.9515 15.2917C61.2158 13.8437 59.0278 13.0492 56.7675 13.046V13.047Z" fill="currentColor"/>
</svg>
