<svg width="95" height="84" viewBox="0 0 95 84" fill="none" xmlns="http://www.w3.org/2000/svg">
<path fill-rule="evenodd" clip-rule="evenodd" d="M90.8127 11.3702L56.0198 2.54824C54.5928 2.1864 53.0805 2.40623 51.8155 3.15937C50.5506 3.91251 49.6367 5.13728 49.2748 6.56425L48.2187 10.7303H65.5818C68.5245 10.7342 71.3455 11.9049 73.4263 13.9857C75.5071 16.0665 76.6778 18.8876 76.6818 21.8302V77.0602C77.6957 76.8438 78.6291 76.3483 79.3765 75.6297C80.1239 74.9111 80.6556 73.9979 80.9117 72.9932L94.8278 18.1132C95.1879 16.6863 94.9674 15.1748 94.2145 13.9103C93.4616 12.6458 92.2379 11.7316 90.8118 11.3683L90.8127 11.3702ZM71.1317 78.4482C71.1301 79.9198 70.545 81.3306 69.5045 82.3713C68.4641 83.4119 67.0533 83.9974 65.5818 83.9992H29.6877C28.216 83.9977 26.8051 83.4123 25.7644 82.3716C24.7237 81.331 24.1383 79.92 24.1367 78.4482V21.8322C24.1386 20.3606 24.724 18.9498 25.7646 17.9091C26.8053 16.8685 28.2161 16.2831 29.6877 16.2812H65.5818C67.0533 16.2831 68.4641 16.8686 69.5045 17.9092C70.545 18.9498 71.1301 20.3607 71.1317 21.8322V78.4482ZM56.7998 36.1403L48.6548 44.2863H54.7638L47.6367 51.4132H52.7278L39.9998 64.1403L43.5627 55.4862H38.4718L42.5448 48.3582H38.4718L44.5808 36.1403H56.7998ZM44.3998 10.7303L35.7898 1.71624C34.7728 0.651841 33.3746 0.0350137 31.9028 0.00144507C30.4311 -0.0321236 29.0062 0.520315 27.9418 1.53724L1.98571 26.3293C0.921479 27.3461 0.304748 28.744 0.270993 30.2155C0.237238 31.687 0.789292 33.1117 1.80578 34.1763L18.5858 51.7442V21.8322C18.5895 18.8895 19.7601 16.0683 21.8409 13.9875C23.9218 11.9066 26.743 10.736 29.6858 10.7322L44.3998 10.7303Z" fill="currentColor"/>
</svg>
