<svg width="92" height="84" viewBox="0 0 92 84" fill="none" xmlns="http://www.w3.org/2000/svg">
<path fill-rule="evenodd" clip-rule="evenodd" d="M24.2282 66.818C21.2386 66.8118 18.3262 65.8687 15.9003 64.1215C13.4745 62.3742 11.6573 59.9106 10.7042 57.077L10.5701 56.638C10.143 55.2994 9.92056 53.9041 9.91022 52.499V26.467L0.647155 57.386C0.0804878 59.586 0.399837 61.9206 1.53644 63.8876C2.67304 65.8547 4.53612 67.2973 6.72516 67.905L65.7652 83.717C66.4836 83.9038 67.2228 83.9986 67.9651 83.999C69.8353 84.0093 71.6568 83.4034 73.1481 82.275C74.6395 81.1466 75.7176 79.5585 76.2161 77.756L79.6562 66.818H24.2282ZM82.4542 0C84.9849 0.00343936 87.4109 1.01027 89.2004 2.79974C90.9899 4.58922 91.9967 7.01532 92.0002 9.54602V51.546C91.9967 54.0767 90.9899 56.5028 89.2004 58.2922C87.4109 60.0817 84.9849 61.0885 82.4542 61.092H25.1822C22.6517 61.0883 20.2258 60.0813 18.4366 58.2919C16.6473 56.5024 15.6406 54.0765 15.6371 51.546V9.54602C15.6406 7.01549 16.6473 4.58956 18.4366 2.80011C20.2258 1.01066 22.6517 0.00370385 25.1822 0H82.4542ZM25.1822 7.63702H82.4542C82.9607 7.63702 83.4466 7.83822 83.8047 8.19641C84.1629 8.55461 84.3642 9.04043 84.3642 9.547V36.647L72.3002 22.576C71.6625 21.8436 70.8759 21.2555 69.9931 20.8508C69.1103 20.4461 68.1514 20.2341 67.1802 20.229C66.2058 20.2338 65.2442 20.452 64.3631 20.8682C63.482 21.2843 62.7028 21.8884 62.0801 22.638L47.9002 39.659L43.2802 35.05C42.024 33.7954 40.3211 33.0908 38.5457 33.0908C36.7703 33.0908 35.0675 33.7954 33.8112 35.05L23.2731 45.584V9.54602C23.2731 9.03963 23.4742 8.55397 23.8322 8.1958C24.1902 7.83764 24.6758 7.63625 25.1822 7.63599V7.63702ZM34.7282 26.728C33.2177 26.7282 31.741 26.2804 30.4849 25.4413C29.2289 24.6023 28.2498 23.4096 27.6717 22.014C27.0935 20.6185 26.9422 19.0828 27.2369 17.6013C27.5315 16.1198 28.2589 14.7589 29.327 13.6908C30.3951 12.6227 31.756 11.8954 33.2375 11.6007C34.719 11.3061 36.2547 11.4574 37.6502 12.0355C39.0457 12.6137 40.2385 13.5927 41.0776 14.8488C41.9167 16.1048 42.3644 17.5814 42.3642 19.092C42.3621 21.1164 41.5569 23.0574 40.1253 24.4888C38.6937 25.9202 36.7527 26.7251 34.7282 26.727V26.728Z" fill="currentColor"/>
</svg>
