<svg width="97" height="85" viewBox="0 0 97 85" fill="none" xmlns="http://www.w3.org/2000/svg">
<path fill-rule="evenodd" clip-rule="evenodd" d="M94.7477 22.5503L74.7088 14.0563C67.1538 10.4613 57.3917 0.703313 57.2947 0.604313C57.0621 0.370675 56.7766 0.196498 56.4623 0.0965613C56.1481 -0.00337533 55.8145 -0.0261521 55.4896 0.0301551C55.1647 0.0864623 54.8582 0.220198 54.5959 0.420048C54.3336 0.619897 54.1233 0.879976 53.9828 1.17829C50.6259 8.29929 40.8588 10.4103 40.6318 10.4613L2.00775 27.4943C1.61829 27.6009 1.2689 27.8199 1.00324 28.124C0.737574 28.4281 0.567453 28.8037 0.5141 29.204C0.460748 29.6042 0.526576 30.0113 0.703309 30.3744C0.880043 30.7375 1.15982 31.0404 1.50775 31.2453L34.6428 50.6833C34.8859 50.8265 35.1559 50.9182 35.436 50.9526C35.716 50.987 36.0002 50.9634 36.2708 50.8833L94.5308 26.4093C94.9353 26.2883 95.2926 26.0454 95.554 25.7139C95.8154 25.3823 95.9681 24.9781 95.9914 24.5566C96.0147 24.135 95.9074 23.7166 95.6841 23.3582C95.4609 22.9999 95.1325 22.7191 94.7438 22.5543L94.7477 22.5503ZM93.3578 55.3363L35.9578 79.5533L3.59479 60.5673C3.12496 60.2914 2.5648 60.2136 2.03754 60.3508C1.51028 60.488 1.05909 60.8289 0.783266 61.2988C0.50744 61.7686 0.42953 62.3288 0.566713 62.856C0.703896 63.3833 1.045 63.8345 1.51483 64.1103L35.4197 84.0013L94.5358 59.2703C94.7941 59.1929 95.0347 59.0655 95.2437 58.8951C95.4528 58.7248 95.6263 58.515 95.7542 58.2777C95.8822 58.0403 95.9621 57.7801 95.9894 57.5118C96.0168 57.2436 95.9911 56.9726 95.9138 56.7143C95.8364 56.456 95.7089 56.2155 95.5386 56.0064C95.3683 55.7974 95.1585 55.6239 94.9212 55.4959C94.6839 55.368 94.4236 55.288 94.1553 55.2606C93.8871 55.2332 93.6162 55.259 93.3578 55.3363ZM93.3578 47.1203C93.6173 47.0388 93.8903 47.0096 94.1611 47.0344C94.4319 47.0593 94.695 47.1377 94.9352 47.2651C95.1755 47.3926 95.388 47.5664 95.5605 47.7767C95.733 47.9869 95.862 48.2293 95.94 48.4898C96.018 48.7503 96.0435 49.0237 96.015 49.2941C95.9864 49.5646 95.9045 49.8266 95.7739 50.0651C95.6432 50.3036 95.4665 50.5138 95.254 50.6834C95.0414 50.853 94.7974 50.9788 94.5358 51.0533L35.4197 75.7843L1.51178 55.8943C1.04195 55.6185 0.700966 55.1673 0.563783 54.64C0.4266 54.1128 0.504511 53.5526 0.780336 53.0828C1.05616 52.6129 1.50723 52.272 2.03449 52.1348C2.56174 51.9976 3.12191 52.0754 3.59174 52.3513L35.9548 71.3373L93.3548 47.1203H93.3578ZM93.3578 38.9053C93.6173 38.8237 93.8903 38.7946 94.1611 38.8195C94.4319 38.8443 94.695 38.9228 94.9352 39.0502C95.1755 39.1776 95.388 39.3514 95.5605 39.5616C95.733 39.7719 95.862 40.0143 95.94 40.2748C96.018 40.5353 96.0435 40.8087 96.015 41.0791C95.9864 41.3495 95.9045 41.6116 95.7739 41.8501C95.6432 42.0886 95.4665 42.2988 95.254 42.4684C95.0414 42.6381 94.7974 42.7638 94.5358 42.8383L35.4197 67.5683L1.51178 47.6783C1.04195 47.4025 0.700966 46.9513 0.563783 46.424C0.4266 45.8968 0.504511 45.3366 0.780336 44.8668C1.05616 44.3969 1.50723 44.056 2.03449 43.9188C2.56174 43.7816 3.12191 43.8594 3.59174 44.1353L35.9548 63.1213L93.3548 38.9053H93.3578ZM93.3578 30.6883C93.6162 30.6109 93.8871 30.5852 94.1553 30.6126C94.4236 30.64 94.6839 30.7199 94.9212 30.8479C95.1585 30.9759 95.3683 31.1494 95.5386 31.3584C95.7089 31.5674 95.8364 31.808 95.9138 32.0663C95.9911 32.3246 96.0168 32.5956 95.9894 32.8638C95.9621 33.1321 95.8822 33.3924 95.7542 33.6297C95.6263 33.8671 95.4528 34.0768 95.2437 34.2471C95.0347 34.4174 94.7941 34.5449 94.5358 34.6223L35.4197 59.3523L1.51178 39.4613C1.27928 39.3247 1.07593 39.1437 0.913392 38.9285C0.75085 38.7134 0.632349 38.4683 0.564516 38.2073C0.496682 37.9464 0.480926 37.6745 0.518129 37.4075C0.555331 37.1404 0.644738 36.8833 0.781312 36.6508C0.917887 36.4183 1.09887 36.215 1.31403 36.0524C1.52918 35.8899 1.77424 35.7713 2.03522 35.7034C2.2962 35.6356 2.56807 35.6198 2.83515 35.657C3.10222 35.6942 3.35923 35.7837 3.59174 35.9203L35.9548 54.9053L93.3578 30.6883Z" fill="currentColor"/>
</svg>
