<svg width="90" height="84" viewBox="0 0 90 84" fill="none" xmlns="http://www.w3.org/2000/svg">
<path fill-rule="evenodd" clip-rule="evenodd" d="M89.9996 7.20001C89.9996 5.29045 89.241 3.45909 87.8907 2.10883C86.5405 0.758564 84.7092 0 82.7997 0H7.79968C5.89012 0 4.05876 0.758564 2.7085 2.10883C1.35823 3.45909 0.599609 5.29045 0.599609 7.20001V76.8C0.599609 78.7095 1.35823 80.5409 2.7085 81.8912C4.05876 83.2414 5.89012 83.9999 7.79968 83.9999H82.7997C84.7092 83.9999 86.5405 83.2414 87.8907 81.8912C89.241 80.5409 89.9996 78.7095 89.9996 76.8V7.20001ZM27.8997 9H40.7997V19.2H27.8997V9ZM18.8997 74.9999H9.59961V64.8H18.8997V74.9999ZM18.8997 19.2H9.59961V9H18.8997V19.2ZM40.7997 74.9999H27.8997V64.8H40.7997V74.9999ZM37.4996 50.312V33.688C37.4996 31.212 39.2607 30.297 41.3307 31.653L53.4016 39.534C55.4726 40.89 55.4886 43.1081 53.4186 44.4641L41.3186 52.347C39.2476 53.704 37.4956 52.7869 37.4956 50.312H37.4996ZM62.6996 74.9999H49.7997V64.8H62.6996V74.9999ZM62.6996 19.2H49.7997V9H62.6996V19.2ZM80.9996 74.9999H71.6996V64.8H80.9996V74.9999ZM80.9996 19.2H71.6996V9H80.9996V19.2Z" fill="currentColor"/>
</svg>
