<svg width="106" height="85" viewBox="0 0 106 85" fill="none" xmlns="http://www.w3.org/2000/svg">
<path fill-rule="evenodd" clip-rule="evenodd" d="M53 84.1553C81.916 84.1553 105.5 79.4383 105.5 73.6553C105.5 67.8723 81.915 63.1553 53 63.1553C24.085 63.1553 0.5 67.8723 0.5 73.6553C0.5 79.4383 24.084 84.1553 53 84.1553Z" fill="#D7E2EC"/>
<path fill-rule="evenodd" clip-rule="evenodd" d="M21.8198 73.6555H84.1763C85.2667 73.6529 86.3116 73.2188 87.083 72.4481C87.8544 71.6775 88.2893 70.6329 88.293 69.5425V24.4205L52.998 21.7285L17.7031 24.4205V69.5425C17.7068 70.633 18.142 71.6778 18.9136 72.4485C19.6852 73.2192 20.7307 73.6531 21.8213 73.6555H21.8198Z" fill="#EFF6FF"/>
<path fill-rule="evenodd" clip-rule="evenodd" d="M17.7041 24.4202H88.2939C88.6736 24.4193 89.0382 24.2706 89.3101 24.0055C89.5819 23.7404 89.7396 23.3798 89.75 23.0002V19.0363L52.4038 14.6553L16.248 19.0363V22.9913C16.2559 23.3725 16.4124 23.7354 16.6846 24.0025C16.9567 24.2696 17.3228 24.4195 17.7041 24.4202Z" fill="#9FD4FE"/>
<path fill-rule="evenodd" clip-rule="evenodd" d="M16.248 19.0364H89.748V8.98541C89.7379 8.60569 89.58 8.24487 89.3081 7.97955C89.0363 7.71424 88.6719 7.56536 88.292 7.56445H17.7021C17.3209 7.56516 16.9547 7.71504 16.6826 7.98212C16.4105 8.24919 16.2539 8.6122 16.2461 8.99341V19.0364H16.248Z" fill="#EB5468"/>
<path fill-rule="evenodd" clip-rule="evenodd" d="M68.9395 7.56445C70.9785 11.2183 72.6608 15.06 73.9634 19.0364H89.7505V8.98541C89.7401 8.60577 89.5823 8.24512 89.3105 7.97986C89.0388 7.7146 88.6742 7.56561 88.2944 7.56445H82.1943V10.6224C82.1943 11.5085 81.8424 12.3583 81.2158 12.9849C80.5893 13.6114 79.7396 13.9634 78.8535 13.9634C77.9674 13.9634 77.1178 13.6114 76.4912 12.9849C75.8647 12.3583 75.5127 11.5085 75.5127 10.6224V7.56445H68.9395Z" fill="#E5384F"/>
<path fill-rule="evenodd" clip-rule="evenodd" d="M73.9629 19.0361C74.5399 20.7771 75.0631 22.5761 75.5371 24.4201H88.2939C88.6736 24.4192 89.0382 24.2705 89.3101 24.0054C89.5819 23.7403 89.7396 23.3797 89.75 23.0001V19.0361H73.9629Z" fill="#85BEEF"/>
<path fill-rule="evenodd" clip-rule="evenodd" d="M23.8052 10.6213C23.7975 11.065 23.878 11.5058 24.0425 11.9179C24.207 12.33 24.4521 12.7053 24.7632 13.0218C25.0742 13.3383 25.4453 13.5896 25.8545 13.7612C26.2637 13.9328 26.7028 14.0212 27.1465 14.0212C27.5902 14.0212 28.0298 13.9328 28.439 13.7612C28.8482 13.5896 29.2192 13.3383 29.5303 13.0218C29.8413 12.7053 30.086 12.33 30.2505 11.9179C30.415 11.5058 30.496 11.065 30.4883 10.6213V3.50037C30.496 3.05669 30.415 2.61593 30.2505 2.2038C30.086 1.79166 29.8413 1.41639 29.5303 1.09991C29.2192 0.783439 28.8482 0.532119 28.439 0.360535C28.0298 0.18895 27.5902 0.100586 27.1465 0.100586C26.7028 0.100586 26.2637 0.18895 25.8545 0.360535C25.4453 0.532119 25.0742 0.783439 24.7632 1.09991C24.4521 1.41639 24.207 1.79166 24.0425 2.2038C23.878 2.61593 23.7975 3.05669 23.8052 3.50037V10.6244V10.6213Z" fill="#FFE07D"/>
<path fill-rule="evenodd" clip-rule="evenodd" d="M41.0396 10.6213C41.0319 11.065 41.1124 11.5058 41.2769 11.9179C41.4413 12.33 41.6865 12.7053 41.9976 13.0218C42.3086 13.3383 42.6797 13.5896 43.0889 13.7612C43.4981 13.9328 43.9371 14.0212 44.3809 14.0212C44.8246 14.0212 45.2641 13.9328 45.6734 13.7612C46.0826 13.5896 46.4536 13.3383 46.7647 13.0218C47.0757 12.7053 47.3204 12.33 47.4849 11.9179C47.6494 11.5058 47.7303 11.065 47.7227 10.6213V3.50037C47.7303 3.05669 47.6494 2.61593 47.4849 2.2038C47.3204 1.79166 47.0757 1.41639 46.7647 1.09991C46.4536 0.783439 46.0826 0.532119 45.6734 0.360535C45.2641 0.18895 44.8246 0.100586 44.3809 0.100586C43.9371 0.100586 43.4981 0.18895 43.0889 0.360535C42.6797 0.532119 42.3086 0.783439 41.9976 1.09991C41.6865 1.41639 41.4413 1.79166 41.2769 2.2038C41.1124 2.61593 41.0319 3.05669 41.0396 3.50037V10.6244V10.6213Z" fill="#FFE07D"/>
<path fill-rule="evenodd" clip-rule="evenodd" d="M58.2739 10.6213C58.2663 11.065 58.3472 11.5058 58.5117 11.9179C58.6762 12.33 58.9209 12.7053 59.2319 13.0218C59.543 13.3383 59.914 13.5896 60.3233 13.7612C60.7325 13.9328 61.172 14.0212 61.6157 14.0212C62.0595 14.0212 62.4985 13.9328 62.9077 13.7612C63.317 13.5896 63.688 13.3383 63.999 13.0218C64.3101 12.7053 64.5553 12.33 64.7197 11.9179C64.8842 11.5058 64.9647 11.065 64.957 10.6213V3.50037C64.9647 3.05669 64.8842 2.61593 64.7197 2.2038C64.5553 1.79166 64.3101 1.41639 63.999 1.09991C63.688 0.783439 63.317 0.532119 62.9077 0.360535C62.4985 0.18895 62.0595 0.100586 61.6157 0.100586C61.172 0.100586 60.7325 0.18895 60.3233 0.360535C59.914 0.532119 59.543 0.783439 59.2319 1.09991C58.9209 1.41639 58.6762 1.79166 58.5117 2.2038C58.3472 2.61593 58.2663 3.05669 58.2739 3.50037V10.6244V10.6213Z" fill="#FFE07D"/>
<path fill-rule="evenodd" clip-rule="evenodd" d="M75.5098 3.50067V10.6257C75.5098 11.5119 75.8616 12.3618 76.4883 12.9885C77.1149 13.6151 77.9649 13.9672 78.8511 13.9672C79.7373 13.9672 80.5872 13.6151 81.2139 12.9885C81.8405 12.3618 82.1924 11.5119 82.1924 10.6257V3.50067C82.1924 2.61445 81.8405 1.76453 81.2139 1.13788C80.5872 0.511226 79.7373 0.15918 78.8511 0.15918C77.9649 0.15918 77.1149 0.511226 76.4883 1.13788C75.8616 1.76453 75.5098 2.61445 75.5098 3.50067Z" fill="#FFE07D"/>
<path fill-rule="evenodd" clip-rule="evenodd" d="M44.4399 3.50018V10.6252C44.439 11.2169 44.2811 11.7979 43.9824 12.3087C43.6838 12.8196 43.2554 13.2421 42.7402 13.5332C43.2407 13.8175 43.8062 13.9667 44.3818 13.9662C45.267 13.9633 46.1153 13.6104 46.7412 12.9844C47.3671 12.3585 47.7202 11.5104 47.7231 10.6252V3.50018C47.7205 2.61482 47.3677 1.76647 46.7417 1.14032C46.1157 0.514174 45.2672 0.161106 44.3818 0.158205C43.8062 0.157617 43.2407 0.306823 42.7402 0.591188C43.2559 0.881971 43.6847 1.30454 43.9834 1.81568C44.2821 2.32681 44.4397 2.90816 44.4399 3.50018Z" fill="#FFC250"/>
<path fill-rule="evenodd" clip-rule="evenodd" d="M27.2061 3.49996V10.625C27.205 11.2167 27.0472 11.7976 26.7485 12.3084C26.4499 12.8193 26.021 13.2418 25.5059 13.533C26.014 13.8204 26.5886 13.9696 27.1724 13.9657C27.7561 13.9617 28.3288 13.8048 28.833 13.5106C29.3372 13.2163 29.7553 12.795 30.0459 12.2887C30.3365 11.7824 30.4896 11.2087 30.4893 10.625V3.49996C30.4897 2.91609 30.3369 2.34229 30.0464 1.83583C29.7559 1.32937 29.3377 0.907964 28.8335 0.613603C28.3293 0.319242 27.7567 0.162253 27.1729 0.15828C26.589 0.154308 26.014 0.303486 25.5059 0.590959C26.0214 0.881901 26.4508 1.30453 26.7495 1.81563C27.0482 2.32673 27.2056 2.90798 27.2061 3.49996Z" fill="#FFC250"/>
<path fill-rule="evenodd" clip-rule="evenodd" d="M61.6743 3.50018V10.6252C61.6733 11.2169 61.5154 11.7978 61.2168 12.3087C60.9182 12.8195 60.4897 13.242 59.9746 13.5332C60.4748 13.8175 61.0404 13.9667 61.6157 13.9662C62.5011 13.9636 63.3494 13.6108 63.9756 12.9848C64.6017 12.3588 64.9546 11.5106 64.9575 10.6252V3.50018C64.9549 2.61464 64.6018 1.76613 63.9756 1.13996C63.3494 0.51378 62.5013 0.160843 61.6157 0.158205C61.0404 0.157652 60.4748 0.306862 59.9746 0.591188C60.4902 0.882051 60.9191 1.30468 61.2178 1.8158C61.5165 2.32692 61.674 2.90819 61.6743 3.50018Z" fill="#FFC250"/>
<path fill-rule="evenodd" clip-rule="evenodd" d="M78.9111 3.50019V10.6252C78.9093 11.2167 78.7512 11.7973 78.4526 12.308C78.1541 12.8187 77.7255 13.2414 77.2109 13.5332C77.711 13.8176 78.2767 13.9668 78.8521 13.9662C79.7374 13.9636 80.5858 13.6108 81.2119 12.9848C81.8381 12.3588 82.1909 11.5106 82.1938 10.6252V3.50019C82.1912 2.61464 81.8386 1.76613 81.2124 1.13996C80.5862 0.51378 79.7376 0.160843 78.8521 0.158206C78.2767 0.157515 77.711 0.306734 77.2109 0.591189C77.7259 0.882767 78.1545 1.30551 78.4531 1.81647C78.7517 2.32743 78.9099 2.90837 78.9111 3.50019Z" fill="#FFC250"/>
<path fill-rule="evenodd" clip-rule="evenodd" d="M75.0303 73.655H84.1763C85.2667 73.6523 86.3116 73.2182 87.083 72.4476C87.8544 71.6769 88.2893 70.6323 88.293 69.5419V24.4199H71.8828C78.0828 40.1759 78.7243 56.897 75.0303 73.655Z" fill="#D9EEFF"/>
<path fill-rule="evenodd" clip-rule="evenodd" d="M72.3926 33.6008H31.7925C31.4761 33.6008 31.1725 33.4751 30.9487 33.2514C30.725 33.0277 30.5996 32.7242 30.5996 32.4078C30.5996 32.0914 30.725 31.788 30.9487 31.5643C31.1725 31.3405 31.4761 31.2148 31.7925 31.2148H72.3926C72.709 31.2148 73.0126 31.3405 73.2363 31.5643C73.4601 31.788 73.5854 32.0914 73.5854 32.4078C73.5854 32.7242 73.4601 33.0277 73.2363 33.2514C73.0126 33.4751 72.709 33.6008 72.3926 33.6008Z" fill="#2B4D66"/>
<path fill-rule="evenodd" clip-rule="evenodd" d="M74.6885 41.7004H31.7886C31.4722 41.7004 31.1686 41.5747 30.9448 41.351C30.7211 41.1273 30.5957 40.8238 30.5957 40.5074C30.5957 40.191 30.7211 39.8875 30.9448 39.6638C31.1686 39.4401 31.4722 39.3145 31.7886 39.3145H74.6885C75.0049 39.3145 75.3085 39.4401 75.5322 39.6638C75.756 39.8875 75.8813 40.191 75.8813 40.5074C75.8813 40.8238 75.756 41.1273 75.5322 41.351C75.3085 41.5747 75.0049 41.7004 74.6885 41.7004Z" fill="#2B4D66"/>
<path fill-rule="evenodd" clip-rule="evenodd" d="M70.0244 49.7933H31.7905C31.4741 49.7933 31.1705 49.6676 30.9468 49.4438C30.723 49.2201 30.5977 48.9166 30.5977 48.6002C30.5977 48.2838 30.723 47.9804 30.9468 47.7567C31.1705 47.5329 31.4741 47.4072 31.7905 47.4072H70.0244C70.3408 47.4072 70.6444 47.5329 70.8682 47.7567C71.0919 47.9804 71.2178 48.2838 71.2178 48.6002C71.2178 48.9166 71.0919 49.2201 70.8682 49.4438C70.6444 49.6676 70.3408 49.7933 70.0244 49.7933Z" fill="#2B4D66"/>
<path fill-rule="evenodd" clip-rule="evenodd" d="M70.0244 57.8879H31.7905C31.4741 57.8879 31.1705 57.7622 30.9468 57.5385C30.723 57.3148 30.5977 57.0113 30.5977 56.6949C30.5977 56.3785 30.723 56.0751 30.9468 55.8514C31.1705 55.6276 31.4741 55.502 31.7905 55.502H70.0244C70.1811 55.502 70.3362 55.5328 70.481 55.5928C70.6257 55.6527 70.7574 55.7406 70.8682 55.8514C70.9789 55.9622 71.067 56.0937 71.127 56.2384C71.1869 56.3831 71.2178 56.5383 71.2178 56.6949C71.2178 56.8516 71.1869 57.0067 71.127 57.1515C71.067 57.2962 70.9789 57.4277 70.8682 57.5385C70.7574 57.6493 70.6257 57.7372 70.481 57.7971C70.3362 57.8571 70.1811 57.8879 70.0244 57.8879Z" fill="#2B4D66"/>
<path fill-rule="evenodd" clip-rule="evenodd" d="M78.2446 65.9827H31.7905C31.4741 65.9827 31.1705 65.857 30.9468 65.6332C30.723 65.4095 30.5977 65.1061 30.5977 64.7897C30.5977 64.4733 30.723 64.1698 30.9468 63.9461C31.1705 63.7224 31.4741 63.5967 31.7905 63.5967H78.2446C78.561 63.5967 78.8642 63.7224 79.0879 63.9461C79.3116 64.1698 79.4375 64.4733 79.4375 64.7897C79.4375 65.1061 79.3116 65.4095 79.0879 65.6332C78.8642 65.857 78.561 65.9827 78.2446 65.9827Z" fill="#2B4D66"/>
<path fill-rule="evenodd" clip-rule="evenodd" d="M26.8398 33.6008H25.5151C25.1987 33.6008 24.8951 33.4751 24.6714 33.2514C24.4477 33.0277 24.3223 32.7242 24.3223 32.4078C24.3223 32.0914 24.4477 31.788 24.6714 31.5643C24.8951 31.3405 25.1987 31.2148 25.5151 31.2148H26.8398C26.9965 31.2148 27.1516 31.2457 27.2964 31.3057C27.4411 31.3656 27.5728 31.4535 27.6836 31.5643C27.7944 31.6751 27.8824 31.8066 27.9424 31.9513C28.0023 32.096 28.0332 32.2512 28.0332 32.4078C28.0332 32.5645 28.0023 32.7196 27.9424 32.8644C27.8824 33.0091 27.7944 33.1406 27.6836 33.2514C27.5728 33.3622 27.4411 33.4501 27.2964 33.5101C27.1516 33.57 26.9965 33.6008 26.8398 33.6008Z" fill="#78C2A4"/>
<path fill-rule="evenodd" clip-rule="evenodd" d="M26.8398 41.7004H25.5151C25.1987 41.7004 24.8951 41.5747 24.6714 41.351C24.4477 41.1273 24.3223 40.8238 24.3223 40.5074C24.3223 40.191 24.4477 39.8875 24.6714 39.6638C24.8951 39.4401 25.1987 39.3145 25.5151 39.3145H26.8398C27.1562 39.3145 27.4599 39.4401 27.6836 39.6638C27.9073 39.8875 28.0332 40.191 28.0332 40.5074C28.0332 40.8238 27.9073 41.1273 27.6836 41.351C27.4599 41.5747 27.1562 41.7004 26.8398 41.7004Z" fill="#2B4D66"/>
<path fill-rule="evenodd" clip-rule="evenodd" d="M26.8398 49.7933H25.5151C25.1987 49.7933 24.8951 49.6676 24.6714 49.4438C24.4477 49.2201 24.3223 48.9166 24.3223 48.6002C24.3223 48.2838 24.4477 47.9804 24.6714 47.7567C24.8951 47.5329 25.1987 47.4072 25.5151 47.4072H26.8398C27.1562 47.4072 27.4599 47.5329 27.6836 47.7567C27.9073 47.9804 28.0332 48.2838 28.0332 48.6002C28.0332 48.9166 27.9073 49.2201 27.6836 49.4438C27.4599 49.6676 27.1562 49.7933 26.8398 49.7933Z" fill="#78C2A4"/>
<path fill-rule="evenodd" clip-rule="evenodd" d="M26.8398 57.8879H25.5151C25.1987 57.8879 24.8951 57.7622 24.6714 57.5385C24.4477 57.3148 24.3223 57.0113 24.3223 56.6949C24.3223 56.3785 24.4477 56.0751 24.6714 55.8514C24.8951 55.6276 25.1987 55.502 25.5151 55.502H26.8398C26.9965 55.502 27.1516 55.5328 27.2964 55.5928C27.4411 55.6527 27.5728 55.7406 27.6836 55.8514C27.7944 55.9622 27.8824 56.0937 27.9424 56.2384C28.0023 56.3831 28.0332 56.5383 28.0332 56.6949C28.0332 56.8516 28.0023 57.0067 27.9424 57.1515C27.8824 57.2962 27.7944 57.4277 27.6836 57.5385C27.5728 57.6493 27.4411 57.7372 27.2964 57.7971C27.1516 57.8571 26.9965 57.8879 26.8398 57.8879Z" fill="#2B4D66"/>
<path fill-rule="evenodd" clip-rule="evenodd" d="M26.8398 65.9827H25.5151C25.1987 65.9827 24.8951 65.857 24.6714 65.6332C24.4477 65.4095 24.3223 65.1061 24.3223 64.7897C24.3223 64.4733 24.4477 64.1698 24.6714 63.9461C24.8951 63.7224 25.1987 63.5967 25.5151 63.5967H26.8398C27.1562 63.5967 27.4599 63.7224 27.6836 63.9461C27.9073 64.1698 28.0332 64.4733 28.0332 64.7897C28.0332 65.1061 27.9073 65.4095 27.6836 65.6332C27.4599 65.857 27.1562 65.9827 26.8398 65.9827Z" fill="#78C2A4"/>
</svg>
