<?xml version="1.0" encoding="UTF-8"?>
<!DOCTYPE svg PUBLIC "-//W3C//DTD SVG 1.1//EN" "http://www.w3.org/Graphics/SVG/1.1/DTD/svg11.dtd">
<!-- Creator: CorelDRAW 2019 (64-Bit) -->
<svg xmlns="http://www.w3.org/2000/svg" xml:space="preserve" width="200px" height="200px" version="1.1" style="shape-rendering:geometricPrecision; text-rendering:geometricPrecision; image-rendering:optimizeQuality; fill-rule:evenodd; clip-rule:evenodd"
viewBox="0 0 200 200"
 xmlns:xlink="http://www.w3.org/1999/xlink"
 xmlns:xodm="http://www.corel.com/coreldraw/odm/2003"
 enable-background="new 0 0 512 512">
 <defs>
  <style type="text/css">
   <![CDATA[
    .fil2 {fill:#395C7F}
    .fil1 {fill:white}
    .fil0 {fill:#395C7F}
    .fil8 {fill:#2E414F;fill-rule:nonzero}
    .fil4 {fill:#E20000;fill-rule:nonzero}
    .fil11 {fill:#F5A07D;fill-rule:nonzero}
    .fil10 {fill:#FAB493;fill-rule:nonzero}
    .fil3 {fill:#FF4A4A;fill-rule:nonzero}
    .fil5 {fill:#FF6378;fill-rule:nonzero}
    .fil7 {fill:#FFB454;fill-rule:nonzero}
    .fil9 {fill:#FFC2AA;fill-rule:nonzero}
    .fil6 {fill:#FFDD54;fill-rule:nonzero}
   ]]>
  </style>
 </defs>
 <g id="Layer_x0020_1">
  <metadata id="CorelCorpID_0Corel-Layer"/>
  <rect class="fil0" width="200" height="200"/>
  <rect class="fil1" x="15" y="15" width="170" height="170" rx="35" ry="35"/>
  <g id="_1443689456272">
   <path class="fil2" d="M50 22.5l100 0c15.13,0 27.5,12.37 27.5,27.5l0 100c0,15.13 -12.37,27.5 -27.5,27.5l-100 0c-15.13,0 -27.5,-12.37 -27.5,-27.5l0 -100c0,-15.13 12.37,-27.5 27.5,-27.5z"/>
  </g>
  <g id="_1443689448624">
   <path class="fil3" d="M134.18 140.04l-68.36 0c-2.02,0 -3.66,-1.64 -3.66,-3.66l0 -64.7 75.68 0 0 64.7c0,2.02 -1.64,3.66 -3.66,3.66l0 0z"/>
   <path class="fil4" d="M100 140.04l34.18 0c2.02,0 3.66,-1.64 3.66,-3.66l0 -64.7 -37.84 0 0 68.36z"/>
   <path class="fil5" d="M139.06 76.56l-78.12 0c-2.02,0 -3.66,-1.64 -3.66,-3.66l0 -12.21c0,-2.02 1.64,-3.66 3.66,-3.66l78.12 0c2.02,0 3.66,1.64 3.66,3.66l0 12.21c0,2.02 -1.64,3.66 -3.66,3.66l0 0z"/>
   <path class="fil3" d="M139.06 57.03l-39.06 0 0 19.53 39.06 0c2.02,0 3.66,-1.64 3.66,-3.66l0 -12.21c0,-2.02 -1.64,-3.66 -3.66,-3.66l0 0z"/>
   <polygon class="fil6" points="96.34,57.03 103.66,57.03 103.66,140.04 96.34,140.04 "/>
   <polygon class="fil7" points="100,57.03 103.66,57.03 103.66,140.04 100,140.04 "/>
   <path class="fil6" d="M109.77 37.5c-3.85,0 -7.32,1.63 -9.77,4.23 -2.45,-2.6 -5.92,-4.23 -9.77,-4.23 -7.4,0 -13.42,6.02 -13.42,13.43 0,7.4 6.02,13.43 13.42,13.43l19.54 0c7.4,0 13.42,-6.03 13.42,-13.43 0,-7.41 -6.02,-13.43 -13.42,-13.43l0 0zm-25.64 13.43c0,-3.37 2.74,-6.11 6.1,-6.11 3.37,0 6.11,2.74 6.11,6.11l0 6.1 -6.11 0c-3.36,0 -6.1,-2.74 -6.1,-6.1zm25.64 6.1l-6.11 0 0 -6.1c0,-3.37 2.74,-6.11 6.11,-6.11 3.36,0 6.1,2.74 6.1,6.11 0,3.36 -2.74,6.1 -6.1,6.1l0 0z"/>
   <path class="fil7" d="M109.77 64.36c7.4,0 13.42,-6.03 13.42,-13.43 0,-7.41 -6.02,-13.43 -13.42,-13.43 -3.85,0 -7.32,1.63 -9.77,4.23l0 22.63 9.77 0zm-6.11 -13.43c0,-3.37 2.74,-6.11 6.11,-6.11 3.36,0 6.1,2.74 6.1,6.11 0,3.36 -2.74,6.1 -6.1,6.1l-6.11 0 0 -6.1z"/>
   <g>
    <path class="fil8" d="M55.81 162.5c-1.42,0 -2.77,-0.83 -3.37,-2.22l-14.64 -34.18c-0.39,-0.89 -0.4,-1.9 -0.04,-2.8 0.36,-0.9 1.07,-1.63 1.96,-2.01l13.46 -5.77c1.86,-0.8 4.02,0.07 4.81,1.93l14.65 34.18c0.38,0.89 0.4,1.9 0.03,2.8 -0.36,0.9 -1.06,1.62 -1.95,2l-13.47 5.77c-0.47,0.2 -0.96,0.3 -1.44,0.3l0 0z"/>
    <path class="fil9" d="M70.03 156.73l48.05 0c4.53,0 8.87,-1.67 12.24,-4.69l29.17 -26.19c3.71,-3.34 4.04,-9.05 0.72,-12.79 -3.31,-3.72 -9,-4.08 -12.75,-0.81l-24.71 21.53c-0.66,0.59 -1.52,0.91 -2.4,0.91l-26.17 0 4.61 -16.58 -1.48 -1.67c-5.22,-5.97 -12.45,-9.58 -20.36,-10.17 -7.91,-0.6 -15.6,1.89 -21.66,7l-3.24 2.74 17.98 40.72z"/>
    <path class="fil9" d="M125.55 125.53c0,5.06 -4.1,9.16 -9.15,9.16l-26.95 0c-0.93,0 -1.83,-0.26 -2.52,-0.77 -1.17,-0.88 -1.53,-2.24 -0.98,-3.4l5.76 -12.18c0.55,-1.17 1.9,-1.94 3.4,-1.94l21.28 -0.02c5.06,0 9.16,4.1 9.16,9.15l0 0z"/>
    <g>
     <path class="fil10" d="M116.39 116.38l-16.39 0.02 0 18.29 16.4 0c5.05,0 9.15,-4.1 9.15,-9.16 0,-5.05 -4.1,-9.15 -9.16,-9.15z"/>
     <path class="fil10" d="M160.21 113.06c-3.31,-3.72 -9,-4.08 -12.75,-0.81l-24.71 21.53c-0.66,0.59 -1.52,0.91 -2.4,0.91l-20.35 0 0 22.04 18.08 0c4.53,0 8.87,-1.66 12.24,-4.69l29.17 -26.19c3.71,-3.34 4.04,-9.05 0.72,-12.79z"/>
     <path class="fil10" d="M89.45 142.01l26.95 0c9.08,0 16.48,-7.39 16.48,-16.48 0,-0.18 -0.01,-0.37 -0.02,-0.56l-10.11 8.81c-0.66,0.59 -1.52,0.91 -2.4,0.91l-30.9 0 0 7.32z"/>
    </g>
    <path class="fil11" d="M122.75 133.78c-0.66,0.59 -1.52,0.91 -2.4,0.91l-20.35 0 0 7.32 16.4 0c9.08,0 16.48,-7.39 16.48,-16.48 0,-0.18 -0.01,-0.37 -0.02,-0.56l-10.11 8.81z"/>
   </g>
  </g>
 </g>
</svg>
