<?xml version="1.0" encoding="UTF-8"?>
<!DOCTYPE svg PUBLIC "-//W3C//DTD SVG 1.1//EN" "http://www.w3.org/Graphics/SVG/1.1/DTD/svg11.dtd">
<!-- Creator: CorelDRAW 2019 (64-Bit) -->
<svg xmlns="http://www.w3.org/2000/svg" xml:space="preserve" width="200px" height="200px" version="1.1" style="shape-rendering:geometricPrecision; text-rendering:geometricPrecision; image-rendering:optimizeQuality; fill-rule:evenodd; clip-rule:evenodd"
viewBox="0 0 200 200"
 xmlns:xlink="http://www.w3.org/1999/xlink"
 xmlns:xodm="http://www.corel.com/coreldraw/odm/2003">
 <defs>
  <style type="text/css">
   <![CDATA[
    .fil2 {fill:#395C7F}
    .fil1 {fill:white}
    .fil0 {fill:#395C7F}
    .fil6 {fill:#CC1E0D;fill-rule:nonzero}
    .fil7 {fill:#FDBF00;fill-rule:nonzero}
    .fil5 {fill:#FF4B00;fill-rule:nonzero}
    .fil4 {fill:#FF7816;fill-rule:nonzero}
    .fil3 {fill:#FF9F00;fill-rule:nonzero}
   ]]>
  </style>
 </defs>
 <g id="Layer_x0020_1">
  <metadata id="CorelCorpID_0Corel-Layer"/>
  <rect class="fil0" width="200" height="200"/>
  <rect class="fil1" x="15" y="15" width="170" height="170" rx="35" ry="35"/>
  <g id="_1443511585648">
   <path class="fil2" d="M50 22.5l100 0c15.13,0 27.5,12.37 27.5,27.5l0 100c0,15.13 -12.37,27.5 -27.5,27.5l-100 0c-15.13,0 -27.5,-12.37 -27.5,-27.5l0 -100c0,-15.13 12.37,-27.5 27.5,-27.5z"/>
  </g>
  <g id="_1443190009520">
   <path class="fil3" d="M59.72 125.63l0 21.98 80.56 0 0 -21.98 -80.56 0zm0 0z"/>
   <path class="fil4" d="M100 125.63l40.28 0 0 21.98 -40.28 0 0 -21.98zm0 0z"/>
   <path class="fil5" d="M140.65 93.7l-5.93 11.57 -69.44 0 -5.93 -11.57c8.72,-12.08 23.88,-19.33 40.65,-19.33 16.77,0 31.93,7.25 40.65,19.33zm0 0z"/>
   <path class="fil6" d="M140.65 93.7l-5.93 11.57 -34.72 0 0 -30.9c16.77,0 31.93,7.25 40.65,19.33zm0 0z"/>
   <path class="fil7" d="M153.98 86.38l-13.7 46.58 -80.56 0 -13.7 -46.58 9.23 -3.52c4.18,7.99 12.16,12.67 18.68,13.48l3.8 0c8.43,-1.32 14.73,-14.21 17.29,-26.52l9.96 0c2.56,12.31 8.86,25.2 17.29,26.52l3.81 0c6.51,-0.81 14.5,-5.49 18.67,-13.48l9.23 3.52zm0 0z"/>
   <path class="fil3" d="M153.98 86.38l-13.7 46.58 -40.28 0 0 -63.14 4.98 0c2.56,12.31 8.86,25.2 17.29,26.52l3.81 0c6.51,-0.81 14.5,-5.49 18.67,-13.48l9.23 3.52zm0 0z"/>
   <path class="fil3" d="M48.73 89.01c-6.06,0 -11.23,-4.92 -11.23,-10.98 0,-6.06 5.17,-10.99 11.23,-10.99 6.06,0 10.99,4.93 10.99,10.99 0,6.06 -4.93,10.98 -10.99,10.98zm0 0z"/>
   <path class="fil4" d="M151.27 89.01c-6.06,0 -10.99,-4.92 -10.99,-10.98 0,-6.06 4.93,-10.99 10.99,-10.99 6.06,0 11.23,4.93 11.23,10.99 0,6.06 -5.17,10.98 -11.23,10.98zm0 0z"/>
   <path class="fil3" d="M100 52.39c-6.08,0 -10.99,4.91 -10.99,10.99 0,6.08 4.91,10.99 10.99,10.99 6.08,0 10.99,-4.91 10.99,-10.99 0,-6.08 -4.91,-10.99 -10.99,-10.99zm0 0z"/>
   <path class="fil5" d="M100 94.8l-12.52 12.52 12.52 12.53 12.53 -12.53 -12.53 -12.52zm0 0z"/>
   <path class="fil6" d="M121.97 109.47l5.18 5.18 -5.18 5.18 -5.17 -5.18 5.17 -5.18zm0 0z"/>
   <path class="fil5" d="M78.03 109.47l5.18 5.18 -5.18 5.18 -5.18 -5.18 5.18 -5.18zm0 0z"/>
   <path class="fil4" d="M100 74.37l0 -21.98c6.08,0 10.99,4.91 10.99,10.99 0,6.08 -4.91,10.99 -10.99,10.99zm0 0z"/>
   <path class="fil6" d="M112.53 107.32l-12.53 12.53 0 -25.05 12.53 12.52zm0 0z"/>
  </g>
 </g>
</svg>
