<?xml version="1.0" encoding="UTF-8"?>
<!DOCTYPE svg PUBLIC "-//W3C//DTD SVG 1.1//EN" "http://www.w3.org/Graphics/SVG/1.1/DTD/svg11.dtd">
<!-- Creator: CorelDRAW 2019 (64-Bit) -->
<svg xmlns="http://www.w3.org/2000/svg" xml:space="preserve" width="200px" height="200px" version="1.1" style="shape-rendering:geometricPrecision; text-rendering:geometricPrecision; image-rendering:optimizeQuality; fill-rule:evenodd; clip-rule:evenodd"
viewBox="0 0 200 200"
 xmlns:xlink="http://www.w3.org/1999/xlink"
 xmlns:xodm="http://www.corel.com/coreldraw/odm/2003">
 <defs>
  <style type="text/css">
   <![CDATA[
    .fil2 {fill:#395C7F}
    .fil10 {fill:#E78825}
    .fil1 {fill:white}
    .fil0 {fill:#395C7F}
    .fil7 {fill:#B06328;fill-rule:nonzero}
    .fil6 {fill:#C97629;fill-rule:nonzero}
    .fil5 {fill:#F19920;fill-rule:nonzero}
    .fil3 {fill:#F6B545;fill-rule:nonzero}
    .fil4 {fill:#FFCB5B;fill-rule:nonzero}
    .fil8 {fill:#FFE278;fill-rule:nonzero}
    .fil9 {fill:#FFE27A;fill-rule:nonzero}
   ]]>
  </style>
 </defs>
 <g id="Layer_x0020_1">
  <metadata id="CorelCorpID_0Corel-Layer"/>
  <rect class="fil0" width="200" height="200"/>
  <rect class="fil1" x="15" y="15" width="170" height="170" rx="35" ry="35"/>
  <g id="_1839316157120">
   <path class="fil2" d="M50 22.5l100 0c15.13,0 27.5,12.37 27.5,27.5l0 100c0,15.13 -12.37,27.5 -27.5,27.5l-100 0c-15.13,0 -27.5,-12.37 -27.5,-27.5l0 -100c0,-15.13 12.37,-27.5 27.5,-27.5z"/>
  </g>
  <path class="fil3" d="M102.84 159.66l-62.5 0c-1.7,0 -2.84,-1.14 -2.84,-2.84l0 -5.68c0,-1.71 1.14,-2.84 2.84,-2.84l62.5 0c1.7,0 2.84,1.13 2.84,2.84l0 5.68c0,1.7 -1.14,2.84 -2.84,2.84z"/>
  <path class="fil4" d="M91.48 151.14l-53.98 0 0 0c0,-1.71 1.14,-2.84 2.84,-2.84l51.14 0 0 2.84z"/>
  <path class="fil5" d="M91.48 151.14l0 2.84c0,1.7 -1.14,2.84 -2.84,2.84l-51.14 0c0,1.7 1.14,2.84 2.84,2.84l48.3 0 14.2 0c1.7,0 2.84,-1.14 2.84,-2.84l0 -5.68 -14.2 0z"/>
  <g>
   <path class="fil5" d="M46.02 156.82l0 -4.26c0,-0.86 -0.57,-1.42 -1.42,-1.42 -0.85,0 -1.42,0.56 -1.42,1.42l0 4.26 2.84 0zm0 0l0 0 0 0z"/>
  </g>
  <g>
   <path class="fil5" d="M54.54 156.82l0 -4.26c0,-0.86 -0.56,-1.42 -1.41,-1.42 -0.86,0 -1.43,0.56 -1.43,1.42l0 4.26 2.84 0zm0 0l0 0 0 0z"/>
  </g>
  <g>
   <path class="fil5" d="M63.07 156.82l0 -4.26c0,-0.86 -0.57,-1.42 -1.42,-1.42 -0.85,0 -1.42,0.56 -1.42,1.42l0 4.26 2.84 0zm0 0l0 0 0 0z"/>
  </g>
  <g>
   <path class="fil5" d="M71.59 156.82l0 -4.26c0,-0.86 -0.57,-1.42 -1.42,-1.42 -0.85,0 -1.42,0.56 -1.42,1.42l0 4.26 2.84 0zm0 0l0 0 0 0z"/>
  </g>
  <g>
   <path class="fil5" d="M80.11 156.82l0 -4.26c0,-0.86 -0.56,-1.42 -1.42,-1.42 -0.85,0 -1.42,0.56 -1.42,1.42l0 4.26 2.84 0zm0 0l0 0 0 0z"/>
  </g>
  <g>
   <path class="fil5" d="M88.64 156.82l0 -4.26c0,-0.86 -0.57,-1.42 -1.42,-1.42 -0.86,0 -1.42,0.56 -1.42,1.42l0 4.26 2.84 0zm0 0l0 0 0 0z"/>
  </g>
  <path class="fil3" d="M108.52 148.3l-62.5 0c-1.7,0 -2.84,-1.14 -2.84,-2.84l0 -5.69c0,-1.7 1.14,-2.84 2.84,-2.84l62.5 0c1.71,0 2.84,1.14 2.84,2.84l0 5.69c0,1.7 -1.13,2.84 -2.84,2.84z"/>
  <path class="fil4" d="M97.16 139.77l-53.98 0 0 0c0,-1.7 1.14,-2.84 2.84,-2.84l51.14 0 0 2.84z"/>
  <path class="fil5" d="M97.16 139.77l0 2.84c0,1.71 -1.14,2.84 -2.84,2.84l-51.14 0.01c0,1.7 1.14,2.84 2.84,2.84l48.3 0 14.2 0c1.71,0 2.84,-1.14 2.84,-2.84l0 -5.69 -14.2 0z"/>
  <g>
   <path class="fil5" d="M51.7 145.46l0 -4.27c0,-0.85 -0.56,-1.42 -1.42,-1.42 -0.85,0 -1.42,0.57 -1.42,1.42l0 4.27 2.84 0zm0 0l0 0 0 0z"/>
  </g>
  <g>
   <path class="fil5" d="M60.23 145.46l0 -4.27c0,-0.85 -0.57,-1.42 -1.42,-1.42 -0.86,0 -1.42,0.57 -1.42,1.42l0 4.27 2.84 0zm0 0l0 0 0 0z"/>
  </g>
  <g>
   <path class="fil5" d="M68.75 145.46l0 -4.27c0,-0.85 -0.57,-1.42 -1.42,-1.42 -0.85,0 -1.42,0.57 -1.42,1.42l0 4.27 2.84 0zm0 0l0 0 0 0z"/>
  </g>
  <g>
   <path class="fil5" d="M77.27 145.46l0 -4.27c0,-0.85 -0.57,-1.42 -1.42,-1.42 -0.85,0 -1.42,0.57 -1.42,1.42l0 4.27 2.84 0zm0 0l0 0 0 0z"/>
  </g>
  <g>
   <path class="fil5" d="M85.8 145.46l0 -4.27c0,-0.85 -0.57,-1.42 -1.42,-1.42 -0.86,0 -1.42,0.57 -1.42,1.42l0 4.27 2.84 0zm0 0l0 0 0 0z"/>
  </g>
  <g>
   <path class="fil5" d="M94.32 145.46l0 -4.27c0,-0.85 -0.57,-1.42 -1.42,-1.42 -0.85,0 -1.42,0.57 -1.42,1.42l0 4.27 2.84 0zm0 0l0 0 0 0z"/>
  </g>
  <path class="fil3" d="M114.2 125.57l-62.5 0c-1.7,0 -2.84,-1.14 -2.84,-2.84l0 -5.68c0,-1.71 1.14,-2.84 2.84,-2.84l62.5 -0.01c1.71,0 2.84,1.14 2.84,2.84l0 5.69c0.01,1.7 -1.13,2.84 -2.84,2.84z"/>
  <path class="fil4" d="M102.84 117.05l-53.98 0 0 0c0,-1.71 1.14,-2.84 2.84,-2.84l51.14 -0.01 0 2.85z"/>
  <path class="fil5" d="M102.84 117.05l0 2.84c0,1.7 -1.14,2.84 -2.84,2.84l-51.14 0c0,1.7 1.14,2.84 2.84,2.84l48.3 0 14.2 0c1.71,0 2.84,-1.14 2.84,-2.84l0 -5.68 -14.2 -0.01 0 0.01z"/>
  <g>
   <path class="fil5" d="M57.39 122.73l0 -4.26c0,-0.86 -0.57,-1.42 -1.42,-1.42 -0.86,0 -1.43,0.56 -1.43,1.42l0 4.26 2.85 0zm0 0l0 0 0 0z"/>
  </g>
  <g>
   <path class="fil5" d="M65.91 122.73l0 -4.26c0,-0.86 -0.57,-1.42 -1.42,-1.42 -0.85,0 -1.42,0.56 -1.42,1.42l0 4.26 2.84 0zm0 0l0 0 0 0z"/>
  </g>
  <g>
   <path class="fil5" d="M74.43 122.73l0 -4.26c0,-0.86 -0.57,-1.42 -1.42,-1.42 -0.85,0 -1.42,0.56 -1.42,1.42l0 4.26 2.84 0zm0 0l0 0 0 0z"/>
  </g>
  <g>
   <path class="fil5" d="M82.95 122.73l0 -4.26c0,-0.86 -0.56,-1.42 -1.42,-1.42 -0.85,0 -1.42,0.56 -1.42,1.42l0 4.26 2.84 0zm0 0l0 0 0 0z"/>
  </g>
  <g>
   <path class="fil5" d="M91.48 122.73l0 -4.26c0,-0.86 -0.57,-1.42 -1.42,-1.42 -0.85,0 -1.42,0.56 -1.42,1.42l0 4.26 2.84 0zm0 0l0 0 0 0z"/>
  </g>
  <g>
   <path class="fil5" d="M100 122.73l0 -4.26c0,-0.86 -0.57,-1.42 -1.42,-1.42 -0.85,0 -1.42,0.56 -1.42,1.42l0 4.26 2.84 0zm0 0l0 0 0 0z"/>
  </g>
  <path class="fil3" d="M108.52 114.2l-62.5 0c-1.7,0 -2.84,-1.13 -2.84,-2.84l0 -5.68c0,-1.7 1.14,-2.84 2.84,-2.84l62.5 0c1.71,0 2.84,1.14 2.84,2.84l0 5.68c0,1.71 -1.13,2.84 -2.84,2.84z"/>
  <path class="fil4" d="M97.16 105.68l-53.98 0 0 0c0,-1.7 1.14,-2.84 2.84,-2.84l51.14 0 0 2.84z"/>
  <path class="fil5" d="M97.16 105.68l0 2.84c0,1.71 -1.14,2.84 -2.84,2.84l-51.14 0c0,1.71 1.14,2.84 2.84,2.84l48.3 0 14.2 0c1.71,0 2.84,-1.13 2.84,-2.84l0 -5.68 -14.2 0z"/>
  <g>
   <path class="fil5" d="M51.7 111.36l0 -4.26c0,-0.85 -0.56,-1.42 -1.42,-1.42 -0.85,0 -1.42,0.57 -1.42,1.42l0 4.26 2.84 0zm0 0l0 0 0 0z"/>
  </g>
  <g>
   <path class="fil5" d="M60.23 111.36l0 -4.26c0,-0.85 -0.57,-1.42 -1.42,-1.42 -0.86,0 -1.42,0.57 -1.42,1.42l0 4.26 2.84 0zm0 0l0 0 0 0z"/>
  </g>
  <g>
   <path class="fil5" d="M68.75 111.36l0 -4.26c0,-0.85 -0.57,-1.42 -1.42,-1.42 -0.85,0 -1.42,0.57 -1.42,1.42l0 4.26 2.84 0zm0 0l0 0 0 0z"/>
  </g>
  <g>
   <path class="fil5" d="M77.27 111.36l0 -4.26c0,-0.85 -0.57,-1.42 -1.42,-1.42 -0.85,0 -1.42,0.57 -1.42,1.42l0 4.26 2.84 0zm0 0l0 0 0 0z"/>
  </g>
  <g>
   <path class="fil5" d="M85.8 111.36l0 -4.26c0,-0.85 -0.57,-1.42 -1.42,-1.42 -0.86,0 -1.42,0.57 -1.42,1.42l0 4.26 2.84 0zm0 0l0 0 0 0z"/>
  </g>
  <g>
   <path class="fil5" d="M94.32 111.36l0 -4.26c0,-0.85 -0.57,-1.42 -1.42,-1.42 -0.85,0 -1.42,0.57 -1.42,1.42l0 4.26 2.84 0zm0 0l0 0 0 0z"/>
  </g>
  <path class="fil3" d="M102.84 136.93l-62.5 0c-1.7,0 -2.84,-1.14 -2.84,-2.84l0 -5.68c0,-1.71 1.14,-2.84 2.84,-2.84l62.5 0c1.7,0 2.84,1.13 2.84,2.84l0 5.68c0,1.7 -1.14,2.84 -2.84,2.84z"/>
  <path class="fil4" d="M91.48 128.41l-53.98 0 0 0c0,-1.71 1.14,-2.84 2.84,-2.84l51.14 0 0 2.84z"/>
  <path class="fil5" d="M91.48 128.41l0 2.84c0,1.7 -1.14,2.84 -2.84,2.84l-51.14 0c0,1.7 1.14,2.84 2.84,2.84l48.3 0 14.2 0c1.7,0 2.84,-1.14 2.84,-2.84l0 -5.68 -14.2 0 0 0z"/>
  <g>
   <path class="fil5" d="M46.02 134.09l0 -4.26c0,-0.85 -0.57,-1.42 -1.42,-1.42 -0.85,0 -1.42,0.57 -1.42,1.42l0 4.26 2.84 0zm0 0l0 0 0 0z"/>
  </g>
  <g>
   <path class="fil5" d="M54.54 134.09l0 -4.26c0,-0.85 -0.56,-1.42 -1.41,-1.42 -0.86,0 -1.43,0.57 -1.43,1.42l0 4.26 2.84 0zm0 0l0 0 0 0z"/>
  </g>
  <g>
   <path class="fil5" d="M63.07 134.09l0 -4.26c0,-0.85 -0.57,-1.42 -1.42,-1.42 -0.85,0 -1.42,0.57 -1.42,1.42l0 4.26 2.84 0zm0 0l0 0 0 0z"/>
  </g>
  <g>
   <path class="fil5" d="M71.59 134.09l0 -4.26c0,-0.85 -0.57,-1.42 -1.42,-1.42 -0.85,0 -1.42,0.57 -1.42,1.42l0 4.26 2.84 0zm0 0l0 0 0 0z"/>
  </g>
  <g>
   <path class="fil5" d="M80.11 134.09l0 -4.26c0,-0.85 -0.56,-1.42 -1.42,-1.42 -0.85,0 -1.42,0.57 -1.42,1.42l0 4.26 2.84 0zm0 0l0 0 0 0z"/>
  </g>
  <g>
   <path class="fil5" d="M88.64 134.09l0 -4.26c0,-0.85 -0.57,-1.42 -1.42,-1.42 -0.86,0 -1.42,0.57 -1.42,1.42l0 4.26 2.84 0zm0 0l0 0 0 0z"/>
  </g>
  <path class="fil6" d="M156.82 141.19c-3.69,-2.55 -5.68,-6.81 -5.68,-11.36 0,-17.33 -6.82,-33.81 -19.04,-46.02l-12.21 -12.22 0 -8.52 9.94 -12.5c0.85,-1.14 1.42,-2.56 1.42,-3.98 0,-3.41 -2.84,-6.25 -6.25,-6.25l-10.8 0 -2.84 5.68 -5.68 -5.68 -13.63 0c-3.41,0 -6.26,2.84 -6.26,6.25 0,1.42 0.57,2.84 1.43,3.98l9.94 12.5 0 8.52 -12.22 12.22c-12.21,12.21 -19.03,28.69 -19.03,46.02l0 0c0,4.54 -1.99,8.81 -5.68,11.36 -3.7,2.56 -5.69,6.82 -5.69,11.37l0 0c0,3.97 3.13,7.1 7.11,7.1l93.75 0c3.98,0 7.1,-3.13 7.1,-7.1l0 0c0,-4.55 -1.99,-8.81 -5.68,-11.37z"/>
  <path class="fil7" d="M156.82 141.19c-3.69,-2.84 -5.68,-7.1 -5.68,-11.64 0.28,-17.9 -7.96,-34.66 -20.46,-47.45l-10.79 -10.51 0 -8.52 9.94 -12.5c1.7,-1.99 1.99,-4.83 0.57,-7.39 -1.14,-1.99 -3.41,-2.84 -5.68,-2.84 -1.99,0 -3.13,2.27 -2.56,3.98 0.28,0.57 0.57,1.42 0.57,2.27 0,1.42 -0.57,2.84 -1.42,3.98l-9.95 12.5 0 8.52 -14.2 0 -2.84 2.84 19.88 0 10.52 10.51c11.64,11.65 16.19,27.56 15.05,43.75 -0.28,4.83 1.71,9.38 5.4,12.22 0.29,0.28 0.57,0.57 0.85,0.57 4.26,4.54 0.57,12.21 -5.96,12.21l-85.23 0c0.57,3.13 3.41,5.68 6.82,5.68l82.38 0 7.11 0 4.26 0c3.98,0.01 7.1,-3.12 7.1,-7.1l0 -0.57c0,-4.26 -2.27,-7.95 -5.68,-10.51z"/>
  <path class="fil4" d="M121.31 71.59l-25.57 0c-2.28,0 -4.26,-1.99 -4.26,-4.26l0 0c0,-2.27 1.98,-4.26 4.26,-4.26l25.57 0c2.27,0 4.26,1.99 4.26,4.26l0 0c0,2.27 -1.99,4.26 -4.26,4.26z"/>
  <path class="fil8" d="M95.74 63.07l14.2 0c0.86,0 1.42,0.57 1.42,1.42l0 0c0,0.85 -0.56,1.42 -1.42,1.42l-14.2 0c-0.85,0 -1.42,-0.57 -1.42,-1.42l0 0c0,-0.85 0.57,-1.42 1.42,-1.42z"/>
  <path class="fil3" d="M121.31 63.07l-1.42 0 0 2.84c0,1.7 -1.14,2.84 -2.84,2.84l-25.29 0c0.57,1.7 2.27,2.84 3.98,2.84l25.57 0c2.27,0 4.26,-1.99 4.26,-4.26 0,-2.27 -1.99,-4.26 -4.26,-4.26z"/>
  <path class="fil5" d="M112.78 68.75l8.53 0c0.85,0 1.42,0.57 1.42,1.42l0 0c0,0.85 -0.57,1.42 -1.42,1.42l-8.53 0c-0.85,0 -1.42,-0.57 -1.42,-1.42l0 0c0,-0.85 0.57,-1.42 1.42,-1.42z"/>
  <rect class="fil3" x="105.68" y="71.59" width="5.68" height="22.73"/>
  <polygon class="fil5" points="105.68,71.59 105.68,74.43 108.52,74.43 108.52,94.32 111.36,94.32 111.36,74.43 111.36,71.59 "/>
  <circle class="fil3" cx="108.52" cy="114.2" r="22.73"/>
  <path class="fil7" d="M125.85 99.72c3.41,3.97 5.4,8.8 5.4,14.48 0,12.5 -10.23,22.73 -22.73,22.73 -5.68,0 -10.51,-1.99 -14.49,-5.4 4.27,5.12 10.51,8.24 17.33,8.24 12.5,0 22.73,-10.22 22.73,-22.73 0,-7.1 -3.12,-13.35 -8.24,-17.32z"/>
  <circle class="fil4" cx="108.52" cy="114.2" r="19.89"/>
  <path class="fil5" d="M128.41 114.2c0,11.08 -8.81,19.89 -19.89,19.89l0 2.84c12.5,0 22.73,-10.23 22.73,-22.73l-2.84 0z"/>
  <path class="fil9" d="M108.52 94.32l0 -2.84c-12.5,0 -22.73,10.22 -22.73,22.73l2.85 -0.01c0,-11.07 8.8,-19.88 19.88,-19.88z"/>
  <g>
  </g>
  <g>
  </g>
  <g>
  </g>
  <g>
  </g>
  <g>
  </g>
  <g>
  </g>
  <g>
  </g>
  <g>
  </g>
  <g>
  </g>
  <g>
  </g>
  <g>
  </g>
  <g>
  </g>
  <g>
  </g>
  <g>
  </g>
  <g>
  </g>
  <path class="fil10" d="M96.63 108.96l14.3 10.72 -1.5 1.13c-0.47,0.35 -1.26,0.34 -1.76,-0.03l-6.41 -4.81 -4.59 3.45 9.84 7.37 1.16 0.88c0.5,0.37 1.29,0.38 1.76,0.03l1.19 -0.9 9.8 -7.35 -14.3 -10.73 1.5 -1.12c0.47,-0.35 1.26,-0.34 1.75,0.03l6.41 4.8 4.59 -3.44 -11 -8.25c-0.49,-0.37 -1.28,-0.38 -1.75,-0.03l-10.99 8.25z"/>
 </g>
</svg>
