<?xml version="1.0" encoding="UTF-8"?>
<!DOCTYPE svg PUBLIC "-//W3C//DTD SVG 1.1//EN" "http://www.w3.org/Graphics/SVG/1.1/DTD/svg11.dtd">
<!-- Creator: CorelDRAW 2019 (64-Bit) -->
<svg xmlns="http://www.w3.org/2000/svg" xml:space="preserve" width="200px" height="200px" version="1.1" style="shape-rendering:geometricPrecision; text-rendering:geometricPrecision; image-rendering:optimizeQuality; fill-rule:evenodd; clip-rule:evenodd"
viewBox="0 0 200 200"
 xmlns:xlink="http://www.w3.org/1999/xlink"
 xmlns:xodm="http://www.corel.com/coreldraw/odm/2003"
 enable-background="new 0 0 64 64">
 <defs>
  <style type="text/css">
   <![CDATA[
    .fil14 {fill:none}
    .fil2 {fill:#395C7F}
    .fil1 {fill:white}
    .fil0 {fill:#395C7F}
    .fil4 {fill:#606060;fill-rule:nonzero}
    .fil5 {fill:#8C8787;fill-rule:nonzero}
    .fil11 {fill:#C16B3F;fill-rule:nonzero}
    .fil10 {fill:#C18E59;fill-rule:nonzero}
    .fil6 {fill:#D5CEC2;fill-rule:nonzero}
    .fil3 {fill:#E39854;fill-rule:nonzero}
    .fil7 {fill:#E7E4DD;fill-rule:nonzero}
    .fil8 {fill:#EFBE9A;fill-rule:nonzero}
    .fil12 {fill:#F2C351;fill-rule:nonzero}
    .fil13 {fill:#F7D881;fill-rule:nonzero}
    .fil9 {fill:#FADFB2;fill-rule:nonzero}
   ]]>
  </style>
   <clipPath id="id0">
    <path d="M57.5 37.5l85 0c11,0 20,9 20,20l0 105 -115 0c-5.5,0 -10,-4.5 -10,-10l0 -95c0,-11 9,-20 20,-20z"/>
   </clipPath>
 </defs>
 <g id="Layer_x0020_1">
  <metadata id="CorelCorpID_0Corel-Layer"/>
  <rect class="fil0" width="200" height="200"/>
  <rect class="fil1" x="15" y="15" width="170" height="170" rx="35" ry="35"/>
  <g id="_1443726868464">
   <path class="fil2" d="M50 22.5l100 0c15.13,0 27.5,12.37 27.5,27.5l0 100c0,15.13 -12.37,27.5 -27.5,27.5l-100 0c-15.13,0 -27.5,-12.37 -27.5,-27.5l0 -100c0,-15.13 12.37,-27.5 27.5,-27.5z"/>
  </g>
  <g id="_1443726865968">
  </g>
  <g id="_1443726866416">
  </g>
  <g id="_1443726866288">
  </g>
  <g id="_1443726866672">
  </g>
  <g id="_1443726863120">
  </g>
  <g id="_1443726861360">
  </g>
  <g id="_1443726861712">
  </g>
  <g id="_1443726859984">
  </g>
  <g id="_1443726859696">
  </g>
  <g id="_1443726859248">
  </g>
  <g id="_1443726860464">
  </g>
  <g id="_1443726860208">
  </g>
  <g id="_1443726857872">
  </g>
  <g id="_1443726857968">
  </g>
  <g id="_1443726856848">
  </g>
  <g>
  </g>
  <g style="clip-path:url(#id0)">
   <g>
    <g id="_1443726843344">
     <path class="fil3" d="M75 102.08l8.33 8.34 8.34 -8.34 27.05 4.51c6.03,1.01 10.45,6.22 10.45,12.33l0 43.58 -91.67 0 0 -43.58c0,-6.11 4.42,-11.32 10.44,-12.33l27.06 -4.51z"/>
     <path class="fil4" d="M160.42 162.5l-58.34 0c-1.15,0 -2.08,-0.93 -2.08,-2.08l0 -41.67c0,-1.15 0.93,-2.08 2.08,-2.08l58.34 0c1.15,0 2.08,0.93 2.08,2.08l0 41.67c0,1.15 -0.93,2.08 -2.08,2.08z"/>
     <path class="fil5" d="M100 153.39c0.14,0 0.27,0.02 0.41,0.02 21.11,0 38.44,-16.14 40.36,-36.74l-38.69 0c-1.15,0 -2.08,0.93 -2.08,2.08l0 34.64z"/>
     <path class="fil6" d="M162.5 125c0,6.9 -5.6,12.5 -12.5,12.5l-37.5 0c-6.9,0 -12.5,-5.6 -12.5,-12.5l0 -6.25c0,-1.15 0.93,-2.08 2.08,-2.08l58.34 0c1.15,0 2.08,0.93 2.08,2.08l0 6.25z"/>
     <path class="fil7" d="M140.77 116.67l-38.69 0c-1.15,0 -2.08,0.93 -2.08,2.08l0 6.25c0,6.9 5.6,12.5 12.5,12.5l20.06 0c4.52,-5.89 7.48,-13.03 8.21,-20.83z"/>
     <path class="fil6" d="M162.5 154.17l0 6.25c0,1.15 -0.93,2.08 -2.08,2.08l-58.34 0c-1.15,0 -2.08,-0.93 -2.08,-2.08l0 -6.25 62.5 0z"/>
     <g>
      <path class="fil6" d="M79.17 106.25l-2.09 6.25 4.17 6.25 4.17 0 4.16 -6.25 -2.08 -6.25 -8.33 0zm0 0l0 0 0 0z"/>
     </g>
     <g>
      <path class="fil8" d="M68.75 66.67l-4.17 0c-2.3,0 -4.16,1.86 -4.16,4.16 0,2.3 1.86,4.17 4.16,4.17l4.17 0 0 -8.33zm0 0l0 0 0 0z"/>
     </g>
     <g>
      <path class="fil8" d="M97.92 66.67l4.16 0c2.31,0 4.17,1.86 4.17,4.16 0,2.3 -1.86,4.17 -4.17,4.17l-4.16 0 0 -8.33zm0 0l0 0 0 0z"/>
     </g>
     <path class="fil9" d="M97.92 56.25l-3.34 2.5c-3.24,2.43 -7.19,3.75 -11.25,3.75 -4.05,0 -8,-1.32 -11.25,-3.75l-3.33 -2.5 -4.17 8.33 0 12.5c0,7.36 4.25,13.71 10.42,16.78l0 8.22 8.33 8.34 8.34 -8.34 0 -8.22c6.17,-3.07 10.41,-9.42 10.41,-16.78l0 -12.5 -4.16 -8.33z"/>
     <path class="fil10" d="M102.08 66.67l2.4 -5.56c1.88,-4.36 1.55,-9.36 -0.9,-13.43 -1.53,-2.56 -3.81,-4.59 -6.53,-5.83l-5.81 -2.65c-2.47,-1.12 -5.14,-1.7 -7.85,-1.7 -4.09,0 -8.08,1.33 -11.36,3.78l-3.58 2.72c-2.91,0.62 -5.48,2.43 -7.04,5.04 -1.92,3.19 -2.07,7.14 -0.4,10.47l3.57 7.16 0 -2.09 4.17 -8.33 3.33 2.5c3.25,2.43 7.2,3.75 11.25,3.75 4.06,0 8.01,-1.32 11.25,-3.75l3.34 -2.5 4.16 8.33 0 2.09z"/>
     <g>
      <polygon class="fil11" points="56.25,125 60.42,125 60.42,162.5 56.25,162.5 "/>
     </g>
     <g>
      <path class="fil7" d="M85.42 118.75l4.16 10.42 -6.25 27.08 -6.25 -27.08 4.17 -10.42 4.17 0zm0 0l0 0 0 0z"/>
     </g>
     <path class="fil12" d="M131.25 145.83c-2.3,0 -4.17,-1.86 -4.17,-4.16l0 -12.5 8.34 0 0 12.5c0,2.3 -1.87,4.16 -4.17,4.16l0 0z"/>
     <g>
      <path class="fil5" d="M143.75 116.67l0 -8.34c0,-1.15 -0.94,-2.08 -2.09,-2.08l-20.83 0c-1.15,0 -2.08,0.93 -2.08,2.08l0 8.33 -4.17 0.01 0 -8.34c0,-3.44 2.81,-6.25 6.25,-6.25l20.83 0c3.45,0 6.25,2.81 6.25,6.25l0.01 8.33 -4.17 0.01z"/>
     </g>
     <path class="fil13" d="M135.42 133.25l0 -4.08 -8.34 0 0 12.5c0,0.5 0.11,0.98 0.27,1.43 3.18,-2.83 5.91,-6.15 8.07,-9.85l0 0z"/>
    </g>
   </g>
  </g>
  <path class="fil14" d="M57.5 37.5l85 0c11,0 20,9 20,20l0 105 -115 0c-5.5,0 -10,-4.5 -10,-10l0 -95c0,-11 9,-20 20,-20z"/>
 </g>
</svg>
