<?xml version="1.0" encoding="UTF-8"?>
<!DOCTYPE svg PUBLIC "-//W3C//DTD SVG 1.1//EN" "http://www.w3.org/Graphics/SVG/1.1/DTD/svg11.dtd">
<!-- Creator: CorelDRAW 2019 (64-Bit) -->
<svg xmlns="http://www.w3.org/2000/svg" xml:space="preserve" width="200px" height="200px" version="1.1" style="shape-rendering:geometricPrecision; text-rendering:geometricPrecision; image-rendering:optimizeQuality; fill-rule:evenodd; clip-rule:evenodd"
viewBox="0 0 200 200"
 xmlns:xlink="http://www.w3.org/1999/xlink"
 xmlns:xodm="http://www.corel.com/coreldraw/odm/2003"
 enable-background="new 0 0 512 512">
 <defs>
  <style type="text/css">
   <![CDATA[
    .fil2 {fill:#395C7F}
    .fil1 {fill:white}
    .fil0 {fill:#395C7F}
    .fil6 {fill:#8F4813;fill-rule:nonzero}
    .fil4 {fill:#BC5F19;fill-rule:nonzero}
    .fil5 {fill:#CDD4E3;fill-rule:nonzero}
    .fil3 {fill:#E8EDF5;fill-rule:nonzero}
    .fil8 {fill:#FF9F22;fill-rule:nonzero}
    .fil7 {fill:#FFCD00;fill-rule:nonzero}
   ]]>
  </style>
 </defs>
 <g id="Layer_x0020_1">
  <metadata id="CorelCorpID_0Corel-Layer"/>
  <rect class="fil0" width="200" height="200"/>
  <rect class="fil1" x="15" y="15" width="170" height="170" rx="35" ry="35"/>
  <g id="_1443689438448">
   <path class="fil2" d="M50 22.5l100 0c15.13,0 27.5,12.37 27.5,27.5l0 100c0,15.13 -12.37,27.5 -27.5,27.5l-100 0c-15.13,0 -27.5,-12.37 -27.5,-27.5l0 -100c0,-15.13 12.37,-27.5 27.5,-27.5z"/>
  </g>
  <g id="XMLID_21_">
   <g id="XMLID_323_">
    <path id="XMLID_1041_" class="fil3" d="M161.42 38.66c0.9,0.89 1.27,2.18 0.99,3.41l-5.25 22.72c-0.16,0.7 -0.52,1.34 -1.05,1.83l-66.4 62.77c-1.43,1.36 -3.69,1.33 -5.09,-0.06l-13.94 -13.9c-0.72,-0.71 -1.08,-1.65 -1.08,-2.59 0,-0.9 0.34,-1.81 1.01,-2.51l62.95 -66.23c0.49,-0.51 1.12,-0.87 1.81,-1.03l22.63 -5.38c1.23,-0.29 2.52,0.08 3.42,0.97l0 0z"/>
    <path id="XMLID_1044_" class="fil4" d="M77.83 113.26l8.93 8.91c0.68,0.68 1.07,1.6 1.07,2.55 0,0.96 -0.39,1.88 -1.07,2.56l-29.03 28.95c-1.41,1.4 -3.69,1.4 -5.09,0l-8.94 -8.91c-0.68,-0.68 -1.06,-1.59 -1.06,-2.55 0,-0.96 0.38,-1.88 1.06,-2.56l29.03 -28.95c1.41,-1.4 3.69,-1.4 5.1,0z"/>
    <g id="XMLID_1053_">
     <path id="XMLID_1040_" class="fil5" d="M162.41 42.07l-5.25 22.72c-0.16,0.7 -0.52,1.34 -1.05,1.83l-66.4 62.77c-1.43,1.36 -3.69,1.33 -5.09,-0.06l-6.97 -6.95 83.84 -83.65c0.85,0.89 1.19,2.14 0.92,3.34l0 0z"/>
    </g>
    <g id="XMLID_1052_">
     <path id="XMLID_1049_" class="fil6" d="M86.76 122.17c0.68,0.68 1.07,1.6 1.07,2.55 0,0.96 -0.39,1.88 -1.07,2.56l-29.03 28.95c-1.41,1.4 -3.69,1.4 -5.09,0l-4.41 -4.4 34.09 -34.09 4.44 4.43z"/>
    </g>
   </g>
   <path id="XMLID_1045_" class="fil7" d="M59.83 140.12c2.47,2.47 3.83,5.75 3.83,9.24 0,3.49 -1.36,6.77 -3.83,9.23 -5.1,5.09 -13.4,5.09 -18.49,0 -2.48,-2.46 -3.84,-5.74 -3.84,-9.23 0,-3.49 1.36,-6.77 3.84,-9.24 5.09,-5.08 13.39,-5.08 18.49,0z"/>
   <g id="XMLID_1051_">
    <path id="XMLID_1048_" class="fil8" d="M63.66 149.36c0,3.49 -1.36,6.77 -3.83,9.23 -5.08,5.06 -13.32,5.08 -18.42,0.07l18.47 -18.48c2.44,2.46 3.78,5.71 3.78,9.18l0 0z"/>
   </g>
   <path id="XMLID_1046_" class="fil7" d="M62.12 96.57c0.01,0.01 0.02,0.02 0.04,0.04 0,0 0.01,0.01 0.02,0.01l41.27 41.16c0,0 0.01,0.01 0.02,0.02 0.01,0.01 0.02,0.02 0.03,0.04 2.21,2.2 3.43,5.13 3.43,8.24 0,3.12 -1.22,6.05 -3.43,8.25 -4.55,4.54 -11.95,4.54 -16.51,0 -2.21,-2.2 -3.42,-5.13 -3.42,-8.25l0 0c0,-3.11 1.21,-6.04 3.42,-8.24 1.09,-1.09 2.34,-1.91 3.68,-2.48l-26.06 -25.98c-0.57,1.36 -1.41,2.61 -2.49,3.68 -4.55,4.54 -11.96,4.54 -16.51,0 -2.21,-2.2 -3.43,-5.13 -3.43,-8.25 0,-3.11 1.22,-6.04 3.43,-8.24 4.55,-4.54 11.96,-4.54 16.51,0l0 0z"/>
   <g id="XMLID_1050_">
    <path id="XMLID_1047_" class="fil8" d="M103.45 137.78c0.01,0 0.01,0.01 0.02,0.02 0.01,0.01 0.02,0.02 0.04,0.04 2.21,2.2 3.42,5.13 3.42,8.24 0,3.12 -1.21,6.05 -3.42,8.25 -4.55,4.54 -11.96,4.54 -16.51,0 -2.21,-2.2 -3.43,-5.13 -3.43,-8.25l0 0c0,-3.11 1.22,-6.04 3.43,-8.24 1.08,-1.09 2.33,-1.91 3.67,-2.48l-13 -12.96 5.17 -5.17 20.61 20.55z"/>
   </g>
  </g>
 </g>
</svg>
