<?xml version="1.0" encoding="UTF-8"?>
<!DOCTYPE svg PUBLIC "-//W3C//DTD SVG 1.1//EN" "http://www.w3.org/Graphics/SVG/1.1/DTD/svg11.dtd">
<!-- Creator: CorelDRAW 2019 (64-Bit) -->
<svg xmlns="http://www.w3.org/2000/svg" xml:space="preserve" width="200px" height="200px" version="1.1" style="shape-rendering:geometricPrecision; text-rendering:geometricPrecision; image-rendering:optimizeQuality; fill-rule:evenodd; clip-rule:evenodd"
viewBox="0 0 200 200"
 xmlns:xlink="http://www.w3.org/1999/xlink"
 xmlns:xodm="http://www.corel.com/coreldraw/odm/2003"
 enable-background="new 0 0 512 512">
 <defs>
  <style type="text/css">
   <![CDATA[
    .fil2 {fill:#395C7F}
    .fil8 {fill:#3987D0}
    .fil5 {fill:#7BACDF}
    .fil6 {fill:#F5A96C}
    .fil11 {fill:#FB2A39}
    .fil10 {fill:#FE636E}
    .fil7 {fill:#FED1A3}
    .fil3 {fill:#FFBC85}
    .fil4 {fill:#FFE5C1}
    .fil1 {fill:white}
    .fil0 {fill:#395C7F}
    .fil9 {fill:#F5A96C;fill-rule:nonzero}
   ]]>
  </style>
 </defs>
 <g id="Layer_x0020_1">
  <metadata id="CorelCorpID_0Corel-Layer"/>
  <rect class="fil0" width="200" height="200"/>
  <rect class="fil1" x="15" y="15" width="170" height="170" rx="35" ry="35"/>
  <g id="_1443678609136">
   <path class="fil2" d="M50 22.5l100 0c15.13,0 27.5,12.37 27.5,27.5l0 100c0,15.13 -12.37,27.5 -27.5,27.5l-100 0c-15.13,0 -27.5,-12.37 -27.5,-27.5l0 -100c0,-15.13 12.37,-27.5 27.5,-27.5z"/>
  </g>
  <g id="_1443678665776">
   <g>
    <path class="fil3" d="M118.18 68.71l22.35 6.53 4.98 19.78c-0.86,7.26 -2.22,14.06 -6.71,17.87l-37.07 30.12 -4.48 3.45c-6.75,5.19 -13.15,-2.06 -8.02,-7.43 0.08,-0.08 0.15,-0.15 0.23,-0.23 -1.73,1.45 -3.68,1.87 -5.38,1.59 -3.75,-0.61 -6.32,-4.58 -2.87,-8.29 -6.74,5.39 -12.5,-3.19 -7.22,-7.9 -5.89,1.86 -12.3,-5.78 -6.19,-12.26 0.05,-0.05 0.1,-0.11 0.15,-0.16l15.33 -22.83 20.57 -13.18 14.33 -7.06z"/>
   </g>
   <g>
    <path class="fil4" d="M102.29 143.65c-5.7,-6.08 2.62,-13.07 7.21,-8.95l4.93 4.69c0.06,0.06 0.11,0.11 0.16,0.15 4.14,4.16 -3.38,13.63 -9.59,7l-2.71 -2.89z"/>
   </g>
   <g>
    <path class="fil4" d="M118.09 126.22l5.21 5.46 0.02 0.03c2.61,2.77 0.8,7.02 -2.29,8.68 -1.91,1.03 -4.3,1.07 -6.44,-0.85l-5.57 -0.09 0.48 -4.75 -0.71 -0.67c-5.58,-5.3 2.47,-14.46 8.76,-8.38l0.54 0.57z"/>
   </g>
   <g>
    <path class="fil4" d="M127.39 118.75l4.88 5.17 0.68 0.74c4.81,5.11 -3.8,13.15 -8.77,7.94l-0.86 -0.89c-0.07,-0.08 -5.3,-0.62 -5.87,-0.69l0.1 -5.37 -1.67 -1.75c-5.74,-6.03 3.23,-13.96 8.69,-8.15l2.82 3z"/>
   </g>
   <g>
    <path class="fil4" d="M138.8 112.89l1.65 1.79c5.09,5.53 -2.49,14.34 -8.18,9.24l-4.67 -0.72 -0.21 -4.45c-4.61,-5.23 3.43,-14.52 9.76,-7.65l1.65 1.79z"/>
   </g>
   <g>
    <path class="fil5" d="M131.81 53.19l22.64 21.8 6.43 6.19c2.1,2.01 2.16,5.38 0.15,7.48l-9.6 10.01c-0.55,0.58 -1.49,0.6 -2.07,0.04l-3.85 -3.69 -27.33 -26.31 -3.39 -3.28c-0.59,-0.55 -0.61,-1.49 -0.05,-2.07l9.61 -10.02c2.01,-2.1 5.37,-2.16 7.46,-0.15l0 0z"/>
   </g>
   <g>
    <path class="fil6" d="M88.76 91.08l6.88 1.57 -2.7 2.74 -20.82 20.7 -0.14 0.16c-2.51,2.65 -2.91,5.5 -2.11,7.81 -4.11,-1.57 -6.73,-7.18 -2.07,-12.12l0.15 -0.16 6.24 -6.21 14.57 -14.49z"/>
   </g>
   <g>
    <polygon class="fil6" points="118.18,68.71 122.56,72.91 108.88,79.66 103.85,75.77 "/>
   </g>
   <g>
    <path class="fil4" d="M103.85 75.77l5.03 3.89 4.73 3.66c11.96,9.26 2.04,18.4 -5.05,15.27l-7.98 -4.81 -4.94 -1.13 -6.88 -1.57 -14.57 14.49 -6.24 6.21c-3.93,-1.47 -9.48,-5.71 -15.48,-15.37l9.11 -19.07 21.29 -10.2 5.46 4.37c0.9,0.71 0.63,0.58 1.76,0.54 4.1,-0.13 9.31,0.28 12.37,2.64l1.39 1.08z"/>
   </g>
   <g>
    <path class="fil7" d="M103.87 90.6l7.98 4.81c2.17,0.96 4.62,0.77 6.62,-0.23 -1.74,3.33 -6.21,5.04 -9.92,3.41l-7.97 -4.81 -4.94 -1.13 -6.79 -1.55c3.14,-2.69 3.71,-3.08 10.09,-1.62l4.93 1.12z"/>
   </g>
   <g>
    <path class="fil7" d="M57.43 91.63c5.34,8.59 10.32,12.9 14.12,14.79 0.43,0.21 0.85,0.39 1.24,0.54l-4.84 4.82c-3.93,-1.47 -9.48,-5.71 -15.48,-15.37l4.96 -4.78z"/>
   </g>
   <g>
    <path class="fil8" d="M139.55 60.65c-2.09,-1.99 -5.43,-1.92 -7.43,0.17l-9.61 10.01c-0.55,0.59 -0.54,1.53 0.05,2.08l-4.38 -4.2 -3.39 -3.28c-0.59,-0.55 -0.61,-1.49 -0.05,-2.07l9.61 -10.02c2.01,-2.1 5.36,-2.16 7.46,-0.15l7.74 7.46z"/>
   </g>
   <g>
    <path class="fil7" d="M142.13 118.91c-0.05,4.68 -5.51,8.91 -9.86,5.01l-3.06 -3.24 -1.82 -1.93c-1.9,-2.16 -1.65,-5.01 -0.26,-7.13 0.01,1.25 0.43,2.49 1.37,3.57l3.24 3.43 1.63 1.75c3.17,2.83 6.93,1.35 8.76,-1.46l0 0z"/>
   </g>
   <g>
    <path class="fil7" d="M134.14 129.52c-1.14,3.83 -6.46,6.76 -9.97,3.08l-0.85 -0.89c-0.01,-0.01 -0.01,-0.02 -0.02,-0.03l-5.21 -5.46c-0.18,-0.2 -0.36,-0.4 -0.54,-0.57l-1.67 -1.75c-3.1,-3.25 -1.92,-7.05 0.68,-8.96 -0.47,1.76 -0.09,3.78 1.66,5.61l1.67 1.75c0.19,0.18 0.36,0.37 0.55,0.57l0 0.01 5.2 5.46c0.01,0.01 0.02,0.01 0.03,0.02l0.85 0.89c2.33,2.45 5.45,1.98 7.62,0.27l0 0z"/>
   </g>
   <g>
    <path class="fil7" d="M114.43 139.39l-3.8 -3.61 -1.13 -1.08 -0.71 -0.67c-2.96,-2.82 -2.07,-6.73 0.36,-8.86 -0.52,1.86 -0.13,3.97 1.67,5.68l0.7 0.67 2.01 1.9 2.93 2.79 0.16 0.14c2.13,1.93 4.53,1.88 6.44,0.86 0.47,-0.26 0.91,-0.57 1.31,-0.93 -0.47,1.69 -1.73,3.25 -3.34,4.11 -1.91,1.03 -4.3,1.07 -6.44,-0.85l-0.16 -0.15z"/>
   </g>
   <g>
    <path class="fil7" d="M102.29 143.65c-2.85,-3.04 -2.2,-6.3 -0.26,-8.3 0.05,1.35 0.62,2.8 1.93,4.2l2.71 2.89c3.33,3.54 7.03,2.48 9.11,0.08 -0.03,4.34 -5.82,9.31 -10.78,4.02l-2.71 -2.89z"/>
   </g>
   <g>
    <path class="fil9" d="M73.99 126.09c0.46,0 0.92,-0.17 1.29,-0.51l7.6 -7.07c0.76,-0.72 0.8,-1.91 0.09,-2.67 -0.71,-0.77 -1.9,-0.81 -2.66,-0.1l-7.6 7.08c-0.76,0.71 -0.81,1.91 -0.1,2.67 0.37,0.4 0.88,0.6 1.38,0.6z"/>
   </g>
   <g>
    <path class="fil9" d="M81.21 133.99c0.47,0 0.93,-0.17 1.29,-0.51l7.61 -7.08c0.76,-0.71 0.8,-1.91 0.09,-2.67 -0.71,-0.76 -1.9,-0.8 -2.66,-0.09l-7.61 7.08c-0.76,0.71 -0.81,1.91 -0.1,2.67 0.38,0.4 0.88,0.6 1.38,0.6l0 0z"/>
   </g>
   <g>
    <path class="fil9" d="M89.21 140.93c0.46,0 0.92,-0.16 1.29,-0.5l3.87 -3.6c0.76,-0.71 0.81,-1.9 0.1,-2.67 -0.71,-0.76 -1.91,-0.81 -2.67,-0.1l-3.87 3.6c-0.76,0.71 -0.81,1.91 -0.1,2.67 0.37,0.4 0.88,0.6 1.38,0.6z"/>
   </g>
   <g>
    <path class="fil10" d="M82.87 67.14l-25.44 24.49 -4.96 4.78 -1.83 1.76c-0.58,0.55 -1.51,0.53 -2.07,-0.05l-5.01 -5.23 -4.59 -4.78c-2.01,-2.1 -1.95,-5.47 0.15,-7.48l4.44 -4.27 24.63 -23.72c2.1,-2.01 5.45,-1.95 7.46,0.15l9.61 10.02c0.56,0.58 0.54,1.52 -0.05,2.07l-2.34 2.26z"/>
   </g>
   <g>
    <path class="fil11" d="M45.43 74.54l0 0.01 0 -0.01zm4.46 12.25l5.02 5.23c0.56,0.58 1.49,0.6 2.07,0.04l-4.51 4.35 -1.83 1.76c-0.58,0.55 -1.52,0.53 -2.07,-0.05l-5.01 -5.23 -4.59 -4.78c-2.01,-2.1 -1.95,-5.47 0.15,-7.48l5.61 -5.41 -0.47 0.47 1.17 -1.14c-2.07,2.01 -2.13,5.36 -0.13,7.45l4.59 4.79z"/>
   </g>
  </g>
 </g>
</svg>
