<?xml version="1.0" encoding="UTF-8"?>
<!DOCTYPE svg PUBLIC "-//W3C//DTD SVG 1.1//EN" "http://www.w3.org/Graphics/SVG/1.1/DTD/svg11.dtd">
<!-- Creator: CorelDRAW 2019 (64-Bit) -->
<svg xmlns="http://www.w3.org/2000/svg" xml:space="preserve" width="200px" height="200px" version="1.1" style="shape-rendering:geometricPrecision; text-rendering:geometricPrecision; image-rendering:optimizeQuality; fill-rule:evenodd; clip-rule:evenodd"
viewBox="0 0 200 200"
 xmlns:xlink="http://www.w3.org/1999/xlink"
 xmlns:xodm="http://www.corel.com/coreldraw/odm/2003">
 <defs>
  <style type="text/css">
   <![CDATA[
    .fil2 {fill:#395C7F}
    .fil1 {fill:white}
    .fil0 {fill:#395C7F}
    .fil4 {fill:#252930;fill-rule:nonzero}
    .fil6 {fill:#3B414A;fill-rule:nonzero}
    .fil5 {fill:#BA3A23;fill-rule:nonzero}
    .fil10 {fill:#E04C34;fill-rule:nonzero}
    .fil9 {fill:#E2BE50;fill-rule:nonzero}
    .fil7 {fill:#EDC100;fill-rule:nonzero}
    .fil8 {fill:#F1D24B;fill-rule:nonzero}
    .fil3 {fill:#F8E8AB;fill-rule:nonzero}
   ]]>
  </style>
 </defs>
 <g id="Layer_x0020_1">
  <metadata id="CorelCorpID_0Corel-Layer"/>
  <rect class="fil0" width="200" height="200"/>
  <rect class="fil1" x="15" y="15" width="170" height="170" rx="35" ry="35"/>
  <g id="_1443701250864">
   <path class="fil2" d="M50 22.5l100 0c15.13,0 27.5,12.37 27.5,27.5l0 100c0,15.13 -12.37,27.5 -27.5,27.5l-100 0c-15.13,0 -27.5,-12.37 -27.5,-27.5l0 -100c0,-15.13 12.37,-27.5 27.5,-27.5z"/>
  </g>
  <g id="Page-1">
   <g id="_001---Degree">
    <path id="Shape" class="fil3" d="M162.5 125.86c0,11.89 -1.94,21.55 -4.31,21.55 -14.46,-2.31 -29.06,-3.67 -43.71,-4.05l-5.34 -2.55c2.98,-5.29 1.86,-11.94 -2.67,-15.97 -0.07,-7.15 3.27,-13.27 1.91,-16.31 16.69,-0.21 33.33,-1.62 49.81,-4.23 2.37,0 4.31,9.66 4.31,21.56l0 0z"/>
    <path id="Shape_0" class="fil4" d="M69.83 74.26l-30.89 -11.03c-0.85,-0.31 -1.42,-1.12 -1.42,-2.03 0,-0.91 0.57,-1.71 1.42,-2.02l60.31 -21.56c0.48,-0.17 1.02,-0.17 1.5,0l60.31 21.56c0.85,0.31 1.42,1.11 1.42,2.02 0,0.91 -0.57,1.72 -1.42,2.03l-13.8 4.93 -5.97 2.14 -11.12 3.96 -60.34 0z"/>
    <g>
     <path id="Shape_1" class="fil3" d="M42.11 147.34l-0.3 0.07c0.11,0 0.21,-0.02 0.3,-0.07z"/>
     <path id="Shape_2" class="fil3" d="M42.07 104.35c-0.09,-0.01 -0.17,-0.03 -0.26,-0.05 0.09,0.01 0.17,0.02 0.26,0.05z"/>
     <path id="Shape_3" class="fil3" d="M42.09 104.35c15.51,2.44 31.17,3.82 46.88,4.11 1.42,3.15 6.72,9.77 6.72,17.4 0,0.51 0,1.01 -0.02,1.5 -2.66,4.05 -2.85,9.23 -0.48,13.45l-5.32 2.42c-15.99,0.28 -31.95,1.65 -47.76,4.11l-0.02 -42.99z"/>
    </g>
    <path id="Shape_4" class="fil5" d="M91.36 127.36c0.02,-0.49 0.02,-0.99 0.02,-1.5 0.24,-5.9 -0.58,-11.79 -2.41,-17.4 3.53,0.11 7.22,0.16 11.03,0.16 2.87,0 5.67,-0.03 8.38,-0.09 1.74,5.26 2.55,10.78 2.37,16.31l-19.39 2.52z"/>
    <path id="Shape_5" class="fil5" d="M102.16 147.41l-5.74 13.73c-0.32,0.81 -1.09,1.35 -1.97,1.36 -0.87,0.02 -1.67,-0.5 -2.02,-1.3l-1.57 -3.62 -3.62 1.55c-0.8,0.35 -1.72,0.18 -2.35,-0.42 -0.62,-0.61 -0.82,-1.53 -0.49,-2.34l5.47 -13.14 1.01 -2.42 11.28 6.6z"/>
    <path id="Shape_6" class="fil5" d="M113.43 140.81l1.05 2.55 5.43 13.01c0.33,0.81 0.13,1.73 -0.49,2.34 -0.63,0.6 -1.55,0.77 -2.35,0.42l-3.62 -1.55 -1.58 3.62c-0.34,0.8 -1.14,1.32 -2.01,1.3 -0.87,-0.01 -1.65,-0.55 -1.97,-1.36l-5.73 -13.73 11.27 -6.6z"/>
    <path id="Shape_7" class="fil6" d="M69.83 89.22l0 -23.71c0,-3.58 13.51,-6.46 30.17,-6.46 16.66,0 30.17,2.88 30.17,6.46l0 23.71 -60.34 0z"/>
    <path id="Shape_8" class="fil7" d="M145.26 69.82c-1.19,0 -2.16,-0.96 -2.16,-2.15l0 -14.14c0,-1.19 0.97,-2.16 2.16,-2.16 1.19,0 2.15,0.97 2.15,2.16l0 14.14c0,1.19 -0.96,2.15 -2.15,2.15z"/>
    <path id="Shape_9" class="fil8" d="M140.95 71.98l0 6.46c0,1.19 0.96,2.16 2.15,2.16l4.31 0c1.19,0 2.16,-0.97 2.16,-2.16l0 -6.46c0,-2.38 -1.93,-4.31 -4.31,-4.31 -2.38,0 -4.31,1.93 -4.31,4.31l0 0z"/>
    <ellipse id="Oval" class="fil4" cx="100" cy="89.22" rx="30.17" ry="6.47"/>
    <path id="Shape_10" class="fil9" d="M46.12 125.86c0,11.37 -1.77,20.71 -4.01,21.48 -0.09,0.05 -0.19,0.07 -0.3,0.07 -2.37,0 -4.31,-9.66 -4.31,-21.55 0,-11.9 1.94,-21.56 4.31,-21.56 0.02,0 0.05,0.01 0.07,0.03 0.04,0 0.1,0.02 0.19,0.02l0.02 0c2.24,0.75 4.03,10.08 4.03,21.51z"/>
    <path id="Shape_11" class="fil10" d="M115.09 134.48c0,7.14 -5.79,12.93 -12.93,12.93 -7.15,0 -12.94,-5.79 -12.94,-12.93 0,-7.15 5.79,-12.93 12.94,-12.93 3.17,-0.02 6.24,1.15 8.59,3.29 2.76,2.44 4.34,5.95 4.34,9.64z"/>
   </g>
  </g>
 </g>
</svg>
