<?xml version="1.0" encoding="UTF-8"?>
<!DOCTYPE svg PUBLIC "-//W3C//DTD SVG 1.1//EN" "http://www.w3.org/Graphics/SVG/1.1/DTD/svg11.dtd">
<!-- Creator: CorelDRAW 2019 (64-Bit) -->
<svg xmlns="http://www.w3.org/2000/svg" xml:space="preserve" width="200px" height="200px" version="1.1" style="shape-rendering:geometricPrecision; text-rendering:geometricPrecision; image-rendering:optimizeQuality; fill-rule:evenodd; clip-rule:evenodd"
viewBox="0 0 200 200"
 xmlns:xlink="http://www.w3.org/1999/xlink"
 xmlns:xodm="http://www.corel.com/coreldraw/odm/2003"
 enable-background="new 0 0 512 512">
 <defs>
  <style type="text/css">
   <![CDATA[
    .fil2 {fill:#395C7F}
    .fil1 {fill:white}
    .fil0 {fill:#395C7F}
    .fil4 {fill:#DE1D49;fill-rule:nonzero}
    .fil3 {fill:#E04B66;fill-rule:nonzero}
    .fil6 {fill:#E7A52E;fill-rule:nonzero}
    .fil5 {fill:#FFC250;fill-rule:nonzero}
   ]]>
  </style>
 </defs>
 <g id="Layer_x0020_1">
  <metadata id="CorelCorpID_0Corel-Layer"/>
  <rect class="fil0" width="200" height="200"/>
  <rect class="fil1" x="15" y="15" width="170" height="170" rx="35" ry="35"/>
  <g id="_1443716043696">
   <path class="fil2" d="M50 22.5l100 0c15.13,0 27.5,12.37 27.5,27.5l0 100c0,15.13 -12.37,27.5 -27.5,27.5l-100 0c-15.13,0 -27.5,-12.37 -27.5,-27.5l0 -100c0,-15.13 12.37,-27.5 27.5,-27.5z"/>
  </g>
  <g id="_1443716040496">
   <g>
    <path class="fil3" d="M152.73 51l-24.02 31.38 -48.51 20.71 -32.93 0c0,-36.22 29.37,-65.59 65.6,-65.59 6.78,0 13.32,1.03 19.47,2.94l-2.05 15.3 10.95 -11.8c4.08,1.96 7.93,4.33 11.49,7.06z"/>
    <path class="fil4" d="M112.87 37.5c2.05,0 4.08,0.09 6.09,0.28 -33.37,3.07 -59.5,31.14 -59.5,65.31l-12.19 0c0,-36.22 29.37,-65.59 65.6,-65.59l0 0z"/>
    <path class="fil5" d="M144.8 76.75l-24.69 13.33 -6.83 3.68 -39.97 21.58c-1.2,-3.87 -1.84,-7.98 -1.84,-12.25 0,-1.98 0.14,-3.94 0.41,-5.85 2.85,-20.09 20.11,-35.54 40.99,-35.54 8.71,0 16.8,2.69 23.47,7.29 3.17,2.18 6.02,4.8 8.46,7.76l0 0z"/>
    <path class="fil6" d="M94.81 103.09c0,0.22 0,0.43 0,0.64l-21.5 11.61c-1.19,-3.87 -1.84,-7.99 -1.84,-12.25 0,-22.86 18.53,-41.39 41.4,-41.39 4.05,0 7.96,0.58 11.66,1.66 -17.18,5.04 -29.72,20.92 -29.72,39.73l0 0z"/>
    <path class="fil6" d="M144.8 76.75l-71.49 38.59c-1.2,-3.87 -1.84,-7.99 -1.84,-12.25 0,-1.98 0.14,-3.94 0.41,-5.85 1.27,-1.3 2.82,-2.37 4.6,-3.11l59.86 -25.14c3.17,2.18 6.02,4.8 8.46,7.76l0 0z"/>
    <path class="fil5" d="M115.42 99.21l-3.29 12.2c-0.6,2.23 0.42,4.57 2.45,5.66l17.15 9.19c2.32,1.24 4.04,3.38 4.75,5.91l6.46 23.06c0.63,2.23 -0.15,4.41 -1.67,5.79 -1.23,1.12 -2.95,1.71 -4.81,1.39l-32.75 -5.6c-4.17,-0.71 -7.22,-4.33 -7.22,-8.56l0 -8.22c0,-5.32 -5.46,-8.89 -10.33,-6.75l-1.86 0.81c-4.04,1.77 -8.71,-0.37 -10.01,-4.58l-3.81 -12.35c-2.14,-6.94 1.33,-14.38 8.03,-17.19l39.13 -16.44 0 0 25.29 -10.62c2.69,-1.12 5.65,0.85 5.65,3.76l0 37.92c0,1.69 -1.37,3.06 -3.06,3.06l-2.84 0c-1.5,0 -2.78,-1.09 -3.02,-2.57l-1.81 -11.02c-0.3,-1.8 -1.56,-3.3 -3.29,-3.89l-12.75 -4.36c-2.71,-0.93 -5.65,0.63 -6.39,3.4l0 0z"/>
    <path class="fil6" d="M141.27 161.02c-1.23,1.12 -2.95,1.71 -4.81,1.39l-32.75 -5.6c-4.17,-0.72 -7.22,-4.33 -7.22,-8.56l0 -8.22c0,-5.32 -5.46,-8.89 -10.33,-6.75l-1.86 0.81c-4.04,1.77 -8.71,-0.37 -10.01,-4.58l-3.81 -12.35c-2.14,-6.94 1.33,-14.38 8.03,-17.19l39.13 -16.44c-13.72,5.77 -20.8,21.03 -16.34,35.23l9.02 28.69 30.95 13.57z"/>
   </g>
   <path class="fil5" d="M77.21 143.59c-0.16,-0.5 -0.61,-0.86 -1.14,-0.91l-7.22 -0.65 -2.85 -6.68c-0.21,-0.49 -0.69,-0.81 -1.22,-0.81 -0.54,0 -1.01,0.32 -1.22,0.81l-2.86 6.68 -7.22 0.65c-0.53,0.05 -0.97,0.41 -1.14,0.91 -0.16,0.51 -0.01,1.07 0.39,1.42l5.46 4.78 -1.61 7.08c-0.12,0.52 0.08,1.06 0.51,1.38 0.24,0.16 0.51,0.25 0.78,0.25 0.24,0 0.47,-0.07 0.68,-0.19l6.23 -3.72 6.22 3.72c0.45,0.27 1.03,0.25 1.46,-0.06 0.43,-0.32 0.63,-0.86 0.52,-1.38l-1.61 -7.08 5.45 -4.78c0.4,-0.35 0.56,-0.91 0.39,-1.42l0 0zm0 0z"/>
  </g>
 </g>
</svg>
