<svg xmlns="http://www.w3.org/2000/svg" width="361.003" height="720.001" viewBox="0 0 361.003 720.001"><defs><style>.a{fill:#fff;}.a,.b,.h,.i,.k,.l,.m{fill-rule:evenodd;}.b{fill:#d6e1eb;}.c,.d,.e,.l{fill:#132740;}.c{font-size:25.642px;}.c,.d{font-family:NunitoSans-Bold, Nunito Sans;font-weight:700;}.d{font-size:19.231px;}.e,.f{font-size:17.094px;font-family:NunitoSans-Regular, Nunito Sans;}.f{fill:#a5acb6;}.g{fill:#a6adb7;}.h{fill:#4d5c6f;}.i{fill:#444b60;}.j{fill:#454b5f;font-size:10.022px;font-family:Montserrat-SemiBold, Montserrat;font-weight:600;}.k{fill:#e0e0e0;}.m{fill:#eaeaea;}</style></defs><g transform="translate(-419.944 -2316.096)"><path class="a" d="M776.936,2367.438V2479.55h1a3.009,3.009,0,0,1,3.008,3.009v77.214a3.009,3.009,0,0,1-3.008,3.009h-1v421.973a51.492,51.492,0,0,1-51.342,51.342H476.3a53.5,53.5,0,0,1-53.348-53.347V2579.829a3.008,3.008,0,0,1-3.008-3.008V2531.7a3.009,3.009,0,0,1,3.008-3.009v-15.042a3.008,3.008,0,0,1-3.008-3.008v-45.125a3.009,3.009,0,0,1,3.008-3.009v-25.069a3.009,3.009,0,0,1-3.008-3.009v-21.059a3.008,3.008,0,0,1,3.008-3.008v-41.081a53.338,53.338,0,0,1,53.182-53.181h249.46A51.342,51.342,0,0,1,776.936,2367.438Z"/><path class="b" d="M469.078,2500.023H732.65a7.076,7.076,0,0,1,7.052,7.052v64.107a7.071,7.071,0,0,1-7.052,7.051H469.078a7.069,7.069,0,0,1-7.051-7.051v-64.107a7.073,7.073,0,0,1,7.051-7.052ZM732.65,2501.3H469.078a5.786,5.786,0,0,0-5.769,5.77v64.107a5.782,5.782,0,0,0,5.769,5.769H732.65a5.782,5.782,0,0,0,5.769-5.769v-64.107a5.786,5.786,0,0,0-5.769-5.77Z"/><text class="c" transform="translate(463.458 2404.22)"><tspan x="0" y="0">Ask Your Question</tspan></text><text class="d" transform="translate(461.697 2438.293)"><tspan x="0" y="0">Body</tspan></text><text class="e" transform="translate(462.6 2462.48)"><tspan x="0" y="0">Write your question here and make</tspan><tspan x="0" y="17.094">sure it is explained in full detail</tspan></text><text class="f" transform="translate(475.375 2526.675)"><tspan x="0" y="0" xml:space="preserve">Example;   1234 - 5667</tspan></text><path class="b" d="M470.246,2647.469H732.737a7.027,7.027,0,0,1,4.978,2.072l0,0a7.027,7.027,0,0,1,2.071,4.978v25.644a7.027,7.027,0,0,1-2.071,4.978l0,0a7.027,7.027,0,0,1-4.978,2.071H470.246a7.076,7.076,0,0,1-7.052-7.051v-25.644a7.073,7.073,0,0,1,7.052-7.052Zm262.491,1.283H470.246a5.784,5.784,0,0,0-5.77,5.769v25.644a5.787,5.787,0,0,0,5.77,5.769H732.737a5.784,5.784,0,0,0,5.769-5.769v-25.644a5.784,5.784,0,0,0-5.769-5.769Z"/><text class="d" transform="translate(462.335 2611.595)"><tspan x="0" y="0">Subject</tspan></text><text class="e" transform="translate(462.359 2635.656)"><tspan x="0" y="0">Select the subject of the question</tspan></text><text class="f" transform="translate(474.493 2674.121)"><tspan x="0" y="0">List Of Subjects</tspan></text><path class="b" d="M469.078,2782.1H732.65a7.071,7.071,0,0,1,7.052,7.051v25.644a7.071,7.071,0,0,1-7.052,7.051H469.078a7.026,7.026,0,0,1-4.978-2.071l0,0a7.03,7.03,0,0,1-2.07-4.978v-25.644a7.03,7.03,0,0,1,2.07-4.978l0,0a7.026,7.026,0,0,1,4.978-2.071Zm263.572,1.282H469.078a5.782,5.782,0,0,0-5.769,5.769v25.644a5.782,5.782,0,0,0,5.769,5.769H732.65a5.786,5.786,0,0,0,5.769-5.769v-25.644a5.786,5.786,0,0,0-5.769-5.769Z"/><text class="d" transform="translate(462.935 2720.366)"><tspan x="0" y="0">Tags</tspan></text><text class="e" transform="translate(462.858 2744.64)"><tspan x="0" y="0">Add up to 3 tags to describe what</tspan><tspan x="0" y="17.094">your question is about</tspan></text><text class="f" transform="translate(474.493 2808.61)"><tspan x="0" y="0" xml:space="preserve">Example;   algebra   </tspan><tspan class="g" y="0">waves</tspan></text><path class="h" d="M726.326,2664.656l-7.631,7.494-7.63-7.494,2.16-2.121,5.47,5.373,5.471-5.373Z"/><text class="d" transform="translate(461.697 2854.992)"><tspan x="0" y="0">Reward</tspan></text><text class="e" transform="translate(463.544 2879.401)"><tspan x="0" y="0">Choose how much bronze coins to</tspan><tspan x="0" y="17.094">give the Nerd with the best answer.</tspan><tspan x="0" y="34.188">Consider the questions’ difficulty</tspan></text><path class="b" d="M470.246,2942.365H732.737a7.027,7.027,0,0,1,4.978,2.071l0,0a7.029,7.029,0,0,1,2.071,4.979v25.643a7.027,7.027,0,0,1-2.071,4.978l0,0a7.031,7.031,0,0,1-4.978,2.071H470.246a7.076,7.076,0,0,1-7.052-7.052v-25.643a7.033,7.033,0,0,1,2.071-4.979l0,0a7.025,7.025,0,0,1,4.978-2.071Zm262.491,1.282H470.246a5.784,5.784,0,0,0-5.77,5.77v25.643a5.787,5.787,0,0,0,5.77,5.769H732.737a5.782,5.782,0,0,0,5.769-5.769v-25.643a5.784,5.784,0,0,0-5.769-5.77Z"/><text class="f" transform="translate(474.493 2969.017)"><tspan x="0" y="0">Bronze Coins Quotas</tspan></text><path class="h" d="M726.326,2959.552l-7.631,7.495-7.63-7.495,2.16-2.121,5.47,5.373,5.471-5.373Z"/><path class="i" d="M742.688,2348.89a1.3,1.3,0,0,1-1.253,1.462v-2.923a1.3,1.3,0,0,1,1.253,1.461Zm-1.67-2.715h0v5.437a1.248,1.248,0,0,1-1.253,1.246H723.476a1.248,1.248,0,0,1-1.254-1.246v-5.437a1.253,1.253,0,0,1,1.254-1.252h16.289a1.253,1.253,0,0,1,1.253,1.252Zm-17.542-.835h0a.837.837,0,0,0-.836.835v5.43a.837.837,0,0,0,.836.836h16.289a.837.837,0,0,0,.835-.836v-5.43a.836.836,0,0,0-.835-.835Zm-.418.835h0v5.43a.418.418,0,0,0,.418.418h16.289a.418.418,0,0,0,.417-.418v-5.43a.417.417,0,0,0-.417-.417H723.476A.418.418,0,0,0,723.058,2346.175Z"/><text class="j" transform="translate(483.67 2352.13)"><tspan x="-13.279" y="0">22:47</tspan></text><path class="i" d="M712.743,2344.923a7.8,7.8,0,0,1,5.015,1.95l-.667.74a6.749,6.749,0,0,0-8.691,0l-.666-.741a7.8,7.8,0,0,1,5.009-1.945Zm0,2.594a5.227,5.227,0,0,0-3.32,1.231l.713.793a4.15,4.15,0,0,1,5.217,0l.714-.793a5.225,5.225,0,0,0-3.324-1.234Zm0,2.559h0a2.656,2.656,0,0,1,1.608.58l-1.608,1.785-1.606-1.787A2.656,2.656,0,0,1,712.743,2350.076Z"/><path class="k" d="M776.936,2479.55V2367.438a51.342,51.342,0,0,0-51.342-51.342H476.134a53.338,53.338,0,0,0-53.182,53.181v41.081a3.008,3.008,0,0,0-3.008,3.008v21.059a3.009,3.009,0,0,0,3.008,3.009V2462.5a3.009,3.009,0,0,0-3.008,3.009v45.125a3.008,3.008,0,0,0,3.008,3.008v15.042a3.009,3.009,0,0,0-3.008,3.009v45.125a3.008,3.008,0,0,0,3.008,3.008V2982.75A53.5,53.5,0,0,0,476.3,3036.1H725.594a51.492,51.492,0,0,0,51.342-51.342V2562.782h1a3.009,3.009,0,0,0,3.008-3.009v-77.214a3.009,3.009,0,0,0-3.008-3.009ZM642.841,2339.022h0a4.387,4.387,0,1,1-4.387-4.388,4.387,4.387,0,0,1,4.387,4.388Zm-59.665-.865h39.109a2.549,2.549,0,1,1,0,5.014H583.176c-1.662,0-3.009-1.03-3.009-2.507a2.732,2.732,0,0,1,3.009-2.507Zm174.707,642.28h0c0,17.511-12.931,32.6-30.44,32.6H477.749c-17.51,0-32.735-15.085-32.735-32.6V2365.461c0-17.51,15.225-30.312,32.735-30.312h28.867c6.1,0,8.358-.7,8.727,7.039a14.935,14.935,0,0,0,4.028,9.726,21.693,21.693,0,0,0,9.343,5.79,27.8,27.8,0,0,0,8.043,1.512H668.7a27.979,27.979,0,0,0,8.043-1.676,21.827,21.827,0,0,0,9.343-5.61,14.372,14.372,0,0,0,4.028-9.547c.369-7.735,2.625-7.234,8.727-7.234h28.6c17.509,0,30.44,12.8,30.44,30.312Z"/><path class="l" d="M583.176,2343.171h39.109a2.549,2.549,0,1,0,0-5.014H583.176a2.732,2.732,0,0,0-3.009,2.507,2.475,2.475,0,0,0,.019.3A2.8,2.8,0,0,0,583.176,2343.171Z"/><path class="l" d="M634.067,2339.022a4.387,4.387,0,1,0,4.387-4.388A4.387,4.387,0,0,0,634.067,2339.022Z"/><path class="m" d="M574.345,3027.7H476.3a45.1,45.1,0,0,1-44.948-44.947V2571.43h-3.008v-34.343h3.008v-31.842h-3.008V2470.9h3.008v-41.869h-3.008v-10.276h3.008v-49.481a44.935,44.935,0,0,1,44.782-44.781h249.46a42.938,42.938,0,0,1,42.942,42.942V2487.95h4.011v66.432h-4.011v430.373a43.089,43.089,0,0,1-42.942,42.942ZM776.936,2479.55V2367.438a51.342,51.342,0,0,0-51.342-51.342H476.134a53.338,53.338,0,0,0-53.182,53.181v41.081a3.008,3.008,0,0,0-3.008,3.008v21.059a3.009,3.009,0,0,0,3.008,3.009V2462.5a3.009,3.009,0,0,0-3.008,3.009v45.125a3.008,3.008,0,0,0,3.008,3.008v15.042a3.009,3.009,0,0,0-3.008,3.009v45.125a3.008,3.008,0,0,0,3.008,3.008V2982.75A53.5,53.5,0,0,0,476.3,3036.1H725.594a51.492,51.492,0,0,0,51.342-51.342V2562.782h1a3.009,3.009,0,0,0,3.008-3.009v-77.214a3.009,3.009,0,0,0-3.008-3.009Z"/></g></svg>