<svg xmlns="http://www.w3.org/2000/svg" width="89.607" height="84" viewBox="0 0 89.607 84"><defs><style>.a{fill:#afc4d9;fill-rule:evenodd;}</style></defs><path class="a" d="M440.089,1907.7a5.6,5.6,0,0,1,.584-10.08,5.595,5.595,0,0,1,6.966,7.984,5.616,5.616,0,0,1-4.846,2.8,5.56,5.56,0,0,1-2.7-.7Zm59.179,7.025c-5.725,14.228-21.343,24.479-39.669,24.479H443.991c6.035,9.958,18.3,16.8,32.409,16.8H510a2.8,2.8,0,0,0,2.589-1.733,2.768,2.768,0,0,0-.612-3.045l-6.964-6.965A27.868,27.868,0,0,0,512.8,1925.2a26.514,26.514,0,0,0-2.169-10.479,30.928,30.928,0,0,0-9.031-11.728,32,32,0,0,1-2.331,11.728Zm-44.516-9.121a5.6,5.6,0,1,1,9.691,0,5.593,5.593,0,0,1-9.691,0Zm4.847,28c15.082,0,28.049-7.795,33.565-18.879A26.621,26.621,0,0,0,496,1902.8a27.7,27.7,0,0,0-7.241-18.421C482.114,1876.867,471.517,1872,459.6,1872c-20.072,0-36.4,13.807-36.4,30.8a27.9,27.9,0,0,0,7.787,19.057l-6.965,6.965A2.8,2.8,0,0,0,426,1933.6Zm16.8-25.2a5.6,5.6,0,0,1,0-11.2,5.555,5.555,0,0,1,2.121.419A5.6,5.6,0,0,1,476.4,1908.4Z" transform="translate(-423.196 -1872)"/></svg>