<svg xmlns="http://www.w3.org/2000/svg" width="600.001" height="336.311" viewBox="0 0 600.001 336.311"><defs><style>.a,.g{fill:#fff;}.a,.b,.c,.d,.i,.j,.k,.l,.m,.n,.p,.q,.r,.s,.t,.u,.v,.w,.x{fill-rule:evenodd;}.b{fill:#c8c8c8;}.c{fill:#e0e0e0;}.d{fill:#eaeaea;}.e,.h,.o,.z{fill:#132740;}.e{font-size:18.177px;}.e,.g,.h,.z{font-family:NunitoSans-Bold, Nunito Sans;font-weight:700;}.f{fill:#546dd2;}.g,.h{font-size:12px;}.i{fill:#df8d3d;}.j{fill:#f4a354;}.k{fill:#cc7f32;}.l{fill:#c37a31;}.m{fill:#78bdbf;}.n{fill:#be7934;}.p{fill:#fdc235;}.q{fill:#ffdc2f;}.r,.y{fill:#ffcf33;}.s{fill:#f9ab38;}.t{fill:#e3a536;}.u{fill:#a6772e;}.v{fill:#c88d33;}.w{fill:#e2b133;}.x{fill:#d79a35;}.z{font-size:12.118px;}.aa{fill:#d6e1eb;}</style></defs><g transform="translate(-1020.864 -5099.94)"><path class="a" d="M1579.905,5117.311v297.252h40.96v10.844c0,5.963-12.119,10.844-18.082,10.844H1038.946c-5.963,0-18.082-4.88-18.082-10.844v-10.844h40.961V5117.311a17.421,17.421,0,0,1,17.37-17.371h483.339A17.422,17.422,0,0,1,1579.905,5117.311Z"/><path class="b" d="M1020.864,5414.563h600v10.844c0,5.963-12.119,10.844-18.082,10.844H1038.946c-5.963,0-18.082-4.88-18.082-10.844Z"/><path class="c" d="M1079.775,5117.89h482.18v278.723h-482.18V5117.89Zm500.13,296.673V5117.311a17.422,17.422,0,0,0-17.371-17.371H1079.195a17.421,17.421,0,0,0-17.37,17.371v297.252Z"/><path class="d" d="M1079.195,5103.414h483.339a13.947,13.947,0,0,1,13.9,13.9v297.252H1065.3V5117.311a13.947,13.947,0,0,1,13.9-13.9Zm483.339-3.474H1079.195a17.421,17.421,0,0,0-17.37,17.371v297.252h518.08V5117.311A17.422,17.422,0,0,0,1562.534,5099.94Z"/><text class="e" transform="translate(1132.148 5174.319)"><tspan x="0" y="0">Buy Coins</tspan></text><rect class="f" width="54.532" height="18.177" rx="9.088" transform="translate(1454.167 5157.274)"/><text class="g" transform="translate(1477.073 5171.593)"><tspan x="0" y="0">250</tspan></text><text class="h" transform="translate(1168.395 5246.036)"><tspan x="0" y="0">1000</tspan></text><rect class="f" width="72.71" height="24.237" rx="12.118" transform="translate(1223.918 5226.955)"/><text class="g" transform="translate(1244.771 5244.345)"><tspan x="0" y="0">$0.99 </tspan></text><text class="h" transform="translate(1169.085 5282.391)"><tspan x="0" y="0">2000</tspan></text><rect class="f" width="72.71" height="24.237" rx="12.118" transform="translate(1223.918 5263.31)"/><text class="g" transform="translate(1244.771 5280.7)"><tspan x="0" y="0">$1.99 </tspan></text><path class="i" d="M1157.266,5278.791v2.977a1.143,1.143,0,0,1-.416.815,3.117,3.117,0,0,1-.265.218,4.686,4.686,0,0,1-.682.4c-.084.039-.173.081-.265.119a9.167,9.167,0,0,1-1.08.381l-.263.077c-.438.117-.913.224-1.421.315l-.265.047c-.417.067-.853.13-1.308.179l-.263.026c-.3.031-.612.055-.929.076l-.265.018q-.593.03-1.212.041l-.265,0h-.189c-.385,0-.763-.008-1.136-.021-.09,0-.178-.008-.265-.01q-.57-.029-1.117-.076l-.266-.023c-.252-.024-.5-.052-.738-.081-.089-.013-.177-.023-.265-.036-.306-.042-.6-.089-.891-.141-.089-.015-.177-.031-.263-.049-.251-.047-.49-.1-.721-.156-.09-.021-.178-.042-.264-.065-.288-.073-.559-.151-.815-.237-.091-.028-.179-.059-.265-.09a7.277,7.277,0,0,1-.738-.307c-.094-.045-.182-.092-.266-.138a3.377,3.377,0,0,1-.567-.383,1.877,1.877,0,0,1-.266-.27,1.012,1.012,0,0,1-.246-.63v-2.977Z"/><path class="j" d="M1157.266,5278.792c0,1.327-4.068,2.4-9.088,2.4s-9.089-1.076-9.089-2.4,4.069-2.4,9.089-2.4S1157.266,5277.465,1157.266,5278.792Z"/><path class="k" d="M1155.638,5278.472c0,.913-3.34,1.653-7.46,1.653s-7.46-.74-7.46-1.653,3.34-1.653,7.46-1.653S1155.638,5277.559,1155.638,5278.472Z"/><path class="l" d="M1140.945,5278.878c.818-.716,3.746-1.246,7.233-1.246s6.415.53,7.233,1.246a.558.558,0,0,0,.227-.406c0-.913-3.34-1.653-7.46-1.653s-7.46.74-7.46,1.653A.558.558,0,0,0,1140.945,5278.878Z"/><path class="l" d="M1148.142,5284.481h.225v-1.316h-.189c-.385,0-.763-.008-1.136-.021h0v1.316c.361.013.727.021,1.1.021Zm-9.053-4.029v1.316a1.012,1.012,0,0,0,.246.63h0v-1.316a1.012,1.012,0,0,1-.246-.63Zm9.543,4.026v-1.315h0c.413-.008.817-.021,1.212-.042v1.316h0q-.593.03-1.212.041Zm-1.855-.028h0q-.57-.029-1.117-.076v-1.316h0q.546.048,1.117.076v1.316Zm3.332-.031V5283.1h0c.317-.021.626-.045.929-.076v1.316h0c-.3.031-.612.055-.929.076Zm-4.715-.068h0c-.252-.024-.5-.052-.738-.081v-1.316h0c.241.029.486.058.738.081v1.316Zm5.907-.034V5283h0c.455-.049.891-.112,1.308-.179v1.316h0c-.417.067-.853.13-1.308.179Zm-6.91-.083h0c-.306-.042-.6-.089-.891-.141v-1.315h0c.286.052.585.1.891.14v1.316Zm8.483-.143v-1.316h0c.508-.091.983-.2,1.421-.315v1.316h0c-.438.117-.913.224-1.421.315Zm-9.637-.047h0c-.251-.047-.49-.1-.721-.156v-1.316h0c.231.057.47.109.721.156v1.316Zm-.985-.221h0c-.288-.073-.559-.151-.815-.237v-1.316h0c.256.086.527.164.815.237v1.316Zm12.306-.124v-1.317h0a8.753,8.753,0,0,0,1.08-.38v1.316h0a9.167,9.167,0,0,1-1.08.381Zm-13.386-.2h0a7.277,7.277,0,0,1-.738-.307v-1.317h0a6.856,6.856,0,0,0,.738.307v1.317Zm14.731-.3v-1.316h0a4.642,4.642,0,0,0,.682-.4v1.316h0a4.686,4.686,0,0,1-.682.4Zm-15.735-.148h0a3.377,3.377,0,0,1-.567-.383v-1.316h0a3.467,3.467,0,0,0,.567.383v1.316Zm16.682-.468v-1.316h0a1.144,1.144,0,0,0,.416-.815v1.316A1.143,1.143,0,0,1,1156.85,5282.583Z"/><path class="i" d="M1138.419,5274.607v2.977a1.139,1.139,0,0,0,.416.814,2.945,2.945,0,0,0,.265.219,4.7,4.7,0,0,0,.682.4c.085.039.173.08.265.119a9.18,9.18,0,0,0,1.08.38l.263.078c.438.117.913.224,1.421.315l.265.047c.417.067.853.129,1.308.179l.263.026c.3.031.613.055.929.075.088.008.176.014.265.019q.593.03,1.212.041l.265,0h.189c.385,0,.764-.008,1.137-.021l.264-.011c.381-.017.753-.043,1.117-.075l.267-.023c.251-.024.5-.052.737-.081.089-.013.177-.023.266-.036.306-.042.6-.089.89-.141.089-.015.177-.031.263-.049.251-.047.49-.1.722-.156.089-.021.177-.042.263-.065.288-.073.56-.151.815-.237.091-.028.179-.06.265-.091a6.963,6.963,0,0,0,.738-.307c.094-.044.182-.091.267-.137a3.463,3.463,0,0,0,.566-.383,1.9,1.9,0,0,0,.266-.27,1.011,1.011,0,0,0,.246-.63v-2.977Z"/><path class="j" d="M1138.419,5274.608c0,1.327,4.068,2.4,9.088,2.4s9.089-1.076,9.089-2.4-4.069-2.4-9.089-2.4S1138.419,5273.281,1138.419,5274.608Z"/><path class="k" d="M1140.047,5274.288c0,.913,3.34,1.653,7.46,1.653s7.461-.74,7.461-1.653-3.34-1.653-7.461-1.653S1140.047,5273.375,1140.047,5274.288Z"/><path class="l" d="M1154.74,5274.694c-.818-.716-3.745-1.246-7.233-1.246s-6.415.53-7.232,1.246a.558.558,0,0,1-.228-.406c0-.913,3.34-1.653,7.46-1.653s7.461.74,7.461,1.653A.559.559,0,0,1,1154.74,5274.694Z"/><path class="l" d="M1147.543,5280.3h-.225v-1.316h.189c.385,0,.764-.008,1.137-.021h0v1.316c-.362.013-.728.02-1.1.021Zm9.053-4.028v1.315a1.011,1.011,0,0,1-.246.63h0V5276.9a1.012,1.012,0,0,0,.246-.629Zm-9.543,4.025v-1.315h0c-.413-.009-.817-.021-1.212-.042v1.316h0q.593.03,1.212.041Zm1.855-.029h0c.381-.017.753-.043,1.117-.075v-1.316h0q-.546.048-1.117.076v1.315Zm-3.332-.031v-1.316h0c-.316-.02-.626-.044-.929-.075v1.316h0c.3.031.613.055.929.075Zm4.716-.067h0c.251-.024.5-.052.737-.081v-1.316h0c-.24.029-.486.057-.737.081v1.316Zm-5.908-.034v-1.316h0c-.455-.049-.891-.112-1.308-.179v1.316h0c.417.067.853.129,1.308.179Zm6.911-.083h0c.306-.042.6-.089.89-.141v-1.316h0c-.286.053-.584.1-.89.141v1.316Zm-8.484-.143v-1.316h0c-.508-.091-.983-.2-1.421-.315v1.316h0c.438.117.913.224,1.421.315Zm9.637-.047h0c.251-.047.49-.1.722-.156v-1.316h0c-.232.057-.471.109-.722.156v1.316Zm.985-.221h0c.288-.073.56-.151.815-.237v-1.316h0c-.255.086-.527.164-.815.237v1.316Zm-12.306-.125V5278.2h0a9.18,9.18,0,0,1-1.08-.38v1.316h0a9.18,9.18,0,0,0,1.08.38Zm13.386-.2h0a6.963,6.963,0,0,0,.738-.307v-1.316h0a6.764,6.764,0,0,1-.738.307v1.316Zm-14.731-.3V5277.7h0a4.79,4.79,0,0,1-.682-.4v1.316h0a4.7,4.7,0,0,0,.682.4Zm15.736-.148h0a3.463,3.463,0,0,0,.566-.383v-1.316h0a3.4,3.4,0,0,1-.566.382v1.317Zm-16.683-.469v-1.316h0a1.139,1.139,0,0,1-.416-.813v1.315A1.139,1.139,0,0,0,1138.835,5278.4Z"/><path class="m" d="M1137.064,5282.845l-.38-1.132,3.262-7.932Z"/><path class="m" d="M1135.43,5277.978l-.38-1.131,2.5-6Z"/><path class="n" d="M1149.893,5276.943c0,.143,0,.284-.011.424-.006.118-.014.232-.029.347a7.142,7.142,0,0,1-.115.751c-.022.118-.048.232-.077.347a7.459,7.459,0,0,1-.5,1.372c-.052.118-.112.235-.172.347a7.471,7.471,0,0,1-.485.776,4.248,4.248,0,0,1-.26.347,6.537,6.537,0,0,1-.682.751c-.127.123-.256.238-.387.347a7.3,7.3,0,0,1-.995.705,6.518,6.518,0,0,1-.653.346,7.5,7.5,0,0,1-3.207.714H1140.6v-15.148h1.719a7.519,7.519,0,0,1,3.451.834,6.174,6.174,0,0,1,.607.347,7.157,7.157,0,0,1,.988.751c.127.108.247.226.364.346a7.649,7.649,0,0,1,1.032,1.316c.069.112.138.226.2.344a7.488,7.488,0,0,1,.6,1.421c.034.115.068.229.1.347a7.222,7.222,0,0,1,.195,1.135c.014.114.023.229.029.346S1149.893,5276.814,1149.893,5276.943Z"/><path class="i" d="M1149.882,5277.367c-.006.118-.014.232-.029.347h-2.115v-.347Z"/><path class="i" d="M1149.738,5278.465c-.022.118-.048.232-.077.347h-2.6v-.347Z"/><path class="i" d="M1149.163,5280.184c-.052.118-.112.235-.172.347h-2.56v-.347Z"/><path class="i" d="M1148.506,5281.307a4.248,4.248,0,0,1-.26.347h-2.657v-.347Z"/><path class="i" d="M1147.564,5282.4c-.127.123-.256.238-.387.347h-2.488v-.347Z"/><path class="i" d="M1146.182,5283.457a6.518,6.518,0,0,1-.653.346h-2.135v-.346Z"/><path class="i" d="M1149.885,5276.556h-2.29v-.346h2.261C1149.87,5276.324,1149.879,5276.439,1149.885,5276.556Z"/><path class="i" d="M1149.661,5275.075h-2.327v-.347h2.23C1149.6,5274.843,1149.632,5274.957,1149.661,5275.075Z"/><path class="i" d="M1148.965,5273.307h-2.333v-.344h2.132C1148.833,5273.075,1148.9,5273.189,1148.965,5273.307Z"/><path class="i" d="M1147.732,5271.647h-2.6v-.346h2.232C1147.495,5271.409,1147.615,5271.527,1147.732,5271.647Z"/><path class="i" d="M1146.38,5270.55h-2.516v-.347h1.909A6.174,6.174,0,0,1,1146.38,5270.55Z"/><path class="j" d="M1133.029,5276.942a7.573,7.573,0,1,0,7.574-7.573A7.573,7.573,0,0,0,1133.029,5276.942Z"/><path class="k" d="M1135.049,5276.942a5.554,5.554,0,1,0,5.554-5.554A5.554,5.554,0,0,0,1135.049,5276.942Z"/><path class="l" d="M1141.067,5282.032a5.554,5.554,0,0,1-4.153-9.241,5.553,5.553,0,1,0,7.84,7.838A5.53,5.53,0,0,1,1141.067,5282.032Z"/><path class="j" d="M1137.326,5275.5l3.939,2.954-.413.31a.429.429,0,0,1-.483-.008l-1.766-1.324-1.264.949,2.709,2.032.321.241a.431.431,0,0,0,.483.007l.328-.247,2.7-2.024-3.939-2.954.414-.31a.428.428,0,0,1,.482.007l1.766,1.325,1.265-.949-3.031-2.272a.426.426,0,0,0-.482-.008Z"/><text class="h" transform="translate(1168.928 5318.745)"><tspan x="0" y="0">5000</tspan></text><rect class="o" width="72.71" height="24.237" rx="12.118" transform="translate(1223.918 5299.665)"/><text class="g" transform="translate(1244.771 5317.055)"><tspan x="0" y="0">$4.99 </tspan></text><text class="h" transform="translate(1168.395 5355.197)"><tspan x="0" y="0">10,000</tspan></text><rect class="f" width="72.71" height="24.236" rx="12.118" transform="translate(1223.918 5336.02)"/><text class="g" transform="translate(1244.771 5353.41)"><tspan x="0" y="0">$9.99 </tspan></text><path class="i" d="M1139.089,5242.472v2.977a1.144,1.144,0,0,0,.416.815,3.138,3.138,0,0,0,.266.218,4.584,4.584,0,0,0,.681.4c.085.039.173.081.265.119a8.92,8.92,0,0,0,1.08.381l.264.077c.438.117.912.224,1.421.315l.265.047c.416.067.852.13,1.307.179.088.008.176.019.264.026.3.031.612.055.928.076.088.008.176.013.265.018.4.02.8.033,1.212.041l.265,0h.19c.384,0,.763-.008,1.136-.021l.265-.01c.38-.018.753-.044,1.116-.076l.267-.023c.251-.023.5-.052.738-.08.089-.014.177-.024.265-.037.306-.042.6-.088.89-.141.089-.015.177-.031.264-.049.25-.047.489-.1.721-.156.089-.021.177-.041.263-.065.288-.073.56-.151.816-.237.091-.028.178-.059.264-.09a7.08,7.08,0,0,0,.738-.307c.094-.045.182-.092.267-.138a3.431,3.431,0,0,0,.566-.383,1.939,1.939,0,0,0,.267-.27,1.017,1.017,0,0,0,.245-.63v-2.977Z"/><path class="j" d="M1139.089,5242.473c0,1.327,4.069,2.4,9.088,2.4s9.089-1.076,9.089-2.4-4.069-2.4-9.089-2.4S1139.089,5241.146,1139.089,5242.473Z"/><path class="k" d="M1140.717,5242.153c0,.913,3.34,1.653,7.46,1.653s7.461-.74,7.461-1.653-3.34-1.653-7.461-1.653S1140.717,5241.241,1140.717,5242.153Z"/><path class="l" d="M1155.41,5242.559c-.818-.716-3.745-1.246-7.233-1.246s-6.414.53-7.232,1.246a.558.558,0,0,1-.228-.406c0-.912,3.34-1.653,7.46-1.653s7.461.741,7.461,1.653A.558.558,0,0,1,1155.41,5242.559Z"/><path class="l" d="M1148.214,5248.162h-.226v-1.316h.19c.384,0,.763-.008,1.136-.021h0v1.316c-.362.013-.728.021-1.1.021Zm9.052-4.028v1.315a1.017,1.017,0,0,1-.245.63h0v-1.316a1.016,1.016,0,0,0,.245-.629Zm-9.543,4.025v-1.315h0c-.412-.008-.816-.021-1.212-.042v1.316h0c.4.02.8.033,1.212.041Zm1.856-.028h0c.38-.018.753-.044,1.116-.076v-1.315h0c-.363.031-.736.057-1.116.075v1.316Zm-3.333-.031v-1.316h0c-.316-.021-.625-.044-.928-.076v1.316h0c.3.031.612.055.928.076Zm4.716-.068h0c.251-.023.5-.052.738-.08v-1.316h0c-.241.028-.487.057-.738.08v1.316Zm-5.908-.034v-1.316h0c-.455-.049-.891-.111-1.307-.179v1.316h0c.416.067.852.13,1.307.179Zm6.911-.083h0c.306-.042.6-.088.89-.141v-1.315h0c-.286.052-.584.1-.89.14v1.316Zm-8.483-.143v-1.316h0c-.509-.091-.983-.2-1.421-.315v1.316h0c.438.117.912.224,1.421.315Zm9.637-.047h0c.25-.047.489-.1.721-.156v-1.316h0c-.232.057-.471.109-.721.156v1.316Zm.984-.221h0c.288-.073.56-.151.816-.237v-1.316h0q-.384.129-.816.237v1.316Zm-12.306-.124v-1.317h0a9.013,9.013,0,0,1-1.08-.379V5247h0a8.92,8.92,0,0,0,1.08.381Zm13.386-.2h0a7.08,7.08,0,0,0,.738-.307v-1.316h0a6.877,6.877,0,0,1-.738.306v1.317Zm-14.731-.3v-1.316h0a4.584,4.584,0,0,1-.681-.4v1.316h0a4.584,4.584,0,0,0,.681.4Zm15.736-.148h0a3.431,3.431,0,0,0,.566-.383v-1.316h0a3.431,3.431,0,0,1-.566.383v1.316Zm-16.683-.468v-1.316h0a1.148,1.148,0,0,1-.416-.814v1.315A1.144,1.144,0,0,0,1139.505,5246.264Z"/><path class="m" d="M1137.064,5246.49l-.38-1.132,3.262-7.932Z"/><path class="m" d="M1135.43,5241.623l-.38-1.132,2.5-6Z"/><path class="n" d="M1149.894,5240.588c0,.143,0,.284-.012.424-.006.118-.014.233-.029.347a7.1,7.1,0,0,1-.115.751c-.022.118-.048.232-.077.347a7.459,7.459,0,0,1-.5,1.372c-.052.118-.112.235-.172.347a7.576,7.576,0,0,1-.485.776,4.086,4.086,0,0,1-.26.347,6.537,6.537,0,0,1-.682.751c-.127.123-.256.238-.387.347a7.3,7.3,0,0,1-.995.705,6.518,6.518,0,0,1-.653.346,7.5,7.5,0,0,1-3.207.714H1140.6v-15.148h1.719a7.531,7.531,0,0,1,3.451.834,6.049,6.049,0,0,1,.607.347,7.3,7.3,0,0,1,.989.751c.126.109.246.226.364.346a7.691,7.691,0,0,1,1.031,1.316c.069.112.138.226.2.344a7.426,7.426,0,0,1,.6,1.421c.034.115.068.229.1.347a6.993,6.993,0,0,1,.195,1.135c.014.114.023.229.029.346S1149.894,5240.459,1149.894,5240.588Z"/><path class="i" d="M1149.882,5241.012c-.006.118-.014.233-.029.347h-2.115v-.347Z"/><path class="i" d="M1149.738,5242.11c-.022.118-.048.232-.077.347h-2.6v-.347Z"/><path class="i" d="M1149.163,5243.829c-.052.118-.112.235-.172.347h-2.56v-.347Z"/><path class="i" d="M1148.506,5244.952a4.086,4.086,0,0,1-.26.347h-2.657v-.347Z"/><path class="i" d="M1147.564,5246.05c-.127.123-.256.238-.387.347h-2.488v-.347Z"/><path class="i" d="M1146.182,5247.1a6.518,6.518,0,0,1-.653.346h-2.135v-.346Z"/><path class="i" d="M1149.885,5240.2h-2.29v-.346h2.261C1149.87,5239.969,1149.879,5240.084,1149.885,5240.2Z"/><path class="i" d="M1149.661,5238.72h-2.327v-.347h2.23C1149.6,5238.488,1149.632,5238.6,1149.661,5238.72Z"/><path class="i" d="M1148.965,5236.952h-2.333v-.344h2.132C1148.833,5236.72,1148.9,5236.834,1148.965,5236.952Z"/><path class="i" d="M1147.733,5235.292h-2.6v-.346h2.233C1147.495,5235.055,1147.615,5235.172,1147.733,5235.292Z"/><path class="i" d="M1146.38,5234.195h-2.516v-.347h1.909A6.049,6.049,0,0,1,1146.38,5234.195Z"/><path class="j" d="M1133.029,5240.587a7.573,7.573,0,1,0,7.574-7.573A7.574,7.574,0,0,0,1133.029,5240.587Z"/><path class="k" d="M1135.049,5240.587a5.554,5.554,0,1,0,5.554-5.553A5.554,5.554,0,0,0,1135.049,5240.587Z"/><path class="l" d="M1141.067,5245.677a5.552,5.552,0,0,1-4.152-9.241,5.553,5.553,0,1,0,7.84,7.838A5.534,5.534,0,0,1,1141.067,5245.677Z"/><path class="j" d="M1137.326,5239.142l3.939,2.954-.413.31a.428.428,0,0,1-.483-.008l-1.765-1.324-1.265.949,2.709,2.032.321.241a.429.429,0,0,0,.483.007l.328-.247,2.7-2.024-3.938-2.954.413-.31a.426.426,0,0,1,.482.008l1.766,1.324,1.265-.949-3.031-2.273a.426.426,0,0,0-.482-.007Z"/><path class="i" d="M1157.266,5315.182v2.978a1.14,1.14,0,0,1-.416.813,2.787,2.787,0,0,1-.265.219,4.642,4.642,0,0,1-.682.4c-.084.039-.173.08-.265.119a8.917,8.917,0,0,1-1.08.38l-.263.078c-.438.117-.913.224-1.421.315l-.265.047c-.417.067-.853.13-1.308.179l-.263.026c-.3.031-.612.055-.929.076-.088.007-.176.013-.265.018-.4.021-.8.033-1.212.041l-.265,0h-.189c-.385,0-.763-.008-1.136-.021-.09,0-.178-.008-.265-.01-.38-.018-.753-.044-1.117-.076l-.266-.023c-.252-.023-.5-.052-.738-.081-.089-.013-.177-.023-.265-.036-.306-.042-.6-.089-.891-.141-.089-.015-.177-.031-.263-.049-.251-.047-.49-.1-.721-.156-.09-.021-.178-.042-.264-.065-.288-.073-.559-.151-.815-.237-.091-.028-.179-.059-.265-.091a6.856,6.856,0,0,1-.738-.307c-.094-.044-.182-.091-.266-.137a3.406,3.406,0,0,1-.567-.383,1.877,1.877,0,0,1-.266-.27,1.012,1.012,0,0,1-.246-.629v-2.978Z"/><path class="j" d="M1157.266,5315.183c0,1.327-4.068,2.4-9.088,2.4s-9.089-1.076-9.089-2.4,4.069-2.4,9.089-2.4S1157.266,5313.856,1157.266,5315.183Z"/><path class="k" d="M1155.638,5314.863c0,.913-3.34,1.653-7.46,1.653s-7.46-.74-7.46-1.653,3.34-1.653,7.46-1.653S1155.638,5313.95,1155.638,5314.863Z"/><path class="l" d="M1140.945,5315.269c.818-.716,3.746-1.246,7.233-1.246s6.415.53,7.233,1.246a.556.556,0,0,0,.227-.406c0-.913-3.34-1.653-7.46-1.653s-7.46.74-7.46,1.653A.556.556,0,0,0,1140.945,5315.269Z"/><path class="l" d="M1148.142,5320.872h.225v-1.316h-.189c-.385,0-.763-.008-1.136-.021h0v1.316q.541.019,1.1.021Zm-9.053-4.028v1.316a1.012,1.012,0,0,0,.246.629h0v-1.316a1.012,1.012,0,0,1-.246-.629Zm9.543,4.025v-1.315h0c.413-.009.817-.021,1.212-.042v1.316h0c-.4.021-.8.033-1.212.041Zm-1.855-.028h0c-.38-.018-.753-.044-1.117-.076v-1.316h0q.546.048,1.117.076v1.316Zm3.332-.031v-1.316h0c.317-.021.626-.045.929-.076v1.316h0c-.3.031-.612.055-.929.076Zm-4.715-.068h0c-.252-.023-.5-.052-.738-.081v-1.316h0c.241.029.486.058.738.081v1.316Zm5.907-.034v-1.316h0c.455-.049.891-.112,1.308-.179v1.316h0c-.417.067-.853.13-1.308.179Zm-6.91-.083h0c-.306-.042-.6-.089-.891-.141v-1.316h0c.286.053.585.1.891.141v1.316Zm8.483-.143v-1.316h0c.508-.091.983-.2,1.421-.315v1.316h0c-.438.117-.913.224-1.421.315Zm-9.637-.047h0c-.251-.047-.49-.1-.721-.156v-1.316h0c.231.057.47.109.721.156v1.316Zm-.985-.221h0c-.288-.073-.559-.151-.815-.237v-1.316h0c.256.086.527.164.815.237v1.316Zm12.306-.125v-1.316h0a9.18,9.18,0,0,0,1.08-.379v1.315h0a8.917,8.917,0,0,1-1.08.38Zm-13.386-.2h0a6.856,6.856,0,0,1-.738-.307v-1.315h0a6.962,6.962,0,0,0,.738.306v1.316Zm14.731-.3v-1.316h0a4.642,4.642,0,0,0,.682-.4v1.316h0a4.642,4.642,0,0,1-.682.4Zm-15.735-.148h0a3.406,3.406,0,0,1-.567-.383v-1.316h0a3.467,3.467,0,0,0,.567.383v1.316Zm16.682-.469v-1.315h0a1.144,1.144,0,0,0,.416-.814v1.316A1.14,1.14,0,0,1,1156.85,5318.973Z"/><path class="i" d="M1138.419,5311v2.977a1.139,1.139,0,0,0,.416.814,2.944,2.944,0,0,0,.265.219,4.655,4.655,0,0,0,.682.4c.085.039.173.08.265.119a8.924,8.924,0,0,0,1.08.38l.263.078c.438.117.913.224,1.421.315l.265.046c.417.068.853.131,1.308.18l.263.026c.3.031.613.054.929.075.088.008.176.014.265.019.4.02.8.033,1.212.041l.265,0h.189c.385,0,.764-.008,1.137-.021.089,0,.177-.008.264-.01.381-.018.753-.045,1.117-.076l.267-.023c.251-.024.5-.053.737-.081.089-.013.177-.023.266-.036.306-.042.6-.089.89-.141.089-.015.177-.031.263-.049.251-.047.49-.1.722-.156.089-.021.177-.042.263-.065.288-.073.56-.151.815-.237.091-.028.179-.06.265-.091a6.963,6.963,0,0,0,.738-.307c.094-.044.182-.091.267-.138a3.43,3.43,0,0,0,.566-.382,1.877,1.877,0,0,0,.266-.27,1.012,1.012,0,0,0,.246-.63V5311Z"/><path class="j" d="M1138.419,5311c0,1.327,4.068,2.4,9.088,2.4s9.089-1.076,9.089-2.4-4.069-2.4-9.089-2.4S1138.419,5309.672,1138.419,5311Z"/><path class="k" d="M1140.047,5310.679c0,.913,3.34,1.653,7.46,1.653s7.461-.74,7.461-1.653-3.34-1.653-7.461-1.653S1140.047,5309.766,1140.047,5310.679Z"/><path class="l" d="M1154.74,5311.085c-.818-.716-3.745-1.246-7.233-1.246s-6.415.53-7.232,1.246a.559.559,0,0,1-.228-.406c0-.913,3.34-1.653,7.46-1.653s7.461.74,7.461,1.653A.56.56,0,0,1,1154.74,5311.085Z"/><path class="l" d="M1147.543,5316.688h-.225v-1.316h.189c.385,0,.764-.008,1.137-.021h0v1.316c-.362.013-.728.021-1.1.021Zm9.053-4.028v1.315a1.012,1.012,0,0,1-.246.63h0v-1.316a1.012,1.012,0,0,0,.246-.629Zm-9.543,4.025v-1.316h0c-.413-.008-.817-.021-1.212-.041v1.316h0c.4.02.8.033,1.212.041Zm1.855-.028h0c.381-.018.753-.045,1.117-.076v-1.316h0q-.546.048-1.117.076v1.316Zm-3.332-.032v-1.315h0c-.316-.021-.626-.045-.929-.076v1.316h0c.3.031.613.054.929.075Zm4.716-.067h0c.251-.024.5-.053.737-.081v-1.316h0c-.24.029-.486.058-.737.081v1.316Zm-5.908-.034v-1.316h0c-.455-.049-.891-.112-1.308-.179v1.315h0c.417.068.853.131,1.308.18Zm6.911-.083h0c.306-.042.6-.089.89-.141v-1.316h0c-.286.053-.584.1-.89.141v1.316Zm-8.484-.143v-1.316h0c-.508-.091-.983-.2-1.421-.315v1.316h0c.438.117.913.224,1.421.315Zm9.637-.047h0c.251-.047.49-.1.722-.156v-1.316h0c-.232.057-.471.109-.722.156v1.316Zm.985-.221h0c.288-.073.56-.151.815-.237v-1.316h0c-.255.086-.527.164-.815.237v1.316Zm-12.306-.125v-1.316h0a8.76,8.76,0,0,1-1.08-.38v1.316h0a8.924,8.924,0,0,0,1.08.38Zm13.386-.2h0a6.963,6.963,0,0,0,.738-.307v-1.316h0a6.764,6.764,0,0,1-.738.307v1.316Zm-14.731-.3v-1.316h0a4.655,4.655,0,0,1-.682-.4v1.316h0a4.655,4.655,0,0,0,.682.4Zm15.736-.149h0a3.43,3.43,0,0,0,.566-.382v-1.316h0a3.493,3.493,0,0,1-.566.383v1.315Zm-16.683-.468v-1.315h0a1.144,1.144,0,0,1-.416-.814v1.315A1.139,1.139,0,0,0,1138.835,5314.789Z"/><path class="i" d="M1137.468,5306.79v2.978a1.143,1.143,0,0,0,.416.814,3.085,3.085,0,0,0,.265.218,4.6,4.6,0,0,0,.682.4c.085.039.173.081.265.12a9.183,9.183,0,0,0,1.08.38l.264.077c.438.117.912.224,1.421.315l.265.047c.416.068.853.13,1.307.18.088.007.176.018.264.026.3.03.612.054.928.075.088.008.176.013.265.018.4.021.8.034,1.213.042l.264,0h.19c.384,0,.763-.008,1.136-.021.089,0,.177-.007.265-.01.38-.018.753-.044,1.116-.076l.267-.023c.251-.023.5-.052.737-.08l.266-.037c.306-.041.6-.088.89-.141q.135-.022.264-.049c.25-.047.489-.1.721-.156.089-.02.177-.041.263-.065q.432-.108.815-.236c.092-.029.179-.06.266-.091a7.256,7.256,0,0,0,.737-.307c.094-.044.182-.091.267-.138a3.366,3.366,0,0,0,.566-.383,1.939,1.939,0,0,0,.267-.27,1.008,1.008,0,0,0,.246-.629v-2.978Z"/><path class="j" d="M1137.468,5306.791c0,1.327,4.069,2.4,9.088,2.4s9.09-1.076,9.09-2.4-4.07-2.4-9.09-2.4S1137.468,5305.464,1137.468,5306.791Z"/><path class="k" d="M1139.1,5306.471c0,.913,3.34,1.653,7.46,1.653s7.461-.74,7.461-1.653-3.34-1.652-7.461-1.652S1139.1,5305.559,1139.1,5306.471Z"/><path class="l" d="M1153.789,5306.878c-.818-.717-3.745-1.247-7.233-1.247s-6.414.53-7.232,1.247a.56.56,0,0,1-.228-.407c0-.912,3.34-1.652,7.46-1.652s7.461.74,7.461,1.652A.559.559,0,0,1,1153.789,5306.878Z"/><path class="l" d="M1146.593,5312.48h-.226v-1.316h.19c.384,0,.763-.008,1.136-.02h0v1.315c-.361.013-.728.021-1.1.021Zm9.053-4.028v1.316a1.008,1.008,0,0,1-.246.629h0v-1.316a1.016,1.016,0,0,0,.246-.629Zm-9.543,4.026v-1.316h0c-.413-.008-.817-.021-1.213-.042v1.316h0c.4.021.8.034,1.213.042Zm1.855-.029h0c.38-.018.753-.044,1.116-.076v-1.315h0c-.363.031-.736.057-1.116.075v1.316Zm-3.333-.031V5311.1h0c-.316-.021-.625-.044-.928-.076v1.317h0c.3.03.612.054.928.075Zm4.716-.068h0c.251-.023.5-.052.737-.08v-1.316h0c-.24.028-.486.057-.737.08v1.316Zm-5.908-.033V5311h0c-.454-.05-.891-.112-1.307-.18v1.316h0c.416.068.853.13,1.307.18Zm6.911-.084h0c.306-.041.6-.088.89-.141v-1.315h0c-.286.052-.584.1-.89.14v1.316Zm-8.483-.143v-1.316h0c-.509-.091-.983-.2-1.421-.314v1.315h0c.438.117.912.224,1.421.315Zm9.637-.047h0c.25-.047.489-.1.721-.156v-1.315h0c-.232.056-.471.108-.721.155v1.316Zm.984-.221h0q.432-.108.815-.236v-1.316h0c-.255.086-.527.164-.815.237v1.315Zm-12.306-.124v-1.317h0a8.931,8.931,0,0,1-1.08-.379v1.316h0a9.183,9.183,0,0,0,1.08.38Zm13.387-.2h0a7.256,7.256,0,0,0,.737-.307v-1.316h0a7.04,7.04,0,0,1-.737.307v1.316Zm-14.732-.3v-1.316h0a4.557,4.557,0,0,1-.682-.4v1.316h0a4.6,4.6,0,0,0,.682.4Zm15.736-.148h0a3.366,3.366,0,0,0,.566-.383v-1.316h0a3.4,3.4,0,0,1-.566.383v1.316Zm-16.683-.468v-1.316h0a1.144,1.144,0,0,1-.416-.814v1.316A1.143,1.143,0,0,0,1137.884,5310.582Z"/><path class="m" d="M1137.064,5319.2l-.38-1.132,3.262-7.932Z"/><path class="m" d="M1135.43,5314.333l-.38-1.132,2.5-6Z"/><path class="n" d="M1149.893,5313.3c0,.143,0,.284-.011.424-.006.118-.014.232-.029.347a7.122,7.122,0,0,1-.115.751c-.022.117-.048.232-.077.347a7.459,7.459,0,0,1-.5,1.372c-.052.118-.112.235-.172.347a7.516,7.516,0,0,1-.485.776,4.248,4.248,0,0,1-.26.347,6.537,6.537,0,0,1-.682.751c-.127.123-.256.238-.387.347a7.3,7.3,0,0,1-.995.705,6.735,6.735,0,0,1-.653.347,7.516,7.516,0,0,1-3.207.713H1140.6v-15.148h1.719a7.519,7.519,0,0,1,3.451.834,6.174,6.174,0,0,1,.607.347,7.157,7.157,0,0,1,.988.751c.127.109.247.226.364.346a7.649,7.649,0,0,1,1.032,1.316c.069.112.138.226.2.344a7.515,7.515,0,0,1,.6,1.421c.034.115.068.229.1.347a7.222,7.222,0,0,1,.195,1.135c.014.114.023.229.029.346S1149.893,5313.169,1149.893,5313.3Z"/><path class="i" d="M1149.882,5313.722c-.006.118-.014.232-.029.347h-2.115v-.347Z"/><path class="i" d="M1149.738,5314.82c-.022.117-.048.232-.077.347h-2.6v-.347Z"/><path class="i" d="M1149.163,5316.539c-.052.118-.112.235-.172.347h-2.56v-.347Z"/><path class="i" d="M1148.506,5317.662a4.248,4.248,0,0,1-.26.347h-2.657v-.347Z"/><path class="i" d="M1147.564,5318.76c-.127.123-.256.238-.387.347h-2.488v-.347Z"/><path class="i" d="M1146.182,5319.812a6.735,6.735,0,0,1-.653.347h-2.135v-.347Z"/><path class="i" d="M1149.885,5312.911h-2.29v-.346h2.261C1149.87,5312.679,1149.879,5312.794,1149.885,5312.911Z"/><path class="i" d="M1149.661,5311.43h-2.327v-.347h2.23C1149.6,5311.2,1149.632,5311.312,1149.661,5311.43Z"/><path class="i" d="M1148.965,5309.662h-2.333v-.344h2.132C1148.833,5309.43,1148.9,5309.544,1148.965,5309.662Z"/><path class="i" d="M1147.732,5308h-2.6v-.346h2.232C1147.495,5307.765,1147.615,5307.882,1147.732,5308Z"/><path class="i" d="M1146.38,5306.9h-2.516v-.347h1.909A6.174,6.174,0,0,1,1146.38,5306.9Z"/><path class="j" d="M1133.029,5313.3a7.573,7.573,0,1,0,7.574-7.573A7.573,7.573,0,0,0,1133.029,5313.3Z"/><path class="k" d="M1135.049,5313.3a5.554,5.554,0,1,0,5.554-5.554A5.554,5.554,0,0,0,1135.049,5313.3Z"/><path class="l" d="M1141.067,5318.387a5.554,5.554,0,0,1-4.153-9.241,5.553,5.553,0,1,0,7.84,7.838A5.53,5.53,0,0,1,1141.067,5318.387Z"/><path class="j" d="M1137.326,5311.852l3.939,2.954-.413.31a.429.429,0,0,1-.483-.008l-1.766-1.324-1.264.949,2.709,2.032.321.24a.429.429,0,0,0,.483.008l.328-.247,2.7-2.024-3.939-2.954.414-.31a.426.426,0,0,1,.482.008l1.766,1.324,1.265-.949-3.031-2.273a.428.428,0,0,0-.482-.007Z"/><path class="i" d="M1157.266,5352.485v2.482a.953.953,0,0,1-.346.678,2.554,2.554,0,0,1-.222.182,3.94,3.94,0,0,1-.568.332c-.07.032-.144.067-.221.1a7.613,7.613,0,0,1-.9.317l-.219.065c-.365.1-.76.186-1.184.262l-.221.039c-.347.056-.711.108-1.089.15-.074.006-.147.015-.22.021-.253.026-.51.046-.774.063-.073.006-.146.011-.221.015-.329.017-.666.028-1.01.035l-.22,0h-.158c-.321,0-.636-.006-.947-.017l-.221-.009c-.317-.015-.628-.037-.93-.063l-.223-.019c-.209-.02-.414-.044-.614-.067-.075-.011-.148-.02-.221-.031-.255-.035-.5-.074-.743-.117-.074-.013-.147-.026-.219-.041-.209-.039-.408-.083-.6-.13-.075-.017-.148-.035-.219-.054-.24-.061-.467-.126-.68-.2-.076-.023-.149-.049-.221-.075a5.931,5.931,0,0,1-.615-.256c-.078-.037-.151-.076-.221-.115a2.824,2.824,0,0,1-.473-.319,1.62,1.62,0,0,1-.222-.225.843.843,0,0,1-.2-.524v-2.482Z"/><path class="j" d="M1157.266,5352.486c0,1.106-3.39,2-7.573,2s-7.575-.9-7.575-2,3.392-2,7.575-2S1157.266,5351.38,1157.266,5352.486Z"/><path class="k" d="M1155.909,5352.22c0,.76-2.783,1.377-6.216,1.377s-6.217-.617-6.217-1.377,2.783-1.378,6.217-1.378S1155.909,5351.459,1155.909,5352.22Z"/><path class="l" d="M1143.666,5352.558c.681-.6,3.121-1.038,6.027-1.038s5.345.441,6.027,1.038a.464.464,0,0,0,.189-.338c0-.761-2.783-1.378-6.216-1.378s-6.217.617-6.217,1.378A.462.462,0,0,0,1143.666,5352.558Z"/><path class="l" d="M1149.663,5357.227h.188v-1.1h-.158c-.321,0-.636-.006-.947-.017h0v1.1c.3.01.606.017.917.017Zm-7.545-3.357v1.1a.843.843,0,0,0,.2.524h0v-1.1a.844.844,0,0,1-.2-.525Zm7.953,3.355v-1.1h0q.516-.009,1.01-.034v1.1h0c-.329.017-.666.028-1.01.035Zm-1.546-.024h0c-.317-.015-.628-.037-.93-.063v-1.1h0c.3.027.613.048.93.063v1.1Zm2.777-.026v-1.1h0c.264-.017.521-.037.774-.062v1.1h0c-.253.026-.51.046-.774.063Zm-3.93-.056h0c-.209-.02-.414-.044-.614-.067v-1.1h0c.2.024.4.048.614.067v1.1Zm4.924-.028v-1.1h0c.378-.041.742-.093,1.089-.15v1.1h0c-.347.056-.711.108-1.089.15Zm-5.759-.07h0c-.255-.035-.5-.074-.743-.117v-1.1h0c.239.043.488.082.743.116v1.1Zm7.069-.119v-1.1h0c.424-.075.819-.164,1.184-.262v1.1h0c-.365.1-.76.186-1.184.262Zm-8.031-.039h0c-.209-.039-.408-.083-.6-.13v-1.1h0c.193.048.392.091.6.13v1.1Zm-.82-.184h0c-.24-.061-.467-.126-.68-.2v-1.1h0q.32.107.68.2v1.1Zm10.254-.1v-1.1h0a7.71,7.71,0,0,0,.9-.316v1.1h0a7.613,7.613,0,0,1-.9.317Zm-11.155-.169h0a5.931,5.931,0,0,1-.615-.256v-1.1h0a5.931,5.931,0,0,0,.615.256v1.1Zm12.276-.247v-1.1h0a3.768,3.768,0,0,0,.568-.332v1.1h0a3.94,3.94,0,0,1-.568.332Zm-13.112-.124h0a2.824,2.824,0,0,1-.473-.319v-1.1h0a2.979,2.979,0,0,0,.473.319v1.1Zm13.9-.39v-1.1h0a.951.951,0,0,0,.346-.678v1.1A.953.953,0,0,1,1156.92,5355.645Z"/><path class="i" d="M1141.521,5349.37v2.481a.949.949,0,0,0,.347.678,2.377,2.377,0,0,0,.221.182,3.768,3.768,0,0,0,.568.332c.071.032.144.067.221.1a7.524,7.524,0,0,0,.9.316l.219.065q.548.147,1.184.262l.221.039c.347.056.711.109,1.09.15.073.006.146.015.219.022.253.025.51.045.774.062.073.007.147.011.221.015.33.018.666.029,1.01.035l.221,0h.158c.32,0,.636-.006.946-.017l.221-.009c.317-.015.628-.037.931-.063l.222-.019c.209-.019.414-.044.615-.067.074-.011.147-.02.221-.03.255-.035.5-.074.742-.118.074-.013.147-.026.219-.041.209-.039.408-.082.6-.13.075-.017.148-.035.22-.054.24-.061.466-.126.679-.2.076-.024.149-.05.221-.076a5.843,5.843,0,0,0,.615-.256c.078-.037.151-.075.222-.115a2.877,2.877,0,0,0,.472-.318,1.737,1.737,0,0,0,.222-.225.844.844,0,0,0,.2-.525v-2.481Z"/><path class="j" d="M1141.521,5349.37c0,1.107,3.39,2,7.573,2s7.575-.9,7.575-2-3.391-2-7.575-2S1141.521,5348.265,1141.521,5349.37Z"/><path class="k" d="M1142.878,5349.1c0,.761,2.783,1.377,6.216,1.377s6.217-.616,6.217-1.377-2.783-1.377-6.217-1.377S1142.878,5348.343,1142.878,5349.1Z"/><path class="l" d="M1155.122,5349.443c-.682-.6-3.121-1.039-6.028-1.039s-5.345.442-6.026,1.039a.465.465,0,0,1-.19-.339c0-.761,2.783-1.377,6.216-1.377s6.217.616,6.217,1.377A.467.467,0,0,1,1155.122,5349.443Z"/><path class="l" d="M1149.125,5354.111h-.188v-1.1h.158c.32,0,.636-.007.946-.018h0v1.1c-.3.011-.606.017-.916.017Zm7.544-3.357v1.1a.844.844,0,0,1-.2.525h0v-1.1a.843.843,0,0,0,.2-.525Zm-7.953,3.355v-1.1h0c-.344-.007-.68-.018-1.01-.035v1.1h0c.33.018.666.029,1.01.035Zm1.546-.024h0c.317-.015.628-.037.931-.063v-1.1h0c-.3.026-.614.048-.931.063v1.1Zm-2.777-.026v-1.1h0c-.264-.018-.521-.037-.774-.063v1.1h0c.253.025.51.045.774.062Zm3.93-.056h0c.209-.019.414-.044.615-.067v-1.1h0c-.2.024-.406.048-.615.067v1.1Zm-4.923-.028v-1.1h0c-.379-.041-.743-.093-1.09-.149v1.1h0c.347.056.711.109,1.09.15Zm5.759-.069h0c.255-.035.5-.074.742-.118v-1.1h0c-.239.043-.487.082-.742.117v1.1Zm-7.07-.12v-1.1h0c-.424-.076-.819-.165-1.184-.263v1.1h0q.548.147,1.184.262Zm8.031-.039h0c.209-.039.408-.082.6-.13v-1.1h0c-.193.047-.392.09-.6.129v1.1Zm.821-.184h0c.24-.061.466-.126.679-.2v-1.1h0c-.213.072-.439.137-.679.2v1.1Zm-10.255-.1v-1.1h0a7.356,7.356,0,0,1-.9-.316v1.1h0a7.524,7.524,0,0,0,.9.316Zm11.155-.169h0a5.843,5.843,0,0,0,.615-.256v-1.1h0a5.846,5.846,0,0,1-.615.255v1.1Zm-12.276-.247v-1.1h0a3.9,3.9,0,0,1-.568-.331v1.1h0a3.768,3.768,0,0,0,.568.332Zm13.113-.124h0a2.877,2.877,0,0,0,.472-.318v-1.1h0a2.848,2.848,0,0,1-.472.319v1.1Zm-13.9-.39v-1.1h0a.952.952,0,0,1-.347-.679v1.1A.949.949,0,0,0,1141.868,5352.529Z"/><path class="i" d="M1156.356,5345.908v2.481a.951.951,0,0,1-.347.679,2.534,2.534,0,0,1-.221.182,3.811,3.811,0,0,1-.568.331c-.071.033-.144.068-.221.1a7.753,7.753,0,0,1-.9.317l-.22.065c-.365.1-.76.186-1.184.262l-.221.039c-.347.056-.71.108-1.089.149l-.22.022c-.252.026-.51.046-.774.063-.073.006-.146.011-.22.015q-.5.026-1.011.035l-.22,0h-.158c-.321,0-.636-.007-.947-.018l-.221-.008c-.317-.015-.627-.037-.93-.063l-.222-.019c-.21-.02-.414-.044-.615-.067-.074-.012-.148-.02-.221-.031-.255-.035-.5-.073-.742-.117-.075-.013-.148-.026-.22-.041-.208-.039-.408-.083-.6-.13-.074-.017-.148-.035-.219-.055-.24-.06-.466-.125-.68-.2-.076-.023-.148-.049-.22-.075a5.966,5.966,0,0,1-.615-.256c-.078-.037-.152-.076-.222-.115a2.8,2.8,0,0,1-.472-.319,1.519,1.519,0,0,1-.222-.225.845.845,0,0,1-.2-.525v-2.481Z"/><path class="j" d="M1156.356,5345.909c0,1.106-3.391,2-7.574,2s-7.574-.9-7.574-2,3.391-2,7.574-2S1156.356,5344.8,1156.356,5345.909Z"/><path class="k" d="M1155,5345.643c0,.76-2.784,1.377-6.217,1.377s-6.217-.617-6.217-1.377,2.783-1.378,6.217-1.378S1155,5344.882,1155,5345.643Z"/><path class="l" d="M1142.755,5345.981c.681-.6,3.121-1.039,6.027-1.039s5.346.442,6.027,1.039a.466.466,0,0,0,.19-.338c0-.761-2.784-1.378-6.217-1.378s-6.217.617-6.217,1.378A.462.462,0,0,0,1142.755,5345.981Z"/><path class="l" d="M1148.752,5350.65h.188v-1.1h-.158c-.321,0-.636-.006-.947-.017h0v1.1c.3.011.606.017.917.018Zm-7.544-3.357v1.1a.845.845,0,0,0,.2.525h0v-1.1a.846.846,0,0,1-.2-.525Zm7.952,3.355v-1.1h0c.344-.007.681-.017,1.011-.035v1.1h0q-.5.026-1.011.035Zm-1.546-.024h0c-.317-.015-.627-.037-.93-.063v-1.1h0q.455.04.93.062v1.1Zm2.777-.026v-1.1h0c.264-.017.522-.036.774-.063v1.1h0c-.252.026-.51.046-.774.063Zm-3.929-.056h0c-.21-.02-.414-.044-.615-.067v-1.1h0c.2.023.4.047.615.067v1.1Zm4.923-.029v-1.1h0c.379-.041.742-.093,1.089-.15v1.1h0c-.347.056-.71.108-1.089.149Zm-5.759-.069h0c-.255-.035-.5-.073-.742-.117v-1.1h0c.238.044.487.083.742.117v1.1Zm7.069-.119v-1.1h0c.424-.076.819-.165,1.184-.262v1.1h0c-.365.1-.76.186-1.184.262Zm-8.031-.039h0c-.208-.039-.408-.083-.6-.13v-1.1h0q.289.072.6.13v1.1Zm-.82-.185h0c-.24-.06-.466-.125-.68-.2v-1.1h0c.214.071.44.136.68.2v1.1Zm10.255-.1v-1.1h0a7.758,7.758,0,0,0,.9-.316v1.1h0a7.753,7.753,0,0,1-.9.317Zm-11.155-.169h0a5.966,5.966,0,0,1-.615-.256v-1.1h0a5.757,5.757,0,0,0,.615.256v1.1Zm12.276-.248v-1.1h0a3.811,3.811,0,0,0,.568-.332v1.1h0a3.811,3.811,0,0,1-.568.331Zm-13.113-.123h0a2.8,2.8,0,0,1-.472-.319v-1.1h0a2.8,2.8,0,0,0,.472.318v1.1Zm13.9-.39v-1.1h0a.951.951,0,0,0,.347-.678v1.1A.951.951,0,0,1,1156.009,5349.068Z"/><path class="i" d="M1155.571,5342.783v2.481a.951.951,0,0,1-.347.679,2.528,2.528,0,0,1-.221.181,3.74,3.74,0,0,1-.568.332c-.071.033-.145.067-.221.1a7.753,7.753,0,0,1-.9.317l-.22.064c-.365.1-.76.187-1.184.263l-.221.039c-.347.056-.71.108-1.089.149l-.22.022c-.252.026-.51.045-.774.063-.073.006-.146.011-.22.015q-.495.026-1.011.034l-.22,0H1148c-.321,0-.636-.007-.947-.018l-.221-.008c-.317-.015-.627-.037-.93-.063l-.223-.02c-.209-.019-.413-.043-.614-.067-.074-.011-.148-.02-.221-.03-.255-.035-.5-.074-.742-.117-.075-.013-.148-.026-.22-.041-.208-.039-.408-.083-.6-.13-.074-.018-.148-.035-.219-.055-.24-.06-.467-.125-.68-.2-.075-.024-.149-.05-.22-.075a5.969,5.969,0,0,1-.615-.256c-.079-.037-.152-.076-.222-.115a2.91,2.91,0,0,1-.473-.319,1.677,1.677,0,0,1-.222-.225.849.849,0,0,1-.2-.525v-2.481Z"/><path class="j" d="M1155.571,5342.784c0,1.106-3.391,2-7.574,2s-7.574-.9-7.574-2,3.391-2,7.574-2S1155.571,5341.678,1155.571,5342.784Z"/><path class="k" d="M1154.214,5342.517c0,.761-2.784,1.378-6.217,1.378s-6.217-.617-6.217-1.378,2.783-1.377,6.217-1.377S1154.214,5341.756,1154.214,5342.517Z"/><path class="l" d="M1141.97,5342.856c.681-.6,3.121-1.039,6.027-1.039s5.346.442,6.027,1.039a.468.468,0,0,0,.19-.339c0-.761-2.784-1.377-6.217-1.377s-6.217.616-6.217,1.377A.464.464,0,0,0,1141.97,5342.856Z"/><path class="l" d="M1147.967,5347.525h.188v-1.1H1148c-.321,0-.636-.006-.947-.017h0v1.1q.451.017.917.018Zm-7.544-3.357v1.1a.849.849,0,0,0,.2.525h0v-1.1a.848.848,0,0,1-.2-.524Zm7.952,3.354v-1.1h0c.344-.007.681-.017,1.011-.035v1.1h0q-.495.026-1.011.034Zm-1.546-.023h0c-.317-.015-.627-.037-.93-.063v-1.1h0c.3.026.613.048.93.063v1.1Zm2.777-.026v-1.1h0c.264-.017.522-.037.774-.063v1.1h0c-.252.026-.51.045-.774.063Zm-3.93-.057h0c-.209-.019-.413-.043-.614-.067v-1.1h0c.2.023.405.047.614.067v1.1Zm4.924-.028v-1.1h0c.379-.041.742-.093,1.089-.149v1.1h0c-.347.056-.71.108-1.089.149Zm-5.759-.069h0c-.255-.035-.5-.074-.742-.117v-1.1h0c.238.043.487.082.742.117v1.1Zm7.069-.119v-1.1h0c.424-.076.819-.165,1.184-.262v1.1h0c-.365.1-.76.187-1.184.263Zm-8.031-.039h0c-.208-.039-.408-.083-.6-.13v-1.1h0q.289.072.6.13v1.1Zm-.82-.185h0c-.24-.06-.467-.125-.68-.2v-1.1h0c.213.072.44.137.68.2v1.1Zm10.255-.1v-1.1h0a7.575,7.575,0,0,0,.9-.317v1.1h0a7.753,7.753,0,0,1-.9.317Zm-11.155-.169h0a5.969,5.969,0,0,1-.615-.256v-1.1h0a5.76,5.76,0,0,0,.615.256v1.1Zm12.276-.248v-1.1h0a3.91,3.91,0,0,0,.568-.332v1.1h0a3.74,3.74,0,0,1-.568.332Zm-13.113-.123h0a2.91,2.91,0,0,1-.473-.319v-1.1h0a2.849,2.849,0,0,0,.473.319v1.1Zm13.9-.39v-1.1h0a.957.957,0,0,0,.347-.678v1.1A.951.951,0,0,1,1155.224,5345.943Z"/><path class="m" d="M1137.064,5355.519l-.38-1.132,3.262-7.932Z"/><path class="m" d="M1135.43,5350.652l-.38-1.131,2.5-6Z"/><path class="n" d="M1149.893,5349.617c0,.143,0,.284-.011.424-.006.118-.015.232-.029.347a7.1,7.1,0,0,1-.115.75c-.023.118-.048.233-.077.348a7.391,7.391,0,0,1-.5,1.372c-.051.118-.111.235-.171.347a7.742,7.742,0,0,1-.485.776,4.054,4.054,0,0,1-.261.347,6.46,6.46,0,0,1-.682.751c-.126.123-.255.238-.387.347a7.227,7.227,0,0,1-.994.7,6.332,6.332,0,0,1-.653.347,7.506,7.506,0,0,1-3.207.714h-1.72v-15.148h1.72a7.524,7.524,0,0,1,3.45.834,6.208,6.208,0,0,1,.608.347,7.15,7.15,0,0,1,.988.75c.127.109.247.227.364.347a7.671,7.671,0,0,1,1.032,1.316c.069.112.138.226.2.343a7.412,7.412,0,0,1,.6,1.422c.035.115.069.229.1.346a7.271,7.271,0,0,1,.195,1.135c.014.115.023.23.028.347S1149.893,5349.488,1149.893,5349.617Z"/><path class="i" d="M1149.882,5350.041c-.006.118-.015.232-.029.347h-2.115v-.347Z"/><path class="i" d="M1149.738,5351.138c-.023.118-.048.233-.077.348h-2.6v-.348Z"/><path class="i" d="M1149.162,5352.858c-.051.118-.111.235-.171.347h-2.56v-.347Z"/><path class="i" d="M1148.506,5353.981a4.054,4.054,0,0,1-.261.347h-2.656v-.347Z"/><path class="i" d="M1147.563,5355.079c-.126.123-.255.238-.387.347h-2.487v-.347Z"/><path class="i" d="M1146.182,5356.13a6.332,6.332,0,0,1-.653.347h-2.135v-.347Z"/><path class="i" d="M1149.884,5349.23h-2.289v-.347h2.261C1149.87,5349,1149.879,5349.113,1149.884,5349.23Z"/><path class="i" d="M1149.661,5347.748h-2.327v-.346h2.229C1149.6,5347.517,1149.632,5347.631,1149.661,5347.748Z"/><path class="i" d="M1148.964,5345.98h-2.332v-.343h2.132C1148.833,5345.749,1148.9,5345.863,1148.964,5345.98Z"/><path class="i" d="M1147.732,5344.321h-2.6v-.347h2.232C1147.495,5344.083,1147.615,5344.2,1147.732,5344.321Z"/><path class="i" d="M1146.38,5343.224h-2.517v-.347h1.909A6.208,6.208,0,0,1,1146.38,5343.224Z"/><path class="j" d="M1133.029,5349.616a7.573,7.573,0,1,0,7.573-7.573A7.573,7.573,0,0,0,1133.029,5349.616Z"/><path class="k" d="M1135.049,5349.616a5.554,5.554,0,1,0,5.553-5.554A5.554,5.554,0,0,0,1135.049,5349.616Z"/><path class="l" d="M1141.067,5354.706a5.554,5.554,0,0,1-4.153-9.241,5.553,5.553,0,1,0,7.84,7.838A5.532,5.532,0,0,1,1141.067,5354.706Z"/><path class="j" d="M1137.326,5348.171l3.939,2.954-.414.31a.426.426,0,0,1-.482-.008l-1.766-1.324-1.265.949,2.71,2.032.321.24a.427.427,0,0,0,.482.008l.329-.247,2.7-2.024-3.939-2.954.414-.31a.427.427,0,0,1,.482.007l1.766,1.325,1.265-.949-3.031-2.273a.426.426,0,0,0-.482-.007Z"/><path class="p" d="M1351.162,5242.472v2.977a1.144,1.144,0,0,0,.416.815,3.117,3.117,0,0,0,.265.218,4.649,4.649,0,0,0,.682.4c.085.039.173.081.265.119a8.92,8.92,0,0,0,1.08.381l.264.077c.437.117.912.224,1.421.315l.265.047c.416.067.852.13,1.307.179.088.008.176.019.263.026.3.031.613.055.929.076.088.008.176.013.265.018.4.02.8.033,1.212.041l.265,0h.19c.384,0,.763-.008,1.136-.021l.265-.01q.57-.027,1.116-.076l.267-.023c.251-.023.5-.052.737-.08.089-.014.178-.024.266-.037.306-.042.6-.088.89-.141.09-.015.177-.031.264-.049.25-.047.489-.1.721-.156.089-.021.177-.041.263-.065.288-.073.56-.151.815-.237.091-.028.179-.059.265-.09a7.08,7.08,0,0,0,.738-.307c.094-.045.182-.092.267-.138a3.431,3.431,0,0,0,.566-.383,1.939,1.939,0,0,0,.267-.27,1.017,1.017,0,0,0,.245-.63v-2.977Z"/><path class="q" d="M1351.162,5242.473c0,1.327,4.069,2.4,9.088,2.4s9.089-1.076,9.089-2.4-4.069-2.4-9.089-2.4S1351.162,5241.146,1351.162,5242.473Z"/><path class="r" d="M1352.79,5242.153c0,.913,3.34,1.653,7.46,1.653s7.461-.74,7.461-1.653-3.34-1.653-7.461-1.653S1352.79,5241.241,1352.79,5242.153Z"/><path class="s" d="M1367.483,5242.559c-.818-.716-3.746-1.246-7.233-1.246s-6.414.53-7.232,1.246a.558.558,0,0,1-.228-.406c0-.912,3.34-1.653,7.46-1.653s7.461.741,7.461,1.653A.558.558,0,0,1,1367.483,5242.559Z"/><path class="t" d="M1360.287,5248.162h-.226v-1.316h.19c.384,0,.763-.008,1.136-.021h0v1.316c-.362.013-.728.021-1.1.021Zm9.052-4.028v1.315a1.017,1.017,0,0,1-.245.63h0v-1.316a1.016,1.016,0,0,0,.245-.629Zm-9.543,4.025v-1.315h0c-.412-.008-.816-.021-1.212-.042v1.316h0c.4.02.8.033,1.212.041Zm1.856-.028h0q.57-.027,1.116-.076v-1.315h0c-.364.031-.736.057-1.116.075v1.316Zm-3.333-.031v-1.316h0c-.316-.021-.626-.044-.929-.076v1.316h0c.3.031.613.055.929.076Zm4.716-.068h0c.251-.023.5-.052.737-.08v-1.316h0c-.24.028-.486.057-.737.08v1.316Zm-5.908-.034v-1.316h0c-.455-.049-.891-.111-1.307-.179v1.316h0c.416.067.852.13,1.307.179Zm6.911-.083h0c.306-.042.6-.088.89-.141v-1.315h0c-.286.052-.584.1-.89.14v1.316Zm-8.483-.143v-1.316h0c-.509-.091-.984-.2-1.421-.315v1.316h0c.437.117.912.224,1.421.315Zm9.637-.047h0c.25-.047.489-.1.721-.156v-1.316h0c-.232.057-.471.109-.721.156v1.316Zm.984-.221h0c.288-.073.56-.151.815-.237v-1.316h0q-.383.129-.815.237v1.316Zm-12.306-.124v-1.317h0a9.013,9.013,0,0,1-1.08-.379V5247h0a8.92,8.92,0,0,0,1.08.381Zm13.386-.2h0a7.08,7.08,0,0,0,.738-.307v-1.316h0a6.877,6.877,0,0,1-.738.306v1.317Zm-14.731-.3v-1.316h0a4.649,4.649,0,0,1-.682-.4v1.316h0a4.649,4.649,0,0,0,.682.4Zm15.736-.148h0a3.431,3.431,0,0,0,.566-.383v-1.316h0a3.431,3.431,0,0,1-.566.383v1.316Zm-16.683-.468v-1.316h0a1.144,1.144,0,0,1-.416-.814v1.315A1.144,1.144,0,0,0,1351.578,5246.264Z"/><path class="m" d="M1349.137,5246.49l-.38-1.132,3.262-7.932Z"/><path class="u" d="M1347.5,5241.623l-.38-1.132,2.5-6Z"/><path class="v" d="M1361.967,5240.588c0,.143,0,.284-.012.424-.006.118-.015.233-.029.347a7.1,7.1,0,0,1-.115.751c-.023.118-.048.232-.077.347a7.391,7.391,0,0,1-.5,1.372c-.051.118-.111.235-.171.347a7.576,7.576,0,0,1-.485.776,3.9,3.9,0,0,1-.261.347,6.352,6.352,0,0,1-.682.751c-.126.123-.255.238-.386.347a7.3,7.3,0,0,1-.995.705,6.518,6.518,0,0,1-.653.346,7.506,7.506,0,0,1-3.207.714h-1.72v-15.148h1.72a7.527,7.527,0,0,1,3.45.834,5.958,5.958,0,0,1,.608.347,7.235,7.235,0,0,1,.988.751c.127.109.247.226.365.346a7.691,7.691,0,0,1,1.031,1.316c.069.112.138.226.2.344a7.426,7.426,0,0,1,.6,1.421c.034.115.068.229.1.347a6.993,6.993,0,0,1,.195,1.135c.014.114.023.229.028.346S1361.967,5240.459,1361.967,5240.588Z"/><path class="u" d="M1361.955,5241.012c-.006.118-.015.233-.029.347h-2.115v-.347Z"/><path class="u" d="M1361.811,5242.11c-.023.118-.048.232-.077.347h-2.6v-.347Z"/><path class="u" d="M1361.235,5243.829c-.051.118-.111.235-.171.347h-2.56v-.347Z"/><path class="u" d="M1360.579,5244.952a3.9,3.9,0,0,1-.261.347h-2.656v-.347Z"/><path class="u" d="M1359.636,5246.05c-.126.123-.255.238-.386.347h-2.488v-.347Z"/><path class="u" d="M1358.255,5247.1a6.518,6.518,0,0,1-.653.346h-2.135v-.346Z"/><path class="u" d="M1361.957,5240.2h-2.289v-.346h2.261C1361.943,5239.969,1361.952,5240.084,1361.957,5240.2Z"/><path class="u" d="M1361.734,5238.72h-2.327v-.347h2.23C1361.671,5238.488,1361.7,5238.6,1361.734,5238.72Z"/><path class="u" d="M1361.038,5236.952H1358.7v-.344h2.132C1360.906,5236.72,1360.975,5236.834,1361.038,5236.952Z"/><path class="u" d="M1359.806,5235.292h-2.6v-.346h2.232C1359.568,5235.055,1359.688,5235.172,1359.806,5235.292Z"/><path class="u" d="M1358.453,5234.195h-2.516v-.347h1.908A5.958,5.958,0,0,1,1358.453,5234.195Z"/><path class="r" d="M1345.1,5240.587a7.573,7.573,0,1,0,7.573-7.573A7.574,7.574,0,0,0,1345.1,5240.587Z"/><path class="w" d="M1347.122,5240.587a5.554,5.554,0,1,0,5.553-5.553A5.553,5.553,0,0,0,1347.122,5240.587Z"/><path class="x" d="M1353.14,5245.677a5.553,5.553,0,0,1-4.153-9.241,5.553,5.553,0,1,0,7.84,7.838A5.529,5.529,0,0,1,1353.14,5245.677Z"/><path class="r" d="M1349.4,5239.142l3.939,2.954-.413.31a.428.428,0,0,1-.483-.008l-1.766-1.324-1.264.949,2.709,2.032.321.241a.429.429,0,0,0,.483.007l.328-.247,2.7-2.024-3.939-2.954.414-.31a.426.426,0,0,1,.482.008l1.766,1.324,1.265-.949-3.031-2.273a.426.426,0,0,0-.482-.007Z"/><path class="p" d="M1351.162,5278.827v2.977a1.144,1.144,0,0,0,.416.815,3.117,3.117,0,0,0,.265.218,4.649,4.649,0,0,0,.682.4c.085.039.173.081.265.119a8.924,8.924,0,0,0,1.08.38l.264.078c.437.117.912.224,1.421.315l.265.047c.416.067.852.13,1.307.179l.263.026c.3.031.613.055.929.076l.265.018c.4.021.8.034,1.212.042l.265,0h.19c.384,0,.763-.008,1.136-.021.089,0,.177-.008.265-.01q.57-.027,1.116-.076l.267-.023c.251-.024.5-.052.737-.081.089-.013.178-.023.266-.036.306-.041.6-.089.89-.141.09-.015.177-.031.264-.049.25-.047.489-.1.721-.156.089-.021.177-.042.263-.065q.432-.109.815-.236c.091-.029.179-.06.265-.091a7.185,7.185,0,0,0,.738-.307c.094-.045.182-.091.267-.138a3.431,3.431,0,0,0,.566-.383,1.939,1.939,0,0,0,.267-.27,1.017,1.017,0,0,0,.245-.63v-2.977Z"/><path class="q" d="M1351.162,5278.828c0,1.327,4.069,2.4,9.088,2.4s9.089-1.076,9.089-2.4-4.069-2.4-9.089-2.4S1351.162,5277.5,1351.162,5278.828Z"/><path class="r" d="M1352.79,5278.508c0,.913,3.34,1.653,7.46,1.653s7.461-.74,7.461-1.653-3.34-1.653-7.461-1.653S1352.79,5277.6,1352.79,5278.508Z"/><path class="s" d="M1367.483,5278.914c-.818-.716-3.746-1.246-7.233-1.246s-6.414.53-7.232,1.246a.56.56,0,0,1-.228-.406c0-.913,3.34-1.653,7.46-1.653s7.461.74,7.461,1.653A.56.56,0,0,1,1367.483,5278.914Z"/><path class="t" d="M1360.287,5284.517h-.226V5283.2h.19c.384,0,.763-.008,1.136-.021h0v1.316c-.362.013-.728.021-1.1.021Zm9.052-4.029v1.316a1.017,1.017,0,0,1-.245.63h0v-1.316a1.015,1.015,0,0,0,.245-.63Zm-9.543,4.027V5283.2h0c-.412-.008-.816-.021-1.212-.042v1.316h0c.4.021.8.034,1.212.042Zm1.856-.029h0q.57-.027,1.116-.076v-1.316h0q-.546.048-1.116.076v1.316Zm-3.333-.031v-1.316h0c-.316-.021-.626-.045-.929-.076v1.316h0c.3.031.613.055.929.076Zm4.716-.068h0c.251-.024.5-.052.737-.081v-1.316h0c-.24.029-.486.058-.737.081v1.316Zm-5.908-.034v-1.316h0c-.455-.049-.891-.112-1.307-.179v1.316h0c.416.067.852.13,1.307.179Zm6.911-.083h0c.306-.041.6-.089.89-.141v-1.315h0c-.286.052-.584.1-.89.14v1.316Zm-8.483-.143v-1.316h0c-.509-.091-.984-.2-1.421-.315v1.316h0c.437.117.912.224,1.421.315Zm9.637-.047h0c.25-.047.489-.1.721-.156v-1.316h0c-.232.057-.471.109-.721.156v1.316Zm.984-.221h0q.432-.109.815-.236v-1.317h0c-.255.086-.527.164-.815.237v1.316Zm-12.306-.125v-1.316h0a8.841,8.841,0,0,1-1.08-.38v1.316h0a8.924,8.924,0,0,0,1.08.38Zm13.386-.2h0a7.185,7.185,0,0,0,.738-.307v-1.316h0a6.877,6.877,0,0,1-.738.306v1.317Zm-14.731-.3v-1.316h0a4.563,4.563,0,0,1-.682-.4v1.316h0a4.649,4.649,0,0,0,.682.4Zm15.736-.148h0a3.431,3.431,0,0,0,.566-.383v-1.316h0a3.493,3.493,0,0,1-.566.383v1.316Zm-16.683-.468V5281.3h0a1.144,1.144,0,0,1-.416-.815v1.316A1.144,1.144,0,0,0,1351.578,5282.619Z"/><path class="p" d="M1350.727,5274.5v2.977a1.138,1.138,0,0,0,.416.814,3.108,3.108,0,0,0,.265.219,4.744,4.744,0,0,0,.682.4c.085.039.173.08.265.119a9.009,9.009,0,0,0,1.08.38l.264.078c.438.117.912.224,1.421.315l.265.047c.416.067.852.13,1.307.179l.264.026c.3.031.612.055.928.075.088.008.176.014.265.019q.594.03,1.212.041l.265,0h.19c.384,0,.763-.008,1.136-.021.089,0,.177-.008.265-.01.38-.018.753-.044,1.116-.076l.267-.023c.251-.023.5-.052.737-.081.09-.013.177-.023.266-.036.306-.042.6-.088.89-.141.09-.015.177-.031.264-.049.25-.047.489-.1.721-.156.089-.021.177-.042.263-.065.288-.073.56-.151.815-.237.092-.028.179-.06.265-.09a7.178,7.178,0,0,0,.738-.308c.094-.044.182-.091.267-.137a3.467,3.467,0,0,0,.566-.383,1.846,1.846,0,0,0,.266-.27,1.014,1.014,0,0,0,.247-.63V5274.5Z"/><path class="q" d="M1350.727,5274.5c0,1.327,4.069,2.4,9.088,2.4s9.09-1.076,9.09-2.4-4.07-2.4-9.09-2.4S1350.727,5273.175,1350.727,5274.5Z"/><path class="r" d="M1352.355,5274.182c0,.913,3.34,1.653,7.46,1.653s7.461-.74,7.461-1.653-3.34-1.653-7.461-1.653S1352.355,5273.269,1352.355,5274.182Z"/><path class="s" d="M1367.048,5274.589c-.818-.717-3.745-1.247-7.233-1.247s-6.414.53-7.232,1.247a.563.563,0,0,1-.228-.407c0-.913,3.34-1.653,7.46-1.653s7.461.74,7.461,1.653A.563.563,0,0,1,1367.048,5274.589Z"/><path class="t" d="M1359.852,5280.191h-.226v-1.316h.19c.384,0,.763-.008,1.136-.021h0v1.316c-.361.013-.728.021-1.1.021Zm9.053-4.028v1.315a1.014,1.014,0,0,1-.247.63h0v-1.316a1.019,1.019,0,0,0,.247-.629Zm-9.544,4.025v-1.315h0c-.412-.008-.816-.021-1.212-.042v1.316h0q.594.03,1.212.041Zm1.856-.028h0c.38-.018.753-.044,1.116-.076v-1.316h0c-.363.032-.736.057-1.116.076v1.316Zm-3.333-.032v-1.315h0c-.316-.021-.626-.045-.928-.076v1.316h0c.3.031.612.055.928.075Zm4.716-.067h0c.251-.023.5-.052.737-.081v-1.316h0c-.24.029-.486.058-.737.081v1.316Zm-5.908-.034v-1.316h0c-.455-.049-.891-.111-1.307-.179v1.316h0c.416.067.852.13,1.307.179Zm6.911-.083h0c.306-.042.6-.088.89-.141v-1.316h0c-.286.053-.584.1-.89.141v1.316Zm-8.483-.143v-1.316h0c-.509-.091-.983-.2-1.421-.315v1.316h0c.438.117.912.224,1.421.315Zm9.637-.047h0c.25-.047.489-.1.721-.156v-1.316h0c-.232.057-.471.109-.721.156v1.316Zm.984-.221h0c.288-.073.56-.151.815-.237v-1.316h0c-.255.086-.527.164-.815.237v1.316Zm-12.306-.125v-1.316h0a8.931,8.931,0,0,1-1.08-.379v1.315h0a9.009,9.009,0,0,0,1.08.38Zm13.386-.2h0a7.178,7.178,0,0,0,.738-.308v-1.316h0a6.771,6.771,0,0,1-.738.307v1.317Zm-14.731-.3v-1.316h0a4.655,4.655,0,0,1-.682-.4v1.316h0a4.744,4.744,0,0,0,.682.4Zm15.736-.148h0a3.467,3.467,0,0,0,.566-.383v-1.316h0a3.5,3.5,0,0,1-.566.383v1.316Zm-16.683-.469v-1.315h0a1.143,1.143,0,0,1-.416-.814v1.315A1.138,1.138,0,0,0,1351.143,5278.292Z"/><path class="m" d="M1349.137,5282.845l-.38-1.132,3.262-7.932Z"/><path class="u" d="M1347.5,5277.978l-.38-1.131,2.5-6Z"/><path class="v" d="M1361.967,5276.943c0,.143,0,.284-.012.424-.006.118-.015.232-.029.347a7.142,7.142,0,0,1-.115.751c-.023.118-.048.232-.077.347a7.391,7.391,0,0,1-.5,1.372c-.051.118-.111.235-.171.347a7.471,7.471,0,0,1-.485.776,4.047,4.047,0,0,1-.261.347,6.352,6.352,0,0,1-.682.751c-.126.123-.255.238-.386.347a7.3,7.3,0,0,1-.995.705,6.518,6.518,0,0,1-.653.346,7.506,7.506,0,0,1-3.207.714h-1.72v-15.148h1.72a7.515,7.515,0,0,1,3.45.834,5.958,5.958,0,0,1,.608.347,7.157,7.157,0,0,1,.988.751c.127.108.247.226.365.346a7.691,7.691,0,0,1,1.031,1.316c.069.112.138.226.2.344a7.426,7.426,0,0,1,.6,1.421c.034.115.068.229.1.347a7,7,0,0,1,.195,1.135c.014.114.023.229.028.346S1361.967,5276.814,1361.967,5276.943Z"/><path class="u" d="M1361.955,5277.367c-.006.118-.015.232-.029.347h-2.115v-.347Z"/><path class="u" d="M1361.811,5278.465c-.023.118-.048.232-.077.347h-2.6v-.347Z"/><path class="u" d="M1361.235,5280.184c-.051.118-.111.235-.171.347h-2.56v-.347Z"/><path class="u" d="M1360.579,5281.307a4.047,4.047,0,0,1-.261.347h-2.656v-.347Z"/><path class="u" d="M1359.636,5282.4c-.126.123-.255.238-.386.347h-2.488v-.347Z"/><path class="u" d="M1358.255,5283.457a6.518,6.518,0,0,1-.653.346h-2.135v-.346Z"/><path class="u" d="M1361.957,5276.556h-2.289v-.346h2.261C1361.943,5276.324,1361.952,5276.439,1361.957,5276.556Z"/><path class="u" d="M1361.734,5275.075h-2.327v-.347h2.23C1361.671,5274.843,1361.7,5274.957,1361.734,5275.075Z"/><path class="u" d="M1361.038,5273.307H1358.7v-.344h2.132C1360.906,5273.075,1360.975,5273.189,1361.038,5273.307Z"/><path class="u" d="M1359.806,5271.647h-2.6v-.346h2.232C1359.568,5271.409,1359.688,5271.527,1359.806,5271.647Z"/><path class="u" d="M1358.453,5270.55h-2.516v-.347h1.908A5.958,5.958,0,0,1,1358.453,5270.55Z"/><path class="r" d="M1345.1,5276.942a7.573,7.573,0,1,0,7.573-7.573A7.573,7.573,0,0,0,1345.1,5276.942Z"/><path class="w" d="M1347.122,5276.942a5.554,5.554,0,1,0,5.553-5.554A5.554,5.554,0,0,0,1347.122,5276.942Z"/><path class="x" d="M1353.14,5282.032a5.554,5.554,0,0,1-4.153-9.241,5.553,5.553,0,1,0,7.84,7.838A5.53,5.53,0,0,1,1353.14,5282.032Z"/><path class="r" d="M1349.4,5275.5l3.939,2.954-.413.31a.429.429,0,0,1-.483-.008l-1.766-1.324-1.264.949,2.709,2.032.321.241a.431.431,0,0,0,.483.007l.328-.247,2.7-2.024-3.939-2.954.414-.31a.428.428,0,0,1,.482.007l1.766,1.325,1.265-.949-3.031-2.272a.426.426,0,0,0-.482-.008Z"/><path class="p" d="M1351.162,5315.182v2.978a1.14,1.14,0,0,0,.416.813,2.787,2.787,0,0,0,.265.219,4.649,4.649,0,0,0,.682.4c.085.039.173.08.265.119a8.924,8.924,0,0,0,1.08.38l.264.078c.437.117.912.224,1.421.315l.265.047c.416.067.852.13,1.307.179l.263.026c.3.031.613.055.929.076.088.007.176.013.265.018.4.021.8.033,1.212.041l.265,0h.19c.384,0,.763-.008,1.136-.021.089,0,.177-.008.265-.01.38-.018.752-.044,1.116-.076l.267-.023c.251-.023.5-.052.737-.081.089-.013.178-.023.266-.036.306-.042.6-.089.89-.141.09-.015.177-.031.264-.049.25-.047.489-.1.721-.156.089-.021.177-.042.263-.065.288-.073.56-.151.815-.237.091-.028.179-.059.265-.091a6.774,6.774,0,0,0,.738-.307c.094-.044.182-.091.267-.137a3.431,3.431,0,0,0,.566-.383,1.939,1.939,0,0,0,.267-.27,1.016,1.016,0,0,0,.245-.629v-2.978Z"/><path class="q" d="M1351.162,5315.183c0,1.327,4.069,2.4,9.088,2.4s9.089-1.076,9.089-2.4-4.069-2.4-9.089-2.4S1351.162,5313.856,1351.162,5315.183Z"/><ellipse class="y" cx="7.46" cy="1.653" rx="7.46" ry="1.653" transform="translate(1352.79 5313.21)"/><path class="s" d="M1367.483,5315.269c-.818-.716-3.746-1.246-7.233-1.246s-6.414.53-7.232,1.246a.558.558,0,0,1-.228-.406c0-.913,3.34-1.653,7.46-1.653s7.461.74,7.461,1.653A.558.558,0,0,1,1367.483,5315.269Z"/><path class="t" d="M1360.287,5320.872h-.226v-1.316h.19c.384,0,.763-.008,1.136-.021h0v1.316c-.362.013-.728.02-1.1.021Zm9.052-4.028v1.316a1.016,1.016,0,0,1-.245.629h0v-1.316a1.016,1.016,0,0,0,.245-.629Zm-9.543,4.025v-1.315h0c-.412-.009-.816-.021-1.212-.042v1.316h0c.4.021.8.033,1.212.041Zm1.856-.028h0c.38-.018.752-.044,1.116-.076v-1.316h0q-.546.048-1.116.076v1.316Zm-3.333-.031v-1.316h0c-.316-.021-.626-.045-.929-.076v1.316h0c.3.031.613.055.929.076Zm4.716-.068h0c.251-.023.5-.052.737-.081v-1.316h0c-.24.029-.486.058-.737.081v1.316Zm-5.908-.034v-1.316h0c-.455-.049-.891-.112-1.307-.179v1.316h0c.416.067.852.13,1.307.179Zm6.911-.083h0c.306-.042.6-.089.89-.141v-1.316h0c-.286.053-.584.1-.89.141v1.316Zm-8.483-.143v-1.316h0c-.509-.091-.984-.2-1.421-.315v1.316h0c.437.117.912.224,1.421.315Zm9.637-.047h0c.25-.047.489-.1.721-.156v-1.316h0c-.232.057-.471.109-.721.156v1.316Zm.984-.221h0c.288-.073.56-.151.815-.237v-1.316h0c-.255.086-.527.164-.815.237v1.316Zm-12.306-.125v-1.316h0a9.188,9.188,0,0,1-1.08-.379v1.315h0a8.924,8.924,0,0,0,1.08.38Zm13.386-.2h0a6.774,6.774,0,0,0,.738-.307v-1.315h0a6.877,6.877,0,0,1-.738.306v1.316Zm-14.731-.3v-1.316h0a4.649,4.649,0,0,1-.682-.4v1.316h0a4.649,4.649,0,0,0,.682.4Zm15.736-.148h0a3.431,3.431,0,0,0,.566-.383v-1.316h0a3.493,3.493,0,0,1-.566.383v1.316Zm-16.683-.469v-1.315h0a1.144,1.144,0,0,1-.416-.814v1.316A1.14,1.14,0,0,0,1351.578,5318.973Z"/><path class="p" d="M1368.746,5310.911v2.977a1.14,1.14,0,0,1-.416.814,2.927,2.927,0,0,1-.265.219,4.647,4.647,0,0,1-.682.4c-.085.039-.173.08-.265.119a8.926,8.926,0,0,1-1.08.38l-.264.078c-.437.117-.912.224-1.42.315l-.266.047c-.416.067-.852.13-1.307.179l-.263.026c-.3.031-.612.055-.929.076l-.265.018c-.4.02-.8.034-1.212.042l-.265,0h-.189c-.385,0-.763-.008-1.136-.021-.09,0-.178-.008-.265-.01q-.571-.027-1.117-.076l-.267-.023c-.251-.024-.5-.052-.737-.081-.089-.013-.177-.023-.265-.036-.306-.041-.6-.089-.891-.141-.089-.015-.177-.031-.263-.049-.251-.047-.49-.1-.722-.156-.089-.021-.177-.042-.263-.065-.288-.073-.559-.151-.815-.237-.091-.028-.179-.059-.265-.091a6.774,6.774,0,0,1-.738-.307c-.094-.044-.182-.091-.266-.137a3.405,3.405,0,0,1-.567-.383,1.931,1.931,0,0,1-.266-.27,1.013,1.013,0,0,1-.246-.63v-2.977Z"/><path class="q" d="M1368.746,5310.912c0,1.327-4.069,2.4-9.088,2.4s-9.089-1.076-9.089-2.4,4.069-2.4,9.089-2.4S1368.746,5309.585,1368.746,5310.912Z"/><path class="r" d="M1367.118,5310.592c0,.913-3.34,1.653-7.46,1.653s-7.461-.74-7.461-1.653,3.341-1.653,7.461-1.653S1367.118,5309.679,1367.118,5310.592Z"/><path class="s" d="M1352.425,5311c.818-.716,3.746-1.246,7.233-1.246s6.415.53,7.232,1.246a.553.553,0,0,0,.228-.406c0-.913-3.34-1.653-7.46-1.653s-7.461.74-7.461,1.653A.556.556,0,0,0,1352.425,5311Z"/><path class="t" d="M1359.622,5316.6h.225v-1.316h-.189c-.385,0-.763-.008-1.136-.021h0v1.316c.361.013.727.021,1.1.021Zm-9.053-4.029v1.316a1.013,1.013,0,0,0,.246.63h0V5313.2a1.013,1.013,0,0,1-.246-.63Zm9.543,4.027v-1.316h0c.412-.009.817-.021,1.212-.042v1.316h0c-.4.02-.8.034-1.212.042Zm-1.855-.029h0q-.571-.027-1.117-.076v-1.316h0q.546.048,1.117.076v1.316Zm3.332-.031v-1.316h0c.317-.021.626-.045.929-.076v1.316h0c-.3.031-.612.055-.929.076Zm-4.716-.068h0c-.251-.024-.5-.052-.737-.081v-1.316h0c.241.029.486.058.737.081v1.316Zm5.908-.034v-1.316h0c.455-.049.891-.112,1.307-.179v1.316h0c-.416.067-.852.13-1.307.179Zm-6.91-.083h0c-.306-.041-.6-.089-.891-.141V5314.9h0c.286.053.585.1.891.141v1.316Zm8.483-.143V5314.9h0c.508-.091.983-.2,1.42-.315v1.316h0c-.437.117-.912.224-1.42.315Zm-9.637-.047h0c-.251-.047-.49-.1-.722-.156v-1.316h0c.232.057.471.109.722.156v1.316Zm-.985-.221h0c-.288-.073-.559-.151-.815-.237v-1.316h0c.256.086.527.164.815.237v1.316Zm12.306-.125V5314.5h0a8.762,8.762,0,0,0,1.08-.38v1.316h0a8.926,8.926,0,0,1-1.08.38Zm-13.386-.2h0a6.774,6.774,0,0,1-.738-.307v-1.315h0a6.877,6.877,0,0,0,.738.306v1.316Zm14.731-.3V5314h0a4.561,4.561,0,0,0,.682-.4v1.316h0a4.647,4.647,0,0,1-.682.4Zm-15.735-.148h0a3.405,3.405,0,0,1-.567-.383v-1.316h0a3.466,3.466,0,0,0,.567.383v1.316Zm16.682-.469v-1.315h0a1.144,1.144,0,0,0,.416-.815v1.316A1.14,1.14,0,0,1,1368.33,5314.7Z"/><path class="p" d="M1349.751,5306.664v2.977a1.143,1.143,0,0,0,.416.814,3.108,3.108,0,0,0,.266.219,4.6,4.6,0,0,0,.682.4c.085.039.173.08.265.119a9.034,9.034,0,0,0,1.08.38l.263.078c.438.117.912.224,1.421.315l.265.046c.417.068.853.13,1.307.18l.264.026c.3.031.612.055.929.075.087.008.176.013.265.018.4.021.8.034,1.212.042l.265,0h.189c.385,0,.763-.008,1.136-.021l.265-.011c.38-.018.753-.044,1.117-.075l.266-.023c.252-.024.5-.053.738-.081.089-.013.177-.023.265-.036.306-.042.605-.089.891-.141.089-.015.177-.031.263-.05.251-.046.49-.1.722-.155.089-.021.177-.042.263-.065.288-.073.559-.151.815-.237.091-.028.179-.059.265-.091a7.049,7.049,0,0,0,.738-.307c.094-.044.181-.091.266-.138a3.4,3.4,0,0,0,.567-.382,1.982,1.982,0,0,0,.266-.27,1.012,1.012,0,0,0,.246-.63v-2.977Z"/><path class="q" d="M1349.751,5306.665c0,1.327,4.069,2.4,9.089,2.4s9.089-1.076,9.089-2.4-4.069-2.4-9.089-2.4S1349.751,5305.338,1349.751,5306.665Z"/><path class="r" d="M1351.38,5306.345c0,.913,3.34,1.653,7.46,1.653s7.46-.74,7.46-1.653-3.34-1.653-7.46-1.653S1351.38,5305.432,1351.38,5306.345Z"/><path class="s" d="M1366.072,5306.751c-.817-.716-3.745-1.246-7.232-1.246s-6.415.53-7.232,1.246a.556.556,0,0,1-.228-.406c0-.913,3.34-1.653,7.46-1.653s7.46.74,7.46,1.653A.556.556,0,0,1,1366.072,5306.751Z"/><path class="t" d="M1358.876,5312.354h-.225v-1.316h.189c.385,0,.763-.008,1.136-.021h0v1.316c-.361.013-.727.02-1.1.021Zm9.053-4.029v1.316a1.012,1.012,0,0,1-.246.63h0v-1.316a1.012,1.012,0,0,0,.246-.63Zm-9.543,4.026v-1.316h0c-.413-.008-.817-.02-1.212-.041v1.315h0c.4.021.8.034,1.212.042Zm1.855-.029h0c.38-.018.753-.044,1.117-.075v-1.316h0c-.364.031-.737.057-1.117.076v1.315Zm-3.332-.031v-1.316h0c-.317-.02-.626-.044-.929-.075v1.316h0c.3.031.612.055.929.075Zm4.715-.067h0c.252-.024.5-.053.738-.081v-1.316h0c-.241.029-.486.057-.738.081v1.316Zm-5.908-.034v-1.316h0c-.454-.049-.89-.112-1.307-.179v1.315h0c.417.068.853.13,1.307.18Zm6.911-.083h0c.306-.042.605-.089.891-.141v-1.316h0c-.286.052-.585.1-.891.141v1.316Zm-8.483-.143v-1.316h0c-.509-.091-.983-.2-1.421-.315v1.316h0c.438.117.912.224,1.421.315Zm9.637-.048h0c.251-.046.49-.1.722-.155v-1.316h0c-.232.057-.471.109-.722.156v1.315Zm.985-.22h0c.288-.073.559-.151.815-.237v-1.316h0c-.256.086-.527.164-.815.237v1.316Zm-12.306-.125v-1.316h0a9.034,9.034,0,0,1-1.08-.38v1.316h0a9.034,9.034,0,0,0,1.08.38Zm13.386-.2h0a7.049,7.049,0,0,0,.738-.307v-1.316h0a6.75,6.75,0,0,1-.738.307v1.316Zm-14.731-.3v-1.316h0a4.691,4.691,0,0,1-.682-.4v1.316h0a4.6,4.6,0,0,0,.682.4Zm15.735-.149h0a3.4,3.4,0,0,0,.567-.382v-1.316h0a3.4,3.4,0,0,1-.567.382v1.316Zm-16.683-.468v-1.316h0a1.144,1.144,0,0,1-.416-.814v1.316A1.143,1.143,0,0,0,1350.167,5310.455Z"/><path class="m" d="M1349.137,5319.2l-.38-1.132,3.262-7.932Z"/><path class="u" d="M1347.5,5314.333l-.38-1.132,2.5-6Z"/><path class="v" d="M1361.967,5313.3c0,.143,0,.284-.012.424-.006.118-.015.232-.029.347a7.122,7.122,0,0,1-.115.751c-.023.117-.048.232-.077.347a7.391,7.391,0,0,1-.5,1.372c-.051.118-.111.235-.171.347a7.516,7.516,0,0,1-.485.776,4.047,4.047,0,0,1-.261.347,6.352,6.352,0,0,1-.682.751c-.126.123-.255.238-.386.347a7.3,7.3,0,0,1-.995.705,6.735,6.735,0,0,1-.653.347,7.52,7.52,0,0,1-3.207.713h-1.72v-15.148h1.72a7.515,7.515,0,0,1,3.45.834,5.958,5.958,0,0,1,.608.347,7.157,7.157,0,0,1,.988.751c.127.109.247.226.365.346a7.691,7.691,0,0,1,1.031,1.316c.069.112.138.226.2.344a7.452,7.452,0,0,1,.6,1.421c.034.115.068.229.1.347a7,7,0,0,1,.195,1.135c.014.114.023.229.028.346S1361.967,5313.169,1361.967,5313.3Z"/><path class="u" d="M1361.955,5313.722c-.006.118-.015.232-.029.347h-2.115v-.347Z"/><path class="u" d="M1361.811,5314.82c-.023.117-.048.232-.077.347h-2.6v-.347Z"/><path class="u" d="M1361.235,5316.539c-.051.118-.111.235-.171.347h-2.56v-.347Z"/><path class="u" d="M1360.579,5317.662a4.047,4.047,0,0,1-.261.347h-2.656v-.347Z"/><path class="u" d="M1359.636,5318.76c-.126.123-.255.238-.386.347h-2.488v-.347Z"/><path class="u" d="M1358.255,5319.812a6.735,6.735,0,0,1-.653.347h-2.135v-.347Z"/><path class="u" d="M1361.957,5312.911h-2.289v-.346h2.261C1361.943,5312.679,1361.952,5312.794,1361.957,5312.911Z"/><path class="u" d="M1361.734,5311.43h-2.327v-.347h2.23C1361.671,5311.2,1361.7,5311.312,1361.734,5311.43Z"/><path class="u" d="M1361.038,5309.662H1358.7v-.344h2.132C1360.906,5309.43,1360.975,5309.544,1361.038,5309.662Z"/><path class="u" d="M1359.806,5308h-2.6v-.346h2.232C1359.568,5307.765,1359.688,5307.882,1359.806,5308Z"/><path class="u" d="M1358.453,5306.9h-2.516v-.347h1.908A5.958,5.958,0,0,1,1358.453,5306.9Z"/><path class="r" d="M1345.1,5313.3a7.573,7.573,0,1,0,7.573-7.573A7.573,7.573,0,0,0,1345.1,5313.3Z"/><path class="w" d="M1347.122,5313.3a5.554,5.554,0,1,0,5.553-5.554A5.554,5.554,0,0,0,1347.122,5313.3Z"/><path class="x" d="M1353.14,5318.387a5.554,5.554,0,0,1-4.153-9.241,5.553,5.553,0,1,0,7.84,7.838A5.53,5.53,0,0,1,1353.14,5318.387Z"/><path class="r" d="M1349.4,5311.852l3.939,2.954-.413.31a.429.429,0,0,1-.483-.008l-1.766-1.324-1.264.949,2.709,2.032.321.24a.429.429,0,0,0,.483.008l.328-.247,2.7-2.024-3.939-2.954.414-.31a.426.426,0,0,1,.482.008l1.766,1.324,1.265-.949-3.031-2.273a.428.428,0,0,0-.482-.007Z"/><path class="p" d="M1354.191,5352.485v2.482a.951.951,0,0,0,.347.678,2.534,2.534,0,0,0,.221.182,3.988,3.988,0,0,0,.568.332c.071.032.145.067.221.1a7.66,7.66,0,0,0,.9.317l.22.065c.365.1.76.186,1.184.262l.221.039c.347.056.71.108,1.089.15.073.006.147.015.22.021.252.026.51.045.774.063.073.006.146.011.221.015.329.017.666.028,1.01.035l.22,0h.158c.321,0,.636-.007.947-.017l.221-.009c.317-.015.627-.037.93-.063l.222-.019c.21-.02.415-.044.615-.068.074-.01.148-.019.221-.03.255-.035.5-.074.742-.117.075-.013.148-.026.22-.041.208-.039.408-.083.6-.13.074-.017.148-.035.219-.054.24-.061.466-.126.68-.2.076-.023.149-.05.22-.075a5.757,5.757,0,0,0,.615-.256c.079-.037.152-.076.222-.115a2.82,2.82,0,0,0,.473-.319,1.557,1.557,0,0,0,.221-.225.839.839,0,0,0,.2-.524v-2.482Z"/><path class="q" d="M1354.191,5352.486c0,1.106,3.391,2,7.574,2s7.574-.9,7.574-2-3.391-2-7.574-2S1354.191,5351.38,1354.191,5352.486Z"/><ellipse class="y" cx="6.217" cy="1.377" rx="6.217" ry="1.377" transform="translate(1355.548 5350.842)"/><path class="s" d="M1367.792,5352.558c-.681-.6-3.121-1.039-6.027-1.039s-5.346.442-6.027,1.039a.466.466,0,0,1-.19-.339c0-.76,2.784-1.377,6.217-1.377s6.217.617,6.217,1.377A.463.463,0,0,1,1367.792,5352.558Z"/><path class="t" d="M1361.8,5357.227h-.188v-1.1h.158c.321,0,.636-.006.947-.017h0v1.1c-.3.01-.606.017-.917.017Zm7.544-3.357v1.1a.839.839,0,0,1-.2.524h0v-1.1a.841.841,0,0,0,.2-.525Zm-7.952,3.355v-1.1h0c-.344-.007-.681-.017-1.01-.035v1.1h0c.329.017.666.028,1.01.035Zm1.546-.024h0c.317-.015.627-.037.93-.063v-1.1h0q-.454.04-.93.063v1.1Zm-2.777-.026v-1.1h0c-.264-.017-.522-.037-.774-.063v1.1h0c.252.026.51.045.774.063Zm3.929-.056h0c.21-.02.415-.044.615-.068v-1.1h0c-.2.024-.4.047-.615.067v1.1Zm-4.923-.028v-1.1h0c-.379-.041-.742-.093-1.089-.15v1.1h0c.347.056.71.108,1.089.15Zm5.759-.07h0c.255-.035.5-.074.742-.117v-1.1h0c-.238.044-.487.083-.742.117v1.1Zm-7.069-.119v-1.1h0q-.636-.114-1.184-.262v1.1h0c.365.1.76.186,1.184.262Zm8.031-.039h0c.208-.039.408-.083.6-.13v-1.1h0q-.289.072-.6.13v1.1Zm.82-.184h0c.24-.061.466-.126.68-.2v-1.1h0c-.214.071-.44.137-.68.2v1.1Zm-10.255-.1v-1.1h0a7.758,7.758,0,0,1-.9-.316v1.1h0a7.66,7.66,0,0,0,.9.317Zm11.155-.169h0a5.757,5.757,0,0,0,.615-.256v-1.1h0a5.757,5.757,0,0,1-.615.256v1.1Zm-12.276-.247v-1.1h0a3.811,3.811,0,0,1-.568-.332v1.1h0a3.988,3.988,0,0,0,.568.332Zm13.113-.124h0a2.82,2.82,0,0,0,.473-.319v-1.1h0a2.909,2.909,0,0,1-.473.318v1.1Zm-13.9-.39v-1.1h0a.953.953,0,0,1-.347-.678v1.1A.951.951,0,0,0,1354.538,5355.645Z"/><path class="p" d="M1353.514,5349v2.482a.955.955,0,0,0,.347.678,2.552,2.552,0,0,0,.222.182,3.8,3.8,0,0,0,.567.332c.071.032.145.067.221.1a7.423,7.423,0,0,0,.9.317l.219.065q.547.147,1.184.262l.221.039c.347.057.71.108,1.089.15.074.006.147.015.22.021.253.026.51.046.774.063.073.007.146.011.221.015.329.018.666.029,1.01.035l.22,0h.158c.321,0,.636-.006.947-.017.075,0,.148-.007.221-.009.317-.015.628-.036.93-.063l.222-.019c.21-.02.415-.043.615-.067l.221-.031c.256-.034.5-.073.742-.117.075-.012.148-.026.22-.041.209-.039.408-.082.6-.13.074-.017.148-.034.22-.054.239-.061.466-.126.679-.2.076-.024.149-.05.22-.076a5.674,5.674,0,0,0,.615-.256c.079-.037.152-.076.223-.115a2.945,2.945,0,0,0,.472-.318,1.653,1.653,0,0,0,.222-.226.838.838,0,0,0,.2-.524V5349Z"/><path class="q" d="M1353.514,5349c0,1.1,3.391,2,7.574,2s7.575-.9,7.575-2-3.392-2-7.575-2S1353.514,5347.894,1353.514,5349Z"/><path class="r" d="M1354.871,5348.734c0,.761,2.784,1.377,6.217,1.377s6.217-.616,6.217-1.377-2.783-1.378-6.217-1.378S1354.871,5347.973,1354.871,5348.734Z"/><path class="s" d="M1367.116,5349.073c-.682-.6-3.122-1.039-6.028-1.039s-5.345.442-6.027,1.039a.47.47,0,0,1-.19-.339c0-.761,2.784-1.378,6.217-1.378s6.217.617,6.217,1.378A.469.469,0,0,1,1367.116,5349.073Z"/><path class="t" d="M1361.119,5353.741h-.189v-1.1h.158c.321,0,.636-.007.947-.018h0v1.1c-.3.011-.606.017-.916.017Zm7.544-3.357v1.1a.838.838,0,0,1-.2.524h0v-1.1a.844.844,0,0,0,.2-.525Zm-7.953,3.355v-1.1h0q-.516-.01-1.01-.035v1.1h0c.329.018.666.029,1.01.035Zm1.546-.024h0c.317-.015.628-.036.93-.063v-1.1h0c-.3.026-.613.047-.93.063v1.1Zm-2.777-.026v-1.1h0c-.264-.018-.521-.037-.774-.063v1.1h0c.253.026.51.046.774.063Zm3.929-.056h0c.21-.02.415-.043.615-.067v-1.1h0c-.2.024-.4.048-.615.067v1.1Zm-4.923-.028v-1.1h0c-.379-.041-.742-.093-1.089-.149v1.1h0c.347.057.71.108,1.089.15Zm5.759-.07h0c.256-.034.5-.073.742-.117v-1.1h0c-.238.043-.486.082-.742.117v1.1Zm-7.069-.119v-1.1h0c-.424-.076-.819-.165-1.184-.263v1.1h0q.547.147,1.184.262Zm8.031-.039h0c.209-.039.408-.082.6-.13v-1.1h0c-.193.047-.392.09-.6.129v1.1Zm.821-.184h0c.239-.061.466-.126.679-.2v-1.1h0c-.213.072-.44.137-.679.2v1.1Zm-10.255-.1v-1.1h0a7.509,7.509,0,0,1-.9-.316v1.1h0a7.423,7.423,0,0,0,.9.317Zm11.154-.169h0a5.674,5.674,0,0,0,.615-.256v-1.1h0a5.579,5.579,0,0,1-.615.255v1.1Zm-12.276-.247v-1.1h0a3.929,3.929,0,0,1-.567-.331v1.1h0a3.8,3.8,0,0,0,.567.332Zm13.114-.124h0a2.945,2.945,0,0,0,.472-.318v-1.1h0a2.853,2.853,0,0,1-.472.319v1.1Zm-13.9-.39v-1.1h0a.955.955,0,0,1-.347-.679v1.1A.955.955,0,0,0,1353.861,5352.159Z"/><path class="p" d="M1368.158,5345.354v2.481a.953.953,0,0,1-.347.679,2.564,2.564,0,0,1-.221.182,3.811,3.811,0,0,1-.568.331c-.071.033-.144.068-.221.1a7.575,7.575,0,0,1-.9.317l-.22.065c-.365.1-.76.186-1.184.262l-.221.039c-.347.056-.71.108-1.089.149-.073.007-.147.016-.22.022-.252.026-.51.046-.774.063-.073.006-.146.011-.22.015-.33.017-.667.028-1.011.035l-.22,0h-.158c-.321,0-.636-.006-.947-.017-.074,0-.148-.007-.221-.009-.316-.015-.627-.037-.93-.063l-.222-.02c-.21-.019-.414-.043-.615-.066l-.221-.031c-.255-.035-.5-.074-.742-.117-.075-.013-.148-.026-.22-.041-.208-.039-.408-.083-.6-.13-.074-.018-.147-.035-.219-.054-.24-.061-.466-.126-.679-.2-.076-.023-.149-.049-.221-.075a5.966,5.966,0,0,1-.615-.256c-.078-.037-.152-.076-.222-.115a2.838,2.838,0,0,1-.472-.319,1.5,1.5,0,0,1-.222-.225.844.844,0,0,1-.2-.525v-2.481Z"/><path class="q" d="M1368.158,5345.355c0,1.106-3.391,2-7.574,2s-7.574-.9-7.574-2,3.391-2,7.574-2S1368.158,5344.249,1368.158,5345.355Z"/><path class="r" d="M1366.8,5345.089c0,.76-2.783,1.377-6.217,1.377s-6.217-.617-6.217-1.377,2.783-1.378,6.217-1.378S1366.8,5344.328,1366.8,5345.089Z"/><path class="s" d="M1354.557,5345.427c.681-.6,3.121-1.038,6.027-1.038s5.346.441,6.027,1.038a.463.463,0,0,0,.19-.338c0-.761-2.783-1.378-6.217-1.378s-6.217.617-6.217,1.378A.463.463,0,0,0,1354.557,5345.427Z"/><path class="t" d="M1360.554,5350.1h.188V5349h-.158c-.321,0-.636-.006-.947-.017h0v1.1c.3.01.607.016.917.017Zm-7.544-3.357v1.1a.844.844,0,0,0,.2.525h0v-1.1a.843.843,0,0,1-.2-.524Zm7.952,3.355V5349h0q.516-.009,1.011-.034v1.1h0c-.33.017-.667.028-1.011.035Zm-1.546-.024h0c-.316-.015-.627-.037-.93-.063v-1.1h0c.3.026.614.048.93.063v1.1Zm2.777-.026v-1.1h0c.264-.017.522-.037.774-.062v1.1h0c-.252.026-.51.046-.774.063Zm-3.929-.057h0c-.21-.019-.414-.043-.615-.066v-1.1h0c.2.023.4.048.615.067v1.1Zm4.923-.028v-1.1h0c.379-.041.742-.093,1.089-.15v1.1h0c-.347.056-.71.108-1.089.149Zm-5.759-.069h0c-.255-.035-.5-.074-.742-.117v-1.1h0c.239.043.487.082.742.116v1.1Zm7.069-.119v-1.1h0c.424-.075.819-.164,1.184-.262v1.1h0c-.365.1-.76.186-1.184.262Zm-8.031-.039h0c-.208-.039-.408-.083-.6-.13v-1.1h0q.289.073.6.13v1.1Zm-.82-.184h0c-.24-.061-.466-.126-.679-.2v-1.1h0q.32.108.679.2v1.1Zm10.255-.1v-1.1h0a7.848,7.848,0,0,0,.9-.316v1.1h0a7.575,7.575,0,0,1-.9.317Zm-11.155-.169h0a5.966,5.966,0,0,1-.615-.256v-1.1h0a5.656,5.656,0,0,0,.615.256v1.1Zm12.276-.248v-1.1h0a3.854,3.854,0,0,0,.568-.332v1.1h0a3.811,3.811,0,0,1-.568.331Zm-13.113-.123h0a2.838,2.838,0,0,1-.472-.319v-1.1h0a2.809,2.809,0,0,0,.472.319v1.1Zm13.9-.39v-1.1h0a.949.949,0,0,0,.347-.678v1.1A.953.953,0,0,1,1367.811,5348.514Z"/><path class="p" d="M1352.156,5341.817v2.482a.949.949,0,0,0,.347.678,2.666,2.666,0,0,0,.221.182,4,4,0,0,0,.568.332c.071.032.144.067.221.1a7.5,7.5,0,0,0,.9.317l.22.065c.365.1.76.186,1.184.262l.221.039c.347.056.71.108,1.089.15l.22.022c.252.025.51.045.774.062.073.007.146.011.221.015q.493.026,1.01.035l.22,0h.158c.321,0,.636-.006.947-.017l.221-.009c.317-.015.627-.037.93-.063l.222-.019c.21-.02.415-.044.615-.067l.221-.031c.255-.034.5-.073.742-.117.075-.013.148-.026.22-.041.208-.039.408-.083.6-.13.074-.017.148-.035.219-.054q.36-.092.68-.2c.076-.024.148-.05.22-.076a5.562,5.562,0,0,0,.615-.256c.079-.037.152-.076.222-.115a2.825,2.825,0,0,0,.473-.319,1.562,1.562,0,0,0,.221-.225.837.837,0,0,0,.2-.524v-2.482Z"/><path class="q" d="M1352.156,5341.818c0,1.106,3.391,2,7.574,2s7.574-.9,7.574-2-3.391-2-7.574-2S1352.156,5340.712,1352.156,5341.818Z"/><path class="r" d="M1353.513,5341.552c0,.76,2.784,1.377,6.217,1.377s6.217-.617,6.217-1.377-2.783-1.378-6.217-1.378S1353.513,5340.791,1353.513,5341.552Z"/><path class="s" d="M1365.757,5341.89c-.681-.6-3.121-1.038-6.027-1.038s-5.346.441-6.027,1.038a.466.466,0,0,1-.19-.338c0-.761,2.784-1.378,6.217-1.378s6.217.617,6.217,1.378A.463.463,0,0,1,1365.757,5341.89Z"/><path class="t" d="M1359.76,5346.559h-.188v-1.1h.158c.321,0,.636-.007.947-.018h0v1.1c-.3.011-.606.017-.917.017Zm7.544-3.357v1.1a.837.837,0,0,1-.2.524h0v-1.1a.838.838,0,0,0,.2-.525Zm-7.952,3.355v-1.1h0q-.516-.01-1.01-.035v1.1h0q.493.026,1.01.035Zm1.546-.024h0c.317-.015.627-.037.93-.063v-1.1h0q-.454.039-.93.063v1.1Zm-2.777-.026v-1.1h0c-.264-.018-.522-.037-.774-.063v1.1h0c.252.025.51.045.774.062Zm3.929-.056h0c.21-.02.415-.044.615-.067v-1.1h0c-.2.024-.405.048-.615.067v1.1Zm-4.923-.028v-1.1h0c-.379-.041-.742-.093-1.089-.149v1.1h0c.347.056.71.108,1.089.15Zm5.759-.07h0c.255-.034.5-.073.742-.117v-1.1h0c-.238.043-.487.082-.742.116v1.1Zm-7.069-.119v-1.1h0c-.424-.075-.819-.164-1.184-.262v1.1h0c.365.1.76.186,1.184.262Zm8.031-.039h0c.208-.039.408-.083.6-.13v-1.1h0c-.193.048-.393.091-.6.13v1.1Zm.82-.184h0q.36-.092.68-.2v-1.1h0q-.32.107-.68.2v1.1Zm-10.255-.1v-1.1h0a7.6,7.6,0,0,1-.9-.316v1.1h0a7.5,7.5,0,0,0,.9.317Zm11.155-.169h0a5.562,5.562,0,0,0,.615-.256v-1.1h0a5.656,5.656,0,0,1-.615.256v1.1Zm-12.276-.247v-1.1h0a3.949,3.949,0,0,1-.568-.331v1.1h0a4,4,0,0,0,.568.332Zm13.113-.124h0a2.825,2.825,0,0,0,.473-.319v-1.1h0a2.854,2.854,0,0,1-.473.319v1.1Zm-13.9-.39v-1.1h0a.949.949,0,0,1-.347-.678v1.1A.949.949,0,0,0,1352.5,5344.977Z"/><path class="m" d="M1349.137,5355.555l-.38-1.132,3.262-7.933Z"/><path class="u" d="M1347.5,5350.688l-.38-1.132,2.5-6Z"/><path class="v" d="M1361.967,5349.653c0,.143,0,.284-.012.424-.006.118-.015.232-.029.347a7.065,7.065,0,0,1-.115.75c-.023.119-.048.233-.077.348a7.391,7.391,0,0,1-.5,1.372c-.051.118-.111.235-.171.347a7.745,7.745,0,0,1-.485.777,4.193,4.193,0,0,1-.261.346,6.4,6.4,0,0,1-.682.751q-.189.184-.386.347a7.389,7.389,0,0,1-.995.705,6.518,6.518,0,0,1-.653.346,7.506,7.506,0,0,1-3.207.714h-1.72v-15.148h1.72a7.515,7.515,0,0,1,3.45.834,5.958,5.958,0,0,1,.608.347,7.228,7.228,0,0,1,.988.75c.127.11.247.227.365.347a7.691,7.691,0,0,1,1.031,1.316c.069.112.138.226.2.344a7.426,7.426,0,0,1,.6,1.421c.034.115.068.229.1.347a7.009,7.009,0,0,1,.195,1.134c.014.115.023.23.028.347S1361.967,5349.524,1361.967,5349.653Z"/><path class="u" d="M1361.955,5350.077c-.006.118-.015.232-.029.347h-2.115v-.347Z"/><path class="u" d="M1361.811,5351.174c-.023.119-.048.233-.077.348h-2.6v-.348Z"/><path class="u" d="M1361.235,5352.894c-.051.118-.111.235-.171.347h-2.56v-.347Z"/><path class="u" d="M1360.579,5354.018a4.193,4.193,0,0,1-.261.346h-2.656v-.346Z"/><path class="u" d="M1359.636,5355.115q-.189.184-.386.347h-2.488v-.347Z"/><path class="u" d="M1358.255,5356.167a6.518,6.518,0,0,1-.653.346h-2.135v-.346Z"/><path class="u" d="M1361.957,5349.266h-2.289v-.347h2.261C1361.943,5349.034,1361.952,5349.149,1361.957,5349.266Z"/><path class="u" d="M1361.734,5347.785h-2.327v-.347h2.23C1361.671,5347.553,1361.7,5347.667,1361.734,5347.785Z"/><path class="u" d="M1361.038,5346.017H1358.7v-.344h2.132C1360.906,5345.785,1360.975,5345.9,1361.038,5346.017Z"/><path class="u" d="M1359.806,5344.357h-2.6v-.347h2.232C1359.568,5344.12,1359.688,5344.237,1359.806,5344.357Z"/><path class="u" d="M1358.453,5343.26h-2.516v-.347h1.908A5.958,5.958,0,0,1,1358.453,5343.26Z"/><path class="r" d="M1345.1,5349.652a7.573,7.573,0,1,0,7.573-7.573A7.574,7.574,0,0,0,1345.1,5349.652Z"/><path class="w" d="M1347.122,5349.652a5.554,5.554,0,1,0,5.553-5.554A5.554,5.554,0,0,0,1347.122,5349.652Z"/><path class="x" d="M1353.14,5354.742a5.554,5.554,0,0,1-4.153-9.241,5.553,5.553,0,1,0,7.84,7.838A5.53,5.53,0,0,1,1353.14,5354.742Z"/><path class="r" d="M1349.4,5348.207l3.939,2.954-.413.31a.431.431,0,0,1-.483-.007l-1.766-1.325-1.264.949,2.709,2.032.321.24a.429.429,0,0,0,.483.008l.328-.246,2.7-2.025-3.939-2.954.414-.31a.426.426,0,0,1,.482.008l1.766,1.324,1.265-.949-3.031-2.273a.426.426,0,0,0-.482-.007Z"/><rect class="f" width="72.71" height="24.237" rx="12.118" transform="translate(1435.989 5226.955)"/><text class="g" transform="translate(1456.842 5244.345)"><tspan x="0" y="0">$0.99 </tspan></text><rect class="f" width="72.71" height="24.237" rx="12.118" transform="translate(1435.989 5263.31)"/><text class="g" transform="translate(1456.842 5280.7)"><tspan x="0" y="0">$4.99 </tspan></text><rect class="o" width="72.71" height="24.237" rx="12.118" transform="translate(1435.989 5299.665)"/><text class="g" transform="translate(1456.842 5317.055)"><tspan x="0" y="0">$9.99 </tspan></text><rect class="f" width="72.71" height="24.236" rx="12.118" transform="translate(1435.989 5336.02)"/><text class="g" transform="translate(1453.4 5353.41)"><tspan x="0" y="0">$49.99 </tspan></text><text class="h" transform="translate(1380.467 5246.036)"><tspan x="0" y="0">10</tspan></text><text class="h" transform="translate(1381 5282.391)"><tspan x="0" y="0">50</tspan></text><text class="h" transform="translate(1380.467 5318.745)"><tspan x="0" y="0">100</tspan></text><text class="h" transform="translate(1381 5355.101)"><tspan x="0" y="0">500</tspan></text><rect class="f" width="54.532" height="18.177" rx="9.088" transform="translate(1381.457 5157.275)"/><text class="g" transform="translate(1404.123 5171.581)"><tspan x="0" y="0">10k</tspan></text><text class="z" transform="translate(1132.561 5215.667)"><tspan x="0" y="0">Bronze</tspan></text><text class="z" transform="translate(1344.995 5215.667)"><tspan x="0" y="0">Gold</tspan></text><rect class="aa" width="399.906" height="0.717" transform="translate(1120.912 5190.241)"/><path class="j" d="M1381.457,5166.363a9.089,9.089,0,1,0,9.088-9.088A9.088,9.088,0,0,0,1381.457,5166.363Z"/><path class="k" d="M1383.88,5166.363a6.666,6.666,0,1,0,6.665-6.665A6.665,6.665,0,0,0,1383.88,5166.363Z"/><path class="l" d="M1389.988,5172.471a6.663,6.663,0,0,0,4.983-11.09,6.664,6.664,0,1,1-9.409,9.407A6.637,6.637,0,0,0,1389.988,5172.471Z"/><path class="j" d="M1386.613,5164.629l4.727,3.545-.5.372a.512.512,0,0,1-.579-.009l-2.119-1.589-1.518,1.138,3.252,2.439.385.289a.517.517,0,0,0,.579.009l.4-.3,3.238-2.429-4.726-3.545.5-.372a.511.511,0,0,1,.578.009l2.119,1.589,1.518-1.138-3.637-2.728a.511.511,0,0,0-.578-.009Z"/><path class="r" d="M1454.167,5166.363a9.089,9.089,0,1,0,9.089-9.089A9.089,9.089,0,0,0,1454.167,5166.363Z"/><path class="w" d="M1456.591,5166.363a6.665,6.665,0,1,0,6.665-6.665A6.665,6.665,0,0,0,1456.591,5166.363Z"/><path class="x" d="M1462.7,5172.471a6.664,6.664,0,0,0,4.983-11.09,6.664,6.664,0,1,1-9.409,9.407A6.637,6.637,0,0,0,1462.7,5172.471Z"/><path class="r" d="M1459.324,5164.629l4.727,3.545-.5.372a.512.512,0,0,1-.579-.009l-2.12-1.589-1.517,1.138,3.251,2.439.386.289a.513.513,0,0,0,.579.009l.394-.3,3.24-2.43-4.728-3.545.5-.372a.512.512,0,0,1,.579.009l2.119,1.589,1.518-1.138-3.637-2.728a.513.513,0,0,0-.579-.009Z"/><rect class="aa" width="0.717" height="181.775" transform="translate(1320.506 5190.6)"/></g></svg>