<svg xmlns="http://www.w3.org/2000/svg" width="1920" height="767.999" viewBox="0 0 1920 767.999"><defs><style>.a{fill:#546dd2;fill-rule:evenodd;}</style></defs><path class="a" d="M0,6540c91.514-3.992,180.937-43.953,272.446-47.939s185.13,39.974,276.637,35.988,180.938-55.954,272.447-59.941,185.129,39.975,276.638,35.988,180.937-55.953,272.445-59.939,185.131,39.974,276.639,35.987c93.441-4.07,179.323-44,272.748-47.953V5772c-93.425,3.949-179.3,43.878-272.748,47.954-91.513,3.991-185.125-39.98-276.639-35.988s-180.932,55.948-272.445,59.94-185.125-39.979-276.638-35.988-180.933,55.949-272.447,59.94-185.124-39.979-276.637-35.988S91.514,5875.817,0,5879.809Z" transform="translate(0 -5772)"/></svg>