<svg xmlns="http://www.w3.org/2000/svg" width="360" height="479.996" viewBox="0 0 360 479.996"><defs><style>.a{fill:#546dd2;fill-rule:evenodd;}</style></defs><path class="a" d="M0,4662.2c17.159-.748,33.925-8.24,51.083-8.988s34.712,7.5,51.87,6.747,33.925-10.491,51.084-11.239,34.712,7.5,51.869,6.748,33.926-10.491,51.084-11.238,34.711,7.5,51.87,6.747c17.52-.763,33.623-8.251,51.14-8.991V4182.2c-17.517.74-33.62,8.227-51.14,8.991-17.159.749-34.711-7.5-51.87-6.748s-33.925,10.491-51.084,11.239-34.71-7.5-51.869-6.747-33.925,10.49-51.084,11.238-34.711-7.5-51.87-6.748-33.924,8.24-51.083,8.989Z" transform="translate(0 -4182.204)"/></svg>