<svg xmlns="http://www.w3.org/2000/svg" width="768" height="964.943" viewBox="0 0 768 964.943"><defs><style>.a{fill:#546dd2;fill-rule:evenodd;}</style></defs><path class="a" d="M0,8410.419c36.6-1.6,72.374-17.581,108.978-19.176s74.051,15.991,110.655,14.395,72.375-22.38,108.979-23.976,74.051,15.991,110.655,14.395,72.374-22.38,108.978-23.976,74.052,15.991,110.656,14.395c37.377-1.629,71.729-17.6,109.1-19.181V7445.476c-37.37,1.579-71.721,17.551-109.1,19.181-36.6,1.6-74.05-15.992-110.656-14.4s-72.373,22.379-108.978,23.976-74.05-15.992-110.655-14.4-72.373,22.379-108.979,23.976-74.049-15.992-110.655-14.4S36.6,7487,0,7488.6Z" transform="translate(0 -7445.476)"/></svg>