<svg width="458" height="392" viewBox="0 0 458 392" fill="none" xmlns="http://www.w3.org/2000/svg">
<path d="M134.544 387.905C141.885 381.705 146.344 371.905 145.175 362.362C144.006 352.819 136.762 344.052 127.367 342.026C117.972 340 107.262 345.608 104.408 354.786C102.838 337.091 101.028 318.656 91.6201 303.586C83.1021 289.942 68.3481 280.179 52.3581 278.432C36.3681 276.685 19.5331 283.282 9.55808 295.903C-0.416924 308.524 -2.85592 326.871 4.12808 341.361C9.27308 352.035 18.7521 359.979 28.6841 366.441C60.7771 387.148 99.2684 395.569 137.076 390.154" fill="#F2F2F2"/>
<path d="M25.3741 283.647C59.2753 311.307 85.6942 347.031 102.211 387.547C102.944 389.347 100.028 390.125 99.3032 388.347C82.9138 348.342 56.7643 313.079 23.2421 285.779C21.7361 284.553 23.8811 282.431 25.3751 283.646L25.3741 283.647Z" fill="white"/>
<path d="M139.616 387.905C132.275 381.705 127.816 371.905 128.985 362.362C130.154 352.819 137.398 344.052 146.793 342.026C156.188 340 166.898 345.608 169.752 354.786C171.322 337.091 173.132 318.656 182.54 303.586C191.058 289.942 205.812 280.179 221.802 278.432C237.792 276.685 254.627 283.282 264.602 295.903C274.577 308.524 277.016 326.871 270.032 341.361C264.887 352.035 255.408 359.979 245.476 366.441C213.383 387.148 174.892 395.569 137.084 390.154" fill="#F2F2F2"/>
<path d="M248.786 283.647C214.885 311.307 188.466 347.031 171.949 387.547C171.216 389.347 174.132 390.125 174.857 388.347C191.238 348.337 217.39 313.072 250.919 285.779C252.425 284.553 250.28 282.43 248.786 283.646V283.647Z" fill="white"/>
<path d="M161.4 176.617C174.981 176.617 185.991 165.607 185.991 152.026C185.991 138.444 174.981 127.435 161.4 127.435C147.819 127.435 136.809 138.444 136.809 152.026C136.809 165.607 147.819 176.617 161.4 176.617Z" fill="#F2F2F2"/>
<path d="M85.579 67.2568H255.005V76.5258H107.205C89.6548 76.5258 72.8235 83.4976 60.4136 95.9075C48.0038 108.317 41.032 125.149 41.032 142.699V248.011H22.496C21.6765 248.011 20.8905 247.685 20.311 247.106C19.7315 246.526 19.406 245.74 19.406 244.921V133.429C19.4063 115.879 26.3781 99.0477 38.788 86.6381C51.1978 74.2285 68.029 67.2568 85.579 67.2568Z" fill="#F2F2F2"/>
<path d="M118.167 388.418V247.614H159.417V388.414C159.416 389.36 159.039 390.268 158.37 390.937C157.701 391.606 156.793 391.983 155.847 391.984H121.74C120.794 391.984 119.886 391.608 119.216 390.939C118.546 390.271 118.169 389.364 118.167 388.418V388.418Z" fill="#3F3D56"/>
<path d="M10.6802 244.838V130.344C10.7006 112.117 17.9501 94.6422 30.8384 81.7537C43.7267 68.8652 61.2012 61.6154 79.4282 61.5947H254.212V248.804H14.6462C13.5947 248.802 12.5867 248.384 11.8432 247.641C11.0997 246.897 10.6815 245.889 10.6802 244.838V244.838ZM252.625 63.1807H79.4252C61.6192 63.2016 44.5486 70.2846 31.9583 82.8756C19.3679 95.4667 12.286 112.538 12.2662 130.344V244.844C12.2667 245.475 12.5176 246.08 12.9638 246.526C13.4101 246.972 14.0151 247.223 14.6462 247.224H252.625V63.1807Z" fill="#3F3D56"/>
<path d="M161.4 164.718C157.615 164.712 153.986 163.206 151.309 160.53C148.632 157.854 147.126 154.225 147.12 150.44V48.1087C147.12 47.4776 146.869 46.8726 146.422 46.4264C145.976 45.9801 145.371 45.7292 144.74 45.7287H89.2131C88.1616 45.7274 87.1536 45.3091 86.4101 44.5656C85.6666 43.8221 85.2484 42.8141 85.2471 41.7627V4.4787C85.2484 3.42726 85.6666 2.41925 86.4101 1.67577C87.1536 0.932283 88.1616 0.514018 89.2131 0.512695H171.713C172.765 0.514018 173.773 0.932283 174.516 1.67577C175.259 2.41925 175.678 3.42726 175.679 4.4787V150.439C175.674 154.224 174.167 157.853 171.491 160.529C168.814 163.206 165.185 164.712 161.4 164.718V164.718Z" fill="#344BA3"/>
<path d="M260.558 60.0079C272.525 59.983 284.012 64.7128 292.491 73.157C300.971 81.6012 305.749 93.068 305.774 105.035V235.375H394.615C396.382 235.371 398.133 235.716 399.767 236.389C401.401 237.061 402.887 238.05 404.139 239.297C405.391 240.544 406.385 242.025 407.065 243.656C407.745 245.288 408.096 247.037 408.1 248.804H215.342V105.034C215.367 93.0672 220.146 81.6006 228.625 73.1566C237.105 64.7127 248.591 59.983 260.558 60.0079Z" fill="#3F3D56"/>
<path d="M249.708 134.232L259.071 172.908L442.22 128.571L432.857 89.8945C432.744 89.4216 432.513 88.9848 432.186 88.6249C431.859 88.2649 431.447 87.9934 430.987 87.8355C430.648 87.7163 430.289 87.6623 429.929 87.6765L324.06 32.8605C323.44 32.5437 322.726 32.4591 322.049 32.6219C321.372 32.7848 320.775 33.1843 320.366 33.7485L269.343 104.9L250.108 131.731C250.073 131.778 250.049 131.832 250.037 131.889C250.025 131.946 250.025 132.005 250.038 132.063C249.647 132.714 249.529 133.493 249.708 134.232V134.232Z" fill="white"/>
<path d="M250.038 132.061C250.047 132.111 250.066 132.159 250.093 132.202C250.121 132.245 250.157 132.282 250.199 132.312C250.249 132.346 250.305 132.369 250.364 132.381C250.423 132.393 250.484 132.392 250.543 132.38C250.639 132.354 250.723 132.296 250.78 132.216L250.846 132.124L251.846 130.724L270.035 105.368L321.042 34.2335C321.333 33.8304 321.759 33.5449 322.242 33.429C322.726 33.313 323.235 33.3742 323.677 33.6015L428.725 87.9925L429.668 88.4815C429.706 88.4975 429.745 88.5112 429.785 88.5225C429.856 88.5095 429.928 88.5024 430 88.5015C430.099 88.4686 430.181 88.3992 430.23 88.3075C430.256 88.2592 430.271 88.2064 430.276 88.152C430.281 88.0976 430.276 88.0427 430.259 87.9905C430.243 87.9383 430.217 87.8898 430.182 87.8478C430.147 87.8058 430.104 87.771 430.056 87.7455L429.926 87.6765L324.06 32.8605C323.44 32.5437 322.726 32.4591 322.049 32.6219C321.372 32.7848 320.775 33.1843 320.366 33.7485L269.343 104.9L250.108 131.731C250.073 131.778 250.049 131.832 250.036 131.889C250.024 131.946 250.024 132.005 250.037 132.063L250.038 132.061Z" fill="#3F3D56"/>
<path d="M305.044 136.004L309.121 136.456L339.378 139.808L359.436 142.029L360.621 142.161L385.65 122.611L386.609 121.862L392.521 117.245L413.556 100.82L413.682 99.6663L421.163 32.1483C421.266 31.2179 420.996 30.2846 420.411 29.5534C419.827 28.8222 418.976 28.3528 418.046 28.2483L318.209 17.1893C317.279 17.0867 316.346 17.3573 315.615 17.9416C314.884 18.5259 314.414 19.3763 314.309 20.3063L309.033 67.9313L306.107 94.3313L303.489 117.954L302.275 128.924L301.921 132.102C301.818 133.034 302.089 133.968 302.675 134.7C303.261 135.431 304.113 135.9 305.044 136.004Z" fill="#E6E6E6"/>
<path d="M332.479 76.8237L375.725 81.6137L391.062 83.3137C391.744 83.3986 392.436 83.3472 393.098 83.1624C393.76 82.9777 394.379 82.6632 394.918 82.2374C395.457 81.8115 395.907 81.2828 396.24 80.6818C396.573 80.0808 396.784 79.4196 396.86 78.7365C396.935 78.0535 396.874 77.3622 396.681 76.7028C396.487 76.0435 396.164 75.4292 395.731 74.8957C395.298 74.3621 394.763 73.9199 394.158 73.5948C393.552 73.2697 392.888 73.0681 392.204 73.0017L373.128 70.8887L333.628 66.5087C332.951 66.4335 332.265 66.4925 331.61 66.6823C330.956 66.8721 330.345 67.189 329.813 67.6148C329.281 68.0407 328.838 68.5671 328.509 69.1642C328.18 69.7613 327.972 70.4173 327.897 71.0947C327.822 71.7721 327.881 72.4577 328.071 73.1124C328.261 73.767 328.577 74.3778 329.003 74.91C329.429 75.4422 329.956 75.8853 330.553 76.214C331.15 76.5427 331.806 76.7505 332.483 76.8257L332.479 76.8237Z" fill="white"/>
<path d="M330.017 95.9538C330.129 95.9738 330.24 95.9938 330.354 96.0048L380.554 101.566L388.936 102.496C390.293 102.626 391.647 102.217 392.705 101.357C393.763 100.497 394.44 99.2552 394.59 97.9C394.74 96.5449 394.351 95.1852 393.506 94.1148C392.662 93.0444 391.43 92.3493 390.077 92.1798L377.957 90.8388L338.19 86.4328L331.498 85.6908C330.16 85.5413 328.816 85.9181 327.75 86.7417C326.685 87.5653 325.981 88.7709 325.788 90.1038C325.596 91.4367 325.929 92.7922 326.718 93.8837C327.507 94.9753 328.689 95.7173 330.015 95.9528L330.017 95.9538Z" fill="white"/>
<path d="M324.336 112.919C324.747 113.602 325.311 114.181 325.982 114.611C326.654 115.041 327.416 115.31 328.208 115.398L348.784 117.677L385.43 121.737H385.438L386.61 121.868L392.522 117.251C392.558 116.9 392.558 116.547 392.522 116.196C392.397 115.018 391.874 113.918 391.039 113.078C390.205 112.238 389.108 111.708 387.931 111.576L382.84 111.01L362.646 108.775L348.116 107.163L329.347 105.083C328.385 104.976 327.413 105.141 326.539 105.558C325.666 105.975 324.927 106.628 324.405 107.444C323.884 108.259 323.601 109.204 323.588 110.172C323.576 111.139 323.834 112.091 324.334 112.92L324.336 112.919Z" fill="white"/>
<path d="M353.237 53.4395L363.997 54.6315L368.75 55.1595L375.929 55.9545C377.286 56.0847 378.64 55.6756 379.698 54.8157C380.756 53.9557 381.433 52.714 381.583 51.3588C381.733 50.0036 381.344 48.6439 380.499 47.5735C379.655 46.5031 378.423 45.808 377.07 45.6385L354.381 43.1255C353.704 43.0502 353.019 43.1091 352.364 43.2987C351.71 43.4884 351.099 43.805 350.567 44.2306C350.035 44.6562 349.592 45.1825 349.263 45.7793C348.935 46.3761 348.727 47.0318 348.652 47.709C348.576 48.3861 348.635 49.0715 348.825 49.7259C349.014 50.3803 349.331 50.991 349.757 51.523C350.182 52.055 350.709 52.498 351.305 52.8267C351.902 53.1553 352.558 53.3633 353.235 53.4385L353.237 53.4395Z" fill="white"/>
<path d="M265.252 82.1646L278.37 136.356L300.265 140.519L320.519 144.375L342.249 148.51L349.192 149.831C349.598 149.907 350.017 149.897 350.419 149.8C350.821 149.702 351.198 149.521 351.524 149.267L357.094 144.916L360.621 142.162L385.65 122.612L369.734 56.8716C369.577 56.2174 369.234 55.6226 368.747 55.1586C368.32 54.7481 367.796 54.4518 367.224 54.297C366.652 54.1422 366.051 54.1338 365.475 54.2726L267.848 77.9056C266.939 78.126 266.154 78.6983 265.666 79.4969C265.179 80.2955 265.028 81.255 265.248 82.1646H265.252Z" fill="#344BA3"/>
<path d="M295.332 125.276C295.657 126.612 296.499 127.766 297.673 128.482C298.848 129.199 300.259 129.42 301.596 129.098L358.88 115.232C360.216 114.905 361.368 114.063 362.084 112.889C362.8 111.715 363.022 110.306 362.702 108.969C362.688 108.901 362.669 108.834 362.646 108.769C362.28 107.479 361.43 106.382 360.272 105.706C359.115 105.03 357.741 104.828 356.438 105.143L299.154 119.012C297.817 119.336 296.664 120.179 295.947 121.353C295.231 122.527 295.009 123.938 295.332 125.276V125.276Z" fill="white"/>
<path d="M300.265 140.519L320.519 144.375L363.419 133.989C364.74 133.651 365.875 132.806 366.578 131.637C367.281 130.469 367.495 129.07 367.175 127.745C366.855 126.419 366.026 125.273 364.867 124.554C363.708 123.835 362.313 123.602 360.983 123.904L303.698 137.772C302.501 138.059 301.446 138.766 300.725 139.764C300.551 140.002 300.397 140.255 300.265 140.519V140.519Z" fill="white"/>
<path d="M342.249 148.509L349.192 149.83C349.599 149.906 350.017 149.896 350.419 149.798C350.821 149.701 351.198 149.519 351.524 149.265L357.094 144.914L342.249 148.509Z" fill="white"/>
<path d="M306.875 96.2177C307.2 97.5543 308.042 98.7075 309.216 99.4241C310.39 100.141 311.801 100.362 313.138 100.04L335.326 94.6687C336.662 94.3422 337.814 93.4999 338.53 92.3262C339.246 91.1525 339.469 89.7429 339.148 88.4057C338.975 87.6872 338.649 87.0145 338.192 86.4337C337.578 85.6483 336.751 85.0563 335.81 84.7282C334.869 84.4002 333.853 84.35 332.884 84.5837L310.698 89.9547C309.361 90.2786 308.207 91.1203 307.49 92.2948C306.774 93.4693 306.553 94.8803 306.876 96.2177H306.875Z" fill="white"/>
<path d="M320.517 144.374L342.251 148.51L349.192 149.832C349.598 149.908 350.016 149.897 350.418 149.799C350.82 149.702 351.196 149.521 351.523 149.268L357.097 144.916L355.141 145.39L351.012 148.611C350.779 148.791 350.509 148.92 350.222 148.989C349.935 149.058 349.637 149.065 349.347 149.011L344.207 148.033L322.473 143.897L320.517 144.374ZM385.436 121.735L385.647 122.609L386.611 121.86L385.436 121.735ZM320.517 144.374L342.251 148.51L349.192 149.832C349.598 149.908 350.016 149.897 350.418 149.799C350.82 149.702 351.196 149.521 351.523 149.268L357.097 144.916L355.141 145.39L351.012 148.611C350.779 148.791 350.509 148.92 350.222 148.989C349.935 149.058 349.637 149.065 349.347 149.011L344.207 148.033L322.473 143.897L320.517 144.374ZM320.517 144.374L342.251 148.51L349.192 149.832C349.598 149.908 350.016 149.897 350.418 149.799C350.82 149.702 351.196 149.521 351.523 149.268L357.097 144.916L355.141 145.39L351.012 148.611C350.779 148.791 350.509 148.92 350.222 148.989C349.935 149.058 349.637 149.065 349.347 149.011L344.207 148.033L322.473 143.897L320.517 144.374ZM249.708 134.231L274.233 235.539C274.415 236.287 274.887 236.933 275.544 237.334C276.202 237.735 276.992 237.859 277.741 237.679L455.241 194.71C455.99 194.528 456.636 194.056 457.037 193.398C457.438 192.741 457.562 191.951 457.381 191.202L432.857 89.8936C432.744 89.4206 432.513 88.9839 432.186 88.6239C431.86 88.264 431.447 87.9924 430.987 87.8346C430.648 87.7153 430.289 87.6614 429.929 87.6756C429.51 87.6879 429.1 87.796 428.729 87.9916C428.558 88.0731 428.396 88.1737 428.247 88.2916L413.68 99.6656L392.524 116.192L385.436 121.728V121.734H385.43L359.438 142.024L355.138 145.387L351.009 148.608C350.776 148.788 350.506 148.917 350.219 148.986C349.932 149.055 349.634 149.062 349.344 149.008L344.204 148.03L322.47 143.894L300.717 139.757L253.08 130.697C252.674 130.616 252.255 130.625 251.852 130.724C251.31 130.856 250.818 131.141 250.433 131.546C250.286 131.704 250.155 131.877 250.042 132.062C249.651 132.713 249.532 133.493 249.711 134.232L249.708 134.231ZM320.517 144.374L342.251 148.51L349.192 149.832C349.598 149.908 350.016 149.897 350.418 149.799C350.82 149.702 351.196 149.521 351.523 149.268L357.097 144.916L355.141 145.39L351.012 148.611C350.779 148.791 350.509 148.92 350.222 148.989C349.935 149.058 349.637 149.065 349.347 149.011L344.207 148.033L322.473 143.897L320.517 144.374ZM320.517 144.374L342.251 148.51L349.192 149.832C349.598 149.908 350.016 149.897 350.418 149.799C350.82 149.702 351.196 149.521 351.523 149.268L357.097 144.916L355.141 145.39L351.012 148.611C350.779 148.791 350.509 148.92 350.222 148.989C349.935 149.058 349.637 149.065 349.347 149.011L344.207 148.033L322.473 143.897L320.517 144.374ZM320.517 144.374L342.251 148.51L349.192 149.832C349.598 149.908 350.016 149.897 350.418 149.799C350.82 149.702 351.196 149.521 351.523 149.268L357.097 144.916L355.141 145.39L351.012 148.611C350.779 148.791 350.509 148.92 350.222 148.989C349.935 149.058 349.637 149.065 349.347 149.011L344.207 148.033L322.473 143.897L320.517 144.374Z" fill="white"/>
<path d="M320.517 144.374L342.251 148.51L349.192 149.832C349.598 149.908 350.016 149.897 350.418 149.799C350.82 149.702 351.196 149.521 351.523 149.268L357.097 144.916L355.141 145.39L351.012 148.611C350.779 148.791 350.509 148.92 350.222 148.989C349.935 149.058 349.637 149.065 349.347 149.011L344.207 148.033L322.473 143.897L320.517 144.374ZM385.436 121.735L385.647 122.609L386.611 121.86L385.436 121.735ZM320.517 144.374L342.251 148.51L349.192 149.832C349.598 149.908 350.016 149.897 350.418 149.799C350.82 149.702 351.196 149.521 351.523 149.268L357.097 144.916L355.141 145.39L351.012 148.611C350.779 148.791 350.509 148.92 350.222 148.989C349.935 149.058 349.637 149.065 349.347 149.011L344.207 148.033L322.473 143.897L320.517 144.374ZM320.517 144.374L342.251 148.51L349.192 149.832C349.598 149.908 350.016 149.897 350.418 149.799C350.82 149.702 351.196 149.521 351.523 149.268L357.097 144.916L355.141 145.39L351.012 148.611C350.779 148.791 350.509 148.92 350.222 148.989C349.935 149.058 349.637 149.065 349.347 149.011L344.207 148.033L322.473 143.897L320.517 144.374ZM250.847 132.124L250.955 132.205C250.973 132.175 251.004 132.149 251.028 132.118C251.269 131.868 251.567 131.681 251.897 131.575C252.228 131.469 252.579 131.446 252.92 131.509L300.266 140.516L320.517 144.375L342.251 148.511L349.192 149.833C349.598 149.909 350.016 149.898 350.418 149.8C350.82 149.703 351.196 149.522 351.523 149.269L357.097 144.917L355.141 145.391L351.012 148.612C350.779 148.792 350.509 148.921 350.222 148.99C349.935 149.059 349.637 149.066 349.347 149.012L344.207 148.034L322.473 143.898L300.72 139.761L253.08 130.697C252.674 130.616 252.255 130.625 251.852 130.724L250.847 132.124ZM249.708 134.231L274.232 235.539C274.414 236.287 274.886 236.933 275.544 237.334C276.201 237.735 276.991 237.859 277.74 237.679L455.24 194.71C455.989 194.528 456.635 194.056 457.036 193.398C457.437 192.741 457.561 191.951 457.38 191.202L432.858 89.8936C432.745 89.4207 432.514 88.984 432.187 88.624C431.86 88.2641 431.448 87.9925 430.988 87.8346C430.649 87.7153 430.29 87.6613 429.93 87.6756C429.511 87.6879 429.101 87.796 428.73 87.9916C428.559 88.0731 428.397 88.1737 428.248 88.2916L413.68 99.6666L392.524 116.193L385.436 121.729V121.735H385.43L359.438 142.025L355.138 145.388L351.009 148.609C350.776 148.789 350.506 148.918 350.219 148.987C349.932 149.056 349.634 149.063 349.344 149.009L344.204 148.031L322.47 143.895L300.717 139.758L253.08 130.697C252.674 130.616 252.255 130.625 251.852 130.724C251.31 130.856 250.818 131.141 250.433 131.546C250.286 131.704 250.155 131.877 250.042 132.062C249.651 132.713 249.532 133.493 249.711 134.232L249.708 134.231ZM250.517 134.031C250.445 133.732 250.44 133.421 250.503 133.12C250.566 132.819 250.696 132.537 250.883 132.293C250.9 132.257 250.925 132.225 250.955 132.2C250.973 132.17 251.004 132.144 251.028 132.113C251.269 131.863 251.567 131.676 251.897 131.57C252.228 131.464 252.579 131.441 252.92 131.504L300.266 140.511L320.517 144.37L342.251 148.506L349.192 149.828C349.598 149.904 350.016 149.893 350.418 149.795C350.82 149.698 351.196 149.517 351.523 149.264L357.097 144.912L360.622 142.158L385.647 122.606L386.611 121.857L392.518 117.242L413.554 100.814L428.762 88.9376C428.993 88.7574 429.26 88.6286 429.545 88.5596C429.625 88.54 429.705 88.5266 429.787 88.5196C429.858 88.5065 429.93 88.4995 430.002 88.4986C430.245 88.4965 430.487 88.536 430.716 88.6156C431.044 88.7297 431.338 88.9239 431.572 89.1807C431.805 89.4374 431.971 89.7485 432.054 90.0856L456.58 191.396C456.645 191.661 456.656 191.937 456.614 192.207C456.572 192.477 456.477 192.736 456.335 192.969C456.192 193.202 456.006 193.405 455.785 193.566C455.564 193.727 455.314 193.843 455.048 193.907L277.548 236.876C277.013 237.003 276.45 236.913 275.981 236.625C275.512 236.338 275.177 235.876 275.048 235.342L250.517 134.031ZM320.517 144.37L342.251 148.506L349.192 149.828C349.598 149.904 350.016 149.893 350.418 149.795C350.82 149.698 351.196 149.517 351.523 149.264L357.097 144.912L355.141 145.386L351.012 148.607C350.779 148.787 350.509 148.916 350.222 148.985C349.935 149.054 349.637 149.061 349.347 149.007L344.207 148.029L322.473 143.893L320.517 144.37ZM320.517 144.37L342.251 148.506L349.192 149.828C349.598 149.904 350.016 149.893 350.418 149.795C350.82 149.698 351.196 149.517 351.523 149.264L357.097 144.912L355.141 145.386L351.012 148.607C350.779 148.787 350.509 148.916 350.222 148.985C349.935 149.054 349.637 149.061 349.347 149.007L344.207 148.029L322.473 143.893L320.517 144.37ZM320.517 144.37L342.251 148.506L349.192 149.828C349.598 149.904 350.016 149.893 350.418 149.795C350.82 149.698 351.196 149.517 351.523 149.264L357.097 144.912L355.141 145.386L351.012 148.607C350.779 148.787 350.509 148.916 350.222 148.985C349.935 149.054 349.637 149.061 349.347 149.007L344.207 148.029L322.473 143.893L320.517 144.37Z" fill="#3F3D56"/>
<path d="M408.979 174.807C408.579 173.147 408.854 171.396 409.744 169.938C410.633 168.481 412.064 167.435 413.723 167.032L436.123 161.609C437.772 161.236 439.502 161.527 440.939 162.418C442.375 163.31 443.404 164.731 443.802 166.374C444.2 168.017 443.937 169.751 443.068 171.202C442.198 172.652 440.794 173.703 439.157 174.127L416.757 179.55C415.097 179.95 413.345 179.676 411.887 178.787C410.429 177.897 409.383 176.466 408.979 174.807V174.807Z" fill="#344BA3"/>
<path d="M161.401 155.993C164.468 155.993 166.954 153.507 166.954 150.44C166.954 147.373 164.468 144.887 161.401 144.887C158.334 144.887 155.848 147.373 155.848 150.44C155.848 153.507 158.334 155.993 161.401 155.993Z" fill="white"/>
</svg>
