<svg xmlns="http://www.w3.org/2000/svg" width="361.003" height="720.001" viewBox="0 0 361.003 720.001"><defs><style>.a,.l{fill:#fff;}.a,.b,.d,.e,.i,.m{fill-rule:evenodd;}.b{fill:#444b60;}.c{fill:#454b5f;font-size:10.023px;font-family:Montserrat-SemiBold, Montserrat;font-weight:600;}.d{fill:#e5e5e5;}.e{fill:#d6e1eb;}.f,.g,.h,.i,.j{fill:#132740;}.f{font-size:25.643px;}.f,.g,.l{font-family:NunitoSans-Bold, Nunito Sans;font-weight:700;}.g{font-size:19.232px;}.h,.l{font-size:17.095px;}.h{font-family:NunitoSans-Regular, Nunito Sans;}.i,.j{opacity:0.5;}.k{fill:#546dd2;}.m{fill:#eaeaea;}</style></defs><g transform="translate(-1140.363 -3216.096)"><path class="a" d="M1497.354,3267.438v112.113h1a3.007,3.007,0,0,1,3.008,3.008v77.215a3.008,3.008,0,0,1-3.008,3.008h-1v421.973a51.491,51.491,0,0,1-51.341,51.341H1196.718a53.5,53.5,0,0,1-53.347-53.347v-402.92a3.007,3.007,0,0,1-3.008-3.008V3431.7a3.008,3.008,0,0,1,3.008-3.009v-15.041a3.008,3.008,0,0,1-3.008-3.009v-45.125a3.009,3.009,0,0,1,3.008-3.009v-25.069a3.008,3.008,0,0,1-3.008-3.009v-21.058a3.008,3.008,0,0,1,3.008-3.009v-41.08a53.337,53.337,0,0,1,53.181-53.181h249.461A51.341,51.341,0,0,1,1497.354,3267.438Z"/><path class="b" d="M1463.107,3248.891a1.3,1.3,0,0,1-1.254,1.461v-2.923a1.3,1.3,0,0,1,1.254,1.462Zm-1.671-2.715h0v5.437a1.248,1.248,0,0,1-1.253,1.246h-16.289a1.248,1.248,0,0,1-1.253-1.246v-5.437a1.253,1.253,0,0,1,1.253-1.253h16.289a1.254,1.254,0,0,1,1.253,1.253Zm-17.542-.835h0a.835.835,0,0,0-.835.835v5.43a.836.836,0,0,0,.835.835h16.289a.836.836,0,0,0,.835-.835v-5.43a.835.835,0,0,0-.835-.835Zm-.418.835h0v5.43a.418.418,0,0,0,.418.417h16.289a.418.418,0,0,0,.418-.417v-5.43a.419.419,0,0,0-.418-.418h-16.289A.419.419,0,0,0,1443.476,3246.176Z"/><text class="c" transform="translate(1204.089 3252.13)"><tspan x="-13.28" y="0">22:47</tspan></text><path class="b" d="M1433.162,3244.923a7.807,7.807,0,0,1,5.015,1.95l-.667.741a6.748,6.748,0,0,0-8.691-.005l-.666-.741a7.8,7.8,0,0,1,5.009-1.945Zm0,2.595a5.228,5.228,0,0,0-3.32,1.23l.713.793a4.148,4.148,0,0,1,5.216,0l.714-.792a5.224,5.224,0,0,0-3.323-1.234Zm0,2.559h0a2.649,2.649,0,0,1,1.607.58l-1.607,1.784-1.606-1.786A2.645,2.645,0,0,1,1433.162,3250.077Z"/><path class="d" d="M1497.354,3379.551V3267.438a51.341,51.341,0,0,0-51.341-51.341H1196.552a53.337,53.337,0,0,0-53.181,53.181v41.08a3.009,3.009,0,0,0-3.008,3.009v21.058a3.009,3.009,0,0,0,3.008,3.009V3362.5a3.009,3.009,0,0,0-3.008,3.009v45.125a3.008,3.008,0,0,0,3.008,3.009v15.041a3.008,3.008,0,0,0-3.008,3.009v45.125a3.008,3.008,0,0,0,3.008,3.008v402.92a53.5,53.5,0,0,0,53.347,53.347h249.295a51.491,51.491,0,0,0,51.341-51.341V3462.782h1a3.009,3.009,0,0,0,3.009-3.009v-77.214a3.008,3.008,0,0,0-3.009-3.008ZM1363.26,3239.022h0a4.387,4.387,0,1,1-4.387-4.388,4.387,4.387,0,0,1,4.387,4.388Zm-59.666-.864H1342.7a2.549,2.549,0,1,1,0,5.014h-39.109a2.549,2.549,0,1,1,0-5.014ZM1478.3,3880.437h0c0,17.51-12.93,32.595-30.44,32.595H1198.168c-17.511,0-32.736-15.085-32.736-32.595V3265.462c0-17.51,15.225-30.313,32.736-30.313h28.866c6.1,0,8.359-.7,8.728,7.039a14.926,14.926,0,0,0,4.028,9.727,21.693,21.693,0,0,0,9.342,5.789,27.778,27.778,0,0,0,8.043,1.512h131.947a27.987,27.987,0,0,0,8.043-1.676,21.83,21.83,0,0,0,9.342-5.61,14.37,14.37,0,0,0,4.029-9.547c.368-7.735,2.624-7.234,8.727-7.234h28.6c17.51,0,30.44,12.8,30.44,30.313Z"/><path class="e" d="M1191.333,3412.023h260.684a7.026,7.026,0,0,1,4.978,2.072l0,0a7.031,7.031,0,0,1,2.071,4.978v89.75a7.071,7.071,0,0,1-7.052,7.052H1191.333a7.071,7.071,0,0,1-7.051-7.052v-89.75a7.076,7.076,0,0,1,7.051-7.052Zm260.684,1.283H1191.333a5.787,5.787,0,0,0-5.769,5.769v89.75a5.787,5.787,0,0,0,5.769,5.77h260.684a5.784,5.784,0,0,0,5.77-5.77v-89.75a5.782,5.782,0,0,0-5.77-5.769Z"/><text class="f" transform="translate(1185.713 3310.22)"><tspan x="0" y="0">Give Your Answer</tspan></text><text class="g" transform="translate(1183.952 3350.294)"><tspan x="0" y="0">Main Answer</tspan></text><text class="h" transform="translate(1184.855 3374.481)"><tspan x="0" y="0">Write the correct answer to the</tspan><tspan x="0" y="17.095">question in this box. No explanation</tspan></text><path class="i" d="M1198.627,3425.623h7.671v1.162h-6.278v4.188h5.934v1.162h-5.934v4.376h6.278v1.162h-7.671Z"/><path class="i" d="M1215.9,3437.675h-1.685l-2.614-3.248-2.6,3.248h-1.7l3.474-4.291-3.268-4.034h1.686l2.408,3.026,2.408-3.026h1.7l-3.285,4.034Z"/><path class="i" d="M1220.677,3429.145a3.171,3.171,0,0,1,2.383.812,3.438,3.438,0,0,1,.782,2.47v5.248h-1.358v-1.419a2.455,2.455,0,0,1-1,1.137,2.953,2.953,0,0,1-1.548.4,3.4,3.4,0,0,1-1.488-.325,2.664,2.664,0,0,1-1.075-.906,2.228,2.228,0,0,1-.4-1.282,2.075,2.075,0,0,1,.481-1.462,2.932,2.932,0,0,1,1.583-.752,15.7,15.7,0,0,1,3.061-.231h.379v-.564a2.2,2.2,0,0,0-.431-1.513,1.807,1.807,0,0,0-1.392-.47,5.4,5.4,0,0,0-2.873.889l-.464-1.009a5.533,5.533,0,0,1,1.573-.743,6.068,6.068,0,0,1,1.78-.282Zm-.55,7.556a2.24,2.24,0,0,0,1.694-.693,2.476,2.476,0,0,0,.663-1.786v-.5h-.31a15.575,15.575,0,0,0-2.3.128,2.244,2.244,0,0,0-1.126.428,1.117,1.117,0,0,0-.336.88,1.411,1.411,0,0,0,.49,1.1A1.782,1.782,0,0,0,1220.127,3436.7Z"/><path class="i" d="M1235.71,3429.145q2.787,0,2.787,3.3v5.231H1237.1v-5.163a2.781,2.781,0,0,0-.4-1.675,1.532,1.532,0,0,0-1.3-.53,2.061,2.061,0,0,0-1.651.7,2.841,2.841,0,0,0-.6,1.915v4.752h-1.394v-5.163a2.715,2.715,0,0,0-.413-1.683,1.562,1.562,0,0,0-1.307-.522,2.064,2.064,0,0,0-1.651.7,2.846,2.846,0,0,0-.6,1.915v4.752h-1.393v-8.325h1.376v1.316a2.708,2.708,0,0,1,1.049-1.128,3,3,0,0,1,1.548-.393,2.469,2.469,0,0,1,2.563,1.641,2.7,2.7,0,0,1,1.1-1.2A3.252,3.252,0,0,1,1235.71,3429.145Z"/><path class="i" d="M1245.256,3429.145a3.489,3.489,0,0,1,1.944.547,3.609,3.609,0,0,1,1.307,1.53,5.28,5.28,0,0,1,.465,2.282,5.168,5.168,0,0,1-.465,2.265,3.437,3.437,0,0,1-3.251,2.026,3.317,3.317,0,0,1-1.711-.428,2.752,2.752,0,0,1-1.109-1.213v4.6h-1.394v-11.4h1.394v1.436a2.754,2.754,0,0,1,1.109-1.214,3.328,3.328,0,0,1,1.711-.427Zm-.275,7.5a2.305,2.305,0,0,0,1.892-.821,3.579,3.579,0,0,0,.671-2.325,3.685,3.685,0,0,0-.671-2.35,2.553,2.553,0,0,0-3.775-.026,4.488,4.488,0,0,0,0,4.692A2.271,2.271,0,0,0,1244.981,3436.65Z"/><rect class="j" width="1.393" height="12.052" transform="translate(1251.053 3425.623)"/><path class="i" d="M1262.061,3433.726h-6.123a3.266,3.266,0,0,0,.791,2.2,2.723,2.723,0,0,0,2.047.744,4.162,4.162,0,0,0,2.683-.992l.464,1.009a3.959,3.959,0,0,1-1.41.812,5.315,5.315,0,0,1-1.755.3,4.134,4.134,0,0,1-3.087-1.145,4.317,4.317,0,0,1-1.127-3.163,4.946,4.946,0,0,1,.5-2.265,3.709,3.709,0,0,1,1.4-1.53,3.886,3.886,0,0,1,2.056-.547,3.288,3.288,0,0,1,2.614,1.085,4.387,4.387,0,0,1,.946,2.983v.513Zm-3.543-3.5a2.343,2.343,0,0,0-1.763.683,3.111,3.111,0,0,0-.783,1.932h4.868a2.946,2.946,0,0,0-.637-1.94A2.14,2.14,0,0,0,1258.518,3430.222Z"/><path class="i" d="M1265.656,3429.35v1.761H1263.9v-1.761Zm-1.755,6.582h1.755v1.23a3.556,3.556,0,0,1-.232,1.308,3.429,3.429,0,0,1-.8,1.154l-.654-.5a2.67,2.67,0,0,0,.757-1.453h-.826Z"/><path class="i" d="M1275.614,3426.82H1271.4v-1.2h9.872v1.2h-4.231v10.855h-1.427Z"/><path class="i" d="M1286.984,3429.145q3.01,0,3.01,3.3v5.231H1288.6v-5.145a2.572,2.572,0,0,0-.455-1.693,1.82,1.82,0,0,0-1.454-.53,2.461,2.461,0,0,0-1.84.7,2.592,2.592,0,0,0-.688,1.9v4.769h-1.393v-12.052h1.393v5.06a2.8,2.8,0,0,1,1.144-1.145A3.482,3.482,0,0,1,1286.984,3429.145Z"/><path class="i" d="M1299.557,3433.726h-6.123a3.267,3.267,0,0,0,.791,2.2,2.723,2.723,0,0,0,2.047.744,4.163,4.163,0,0,0,2.683-.992l.464,1.009a3.96,3.96,0,0,1-1.41.812,5.32,5.32,0,0,1-1.755.3,4.134,4.134,0,0,1-3.087-1.145,4.316,4.316,0,0,1-1.126-3.163,4.945,4.945,0,0,1,.5-2.265,3.708,3.708,0,0,1,1.4-1.53,3.885,3.885,0,0,1,2.056-.547,3.288,3.288,0,0,1,2.614,1.085,4.387,4.387,0,0,1,.946,2.983v.513Zm-3.543-3.5a2.343,2.343,0,0,0-1.763.683,3.111,3.111,0,0,0-.783,1.932h4.868a2.946,2.946,0,0,0-.637-1.94A2.14,2.14,0,0,0,1296.014,3430.222Z"/><path class="i" d="M1309.447,3429.145a3.17,3.17,0,0,1,2.382.812,3.438,3.438,0,0,1,.783,2.47v5.248h-1.359v-1.419a2.455,2.455,0,0,1-1,1.137,2.953,2.953,0,0,1-1.548.4,3.4,3.4,0,0,1-1.488-.325,2.66,2.66,0,0,1-1.074-.906,2.229,2.229,0,0,1-.4-1.282,2.075,2.075,0,0,1,.481-1.462,2.933,2.933,0,0,1,1.583-.752,15.7,15.7,0,0,1,3.061-.231h.379v-.564a2.2,2.2,0,0,0-.43-1.513,1.81,1.81,0,0,0-1.393-.47,5.4,5.4,0,0,0-2.873.889l-.464-1.009a5.525,5.525,0,0,1,1.574-.743,6.058,6.058,0,0,1,1.78-.282Zm-.55,7.556a2.241,2.241,0,0,0,1.694-.693,2.479,2.479,0,0,0,.662-1.786v-.5h-.31a15.577,15.577,0,0,0-2.305.128,2.244,2.244,0,0,0-1.126.428,1.116,1.116,0,0,0-.336.88,1.412,1.412,0,0,0,.491,1.1A1.778,1.778,0,0,0,1308.9,3436.7Z"/><path class="i" d="M1319.371,3429.145q3.011,0,3.01,3.3v5.231h-1.393v-5.145a2.571,2.571,0,0,0-.456-1.693,1.817,1.817,0,0,0-1.453-.53,2.461,2.461,0,0,0-1.84.7,2.592,2.592,0,0,0-.688,1.9v4.769h-1.394v-8.325h1.376v1.368a2.806,2.806,0,0,1,1.153-1.171A3.471,3.471,0,0,1,1319.371,3429.145Z"/><path class="i" d="M1327.765,3437.795a4.933,4.933,0,0,1-3.354-1.077l.464-1.026a4.474,4.474,0,0,0,1.368.761,4.984,4.984,0,0,0,1.574.231,2.632,2.632,0,0,0,1.418-.316,1.024,1.024,0,0,0,.491-.915,1,1,0,0,0-.327-.787,2.48,2.48,0,0,0-1.084-.461l-1.41-.325a3.2,3.2,0,0,1-1.634-.821,1.972,1.972,0,0,1-.568-1.436,2.167,2.167,0,0,1,.877-1.794,3.7,3.7,0,0,1,2.34-.684,4.935,4.935,0,0,1,1.668.282,3.519,3.519,0,0,1,1.324.812l-.464,1.009a3.828,3.828,0,0,0-2.528-.975,2.415,2.415,0,0,0-1.368.333,1.16,1.16,0,0,0-.189,1.727,2.009,2.009,0,0,0,.972.453l1.427.342a3.625,3.625,0,0,1,1.737.829,1.93,1.93,0,0,1,.568,1.445,2.054,2.054,0,0,1-.885,1.743A4.013,4.013,0,0,1,1327.765,3437.795Z"/><path class="i" d="M1345.791,3429.35l-3.113,8.325h-1.342l-2.356-6.445-2.374,6.445h-1.325l-3.113-8.325h1.445l2.374,6.684,2.425-6.684h1.2l2.391,6.684,2.391-6.684Z"/><path class="i" d="M1354.425,3433.726H1348.3a3.271,3.271,0,0,0,.791,2.2,2.723,2.723,0,0,0,2.047.744,4.163,4.163,0,0,0,2.683-.992l.464,1.009a3.96,3.96,0,0,1-1.41.812,5.319,5.319,0,0,1-1.755.3,4.137,4.137,0,0,1-3.087-1.145,4.317,4.317,0,0,1-1.127-3.163,4.944,4.944,0,0,1,.5-2.265,3.709,3.709,0,0,1,1.4-1.53,3.886,3.886,0,0,1,2.056-.547,3.288,3.288,0,0,1,2.614,1.085,4.387,4.387,0,0,1,.946,2.983v.513Zm-3.543-3.5a2.343,2.343,0,0,0-1.763.683,3.116,3.116,0,0,0-.783,1.932h4.868a2.946,2.946,0,0,0-.637-1.94A2.14,2.14,0,0,0,1350.882,3430.222Z"/><path class="i" d="M1361.219,3430.341l-.912.086a2.651,2.651,0,0,0-1.866.8,2.54,2.54,0,0,0-.576,1.693v4.752h-1.393v-8.325h1.359v1.453a3.08,3.08,0,0,1,2.769-1.624l.5-.034Z"/><path class="i" d="M1366.981,3429.35h1.393v8.325h-1.393v-8.325Zm1.548-3.607v1.556h-1.685v-1.556Z"/><path class="i" d="M1373.809,3437.795a4.936,4.936,0,0,1-3.354-1.077l.465-1.026a4.48,4.48,0,0,0,1.367.761,4.984,4.984,0,0,0,1.574.231,2.637,2.637,0,0,0,1.419-.316,1.023,1.023,0,0,0,.49-.915,1,1,0,0,0-.327-.787,2.48,2.48,0,0,0-1.083-.461l-1.411-.325a3.2,3.2,0,0,1-1.634-.821,1.975,1.975,0,0,1-.567-1.436,2.164,2.164,0,0,1,.877-1.794,3.7,3.7,0,0,1,2.339-.684,4.927,4.927,0,0,1,1.668.282,3.532,3.532,0,0,1,1.325.812l-.464,1.009a3.833,3.833,0,0,0-2.529-.975,2.411,2.411,0,0,0-1.367.333,1.158,1.158,0,0,0-.189,1.727,2,2,0,0,0,.971.453l1.428.342a3.628,3.628,0,0,1,1.737.829,1.933,1.933,0,0,1,.568,1.445,2.054,2.054,0,0,1-.886,1.743A4.011,4.011,0,0,1,1373.809,3437.795Z"/><path class="i" d="M1391.353,3436.5v1.179h-6.742V3436.5h2.666v-9.129l-2.133,1.333-.653-1.077,3.182-2h1.015V3436.5Z"/><path class="i" d="M1402.4,3435.06h-1.823v2.615h-1.393v-2.615h-5.607V3434l5.848-8.377h1.152v8.274h1.823v1.163Zm-3.216-1.163v-5.932l-4.145,5.932Z"/><path class="i" d="M1407.143,3437.795a4.933,4.933,0,0,1-3.354-1.077l.464-1.026a4.473,4.473,0,0,0,1.368.761,4.978,4.978,0,0,0,1.573.231,2.637,2.637,0,0,0,1.419-.316,1.024,1.024,0,0,0,.491-.915,1,1,0,0,0-.327-.787,2.48,2.48,0,0,0-1.084-.461l-1.411-.325a3.2,3.2,0,0,1-1.633-.821,1.972,1.972,0,0,1-.568-1.436,2.164,2.164,0,0,1,.877-1.794,3.7,3.7,0,0,1,2.339-.684,4.937,4.937,0,0,1,1.669.282,3.527,3.527,0,0,1,1.324.812l-.464,1.009a3.829,3.829,0,0,0-2.529-.975,2.411,2.411,0,0,0-1.367.333,1.16,1.16,0,0,0-.189,1.727,2,2,0,0,0,.971.453l1.428.342a3.624,3.624,0,0,1,1.737.829,1.933,1.933,0,0,1,.568,1.445,2.054,2.054,0,0,1-.886,1.743A4.007,4.007,0,0,1,1407.143,3437.795Z"/><path class="e" d="M1191.075,3610.757h260.942a7.026,7.026,0,0,1,4.978,2.071l0,0a7.031,7.031,0,0,1,2.071,4.978v179.5a7.031,7.031,0,0,1-2.071,4.978l0,0a7.026,7.026,0,0,1-4.978,2.071H1191.075a7.071,7.071,0,0,1-7.052-7.051v-179.5a7.074,7.074,0,0,1,7.052-7.051Zm260.942,1.282H1191.075a5.787,5.787,0,0,0-5.769,5.769v179.5a5.787,5.787,0,0,0,5.769,5.769h260.942a5.783,5.783,0,0,0,5.77-5.769v-179.5a5.783,5.783,0,0,0-5.77-5.769Z"/><text class="g" transform="translate(1184.591 3549.238)"><tspan x="0" y="0">Explanation</tspan></text><text class="h" transform="translate(1184.614 3573.3)"><tspan x="0" y="0">Write the step-by-step explanation</tspan><tspan x="0" y="17.095">for the answer you gave above</tspan></text><path class="i" d="M1197.744,3624.356h7.671v1.162h-6.278v4.188h5.934v1.163h-5.934v4.376h6.278v1.163h-7.671Z"/><path class="i" d="M1215.013,3636.408h-1.686l-2.614-3.248-2.6,3.248h-1.7l3.474-4.291-3.268-4.035h1.686l2.408,3.026,2.408-3.026h1.7l-3.285,4.035Z"/><path class="i" d="M1219.8,3627.878a3.17,3.17,0,0,1,2.382.811,3.44,3.44,0,0,1,.782,2.471v5.248H1221.6v-1.419a2.454,2.454,0,0,1-1,1.137,2.951,2.951,0,0,1-1.548.4,3.412,3.412,0,0,1-1.488-.325,2.662,2.662,0,0,1-1.075-.906,2.237,2.237,0,0,1-.395-1.282,2.075,2.075,0,0,1,.481-1.462,2.936,2.936,0,0,1,1.583-.752,15.706,15.706,0,0,1,3.061-.231h.379v-.564a2.206,2.206,0,0,0-.43-1.513,1.81,1.81,0,0,0-1.393-.47,5.387,5.387,0,0,0-2.873.889l-.464-1.009a5.517,5.517,0,0,1,1.574-.743,6.031,6.031,0,0,1,1.78-.282Zm-.551,7.556a2.244,2.244,0,0,0,1.695-.693,2.478,2.478,0,0,0,.662-1.786v-.5h-.31a15.577,15.577,0,0,0-2.305.128,2.247,2.247,0,0,0-1.126.428,1.116,1.116,0,0,0-.336.88,1.412,1.412,0,0,0,.491,1.1A1.784,1.784,0,0,0,1219.244,3635.434Z"/><path class="i" d="M1234.827,3627.878q2.787,0,2.787,3.3v5.231h-1.393v-5.163a2.778,2.778,0,0,0-.4-1.675,1.532,1.532,0,0,0-1.3-.53,2.061,2.061,0,0,0-1.651.7,2.838,2.838,0,0,0-.6,1.915v4.752h-1.393v-5.163a2.727,2.727,0,0,0-.413-1.684,1.568,1.568,0,0,0-1.307-.521,2.061,2.061,0,0,0-1.651.7,2.838,2.838,0,0,0-.6,1.915v4.752h-1.393v-8.325h1.376v1.316a2.709,2.709,0,0,1,1.049-1.128,3.011,3.011,0,0,1,1.549-.393,2.468,2.468,0,0,1,2.562,1.641,2.7,2.7,0,0,1,1.1-1.205A3.252,3.252,0,0,1,1234.827,3627.878Z"/><path class="i" d="M1244.374,3627.878a3.488,3.488,0,0,1,1.943.547,3.612,3.612,0,0,1,1.308,1.53,5.3,5.3,0,0,1,.464,2.282,5.184,5.184,0,0,1-.464,2.265,3.439,3.439,0,0,1-3.251,2.026,3.324,3.324,0,0,1-1.711-.428,2.752,2.752,0,0,1-1.11-1.213v4.6h-1.393v-11.4h1.393v1.436a2.754,2.754,0,0,1,1.11-1.214,3.324,3.324,0,0,1,1.711-.427Zm-.275,7.5a2.3,2.3,0,0,0,1.891-.82,3.579,3.579,0,0,0,.671-2.325,3.689,3.689,0,0,0-.671-2.351,2.555,2.555,0,0,0-3.775-.026,3.649,3.649,0,0,0-.662,2.342,3.687,3.687,0,0,0,.662,2.351A2.271,2.271,0,0,0,1244.1,3635.382Z"/><rect class="j" width="1.393" height="12.052" transform="translate(1250.17 3624.356)"/><path class="i" d="M1261.178,3632.459h-6.123a3.271,3.271,0,0,0,.791,2.2,2.727,2.727,0,0,0,2.047.743,4.159,4.159,0,0,0,2.683-.991l.465,1.008a3.946,3.946,0,0,1-1.411.813,5.314,5.314,0,0,1-1.754.3,4.132,4.132,0,0,1-3.088-1.146,4.313,4.313,0,0,1-1.126-3.162,4.93,4.93,0,0,1,.5-2.265,3.693,3.693,0,0,1,1.4-1.53,3.888,3.888,0,0,1,2.056-.547,3.285,3.285,0,0,1,2.614,1.085,4.387,4.387,0,0,1,.946,2.983v.513Zm-3.543-3.5a2.339,2.339,0,0,0-1.763.683,3.118,3.118,0,0,0-.782,1.932h4.867a2.947,2.947,0,0,0-.637-1.94A2.14,2.14,0,0,0,1257.635,3628.955Z"/><path class="i" d="M1264.773,3628.083v1.76h-1.755v-1.76Zm-1.755,6.581h1.755v1.231a3.535,3.535,0,0,1-.232,1.308,3.429,3.429,0,0,1-.8,1.154l-.654-.5a2.664,2.664,0,0,0,.757-1.453h-.826Z"/><path class="i" d="M1276.245,3624.356h7.5v1.179h-6.106v4.154h5.762v1.18h-5.762v5.539h-1.393Z"/><path class="i" d="M1285.619,3628.083h1.394v8.325h-1.394v-8.325Zm1.548-3.607v1.555h-1.685v-1.555Z"/><path class="i" d="M1294.357,3629.074l-.912.086a2.648,2.648,0,0,0-1.866.8,2.538,2.538,0,0,0-.576,1.693v4.752h-1.393v-8.325h1.358v1.453a3.081,3.081,0,0,1,2.77-1.624l.5-.034Z"/><path class="i" d="M1298.433,3636.528a4.936,4.936,0,0,1-3.354-1.077l.465-1.026a4.508,4.508,0,0,0,1.367.761,4.985,4.985,0,0,0,1.574.23,2.628,2.628,0,0,0,1.419-.316,1.024,1.024,0,0,0,.49-.915,1,1,0,0,0-.327-.786,2.472,2.472,0,0,0-1.083-.461l-1.411-.325a3.209,3.209,0,0,1-1.634-.821,1.976,1.976,0,0,1-.567-1.436,2.168,2.168,0,0,1,.877-1.795,3.7,3.7,0,0,1,2.339-.683,4.9,4.9,0,0,1,1.668.282,3.53,3.53,0,0,1,1.325.811l-.464,1.009a3.837,3.837,0,0,0-2.529-.974,2.408,2.408,0,0,0-1.367.333,1.158,1.158,0,0,0-.189,1.727,2,2,0,0,0,.971.453l1.428.342a3.62,3.62,0,0,1,1.737.829,1.933,1.933,0,0,1,.568,1.444,2.055,2.055,0,0,1-.886,1.744A4.009,4.009,0,0,1,1298.433,3636.528Z"/><path class="i" d="M1307.446,3635.416a5.673,5.673,0,0,0,.757-.051l-.069,1.094a5.022,5.022,0,0,1-.86.069,3.044,3.044,0,0,1-2.279-.787,3,3,0,0,1-.766-2.188v-4.376H1302.6v-1.094h1.633v-2.53h1.394v2.53H1308v1.094h-2.373v4.273Q1305.623,3635.417,1307.446,3635.416Z"/><path class="i" d="M1318.11,3636.545a6.563,6.563,0,0,1-4.541-1.522l.55-1.077a5.813,5.813,0,0,0,1.832,1.077,6.628,6.628,0,0,0,2.176.325,3.841,3.841,0,0,0,2.253-.564,1.84,1.84,0,0,0,.791-1.59,1.312,1.312,0,0,0-.378-.974,2.674,2.674,0,0,0-1-.6,15,15,0,0,0-1.668-.461,16.438,16.438,0,0,1-2.314-.684,3.585,3.585,0,0,1-1.461-1.026,2.618,2.618,0,0,1-.56-1.743,3.152,3.152,0,0,1,.543-1.821,3.5,3.5,0,0,1,1.547-1.231,5.832,5.832,0,0,1,2.331-.436,6.885,6.885,0,0,1,2.348.393,5.1,5.1,0,0,1,1.849,1.129l-.533,1.077a5.943,5.943,0,0,0-1.746-1.069,5.411,5.411,0,0,0-1.918-.333,3.65,3.65,0,0,0-2.21.59,1.929,1.929,0,0,0-.8,1.649,1.529,1.529,0,0,0,.7,1.368,6.736,6.736,0,0,0,2.133.786q1.566.376,2.459.693a3.674,3.674,0,0,1,1.488.948,2.374,2.374,0,0,1,.594,1.693,3.039,3.039,0,0,1-.542,1.795,3.451,3.451,0,0,1-1.557,1.188A6.19,6.19,0,0,1,1318.11,3636.545Z"/><path class="i" d="M1328.292,3635.416a5.673,5.673,0,0,0,.757-.051l-.069,1.094a5.021,5.021,0,0,1-.86.069,3.044,3.044,0,0,1-2.279-.787,3,3,0,0,1-.765-2.188v-4.376h-1.634v-1.094h1.634v-2.53h1.393v2.53h2.374v1.094h-2.374v4.273Q1326.469,3635.417,1328.292,3635.416Z"/><path class="i" d="M1337.477,3632.459h-6.124a3.266,3.266,0,0,0,.792,2.2,2.725,2.725,0,0,0,2.047.743,4.161,4.161,0,0,0,2.683-.991l.464,1.008a3.94,3.94,0,0,1-1.41.813,5.319,5.319,0,0,1-1.755.3,4.131,4.131,0,0,1-3.087-1.146,4.314,4.314,0,0,1-1.127-3.162,4.943,4.943,0,0,1,.5-2.265,3.7,3.7,0,0,1,1.4-1.53,3.885,3.885,0,0,1,2.055-.547,3.285,3.285,0,0,1,2.615,1.085,4.387,4.387,0,0,1,.946,2.983v.513Zm-3.544-3.5a2.338,2.338,0,0,0-1.762.683,3.112,3.112,0,0,0-.783,1.932h4.867a2.947,2.947,0,0,0-.636-1.94A2.141,2.141,0,0,0,1333.933,3628.955Z"/><path class="i" d="M1343.737,3627.878a3.489,3.489,0,0,1,1.944.547,3.6,3.6,0,0,1,1.307,1.53,5.282,5.282,0,0,1,.465,2.282,5.17,5.17,0,0,1-.465,2.265,3.437,3.437,0,0,1-3.251,2.026,3.329,3.329,0,0,1-1.711-.428,2.754,2.754,0,0,1-1.109-1.213v4.6h-1.394v-11.4h1.394v1.436a2.756,2.756,0,0,1,1.109-1.214,3.328,3.328,0,0,1,1.711-.427Zm-.275,7.5a2.3,2.3,0,0,0,1.892-.82,3.579,3.579,0,0,0,.671-2.325,3.689,3.689,0,0,0-.671-2.351,2.555,2.555,0,0,0-3.775-.026,3.648,3.648,0,0,0-.662,2.342,3.686,3.686,0,0,0,.662,2.351A2.27,2.27,0,0,0,1343.462,3635.382Z"/><path class="i" d="M1281.472,3660.426a6.563,6.563,0,0,1-4.54-1.521l.55-1.077a5.835,5.835,0,0,0,1.832,1.077,6.654,6.654,0,0,0,2.176.325,3.834,3.834,0,0,0,2.253-.565,1.836,1.836,0,0,0,.791-1.589,1.316,1.316,0,0,0-.378-.975,2.673,2.673,0,0,0-1-.6,15.133,15.133,0,0,0-1.668-.462,16.248,16.248,0,0,1-2.314-.684,3.612,3.612,0,0,1-1.462-1.025,2.629,2.629,0,0,1-.559-1.744,3.155,3.155,0,0,1,.542-1.82,3.5,3.5,0,0,1,1.548-1.231,5.815,5.815,0,0,1,2.331-.436,6.889,6.889,0,0,1,2.348.393,5.09,5.09,0,0,1,1.849,1.128l-.534,1.077a5.906,5.906,0,0,0-1.745-1.068,5.406,5.406,0,0,0-1.918-.333,3.658,3.658,0,0,0-2.21.589,1.931,1.931,0,0,0-.8,1.65,1.527,1.527,0,0,0,.7,1.367,6.724,6.724,0,0,0,2.133.787q1.564.376,2.459.692a3.673,3.673,0,0,1,1.488.949,2.372,2.372,0,0,1,.594,1.692,3.039,3.039,0,0,1-.542,1.8,3.456,3.456,0,0,1-1.557,1.188A6.172,6.172,0,0,1,1281.472,3660.426Z"/><path class="i" d="M1295.043,3656.341h-6.123a3.267,3.267,0,0,0,.791,2.2,2.723,2.723,0,0,0,2.047.744,4.166,4.166,0,0,0,2.684-.992l.464,1.009a3.929,3.929,0,0,1-1.411.812,5.313,5.313,0,0,1-1.754.3,4.138,4.138,0,0,1-3.088-1.145,4.32,4.32,0,0,1-1.126-3.163,4.934,4.934,0,0,1,.5-2.265,3.708,3.708,0,0,1,1.4-1.53,3.893,3.893,0,0,1,2.055-.547,3.284,3.284,0,0,1,2.614,1.086,4.385,4.385,0,0,1,.946,2.983v.513Zm-3.543-3.505a2.341,2.341,0,0,0-1.763.684,3.117,3.117,0,0,0-.782,1.932h4.867a2.952,2.952,0,0,0-.636-1.941A2.143,2.143,0,0,0,1291.5,3652.836Z"/><path class="i" d="M1300.633,3660.409a4.2,4.2,0,0,1-2.15-.53,3.543,3.543,0,0,1-1.4-1.495,5.426,5.426,0,0,1,.017-4.548,3.728,3.728,0,0,1,1.428-1.53,4.147,4.147,0,0,1,2.158-.547,4.727,4.727,0,0,1,1.651.3,3.6,3.6,0,0,1,1.307.795l-.464,1.026a3.821,3.821,0,0,0-2.408-.957,2.514,2.514,0,0,0-2.012.837,3.5,3.5,0,0,0-.723,2.359,3.4,3.4,0,0,0,.723,2.325,2.539,2.539,0,0,0,2.012.821,3.816,3.816,0,0,0,2.408-.958l.464,1.026a3.844,3.844,0,0,1-1.341.787A4.911,4.911,0,0,1,1300.633,3660.409Z"/><path class="i" d="M1308.8,3660.409a4.046,4.046,0,0,1-2.09-.53,3.535,3.535,0,0,1-1.393-1.513,5.559,5.559,0,0,1,0-4.564,3.546,3.546,0,0,1,1.393-1.513,4.055,4.055,0,0,1,2.09-.53,4.1,4.1,0,0,1,2.1.53,3.529,3.529,0,0,1,1.4,1.513,5.559,5.559,0,0,1,0,4.564,3.518,3.518,0,0,1-1.4,1.513,4.1,4.1,0,0,1-2.1.53Zm0-1.145a2.312,2.312,0,0,0,1.9-.812,4.508,4.508,0,0,0-.009-4.718,2.572,2.572,0,0,0-3.784,0,4.49,4.49,0,0,0-.008,4.709A2.3,2.3,0,0,0,1308.8,3659.264Z"/><path class="i" d="M1319.089,3651.759q3.009,0,3.01,3.3v5.231h-1.393v-5.145a2.572,2.572,0,0,0-.456-1.693,1.82,1.82,0,0,0-1.453-.529,2.463,2.463,0,0,0-1.841.7,2.591,2.591,0,0,0-.688,1.9v4.769h-1.393v-8.325h1.376v1.368a2.811,2.811,0,0,1,1.152-1.171A3.475,3.475,0,0,1,1319.089,3651.759Z"/><path class="i" d="M1332.075,3648.238v12.051h-1.393v-1.521a2.763,2.763,0,0,1-1.11,1.214,3.326,3.326,0,0,1-1.711.427,3.489,3.489,0,0,1-1.944-.547,3.616,3.616,0,0,1-1.307-1.53,5.282,5.282,0,0,1-.464-2.282,5.187,5.187,0,0,1,.464-2.257,3.52,3.52,0,0,1,1.307-1.5,3.577,3.577,0,0,1,1.944-.53,3.338,3.338,0,0,1,1.711.427,2.769,2.769,0,0,1,1.11,1.214v-5.162Zm-3.939,11.026a2.269,2.269,0,0,0,1.883-.829,4.484,4.484,0,0,0,0-4.693,2.28,2.28,0,0,0-1.883-.82,2.332,2.332,0,0,0-1.9.82,3.522,3.522,0,0,0-.679,2.308,3.687,3.687,0,0,0,.679,2.367A2.3,2.3,0,0,0,1328.136,3659.264Z"/><path class="i" d="M1343.152,3660.426a6.564,6.564,0,0,1-4.541-1.521l.55-1.077a5.836,5.836,0,0,0,1.832,1.077,6.654,6.654,0,0,0,2.176.325,3.836,3.836,0,0,0,2.253-.565,1.838,1.838,0,0,0,.791-1.589,1.316,1.316,0,0,0-.378-.975,2.673,2.673,0,0,0-1-.6,15.2,15.2,0,0,0-1.668-.462,16.209,16.209,0,0,1-2.314-.684,3.606,3.606,0,0,1-1.462-1.025,2.629,2.629,0,0,1-.559-1.744,3.155,3.155,0,0,1,.542-1.82,3.491,3.491,0,0,1,1.548-1.231,5.815,5.815,0,0,1,2.331-.436,6.879,6.879,0,0,1,2.347.393,5.074,5.074,0,0,1,1.849,1.128l-.533,1.077a5.906,5.906,0,0,0-1.745-1.068,5.405,5.405,0,0,0-1.918-.333,3.657,3.657,0,0,0-2.21.589,1.93,1.93,0,0,0-.8,1.65,1.527,1.527,0,0,0,.7,1.367,6.725,6.725,0,0,0,2.133.787q1.564.376,2.459.692a3.673,3.673,0,0,1,1.488.949,2.372,2.372,0,0,1,.593,1.692,3.04,3.04,0,0,1-.541,1.8,3.451,3.451,0,0,1-1.557,1.188A6.175,6.175,0,0,1,1343.152,3660.426Z"/><path class="i" d="M1353.334,3659.3a5.657,5.657,0,0,0,.756-.051l-.068,1.094a5.034,5.034,0,0,1-.86.068,3.043,3.043,0,0,1-2.279-.786,3,3,0,0,1-.766-2.188v-4.377h-1.633v-1.094h1.633v-2.53h1.394v2.53h2.373v1.094h-2.373v4.274Q1351.511,3659.3,1353.334,3659.3Z"/><path class="i" d="M1362.518,3656.341H1356.4a3.268,3.268,0,0,0,.791,2.2,2.723,2.723,0,0,0,2.047.744,4.164,4.164,0,0,0,2.684-.992l.464,1.009a3.931,3.931,0,0,1-1.41.812,5.323,5.323,0,0,1-1.755.3,4.134,4.134,0,0,1-3.087-1.145A4.317,4.317,0,0,1,1355,3656.1a4.934,4.934,0,0,1,.5-2.265,3.708,3.708,0,0,1,1.4-1.53,3.893,3.893,0,0,1,2.055-.547,3.284,3.284,0,0,1,2.614,1.086,4.385,4.385,0,0,1,.946,2.983v.513Zm-3.543-3.505a2.341,2.341,0,0,0-1.763.684,3.116,3.116,0,0,0-.782,1.932h4.867a2.952,2.952,0,0,0-.636-1.941A2.143,2.143,0,0,0,1358.975,3652.836Z"/><path class="i" d="M1368.779,3651.759a3.5,3.5,0,0,1,1.944.547,3.622,3.622,0,0,1,1.307,1.53,5.285,5.285,0,0,1,.465,2.282,5.175,5.175,0,0,1-.465,2.266,3.441,3.441,0,0,1-3.251,2.025,3.326,3.326,0,0,1-1.711-.427,2.756,2.756,0,0,1-1.109-1.214v4.6h-1.394v-11.4h1.394v1.436a2.761,2.761,0,0,1,1.109-1.214,3.338,3.338,0,0,1,1.711-.427Zm-.275,7.5a2.307,2.307,0,0,0,1.892-.821,3.584,3.584,0,0,0,.671-2.325,3.691,3.691,0,0,0-.671-2.35,2.555,2.555,0,0,0-3.775-.026,4.49,4.49,0,0,0,0,4.693A2.269,2.269,0,0,0,1368.5,3659.264Z"/><path class="i" d="M1280.544,3673.316h-4.214v-1.2h9.873v1.2h-4.231v10.855h-1.427Z"/><path class="i" d="M1291.913,3675.641q3.011,0,3.01,3.3v5.231h-1.393v-5.145a2.571,2.571,0,0,0-.456-1.693,1.817,1.817,0,0,0-1.453-.53,2.464,2.464,0,0,0-1.841.7,2.6,2.6,0,0,0-.688,1.9v4.769H1287.7v-12.052h1.393v5.06a2.8,2.8,0,0,1,1.144-1.145A3.49,3.49,0,0,1,1291.913,3675.641Z"/><path class="i" d="M1297.469,3675.846h1.393v8.325h-1.393v-8.325Zm1.548-3.607v1.556h-1.686v-1.556Z"/><path class="i" d="M1306.206,3676.837l-.911.086a2.657,2.657,0,0,0-1.867.8,2.539,2.539,0,0,0-.576,1.693v4.752h-1.393v-8.325h1.359v1.453a3.08,3.08,0,0,1,2.769-1.624l.5-.034Z"/><path class="i" d="M1314.789,3672.119v12.052H1313.4v-1.521a2.755,2.755,0,0,1-1.11,1.213,3.327,3.327,0,0,1-1.711.428,3.489,3.489,0,0,1-1.944-.547,3.623,3.623,0,0,1-1.307-1.53,5.3,5.3,0,0,1-.464-2.282,5.2,5.2,0,0,1,.464-2.257,3.508,3.508,0,0,1,1.307-1.5,3.569,3.569,0,0,1,1.944-.53,3.324,3.324,0,0,1,1.711.427,2.757,2.757,0,0,1,1.11,1.214v-5.163Zm-3.939,11.027a2.273,2.273,0,0,0,1.884-.83,4.488,4.488,0,0,0,0-4.692,2.284,2.284,0,0,0-1.884-.821,2.334,2.334,0,0,0-1.9.821,3.52,3.52,0,0,0-.679,2.308,3.688,3.688,0,0,0,.679,2.367A2.3,2.3,0,0,0,1310.85,3683.146Z"/><path class="i" d="M1325.866,3684.308a6.558,6.558,0,0,1-4.541-1.522l.55-1.076a5.825,5.825,0,0,0,1.832,1.076,6.628,6.628,0,0,0,2.176.325,3.843,3.843,0,0,0,2.253-.564,1.84,1.84,0,0,0,.791-1.59,1.314,1.314,0,0,0-.378-.974,2.66,2.66,0,0,0-1-.6,14.986,14.986,0,0,0-1.668-.462,16.245,16.245,0,0,1-2.314-.684,3.611,3.611,0,0,1-1.462-1.025,2.629,2.629,0,0,1-.559-1.744,3.158,3.158,0,0,1,.542-1.821,3.5,3.5,0,0,1,1.548-1.231,5.832,5.832,0,0,1,2.331-.436,6.866,6.866,0,0,1,2.348.394,5.086,5.086,0,0,1,1.849,1.128l-.534,1.077a5.911,5.911,0,0,0-1.745-1.068,5.39,5.39,0,0,0-1.918-.334,3.657,3.657,0,0,0-2.21.59,1.93,1.93,0,0,0-.8,1.65,1.527,1.527,0,0,0,.7,1.367,6.727,6.727,0,0,0,2.133.786q1.564.376,2.46.693a3.69,3.69,0,0,1,1.488.949,2.374,2.374,0,0,1,.592,1.692,3.038,3.038,0,0,1-.541,1.795,3.447,3.447,0,0,1-1.557,1.188A6.189,6.189,0,0,1,1325.866,3684.308Z"/><path class="i" d="M1336.048,3683.18a5.49,5.49,0,0,0,.757-.052l-.069,1.094a5,5,0,0,1-.86.069,3.039,3.039,0,0,1-2.279-.787,3,3,0,0,1-.766-2.188v-4.376H1331.2v-1.094h1.633v-2.53h1.394v2.53h2.373v1.094h-2.373v4.274Q1334.225,3683.179,1336.048,3683.18Z"/><path class="i" d="M1345.232,3680.222h-6.122a3.261,3.261,0,0,0,.791,2.2,2.724,2.724,0,0,0,2.047.744,4.162,4.162,0,0,0,2.683-.992l.464,1.009a3.952,3.952,0,0,1-1.41.812,5.32,5.32,0,0,1-1.755.3,4.135,4.135,0,0,1-3.087-1.145,4.317,4.317,0,0,1-1.127-3.163,4.93,4.93,0,0,1,.5-2.265,3.7,3.7,0,0,1,1.4-1.53,3.885,3.885,0,0,1,2.055-.547,3.288,3.288,0,0,1,2.615,1.085,4.391,4.391,0,0,1,.945,2.983v.513Zm-3.543-3.5a2.347,2.347,0,0,0-1.763.683,3.119,3.119,0,0,0-.782,1.932h4.867a2.945,2.945,0,0,0-.636-1.94A2.141,2.141,0,0,0,1341.689,3676.718Z"/><path class="i" d="M1351.493,3675.641a3.489,3.489,0,0,1,1.944.547,3.6,3.6,0,0,1,1.307,1.53,5.282,5.282,0,0,1,.465,2.282,5.169,5.169,0,0,1-.465,2.265,3.437,3.437,0,0,1-3.251,2.026,3.329,3.329,0,0,1-1.711-.428,2.754,2.754,0,0,1-1.109-1.213v4.6h-1.393v-11.4h1.393v1.436a2.756,2.756,0,0,1,1.109-1.214,3.326,3.326,0,0,1,1.711-.427Zm-.275,7.5a2.306,2.306,0,0,0,1.892-.821,3.578,3.578,0,0,0,.671-2.325,3.692,3.692,0,0,0-.671-2.351,2.554,2.554,0,0,0-3.775-.025,4.488,4.488,0,0,0,0,4.692A2.27,2.27,0,0,0,1351.218,3683.146Z"/><path class="i" d="M1277.62,3696h7.5v1.179h-6.106v4.154h5.762v1.18h-5.762v5.539h-1.393Z"/><path class="i" d="M1290.3,3708.172a4.055,4.055,0,0,1-2.09-.529,3.544,3.544,0,0,1-1.393-1.514,5.559,5.559,0,0,1,0-4.564,3.546,3.546,0,0,1,1.393-1.513,4.055,4.055,0,0,1,2.09-.53,4.1,4.1,0,0,1,2.1.53,3.536,3.536,0,0,1,1.4,1.513,5.559,5.559,0,0,1,0,4.564,3.534,3.534,0,0,1-1.4,1.514,4.1,4.1,0,0,1-2.1.529Zm0-1.145a2.313,2.313,0,0,0,1.9-.812,4.508,4.508,0,0,0-.009-4.718,2.573,2.573,0,0,0-3.784,0,4.491,4.491,0,0,0-.008,4.71A2.3,2.3,0,0,0,1290.3,3707.027Z"/><path class="i" d="M1303.42,3699.727v8.326h-1.359v-1.419a2.724,2.724,0,0,1-1.109,1.145,3.281,3.281,0,0,1-1.609.393,2.9,2.9,0,0,1-2.253-.829,3.529,3.529,0,0,1-.757-2.453v-5.163h1.394v5.129a2.475,2.475,0,0,0,.447,1.633,1.762,1.762,0,0,0,1.41.521,2.33,2.33,0,0,0,1.772-.709,2.616,2.616,0,0,0,.671-1.872v-4.7Z"/><path class="i" d="M1310.764,3700.719l-.912.086a2.648,2.648,0,0,0-1.866.8,2.538,2.538,0,0,0-.576,1.692v4.753h-1.393v-8.326h1.359v1.454a3.081,3.081,0,0,1,2.769-1.625l.5-.034Z"/><path class="i" d="M1316.44,3707.061a5.675,5.675,0,0,0,.757-.051l-.069,1.094a5.035,5.035,0,0,1-.86.068,3.044,3.044,0,0,1-2.279-.786,3.006,3.006,0,0,1-.765-2.188v-4.376h-1.635v-1.095h1.635v-2.53h1.393v2.53h2.374v1.095h-2.374v4.273Q1314.617,3707.062,1316.44,3707.061Z"/><path class="i" d="M1322.821,3699.522q3.01,0,3.01,3.3v5.231h-1.393v-5.146a2.566,2.566,0,0,0-.456-1.692,1.816,1.816,0,0,0-1.453-.53,2.464,2.464,0,0,0-1.841.7,2.592,2.592,0,0,0-.688,1.9v4.77h-1.393V3696H1320v5.06a2.8,2.8,0,0,1,1.144-1.145A3.474,3.474,0,0,1,1322.821,3699.522Z"/><path class="i" d="M1336.873,3708.189a6.565,6.565,0,0,1-4.541-1.521l.551-1.077a5.82,5.82,0,0,0,1.832,1.077,6.628,6.628,0,0,0,2.176.325,3.846,3.846,0,0,0,2.253-.564,1.84,1.84,0,0,0,.791-1.59,1.313,1.313,0,0,0-.379-.975,2.669,2.669,0,0,0-1-.6,15,15,0,0,0-1.668-.461,16.421,16.421,0,0,1-2.314-.684,3.605,3.605,0,0,1-1.462-1.026,2.62,2.62,0,0,1-.559-1.743,3.156,3.156,0,0,1,.542-1.821,3.5,3.5,0,0,1,1.548-1.231,5.815,5.815,0,0,1,2.331-.436,6.879,6.879,0,0,1,2.347.393,5.091,5.091,0,0,1,1.849,1.128l-.533,1.078a5.882,5.882,0,0,0-1.746-1.069,5.4,5.4,0,0,0-1.917-.333,3.66,3.66,0,0,0-2.211.589,1.933,1.933,0,0,0-.8,1.65,1.529,1.529,0,0,0,.7,1.368,6.728,6.728,0,0,0,2.132.786q1.566.376,2.46.692a3.683,3.683,0,0,1,1.488.949,2.378,2.378,0,0,1,.593,1.693,3.04,3.04,0,0,1-.541,1.795,3.468,3.468,0,0,1-1.557,1.188A6.2,6.2,0,0,1,1336.873,3708.189Z"/><path class="i" d="M1347.056,3707.061a5.658,5.658,0,0,0,.756-.051l-.068,1.094a5.034,5.034,0,0,1-.86.068,3.048,3.048,0,0,1-2.28-.786,3.006,3.006,0,0,1-.765-2.188v-4.376H1342.2v-1.095h1.634v-2.53h1.393v2.53h2.374v1.095h-2.374v4.273Q1345.232,3707.062,1347.056,3707.061Z"/><path class="i" d="M1356.24,3704.1h-6.123a3.273,3.273,0,0,0,.791,2.2,2.727,2.727,0,0,0,2.047.743,4.159,4.159,0,0,0,2.683-.991l.465,1.008a3.922,3.922,0,0,1-1.411.812,5.288,5.288,0,0,1-1.754.3,4.137,4.137,0,0,1-3.088-1.145,4.316,4.316,0,0,1-1.126-3.163,4.948,4.948,0,0,1,.5-2.265,3.71,3.71,0,0,1,1.4-1.53,3.891,3.891,0,0,1,2.055-.547,3.284,3.284,0,0,1,2.614,1.086,4.386,4.386,0,0,1,.946,2.983v.513Zm-3.543-3.5a2.34,2.34,0,0,0-1.763.684,3.118,3.118,0,0,0-.782,1.932h4.867a2.957,2.957,0,0,0-.636-1.941A2.144,2.144,0,0,0,1352.7,3700.6Z"/><path class="i" d="M1362.5,3699.522a3.5,3.5,0,0,1,1.944.547,3.621,3.621,0,0,1,1.307,1.53,5.3,5.3,0,0,1,.464,2.282,5.183,5.183,0,0,1-.464,2.266,3.436,3.436,0,0,1-3.251,2.025,3.328,3.328,0,0,1-1.711-.427,2.747,2.747,0,0,1-1.11-1.214v4.6h-1.393v-11.4h1.393v1.436a2.749,2.749,0,0,1,1.11-1.213,3.329,3.329,0,0,1,1.711-.428Zm-.275,7.505a2.306,2.306,0,0,0,1.892-.82,3.59,3.59,0,0,0,.671-2.326,3.694,3.694,0,0,0-.671-2.35,2.555,2.555,0,0,0-3.775-.026,4.484,4.484,0,0,0,0,4.693A2.269,2.269,0,0,0,1362.226,3707.027Z"/><path class="i" d="M1284.878,3731.934h-1.686l-2.614-3.248-2.6,3.248h-1.7l3.474-4.291-3.268-4.035h1.686l2.408,3.026,2.408-3.026h1.7l-3.285,4.035Z"/><path class="i" d="M1298.827,3725.9h-8.393v-1.077h8.393v1.077Zm0,3.419h-8.393v-1.077h8.393Z"/><path class="i" d="M1313.206,3730.755v1.179h-6.742v-1.179h2.666v-9.129L1307,3722.96l-.653-1.077,3.182-2h1.015v10.872Z"/><path class="i" d="M1324.249,3729.319h-1.823v2.615h-1.394v-2.615h-5.607v-1.06l5.848-8.376h1.153v8.273h1.823v1.163Zm-3.217-1.163v-5.931l-4.145,5.931Z"/><path class="i" d="M1333.433,3732.054a4.936,4.936,0,0,1-3.354-1.077l.465-1.026a4.482,4.482,0,0,0,1.367.761,4.988,4.988,0,0,0,1.574.231,2.637,2.637,0,0,0,1.419-.316,1.023,1.023,0,0,0,.49-.915,1,1,0,0,0-.327-.786,2.46,2.46,0,0,0-1.083-.462l-1.411-.325a3.206,3.206,0,0,1-1.634-.82,1.978,1.978,0,0,1-.567-1.436,2.167,2.167,0,0,1,.877-1.8,3.7,3.7,0,0,1,2.339-.684,4.927,4.927,0,0,1,1.668.282,3.524,3.524,0,0,1,1.325.812l-.464,1.009a3.832,3.832,0,0,0-2.529-.975,2.406,2.406,0,0,0-1.367.334,1.157,1.157,0,0,0-.189,1.726,1.984,1.984,0,0,0,.972.453l1.427.342a3.624,3.624,0,0,1,1.737.829,1.931,1.931,0,0,1,.568,1.445,2.052,2.052,0,0,1-.886,1.743A4.009,4.009,0,0,1,1333.433,3732.054Z"/><path class="i" d="M1345.869,3727.985h-6.123a3.268,3.268,0,0,0,.791,2.2,2.722,2.722,0,0,0,2.047.744,4.163,4.163,0,0,0,2.683-.992l.464,1.009a3.941,3.941,0,0,1-1.41.812,5.314,5.314,0,0,1-1.755.3,4.134,4.134,0,0,1-3.087-1.145,4.317,4.317,0,0,1-1.127-3.163,4.945,4.945,0,0,1,.5-2.265,3.714,3.714,0,0,1,1.4-1.53,3.884,3.884,0,0,1,2.055-.547,3.288,3.288,0,0,1,2.615,1.085,4.389,4.389,0,0,1,.946,2.984v.512Zm-3.543-3.5a2.34,2.34,0,0,0-1.763.684,3.116,3.116,0,0,0-.783,1.931h4.868a2.946,2.946,0,0,0-.637-1.94A2.14,2.14,0,0,0,1342.326,3724.481Z"/><path class="i" d="M1351.459,3732.054a4.208,4.208,0,0,1-2.15-.53,3.544,3.544,0,0,1-1.4-1.5,5.434,5.434,0,0,1,.017-4.547,3.741,3.741,0,0,1,1.428-1.53,4.141,4.141,0,0,1,2.159-.547,4.735,4.735,0,0,1,1.651.3,3.609,3.609,0,0,1,1.307.8l-.464,1.026a3.818,3.818,0,0,0-2.408-.957,2.517,2.517,0,0,0-2.013.837,3.506,3.506,0,0,0-.722,2.359,3.408,3.408,0,0,0,.722,2.325,2.541,2.541,0,0,0,2.013.821,3.818,3.818,0,0,0,2.408-.958l.464,1.026a3.851,3.851,0,0,1-1.341.786A4.9,4.9,0,0,1,1351.459,3732.054Z"/><path class="i" d="M1359.629,3732.054a4.056,4.056,0,0,1-2.09-.53,3.541,3.541,0,0,1-1.393-1.513,5.559,5.559,0,0,1,0-4.564,3.541,3.541,0,0,1,1.393-1.513,4.056,4.056,0,0,1,2.09-.53,4.1,4.1,0,0,1,2.1.53,3.525,3.525,0,0,1,1.4,1.513,5.559,5.559,0,0,1,0,4.564,3.525,3.525,0,0,1-1.4,1.513,4.1,4.1,0,0,1-2.1.53Zm0-1.145a2.313,2.313,0,0,0,1.9-.812,4.51,4.51,0,0,0-.009-4.719,2.574,2.574,0,0,0-3.784,0,4.494,4.494,0,0,0-.009,4.71A2.3,2.3,0,0,0,1359.629,3730.909Z"/><path class="i" d="M1369.914,3723.4q3.011,0,3.01,3.3v5.231h-1.393v-5.145a2.571,2.571,0,0,0-.456-1.693,1.817,1.817,0,0,0-1.453-.529,2.464,2.464,0,0,0-1.841.7,2.6,2.6,0,0,0-.687,1.9v4.769H1365.7v-8.325h1.375v1.368a2.812,2.812,0,0,1,1.153-1.171A3.474,3.474,0,0,1,1369.914,3723.4Z"/><path class="i" d="M1382.9,3719.883v12.051h-1.393v-1.521a2.754,2.754,0,0,1-1.109,1.214,3.329,3.329,0,0,1-1.712.427,3.485,3.485,0,0,1-1.943-.547,3.623,3.623,0,0,1-1.308-1.53,5.294,5.294,0,0,1-.464-2.282,5.2,5.2,0,0,1,.464-2.257,3.515,3.515,0,0,1,1.308-1.5,3.574,3.574,0,0,1,1.943-.53,3.329,3.329,0,0,1,1.712.427,2.754,2.754,0,0,1,1.109,1.214v-5.162Zm-3.939,11.026a2.272,2.272,0,0,0,1.884-.829,3.682,3.682,0,0,0,.662-2.351,3.644,3.644,0,0,0-.662-2.342,2.281,2.281,0,0,0-1.884-.82,2.33,2.33,0,0,0-1.9.82,3.521,3.521,0,0,0-.68,2.308,3.687,3.687,0,0,0,.68,2.367A2.3,2.3,0,0,0,1378.961,3730.909Z"/><path class="i" d="M1388.318,3732.054a4.932,4.932,0,0,1-3.353-1.077l.464-1.026a4.482,4.482,0,0,0,1.367.761,4.988,4.988,0,0,0,1.574.231,2.636,2.636,0,0,0,1.419-.316,1.023,1.023,0,0,0,.49-.915,1,1,0,0,0-.327-.786,2.46,2.46,0,0,0-1.083-.462l-1.411-.325a3.205,3.205,0,0,1-1.634-.82,1.978,1.978,0,0,1-.567-1.436,2.167,2.167,0,0,1,.877-1.8,3.7,3.7,0,0,1,2.339-.684,4.927,4.927,0,0,1,1.668.282,3.523,3.523,0,0,1,1.325.812l-.464,1.009a3.832,3.832,0,0,0-2.529-.975,2.4,2.4,0,0,0-1.367.334,1.157,1.157,0,0,0-.189,1.726,1.984,1.984,0,0,0,.971.453l1.428.342a3.629,3.629,0,0,1,1.737.829,1.931,1.931,0,0,1,.568,1.445,2.055,2.055,0,0,1-.886,1.743A4.011,4.011,0,0,1,1388.318,3732.054Z"/><path class="k" d="M6.411,0H151.719a6.41,6.41,0,0,1,6.41,6.41V44.875a6.411,6.411,0,0,1-6.411,6.411H6.411A6.411,6.411,0,0,1,0,44.875V6.411A6.411,6.411,0,0,1,6.411,0Z" transform="translate(1184.665 3829.283)"/><text class="l" transform="translate(1213.151 3861.883)"><tspan x="0" y="0">Add Answer</tspan></text><path class="m" d="M1294.764,3927.7h-98.046a45.1,45.1,0,0,1-44.948-44.948v-411.32h-3.007v-34.342h3.007v-31.842h-3.007V3370.9h3.007v-41.87h-3.007v-10.276h3.007v-49.48a44.935,44.935,0,0,1,44.782-44.781h249.461a42.938,42.938,0,0,1,42.942,42.941V3387.95h4.011v66.432h-4.011v430.373a43.09,43.09,0,0,1-42.942,42.942Zm202.59-548.147V3267.437a51.341,51.341,0,0,0-51.341-51.341H1196.552a53.338,53.338,0,0,0-53.181,53.181v41.081a3.008,3.008,0,0,0-3.008,3.008v21.059a3.007,3.007,0,0,0,3.008,3.008v25.07a3.008,3.008,0,0,0-3.008,3.008v45.126a3.008,3.008,0,0,0,3.008,3.008v15.042a3.007,3.007,0,0,0-3.008,3.008v45.126a3.008,3.008,0,0,0,3.008,3.008v402.92a53.5,53.5,0,0,0,53.347,53.348h249.295a51.492,51.492,0,0,0,51.341-51.342V3462.782h1a3.009,3.009,0,0,0,3.009-3.009v-77.214a3.009,3.009,0,0,0-3.009-3.009Z"/></g></svg>