<svg width="500" height="267" viewBox="0 0 500 267" fill="none" xmlns="http://www.w3.org/2000/svg">
<path d="M126.178 27.9697C125.982 26.4976 125.587 25.0588 125.004 23.6928C124.926 23.4296 124.794 23.1857 124.616 22.9769C124.438 22.7681 124.218 22.5991 123.97 22.4807C123.633 22.3976 123.282 22.3938 122.944 22.4697L117.677 23.2367C117.24 23.2548 116.82 23.4102 116.477 23.6807C115.791 24.3677 116.466 25.4737 116.445 26.4207C116.37 26.963 116.127 27.4682 115.75 27.8656C115.374 28.263 114.882 28.5326 114.345 28.6368C113.243 28.8486 112.11 28.8353 111.014 28.5977L103.649 27.5078C105.796 26.8625 107.724 25.638 109.221 23.9688C110.19 22.8758 110.706 20.8348 109.305 20.3178C108.888 20.2083 108.455 20.1744 108.026 20.2177C104.689 20.2427 102.063 17.5897 98.939 16.4737C96.9512 15.7993 94.8053 15.745 92.786 16.3181C90.7666 16.8913 88.9692 18.0647 87.632 19.6828L91.555 19.8627C91.9222 19.8428 92.2867 19.9352 92.6 20.1277C93.46 20.8007 92.391 22.0917 92.512 23.1447C92.669 24.5127 94.578 24.8047 96.012 24.9447C97.446 25.0847 99.275 26.1957 98.583 27.4037C91.353 29.7747 83.995 22.7697 76.402 23.6317C74.5042 23.9789 72.6297 24.4428 70.789 25.0208C59.327 27.7818 47.478 20.4158 35.769 21.9758C33.1707 22.3968 30.6131 23.0388 28.124 23.8947C26.4995 24.2646 24.9864 25.016 23.71 26.0867C22.552 27.2417 22.11 29.2178 23.21 30.4258C20.1893 30.6629 17.1502 30.3881 14.221 29.6127C14.9994 30.0112 15.653 30.6164 16.11 31.3618C16.5671 32.1073 16.81 32.9643 16.812 33.8387C12.1057 34.5673 7.51305 35.9003 3.14799 37.8047C3.96391 39.0948 4.91166 40.2966 5.976 41.3907L0 45.0458C0.476877 45.177 0.916855 45.4169 1.28539 45.7468C1.65392 46.0766 1.94096 46.4874 2.124 46.9469C2.30704 47.4064 2.38108 47.902 2.3403 48.3949C2.29953 48.8879 2.14505 49.3646 1.889 49.7877C3.983 48.9007 5.28 46.6077 7.519 46.1427C9.01556 45.9906 10.5245 46.2681 11.869 46.9427C13.2164 47.6181 14.7438 47.8472 16.23 47.5968C17.67 47.1968 18.73 45.4157 17.818 44.2837C23.9885 42.5719 30.3464 41.6265 36.748 41.4687C37.2412 41.4093 37.7408 41.4995 38.182 41.7277C39.017 42.2787 38.797 43.4697 38.752 44.4357C38.707 45.4017 39.498 46.6707 40.405 46.2357C39.338 47.1167 40.25 48.7748 41.274 49.7008C42.298 50.6268 43.531 51.9008 42.905 53.1098C42.741 53.4238 42.464 53.6758 42.305 53.9928C41.84 54.9288 42.578 56.0207 43.448 56.6427C44.3947 57.1376 45.2529 57.7857 45.988 58.5607C46.588 59.4217 46.318 60.9298 45.237 61.0498L42.165 57.3378C41.1245 58.3574 40.4035 59.658 40.09 61.0807C40.867 61.716 41.5102 62.499 41.9826 63.3845C42.4549 64.27 42.747 65.2403 42.8418 66.2394C42.9367 67.2385 42.8325 68.2465 42.5352 69.205C42.2379 70.1636 41.7535 71.0536 41.11 71.8237C39.717 73.3817 37.735 74.3288 36.01 75.5448C34.285 76.7608 32.68 78.4917 32.684 80.5377C32.692 84.0737 32.384 87.3577 33.784 90.6377C36.3577 96.6965 39.3213 102.582 42.656 108.258C43.534 109.752 44.668 111.39 46.446 111.647C44.1987 106.439 42.176 101.151 40.378 95.7818C41.549 95.7818 42.903 95.8748 43.59 96.7818C44.159 97.5298 44.037 98.5468 44.213 99.4548C44.4397 100.339 44.8147 101.178 45.322 101.937L56.052 120.137C56.942 121.645 57.962 123.264 59.662 123.875C60.749 124.266 62.006 124.192 63.007 124.754C63.791 125.195 64.319 125.977 65.119 126.392C67.379 127.566 70.519 125.315 72.635 126.716C73.1757 127.189 73.6914 127.689 74.18 128.216C76.131 129.824 79.331 128.748 81.58 129.948C83.031 130.721 83.78 132.268 84.558 133.669C86.497 137.179 89.635 140.618 93.791 140.898C95.0974 140.846 96.4058 140.889 97.706 141.027C98.982 141.303 100.238 142.364 100.033 143.594C99.682 145.704 100.777 148.014 100.483 150.131C99.947 153.988 94.2 155.683 93.707 159.545C93.7091 160.396 93.659 161.246 93.557 162.091C93.298 163.105 92.497 163.931 92.213 164.94C91.674 166.851 93.113 168.752 94.692 170.04C96.271 171.328 98.156 172.434 99.02 174.234C99.933 176.134 99.485 178.354 99.781 180.426C100.429 184.95 104.534 188.303 108.757 190.465C110.096 190.998 111.293 191.832 112.257 192.904C113.344 194.396 113.236 196.362 113.599 198.144C114.488 202.509 118.348 206.106 118.458 210.551C118.536 213.71 116.691 216.577 115.589 219.558C114.557 222.409 114.182 225.457 114.494 228.474C114.806 231.49 115.795 234.398 117.389 236.978C118.299 238.245 119.1 239.586 119.783 240.989C120.824 243.553 120.483 246.467 121.446 249.059C122.715 252.486 126.201 255.317 125.867 258.937C127.45 262.065 130.944 263.603 134.459 264.537L140.759 266.206C141.945 266.614 143.206 266.754 144.453 266.616C145.06 266.544 145.625 266.268 146.056 265.834C146.486 265.399 146.756 264.831 146.821 264.223C143.732 263.56 140.545 262.855 137.999 261.063C135.453 259.271 133.709 256.081 134.675 253.211C135.123 251.88 136.075 250.343 135.17 249.243C134.651 248.613 133.703 248.449 133.118 247.874C132.205 246.974 132.518 245.474 133.175 244.392C133.832 243.31 134.775 242.346 135.044 241.124C135.173 240.431 135.08 239.715 134.778 239.078C134.477 238.441 133.982 237.916 133.365 237.576C134.523 237.163 135.584 236.516 136.482 235.676C136.914 235.261 137.201 234.719 137.301 234.128C137.401 233.538 137.308 232.931 137.036 232.398C138.951 232.629 141.212 232.742 142.469 231.348C142.901 230.748 143.176 230.049 143.27 229.316C143.364 228.583 143.274 227.837 143.007 227.148C142.463 225.779 142.098 224.346 141.919 222.885C146.336 223.084 150.762 222.941 155.157 222.458C154.498 220.391 153.052 218.667 151.132 217.658C153.122 217.337 154.932 215.07 155.563 213.244C156.098 211.385 156.126 209.417 155.643 207.544C155.494 207.06 155.474 206.545 155.584 206.051C155.912 205.39 156.473 204.874 157.158 204.602L167.034 199.202C167.619 198.923 168.153 198.548 168.613 198.092C169.648 196.935 169.494 195.192 168.965 193.755C168.284 192.387 167.753 190.949 167.382 189.467C166.772 184.96 171.84 181.726 173.55 177.483C174.133 175.791 174.449 174.018 174.488 172.229C174.627 170.318 174.638 168.099 173.097 166.867C171.62 165.687 169.311 165.95 167.765 164.852C166.348 163.845 165.858 161.89 164.31 161.077C162.904 160.339 161.141 160.808 159.577 160.461C156.823 159.85 155.09 156.828 152.277 156.549C150.69 156.391 148.894 157.13 147.594 156.249C146.448 155.474 146.402 153.916 146.184 152.594C145.758 150.497 144.7 148.581 143.153 147.104C141.606 145.626 139.643 144.658 137.529 144.329C135.893 144.079 134.112 144.174 132.72 143.318C131.311 142.451 130.665 140.829 129.557 139.629C127.773 137.695 124.963 137.007 122.33 136.418L111.623 134.018C109.723 133.593 107.272 133.367 106.252 134.952C105.951 135.552 105.737 136.192 105.617 136.852C105.203 138.067 104.419 139.122 103.376 139.869C102.333 140.617 101.082 141.019 99.798 141.021C98.8747 139.545 97.4236 138.476 95.74 138.032C94.6309 137.854 93.5344 137.605 92.457 137.288C91.9012 137.035 91.4032 136.67 90.994 136.217C90.5848 135.764 90.273 135.231 90.078 134.653C89.8906 134.083 89.8274 133.48 89.8926 132.884C89.9578 132.288 90.1499 131.712 90.456 131.197C91.0721 130.155 91.311 128.933 91.1323 127.736C90.9537 126.539 90.3685 125.439 89.475 124.623C87.654 123.067 85.02 122.691 82.575 122.847C81.936 121.519 83.005 120.02 84.157 119.055C85.309 118.09 86.708 117.141 86.957 115.699C87.352 113.432 84.313 111.71 82.005 112.386C79.697 113.062 78.225 115.196 77.251 117.299C76.7797 118.548 76.1351 119.724 75.336 120.794C74.9106 121.334 74.3486 121.75 73.7082 121.999C73.0679 122.249 72.3724 122.322 71.694 122.213C69.794 121.751 69.06 119.602 68.64 117.778C67.9652 115.359 67.6244 112.86 67.627 110.349C67.6407 109.082 67.9083 107.83 68.4137 106.668C68.9192 105.506 69.6524 104.458 70.57 103.584C73.728 100.824 78.57 101.094 82.836 101.535C82.3791 100.965 82.1576 100.241 82.2169 99.5128C82.2762 98.7845 82.6118 98.1065 83.155 97.6178C83.7356 97.1335 84.4213 96.7916 85.1575 96.6194C85.8936 96.4471 86.6598 96.4493 87.395 96.6257C88.6654 96.872 89.8197 97.529 90.68 98.4957C91.891 99.9017 92.236 101.796 93.151 103.396C94.066 104.996 96.125 106.353 97.81 105.496C99.265 104.756 99.496 102.835 99.134 101.303C98.772 99.7708 98.002 98.2807 98.134 96.7147C98.384 93.7277 101.634 91.9298 104.508 90.6998C107.382 89.4697 110.665 87.8147 111.12 84.8497C111.136 84.2678 111.251 83.6928 111.461 83.1497C111.785 82.6631 112.227 82.267 112.746 81.9987C121.124 76.7287 129.64 71.3937 139.216 68.5137C139.716 68.3637 139.773 68.5307 140.28 68.4137C140.991 68.0227 140.52 66.9418 139.839 66.5058C139.158 66.0698 138.247 65.7357 138.074 64.9727C137.947 64.4117 138.294 63.8597 138.385 63.2927C138.396 62.9398 138.32 62.5895 138.165 62.2721C138.011 61.9547 137.781 61.6796 137.496 61.4704C137.212 61.2613 136.881 61.1244 136.532 61.0715C136.183 61.0186 135.826 61.0513 135.492 61.1667C134.723 60.1967 136.245 59.0668 137.475 58.7478C141.177 57.7784 144.969 57.1886 148.791 56.9877C149.232 56.9205 149.682 56.9933 150.079 57.1958C150.217 57.3201 150.33 57.4705 150.41 57.6384C150.49 57.8062 150.536 57.9882 150.546 58.174C150.556 58.3597 150.529 58.5456 150.467 58.7209C150.405 58.8963 150.309 59.0576 150.184 59.1958C149.655 59.7491 149.075 60.2513 148.452 60.6958C147.837 61.2545 147.395 61.9775 147.177 62.7796C146.96 63.5816 146.977 64.429 147.226 65.2218C149.226 66.1888 151.396 67.1847 153.608 66.8437C155.82 66.5027 157.785 64.1368 156.745 62.2438C155.776 60.4838 152.867 60.0868 152.367 58.1578C151.781 55.8998 155.14 53.8908 154.383 51.6788C154.052 50.7098 153.037 50.1397 152.259 49.4397C151.346 48.6075 150.719 47.5082 150.468 46.2986C150.216 45.089 150.353 43.8309 150.859 42.7038C149.6 42.9197 148.308 42.8426 147.083 42.4784C145.859 42.1142 144.735 41.4727 143.798 40.6037C142.109 38.9807 140.762 36.4217 138.363 36.4947C136.163 36.5617 134.263 39.0058 132.209 38.2598C131.703 38.0768 131.169 37.7027 130.678 37.9217C130.52 38.0176 130.386 38.1488 130.287 38.3049C130.188 38.461 130.126 38.6379 130.107 38.8218C129.584 41.2018 130.484 43.9138 129.121 45.9708C127.638 48.2088 124.208 48.5187 122.41 50.5377C121.434 51.6377 121.056 53.1098 120.159 54.2648C119.262 55.4198 117.359 56.1538 116.282 55.1478C116.809 54.1111 116.952 52.9215 116.686 51.7895C116.42 50.6574 115.763 49.6558 114.83 48.9617C113.825 48.3385 112.748 47.8399 111.623 47.4768C110.366 46.9709 109.165 46.334 108.041 45.5767C107.487 45.261 107.031 44.797 106.726 44.2367C106.489 43.5445 106.521 42.7885 106.816 42.1188C107.395 40.6019 108.374 39.2699 109.649 38.2642C110.924 37.2584 112.447 36.6162 114.057 36.4057C115.49 36.2197 117.157 36.2857 118.107 35.2457C118.607 34.6957 118.872 33.8637 119.601 33.6407C120.066 33.5514 120.548 33.608 120.98 33.8028L126.33 35.5947C126.93 35.8518 127.586 35.955 128.236 35.8948C128.552 35.8617 128.843 35.7096 129.05 35.4694C129.258 35.2292 129.366 34.9189 129.353 34.6018C129.182 33.7558 127.815 33.3497 127.939 32.5017C128.011 32.2225 128.167 31.9723 128.387 31.7858C130.365 29.8113 132.741 28.2816 135.357 27.2986C137.973 26.3157 140.768 25.9022 143.557 26.0858C144.232 27.1418 143.164 28.3917 142.276 29.2927C141.388 30.1937 140.676 31.8037 141.748 32.4977C142.191 32.7122 142.68 32.8168 143.172 32.8028C144.484 32.9712 145.763 33.3405 146.963 33.8978C148.812 34.6638 150.625 35.5018 152.403 36.4118C152.146 35.3085 152.194 34.1562 152.54 33.0777C152.752 32.5357 153.154 32.0892 153.671 31.8215C154.188 31.5539 154.785 31.4832 155.35 31.6227C156.413 32.0147 156.958 33.3537 158.09 33.4767C159.601 33.6407 160.196 31.5158 159.566 30.1998C158.936 28.8838 157.686 27.7807 157.582 26.3367C157.512 25.3627 157.901 24.1547 157.082 23.5647C156.789 23.3869 156.459 23.2769 156.118 23.2428L135.71 19.6677C134.498 19.4557 132.747 19.6178 132.693 20.7898C132.663 21.4438 133.277 22.0897 133.005 22.6897C132.715 23.3317 131.762 23.2727 131.067 23.4997C130.557 23.7123 130.133 24.0875 129.859 24.5669C129.585 25.0463 129.477 25.6029 129.553 26.1498C129.745 27.2296 130.183 28.2511 130.831 29.1357C129.512 28.5957 127.505 28.4977 126.178 27.9697Z" fill="#4085D6"/>
<path d="M101.621 11.2554C100.334 10.8296 98.9475 10.8099 97.649 11.1987C96.3506 11.5876 95.203 12.3663 94.3621 13.4294C94.1655 13.6257 94.0293 13.8742 93.9695 14.1456C93.9098 14.4169 93.9291 14.6997 94.025 14.9604C94.425 15.6474 95.456 15.3764 96.214 15.1304C97.3277 14.7327 98.5398 14.704 99.671 15.0484C100.382 15.2924 101.019 15.7244 101.733 15.9594C102.081 16.105 102.462 16.1532 102.835 16.0987C103.208 16.0443 103.559 15.8893 103.851 15.6504C104.272 15.0824 104.459 14.3742 104.373 13.6724C104.407 13.438 104.389 13.1989 104.318 12.9726C104.248 12.7463 104.129 12.5385 103.968 12.3644C103.682 12.1987 103.36 12.1038 103.03 12.0874C102.291 11.9517 101.623 11.5627 101.14 10.9874" fill="#4085D6"/>
<path d="M108.002 9.20466C107.714 9.18889 107.427 9.24751 107.168 9.37489C106.909 9.50228 106.687 9.69414 106.524 9.932C106.361 10.1699 106.261 10.4458 106.236 10.7331C106.21 11.0204 106.259 11.3096 106.377 11.5727C107.261 11.8138 108.186 11.8741 109.094 11.7497C109.547 11.6795 109.969 11.4768 110.308 11.1669C110.646 10.8571 110.885 10.4541 110.994 10.0087C109.923 10.2046 108.818 9.99383 107.894 9.41766" fill="#4085D6"/>
<path d="M130.446 5.78374C128.039 6.29561 125.7 7.0901 123.479 8.15073C124.526 8.55313 125.416 9.28123 126.018 10.2277C126.62 11.1742 126.902 12.2889 126.822 13.4077C126.728 13.8373 126.739 14.2833 126.854 14.7077C127.11 15.3277 127.854 15.5607 128.503 15.7197C129.674 16.0763 130.897 16.2325 132.12 16.1817C132.732 16.1496 133.326 15.9655 133.849 15.646C134.372 15.3265 134.806 14.8816 135.114 14.3517C135.291 13.8488 135.499 13.3572 135.737 12.8797C137.299 10.4997 141.937 13.3797 143.618 11.0797C144.209 10.2697 144.155 9.04973 144.925 8.40773C145.324 8.128 145.785 7.95171 146.269 7.89473C149.643 7.22446 153.05 6.73907 156.477 6.44074C158.1 6.29974 160.217 5.71673 160.23 4.08673C154.115 2.88571 147.774 3.73858 142.194 6.51274C140.184 7.51974 137.524 9.63774 135.588 8.30274C134.863 7.80274 134.899 6.45673 133.901 5.89473C132.798 5.45566 131.575 5.4164 130.446 5.78374Z" fill="#4085D6"/>
<path d="M147.349 9.52846L150.22 10.0805C149.692 10.0571 149.164 10.1467 148.673 10.3432C148.182 10.5397 147.739 10.8387 147.373 11.2202C147.006 11.6017 146.725 12.0569 146.549 12.5554C146.372 13.054 146.304 13.5845 146.349 14.1115C149.037 15.0115 151.968 14.1355 154.8 14.2555C157.632 14.3755 160.926 16.3975 160.443 19.1905C160.297 20.0345 159.809 20.8785 160.063 21.6975C160.337 22.2304 160.661 22.7357 161.032 23.2065C161.261 23.7903 161.324 24.4264 161.212 25.0437C161.1 25.6609 160.819 26.2349 160.4 26.7015C159.649 27.7015 158.638 28.5015 157.979 29.5645C156.338 32.2105 157.27 35.6305 158.248 38.5855C158.531 39.7022 159.052 40.7442 159.777 41.6395C161.225 43.1785 163.584 43.3125 165.698 43.3395C167.236 43.3625 168.998 43.2855 169.97 42.0945C171.24 40.5385 170.352 38.1115 171.188 36.2855C171.947 34.6275 173.882 33.9155 175.634 33.4115C178.881 32.6167 182.063 31.5784 185.153 30.3055C188.922 28.5715 192.445 25.8695 196.588 25.6465C197.751 25.6941 198.916 25.6123 200.061 25.4025C200.632 25.2839 201.148 24.9795 201.528 24.5368C201.908 24.0941 202.131 23.538 202.161 22.9555C202.089 21.9635 201.25 21.2355 200.594 20.4875C199.938 19.7395 199.423 18.5875 200.026 17.7985L210.885 15.7705C210.115 13.6705 209.516 10.9095 211.285 9.54447C211.923 9.05147 212.778 8.85447 213.321 8.25947C214.247 7.24447 213.781 5.49547 212.712 4.63247C211.563 3.86383 210.211 3.45415 208.828 3.45546C204.057 3.16933 199.272 3.21176 194.507 3.58246L166.53 5.11646C164.653 5.21646 162.485 5.06246 160.763 5.70246C159.305 6.24446 158.269 7.24047 156.602 7.58947C153.521 8.22847 150.134 7.79546 147.349 9.52846Z" fill="#4085D6"/>
<path d="M196.106 32.2129C195.813 32.1664 195.514 32.2341 195.27 32.4019C195.109 32.5794 195.013 32.8065 194.998 33.0459C194.813 34.1025 195.033 35.1901 195.616 36.0909C195.913 36.5329 196.323 36.8874 196.803 37.1176C197.283 37.3478 197.816 37.4453 198.346 37.3999C199.639 37.2349 200.591 36.1319 201.779 35.5939C203.61 34.7649 211.388 33.4739 206.008 30.5669C204.154 29.5669 202.956 30.4499 201.494 31.1089C199.832 31.9598 197.969 32.3415 196.106 32.2129Z" fill="#4085D6"/>
<path d="M239.305 7.88372C238.677 8.14 238.151 8.59714 237.81 9.18373C237.653 9.48166 237.617 9.82848 237.708 10.1525C237.8 10.4765 238.012 10.753 238.302 10.9247C238.537 11.0097 238.786 11.0491 239.035 11.0407L241.589 11.1167C242.674 11.1487 244.03 11.3807 244.321 12.4257C244.537 13.2027 244.053 14.1997 244.638 14.7547C244.889 14.9491 245.191 15.0668 245.507 15.0937C246.349 15.3099 247.227 15.3382 248.081 15.1767C249.94 14.6767 248.963 13.5437 249.549 12.5337C250.449 10.9887 250.289 11.9237 251.868 11.0337C253.033 10.3797 254.539 9.19272 253.568 7.52572C251.875 4.63272 241.801 6.63772 239.305 7.88372Z" fill="#4085D6"/>
<path d="M286.419 6.42491L284.936 6.62491C281.578 6.97656 278.256 7.61216 275.006 8.5249C276.401 9.07623 277.864 9.43519 279.355 9.59191C280.176 9.63206 280.991 9.7479 281.791 9.93791C283.214 10.3619 284.648 11.4549 286.022 10.8949C286.874 10.5479 287.153 9.65991 287.859 9.18991C288.347 8.86491 290.196 8.3399 290.403 8.0119C292.073 5.3609 287.704 6.25291 286.419 6.42491Z" fill="#4085D6"/>
<path d="M292.077 13.1668C290.096 14.2748 288.257 15.6211 286.603 17.1758C286.217 17.4586 285.897 17.8218 285.664 18.2402C285.432 18.6587 285.293 19.1225 285.257 19.5998C285.341 20.8688 286.692 21.5998 287.863 22.0998L292.605 24.1078C293.18 23.2968 292.654 22.1778 292.059 21.3808C291.464 20.5838 290.759 19.6618 291.02 18.7038C291.32 17.6098 292.654 17.2368 293.773 17.0478C295.596 16.7408 300.513 16.7658 299.922 13.8278C299.226 10.3668 293.907 12.1438 292.077 13.1668Z" fill="#4085D6"/>
<path d="M290.701 199.66C290.44 200.302 290.331 200.995 290.38 201.687C290.43 202.378 290.638 203.049 290.988 203.647C291.468 204.26 292.115 204.72 292.851 204.974C293.588 205.228 294.381 205.263 295.137 205.077C296.648 204.674 297.994 203.808 298.987 202.601C299.895 201.588 300.643 200.441 301.202 199.201C301.983 197.27 302.534 195.254 302.843 193.195L304.315 185.465C304.644 183.737 304.631 178.441 301.456 180.165C300.589 180.637 298.58 184.359 297.671 185.414C296.033 187.314 295.816 189.162 294.953 191.467C293.871 194.36 291.7 196.76 290.701 199.66Z" fill="#4085D6"/>
<path d="M441.093 235.941C440.054 235.535 439.046 235.055 438.076 234.504C437.104 237.177 436.587 239.995 436.547 242.84L443.657 238.817C444.726 238.212 445.939 237.371 445.916 236.142C445.926 235.99 445.894 235.839 445.825 235.703C445.756 235.568 445.652 235.454 445.523 235.373C445.364 235.309 445.192 235.289 445.023 235.315C443.982 235.504 442.969 235.829 442.013 236.282C441.533 236.506 441.01 236.623 440.48 236.626C439.95 236.629 439.426 236.517 438.943 236.298" fill="#4085D6"/>
<path d="M478.6 238.334C477.82 238.547 477.057 238.82 476.32 239.152C474.688 239.982 473.578 241.559 472.11 242.652C470.649 243.624 469.043 244.359 467.353 244.831C467.251 244.956 467.177 245.1 467.135 245.255C467.093 245.41 467.084 245.573 467.109 245.732C467.134 245.89 467.193 246.042 467.281 246.176C467.368 246.311 467.484 246.426 467.619 246.512C468.189 246.837 468.843 246.983 469.497 246.934C471.22 247.121 472.963 246.853 474.55 246.156C475.401 245.604 476.198 244.972 476.929 244.268C478.761 242.871 480.775 241.732 482.917 240.882C483.681 240.594 484.388 240.171 485.004 239.634C486.324 238.334 486.416 236.329 484.514 235.886C482.976 235.525 480.062 237.858 478.6 238.334Z" fill="#4085D6"/>
<path d="M495.169 227.505C495.255 226.61 495.136 225.708 494.822 224.866C494.507 224.024 494.006 223.264 493.355 222.645C493.335 224.435 493.281 226.345 492.274 227.821C491.557 228.876 490.432 229.588 489.646 230.592C488.86 231.596 488.512 233.192 489.433 234.07C490.023 234.516 490.74 234.761 491.48 234.77C493.315 234.986 495.438 235.106 496.725 233.781C497.425 233.058 497.769 231.981 498.625 231.454C498.945 231.319 499.23 231.114 499.459 230.854C499.813 230.292 499.251 229.554 498.618 229.348C497.985 229.142 497.288 229.241 496.652 229.048C496.016 228.855 495.433 228.141 495.759 227.562" fill="#4085D6"/>
<path d="M465.719 166.429C464.756 166.663 463.759 166.722 462.776 166.603C461.143 166.303 459.876 165.072 458.553 164.062C455.418 161.676 451.607 160.346 447.668 160.262C444.085 160.194 440.468 161.162 436.948 160.488C437.119 161.117 437.433 161.697 437.865 162.184C438.298 162.671 438.836 163.052 439.44 163.296C440.608 163.866 441.897 164.153 443.07 164.712C444.95 165.615 446.441 167.166 447.27 169.079C447.563 169.993 447.962 170.87 448.458 171.691C449.628 173.265 451.846 173.611 453.803 173.482C456.355 173.314 459.02 172.582 461.394 173.531C463.21 174.258 464.51 175.848 466.026 177.084C467.542 178.32 469.678 179.237 471.419 178.345C469.611 177.76 468.036 176.611 466.927 175.068C465.817 173.525 465.229 171.667 465.25 169.766C466.958 169.923 471.876 169.866 471.611 166.961C471.384 164.498 467.186 166.164 465.719 166.429Z" fill="#4085D6"/>
<path d="M443.383 181.892C443.683 180.229 445.345 178.761 444.828 177.152C444.582 176.62 444.182 176.174 443.68 175.872C443.177 175.571 442.596 175.428 442.011 175.462C440.842 175.435 439.694 175.783 438.526 175.816C437.765 175.775 437.003 175.786 436.244 175.848C433.924 176.229 432.495 178.661 430.308 179.525C428.979 180.051 427.485 179.95 426.108 180.314C422.97 181.139 420.984 184.103 418.79 186.494C415.245 190.34 410.628 193.033 405.535 194.225C403.751 194.638 401.835 194.903 400.415 196.061C398.537 197.596 398.074 200.226 397.657 202.616C396.503 209.213 394.738 215.69 392.387 221.962L399.839 222.913C401.244 223.193 402.693 223.172 404.089 222.85C405.082 222.477 406.024 221.976 406.889 221.361C410.207 219.302 413.92 217.961 417.789 217.426C419.735 217.062 421.741 217.202 423.617 217.835C424.548 218.164 425.372 218.742 425.999 219.506C426.626 220.27 427.032 221.191 427.173 222.168C427.965 221.922 428.809 221.896 429.615 222.092C430.42 222.288 431.158 222.699 431.748 223.282C432.915 224.471 433.679 225.996 433.933 227.642C434.133 228.661 434.325 229.883 435.271 230.311C436.043 230.66 436.928 230.285 437.771 230.218C440.636 229.989 443.013 233.329 445.829 232.754C448.849 232.137 449.59 227.613 452.536 226.707C454.228 226.187 456.602 226.82 457.412 225.246C458.126 223.859 456.701 222.258 456.848 220.704C457.029 218.791 459.285 217.979 461.025 217.163C463.973 215.64 466.228 213.05 467.331 209.921C468.434 206.792 468.302 203.36 466.961 200.325C465.239 196.798 461.852 194.026 461.226 190.149C460.745 187.168 461.92 183.691 460.019 181.348C459.052 180.154 457.419 179.497 456.84 178.072C456.618 177.132 456.48 176.175 456.429 175.21C456.229 174.263 455.408 173.273 454.472 173.519C451.758 174.232 450.891 182.619 449.438 184.655C448.994 185.32 448.327 185.806 447.557 186.025C446.786 186.244 445.964 186.182 445.235 185.85C444.507 185.518 443.92 184.937 443.581 184.212C443.242 183.487 443.172 182.665 443.383 181.892Z" fill="#4085D6"/>
<path d="M393.203 169.57C392.302 169.209 391.307 169.158 390.374 169.425C389.485 169.797 388.966 171.102 389.679 171.749C395.254 171.369 400.852 171.477 406.409 172.074C412.785 172.947 419.095 175.11 425.498 174.474C421.84 173.394 418.122 172.532 414.362 171.89L408.093 170.69C406.411 170.338 404.712 170.075 403.002 169.904C399.426 169.611 396.719 170.556 393.203 169.57Z" fill="#4085D6"/>
<path d="M398.791 150.93C398.327 150.891 397.754 150.858 397.514 151.256C397.285 151.637 397.547 152.139 397.424 152.566C397.256 153.149 396.492 153.298 395.89 153.219C395.307 153.041 394.683 153.048 394.104 153.24C393.834 153.425 393.63 153.692 393.525 154.002C393.42 154.312 393.417 154.648 393.519 154.959C393.737 155.577 394.089 156.139 394.551 156.604C395.34 157.598 396.238 158.499 397.229 159.29C399.147 160.706 401.746 161.39 402.954 163.444C403.125 163.843 403.387 164.195 403.719 164.473C404.038 164.601 404.383 164.649 404.724 164.614C405.066 164.58 405.394 164.463 405.68 164.273L407.869 163.273C408.264 163.13 408.616 162.889 408.892 162.573C409.08 162.196 409.159 161.774 409.119 161.354C409.079 160.934 408.922 160.534 408.665 160.199C408.142 159.533 407.839 158.72 407.798 157.873C407.959 156.379 409.88 155.807 410.67 154.529C411.46 153.251 410.948 151.58 411.04 150.068C411.147 148.3 412.259 145.999 410.471 144.678C408.952 143.555 407.499 144.593 406.408 145.833C404.108 148.452 403.02 151.284 398.791 150.93Z" fill="#4085D6"/>
<path d="M412.079 125.642C412.826 127.073 414.384 127.927 415.199 129.32C416.082 130.83 415.982 132.782 416.94 134.246C417.923 135.746 419.902 136.546 420.453 138.254C421.053 140.119 419.689 142.386 420.778 144.016C420.981 144.283 421.237 144.504 421.53 144.666C421.823 144.828 422.147 144.928 422.48 144.958C422.814 144.989 423.15 144.95 423.468 144.844C423.786 144.738 424.078 144.567 424.326 144.342C424.786 143.843 425.032 143.183 425.012 142.505C424.992 141.826 424.707 141.183 424.219 140.711C423.574 140.123 422.649 139.869 422.111 139.183C421.831 138.787 421.644 138.332 421.565 137.853C421.271 136.472 421.318 135.04 421.702 133.681C421.844 133.336 421.879 132.956 421.802 132.59C421.56 131.89 420.602 131.836 419.937 131.509C418.417 130.767 418.454 128.622 418.719 126.951C418.542 128.063 414.58 126.172 414.165 125.542C413.341 124.29 413.79 121.876 413.626 120.493C412.762 120.994 412.122 121.805 411.834 122.762C411.547 123.718 411.634 124.748 412.079 125.642Z" fill="#4085D6"/>
<path d="M381.25 146.419C380.519 145.6 379.417 144.744 378.437 145.238C378.085 145.468 377.825 145.815 377.704 146.218C377.584 146.62 377.609 147.053 377.776 147.438C378.135 148.2 378.686 148.855 379.376 149.338C381.505 150.914 383.518 152.64 385.401 154.502C388.591 158.007 390.28 162.737 393.749 165.966C394.447 166.715 395.37 167.215 396.378 167.389C396.882 167.457 397.392 167.334 397.81 167.046C398.228 166.757 398.524 166.323 398.639 165.828C398.628 165.41 398.529 164.999 398.348 164.622C398.167 164.245 397.909 163.91 397.59 163.639C396.243 162.173 394.767 160.824 393.495 159.293C392.907 158.705 392.538 157.934 392.448 157.107C392.442 156.283 393.194 155.419 393.992 155.624C393.02 155.376 392.3 153.757 390.874 153.453C389.682 153.199 389.394 153.937 387.974 153.328C385.267 152.162 383.144 148.54 381.25 146.419Z" fill="#6686FE"/>
<path d="M435.729 70.5614C434.953 70.3309 434.19 70.0585 433.444 69.7454C431.435 69.1454 428.778 70.6184 429.044 72.6984C429.222 74.0804 430.508 75.0124 431.218 76.2104C432.271 77.9884 431.99 80.2424 431.437 82.2334C431.301 82.8499 431.043 83.4328 430.677 83.9474C430.166 84.4908 429.555 84.9305 428.877 85.2424C426.164 86.7633 423.772 88.7954 421.833 91.2264C421.623 91.4505 421.476 91.7267 421.408 92.0264C421.308 92.7264 422.018 93.2404 422.417 93.8264C423.304 95.1264 422.663 96.8784 422.75 98.4504C422.736 98.6727 422.78 98.8947 422.876 99.0955C422.973 99.2962 423.119 99.469 423.301 99.5974C423.835 99.8684 424.468 99.4074 424.758 98.8834C425.719 97.1424 424.995 94.3474 426.798 93.5074C427.139 93.3484 427.553 93.2814 427.78 92.9824C428.141 92.5074 427.793 91.8034 427.98 91.2354C428.255 90.3824 429.421 90.3444 430.317 90.3824C431.859 90.4467 433.401 90.2413 434.873 89.7754C435.45 89.6382 435.975 89.3347 436.381 88.9024C436.605 88.5338 436.754 88.1248 436.82 87.6985C436.885 87.2723 436.866 86.8373 436.764 86.4184C436.225 82.155 434.874 78.0342 432.786 74.2784C434.37 74.4784 436.093 74.6564 437.46 73.8304C438.225 73.3684 439.143 71.9864 438.76 71.0454C438.161 69.5584 437.078 70.8084 435.729 70.5614Z" fill="#4085D6"/>
<path d="M254.258 89.3559C254.533 90.3576 254.548 91.413 254.301 92.4219C254.16 92.9203 253.84 93.3491 253.403 93.626C252.965 93.9029 252.441 94.0083 251.93 93.9219C251.162 93.6889 250.718 92.922 250.173 92.328C247.14 89.054 240.298 90.949 238.424 86.899C237.659 85.246 238.179 83.2649 237.658 81.5199C237.329 80.5114 236.674 79.6407 235.797 79.0445C234.919 78.4483 233.869 78.1604 232.81 78.226C231.844 78.3655 230.904 78.6462 230.02 79.0589C224.096 81.4311 217.878 82.9864 211.535 83.682C210.329 83.7554 209.137 83.9723 207.983 84.328C205.383 85.272 203.599 87.687 202.333 90.151C201.067 92.615 200.133 95.282 198.433 97.471C196.649 99.771 194.148 101.383 191.816 103.125C190.917 103.704 190.169 104.488 189.633 105.413C189.214 106.494 189.063 107.661 189.195 108.813L189.672 122.83C189.606 124.639 189.928 126.44 190.617 128.114C191.625 130.129 193.617 131.448 194.996 133.228C196.406 135.058 197.14 137.319 197.074 139.628C197.045 140.556 196.952 141.653 197.674 142.236C198.114 142.521 198.628 142.669 199.152 142.661L218.113 144.213C221.448 144.486 225.145 144.935 227.322 147.476C228.35 148.676 229.175 150.4 230.749 150.529C231.425 150.49 232.096 150.398 232.757 150.253C234.457 150.118 235.957 151.411 236.902 152.836C238.331 155.007 238.98 157.6 238.742 160.188C238.587 161.813 238.083 163.388 237.975 165.021C237.562 171.221 242.815 176.602 242.917 182.812C242.977 186.465 241.243 189.877 239.552 193.112C242.281 197.245 240.047 202.75 241.133 207.582C242.163 212.166 245.986 215.755 246.938 220.357C247.374 222.463 247.399 225.057 249.257 226.141C250.072 226.538 250.976 226.719 251.881 226.666C257.341 226.731 262.738 225.502 267.632 223.08C269.932 221.94 272.309 220.239 272.71 217.706C273.033 215.664 271.998 213.379 273.052 211.6C274.294 209.5 277.476 209.67 279.304 208.058C282.269 205.443 279.957 200.458 281.158 196.689C282.238 193.303 285.958 191.504 287.798 188.466C288.523 187.159 289.044 185.749 289.341 184.284C290.185 180.783 290.711 177.213 290.911 173.618C290.96 171.433 291.121 169.253 291.394 167.085C293.381 154.742 305.583 146.477 309.544 134.62C309.923 133.488 310.1 131.979 309.093 131.338C308.496 131.053 307.818 130.983 307.175 131.138L298.435 132.238C297.361 132.473 296.242 132.408 295.202 132.052C294.693 131.853 294.282 131.461 294.061 130.96C293.839 130.46 293.824 129.893 294.019 129.382C295.504 126.693 292.45 123.295 291.093 120.539C287.44 113.118 283.09 106.062 278.101 99.4649C277.781 99.1257 277.581 98.6913 277.531 98.2279L280.012 98.311C279.175 95.311 277.792 92.018 274.874 90.919C273.173 90.4574 271.395 90.3522 269.652 90.61C264.491 90.7137 259.334 90.2936 254.258 89.3559Z" fill="#4085D6"/>
<path d="M271.147 20.3545C272.462 21.7545 273.937 23.2325 275.84 23.4755C279.202 23.9055 281.619 20.4295 283.158 17.4095C283.215 18.1793 283.57 18.8965 284.148 19.4086C284.725 19.9207 285.48 20.1872 286.251 20.1515C287.081 20.012 287.873 19.7025 288.577 19.2425C295.237 15.6024 302.698 13.6736 310.288 13.6295C310.215 13.0545 310.357 12.4728 310.688 11.9967C311.018 11.5206 311.514 11.1839 312.078 11.0515C313.621 10.7455 315.011 12.0795 315.756 13.4655C316.501 14.8515 316.965 16.4575 318.147 17.4955C319.329 18.5335 321.62 18.4875 322.087 16.9855C322.535 15.5435 321.033 14.3135 319.787 13.4625C318.541 12.6115 317.223 11.0385 318.064 9.78351C324.441 8.37151 330.858 6.95451 337.384 6.67451C338.495 6.7132 339.602 6.52257 340.636 6.11452C341.148 5.89773 341.574 5.51842 341.848 5.03525C342.122 4.55207 342.23 3.99195 342.154 3.44151C340.73 3.77601 339.238 3.67882 337.87 3.16234C336.501 2.64585 335.317 1.73346 334.469 0.541503C343.524 -0.205497 353.155 -0.842483 361.179 3.41852C362.142 5.48552 357.234 7.20551 358.547 9.07051C358.804 9.32783 359.117 9.52276 359.461 9.6403C359.805 9.75785 360.171 9.79486 360.532 9.7485C366.107 10.0099 371.693 9.79682 377.232 9.11151C379.224 8.67092 381.268 8.50505 383.305 8.61851C386.674 9.03451 389.556 11.2825 392.871 12.0185C393.535 12.2139 394.232 12.2724 394.92 12.1906C395.607 12.1088 396.271 11.8883 396.871 11.5425C397.158 11.3569 397.404 11.1152 397.595 10.832C397.787 10.5488 397.919 10.2299 397.983 9.89438C398.048 9.55889 398.045 9.21377 397.973 8.87973C397.901 8.54569 397.762 8.22963 397.565 7.95051C400.686 4.89151 405.865 5.65052 409.983 7.11452C414.101 8.57852 418.001 10.9405 422.359 11.2675C425.484 11.5015 428.652 10.6605 431.74 11.1955C433.649 11.6763 435.532 12.2534 437.383 12.9245C440.97 13.9245 444.764 13.7155 448.489 13.7645C457.991 13.8925 467.39 15.7599 476.219 19.2745C477.368 19.6484 478.42 20.27 479.302 21.0955C479.735 21.5163 480.032 22.0571 480.154 22.6481C480.277 23.2391 480.22 23.8533 479.99 24.4115L470.866 23.0785C471.725 24.7705 473.949 25.0595 475.756 25.6425C477.563 26.2255 479.435 28.2205 478.349 29.7775C476.392 29.1545 474.619 31.1105 473.63 32.9105C472.641 34.7105 471.437 36.8665 469.386 36.9765C467.55 37.0765 465.329 35.5115 464.132 36.9075C465.786 38.9938 467.202 41.2577 468.354 43.6575C469.536 46.1215 470.379 49.2255 468.78 51.4415C468.529 51.8374 468.147 52.1334 467.701 52.2785C466.396 52.6085 465.547 51.0125 464.611 50.0445C463.431 48.8245 461.647 48.4795 460.05 47.9075C458.453 47.3355 456.77 46.2075 456.645 44.5185C456.702 43.463 457.006 42.4355 457.532 41.5185C458.22 39.8784 458.521 38.1018 458.412 36.3265C458.403 34.8808 457.864 33.4887 456.896 32.4145C456.398 31.8978 455.733 31.5741 455.019 31.5009C454.305 31.4277 453.589 31.6096 452.996 32.0145C452.482 32.4405 452.071 33.1235 451.403 33.1485C450.224 33.1935 449.319 31.1385 448.37 31.8395C448.481 32.587 448.326 33.3497 447.932 33.9945C445.102 36.4565 440.753 35.4145 437.104 36.2845C435.369 36.781 433.708 37.5064 432.164 38.4415C431.587 38.6883 431.095 39.1007 430.752 39.6265C430.575 40.0927 430.563 40.6055 430.717 41.0797C430.871 41.5538 431.183 41.961 431.601 42.2335C432.452 42.7555 433.408 43.082 434.401 43.1895C438.85 44.0315 443.363 45.3365 446.875 48.1895C450.387 51.0425 452.69 55.7705 451.575 60.1595L442.802 51.7765C443.135 55.2965 443.324 58.8258 443.369 62.3645C443.426 63.0556 443.331 63.7509 443.091 64.4015C442.466 65.7825 440.771 66.2475 439.285 66.5525C438.872 66.6309 438.48 66.7959 438.135 67.0365C437.79 67.2771 437.5 67.588 437.284 67.9487C437.068 68.3094 436.93 68.7117 436.881 69.1293C436.831 69.5468 436.87 69.9702 436.996 70.3715C437.682 72.0418 438.722 73.5431 440.045 74.7715C441.371 76.0069 442.264 77.6362 442.593 79.4185C442.751 81.2105 441.398 83.2315 439.604 83.1065C438.243 83.0115 437.234 81.7935 436.653 80.5595C436.21 79.2691 435.605 78.0401 434.853 76.9015C432.213 73.7275 426.285 75.0875 423.92 71.7015C423.317 72.3852 422.899 73.2116 422.706 74.1023C422.512 74.993 422.549 75.9183 422.814 76.7905C423.914 76.1015 425.42 76.7415 426.246 77.7425C426.961 78.8247 427.585 79.9642 428.111 81.1495C428.987 82.6665 430.381 84.0105 430.503 85.7575C430.47 86.4182 430.481 87.0803 430.536 87.7395C430.753 88.7985 431.648 89.5585 432.268 90.4395C432.923 91.517 433.305 92.7378 433.382 93.9963C433.459 95.2549 433.229 96.5132 432.71 97.6625C431.65 99.9485 430.211 102.038 428.452 103.842C425.643 107.222 422.541 110.346 419.182 113.178C418.142 113.883 417.249 114.782 416.551 115.827C416.215 116.357 416.063 116.984 416.117 117.61C416.171 118.235 416.429 118.826 416.851 119.292C416.181 119.326 414.98 119.654 414.31 119.691C414.074 117.004 414.023 114.304 414.157 111.609C411.514 110.34 408.667 113.739 409.008 116.652C409.349 119.565 411.456 121.903 412.955 124.423C414.173 126.21 414.72 128.371 414.501 130.523C414.135 132.636 412.249 134.585 410.112 134.398C406.712 134.098 405.293 129.223 401.927 128.665C401.63 128.596 401.318 128.627 401.041 128.754C400.541 129.028 400.455 129.697 400.427 130.266C400.289 133.059 400.17 135.965 401.261 138.538C402.856 142.305 406.977 145.469 406.112 149.467C401.455 147.303 399.034 142.081 397.935 137.068C396.836 132.055 396.653 126.786 394.682 122.044C393.182 123.962 390.041 122.376 388.674 120.364C387.374 118.457 386.58 116.249 385.322 114.316C384.064 112.383 382.138 110.653 379.835 110.547C377.42 110.436 375.325 112.093 373.483 113.659C371.882 114.846 370.536 116.345 369.528 118.065C368.24 120.655 368.576 123.709 368.515 126.602C368.448 129.729 367.785 133.027 365.654 135.316C363.523 137.605 359.589 138.404 357.239 136.34C356.102 135.156 355.292 133.699 354.888 132.109C352.337 124.662 350.212 117.077 348.524 109.389C348.124 111.144 346.588 113.406 345.116 112.372C344.786 112.094 344.518 111.749 344.331 111.359C341.585 106.705 336.5 103.915 331.363 102.241C326.226 100.567 320.82 99.7865 315.74 97.9465C312.894 96.9151 310.177 95.5606 307.64 93.9095C306.993 94.8601 306.615 95.9679 306.546 97.1158C306.478 98.2636 306.721 99.4086 307.25 100.43C307.818 101.429 308.701 102.212 309.761 102.656C310.822 103.1 312 103.18 313.11 102.883C314.238 102.523 315.191 101.739 316.31 101.353C317.429 100.967 318.932 101.152 319.421 102.234C319.89 103.266 319.181 104.516 319.533 105.594C320.068 107.236 322.544 107.361 323.409 108.855C323.666 109.446 323.727 110.103 323.582 110.731C323.437 111.358 323.094 111.922 322.603 112.34C321.607 113.152 320.508 113.829 319.334 114.353C315.692 116.379 313.101 119.836 309.917 122.527C306.733 125.218 302.242 127.182 298.448 125.456C299.348 120.876 293.897 117.514 292.894 112.956C292.564 111.456 292.735 109.861 292.263 108.398C291.58 106.282 289.702 104.825 288.163 103.221C286.294 101.254 284.838 98.9328 283.881 96.3939C282.924 93.8549 282.485 91.1499 282.59 88.4385C282.673 86.5545 283.019 84.6385 282.59 82.8035C282.161 80.9685 280.64 79.1895 278.756 79.2725C274.456 79.4625 269.032 79.7825 266.774 76.1145C265.968 74.8055 265.618 72.8875 266.783 71.8845C267.241 71.5934 267.752 71.3961 268.286 71.3043C268.821 71.2124 269.368 71.2278 269.897 71.3495L279.597 72.3035C281.865 72.5265 284.316 72.7105 286.262 71.5255C288.208 70.3405 289.051 67.1935 287.249 65.7985C285.932 64.7795 283.574 64.8345 283.191 63.2145C282.872 61.8655 284.366 60.3335 283.559 59.2065C282.981 58.3975 281.68 58.6225 280.892 59.2285C280.203 59.943 279.453 60.5961 278.65 61.1805C277.103 61.9855 275.25 61.2195 273.59 60.6985C271.93 60.1775 269.69 60.1335 268.89 61.6795C267.99 63.4085 269.69 65.6745 268.79 67.4065C267.605 69.6975 263.59 68.3935 261.929 70.3635C260.02 72.6245 263.229 75.9955 262.584 78.8835C261.762 79.2909 260.849 79.4779 259.933 79.4264C259.017 79.3749 258.13 79.0865 257.359 78.5895C256.6 78.0735 255.996 77.3616 255.609 76.5294C255.223 75.6973 255.07 74.776 255.165 73.8635C255.324 72.5635 256.002 71.2375 255.548 70.0105C255.057 69.062 254.245 68.3181 253.258 67.9105L243.836 62.7035C242.961 64.3265 244.067 66.3385 245.45 67.5565C246.833 68.7745 248.566 69.6935 249.474 71.2975C250.049 72.4089 250.178 73.6979 249.834 74.9011C249.491 76.1044 248.701 77.1311 247.626 77.7715C247.491 77.8645 247.338 77.9272 247.177 77.9553C247.016 77.9834 246.85 77.9763 246.692 77.9345C246.541 77.8463 246.41 77.7286 246.306 77.5886C246.202 77.4486 246.127 77.2891 246.086 77.1195C244.424 72.8655 241.928 68.6705 237.937 66.4485C233.946 64.2265 228.213 64.6835 225.596 68.4265C224.974 69.3155 224.557 70.3265 224.016 71.2695C221.139 76.2645 214.972 78.6295 209.211 78.4745C208.647 78.5058 208.087 78.3742 207.596 78.0955C206.665 77.4525 206.707 76.0875 206.849 74.9655L207.449 70.2015C207.452 69.2279 207.83 68.2928 208.504 67.5905C209.572 66.7485 211.111 67.2795 212.47 67.2605C213.5 67.2123 214.49 66.8487 215.306 66.2189C216.122 65.589 216.725 64.7235 217.033 63.7395C217.308 62.7458 217.306 61.696 217.028 60.7032C216.75 59.7104 216.207 58.8122 215.456 58.1055C214.833 57.5205 213.997 56.7855 214.326 55.9965C214.457 55.7783 214.635 55.5915 214.846 55.4493C215.058 55.3072 215.297 55.213 215.549 55.1735C217.991 54.4645 220.571 54.2785 222.971 53.4415C225.371 52.6045 227.701 50.8935 228.271 48.4145C228.445 47.6555 228.525 46.7355 229.207 46.3585C229.549 46.214 229.917 46.1389 230.288 46.1375C231.59 45.9524 232.775 45.2867 233.611 44.2713C234.446 43.2559 234.871 41.9646 234.802 40.6515C235.953 39.8515 237.565 40.4395 238.678 41.2945C239.791 42.1495 240.778 43.2795 242.128 43.6485C244.652 44.3355 247.092 42.1005 249.708 42.0905C250.808 42.0905 251.947 42.4755 252.982 42.1025C254.017 41.7295 254.658 40.6795 255.463 39.9085C256.268 39.1375 257.681 38.6665 258.425 39.4975L257.792 34.8075C259.067 35.129 260.395 35.1742 261.689 34.9402C262.982 34.7061 264.211 34.1982 265.292 33.4505L257.108 30.6855C256.823 30.6144 256.56 30.4739 256.343 30.2765C255.748 29.6355 256.343 28.6375 256.823 27.9095C257.98 26.1675 258.175 23.2975 256.271 22.4305C254.971 21.8385 253.481 22.5495 252.234 23.2445L246.261 26.5745C246.071 27.7095 247.461 28.3535 248.32 29.1185C248.841 29.5812 249.209 30.1905 249.377 30.8664C249.545 31.5423 249.504 32.2532 249.261 32.9057C249.017 33.5582 248.582 34.1218 248.013 34.5224C247.443 34.923 246.765 35.142 246.069 35.1505C246.462 35.6619 246.736 36.2552 246.869 36.8865C247.002 37.5178 246.991 38.1709 246.837 38.7975L242.818 39.0865C242.368 39.1764 241.901 39.0852 241.518 38.8325C241.088 38.4505 241.146 37.7815 241.047 37.2155C240.866 36.5435 240.49 35.9404 239.966 35.4828C239.442 35.0251 238.793 34.7337 238.103 34.6455C236.72 34.4944 235.32 34.6236 233.988 35.0255C233.414 35.2321 232.783 35.2175 232.219 34.9845C231.895 34.7746 231.65 34.4644 231.519 34.1015C231.284 33.3582 231.245 32.5668 231.405 31.8039C231.565 31.0409 231.918 30.332 232.432 29.7455C233.47 28.5875 234.617 27.5322 235.858 26.5945C238.657 24.1383 240.714 20.9482 241.796 17.3845C244.008 16.4575 246.296 15.1985 248.511 14.2715C251.922 12.5447 255.746 11.8036 259.555 12.1315L267.047 12.2745C269.269 12.1806 271.489 12.5 273.594 13.2165C274.642 13.5895 275.569 14.2422 276.273 15.1039C276.977 15.9657 277.432 17.0037 277.589 18.1055C277.632 18.3561 277.61 18.6135 277.526 18.8535C277.442 19.0935 277.299 19.3082 277.109 19.4775C276.819 19.6357 276.491 19.7098 276.162 19.6915C274.098 19.7665 273.216 20.2815 271.147 20.3545Z" fill="#4085D6"/>
<path d="M213.319 51.1201C213.611 50.8438 213.822 50.4923 213.928 50.1043C214.033 49.7162 214.03 49.3066 213.919 48.9201C213.207 48.645 212.432 48.5741 211.682 48.7154C210.932 48.8568 210.236 49.2047 209.673 49.7201C209.229 50.1679 208.847 50.6722 208.535 51.2201C207.551 52.8261 206.68 54.7451 207.25 56.5401C207.296 56.7359 207.382 56.9205 207.501 57.083C207.619 57.2454 207.769 57.3825 207.942 57.4861C208.198 57.5886 208.473 57.6317 208.748 57.6121C209.833 57.6106 210.916 57.5438 211.993 57.4121C212.654 57.3311 213.422 57.1441 213.677 56.5291C214.013 55.7201 213.2 54.8051 213.437 53.9631C213.593 53.5863 213.829 53.2481 214.129 52.9721C214.278 52.8331 214.392 52.6613 214.463 52.4703C214.534 52.2794 214.559 52.0746 214.537 51.8721C214.437 51.4721 213.837 51.2521 213.618 51.5961" fill="#4085D6"/>
<path d="M218.265 44.0215C217.302 43.8002 216.309 43.7377 215.325 43.8365C215.107 43.8298 214.892 43.8786 214.698 43.9785C214.511 44.1167 214.375 44.3134 214.312 44.5375C214.106 45.2037 214.157 45.9233 214.457 46.5532C214.756 47.1831 215.282 47.6772 215.929 47.9375C216.281 48.018 216.619 48.153 216.929 48.3375C217.761 48.9825 217.229 50.3015 217.388 51.3375C217.565 52.5065 218.696 53.4865 218.488 54.6505C218.324 55.5675 217.345 56.2925 217.503 57.2105C217.668 58.1715 218.888 58.4605 219.86 58.5375C220.424 58.6363 221.004 58.5699 221.53 58.3465C222.058 57.9854 222.433 57.4418 222.583 56.8205C222.981 55.6359 223.149 54.386 223.076 53.1385C223.072 52.5711 222.929 52.0134 222.661 51.5135C222.368 51.1174 222.044 50.7458 221.691 50.4025C219.832 48.2475 221.792 45.0165 218.265 44.0215Z" fill="#4085D6"/>
<path opacity="0.8" d="M438.917 209.8C438.917 209.8 311.407 127.913 256.517 143.428C256.517 143.428 140.18 157.435 126.696 188.25C126.696 188.25 89.7149 58.9495 76.2319 54.6445" stroke="white" stroke-width="2" stroke-miterlimit="10"/>
<path opacity="0.8" d="M126.691 188.299C148.071 124.513 340.683 53.832 340.683 53.832C313.332 61.59 256.511 143.477 256.511 143.477C256.511 143.477 136.321 45.643 76.226 54.694C76.226 54.694 340.874 64.3941 438.914 209.848" stroke="white" stroke-width="2" stroke-miterlimit="10"/>
<path d="M76.227 61.1367C79.6783 61.1367 82.476 58.3389 82.476 54.8877C82.476 51.4364 79.6783 48.6387 76.227 48.6387C72.7758 48.6387 69.978 51.4364 69.978 54.8877C69.978 58.3389 72.7758 61.1367 76.227 61.1367Z" fill="white"/>
<path d="M126.388 192.502C129.839 192.502 132.637 189.704 132.637 186.253C132.637 182.802 129.839 180.004 126.388 180.004C122.937 180.004 120.139 182.802 120.139 186.253C120.139 189.704 122.937 192.502 126.388 192.502Z" fill="white"/>
<path d="M336.799 61.1367C340.25 61.1367 343.048 58.3389 343.048 54.8877C343.048 51.4364 340.25 48.6387 336.799 48.6387C333.348 48.6387 330.55 51.4364 330.55 54.8877C330.55 58.3389 333.348 61.1367 336.799 61.1367Z" fill="white"/>
<path d="M441.231 217.675C444.682 217.675 447.48 214.877 447.48 211.426C447.48 207.975 444.682 205.177 441.231 205.177C437.78 205.177 434.982 207.975 434.982 211.426C434.982 214.877 437.78 217.675 441.231 217.675Z" fill="white"/>
<path d="M256.554 150.453C260.005 150.453 262.803 147.655 262.803 144.204C262.803 140.753 260.005 137.955 256.554 137.955C253.103 137.955 250.305 140.753 250.305 144.204C250.305 147.655 253.103 150.453 256.554 150.453Z" fill="white"/>
</svg>
