<svg xmlns="http://www.w3.org/2000/svg" width="84" height="84" viewBox="0 0 84 84"><defs><style>.a{fill:#103e83;fill-rule:evenodd;}</style></defs><g transform="translate(-1572 -5111.861)"><path class="a" d="M1608.769,5161.729l13.662-7.869-13.662-7.869Z"/><path class="a" d="M1614,5111.861a42,42,0,1,0,42,42,42.005,42.005,0,0,0-42-42Zm26.244,42.043s0,8.518-1.081,12.625a6.575,6.575,0,0,1-4.626,4.626c-4.107,1.081-20.537,1.081-20.537,1.081s-16.386,0-20.537-1.124a6.578,6.578,0,0,1-4.626-4.627c-1.081-4.063-1.081-12.624-1.081-12.624s0-8.517,1.081-12.625a6.71,6.71,0,0,1,4.626-4.669c4.108-1.081,20.537-1.081,20.537-1.081s16.43,0,20.537,1.124a6.575,6.575,0,0,1,4.626,4.626C1640.287,5145.344,1640.244,5153.9,1640.244,5153.9Z"/></g></svg>