<svg xmlns="http://www.w3.org/2000/svg" width="84" height="84" viewBox="0 0 84 84"><defs><style>.a{fill:#103e83;fill-rule:evenodd;}</style></defs><g transform="translate(-1176.053 -5111.861)"><path class="a" d="M1224.825,5195.315q-.525.086-1.053.157Q1224.3,5195.4,1224.825,5195.315Zm0,0"/><path class="a" d="M1225.665,5195.171c-.167.031-.334.059-.5.088C1225.331,5195.23,1225.5,5195.2,1225.665,5195.171Zm0,0"/><path class="a" d="M1222.833,5195.589q-.614.069-1.234.122Q1222.218,5195.658,1222.833,5195.589Zm0,0"/><path class="a" d="M1223.64,5195.49c-.2.026-.4.051-.592.074C1223.245,5195.541,1223.443,5195.516,1223.64,5195.49Zm0,0"/><path class="a" d="M1226.809,5194.944c-.148.032-.3.063-.444.093C1226.513,5195.007,1226.661,5194.976,1226.809,5194.944Zm0,0"/><path class="a" d="M1229.646,5194.239c-.119.034-.238.066-.357.1C1229.408,5194.305,1229.527,5194.273,1229.646,5194.239Zm0,0"/><path class="a" d="M1228.788,5194.473q-.193.052-.39.1Q1228.595,5194.525,1228.788,5194.473Zm0,0"/><path class="a" d="M1227.665,5194.754c-.137.032-.275.062-.413.093C1227.39,5194.816,1227.528,5194.786,1227.665,5194.754Zm0,0"/><path class="a" d="M1221.585,5195.712q-.331.027-.664.05Q1221.254,5195.74,1221.585,5195.712Zm0,0"/><path class="a" d="M1260.053,5153.861a42,42,0,1,0-42,42c.247,0,.492,0,.738-.01v-32.7h-9.023V5152.64h9.023V5144.9c0-8.975,5.479-13.86,13.485-13.86a74.112,74.112,0,0,1,8.09.414v9.379h-5.521c-4.355,0-5.2,2.071-5.2,5.108v6.7h10.414l-1.357,10.516h-9.057v31.082A42.02,42.02,0,0,0,1260.053,5153.861Zm0,0"/><path class="a" d="M1220.828,5195.768q-.656.042-1.316.065Q1220.172,5195.81,1220.828,5195.768Zm0,0"/><path class="a" d="M1219.489,5195.834c-.232.008-.464.014-.7.017C1219.025,5195.848,1219.257,5195.842,1219.489,5195.834Zm0,0"/></g></svg>