<svg width="462" height="368" viewBox="0 0 462 368" fill="none" xmlns="http://www.w3.org/2000/svg">
<path opacity="0.1" d="M271.173 62.9448C241.997 61.9308 214.206 52.5138 187.673 42.2078C161.14 31.9018 134.859 20.4868 106.382 15.0248C88.0661 11.5128 67.1181 11.0168 52.3631 20.8358C38.1631 30.3028 33.5691 46.5988 31.1031 61.7358C29.2461 73.1228 28.1551 85.1048 33.2441 95.7668C36.7741 103.167 43.0441 109.39 47.3761 116.504C62.4641 141.172 51.8031 171.591 35.4521 195.677C27.7881 206.977 18.8851 217.766 12.9711 229.784C7.0571 241.802 4.3161 255.592 9.4911 267.863C14.6261 280.034 26.8561 289.163 40.1001 295.582C67.0081 308.633 98.7001 312.365 129.633 314.482C198.077 319.166 266.883 317.137 335.507 315.109C360.907 314.356 386.407 313.594 411.394 309.668C425.27 307.486 439.594 304.029 449.667 295.668C462.452 285.061 465.621 267.096 457.056 253.798C442.68 231.488 402.956 225.948 392.899 201.998C387.372 188.821 393.052 174.143 401.085 161.918C418.324 135.7 447.215 112.696 448.739 82.7268C449.785 62.1388 435.891 41.5268 414.415 31.7868C391.907 21.5398 360.685 22.8388 344.086 39.7388C326.984 57.1558 296.934 63.8368 271.173 62.9448Z" fill="#344BA3"/>
<path d="M197.06 312.27L42.7599 311.517L27.4299 275.559L81.6429 271.624L72.1939 232.197L179.42 218.297L76.7429 182.605L85.8129 180.45L250.913 207.385L241.82 268.914L228.82 302.728L197.06 312.27Z" fill="#344BA3"/>
<path d="M45.1279 296.458C45.1279 296.458 54.5949 294.943 60.2749 301.633C60.2749 301.633 56.1099 304.915 47.1479 300.371L45.1279 296.458Z" fill="#344BA3"/>
<path d="M44.1369 296.31C44.1369 296.31 38.0959 303.744 41.0719 312.02C41.0719 312.02 45.9949 310.05 46.5309 300.02L44.1369 296.31Z" fill="#344BA3"/>
<path d="M38.709 284.088C38.709 284.088 42.496 277.141 57.642 286.865C57.642 286.865 55.622 291.535 48.933 291.157C42.244 290.779 40.476 287.749 38.709 284.088Z" fill="#344BA3"/>
<path d="M37.7311 283.589C37.7311 283.589 29.8741 282.689 29.1121 300.674C29.1121 300.674 34.0931 301.705 37.6321 296.016C41.1711 290.327 39.7191 287.137 37.7311 283.589Z" fill="#344BA3"/>
<path d="M33.155 269.239C33.155 269.239 37.573 256.995 53.603 265.705C53.603 265.705 49.943 276.939 34.796 273.405L33.155 269.239Z" fill="#344BA3"/>
<path d="M28.2329 250.937C28.2329 250.937 36.5639 238.567 51.3329 250.037C51.3329 250.037 46.1579 261.649 29.4959 255.337L28.2329 250.937Z" fill="#344BA3"/>
<path d="M26.4651 233.517C26.4651 233.517 36.1841 222.152 50.8081 233.517C50.8081 233.517 41.5941 243.489 26.4651 236.417V233.517Z" fill="#344BA3"/>
<path d="M24.9509 216.6C24.9509 216.6 34.7959 204.735 48.8069 215.969C48.8069 215.969 37.6989 226.445 24.9509 219.377V216.6Z" fill="#344BA3"/>
<path d="M25.834 201.579C25.834 201.579 36.202 186.306 49.311 196.656C49.311 196.656 38.203 209.783 25.834 204.482V201.579Z" fill="#344BA3"/>
<path d="M28.2329 184.034C28.2329 184.034 39.2139 168.887 51.9629 180.5C51.9629 180.5 38.9629 193.627 28.2329 186.811V184.034Z" fill="#344BA3"/>
<path d="M31.8929 168.351C31.8929 168.351 44.8929 154.115 56.2359 159.786C56.2359 159.786 42.69 174.906 31.325 172.129L31.8929 168.351Z" fill="#344BA3"/>
<path d="M36.437 153.483C36.437 153.483 51.4371 136.046 60.1671 141.87C60.1671 141.87 49.113 155.394 35.373 156.746L36.437 153.483Z" fill="#344BA3"/>
<path d="M42.9969 136.235C42.9969 136.235 56.1289 121.999 65.7219 125.535C65.7219 125.535 54.4879 140.303 41.2349 140.682L42.9969 136.235Z" fill="#344BA3"/>
<path d="M48.933 120.111C48.933 120.111 63.449 106.479 69.76 108.877C69.76 108.877 59.283 124.024 48.302 123.14L48.933 120.111Z" fill="#344BA3"/>
<path d="M54.739 105.216C54.739 105.216 67.239 88.9288 74.056 90.1908C74.056 90.1908 66.478 104.711 54.739 106.87V105.216Z" fill="#344BA3"/>
<path d="M61.0409 85.1328C61.0409 85.1328 72.0859 72.6478 78.0539 72.6778C78.0539 72.6778 69.3359 89.3568 60.5859 89.2038L61.0409 85.1328Z" fill="#344BA3"/>
<path d="M64.774 71.7627L75.444 45.7627C75.444 45.7627 75.976 69.2627 63.417 76.5877L64.774 71.7627Z" fill="#344BA3"/>
<path d="M69.1039 43.0875C69.1039 43.0875 70.8709 21.3725 69.7349 19.6055C69.7349 19.6055 77.3619 37.6595 69.0349 52.6805L69.1039 43.0875Z" fill="#344BA3"/>
<path d="M32.7409 268.95C32.7409 268.95 21.6779 262.093 14.5149 278.868C14.5149 278.868 24.3599 285.405 34.0439 273.229L32.7409 268.95Z" fill="#344BA3"/>
<path d="M27.8771 250.238C27.8771 250.238 14.3081 244.049 7.72607 261.562C7.72607 261.562 18.2071 268.775 29.1121 254.662L27.8771 250.238Z" fill="#344BA3"/>
<path d="M25.834 234.558C25.834 234.558 16.115 223.193 1.49097 234.558C1.49097 234.558 10.705 244.53 25.834 237.458V234.558Z" fill="#344BA3"/>
<path d="M24.617 216.6C24.617 216.6 14.772 204.735 0.760986 215.969C0.760986 215.969 11.869 226.445 24.617 219.377V216.6Z" fill="#344BA3"/>
<path d="M25.8369 202.012C25.8369 202.012 18.9309 184.904 3.91895 192.261C3.91895 192.261 12.0329 207.43 25.2189 204.852L25.8369 202.012Z" fill="#344BA3"/>
<path d="M29.1029 183.948C29.1029 183.948 22.2369 166.543 7.01392 174.612C7.01392 174.612 16.3359 190.566 28.4269 186.635L29.1029 183.948Z" fill="#344BA3"/>
<path d="M33.358 168.436C33.358 168.436 30.658 149.355 18.031 147.646C18.031 147.646 20.709 167.769 31.659 171.875L33.358 168.436Z" fill="#344BA3"/>
<path d="M36.7569 153.52C36.7569 153.52 35.7019 130.529 25.2659 129.727C25.2659 129.727 25.6179 147.177 35.5799 156.775L36.7569 153.52Z" fill="#344BA3"/>
<path d="M44.0779 135.596C44.0779 135.596 40.9679 116.478 31.0049 114.143C31.0049 114.143 32.2399 132.657 43.0909 140.289L44.0779 135.596Z" fill="#344BA3"/>
<path d="M50.1151 120.268C50.1151 120.268 50.0151 100.352 43.9261 97.4258C43.9261 97.4258 40.1531 115.458 48.3531 122.81L50.1151 120.268Z" fill="#344BA3"/>
<path d="M55.2039 104.991C55.2039 104.991 54.3519 84.4838 48.0499 81.5908C48.0499 81.5908 45.8949 97.8198 54.2619 106.331L55.2039 104.991Z" fill="#344BA3"/>
<path d="M61.9209 86.7668C61.9209 86.7668 61.8849 70.0878 57.3859 66.1748C57.3859 66.1748 52.9139 84.4458 59.5719 90.1208L61.9209 86.7668Z" fill="#344BA3"/>
<path d="M64.247 70.9426L59.869 43.1826C59.869 43.1826 53.923 65.9296 64.454 75.9556L64.247 70.9426Z" fill="#344BA3"/>
<path d="M65.0991 43.3493C65.0991 43.3493 53.8651 24.6863 54.0991 22.6123C54.0991 22.6123 55.2941 42.1723 69.4261 51.9123L65.0991 43.3493Z" fill="#344BA3"/>
<path d="M66.4149 37.8366C66.4149 37.8366 55.8149 11.3296 51.0149 9.18359C51.0149 9.18359 66.1619 16.8836 67.2979 37.0836L66.4149 37.8366Z" fill="#344BA3"/>
<path d="M60.5319 89.3616L59.8059 89.1406C68.7539 59.9606 70.9859 41.3566 66.0949 36.6906L66.6129 36.1406C71.8019 41.0616 69.6959 59.4616 60.5319 89.3616Z" fill="#444053"/>
<path d="M35.8889 157.685L34.8159 157.302C35.7669 154.629 36.7909 151.915 37.8629 149.242C47.2039 125.963 55.1559 104.307 60.2539 87.6815L61.1869 87.2305C56.0789 103.887 48.2669 126.373 38.9179 149.683C37.8529 152.307 36.8339 155.007 35.8889 157.685Z" fill="#444053"/>
<path d="M58.468 318.294C58.324 318.136 43.822 301.804 33.71 273.922C27.7853 257.599 24.4879 240.438 23.941 223.081C23.247 201.381 27.8 177.158 35.599 155.15L36.447 156.142C18.938 205.536 25.894 247.861 35.122 273.349C45.122 300.978 59.465 317.13 59.605 317.293L58.468 318.294Z" fill="#444053"/>
<path d="M285.092 283.619C285.092 283.619 274.872 296.093 282.987 314.949L201.393 350.337L193.563 351.978L189.957 336.2L192.369 316.288V305.406L285.092 283.619Z" fill="#D5D6DB"/>
<path d="M27.4299 275.559L140.364 254.971L290.006 278.809L197.06 312.272L27.4299 275.559Z" fill="#344BA3"/>
<path d="M27.4299 275.559L140.364 254.971L290.006 278.809L197.06 312.272L27.4299 275.559Z" fill="#344BA3"/>
<path d="M27.43 275.554C27.43 275.554 16.87 295.565 29.04 314.047L196.511 350.336C196.511 350.336 186.111 334.396 197.047 312.271L27.43 275.554Z" fill="#344BA3"/>
<path opacity="0.1" d="M27.43 275.554C27.43 275.554 16.87 295.565 29.04 314.047L196.511 350.336C196.511 350.336 186.111 334.396 197.047 312.271L27.43 275.554Z" fill="black"/>
<path opacity="0.1" d="M32.4209 282.492C32.4209 282.492 26.3849 297.134 32.4209 306.61Z" fill="black"/>
<path d="M196.511 350.337L290.011 310.437C290.011 310.437 295.24 311.564 291.859 315.396C288.478 319.228 198.319 354.164 198.319 354.164L29.04 314.048L196.511 350.337Z" fill="#344BA3"/>
<path opacity="0.1" d="M196.511 350.337L290.011 310.437C290.011 310.437 295.24 311.564 291.859 315.396C288.478 319.228 198.319 354.164 198.319 354.164L29.04 314.048L196.511 350.337Z" fill="black"/>
<path opacity="0.1" d="M188.847 316.302C188.847 316.302 179.831 327.121 188.847 343.35Z" fill="black"/>
<path opacity="0.1" d="M232.498 316.118L192.057 329.61L192.2 330.038L232.64 316.546L232.498 316.118Z" fill="black"/>
<path opacity="0.1" d="M240.594 314.777L192.041 333.24L192.201 333.662L240.754 315.199L240.594 314.777Z" fill="black"/>
<path opacity="0.1" d="M248.034 314.711L192.313 337.519L192.484 337.936L248.205 315.129L248.034 314.711Z" fill="black"/>
<path opacity="0.1" d="M256.123 312.759L192.963 341.29L193.149 341.701L256.308 313.17L256.123 312.759Z" fill="black"/>
<path opacity="0.1" d="M262.898 312.73L193.464 343.126L193.645 343.539L263.078 313.143L262.898 312.73Z" fill="black"/>
<path opacity="0.1" d="M277.786 310.242L194.512 346.209L194.691 346.623L277.965 310.656L277.786 310.242Z" fill="black"/>
<path opacity="0.3" d="M69.386 277.759L148.726 261.079L197.06 270.32L132.046 291.282L69.386 277.759Z" fill="white"/>
<path d="M290.006 278.81C290.006 278.81 294.106 280.464 291.706 283.02C289.306 285.576 197.047 312.273 197.047 312.273L290.006 278.81Z" fill="#344BA3"/>
<path d="M329.85 240.261C329.85 240.261 319.635 252.73 327.75 271.591L246.157 306.981L238.327 308.631L234.72 292.851L237.168 272.944V262.044L329.85 240.261Z" fill="#D5D6DB"/>
<path d="M72.1941 232.196L185.123 211.613L334.769 235.451L241.824 268.914L72.1941 232.196Z" fill="#3A3768"/>
<path d="M72.1769 232.197C72.1769 232.197 61.6099 252.208 73.7769 270.691L241.248 306.98C241.248 306.98 230.857 291.026 241.802 268.91L72.1769 232.197Z" fill="#3A3768"/>
<path opacity="0.1" d="M72.1769 232.197C72.1769 232.197 61.6099 252.208 73.7769 270.691L241.248 306.98C241.248 306.98 230.857 291.026 241.802 268.91L188.842 257.446L72.1769 232.197Z" fill="black"/>
<path opacity="0.1" d="M77.1799 239.134C77.1799 239.134 71.1479 253.771 77.1799 263.252Z" fill="black"/>
<path d="M241.27 306.979L334.77 267.079C334.77 267.079 339.995 268.206 336.614 272.038C333.233 275.87 243.074 310.806 243.074 310.806L73.7991 270.69L241.27 306.979Z" fill="#3A3768"/>
<path opacity="0.1" d="M241.27 306.979L334.77 267.079C334.77 267.079 339.995 268.206 336.614 272.038C333.233 275.87 243.074 310.806 243.074 310.806L73.7991 270.69L241.27 306.979Z" fill="black"/>
<path opacity="0.1" d="M233.606 272.944C233.606 272.944 224.59 283.763 233.606 299.992Z" fill="black"/>
<path opacity="0.1" d="M277.261 272.765L236.82 286.257L236.963 286.685L277.404 273.193L277.261 272.765Z" fill="black"/>
<path opacity="0.1" d="M285.363 271.422L236.81 289.885L236.97 290.306L285.523 271.843L285.363 271.422Z" fill="black"/>
<path opacity="0.1" d="M292.796 271.35L237.075 294.157L237.246 294.575L292.967 271.767L292.796 271.35Z" fill="black"/>
<path opacity="0.1" d="M300.89 269.399L237.73 297.93L237.916 298.341L301.075 269.81L300.89 269.399Z" fill="black"/>
<path opacity="0.1" d="M307.659 269.364L238.225 299.76L238.406 300.173L307.84 269.777L307.659 269.364Z" fill="black"/>
<path opacity="0.1" d="M322.55 266.876L239.276 302.843L239.455 303.257L322.728 267.29L322.55 266.876Z" fill="black"/>
<path opacity="0.45" d="M114.15 234.402L193.49 217.723L241.82 226.963L176.806 247.925L114.15 234.402Z" fill="white"/>
<path d="M334.769 235.451C334.769 235.451 338.869 237.105 336.469 239.657C334.069 242.209 241.829 268.909 241.829 268.909L334.769 235.451Z" fill="#3A3768"/>
<path d="M334.089 190.66C334.089 190.66 323.871 213.051 331.984 231.91L250.39 257.38L242.578 259.034L238.971 243.254L241.383 223.342V212.442L334.089 190.66Z" fill="#D5D6DB"/>
<path d="M76.4451 182.6L189.379 162.012L339.025 185.85L246.075 219.313L76.4451 182.6Z" fill="#344BA3"/>
<path d="M76.4449 182.596C76.4449 182.596 65.8649 202.607 78.0359 221.09L245.507 257.379C245.507 257.379 235.107 241.425 246.057 219.314L76.4449 182.596Z" fill="#344BA3"/>
<path opacity="0.1" d="M76.4449 182.596C76.4449 182.596 65.8649 202.607 78.0359 221.09L245.507 257.379C245.507 257.379 235.107 241.425 246.057 219.314L76.4449 182.596Z" fill="black"/>
<path opacity="0.1" d="M81.4361 189.533C81.4361 189.533 75.4001 204.175 81.4361 213.651Z" fill="black"/>
<path d="M245.526 257.378L339.026 227.4C339.026 227.4 344.255 228.527 340.874 232.359C337.493 236.191 247.334 261.21 247.334 261.21L78.0549 221.089L245.526 257.378Z" fill="#344BA3"/>
<path opacity="0.1" d="M245.526 257.378L339.026 227.4C339.026 227.4 344.255 228.527 340.874 232.359C337.493 236.191 247.334 261.21 247.334 261.21L78.0549 221.089L245.526 257.378Z" fill="black"/>
<path opacity="0.1" d="M237.862 223.343C237.862 223.343 228.846 234.162 237.862 250.391Z" fill="black"/>
<path opacity="0.1" d="M281.517 223.163L241.076 236.655L241.219 237.083L281.659 223.591L281.517 223.163Z" fill="black"/>
<path opacity="0.1" d="M289.617 221.822L241.064 240.285L241.224 240.707L289.777 222.244L289.617 221.822Z" fill="black"/>
<path opacity="0.1" d="M297.045 221.752L241.324 244.56L241.495 244.977L297.216 222.17L297.045 221.752Z" fill="black"/>
<path opacity="0.1" d="M305.146 219.797L241.986 248.328L242.172 248.739L305.332 220.208L305.146 219.797Z" fill="black"/>
<path opacity="0.1" d="M311.917 219.767L242.483 250.163L242.664 250.576L312.097 220.18L311.917 219.767Z" fill="black"/>
<path opacity="0.1" d="M326.807 217.282L243.533 253.249L243.712 253.663L326.986 217.696L326.807 217.282Z" fill="black"/>
<path opacity="0.3" d="M118.401 184.799L197.741 168.12L246.075 177.361L181.061 198.323L118.401 184.799Z" fill="white"/>
<path d="M339.021 185.851C339.021 185.851 343.121 187.505 340.721 190.061C338.321 192.617 246.081 219.313 246.081 219.313L339.021 185.851Z" fill="#344BA3"/>
<path d="M140.698 49.0065C140.698 49.0065 123.568 47.9745 125.569 59.9925C125.465 60.6022 125.556 61.2292 125.83 61.7838C126.104 62.3385 126.546 62.7923 127.093 63.0805C127.093 63.0805 127.125 62.1805 128.851 62.4895C129.467 62.5953 130.094 62.6255 130.717 62.5795C131.558 62.522 132.357 62.1928 132.994 61.6415V61.6415C132.994 61.6415 137.813 59.6485 139.688 51.7695C139.688 51.7695 141.076 50.0515 141.04 49.6105L138.14 50.8455C138.694 52.0465 138.77 53.4136 138.352 54.6685C138.352 54.6685 138.257 50.9225 137.698 51.0085C137.585 51.0085 136.198 51.7345 136.198 51.7345C136.198 51.7345 137.898 55.3725 136.613 58.0145C136.613 58.0145 137.1 53.5335 135.666 51.9965L133.628 53.1865C133.628 53.1865 135.616 56.9415 134.268 60.0075C134.268 60.0075 134.615 55.3075 133.2 53.4755L131.352 54.9185C131.352 54.9185 133.223 58.6185 132.082 61.1625C132.082 61.1625 131.933 55.6895 130.955 55.2755C130.254 55.8667 129.629 56.5421 129.093 57.2865C129.093 57.2865 130.373 59.9865 129.575 61.3935C129.575 61.3935 129.093 57.7465 128.675 57.7285C127.839 58.9605 127.237 60.3357 126.899 61.7855C126.977 60.256 127.454 58.7735 128.283 57.4855C127.356 57.6612 126.5 58.1048 125.822 58.7615C125.822 58.7615 126.07 57.0525 128.685 56.9045C129.17 56.1936 129.736 55.5416 130.371 54.9615C128.962 54.8395 127.542 55.0021 126.197 55.4395C126.197 55.4395 127.585 53.8305 130.845 54.5395L132.645 53.0515C132.645 53.0515 129.228 52.6005 127.776 53.1015C127.776 53.1015 129.448 51.6775 133.136 52.7135L135.124 51.5275C133.597 51.1935 132.034 51.0591 130.472 51.1275C130.472 51.1275 132.302 50.1405 135.706 51.2085L137.121 50.5725C137.121 50.5725 134.989 50.1535 134.362 50.0855C133.735 50.0175 133.704 49.8465 133.704 49.8465C135.057 49.6244 136.446 49.7805 137.716 50.2975C138.747 49.9586 139.745 49.5264 140.698 49.0065V49.0065Z" fill="#344BA3"/>
<path opacity="0.1" d="M381.694 98.405C381.694 98.405 364.564 97.373 366.565 109.391C366.461 110.001 366.552 110.628 366.826 111.182C367.1 111.737 367.542 112.191 368.089 112.479C368.089 112.479 368.121 111.579 369.847 111.888C370.463 111.991 371.09 112.022 371.713 111.978C372.546 111.917 373.336 111.588 373.967 111.04V111.04C373.967 111.04 378.79 109.047 380.661 101.168C380.661 101.168 382.049 99.45 382.013 99.009L379.119 100.244C379.673 101.445 379.749 102.812 379.331 104.067C379.331 104.067 379.236 100.321 378.682 100.407C378.569 100.407 377.176 101.133 377.176 101.133C377.176 101.133 378.876 104.771 377.595 107.413C377.595 107.413 378.082 102.932 376.644 101.395L374.606 102.585C374.606 102.585 376.594 106.34 375.246 109.406C375.246 109.406 375.593 104.706 374.178 102.874L372.334 104.317C372.334 104.317 374.2 108.017 373.06 110.561C373.06 110.561 372.911 105.088 371.933 104.674C371.233 105.266 370.608 105.942 370.071 106.685C370.071 106.685 371.351 109.385 370.558 110.792C370.558 110.792 370.071 107.145 369.658 107.127C368.822 108.359 368.22 109.734 367.882 111.184C367.96 109.654 368.439 108.171 369.27 106.884C368.341 107.06 367.484 107.503 366.804 108.16C366.804 108.16 367.057 106.451 369.667 106.303C370.153 105.592 370.718 104.938 371.353 104.356C369.943 104.237 368.524 104.4 367.179 104.838C367.179 104.838 368.567 103.229 371.827 103.938L373.627 102.45C373.627 102.45 370.205 101.999 368.758 102.5C368.758 102.5 370.426 101.075 374.118 102.112L376.102 100.926C374.575 100.592 373.011 100.457 371.45 100.526C371.45 100.526 373.28 99.539 376.684 100.607L378.104 99.971C378.104 99.971 375.967 99.552 375.341 99.484C374.715 99.416 374.683 99.245 374.683 99.245C376.036 99.0199 377.425 99.1761 378.695 99.696C379.731 99.3565 380.735 98.9244 381.694 98.405V98.405Z" fill="#344BA3"/>
<path opacity="0.1" d="M169.549 123.253C169.549 123.253 162.084 107.777 152.581 115.405C151.998 115.611 151.495 115.997 151.144 116.506C150.793 117.015 150.613 117.623 150.629 118.241C150.629 118.241 151.418 117.831 151.981 119.49C152.191 120.077 152.469 120.636 152.81 121.158C153.271 121.866 153.95 122.404 154.744 122.691V122.691C154.744 122.691 158.833 125.928 166.627 123.719C166.627 123.719 168.804 124.093 169.16 123.832L166.672 121.907C165.89 122.974 164.734 123.706 163.435 123.954C163.435 123.954 166.663 122.047 166.316 121.605C166.244 121.515 164.964 120.645 164.964 120.645C164.964 120.645 162.615 123.904 159.685 124.071C159.685 124.071 163.832 122.313 164.472 120.307L162.443 119.107C162.443 119.107 160.13 122.677 156.799 122.993C156.799 122.993 161.073 121.005 161.979 118.877L159.824 117.977C159.824 117.977 157.502 121.412 154.724 121.66C154.724 121.66 159.43 118.86 159.313 117.801C158.454 117.48 157.56 117.264 156.649 117.156C156.649 117.156 154.927 119.586 153.304 119.586C153.304 119.586 156.248 117.386 156.067 117.025C154.579 116.897 153.08 117.05 151.649 117.476C153.022 116.794 154.55 116.484 156.08 116.576C155.473 115.852 154.667 115.321 153.763 115.048C153.763 115.048 155.377 114.435 156.779 116.639C157.636 116.715 158.482 116.891 159.299 117.162C158.716 115.877 157.883 114.721 156.847 113.762C156.847 113.762 158.93 114.181 159.881 117.368L162.067 118.234C162.067 118.234 160.809 115.024 159.651 114.01C159.651 114.01 161.707 114.772 162.604 118.518L164.604 119.672C164.154 118.176 163.51 116.746 162.688 115.417C162.688 115.417 164.442 116.535 165.167 120.024L166.416 120.953C166.416 120.953 165.74 118.884 165.516 118.307C165.292 117.73 165.403 117.613 165.403 117.613C166.26 118.684 166.804 119.971 166.972 121.332C167.768 122.053 168.631 122.697 169.549 123.253V123.253Z" fill="#344BA3"/>
<path opacity="0.1" d="M342.555 76.5413C342.555 76.5413 335.094 61.0653 325.587 68.6933C325.005 68.9 324.502 69.2854 324.152 69.7945C323.801 70.3036 323.62 70.9103 323.635 71.5283C323.635 71.5283 324.428 71.1223 324.987 72.7773C325.197 73.3659 325.477 73.9273 325.821 74.4493C326.281 75.155 326.958 75.6915 327.75 75.9773C327.75 75.9773 331.843 79.2143 339.633 77.0093C339.633 77.0093 341.81 77.3793 342.171 77.1173L339.696 75.1883C338.917 76.2558 337.762 76.9886 336.464 77.2393C336.464 77.2393 339.687 75.3283 339.34 74.8863C339.268 74.7963 337.988 73.9263 337.988 73.9263C337.988 73.9263 335.644 77.1853 332.709 77.3523C332.709 77.3523 336.861 75.5943 337.501 73.5923L335.441 72.4023C335.441 72.4023 333.133 75.9683 329.797 76.2883C329.797 76.2883 334.07 74.2953 334.981 72.1683L332.822 71.2683C332.822 71.2683 330.5 74.7083 327.728 74.9513C327.728 74.9513 332.428 72.1513 332.313 71.0973C331.456 70.7739 330.563 70.5572 329.653 70.4523C329.653 70.4523 327.931 72.8773 326.304 72.8773C326.304 72.8773 329.252 70.6773 329.072 70.3163C327.583 70.188 326.083 70.341 324.65 70.7673C326.023 70.0852 327.551 69.7749 329.081 69.8673C328.476 69.1427 327.672 68.6115 326.768 68.3393C326.768 68.3393 328.382 67.7263 329.784 69.9303C330.642 70.0081 331.487 70.185 332.304 70.4573C331.722 69.168 330.886 68.009 329.847 67.0493C329.847 67.0493 331.93 67.4733 332.881 70.6783L335.072 71.5443C335.072 71.5443 333.814 68.3303 332.656 67.3163C332.656 67.3163 334.712 68.0783 335.604 71.8243L337.61 72.9783C337.158 71.4823 336.512 70.0516 335.69 68.7223C335.69 68.7223 337.448 69.8403 338.169 73.3293L339.418 74.2583C339.418 74.2583 338.746 72.1893 338.518 71.6123C338.29 71.0353 338.405 70.9223 338.405 70.9223C339.26 71.9936 339.801 73.2809 339.969 74.6413C340.77 75.3533 341.636 75.9894 342.555 76.5413V76.5413Z" fill="#344BA3"/>
<path opacity="0.1" d="M366.398 153.091C366.398 153.091 358.937 137.611 349.416 145.238C348.833 145.445 348.331 145.83 347.98 146.34C347.63 146.849 347.449 147.456 347.464 148.074C347.464 148.074 348.257 147.668 348.816 149.323C349.025 149.912 349.303 150.473 349.645 150.995C350.105 151.701 350.782 152.238 351.575 152.523C351.575 152.523 355.668 155.764 363.462 153.555C363.462 153.555 365.635 153.929 365.996 153.663L363.508 151.738C362.727 152.807 361.571 153.54 360.271 153.789C360.271 153.789 363.494 151.878 363.147 151.436C363.075 151.346 361.795 150.476 361.795 150.476C361.795 150.476 359.451 153.735 356.516 153.907C356.516 153.907 360.668 152.144 361.308 150.143L359.275 148.943C359.275 148.943 356.967 152.513 353.631 152.829C353.631 152.829 357.905 150.836 358.815 148.709L356.656 147.809C356.656 147.809 354.334 151.244 351.562 151.492C351.562 151.492 356.268 148.692 356.151 147.633C355.293 147.31 354.398 147.093 353.487 146.988C353.487 146.988 351.765 149.413 350.138 149.413C350.138 149.413 353.086 147.213 352.906 146.853C351.417 146.725 349.917 146.878 348.484 147.304C349.859 146.623 351.388 146.312 352.92 146.404C352.314 145.679 351.508 145.147 350.603 144.876C350.603 144.876 352.217 144.258 353.619 146.467C354.476 146.544 355.322 146.719 356.139 146.99C355.556 145.703 354.723 144.544 353.687 143.582C353.687 143.582 355.77 144.006 356.721 147.211L358.907 148.077C358.907 148.077 357.649 144.863 356.491 143.853C356.491 143.853 358.547 144.61 359.439 148.361L361.445 149.511C360.992 148.015 360.347 146.585 359.525 145.255C359.525 145.255 361.283 146.373 362.009 149.867L363.258 150.767C363.258 150.767 362.582 148.698 362.358 148.121C362.134 147.544 362.245 147.431 362.245 147.431C363.102 148.501 363.644 149.789 363.809 151.15C364.613 151.873 365.479 152.522 366.398 153.091V153.091Z" fill="#344BA3"/>
<path opacity="0.1" d="M91.8 354.494C97.5239 354.494 102.164 353.975 102.164 353.335C102.164 352.695 97.5239 352.176 91.8 352.176C86.0762 352.176 81.436 352.695 81.436 353.335C81.436 353.975 86.0762 354.494 91.8 354.494Z" fill="#344BA3"/>
<path opacity="0.1" d="M23.8601 334.803C29.584 334.803 34.2241 334.284 34.2241 333.644C34.2241 333.004 29.584 332.485 23.8601 332.485C18.1362 332.485 13.4961 333.004 13.4961 333.644C13.4961 334.284 18.1362 334.803 23.8601 334.803Z" fill="#344BA3"/>
<path opacity="0.1" d="M143.587 367.572C149.311 367.572 153.951 367.053 153.951 366.413C153.951 365.773 149.311 365.254 143.587 365.254C137.863 365.254 133.223 365.773 133.223 366.413C133.223 367.053 137.863 367.572 143.587 367.572Z" fill="#344BA3"/>
<path opacity="0.1" d="M408.971 339.087C414.695 339.087 419.335 338.568 419.335 337.928C419.335 337.287 414.695 336.769 408.971 336.769C403.247 336.769 398.607 337.287 398.607 337.928C398.607 338.568 403.247 339.087 408.971 339.087Z" fill="#344BA3"/>
<path opacity="0.1" d="M322.729 333.465C328.453 333.465 333.093 332.947 333.093 332.306C333.093 331.666 328.453 331.147 322.729 331.147C317.005 331.147 312.365 331.666 312.365 332.306C312.365 332.947 317.005 333.465 322.729 333.465Z" fill="#344BA3"/>
<path opacity="0.1" d="M266.938 360.881C273.707 360.881 279.195 359.938 279.195 358.776C279.195 357.613 273.707 356.671 266.938 356.671C260.169 356.671 254.681 357.613 254.681 358.776C254.681 359.938 260.169 360.881 266.938 360.881Z" fill="#344BA3"/>
<path d="M272.407 337.615C272.407 337.615 255.34 346.433 264.157 356.815C264.408 357.459 264.854 358.008 265.433 358.385C266.012 358.762 266.695 358.947 267.385 358.915C267.385 358.915 266.907 358.04 268.737 357.342C269.388 357.091 270.007 356.762 270.581 356.364C271.355 355.83 271.935 355.057 272.231 354.164V354.164C272.231 354.164 275.72 349.494 273.015 340.852C273.015 340.852 273.367 338.409 273.06 338.012L270.986 340.857C272.206 341.694 273.06 342.964 273.375 344.409C273.375 344.409 271.121 340.861 270.675 341.253C270.575 341.334 269.647 342.808 269.647 342.808C269.647 342.808 273.362 345.328 273.637 348.601C273.637 348.601 271.545 344.016 269.287 343.363L267.993 345.671C267.993 345.671 272.05 348.141 272.501 351.856C272.501 351.856 270.143 347.145 267.736 346.194L266.785 348.633C266.785 348.633 270.698 351.121 271.059 354.214C271.059 354.214 267.786 349.043 266.61 349.206C266.274 350.176 266.059 351.184 265.97 352.206C265.97 352.206 268.733 354.054 268.783 355.871C268.783 355.871 266.231 352.648 265.839 352.86C265.742 354.527 265.953 356.197 266.461 357.787C265.656 356.273 265.266 354.574 265.329 352.86C264.539 353.56 263.97 354.475 263.693 355.493C263.693 355.493 262.958 353.712 265.379 352.071C265.439 351.111 265.61 350.161 265.888 349.24C264.467 349.932 263.197 350.901 262.155 352.089C262.155 352.089 262.565 349.749 266.118 348.589L267.018 346.119C267.018 346.119 263.466 347.625 262.37 348.95C262.37 348.95 263.159 346.628 267.297 345.515L268.523 343.261C266.868 343.812 265.288 344.569 263.823 345.515C263.823 345.515 265.018 343.515 268.899 342.598L269.899 341.178C269.899 341.178 267.609 341.994 266.969 342.287C266.329 342.58 266.203 342.436 266.203 342.436C267.373 341.447 268.795 340.801 270.31 340.57C270.31 340.57 272.569 337.768 272.407 337.615Z" fill="#344BA3"/>
<path d="M323.062 171.077C320.114 163.066 303.885 162.313 296.844 164.356C291.844 165.812 281.292 167.456 275.657 168.278L275.292 167.931C276.022 167.715 276.04 167.183 275.95 166.394C275.897 165.354 275.912 164.312 275.995 163.274C279.448 164.347 282.522 161.809 282.522 161.809C286.579 160.009 285.488 152.288 286.264 150.178C286.846 148.6 287.472 139.305 287.752 134.671H287.811L287.843 133.116C287.884 132.444 287.902 132.052 287.902 132.052C287.902 132.052 288.302 120.719 289.074 118.424C289.795 116.314 290.381 105.684 290.474 103.998V103.777L290.415 102.794C290.456 102.077 290.474 101.279 290.469 100.441C290.469 96.5872 290.069 91.7322 290.018 90.9472V90.5372C290.05 88.8922 289.842 80.6512 282.832 77.5372C280.249 76.3832 277.143 75.0082 274.132 73.6692C273.357 66.9752 271.585 60.3162 271.738 53.5692C271.738 52.5552 271.828 51.5402 271.927 50.5312C271.927 50.8242 271.895 51.1222 271.891 51.4312V53.3962C272.157 44.9622 275.344 36.4822 275.047 28.2282C275.02 29.0352 274.961 29.8462 274.885 30.6582C275.041 27.8664 274.749 25.0676 274.02 22.3682C273.821 21.3871 273.327 20.4903 272.604 19.7982C271.867 19.2864 271.022 18.9517 270.134 18.8202C268.001 18.2742 265.834 17.8706 263.647 17.6122C263.314 16.5949 262.821 15.6374 262.186 14.7762C257.615 8.50116 250.844 2.60416 242.838 1.25216C238.821 0.576163 234.201 1.13916 231.469 4.01116C231.184 4.26336 230.917 4.53429 230.669 4.82216C229.199 6.57616 228.569 8.87916 227.063 10.6282C226.963 10.7452 226.851 10.8532 226.743 10.9662C223.795 13.6032 219.201 14.1532 215.924 16.5202C215.347 16.9451 214.805 17.417 214.306 17.9312C212.985 19.241 211.801 20.6818 210.772 22.2312C209.298 24.3052 207.783 26.4642 207.314 28.9392C206.372 33.8982 209.748 38.6002 210.375 43.5902C211.775 54.7562 199.416 64.6652 201.756 75.6822C202.38 78.3887 203.759 80.8629 205.732 82.8182C200.913 87.1822 196.811 91.4182 196.811 91.4182V91.6702H196.049L196.126 92.5702H196.049L196.468 97.4612L196.049 104.584V105.256H196.076C196.216 107.866 196.77 117.256 197.428 119.231C198.203 121.526 198.596 132.859 198.596 132.859C198.596 132.859 199.453 148.876 200.237 150.995C201.021 153.114 199.908 160.809 203.979 162.626C205.169 163.541 206.579 164.128 208.068 164.326C207.861 166.012 207.991 167.234 208.668 167.617C208.956 167.786 209.281 167.879 209.615 167.887C209.339 168.297 209.093 168.726 208.88 169.172C207.264 169.004 205.677 168.63 204.156 168.059C199.783 166.259 185.272 162.199 181.056 165.052C176.84 167.905 166.698 170.493 171.382 181.979C176.066 193.465 178.248 193.754 178.248 193.754C179.69 194.801 180.954 196.071 181.994 197.518C183.4 199.632 196.505 204.469 199.782 204.469C201.175 204.448 202.568 204.517 203.952 204.676C203.952 204.676 200.395 207.796 200.869 209.608C201.343 211.42 199.787 225.927 199.787 225.927C199.787 225.927 203.393 229.56 204.935 224.795L204.989 224.867C205.278 225.259 206.837 227.031 209.772 224.795C210.973 223.884 212.249 223.076 213.586 222.379L227.795 220.368C229.276 220.275 230.762 220.265 232.244 220.336C234.498 220.521 236.711 219.187 238.104 218.154C241.048 219.272 244.356 220.494 245.93 220.94C249.122 221.84 263.791 225.777 267.221 224.546C267.934 224.263 268.568 223.811 269.069 223.23L272.342 223.33L270.809 223.637C270.809 223.637 273.793 223.687 277.85 223.737L277.679 223.837L282.768 223.792C290.215 223.86 298.582 223.882 299.682 223.634C301.404 223.251 310.352 223.521 312.99 223.634H313.725C313.725 223.634 323.557 221.673 319.5 211.697C316.38 204.033 306.792 201.807 302.536 201.197C303.736 200.958 304.767 200.773 305.453 200.665C308.424 200.214 314.194 197.509 314.663 196.585C315.132 195.661 319.969 192.979 321.218 191.45C322.467 189.921 326.024 179.088 323.062 171.077ZM241.626 193.495L241.144 193.653L240.819 193.761L240.197 194.374C239.697 194.04 239.169 193.689 238.615 193.328C239.597 193.387 240.597 193.446 241.626 193.495Z" fill="url(#paint0_linear)"/>
<path d="M270.369 145.964C270.369 145.964 277.269 163.996 281.188 162.193C285.107 160.39 284.046 152.726 284.794 150.626C285.542 148.526 286.372 132.594 286.372 132.594C286.372 132.594 286.751 121.324 287.499 119.043C288.193 116.943 288.757 106.376 288.851 104.712V104.491L288.107 91.4182L283.897 90.3682L274.133 93.9742L272.781 101.697L272.254 104.713L272.029 105.998L270.369 145.964Z" fill="#BE6F72"/>
<path opacity="0.1" d="M272.641 142.943C272.641 142.943 279.223 148.33 281.206 148.803C283.189 149.276 284.406 153.478 284.406 153.478" fill="black"/>
<path d="M216.431 146.753C216.431 146.753 209.531 164.785 205.612 162.982C201.693 161.179 202.754 153.515 202.006 151.415C201.258 149.315 200.428 133.383 200.428 133.383C200.428 133.383 200.049 122.113 199.301 119.832C198.607 117.732 198.043 107.165 197.949 105.501V105.28L198.697 92.2072L202.907 91.1572L212.671 94.7632L214.023 102.485L214.55 105.501L214.775 106.786L216.431 146.753Z" fill="#BE6F72"/>
<path d="M261.344 50.2549H245.949V74.2509H261.344V50.2549Z" fill="#3E373A"/>
<path opacity="0.1" d="M261.344 50.2549H245.949V74.2509H261.344V50.2549Z" fill="black"/>
<path d="M213.727 164.712C213.727 164.712 208.466 170.496 210.418 171.546C212.37 172.596 224.997 192.283 224.997 192.283C224.997 192.283 266.47 197.391 274.292 189.727C282.114 182.063 281.956 168.373 281.956 168.373C281.956 168.373 275.672 169.725 274.987 168.991C274.302 168.257 270.538 164.713 270.538 164.713C270.538 164.713 217.333 161.485 213.727 164.712Z" fill="#4B4B5B"/>
<path opacity="0.02" d="M213.727 164.712C213.727 164.712 208.466 170.496 210.418 171.546C212.37 172.596 224.997 192.283 224.997 192.283C224.997 192.283 266.47 197.391 274.292 189.727C282.114 182.063 281.956 168.373 281.956 168.373C281.956 168.373 275.672 169.725 274.987 168.991C274.302 168.257 270.538 164.713 270.538 164.713C270.538 164.713 217.333 161.485 213.727 164.712Z" fill="black"/>
<path d="M288.387 91.6058L274.863 102.425L270.774 102.725L269.274 102.833L244.061 104.681L217.915 102.77L214.025 102.486L209.066 102.125L198.698 92.2068C203.048 87.5726 207.643 83.1753 212.464 79.0338C214.465 77.2379 216.711 75.7367 219.136 74.5758L219.436 74.4758C220.533 74.0477 221.513 73.3645 222.294 72.4828C227.37 67.2488 232.063 54.3338 232.063 54.3338C232.063 54.3338 254.454 42.7668 251.749 57.9398C249.044 73.1128 261.815 69.3628 261.815 69.3628L266.025 71.2828L267.688 72.0448L271.93 73.9878L281.5 78.3788C289.01 81.8338 288.387 91.6058 288.387 91.6058Z" fill="#BE6F72"/>
<path opacity="0.1" d="M243.01 66.691C254.131 66.691 263.147 57.6754 263.147 46.554C263.147 35.4326 254.131 26.417 243.01 26.417C231.889 26.417 222.873 35.4326 222.873 46.554C222.873 57.6754 231.889 66.691 243.01 66.691Z" fill="black"/>
<path opacity="0.1" d="M288.418 105.951H197.948V105.73L198.696 92.6572C203.046 88.0246 207.642 83.629 212.464 79.4892L269.264 77.2352L271.906 74.4492L281.476 78.8402C288.991 82.2932 288.387 92.0622 288.387 92.0622C288.387 92.0622 289.415 103.381 288.418 105.951Z" fill="black"/>
<path d="M288.418 105.501H197.948V105.28L198.696 92.207C203.046 87.5744 207.642 83.1788 212.464 79.039L269.264 76.785L271.906 73.999L281.476 78.39C288.991 81.843 288.387 91.612 288.387 91.612C288.387 91.612 289.415 102.931 288.418 105.501Z" fill="#E7C7CA"/>
<path opacity="0.1" d="M228.508 68.8416C228.508 68.8416 242.78 87.0266 261.79 68.4676C280.8 49.9086 263.895 109.868 263.895 109.868L222.872 114.737L228.508 68.8416Z" fill="black"/>
<path d="M228.508 69.743C228.508 69.743 242.78 87.928 261.79 69.369C280.8 50.81 263.895 110.769 263.895 110.769L222.872 115.638L228.508 69.743Z" fill="#E7C7CA"/>
<path opacity="0.1" d="M267.664 72.9354L269.174 95.9664L270.792 103.63L272.027 109.49C272.027 109.49 275.183 154.57 274.281 156.824C273.379 159.078 274.732 160.881 274.921 162.08C275.11 163.279 274.732 166.29 274.88 167.643C275.028 168.996 274.88 169.595 271.427 169.113C267.974 168.631 263.159 167.792 263.159 167.792C263.159 167.792 250.987 168.692 246.781 167.192C242.575 165.692 234.609 165.686 234.609 165.686C234.609 165.686 222.586 165.986 218.682 165.537C214.778 165.088 212.668 170.347 210.117 168.837C207.566 167.327 213.117 152.762 214.922 148.551C216.727 144.34 212.522 133.675 212.522 133.675L217.932 103.665L219.132 96.8654V75.4824L219.432 75.3824C220.529 74.9544 221.509 74.2712 222.29 73.3894L223.642 94.9104L266.017 96.4164V72.1914" fill="black"/>
<path d="M267.664 72.0331L269.174 95.0641L270.792 102.728L272.027 108.588C272.027 108.588 275.183 153.668 274.281 155.922C273.379 158.176 274.732 159.979 274.921 161.178C275.11 162.377 274.732 165.388 274.88 166.741C275.028 168.094 274.88 168.693 271.427 168.211C267.974 167.729 263.159 166.89 263.159 166.89C263.159 166.89 250.987 167.79 246.781 166.29C242.575 164.79 234.609 164.784 234.609 164.784C234.609 164.784 222.586 165.084 218.682 164.635C214.778 164.186 212.668 169.445 210.117 167.935C207.566 166.425 213.117 151.86 214.922 147.649C216.727 143.438 212.522 132.773 212.522 132.773L217.932 102.763L219.132 95.9631V74.5801L219.432 74.4801C220.529 74.052 221.509 73.3689 222.29 72.4871L223.642 94.0081L266.017 95.5141V71.2891" fill="#E7C7CA"/>
<path opacity="0.1" d="M272.537 23.9683C272.349 23.0025 271.879 22.1143 271.185 21.4163C270.479 20.9094 269.664 20.5757 268.805 20.4423C266.749 19.9014 264.658 19.5004 262.548 19.2423C262.247 18.2415 261.791 17.2941 261.196 16.4343C256.778 10.1953 250.242 4.31235 242.551 2.98235C238.525 2.28235 233.86 2.91035 231.281 6.08235C229.866 7.82735 229.257 10.1393 227.828 11.8523C225.074 15.1793 220.101 15.5893 216.628 18.1633C214.845 19.6384 213.321 21.4014 212.12 23.3794C210.7 25.4394 209.239 27.5854 208.789 30.0464C207.889 34.9644 211.138 39.6523 211.737 44.6163C213.089 55.7163 201.188 65.5693 203.437 76.5233C204.749 82.9113 210.65 87.4104 216.753 89.6914C218.903 90.4984 221.36 91.3003 222.365 93.3653C222.816 94.2653 222.892 95.3084 223.316 96.2194C224.741 99.2574 229.424 99.3753 231.94 97.1613C234.456 94.9473 235.249 91.3683 235.546 88.0283C236.754 73.4403 230.912 59.0283 231.593 44.4043C231.793 39.9823 233.04 34.9644 237.003 32.9634C242.336 30.2634 248.751 34.7633 254.62 33.9053C257.398 40.6647 257.987 48.1247 256.305 55.2363C255.372 59.1263 253.758 62.9003 253.641 66.9123C253.465 73.0203 256.76 78.6013 259.61 84.0023C260.221 85.0139 260.628 86.1348 260.81 87.3023C260.855 88.4857 260.635 89.6641 260.165 90.7514C258.556 95.0834 255.779 99.1043 255.465 103.716C255.373 104.255 255.494 104.808 255.803 105.258C256.121 105.559 256.531 105.743 256.966 105.781C261.835 106.615 266.045 102.301 268.421 97.9694C271.07 93.1844 272.613 87.8669 272.938 82.4073C273.429 73.2293 270.138 64.1993 270.338 55.0123C270.581 44.5623 275.305 34.0453 272.537 23.9683Z" fill="black"/>
<path d="M272.988 23.5172C272.8 22.5514 272.33 21.6632 271.636 20.9652C270.93 20.4582 270.115 20.1245 269.256 19.9912C267.2 19.4502 265.109 19.0493 262.999 18.7912C262.698 17.7904 262.241 16.8429 261.647 15.9832C257.229 9.74418 250.693 3.86118 243.002 2.53118C238.976 1.83118 234.311 2.45917 231.732 5.63117C230.317 7.37617 229.708 9.68817 228.279 11.4012C225.525 14.7282 220.552 15.1382 217.079 17.7122C215.296 19.1872 213.772 20.9502 212.571 22.9282C211.151 24.9882 209.69 27.1342 209.24 29.5952C208.34 34.5132 211.589 39.2012 212.188 44.1652C213.54 55.2652 201.639 65.1182 203.888 76.0722C205.2 82.4602 211.101 86.9592 217.205 89.2402C219.355 90.0472 221.812 90.8492 222.817 92.9142C223.268 93.8142 223.344 94.8572 223.768 95.7682C225.193 98.8062 229.876 98.9242 232.392 96.7102C234.908 94.4962 235.701 90.9172 235.998 87.5772C237.206 72.9892 231.364 58.5772 232.045 43.9532C232.245 39.5312 233.492 34.5132 237.455 32.5122C242.788 29.8122 249.203 34.3122 255.072 33.4542C257.85 40.2136 258.439 47.6736 256.756 54.7852C255.823 58.6752 254.209 62.4492 254.092 66.4612C253.916 72.5692 257.211 78.1502 260.061 83.5512C260.671 84.5628 261.079 85.6837 261.261 86.8512C261.306 88.0345 261.085 89.213 260.616 90.3002C259.007 94.6322 256.23 98.6532 255.916 103.265C255.824 103.804 255.945 104.357 256.254 104.807C256.572 105.108 256.981 105.292 257.417 105.33C262.286 106.164 266.496 101.85 268.872 97.5182C271.521 92.7335 273.064 87.4164 273.389 81.9572C273.88 72.7792 270.589 63.7492 270.789 54.5622C271.032 44.1112 275.756 33.5942 272.988 23.5172Z" fill="#3E373A"/>
<path d="M263.03 223.118L280.913 223.691L278.348 210.429L264.648 211.729L263.03 223.118Z" fill="#C3C7D9"/>
<path d="M318.442 191.684C317.242 193.184 312.582 195.89 312.131 196.792C311.68 197.694 306.122 200.398 303.264 200.849C300.406 201.3 291.395 203.256 289.74 204.307C288.554 205.064 279.04 207.463 272.786 208.792C271.092 209.192 269.378 209.501 267.651 209.716C264.951 209.865 235.351 199.798 235.351 199.798L241.058 193.938L241.374 193.83C242.988 193.285 250.444 190.765 254.582 189.566C259.243 188.214 264.653 182.655 264.653 182.655C264.653 182.655 272.614 179.955 273.669 179.648C274.724 179.341 270.969 169.131 270.969 169.131C270.969 169.131 288.248 166.731 295.01 164.7C301.772 162.669 317.401 163.42 320.255 171.385C323.109 179.35 319.664 190.183 318.442 191.684Z" fill="#4B4B5B"/>
<path d="M239.701 217.077C239.701 217.077 236.248 220.683 232.79 220.386C229.332 220.089 217.242 221.286 217.242 221.286C215.051 222.16 212.999 223.35 211.152 224.816C208.326 227.043 206.824 225.267 206.545 224.888L206.495 224.816C204.989 229.554 201.536 225.943 201.536 225.943C201.536 225.943 203.036 211.518 202.577 209.714C202.118 207.91 205.548 204.814 205.548 204.814L209.605 203.782L219.883 201.149L234.61 206.257L239.701 217.077Z" fill="#E7C7CA"/>
<path opacity="0.1" d="M209.588 203.783L206.545 224.889L206.495 224.817C204.989 229.555 201.536 225.944 201.536 225.944C201.536 225.944 203.038 211.523 202.577 209.716C202.116 207.909 205.548 204.816 205.548 204.816L209.588 203.783Z" fill="black"/>
<path opacity="0.1" d="M230.857 143.746C230.857 143.746 238.818 146.446 245.733 143.746Z" fill="black"/>
<path opacity="0.1" d="M258.035 148.858C258.035 148.858 261.335 150.508 263.895 148.858Z" fill="black"/>
<path opacity="0.1" d="M258.035 152.771C258.035 152.771 263.593 153.515 264.648 152.014Z" fill="black"/>
<path opacity="0.1" d="M256.232 161.179C256.232 161.179 266.672 159.827 269.264 158.023Z" fill="black"/>
<path opacity="0.1" d="M224.374 158.023C224.374 158.023 230.234 161.323 234.593 161.179Z" fill="black"/>
<path opacity="0.1" d="M272.781 208.791C271.087 209.192 269.373 209.5 267.646 209.715C264.946 209.864 235.346 199.797 235.346 199.797L241.053 193.937L241.369 193.829C242.269 194.465 243.01 195.01 243.537 195.429C246.021 197.385 248.419 194.829 249.321 194.829C250.223 194.829 258.035 201.289 258.035 201.289C258.035 201.289 265.248 202.943 266.451 204.445C267.654 205.947 271.861 205.645 272.609 206.699C272.85 207.369 272.91 208.091 272.781 208.791V208.791Z" fill="black"/>
<path d="M217.242 169.745C217.242 169.745 209.948 170.163 205.742 168.392C201.536 166.621 187.561 162.533 183.504 165.404C179.447 168.275 169.678 170.814 174.186 182.237C178.694 193.66 180.799 193.958 180.799 193.958C182.194 195.004 183.411 196.267 184.405 197.7C185.757 199.805 198.38 204.611 201.535 204.611C204.69 204.611 210.249 204.611 218.061 210.021C222.468 213.185 227.569 215.247 232.937 216.034C232.937 216.034 242.855 220.092 245.942 220.994C249.029 221.896 263.142 225.798 266.449 224.599C269.756 223.4 271.859 215.882 271.859 215.882C271.859 215.882 273.359 209.119 272.607 208.069C271.855 207.02 267.648 207.317 266.449 205.816C265.25 204.315 258.033 202.659 258.033 202.659C258.033 202.659 250.239 196.196 249.333 196.196C248.427 196.196 246.033 198.748 243.549 196.796C238.601 193.131 233.403 189.817 227.992 186.879C222.291 183.868 217.242 169.745 217.242 169.745Z" fill="#4B4B5B"/>
<path opacity="0.1" d="M202.578 174.103C203.877 173.838 205.219 173.876 206.501 174.214C207.783 174.553 208.969 175.183 209.967 176.055C213.573 179.062 225.709 185.098 225.709 185.098" fill="black"/>
<path opacity="0.1" d="M292.746 173.913C292.746 173.913 276.666 176.347 273.664 179.652Z" fill="black"/>
<path d="M311.229 223.69H310.521C307.979 223.6 299.364 223.329 297.705 223.69C295.753 224.141 269.905 223.69 269.905 223.69L274.958 222.64C274.958 222.64 273.083 216.067 274.273 215.522C274.273 215.522 267.511 211.068 272.61 208.061C275.83 206.264 279.578 205.648 283.204 206.321L296.004 201.984L298.461 201.15C298.461 201.15 312.886 201.903 316.79 211.82C320.694 221.737 311.229 223.69 311.229 223.69Z" fill="#E7C7CA"/>
<path opacity="0.1" d="M311.229 223.69H310.521C314.721 220.228 324.212 209.69 296.001 202.007L298.458 201.173C298.458 201.173 312.883 201.926 316.787 211.843C320.691 221.76 311.229 223.69 311.229 223.69Z" fill="black"/>
<path d="M284.709 212.006C285.145 212.006 285.498 211.652 285.498 211.217C285.498 210.781 285.145 210.428 284.709 210.428C284.273 210.428 283.92 210.781 283.92 211.217C283.92 211.652 284.273 212.006 284.709 212.006Z" fill="#4B4B5B"/>
<path d="M280.124 213.309C280.56 213.309 280.913 212.956 280.913 212.52C280.913 212.085 280.56 211.731 280.124 211.731C279.688 211.731 279.335 212.085 279.335 212.52C279.335 212.956 279.688 213.309 280.124 213.309Z" fill="#4B4B5B"/>
<g opacity="0.1">
<path opacity="0.1" d="M257.787 45.8094C257.962 40.8509 257.08 35.9118 255.199 31.3204C249.339 32.1954 242.919 27.6734 237.582 30.3784C233.633 32.3784 232.393 37.3974 232.172 41.8194C232.118 42.9874 232.109 44.1544 232.131 45.3194C232.131 44.9044 232.131 44.4854 232.172 44.0704C232.379 39.6484 233.619 34.6304 237.582 32.6294C242.919 29.9294 249.33 34.4294 255.199 33.5714C256.792 37.4615 257.669 41.6075 257.787 45.8094Z" fill="black"/>
<path opacity="0.1" d="M212.374 44.9851C212.451 44.0029 212.431 43.0155 212.315 42.0371C211.837 38.0701 209.669 34.2791 209.277 30.4111C208.777 35.0771 211.743 39.5581 212.315 44.2911C212.363 44.5191 212.383 44.7523 212.374 44.9851V44.9851Z" fill="black"/>
<path opacity="0.1" d="M236.126 85.4396C235.846 88.7846 235.058 92.3596 232.52 94.5776C229.982 96.7956 225.307 96.6776 223.896 93.6356C223.445 92.7356 223.378 91.6836 222.94 90.7816C221.94 88.7166 219.478 87.9146 217.328 87.1076C211.22 84.8216 205.328 80.3456 204.016 73.9396C203.899 73.3594 203.819 72.7722 203.777 72.1816C203.666 73.5235 203.747 74.8744 204.016 76.1936C205.328 82.5816 211.229 87.0756 217.328 89.3616C219.478 90.1686 221.94 90.9706 222.94 93.0356C223.391 93.9356 223.467 94.9786 223.896 95.8896C225.316 98.9276 229.996 99.0456 232.52 96.8316C235.044 94.6176 235.82 91.0386 236.126 87.6936C236.263 85.9332 236.31 84.1669 236.266 82.4016C236.266 83.4246 236.206 84.4346 236.126 85.4396Z" fill="black"/>
<path opacity="0.1" d="M270.946 52.4187V54.3707C271.198 45.9857 274.273 37.5557 273.971 29.3467C273.736 36.9367 271.116 44.7007 270.946 52.4187Z" fill="black"/>
<path opacity="0.1" d="M261.272 86.3351C261.382 85.8002 261.415 85.2525 261.372 84.7081C261.192 83.5401 260.784 82.4189 260.172 81.4081C257.566 76.4491 254.596 71.3731 254.244 65.8691C254.244 66.1031 254.213 66.3201 254.208 66.5691C254.028 72.6691 257.323 78.2581 260.172 83.6591C260.657 84.4979 261.027 85.3979 261.272 86.3351V86.3351Z" fill="black"/>
<path opacity="0.1" d="M273.538 79.8142C273.201 85.2755 271.647 90.5924 268.989 95.3752C266.609 99.7072 262.403 104.021 257.53 103.187C257.093 103.15 256.683 102.964 256.367 102.66C256.275 102.557 256.203 102.438 256.155 102.308C256.101 102.66 256.055 103.016 256.029 103.376C255.936 103.913 256.057 104.465 256.367 104.913C256.683 105.217 257.093 105.403 257.53 105.44C262.403 106.274 266.609 101.96 268.989 97.6282C271.647 92.8451 273.201 87.5279 273.538 82.0662C273.592 81.0112 273.597 79.9612 273.565 78.9102C273.556 79.2142 273.556 79.5122 273.538 79.8142Z" fill="black"/>
</g>
<path opacity="0.1" d="M274.273 215.521C274.273 215.521 285.683 220.308 293.206 209.715" stroke="black" stroke-miterlimit="10"/>
<path opacity="0.1" d="M276.518 223.889C276.518 223.889 285.836 217.83 297.705 223.689" stroke="black" stroke-miterlimit="10"/>
<path opacity="0.1" d="M214.146 222.514C214.146 222.514 218.059 213.687 228.508 220.414" stroke="black" stroke-miterlimit="10"/>
<path opacity="0.1" d="M201.46 91.9757L209.439 84.7627C209.439 84.7627 240.377 82.7337 241.658 93.2507C241.658 93.2507 252.626 80.7817 275.693 83.5587L285.453 91.3307L258.477 103.176L232.263 112.269L212.955 103.627L201.46 91.9757Z" fill="black"/>
<path d="M201.46 92.4269L209.439 85.2139C209.439 85.2139 240.377 83.1849 241.658 93.7019C241.658 93.7019 252.626 81.2329 275.693 84.0099L285.453 91.7819L258.477 103.627L232.263 112.72L212.955 104.078L201.46 92.4269Z" fill="#D5D6DB"/>
<path opacity="0.1" d="M197.93 93.333L201.46 135.559L238.876 137.439L237.25 95.393L237.218 94.685L197.93 93.333Z" fill="black"/>
<path d="M197.93 92.4326L201.46 134.659L238.876 136.539L237.25 94.4926L237.218 93.7846L197.93 92.4326Z" fill="#344BA3"/>
<path opacity="0.1" d="M287.165 92.4326L248.565 98.2206V140.636L286.283 135.186L287.165 92.4326Z" fill="black"/>
<path d="M287.165 91.5303L248.565 97.3183V139.733L286.283 134.283L287.165 91.5303Z" fill="#344BA3"/>
<path opacity="0.3" d="M278.064 101.88L257.215 104.197L257.67 111.297L278.05 109.07L278.064 101.88Z" fill="white"/>
<path d="M203.489 157.27L205.612 162.982C205.612 162.982 208.768 165.682 212.221 164.334C215.674 162.986 218.685 162.31 220.186 160.994C221.687 159.678 223.792 153.064 223.792 153.064C223.792 153.064 225.897 145.851 227.998 144.048C230.099 142.245 235.662 117.401 227.998 119.831C220.334 122.261 214.474 144.801 214.474 144.801C213.628 145.781 212.456 146.421 211.174 146.601C209.222 146.754 205.314 146.301 204.561 147.953C203.808 149.605 201.235 153.966 203.489 157.27Z" fill="#BE6F72"/>
<path opacity="0.1" d="M248.569 98.2155C246.593 98.6608 244.54 98.6374 242.575 98.1474C240.609 97.6574 238.786 96.7143 237.25 95.3936L238.877 137.435C240.136 138.68 241.666 139.617 243.348 140.172C245.029 140.727 246.816 140.885 248.569 140.635V98.2155Z" fill="black"/>
<path d="M248.569 97.3142C246.593 97.7594 244.54 97.7361 242.575 97.246C240.609 96.756 238.786 95.813 237.25 94.4922L238.877 136.533C240.136 137.778 241.666 138.715 243.348 139.27C245.029 139.825 246.816 139.984 248.569 139.733V97.3142Z" fill="#344BA3"/>
<path opacity="0.1" d="M248.569 97.3142C246.593 97.7594 244.54 97.7361 242.575 97.246C240.609 96.756 238.786 95.813 237.25 94.4922L238.877 136.533C240.136 137.778 241.666 138.715 243.348 139.27C245.029 139.825 246.816 139.984 248.569 139.733V97.3142Z" fill="black"/>
<path opacity="0.1" d="M249.47 92.5758C249.47 92.5758 265.17 87.7758 269.264 88.4508Z" fill="black"/>
<path opacity="0.1" d="M231.907 90.4796C231.907 90.4796 216.688 86.8736 214.146 87.8966Z" fill="black"/>
<path opacity="0.1" d="M259.37 93.1755C259.37 93.1755 269.87 89.3255 273.665 91.1555Z" fill="black"/>
<path opacity="0.1" d="M254.082 189.751C255.709 188.529 257.441 187.453 259.257 186.537C261.893 185.112 264.451 183.549 266.921 181.853" fill="black"/>
<path opacity="0.1" d="M214.15 143.746C214.15 143.746 207.564 149.133 205.585 149.606C203.606 150.079 202.385 154.281 202.385 154.281" fill="black"/>
<path d="M283.292 156.466L281.192 162.191C281.192 162.191 278.036 164.891 274.579 163.543C271.122 162.195 268.119 161.519 266.613 160.203C265.107 158.887 263.007 152.273 263.007 152.273C263.007 152.273 260.907 145.06 258.801 143.257C256.695 141.454 251.137 116.61 258.801 119.04C266.465 121.47 272.325 144.01 272.325 144.01C273.171 144.99 274.343 145.63 275.625 145.81C277.577 145.963 281.485 145.51 282.238 147.162C282.991 148.814 285.547 153.177 283.292 156.466Z" fill="#BE6F72"/>
<path opacity="0.1" d="M279.61 145.938C279.61 145.938 283.915 148.705 283.897 152.014Z" fill="black"/>
<path d="M243.082 65.7037C254.203 65.7037 263.219 56.688 263.219 45.5667C263.219 34.4453 254.203 25.4297 243.082 25.4297C231.961 25.4297 222.945 34.4453 222.945 45.5667C222.945 56.688 231.961 65.7037 243.082 65.7037Z" fill="#BE6F72"/>
<path d="M230.437 40.1613C232.88 39.7783 235.022 38.3613 237.357 37.5423C242.582 35.7073 248.357 36.9653 253.649 38.6193C255.641 39.3811 257.737 39.8369 259.865 39.9713C260.931 40.0226 261.993 39.8016 262.951 39.3293C263.908 38.8569 264.73 38.1487 265.338 37.2713C265.786 36.3963 266.017 35.4261 266.011 34.4429C266.005 33.4597 265.762 32.4925 265.302 31.6233C264.366 29.8958 263.119 28.3565 261.623 27.0833C256.935 22.6563 251.123 18.5183 244.687 18.9693C242.104 19.2601 239.589 19.9807 237.244 21.1013C234.247 22.393 231.33 23.8622 228.508 25.5013C226.34 26.7593 222.323 28.4403 221.074 30.7393C218.234 35.9153 226.015 40.8563 230.437 40.1613Z" fill="#3E373A"/>
<path opacity="0.1" d="M265.338 35.3738C264.73 36.2513 263.908 36.9595 262.951 37.4319C261.993 37.9043 260.931 38.1252 259.865 38.0738C257.736 37.9483 255.639 37.5016 253.644 36.7488C248.356 35.0948 242.581 33.8318 237.352 35.6718C235.021 36.4878 232.876 37.9258 230.432 38.2868C226.871 38.8458 221.132 35.7448 220.515 31.7998C219.815 36.3578 226.466 40.2608 230.432 39.6388C232.875 39.2558 235.021 37.8388 237.352 37.0238C242.581 35.1848 248.352 36.4468 253.644 38.1008C255.635 38.8668 257.735 39.3139 259.865 39.4258C260.931 39.4726 261.991 39.2497 262.948 38.7778C263.905 38.3058 264.727 37.6 265.338 36.7258C265.902 35.7239 266.124 34.5652 265.969 33.4258C265.899 34.1109 265.684 34.7732 265.338 35.3688V35.3738Z" fill="black"/>
<path d="M428.756 279.685C428.756 279.685 431.429 283.179 427.521 288.458C423.613 293.737 420.394 298.191 421.692 301.482C421.692 301.482 427.592 291.682 432.385 291.542C437.178 291.402 434.025 285.577 428.756 279.685Z" fill="#344BA3"/>
<path opacity="0.1" d="M428.757 279.685C428.99 280.023 429.174 280.394 429.302 280.785C433.981 286.285 436.479 291.419 431.975 291.546C427.783 291.668 422.756 299.164 421.553 301.053C421.591 301.205 421.638 301.356 421.693 301.504C421.693 301.504 427.593 291.704 432.386 291.564C437.179 291.424 434.026 285.577 428.757 279.685Z" fill="black"/>
<path d="M433.716 284.138C433.716 285.369 433.576 286.365 433.409 286.365C433.242 286.365 433.098 285.365 433.098 284.138C433.098 282.911 433.269 283.489 433.441 283.489C433.613 283.489 433.716 282.907 433.716 284.138Z" fill="#FFD037"/>
<path d="M435.424 285.607C434.347 286.193 433.404 286.549 433.324 286.4C433.244 286.251 434.05 285.652 435.124 285.048C436.198 284.444 435.778 284.886 435.859 285.048C435.94 285.21 436.506 285.017 435.424 285.607Z" fill="#FFD037"/>
<path d="M414.629 279.685C414.629 279.685 411.956 283.179 415.864 288.458C419.772 293.737 422.991 298.191 421.688 301.482C421.688 301.482 415.796 291.682 410.995 291.542C406.194 291.402 409.373 285.577 414.629 279.685Z" fill="#344BA3"/>
<path opacity="0.1" d="M414.629 279.685C414.396 280.023 414.212 280.394 414.083 280.785C409.404 286.285 406.906 291.419 411.41 291.546C415.598 291.668 420.629 299.164 421.832 301.053C421.794 301.206 421.746 301.357 421.688 301.504C421.688 301.504 415.796 291.704 410.995 291.564C406.194 291.424 409.373 285.577 414.629 279.685Z" fill="black"/>
<path d="M409.661 284.138C409.661 285.369 409.796 286.365 409.968 286.365C410.14 286.365 410.279 285.365 410.279 284.138C410.279 282.911 410.103 283.489 409.936 283.489C409.769 283.489 409.661 282.907 409.661 284.138Z" fill="#FFD037"/>
<path d="M407.957 285.607C409.034 286.193 409.977 286.549 410.057 286.4C410.137 286.251 409.331 285.652 408.257 285.048C407.183 284.444 407.603 284.886 407.522 285.048C407.441 285.21 406.875 285.017 407.957 285.607Z" fill="#FFD037"/>
<path opacity="0.1" d="M421.692 328.221C437.128 328.221 449.641 326.302 449.641 323.934C449.641 321.567 437.128 319.647 421.692 319.647C406.256 319.647 393.743 321.567 393.743 323.934C393.743 326.302 406.256 328.221 421.692 328.221Z" fill="#344BA3"/>
<path d="M436.078 296.769L435.943 297.86L435.754 299.402L435.677 300.047L435.488 301.589L435.407 302.234L435.222 303.771L433.081 321.307C432.892 322.871 430.336 324.093 427.248 324.093H416.134C413.046 324.093 410.495 322.871 410.301 321.307L408.16 303.771L407.971 302.234L407.894 301.589L407.705 300.047L407.624 299.402L407.439 297.86L407.304 296.769C407.204 295.869 408.58 295.137 410.329 295.137H433.058C434.8 295.137 436.186 295.881 436.078 296.769Z" fill="#65617D"/>
<path d="M435.942 297.86L435.757 299.402H407.627L407.438 297.86H435.942Z" fill="#9D9CB5"/>
<path d="M435.676 300.046L435.491 301.588H407.891L407.702 300.046H435.676Z" fill="#9D9CB5"/>
<path d="M435.41 302.232L435.221 303.774H408.155L407.97 302.232H435.41Z" fill="#9D9CB5"/>
<defs>
<linearGradient id="paint0_linear" x1="247.192" y1="227.252" x2="247.192" y2="0.994141" gradientUnits="userSpaceOnUse">
<stop stop-color="#808080" stop-opacity="0.251"/>
<stop offset="0.54" stop-color="#808080" stop-opacity="0.122"/>
<stop offset="1" stop-color="#808080" stop-opacity="0.102"/>
</linearGradient>
</defs>
</svg>
