<svg xmlns="http://www.w3.org/2000/svg" width="360" height="738.001" viewBox="0 0 360 738.001"><defs><style>.a{fill:#546dd2;fill-rule:evenodd;}</style></defs><path class="a" d="M0,1248.167c17.159-.749,33.925-8.241,51.083-8.989s34.712,7.5,51.87,6.748,33.925-10.491,51.084-11.239,34.711,7.5,51.869,6.748,33.926-10.491,51.084-11.239,34.711,7.5,51.87,6.748c17.52-.764,33.623-8.251,51.14-8.991V510.166c-17.517.741-33.62,8.228-51.14,8.992-17.159.748-34.711-7.5-51.87-6.748s-33.925,10.49-51.084,11.239-34.71-7.5-51.869-6.748-33.925,10.49-51.084,11.239-34.711-7.5-51.87-6.748S17.159,529.632,0,530.381Z" transform="translate(0 -510.166)"/></svg>