<?xml version="1.0" encoding="UTF-8"?>
<svg xmlns="http://www.w3.org/2000/svg" xmlns:xlink="http://www.w3.org/1999/xlink" width="360pt" height="203pt" viewBox="0 0 360 203" version="1.1">
<g id="surface1">
<path style=" stroke:none;fill-rule:evenodd;fill:rgb(32.941176%,42.745098%,82.352941%);fill-opacity:1;" d="M 0 203 C 17.160156 202.25 33.925781 194.738281 51.082031 193.988281 C 68.242188 193.238281 85.792969 201.503906 102.953125 200.753906 C 120.113281 200.003906 136.878906 190.238281 154.035156 189.488281 C 171.195312 188.738281 188.746094 197 205.90625 196.25 C 223.066406 195.5 239.832031 185.734375 256.988281 184.984375 C 274.148438 184.234375 291.699219 192.5 308.859375 191.75 C 326.378906 190.984375 342.484375 183.476562 360 182.734375 L 360 0 C 342.484375 0.742188 326.382812 8.246094 308.859375 9.011719 C 291.699219 9.765625 274.148438 1.5 256.988281 2.25 C 239.832031 3 223.066406 12.765625 205.90625 13.515625 C 188.746094 14.265625 171.195312 6 154.035156 6.75 C 136.878906 7.5 120.113281 17.269531 102.953125 18.019531 C 85.792969 18.769531 68.242188 10.503906 51.082031 11.253906 C 33.925781 12.003906 17.160156 19.515625 0 20.265625 Z M 0 203 "/>
</g>
</svg>
