<svg xmlns="http://www.w3.org/2000/svg" width="1920" height="1080" viewBox="0 0 1920 1080"><defs><style>.a{fill:#546dd2;fill-rule:evenodd;}</style></defs><path class="a" d="M0,2148c91.514-3.992,180.933-43.949,272.446-47.939s185.125,39.979,276.637,35.988,180.934-55.95,272.447-59.941,185.125,39.979,276.638,35.988,180.933-55.949,272.445-59.939,185.126,39.978,276.639,35.988c93.445-4.076,179.323-44.006,272.748-47.954V1068c-93.425,3.949-179.3,43.879-272.748,47.954-91.513,3.991-185.125-39.979-276.639-35.988s-180.932,55.949-272.445,59.94-185.125-39.979-276.638-35.988-180.933,55.949-272.447,59.94-185.124-39.979-276.637-35.988S91.514,1171.817,0,1175.81Z" transform="translate(0 -1068)"/></svg>