<svg width="184" height="37" viewBox="0 0 184 37" fill="none" xmlns="http://www.w3.org/2000/svg">
<path fill-rule="evenodd" clip-rule="evenodd" d="M6.85103 25.4251C7.59102 25.4688 8.3325 25.3696 9.03502 25.1331C9.24567 25.0338 9.42029 24.8716 9.53476 24.6688C9.64923 24.4661 9.69789 24.2327 9.67403 24.0011C9.65225 23.7526 9.56383 23.5147 9.41811 23.3123C9.27238 23.1099 9.07474 22.9506 8.84602 22.8511C8.03936 22.4078 7.19589 22.0351 6.32503 21.7371C5.44703 21.4204 4.65036 21.0918 3.93503 20.7511C3.26608 20.4411 2.64991 20.0281 2.10902 19.5271C1.60463 19.0489 1.20694 18.4696 0.942017 17.8271C0.648018 17.0714 0.507286 16.2647 0.528015 15.4541C0.499589 14.6276 0.673612 13.8067 1.03491 13.0629C1.39621 12.319 1.93385 11.6747 2.60103 11.1861C4.27227 10.0536 6.26945 9.50198 8.28502 9.6161C9.44645 9.61224 10.6057 9.71601 11.748 9.92609C12.6438 10.0784 13.5255 10.3045 14.384 10.6021L13.404 14.8371C12.7061 14.6054 11.9964 14.4105 11.278 14.2531C10.4302 14.0746 9.5654 13.9891 8.69902 13.9981C6.94169 13.9981 6.06302 14.4728 6.06302 15.4221C6.05912 15.6225 6.09764 15.8216 6.17603 16.0061C6.27915 16.2078 6.43501 16.3778 6.62703 16.4981C6.91985 16.694 7.22859 16.8649 7.55002 17.0091C7.93902 17.1981 8.43402 17.3981 9.03702 17.6181C10.0833 17.9807 11.1023 18.4178 12.086 18.9261C12.7903 19.283 13.4319 19.7517 13.986 20.3141C14.4342 20.7861 14.7687 21.3542 14.964 21.9751C15.1635 22.661 15.2589 23.3729 15.247 24.0871C15.2894 24.9338 15.1084 25.7767 14.7223 26.5314C14.3362 27.2861 13.7585 27.9261 13.047 28.3871C11.154 29.4625 8.99045 29.9674 6.81702 29.8411C5.3431 29.8707 3.87096 29.7237 2.43202 29.4031C1.60668 29.2166 0.79538 28.9727 0.00402832 28.6731L0.944016 24.2551C1.8982 24.6201 2.88043 24.907 3.88103 25.1131C4.85894 25.317 5.85507 25.4209 6.85402 25.4231L6.85103 25.4251ZM130.121 10.5701C131.489 24.7701 127.678 36.5231 111.904 36.5231C109.527 36.5245 107.164 36.1699 104.892 35.4711C99.24 33.7161 97.018 30.0011 97.018 27.0761V13.6081C97.018 8.60809 100.851 5.19409 107.87 3.74509C110.188 3.27141 112.544 3.0037 114.909 2.9451C117.151 2.87222 119.395 3.03478 121.604 3.43009C126.54 4.36509 130.122 6.66909 130.122 10.5701H130.121ZM127.712 10.5701C127.712 8.12809 124.962 6.58909 121.171 5.87009C119.124 5.50476 117.044 5.35494 114.965 5.42309C112.739 5.48176 110.522 5.73675 108.34 6.18509C102.372 7.41709 99.428 10.0291 99.428 13.6071V27.0771C99.428 28.9851 100.903 31.6381 105.579 33.0891C107.617 33.7333 109.742 34.0558 111.879 34.0451C125.379 33.8731 128.979 23.1371 127.715 10.5711L127.712 10.5701ZM150.898 10.5701C149.53 24.7701 153.341 36.5231 169.115 36.5231C171.492 36.5245 173.855 36.1699 176.127 35.4711C181.779 33.7161 184.001 30.0011 184.001 27.0761V13.6081C184.001 9.42109 181.314 6.34909 176.322 4.60809V0.996094L170.713 1.87209V3.32209C169.188 3.10862 167.652 2.98208 166.113 2.94309C163.869 2.86999 161.623 3.03254 159.413 3.42809C154.477 4.36309 150.896 6.66709 150.896 10.5681L150.898 10.5701ZM153.308 10.5701C153.308 8.12809 156.057 6.58909 159.849 5.87009C161.896 5.50476 163.976 5.35494 166.055 5.42309C167.615 5.46387 169.172 5.60114 170.715 5.8341V10.5631C170.113 10.3034 169.49 10.0957 168.852 9.94209C168.166 9.78796 167.465 9.71413 166.762 9.72209C165.479 9.69869 164.205 9.93475 163.016 10.4161C161.949 10.8601 161.001 11.5478 160.248 12.4241C159.462 13.3634 158.873 14.4518 158.517 15.6241C158.1 16.9901 157.897 18.4128 157.917 19.8411C157.897 21.2534 158.135 22.6576 158.617 23.9851C159.051 25.1664 159.738 26.2383 160.631 27.1251C161.553 28.0164 162.658 28.6955 163.869 29.1151C165.273 29.5982 166.751 29.833 168.236 29.8091C168.914 29.8091 169.623 29.7788 170.363 29.7181C171.103 29.6574 171.831 29.5781 172.546 29.4801C173.261 29.3834 173.945 29.2678 174.597 29.1331C175.249 28.9984 175.826 28.8584 176.329 28.7131V7.25209C179.854 8.67209 181.598 10.8521 181.598 13.6081V27.0771C181.598 28.9851 180.123 31.6381 175.447 33.0891C173.409 33.7333 171.284 34.0558 169.147 34.0451C155.647 33.8731 152.047 23.1371 153.312 10.5711L153.308 10.5701ZM152.717 6.39709C149.171 4.85196 145.33 4.09748 141.463 4.18609C136.288 4.18609 131.713 5.33809 128.941 7.10209C129.507 7.81623 129.885 8.66051 130.041 9.55809C133.488 7.5196 137.438 6.49178 141.441 6.59209C144.816 6.54432 148.159 7.24905 151.228 8.65509C151.544 7.79517 152.058 7.02167 152.728 6.39709H152.717ZM163.636 19.5831C163.636 16.0784 164.966 14.3258 167.627 14.3251C168.205 14.3255 168.781 14.399 169.34 14.5441C169.823 14.6572 170.286 14.8419 170.714 15.0921V24.9921C170.438 25.0408 170.086 25.0834 169.659 25.1201C169.233 25.1561 168.768 25.1751 168.266 25.1751C167.607 25.218 166.948 25.1003 166.344 24.8323C165.74 24.5642 165.211 24.1538 164.801 23.6361C163.974 22.4517 163.563 21.0261 163.634 19.5831H163.636ZM146.245 14.9461C145.743 14.8241 145.153 14.6964 144.476 14.5631C143.757 14.4252 143.025 14.3582 142.293 14.3631C141.871 14.3681 141.449 14.3988 141.031 14.4551C140.657 14.4945 140.286 14.5614 139.921 14.6551V29.3331H134.311V11.1491C135.478 10.763 136.665 10.4399 137.867 10.1811C139.37 9.86245 140.904 9.7092 142.441 9.72409C142.742 9.72409 143.106 9.74242 143.533 9.77909C143.96 9.81576 144.386 9.8641 144.813 9.9241C145.24 9.98543 145.666 10.0588 146.092 10.1441C146.465 10.2138 146.83 10.3175 147.184 10.4541L146.243 14.9451L146.245 14.9461ZM102.954 19.8751C102.942 21.215 103.152 22.5477 103.575 23.8191C103.969 25.0029 104.625 26.0824 105.494 26.9771C106.421 27.9058 107.538 28.6222 108.769 29.0771C110.258 29.6177 111.834 29.8778 113.418 29.8441C114.122 29.844 114.825 29.8076 115.525 29.7351C116.228 29.6618 116.886 29.5704 117.501 29.4611C118.066 29.3635 118.626 29.2356 119.177 29.0781C119.588 28.9648 119.99 28.8183 120.377 28.6401L119.624 24.2221C118.841 24.5342 118.027 24.7605 117.196 24.8971C116.196 25.0805 115.182 25.1722 114.165 25.1711C112.815 25.2397 111.476 24.8958 110.326 24.1851C109.874 23.8907 109.493 23.4983 109.213 23.037C108.933 22.5757 108.76 22.0573 108.707 21.5201H121.431C121.456 21.2274 121.481 20.8941 121.506 20.5201C121.531 20.1461 121.544 19.7991 121.543 19.4791C121.543 16.2418 120.727 13.7894 119.096 12.1221C118.218 11.2691 117.172 10.6068 116.026 10.1766C114.88 9.74638 113.657 9.55761 112.434 9.62209C111.23 9.62193 110.037 9.84468 108.914 10.2791C107.782 10.7104 106.751 11.3689 105.883 12.2141C104.965 13.1261 104.242 14.2147 103.757 15.4141C103.191 16.8355 102.915 18.3563 102.948 19.8861L102.954 19.8751ZM116.129 17.7951C116.105 17.336 116.023 16.8817 115.885 16.4431C115.752 16.0149 115.534 15.6178 115.245 15.2751C114.942 14.9237 114.571 14.6382 114.153 14.4361C113.64 14.2014 113.08 14.0888 112.516 14.1071C111.96 14.0927 111.408 14.1988 110.897 14.4181C110.466 14.6087 110.081 14.8885 109.767 15.2391C109.461 15.5865 109.223 15.9889 109.067 16.4251C108.905 16.8695 108.785 17.3282 108.709 17.7951H116.129ZM76.001 10.7841C77.215 10.4625 78.4468 10.2124 79.69 10.0351C81.2599 9.79898 82.8455 9.68298 84.433 9.6881C85.86 9.64716 87.2828 9.86362 88.633 10.3271C89.6589 10.6907 90.5732 11.3135 91.287 12.1351C91.9549 12.9432 92.4315 13.8918 92.681 14.9101C92.9688 16.0806 93.1078 17.2828 93.095 18.4881V29.3331H87.486V19.1461C87.5873 17.8626 87.3399 16.5756 86.77 15.4211C86.4561 15.0243 86.0456 14.7147 85.5777 14.5221C85.1098 14.3295 84.6003 14.2603 84.098 14.3211C83.698 14.3211 83.2717 14.3394 82.819 14.3761C82.3663 14.4128 81.9647 14.4551 81.614 14.5031V29.3331H76.001V10.7841ZM62.601 25.5351C63.153 25.5351 63.68 25.5231 64.182 25.4991C64.5837 25.4836 64.9842 25.4469 65.382 25.3891V21.2631C65.156 21.2141 64.817 21.1631 64.366 21.1171C63.9536 21.0703 63.539 21.0456 63.124 21.0431C62.6269 21.0413 62.1302 21.0721 61.637 21.1351C61.2133 21.1838 60.8002 21.301 60.414 21.4821C60.082 21.6365 59.7965 21.8755 59.586 22.1751C59.3751 22.5021 59.2703 22.8863 59.286 23.2751C59.2505 23.6238 59.3148 23.9755 59.4715 24.289C59.6282 24.6026 59.8708 24.8651 60.171 25.0461C60.9263 25.4111 61.7612 25.5806 62.599 25.5391L62.601 25.5351ZM62.15 9.6161C63.5505 9.58067 64.9478 9.76525 66.291 10.1631C67.2894 10.4652 68.1999 11.0042 68.945 11.7341C69.6181 12.429 70.1039 13.2833 70.357 14.2171C70.6438 15.2759 70.7828 16.3692 70.77 17.4661V28.7861C69.97 28.9561 68.8534 29.1561 67.42 29.3861C65.7001 29.6378 63.9631 29.7538 62.225 29.7331C61.0561 29.7437 59.8893 29.6334 58.743 29.4041C57.7855 29.2192 56.8719 28.8537 56.051 28.3271C55.3099 27.8422 54.7119 27.1679 54.319 26.3741C53.8924 25.4483 53.687 24.436 53.719 23.4171C53.6887 22.4217 53.9308 21.437 54.419 20.5691C54.8726 19.8009 55.5136 19.1603 56.282 18.7071C57.1109 18.2269 58.0144 17.8888 58.955 17.7071C59.9834 17.4972 61.0305 17.393 62.08 17.3961C62.7272 17.3923 63.3741 17.423 64.018 17.4881C64.4816 17.5306 64.941 17.6098 65.392 17.7251V17.2141C65.4103 16.803 65.3428 16.3927 65.1939 16.0091C65.045 15.6255 64.8179 15.2772 64.527 14.9861C63.6648 14.3372 62.5895 14.0376 61.516 14.1471C60.5711 14.1462 59.6274 14.213 58.692 14.3471C57.8722 14.4554 57.0653 14.645 56.283 14.9131L55.567 10.5321C55.893 10.4341 56.301 10.3304 56.791 10.2211C57.281 10.1118 57.8144 10.0144 58.391 9.92909C58.9677 9.84376 59.5764 9.77076 60.217 9.71009C60.8577 9.64942 61.504 9.61909 62.156 9.61909L62.15 9.6161ZM50.33 14.9471C49.828 14.8251 49.2384 14.6974 48.561 14.5641C47.8416 14.4262 47.1105 14.3592 46.378 14.3641C45.9562 14.3691 45.5351 14.3998 45.117 14.4561C44.7423 14.4955 44.371 14.5623 44.006 14.6561V29.3331H38.401V11.1491C39.5685 10.7629 40.7559 10.4398 41.958 10.1811C43.4615 9.86235 44.9953 9.70911 46.532 9.72409C46.832 9.72409 47.197 9.74209 47.623 9.77909C48.049 9.81609 48.477 9.8641 48.903 9.9241C49.329 9.9841 49.756 10.0581 50.182 10.1441C50.5547 10.2138 50.9203 10.3175 51.274 10.4541L50.333 14.9451L50.33 14.9471ZM20.365 5.3471L25.974 4.47109V10.1311H32.713V14.6581H25.974V21.4131C25.9286 22.3653 26.1436 23.3119 26.596 24.1511C26.8863 24.5259 27.2702 24.8177 27.709 24.9971C28.1479 25.1766 28.6263 25.2372 29.096 25.1731C29.7206 25.1714 30.3438 25.1165 30.959 25.0091C31.5554 24.9111 32.1416 24.7585 32.71 24.5531L33.501 28.7881C32.7658 29.0735 32.0108 29.3051 31.242 29.4811C30.24 29.6935 29.2171 29.7915 28.193 29.7731C26.9 29.8129 25.6109 29.6094 24.393 29.1731C23.4625 28.8227 22.6344 28.2452 21.984 27.4931C21.3624 26.7352 20.9302 25.8402 20.723 24.8821C20.4741 23.7662 20.354 22.6254 20.365 21.4821V5.3471Z" fill="white"/>
</svg>
