<svg xmlns="http://www.w3.org/2000/svg" width="216" height="42.995" viewBox="0 0 216 42.995"><defs><style>.a{fill:#103e83;fill-rule:evenodd;}</style></defs><path class="a" d="M164.041,86.066a6.594,6.594,0,0,0,2.564-.353,1.367,1.367,0,0,0,.75-1.37,1.677,1.677,0,0,0-.972-1.392,18.474,18.474,0,0,0-2.96-1.348,30.405,30.405,0,0,1-2.806-1.193,8.262,8.262,0,0,1-2.144-1.481,5.981,5.981,0,0,1-1.37-2.055A7.6,7.6,0,0,1,156.617,74a6.21,6.21,0,0,1,2.431-5.17,10.571,10.571,0,0,1,6.673-1.9,21.425,21.425,0,0,1,4.065.375,18.875,18.875,0,0,1,3.094.818l-1.15,5.126a24.11,24.11,0,0,0-2.5-.707,13.589,13.589,0,0,0-3.027-.309q-3.095,0-3.094,1.723a1.769,1.769,0,0,0,.133.707,1.5,1.5,0,0,0,.53.6,7.325,7.325,0,0,0,1.083.619,18.681,18.681,0,0,0,1.746.737,26.772,26.772,0,0,1,3.579,1.583,8.586,8.586,0,0,1,2.232,1.68,5.214,5.214,0,0,1,1.148,2.01,8.893,8.893,0,0,1,.332,2.556,5.907,5.907,0,0,1-2.585,5.207q-2.586,1.756-7.314,1.76A20.627,20.627,0,0,1,156,90l1.1-5.347a21.662,21.662,0,0,0,3.448,1.039,16.782,16.782,0,0,0,3.49.375ZM308.749,68.087c1.606,17.19-2.868,31.411-21.385,31.411a27.167,27.167,0,0,1-8.232-1.273c-6.635-2.124-9.243-6.62-9.243-10.16v-16.3c0-6.053,4.5-10.183,12.739-11.937a45.746,45.746,0,0,1,8.263-.968,36.556,36.556,0,0,1,7.859.587c5.8,1.132,10,3.92,10,8.641Zm-2.828,0c0-2.956-3.228-4.818-7.679-5.687a33.925,33.925,0,0,0-7.285-.541,43.172,43.172,0,0,0-7.777.922c-7.006,1.491-10.462,4.652-10.462,8.983v16.3c0,2.309,1.731,5.52,7.221,7.276a23.465,23.465,0,0,0,7.392,1.157c15.849-.208,20.077-13.2,18.59-28.411Zm27.218,0c-1.606,17.19,2.868,31.411,21.385,31.411a27.167,27.167,0,0,0,8.232-1.273C369.391,96.1,372,91.605,372,88.065v-16.3c0-5.067-3.154-8.785-9.014-10.892V56.5l-6.584,1.06v1.755a46.251,46.251,0,0,0-5.4-.459,36.571,36.571,0,0,0-7.86.587c-5.794,1.132-10,3.92-10,8.641Zm2.829,0c0-2.956,3.227-4.818,7.678-5.687a33.925,33.925,0,0,1,7.285-.541,43.129,43.129,0,0,1,5.47.5v5.724a13.243,13.243,0,0,0-2.187-.751,10.333,10.333,0,0,0-2.453-.266,10.882,10.882,0,0,0-4.4.84,8.709,8.709,0,0,0-3.249,2.43,11.121,11.121,0,0,0-2.032,3.867,17.148,17.148,0,0,0-.708,5.1,14.508,14.508,0,0,0,.818,5.016,10.458,10.458,0,0,0,2.364,3.8,10.291,10.291,0,0,0,3.8,2.408,14.606,14.606,0,0,0,5.126.84q1.194,0,2.5-.11t2.563-.288q1.26-.176,2.408-.42t2.033-.508V64.071c4.138,1.719,6.185,4.36,6.185,7.693v16.3c0,2.309-1.731,5.52-7.221,7.276a23.465,23.465,0,0,1-7.392,1.157c-15.849-.208-20.077-13.2-18.589-28.411Zm-.694-5.05a30.475,30.475,0,0,0-13.211-2.676c-6.075,0-11.446,1.394-14.7,3.529a6.713,6.713,0,0,1,1.286,2.973,24.481,24.481,0,0,1,13.378-3.59,26,26,0,0,1,11.489,2.5,7.088,7.088,0,0,1,1.758-2.733ZM348.092,79q0-6.363,4.685-6.364a7.805,7.805,0,0,1,2.011.265,5.738,5.738,0,0,1,1.613.663V85.536q-.486.088-1.238.155c-.5.044-1.046.066-1.635.066a4.734,4.734,0,0,1-4.066-1.856,8.067,8.067,0,0,1-1.37-4.9Zm-20.416-5.612q-.883-.222-2.077-.464a12.76,12.76,0,0,0-2.563-.244,11.845,11.845,0,0,0-1.481.111,8.794,8.794,0,0,0-1.3.243V90.795h-6.584V68.788a39.35,39.35,0,0,1,4.175-1.171,24.024,24.024,0,0,1,5.369-.553q.531,0,1.282.067t1.5.176q.751.111,1.5.266a7.1,7.1,0,0,1,1.282.375l-1.105,5.436Zm-50.82,5.965a15.117,15.117,0,0,0,.729,4.773,10.083,10.083,0,0,0,2.253,3.822,10.616,10.616,0,0,0,3.845,2.541,14.645,14.645,0,0,0,5.458.928,23.312,23.312,0,0,0,2.474-.132q1.238-.133,2.32-.332a18.349,18.349,0,0,0,1.967-.464,9.082,9.082,0,0,0,1.414-.53l-.884-5.347a13.361,13.361,0,0,1-2.85.817,19.033,19.033,0,0,1-3.558.332,7.639,7.639,0,0,1-4.507-1.193,4.374,4.374,0,0,1-1.9-3.226h14.937q.044-.531.088-1.215t.044-1.26q0-5.877-2.873-8.9a10.266,10.266,0,0,0-7.821-3.027,11.143,11.143,0,0,0-4.132.795,10.381,10.381,0,0,0-3.558,2.342,11.613,11.613,0,0,0-2.5,3.867,14.2,14.2,0,0,0-.95,5.413Zm15.466-2.518a6.787,6.787,0,0,0-.287-1.636,4.1,4.1,0,0,0-.751-1.414A4,4,0,0,0,290,72.765a4.174,4.174,0,0,0-1.922-.4,4.4,4.4,0,0,0-1.9.376,3.912,3.912,0,0,0-1.326.994,4.453,4.453,0,0,0-.817,1.436,9.351,9.351,0,0,0-.42,1.658Zm-47.108-8.485a36.7,36.7,0,0,1,4.331-.906,35.559,35.559,0,0,1,5.568-.42,13.573,13.573,0,0,1,4.927.773,7.4,7.4,0,0,1,3.115,2.188,8.518,8.518,0,0,1,1.636,3.358,17.878,17.878,0,0,1,.486,4.331V90.795h-6.585V78.466a8.873,8.873,0,0,0-.84-4.508,3.423,3.423,0,0,0-3.137-1.326q-.706,0-1.5.067t-1.415.154V90.795h-6.584V68.346ZM229.488,86.2q.972,0,1.856-.044a13,13,0,0,0,1.414-.133V81.029a11.845,11.845,0,0,0-1.193-.177,13.268,13.268,0,0,0-1.458-.089,12.994,12.994,0,0,0-1.746.111,4.518,4.518,0,0,0-1.436.42,2.47,2.47,0,0,0-.972.839,2.338,2.338,0,0,0-.354,1.326,2.258,2.258,0,0,0,1.039,2.143,5.733,5.733,0,0,0,2.85.6Zm-.53-19.267a15.277,15.277,0,0,1,4.861.662,7.556,7.556,0,0,1,3.115,1.9,6.979,6.979,0,0,1,1.658,3,14.819,14.819,0,0,1,.485,3.932v13.7q-1.413.309-3.933.729a37.772,37.772,0,0,1-6.1.42,19.336,19.336,0,0,1-4.087-.4,8.869,8.869,0,0,1-3.16-1.3,5.956,5.956,0,0,1-2.033-2.364,8.163,8.163,0,0,1-.707-3.579,6.782,6.782,0,0,1,.818-3.447,6.293,6.293,0,0,1,2.187-2.254A9.887,9.887,0,0,1,225.2,76.72a17.559,17.559,0,0,1,3.668-.376,20.716,20.716,0,0,1,2.275.111,10.031,10.031,0,0,1,1.613.287v-.618a3.65,3.65,0,0,0-1.016-2.7,4.925,4.925,0,0,0-3.535-1.015,22.519,22.519,0,0,0-3.315.242,14.266,14.266,0,0,0-2.828.685l-.84-5.3q.574-.179,1.437-.376t1.878-.354q1.016-.154,2.143-.265t2.276-.11Zm-13.876,6.452q-.884-.222-2.077-.464a12.76,12.76,0,0,0-2.563-.244,11.83,11.83,0,0,0-1.48.111,8.787,8.787,0,0,0-1.3.243V90.795h-6.584V68.788a39.3,39.3,0,0,1,4.176-1.171,24.011,24.011,0,0,1,5.369-.553c.353,0,.781.022,1.281.067s1,.1,1.5.176,1,.162,1.5.266a7.1,7.1,0,0,1,1.282.375l-1.1,5.436ZM179.906,61.761l6.584-1.06v6.85H194.4V73.03H186.49v8.176a6.5,6.5,0,0,0,.73,3.314q.729,1.236,2.938,1.237a12.533,12.533,0,0,0,2.187-.2,11.287,11.287,0,0,0,2.056-.552l.928,5.126a18.7,18.7,0,0,1-2.652.839,15.425,15.425,0,0,1-3.579.354,11.792,11.792,0,0,1-4.464-.729,7,7,0,0,1-2.828-2.033,7.572,7.572,0,0,1-1.48-3.16,18.639,18.639,0,0,1-.42-4.109Z" transform="translate(-155.999 -56.503)"/></svg>