<svg width="63" height="63" viewBox="0 0 63 63" fill="none" xmlns="http://www.w3.org/2000/svg">
<path fill-rule="evenodd" clip-rule="evenodd" d="M48.357 23.3912L27.757 43.9912L15.057 31.2913L19.457 26.8912L27.752 35.1863L43.946 18.9933L48.346 23.3933L48.357 23.3912ZM31.706 0.239258C25.5257 0.239258 19.4842 2.072 14.3454 5.50562C9.20672 8.93923 5.20159 13.8195 2.83653 19.5294C0.471476 25.2393 -0.147274 31.5223 1.05852 37.5839C2.26431 43.6454 5.24049 49.2132 9.6107 53.5833C13.9809 57.9533 19.5489 60.9294 25.6105 62.135C31.672 63.3406 37.955 62.7216 43.6648 60.3563C49.3746 57.9911 54.2548 53.9859 57.6883 48.847C61.1217 43.7082 62.9542 37.6665 62.954 31.4862C62.9298 23.2063 59.6297 15.2724 53.7748 9.41772C47.9199 3.563 39.986 0.263265 31.706 0.239258Z" fill="#344BA3"/>
</svg>
