<svg xmlns="http://www.w3.org/2000/svg" width="495" height="660" viewBox="0 0 495 660"><defs><style>.a,.h,.j,.p{fill:#fff;}.b{fill:#e0e0e0;}.b,.c,.e,.f,.i,.j,.k,.m,.o,.s,.t{fill-rule:evenodd;}.c{fill:#eaeaea;}.d,.r,.u{fill:#132740;}.d{font-size:13.405px;}.d,.h,.n,.p{font-family:NunitoSans-Bold, Nunito Sans;font-weight:700;}.e{fill:#d6e1eb;}.f,.n{fill:#4d5c6f;}.f{opacity:0.5;}.g,.l,.o{fill:#546dd2;}.h{font-size:14px;}.i{fill:#aec3d8;}.k{fill:#00f232;stroke:#fff;stroke-miterlimit:2.613;stroke-width:2.4px;}.l,.n,.p,.r{font-size:12px;}.l,.r{font-family:NunitoSans-Regular, Nunito Sans;}.m{fill:#ffd920;}.q{fill:#f7f7ff;}.s{fill:#efefef;}.t{fill:#cbcbcb;}</style></defs><g transform="translate(-353.365 -4116.096)"><rect class="a" width="495" height="660" rx="33" transform="translate(353.365 4116.096)"/><path class="b" d="M600.864,4143.6a5.5,5.5,0,1,1-5.5,5.5,5.5,5.5,0,0,1,5.5-5.5Zm214.5-27.5h-429a33.1,33.1,0,0,0-33,33v594a33.1,33.1,0,0,0,33,33h429a33.1,33.1,0,0,0,33-33v-594a33.1,33.1,0,0,0-33-33Zm-429,55h429v550h-429v-550Zm214.5,558.25a13.75,13.75,0,1,1-13.749,13.75A13.75,13.75,0,0,1,600.864,4729.346Z"/><path class="c" d="M386.364,4127.1h429a22.092,22.092,0,0,1,22,22v594a22.092,22.092,0,0,1-22,22h-429a22.093,22.093,0,0,1-22-22v-594a22.093,22.093,0,0,1,22-22Zm429-11h-429a33.1,33.1,0,0,0-33,33v594a33.1,33.1,0,0,0,33,33h429a33.1,33.1,0,0,0,33-33v-594A33.1,33.1,0,0,0,815.365,4116.1Z"/><rect class="a" width="429" height="550" transform="translate(386.365 4171.096)"/><text class="d" transform="translate(595.771 4201.805)"><tspan x="-176.26" y="0">Find Top Nerds to have One-On-One Chat Sessions with,</tspan><tspan x="-154.248" y="13.405">for help with your homework and study problems.</tspan></text><rect class="a" width="288.234" height="40.219" rx="6.703" transform="translate(456.747 4244.83)"/><path class="e" d="M463.45,4284.379H738.279a6.052,6.052,0,0,0,6.032-6.033v-26.813a6.052,6.052,0,0,0-6.032-6.033H463.45a6.052,6.052,0,0,0-6.032,6.033v26.813a6.052,6.052,0,0,0,6.032,6.033Zm274.829,1.34H463.45a7.392,7.392,0,0,1-7.373-7.373v-26.813a7.394,7.394,0,0,1,7.373-7.373H738.279a7.394,7.394,0,0,1,7.373,7.373v26.813a7.394,7.394,0,0,1-7.373,7.373Z"/><path class="f" d="M485.254,4259.124l-3.763,8.46h-.868l-3.763-8.46h1.051l3.152,7.224,3.165-7.224Z"/><path class="f" d="M490.5,4264.812h-4.35a2.275,2.275,0,0,0,.563,1.542,1.943,1.943,0,0,0,1.453.522,2.976,2.976,0,0,0,1.906-.7l.33.708a2.8,2.8,0,0,1-1,.57,3.8,3.8,0,0,1-1.246.21,2.957,2.957,0,0,1-2.193-.8,3.009,3.009,0,0,1-.8-2.22,3.434,3.434,0,0,1,.354-1.59,2.611,2.611,0,0,1,1-1.074,2.788,2.788,0,0,1,1.46-.384,2.348,2.348,0,0,1,1.857.762,3.057,3.057,0,0,1,.672,2.094v.36Zm-2.517-2.46a1.675,1.675,0,0,0-1.252.48,2.17,2.17,0,0,0-.556,1.356h3.458a2.054,2.054,0,0,0-.453-1.362A1.528,1.528,0,0,0,487.979,4262.352Z"/><path class="f" d="M495.322,4262.436l-.647.06a1.894,1.894,0,0,0-1.326.564,1.767,1.767,0,0,0-.41,1.188v3.336h-.989v-5.844h.965v1.02a2.193,2.193,0,0,1,1.967-1.14l.355-.024Z"/><path class="f" d="M501.883,4261.751l-3.519,7.992H497.35l1-2.232-2.517-5.76h1.051l1.991,4.776,2.016-4.776Z"/><path class="f" d="M511.389,4261.74v5.448a2.636,2.636,0,0,1-.684,1.974,2.8,2.8,0,0,1-2.029.666,4.272,4.272,0,0,1-2.626-.792l.33-.72a4.856,4.856,0,0,0,1.124.552,3.841,3.841,0,0,0,1.172.168,1.732,1.732,0,0,0,1.3-.45,1.806,1.806,0,0,0,.44-1.314v-1.032a1.846,1.846,0,0,1-.789.864,2.5,2.5,0,0,1-1.252.3,2.658,2.658,0,0,1-1.387-.36,2.458,2.458,0,0,1-.941-1.02,3.624,3.624,0,0,1,0-3.048,2.458,2.458,0,0,1,.941-1.02,2.658,2.658,0,0,1,1.387-.36,2.442,2.442,0,0,1,1.234.3,1.932,1.932,0,0,1,.794.852v-1.008Zm-2.822,4.86a1.691,1.691,0,0,0,1.343-.558,2.672,2.672,0,0,0,.007-3.072,1.69,1.69,0,0,0-1.35-.558,1.727,1.727,0,0,0-1.363.558,2.634,2.634,0,0,0,0,3.072A1.727,1.727,0,0,0,508.567,4266.6Z"/><path class="f" d="M515.689,4267.668a2.907,2.907,0,0,1-1.484-.372,2.5,2.5,0,0,1-.99-1.062,3.861,3.861,0,0,1,0-3.2,2.5,2.5,0,0,1,.99-1.062,2.911,2.911,0,0,1,1.484-.372,2.943,2.943,0,0,1,1.491.372,2.484,2.484,0,0,1,1,1.062,3.862,3.862,0,0,1,0,3.2,2.484,2.484,0,0,1-1,1.062,2.938,2.938,0,0,1-1.491.372Zm0-.8a1.653,1.653,0,0,0,1.351-.57,3.135,3.135,0,0,0-.006-3.312,1.843,1.843,0,0,0-2.688,0,3.122,3.122,0,0,0-.007,3.306A1.644,1.644,0,0,0,515.689,4266.864Z"/><path class="f" d="M522.471,4267.668a2.908,2.908,0,0,1-1.485-.372,2.5,2.5,0,0,1-.989-1.062,3.852,3.852,0,0,1,0-3.2,2.5,2.5,0,0,1,.989-1.062,3.163,3.163,0,0,1,2.975,0,2.484,2.484,0,0,1,1,1.062,3.861,3.861,0,0,1,0,3.2,2.484,2.484,0,0,1-1,1.062,2.934,2.934,0,0,1-1.49.372Zm0-.8a1.652,1.652,0,0,0,1.35-.57,3.135,3.135,0,0,0-.006-3.312,1.843,1.843,0,0,0-2.688,0,3.122,3.122,0,0,0-.007,3.306A1.645,1.645,0,0,0,522.471,4266.864Z"/><path class="f" d="M532.062,4259.124v8.46h-.99v-1.068a1.944,1.944,0,0,1-.788.852,2.389,2.389,0,0,1-1.216.3,2.5,2.5,0,0,1-1.38-.384,2.553,2.553,0,0,1-.929-1.074,3.674,3.674,0,0,1-.33-1.6,3.6,3.6,0,0,1,.33-1.584,2.477,2.477,0,0,1,.929-1.056,2.563,2.563,0,0,1,1.38-.372,2.384,2.384,0,0,1,1.216.3,1.942,1.942,0,0,1,.788.852v-3.624Zm-2.8,7.74a1.623,1.623,0,0,0,1.338-.582,2.568,2.568,0,0,0,.47-1.65,2.542,2.542,0,0,0-.47-1.644,1.631,1.631,0,0,0-1.338-.576,1.666,1.666,0,0,0-1.35.576,2.452,2.452,0,0,0-.483,1.62,2.567,2.567,0,0,0,.483,1.662A1.643,1.643,0,0,0,529.264,4266.864Z"/><path class="f" d="M537.047,4261.74h.99v5.844h-.99v-5.844Zm1.1-2.532v1.092h-1.2v-1.092Z"/><path class="f" d="M542.875,4261.6q2.137,0,2.138,2.316v3.672h-.99v-3.612a1.793,1.793,0,0,0-.323-1.188,1.3,1.3,0,0,0-1.033-.372,1.761,1.761,0,0,0-1.307.492,1.806,1.806,0,0,0-.489,1.332v3.348h-.99v-5.844h.978v.96a1.981,1.981,0,0,1,.818-.822A2.5,2.5,0,0,1,542.875,4261.6Z"/><path class="f" d="M559.039,4261.74l-2.211,5.844h-.953l-1.674-4.524-1.686,4.524h-.941l-2.212-5.844h1.026l1.686,4.692,1.723-4.692h.855l1.7,4.692,1.7-4.692Z"/><path class="f" d="M563.255,4261.6q2.137,0,2.138,2.316v3.672h-.99v-3.612a1.787,1.787,0,0,0-.324-1.188,1.3,1.3,0,0,0-1.032-.372,1.763,1.763,0,0,0-1.308.492,1.806,1.806,0,0,0-.488,1.332v3.348h-.99v-8.46h.99v3.552a1.974,1.974,0,0,1,.812-.8A2.5,2.5,0,0,1,563.255,4261.6Z"/><path class="f" d="M569.62,4261.6a2.265,2.265,0,0,1,1.692.57,2.394,2.394,0,0,1,.556,1.734v3.684H570.9v-1a1.726,1.726,0,0,1-.709.8,2.115,2.115,0,0,1-1.1.282,2.445,2.445,0,0,1-1.057-.228,1.876,1.876,0,0,1-.764-.636,1.555,1.555,0,0,1-.281-.9,1.445,1.445,0,0,1,.342-1.026,2.089,2.089,0,0,1,1.124-.528,11.321,11.321,0,0,1,2.175-.162h.269v-.4a1.537,1.537,0,0,0-.3-1.062,1.3,1.3,0,0,0-.99-.33,3.866,3.866,0,0,0-2.041.624l-.33-.708a3.95,3.95,0,0,1,1.118-.522,4.365,4.365,0,0,1,1.265-.2Zm-.391,5.3a1.6,1.6,0,0,0,1.2-.486,1.727,1.727,0,0,0,.471-1.254v-.348h-.22a11.116,11.116,0,0,0-1.637.09,1.614,1.614,0,0,0-.8.3.782.782,0,0,0-.238.618.987.987,0,0,0,.348.774A1.28,1.28,0,0,0,569.229,4266.9Z"/><path class="f" d="M576.291,4266.888a4.076,4.076,0,0,0,.538-.036l-.049.768a3.67,3.67,0,0,1-.611.048,2.179,2.179,0,0,1-1.619-.552,2.094,2.094,0,0,1-.544-1.536v-3.072h-1.161v-.768h1.161v-1.776H575v1.776h1.686v.768H575v3Q575,4266.888,576.291,4266.888Z"/><path class="f" d="M583,4267.668a3.535,3.535,0,0,1-2.383-.756l.33-.72a3.2,3.2,0,0,0,.971.534,3.59,3.59,0,0,0,1.118.162,1.884,1.884,0,0,0,1.008-.222.717.717,0,0,0,.349-.642.7.7,0,0,0-.233-.552,1.764,1.764,0,0,0-.769-.324l-1-.228a2.286,2.286,0,0,1-1.161-.576,1.379,1.379,0,0,1-.4-1.008,1.513,1.513,0,0,1,.623-1.26,2.649,2.649,0,0,1,1.662-.48,3.547,3.547,0,0,1,1.185.2,2.523,2.523,0,0,1,.941.57l-.33.708a2.743,2.743,0,0,0-1.8-.684,1.727,1.727,0,0,0-.972.234.808.808,0,0,0-.134,1.212,1.425,1.425,0,0,0,.69.318l1.014.24a2.582,2.582,0,0,1,1.234.582,1.346,1.346,0,0,1,.4,1.014,1.435,1.435,0,0,1-.63,1.224A2.868,2.868,0,0,1,583,4267.668Z"/><path class="f" d="M591.857,4261.74v5.844h-.966v-1a1.914,1.914,0,0,1-.787.8,2.35,2.35,0,0,1-1.143.276,2.07,2.07,0,0,1-1.6-.582,2.453,2.453,0,0,1-.538-1.722v-3.624h.989v3.6a1.725,1.725,0,0,0,.318,1.146,1.259,1.259,0,0,0,1,.366,1.663,1.663,0,0,0,1.259-.5,1.824,1.824,0,0,0,.476-1.314v-3.3Z"/><path class="f" d="M596.7,4261.6a2.564,2.564,0,0,1,1.381.372,2.468,2.468,0,0,1,.928,1.056,3.6,3.6,0,0,1,.33,1.584,3.674,3.674,0,0,1-.33,1.6,2.544,2.544,0,0,1-.928,1.074,2.5,2.5,0,0,1-1.381.384,2.394,2.394,0,0,1-1.216-.3,1.942,1.942,0,0,1-.787-.852v1.068h-.99v-8.46h.99v3.624a1.939,1.939,0,0,1,.787-.852,2.389,2.389,0,0,1,1.216-.3Zm-.2,5.268a1.625,1.625,0,0,0,1.344-.594,2.6,2.6,0,0,0,.476-1.662,2.479,2.479,0,0,0-.476-1.62,1.648,1.648,0,0,0-1.344-.576,1.628,1.628,0,0,0-1.338.576,2.537,2.537,0,0,0-.47,1.644,2.562,2.562,0,0,0,.47,1.65A1.621,1.621,0,0,0,596.5,4266.864Z"/><path class="f" d="M601.8,4267.524a2.208,2.208,0,0,1-.537,1.62,2.5,2.5,0,0,1-1.662.612l-.55.036-.073-.756.55-.036a1.21,1.21,0,0,0,1.283-1.344v-5.916h.989v5.784Zm.11-8.316v1.092h-1.2v-1.092Z"/><path class="f" d="M608.632,4264.812h-4.349a2.27,2.27,0,0,0,.562,1.542,1.945,1.945,0,0,0,1.454.522,2.98,2.98,0,0,0,1.906-.7l.329.708a2.8,2.8,0,0,1-1,.57,3.811,3.811,0,0,1-1.247.21,2.957,2.957,0,0,1-2.193-.8,3.009,3.009,0,0,1-.8-2.22,3.435,3.435,0,0,1,.354-1.59,2.611,2.611,0,0,1,1-1.074,2.788,2.788,0,0,1,1.46-.384,2.348,2.348,0,0,1,1.857.762,3.057,3.057,0,0,1,.672,2.094v.36Zm-2.517-2.46a1.675,1.675,0,0,0-1.252.48,2.17,2.17,0,0,0-.556,1.356h3.458a2.053,2.053,0,0,0-.452-1.362A1.53,1.53,0,0,0,606.115,4262.352Z"/><path class="f" d="M612.6,4267.668a3.014,3.014,0,0,1-1.527-.372,2.5,2.5,0,0,1-1-1.05,3.775,3.775,0,0,1,.012-3.192,2.64,2.64,0,0,1,1.014-1.074,2.975,2.975,0,0,1,1.534-.384,3.389,3.389,0,0,1,1.173.21,2.554,2.554,0,0,1,.928.558l-.33.72a2.733,2.733,0,0,0-1.71-.672,1.8,1.8,0,0,0-1.43.588,2.439,2.439,0,0,0-.513,1.656,2.374,2.374,0,0,0,.513,1.632,1.817,1.817,0,0,0,1.43.576,2.73,2.73,0,0,0,1.71-.672l.33.72a2.738,2.738,0,0,1-.953.552A3.51,3.51,0,0,1,612.6,4267.668Z"/><path class="f" d="M618.565,4266.888a4.054,4.054,0,0,0,.538-.036l-.049.768a3.66,3.66,0,0,1-.611.048,2.175,2.175,0,0,1-1.618-.552,2.093,2.093,0,0,1-.544-1.536v-3.072H615.12v-.768h1.161v-1.776h.989v1.776h1.686v.768H617.27v3Q617.27,4266.888,618.565,4266.888Z"/><path class="f" d="M638.974,4263.169l-5.027,4.938-5.027-4.938,1.423-1.4,3.6,3.54,3.6-3.54Z"/><rect class="g" width="87.141" height="40.219" rx="6.703" transform="translate(657.841 4244.83)"/><text class="h" transform="translate(679.011 4270.875)"><tspan x="0" y="0">Search</tspan></text><rect class="a" width="395.484" height="144.118" rx="6.703" transform="translate(403.122 4311.862)"/><path class="e" d="M409.825,4455.645H791.9a6.387,6.387,0,0,0,6.368-6.368V4318.565a6.387,6.387,0,0,0-6.368-6.368H409.825a6.387,6.387,0,0,0-6.368,6.368v130.712a6.388,6.388,0,0,0,6.368,6.368Zm382.078.67H409.825a7.061,7.061,0,0,1-7.038-7.038V4318.565a7.058,7.058,0,0,1,7.038-7.038H791.9a7.058,7.058,0,0,1,7.038,7.038v130.712a7.057,7.057,0,0,1-7.038,7.038Z"/><path class="i" d="M470.6,4368.839a20.109,20.109,0,1,0-20.11-20.11A20.148,20.148,0,0,0,470.6,4368.839Z"/><path class="j" d="M470.5,4349.77h.177a5.126,5.126,0,0,0,3.915-1.694c2.137-2.41,1.782-6.54,1.743-6.934-.139-2.96-1.538-4.376-2.693-5.037a6.176,6.176,0,0,0-2.986-.782h-.1a6.188,6.188,0,0,0-2.987.76c-1.166.662-2.587,2.077-2.726,5.059-.039.394-.394,4.524,1.744,6.934a5.1,5.1,0,0,0,3.908,1.694Zm11.5,6.851h0a8.983,8.983,0,0,1-.267,2.51.746.746,0,0,1-.289.35,23.456,23.456,0,0,1-21.675,0,.718.718,0,0,1-.289-.35,8.537,8.537,0,0,1-.283-2.515v-.017a1.031,1.031,0,0,0,.006-.138c.033-1.094.105-3.664,2.515-4.493l.055-.016a15.8,15.8,0,0,0,4.608-2.1.75.75,0,0,1,.861,1.228,17.469,17.469,0,0,1-5.069,2.314c-1.293.461-1.438,1.844-1.477,3.11,0,.05-.006.094-.006.139a9.539,9.539,0,0,0,.118,1.716,22.165,22.165,0,0,0,19.581.005,10.122,10.122,0,0,0,.117-1.716,1.035,1.035,0,0,1-.006-.139c-.039-1.265-.183-2.648-1.476-3.109a17.316,17.316,0,0,1-5.07-2.315.749.749,0,0,1,.861-1.227,16.016,16.016,0,0,0,4.608,2.1c.017,0,.039.01.056.016,2.41.823,2.482,3.393,2.514,4.492,0,.05.007.094.007.139v.016Zm-15.669-15.34h0c0-.017.006-.034.006-.045.183-3.981,3.009-4.409,4.22-4.409h.066c1.5.033,4.048.645,4.219,4.409a.106.106,0,0,0,.006.045c.006.038.395,3.814-1.371,5.8a3.645,3.645,0,0,1-2.859,1.188h-.056a3.633,3.633,0,0,1-2.854-1.188C465.951,4345.106,466.328,4341.314,466.333,4341.281Z"/><path class="k" d="M484.007,4368.839a6.7,6.7,0,1,0-6.7-6.7A6.716,6.716,0,0,0,484.007,4368.839Z"/><text class="d" transform="translate(510.335 4349.729)"><tspan x="0" y="0">Jerry Maguire</tspan></text><text class="l" transform="translate(509.298 4366.416)"><tspan x="0" y="0">Einstein</tspan></text><path class="m" d="M452.978,4382.693a.538.538,0,0,0-.46-.383l-2.9-.275-1.147-2.8a.526.526,0,0,0-.983,0l-1.148,2.8-2.9.275a.54.54,0,0,0-.459.383.569.569,0,0,0,.156.592l2.193,2.008-.646,2.973a.567.567,0,0,0,.207.576.514.514,0,0,0,.587.027l2.5-1.562,2.5,1.562a.514.514,0,0,0,.587-.027.571.571,0,0,0,.208-.576l-.647-2.973,2.194-2.007a.575.575,0,0,0,.156-.593Zm0,0"/><path class="m" d="M440.41,4382.693a.538.538,0,0,0-.46-.383l-2.9-.275-1.148-2.8a.525.525,0,0,0-.982,0l-1.148,2.8-2.9.275a.541.541,0,0,0-.46.383.573.573,0,0,0,.156.592l2.194,2.008-.647,2.973a.57.57,0,0,0,.208.576.519.519,0,0,0,.313.106.526.526,0,0,0,.274-.079l2.5-1.562,2.5,1.562a.515.515,0,0,0,.588-.027.571.571,0,0,0,.208-.576l-.647-2.973,2.193-2.007a.573.573,0,0,0,.157-.593Zm0,0"/><path class="m" d="M465.547,4382.693a.538.538,0,0,0-.46-.383l-2.9-.275-1.148-2.8a.525.525,0,0,0-.982,0l-1.148,2.8-2.9.275a.54.54,0,0,0-.46.383.573.573,0,0,0,.156.592l2.194,2.008-.647,2.973a.57.57,0,0,0,.208.576.519.519,0,0,0,.313.106.526.526,0,0,0,.274-.079l2.5-1.562,2.5,1.562a.515.515,0,0,0,.588-.027.573.573,0,0,0,.208-.576l-.647-2.973,2.193-2.007a.574.574,0,0,0,.157-.593Zm0,0"/><path class="m" d="M478.115,4382.693a.537.537,0,0,0-.46-.383l-2.9-.275-1.147-2.8a.526.526,0,0,0-.983,0l-1.147,2.8-2.9.275a.54.54,0,0,0-.459.383.571.571,0,0,0,.156.592l2.193,2.008-.647,2.973a.57.57,0,0,0,.208.576.514.514,0,0,0,.587.027l2.5-1.562,2.5,1.562a.514.514,0,0,0,.587-.027.571.571,0,0,0,.208-.576l-.647-2.973,2.194-2.007a.573.573,0,0,0,.156-.593Zm0,0"/><path class="m" d="M490.684,4382.693a.539.539,0,0,0-.46-.383l-2.9-.275-1.147-2.8a.526.526,0,0,0-.983,0l-1.147,2.8-2.9.275a.54.54,0,0,0-.459.383.573.573,0,0,0,.156.592l2.194,2.008-.647,2.973a.569.569,0,0,0,.207.576.514.514,0,0,0,.587.027l2.5-1.562,2.5,1.562a.514.514,0,0,0,.587-.027.571.571,0,0,0,.208-.576l-.647-2.973,2.194-2.007a.576.576,0,0,0,.157-.593Zm0,0"/><text class="n" transform="translate(491.892 4413.409)"><tspan x="-67.859" y="0">Strongest In</tspan></text><text class="l" transform="translate(509.28 4413.409)"><tspan x="0" y="0">Physics</tspan></text><text class="n" transform="translate(668.487 4389.948)"><tspan x="0" y="0">36 Sessions Hosted </tspan></text><text class="n" transform="translate(509.672 4390.039)"><tspan x="0" y="0">244 Questions Answered</tspan></text><path class="o" d="M669.3,4328.62H771.794a13.445,13.445,0,0,1,13.406,13.406h0a13.446,13.446,0,0,1-13.406,13.407H669.3a13.446,13.446,0,0,1-13.406-13.407h0A13.446,13.446,0,0,1,669.3,4328.62Z"/><text class="p" transform="translate(668.284 4346.242)"><tspan x="0" y="0">Request A Session</tspan></text><text class="n" transform="translate(491.606 4436.87)"><tspan x="-72.287" y="0">Routine Tags</tspan></text><rect class="q" width="46.921" height="16.758" rx="8.379" transform="translate(570.083 4425.132)"/><path class="e" d="M572.461,4441.559h30.164a8.049,8.049,0,0,0,0-16.1H572.461a8.049,8.049,0,0,0,0,16.1Zm30.164.66H572.461a8.709,8.709,0,0,1,0-17.417h30.164a8.709,8.709,0,0,1,0,17.417Z"/><text class="r" transform="translate(578.056 4437.217)"><tspan x="0" y="0">waves</tspan></text><rect class="q" width="46.922" height="16.758" rx="8.379" transform="translate(617.966 4425.132)"/><path class="e" d="M632.345,4441.559h30.164a8.049,8.049,0,0,0,0-16.1H632.345a8.049,8.049,0,0,0,0,16.1Zm30.164.66H632.345a8.709,8.709,0,0,1,0-17.417h30.164a8.709,8.709,0,0,1,0,17.417Z"/><text class="r" transform="translate(630.55 4438.312)"><tspan x="0" y="0">motion</tspan></text><rect class="q" width="53.625" height="16.758" rx="8.379" transform="translate(503.755 4425.132)"/><path class="e" d="M518.134,4441.559H555a8.049,8.049,0,0,0,0-16.1H518.134a8.049,8.049,0,0,0,0,16.1Zm36.867.66H518.134a8.709,8.709,0,0,1,0-17.417H555a8.709,8.709,0,0,1,0,17.417Z"/><text class="r" transform="translate(519.601 4438.35)"><tspan x="0" y="0">indices</tspan></text><rect class="q" width="56.977" height="16.758" rx="8.379" transform="translate(677.59 4425.132)"/><path class="e" d="M679.969,4441.56h40.219a8.049,8.049,0,0,0,0-16.1H679.969a8.049,8.049,0,0,0,0,16.1Zm40.219.66H679.969a8.709,8.709,0,0,1,0-17.418h40.219a8.709,8.709,0,0,1,0,17.418Z"/><text class="r" transform="translate(690.457 4438.395)"><tspan x="0" y="0">e-mc2</tspan></text><path class="a" d="M6.7,0H388.781a6.7,6.7,0,0,1,6.7,6.7V137.414a6.7,6.7,0,0,1-6.7,6.7H6.7a6.7,6.7,0,0,1-6.7-6.7V6.7A6.7,6.7,0,0,1,6.7,0Z" transform="translate(403.122 4473.15)"/><path class="e" d="M409.825,4616.934H791.9a6.387,6.387,0,0,0,6.368-6.369V4479.854a6.385,6.385,0,0,0-6.368-6.368H409.825a6.385,6.385,0,0,0-6.368,6.368v130.711a6.388,6.388,0,0,0,6.368,6.369Zm382.078.67H409.825a7.061,7.061,0,0,1-7.038-7.039V4479.854a7.057,7.057,0,0,1,7.038-7.038H791.9a7.057,7.057,0,0,1,7.038,7.038v130.711a7.057,7.057,0,0,1-7.038,7.039Z"/><path class="i" d="M470.6,4530.127a20.109,20.109,0,1,0-20.11-20.109A20.148,20.148,0,0,0,470.6,4530.127Z"/><path class="j" d="M470.5,4511.058h.177a5.123,5.123,0,0,0,3.915-1.693c2.137-2.41,1.782-6.541,1.743-6.935-.139-2.959-1.538-4.375-2.693-5.036a6.166,6.166,0,0,0-2.986-.782h-.1a6.178,6.178,0,0,0-2.987.76c-1.166.661-2.587,2.076-2.726,5.058-.039.394-.394,4.525,1.744,6.935a5.1,5.1,0,0,0,3.908,1.693Zm11.5,6.852h0a8.983,8.983,0,0,1-.267,2.51.743.743,0,0,1-.289.349,23.448,23.448,0,0,1-21.675,0,.715.715,0,0,1-.289-.349,8.546,8.546,0,0,1-.283-2.516v-.016a1.039,1.039,0,0,0,.006-.139c.033-1.093.105-3.664,2.515-4.492l.055-.016a15.826,15.826,0,0,0,4.608-2.1.749.749,0,0,1,.861,1.227,17.429,17.429,0,0,1-5.069,2.315c-1.293.461-1.438,1.844-1.477,3.109,0,.051-.006.1-.006.139a9.533,9.533,0,0,0,.118,1.716,22.154,22.154,0,0,0,19.581,0,10.105,10.105,0,0,0,.117-1.716,1.013,1.013,0,0,1-.006-.138c-.039-1.266-.183-2.648-1.476-3.109a17.344,17.344,0,0,1-5.07-2.315.75.75,0,0,1,.861-1.228,16.033,16.033,0,0,0,4.608,2.1c.017,0,.039.01.056.016,2.41.822,2.482,3.393,2.514,4.491,0,.051.007.1.007.14v.016Zm-15.669-15.341h0c0-.017.006-.033.006-.044.183-3.981,3.009-4.409,4.22-4.409h.066c1.5.033,4.048.644,4.219,4.409a.1.1,0,0,0,.006.044c.006.039.395,3.814-1.371,5.8a3.642,3.642,0,0,1-2.859,1.189h-.056a3.63,3.63,0,0,1-2.854-1.189C465.951,4506.4,466.328,4502.6,466.333,4502.569Z"/><path class="k" d="M484.007,4530.127a6.7,6.7,0,1,0-6.7-6.7A6.716,6.716,0,0,0,484.007,4530.127Z"/><text class="d" transform="translate(510.335 4511.018)"><tspan x="0" y="0">Jerry Maguire</tspan></text><text class="l" transform="translate(509.298 4527.705)"><tspan x="0" y="0">Einstein</tspan></text><path class="m" d="M452.978,4543.982a.537.537,0,0,0-.46-.383l-2.9-.275-1.147-2.8a.526.526,0,0,0-.983,0l-1.148,2.8-2.9.275a.538.538,0,0,0-.459.383.57.57,0,0,0,.156.592l2.193,2.008-.646,2.973a.566.566,0,0,0,.207.575.512.512,0,0,0,.587.027l2.5-1.561,2.5,1.561a.512.512,0,0,0,.587-.027.569.569,0,0,0,.208-.575l-.647-2.973,2.194-2.008a.574.574,0,0,0,.156-.592Zm0,0"/><path class="m" d="M440.41,4543.982a.537.537,0,0,0-.46-.383l-2.9-.275-1.148-2.8a.525.525,0,0,0-.982,0l-1.148,2.8-2.9.275a.54.54,0,0,0-.46.383.574.574,0,0,0,.156.592l2.194,2.008-.647,2.973a.568.568,0,0,0,.208.575.512.512,0,0,0,.587.027l2.5-1.561,2.5,1.561a.514.514,0,0,0,.588-.027.569.569,0,0,0,.208-.575l-.647-2.973,2.193-2.008a.572.572,0,0,0,.157-.592Zm0,0"/><path class="m" d="M465.547,4543.982a.537.537,0,0,0-.46-.383l-2.9-.275-1.148-2.8a.525.525,0,0,0-.982,0l-1.148,2.8-2.9.275a.538.538,0,0,0-.46.383.574.574,0,0,0,.156.592l2.194,2.008-.647,2.973a.568.568,0,0,0,.208.575.512.512,0,0,0,.587.027l2.5-1.561,2.5,1.561a.513.513,0,0,0,.588-.027.571.571,0,0,0,.208-.575l-.647-2.973,2.193-2.008a.572.572,0,0,0,.157-.592Zm0,0"/><path class="m" d="M478.115,4543.982a.536.536,0,0,0-.46-.383l-2.9-.275-1.147-2.8a.526.526,0,0,0-.983,0l-1.147,2.8-2.9.275a.538.538,0,0,0-.459.383.572.572,0,0,0,.156.592l2.193,2.008-.647,2.973a.568.568,0,0,0,.208.575.512.512,0,0,0,.587.027l2.5-1.561,2.5,1.561a.512.512,0,0,0,.587-.027.569.569,0,0,0,.208-.575l-.647-2.973,2.194-2.008a.572.572,0,0,0,.156-.592Zm0,0"/><path class="m" d="M490.684,4543.982a.538.538,0,0,0-.46-.383l-2.9-.275-1.147-2.8a.526.526,0,0,0-.983,0l-1.147,2.8-2.9.275a.538.538,0,0,0-.459.383.574.574,0,0,0,.156.592l2.194,2.008-.647,2.973a.568.568,0,0,0,.207.575.511.511,0,0,0,.587.027l2.5-1.561,2.5,1.561a.512.512,0,0,0,.587-.027.569.569,0,0,0,.208-.575l-.647-2.973,2.194-2.008a.574.574,0,0,0,.157-.592Zm0,0"/><text class="n" transform="translate(491.892 4574.698)"><tspan x="-67.859" y="0">Strongest In</tspan></text><text class="l" transform="translate(509.28 4574.698)"><tspan x="0" y="0">Physics</tspan></text><text class="n" transform="translate(668.487 4551.236)"><tspan x="0" y="0">36 Sessions Hosted </tspan></text><text class="n" transform="translate(509.672 4551.327)"><tspan x="0" y="0">244 Questions Answered</tspan></text><path class="o" d="M669.3,4489.909H771.794a13.445,13.445,0,0,1,13.406,13.406h0a13.445,13.445,0,0,1-13.406,13.406H669.3a13.445,13.445,0,0,1-13.406-13.406h0A13.446,13.446,0,0,1,669.3,4489.909Z"/><text class="p" transform="translate(668.284 4507.531)"><tspan x="0" y="0">Request A Session</tspan></text><text class="n" transform="translate(491.606 4598.159)"><tspan x="-72.287" y="0">Routine Tags</tspan></text><rect class="q" width="46.921" height="16.758" rx="8.379" transform="translate(570.083 4586.42)"/><path class="e" d="M572.461,4602.848h30.164a8.049,8.049,0,0,0,0-16.1H572.461a8.049,8.049,0,0,0,0,16.1Zm30.164.66H572.461a8.709,8.709,0,0,1,0-17.417h30.164a8.709,8.709,0,0,1,0,17.417Z"/><text class="r" transform="translate(578.056 4598.505)"><tspan x="0" y="0">waves</tspan></text><rect class="q" width="46.922" height="16.758" rx="8.379" transform="translate(617.966 4586.42)"/><path class="e" d="M632.345,4602.848h30.164a8.049,8.049,0,0,0,0-16.1H632.345a8.049,8.049,0,0,0,0,16.1Zm30.164.66H632.345a8.709,8.709,0,0,1,0-17.417h30.164a8.709,8.709,0,0,1,0,17.417Z"/><text class="r" transform="translate(630.55 4599.6)"><tspan x="0" y="0">motion</tspan></text><rect class="q" width="53.625" height="16.758" rx="8.379" transform="translate(509.755 4586.42)"/><path class="e" d="M512.134,4602.848H549a8.049,8.049,0,0,0,0-16.1H512.134a8.049,8.049,0,0,0,0,16.1Zm36.867.66H512.134a8.709,8.709,0,0,1,0-17.417H549a8.709,8.709,0,0,1,0,17.417Z"/><text class="r" transform="translate(519.601 4599.639)"><tspan x="0" y="0">indices</tspan></text><rect class="q" width="56.977" height="16.758" rx="8.379" transform="translate(677.59 4586.421)"/><path class="e" d="M679.969,4602.849h40.219a8.049,8.049,0,0,0,0-16.1H679.969a8.049,8.049,0,0,0,0,16.1Zm40.219.66H679.969a8.709,8.709,0,0,1,0-17.418h40.219a8.709,8.709,0,0,1,0,17.418Z"/><text class="r" transform="translate(690.457 4599.683)"><tspan x="0" y="0">e-mc2</tspan></text><path class="j" d="M798.606,4721.1v-79.953a6.723,6.723,0,0,0-6.7-6.7H409.825a6.723,6.723,0,0,0-6.7,6.7V4721.1Z"/><path class="e" d="M798.271,4721.1v-79.953a6.388,6.388,0,0,0-6.368-6.369H409.825a6.387,6.387,0,0,0-6.368,6.369V4721.1h-.67v-79.953a7.057,7.057,0,0,1,7.038-7.039H791.9a7.057,7.057,0,0,1,7.038,7.039V4721.1Z"/><path class="i" d="M470.6,4691.416a20.11,20.11,0,1,0-20.11-20.11A20.148,20.148,0,0,0,470.6,4691.416Z"/><path class="j" d="M470.5,4672.347h.177a5.122,5.122,0,0,0,3.915-1.693c2.137-2.41,1.782-6.541,1.743-6.935-.139-2.959-1.538-4.376-2.693-5.036a6.166,6.166,0,0,0-2.986-.783h-.1a6.182,6.182,0,0,0-2.987.761c-1.166.661-2.587,2.076-2.726,5.058-.039.394-.394,4.525,1.744,6.935a5.1,5.1,0,0,0,3.908,1.693ZM482,4679.2h0a8.981,8.981,0,0,1-.267,2.509.746.746,0,0,1-.289.35,23.448,23.448,0,0,1-21.675,0,.718.718,0,0,1-.289-.35,8.54,8.54,0,0,1-.283-2.515v-.016a1.046,1.046,0,0,0,.006-.139c.033-1.094.105-3.664,2.515-4.492l.055-.017a15.8,15.8,0,0,0,4.608-2.1.75.75,0,0,1,.861,1.228,17.472,17.472,0,0,1-5.069,2.315c-1.293.46-1.438,1.844-1.477,3.109,0,.05-.006.095-.006.139a9.546,9.546,0,0,0,.118,1.716,22.162,22.162,0,0,0,19.581,0,10.112,10.112,0,0,0,.117-1.716,1.028,1.028,0,0,1-.006-.139c-.039-1.265-.183-2.648-1.476-3.109a17.288,17.288,0,0,1-5.07-2.315.749.749,0,0,1,.861-1.227,16.016,16.016,0,0,0,4.608,2.1l.056.017c2.41.822,2.482,3.392,2.514,4.491,0,.05.007.1.007.139v.017Zm-15.669-15.341h0c0-.017.006-.034.006-.045.183-3.981,3.009-4.408,4.22-4.408h.066c1.5.033,4.048.644,4.219,4.408a.1.1,0,0,0,.006.045c.006.038.395,3.814-1.371,5.8a3.642,3.642,0,0,1-2.859,1.188h-.056a3.63,3.63,0,0,1-2.854-1.188C465.951,4667.683,466.328,4663.891,466.333,4663.858Z"/><path class="k" d="M484.007,4691.416a6.7,6.7,0,1,0-6.7-6.7A6.717,6.717,0,0,0,484.007,4691.416Z"/><text class="d" transform="translate(510.335 4672.307)"><tspan x="0" y="0">Jerry Maguire</tspan></text><text class="l" transform="translate(509.298 4688.994)"><tspan x="0" y="0">Einstein</tspan></text><path class="m" d="M452.978,4705.271a.538.538,0,0,0-.46-.384l-2.9-.275-1.147-2.8a.526.526,0,0,0-.983,0l-1.148,2.8-2.9.275a.539.539,0,0,0-.459.384.569.569,0,0,0,.156.592l2.193,2.007-.646,2.973a.568.568,0,0,0,.207.576.51.51,0,0,0,.587.027l2.5-1.561,2.5,1.561a.514.514,0,0,0,.587-.027.57.57,0,0,0,.208-.576l-.647-2.973,2.194-2.007a.573.573,0,0,0,.156-.592Zm0,0"/><path class="m" d="M440.41,4705.271a.538.538,0,0,0-.46-.384l-2.9-.275-1.148-2.8a.525.525,0,0,0-.982,0l-1.148,2.8-2.9.275a.541.541,0,0,0-.46.384.573.573,0,0,0,.156.592l2.194,2.007-.647,2.973a.57.57,0,0,0,.208.576.51.51,0,0,0,.587.027l2.5-1.561,2.5,1.561a.515.515,0,0,0,.588-.027.57.57,0,0,0,.208-.576l-.647-2.973,2.193-2.007a.571.571,0,0,0,.157-.592Zm0,0"/><path class="m" d="M465.547,4705.271a.538.538,0,0,0-.46-.384l-2.9-.275-1.148-2.8a.525.525,0,0,0-.982,0l-1.148,2.8-2.9.275a.539.539,0,0,0-.46.384.573.573,0,0,0,.156.592l2.194,2.007-.647,2.973a.57.57,0,0,0,.208.576.51.51,0,0,0,.587.027l2.5-1.561,2.5,1.561a.515.515,0,0,0,.588-.027.572.572,0,0,0,.208-.576l-.647-2.973,2.193-2.007a.571.571,0,0,0,.157-.592Zm0,0"/><path class="m" d="M478.115,4705.271a.537.537,0,0,0-.46-.384l-2.9-.275-1.147-2.8a.526.526,0,0,0-.983,0l-1.147,2.8-2.9.275a.539.539,0,0,0-.459.384.571.571,0,0,0,.156.592l2.193,2.007-.647,2.973a.57.57,0,0,0,.208.576.51.51,0,0,0,.587.027l2.5-1.561,2.5,1.561a.514.514,0,0,0,.587-.027.57.57,0,0,0,.208-.576l-.647-2.973,2.194-2.007a.571.571,0,0,0,.156-.592Zm0,0"/><path class="m" d="M490.684,4705.271a.539.539,0,0,0-.46-.384l-2.9-.275-1.147-2.8a.526.526,0,0,0-.983,0l-1.147,2.8-2.9.275a.539.539,0,0,0-.459.384.573.573,0,0,0,.156.592l2.194,2.007-.647,2.973a.57.57,0,0,0,.207.576.516.516,0,0,0,.313.107.509.509,0,0,0,.274-.08l2.5-1.561,2.5,1.561a.514.514,0,0,0,.587-.027.57.57,0,0,0,.208-.576l-.647-2.973,2.194-2.007a.573.573,0,0,0,.157-.592Zm0,0"/><text class="n" transform="translate(668.487 4712.525)"><tspan x="0" y="0">36 Sessions Hosted </tspan></text><text class="n" transform="translate(509.672 4712.616)"><tspan x="0" y="0">244 Questions Answered</tspan></text><path class="o" d="M669.3,4651.2H771.794A13.446,13.446,0,0,1,785.2,4664.6h0a13.445,13.445,0,0,1-13.406,13.406H669.3a13.446,13.446,0,0,1-13.406-13.406h0A13.446,13.446,0,0,1,669.3,4651.2Z"/><text class="p" transform="translate(668.284 4668.819)"><tspan x="0" y="0">Request A Session</tspan></text><path class="s" d="M614.614,4743.1a13.75,13.75,0,1,0-13.75,13.75A13.75,13.75,0,0,0,614.614,4743.1Z"/><path class="t" d="M613.654,4743.1a12.79,12.79,0,1,0-3.746,9.044,12.753,12.753,0,0,0,3.746-9.044Zm-2.389-10.4a14.708,14.708,0,1,1-10.4-4.309A14.662,14.662,0,0,1,611.265,4732.695Z"/><circle class="u" cx="5.5" cy="5.5" r="5.5" transform="translate(595.365 4143.597)"/></g></svg>