<svg xmlns="http://www.w3.org/2000/svg" width="269.999" height="259.199" viewBox="0 0 269.999 259.199"><defs><style>.a{fill:#5d94cc;fill-rule:evenodd;}</style></defs><path class="a" d="M1584.833,1404.921l-74.33,74.328a11.426,11.426,0,0,1-16.169,0l-37.164-37.164a11.433,11.433,0,0,1,16.169-16.169l29.079,29.08,66.246-66.244a11.433,11.433,0,1,1,16.169,16.169Zm-128.249-59.868c-48.633-2.874-57.565,9.46-39.811,54.972-41.029,26.352-41.029,41.6,0,67.949-17.754,45.513-8.822,57.846,39.812,54.971,12.3,47.29,26.756,52,64.416,21,37.66,31,52.113,26.292,64.416-21,48.633,2.875,57.566-9.459,39.812-54.972,41.028-26.352,41.028-41.6,0-67.949,17.754-45.512,8.821-57.845-39.812-54.971-12.3-47.289-26.756-52-64.416-21C1483.34,1293.053,1468.887,1297.764,1456.584,1345.053Z" transform="translate(-1386.001 -1304.4)"/></svg>