<svg xmlns="http://www.w3.org/2000/svg" width="36" height="27.692" viewBox="0 0 36 27.692"><defs><style>.a{fill:#214a73;fill-rule:evenodd;}</style></defs><path class="a" d="M1651.846,4960.155h-27.691a3.726,3.726,0,0,0-1.662.36c14.218,14.377,11.706,11.845,14.538,14.677a1.388,1.388,0,0,0,1.938,0c2.832-2.832.317-.3,14.539-14.677a3.73,3.73,0,0,0-1.662-.36Zm-17.972,15.784,1.163,1.191a4.145,4.145,0,0,0,5.926,0l1.163-1.191,13.4-13.514a3.955,3.955,0,0,1,.471,1.883v19.385a3.783,3.783,0,0,1-.416,1.772l-1.966,1.966a3.8,3.8,0,0,1-1.772.416h-27.691a3.8,3.8,0,0,1-1.773-.416l-1.966-1.966a3.8,3.8,0,0,1-.416-1.772v-19.385a3.967,3.967,0,0,1,.471-1.883Z" transform="translate(-1620 -4960.155)"/></svg>