<svg xmlns="http://www.w3.org/2000/svg" width="84.003" height="83.995" viewBox="0 0 84.003 83.995"><defs><style>.a{fill:#103e83;fill-rule:evenodd;}</style></defs><path class="a" d="M1344.3,5188.5c-13.4,0-26.466.76-28.257-15.092-.747-6.6-.545-17.931-.545-25.121,0-12.889-.807-26.465,15.092-28.265,6.6-.751,17.936-.554,25.126-.554,12.889,0,26.465-.8,28.264,15.1.829,7.3.765,31.769-.021,39.109-.928,8.611-5.961,13.319-14.521,14.285-6.606.747-17.94.541-25.138.541Zm23.111-56.762c0,6.185,9.985,6.593,9.985-.291,0-6.168-9.985-6.593-9.985.291Zm-38.8,23.107c0,10.733,9.814,20.543,20.547,20.543h1.71c10.737,0,20.538-9.81,20.538-20.543v-1.709c0-10.738-9.8-20.538-20.538-20.538h-1.71c-10.733,0-20.547,9.8-20.547,20.538v1.709Zm35.377.576c0-3.007.048-4.879-1.412-7.714-2.079-4.046-6.988-7.692-11.141-7.692-4.441,0-7.839.546-11.343,4.054-1.95,1.942-4.059,5.781-4.059,8.5,0,4.445.541,7.838,4.059,11.347a17.174,17.174,0,0,0,3.633,2.646,14.386,14.386,0,0,0,12.571,0c4.046-2.088,7.692-7,7.692-11.137Zm-55.906,2.847c0,7.839-.258,18.821,3.225,25.293a28.233,28.233,0,0,0,3.969,5.446,25.1,25.1,0,0,0,5.54,3.882c7.984,3.9,23.553,3.028,33.191,3.028,10.9,0,23.163.7,30.889-7.047l1.151-1.418a21.671,21.671,0,0,0,5.064-11.48c1.2-8.766,1.177-35.48-.034-44.22a21.93,21.93,0,0,0-18.825-18.825c-8.839-1.237-35.691-1.22-44.474,0a21.938,21.938,0,0,0-16.664,11.867C1307.2,5132.812,1308.084,5148.588,1308.084,5158.268Z" transform="translate(-1307.998 -5112.005)"/></svg>