<svg xmlns="http://www.w3.org/2000/svg" width="84" height="84" viewBox="0 0 84 84"><defs><style>.a{fill:#103e83;fill-rule:evenodd;}</style></defs><path class="a" d="M1482,5111.861a42,42,0,1,0,42,42,42,42,0,0,0-42-42Zm19.176,32.747q.029.621.028,1.246c0,12.739-9.7,27.428-27.429,27.429h0a27.283,27.283,0,0,1-14.776-4.331,19.646,19.646,0,0,0,2.3.134,19.345,19.345,0,0,0,11.974-4.127,9.65,9.65,0,0,1-9.006-6.7,9.594,9.594,0,0,0,4.354-.165,9.644,9.644,0,0,1-7.734-9.45c0-.043,0-.082,0-.123a9.563,9.563,0,0,0,4.366,1.206,9.647,9.647,0,0,1-2.984-12.87,27.368,27.368,0,0,0,19.87,10.072,9.646,9.646,0,0,1,16.428-8.791,19.336,19.336,0,0,0,6.121-2.34,9.679,9.679,0,0,1-4.239,5.332,19.22,19.22,0,0,0,5.536-1.518A19.58,19.58,0,0,1,1501.177,5144.608Z" transform="translate(-1440.001 -5111.861)"/></svg>