<svg xmlns="http://www.w3.org/2000/svg" width="35.999" height="35.999" viewBox="0 0 35.999 35.999"><defs><style>.a{fill:#214a73;fill-rule:evenodd;}</style></defs><path class="a" d="M1631.853,4904.732l8.846-8.853a2.375,2.375,0,0,1,3.145-.162l8.929-8.928a11.323,11.323,0,0,0-15.463.548l-14,14a11.389,11.389,0,0,0-.548,15.464l8.928-8.929a2.374,2.374,0,0,1,.162-3.145Zm2.035,9.9-4.475,4.475a3.243,3.243,0,0,1-4.475,0l-.746-.746,8.95-8.949.746.745a3.164,3.164,0,0,1,0,4.475Zm20.438-26.411.746.745a3.161,3.161,0,0,1,0,4.474l-4.474,4.475a3.24,3.24,0,0,1-4.475,0l-.746-.745Z" transform="translate(-1620.001 -4884.002)"/></svg>