<svg width="68" height="63" viewBox="0 0 68 63" fill="none" xmlns="http://www.w3.org/2000/svg">
<path fill-rule="evenodd" clip-rule="evenodd" d="M13.395 26.7963C12.7068 26.417 12.1399 25.8507 11.76 25.1628C11.3801 24.475 11.2026 23.6937 11.2481 22.9092C11.2936 22.1247 11.5602 21.3691 12.0171 20.7297C12.474 20.0904 13.1025 19.5934 13.83 19.2963C14.5481 19 15.335 18.9115 16.101 19.0409C16.867 19.1703 17.5811 19.5125 18.162 20.0283C18.9329 20.7062 19.4262 21.645 19.547 22.6644C19.6679 23.6839 19.4078 24.712 18.8167 25.5514C18.2256 26.3907 17.3453 26.9821 16.3447 27.2119C15.3442 27.4417 14.2941 27.2936 13.396 26.7963H13.395ZM57.425 32.0223C53.166 42.6083 41.546 50.2383 27.911 50.2383H16.299C20.789 57.6473 29.917 62.7383 40.412 62.7383H65.412C65.8246 62.7383 66.2279 62.6158 66.5708 62.3864C66.9137 62.1569 67.1807 61.8308 67.338 61.4493C67.4974 61.0696 67.5392 60.6507 67.4581 60.2469C67.377 59.8432 67.1767 59.4731 66.883 59.1843L61.702 54.0023C65.3721 50.189 67.445 45.1166 67.496 39.8243C67.4939 37.1416 66.9447 34.4875 65.882 32.0243C64.3815 28.615 62.0758 25.621 59.163 23.2993C59.1384 26.2908 58.5501 29.2507 57.429 32.0243L57.425 32.0223ZM24.305 25.2383C23.9378 24.6049 23.744 23.886 23.743 23.1539C23.742 22.4218 23.9339 21.7025 24.2994 21.0681C24.6649 20.4338 25.191 19.9069 25.8249 19.5405C26.4587 19.1742 27.1779 18.9813 27.91 18.9813C28.6421 18.9813 29.3613 19.1742 29.9951 19.5405C30.6289 19.9069 31.1551 20.4338 31.5206 21.0681C31.8861 21.7025 32.078 22.4218 32.077 23.1539C32.076 23.886 31.8822 24.6049 31.515 25.2383C31.15 25.8715 30.6246 26.3975 29.9918 26.7632C29.3589 27.1289 28.6409 27.3213 27.91 27.3213C27.1791 27.3213 26.4611 27.1289 25.8282 26.7632C25.1954 26.3975 24.67 25.8715 24.305 25.2383ZM27.911 46.0703C39.132 46.0703 48.78 40.2703 52.884 32.0243C54.2671 29.2722 54.9892 26.2354 54.993 23.1553C54.9468 18.0793 53.0285 13.1991 49.606 9.45032C44.663 3.86132 36.779 0.240234 27.911 0.240234C12.977 0.240234 0.830002 10.5123 0.830002 23.1553C0.883353 28.4471 2.95592 33.5187 6.62401 37.3333L1.442 42.5153C1.15007 42.8062 0.951092 43.1773 0.870315 43.5814C0.789539 43.9856 0.830594 44.4046 0.988266 44.7854C1.14594 45.1662 1.41313 45.4916 1.75597 45.7203C2.0988 45.9491 2.50184 46.0709 2.91399 46.0703H27.911ZM40.411 27.3232C39.3171 27.3063 38.2738 26.86 37.5063 26.0804C36.7388 25.3009 36.3085 24.2507 36.3085 23.1567C36.3085 22.0628 36.7388 21.0127 37.5063 20.2332C38.2738 19.4536 39.3171 19.0072 40.411 18.9902C40.9524 18.9899 41.4885 19.0959 41.989 19.3022C42.8828 19.6678 43.6219 20.3325 44.0798 21.1827C44.5378 22.0329 44.6861 23.0159 44.4995 23.9634C44.3129 24.9109 43.8029 25.764 43.0568 26.3771C42.3106 26.9901 41.3747 27.325 40.409 27.3243L40.411 27.3232Z" fill="#344BA3"/>
</svg>
