<svg xmlns="http://www.w3.org/2000/svg" width="96" height="96" viewBox="0 0 96 96"><defs><style>.a{fill:#fff;}.a,.b{fill-rule:evenodd;}.b{fill:#546dd2;}</style></defs><g transform="translate(-1332.001 -1401.516)"><path class="a" d="M1362,1497.516h36a30.088,30.088,0,0,0,30-30v-18a48.14,48.14,0,0,0-48-48h0a48.14,48.14,0,0,0-48,48v18A30.088,30.088,0,0,0,1362,1497.516Z"/><path class="b" d="M1375.576,1450.415v14.1h-14.1v-9.954a26.374,26.374,0,0,1,8.433-20.046l5.254,4.148q-5.392,5.945-6.083,11.751Zm22.95,0v14.1h-14.1v-9.954a26.372,26.372,0,0,1,8.433-20.046l5.253,4.148q-5.391,5.945-6.083,11.751Z"/></g></svg>