<svg xmlns="http://www.w3.org/2000/svg" xmlns:xlink="http://www.w3.org/1999/xlink" width="425.4" height="539.401" viewBox="0 0 425.4 539.401"><defs><style>.a,.l{fill:#fff;}.a{stroke:#afc4d9;stroke-width:2.4px;}.a,.i{stroke-miterlimit:2.613;}.b{fill:#ebf3fa;}.c,.d{fill:#344ba3;}.c{font-size:18px;}.c,.e{font-family:Ubuntu-Regular, Ubuntu;}.d{font-size:24px;}.d,.g,.j{font-family:Ubuntu-Bold, Ubuntu;font-weight:700;}.e,.f,.g,.j{fill:#395c7f;}.e,.j{font-size:16px;}.f,.h,.l,.m{fill-rule:evenodd;}.g{font-size:20px;}.h{fill:#ffc107;}.i{fill:none;stroke:#395c7f;stroke-width:1.92px;}.k{fill:#afc4d9;}.m{fill:#81ff81;}.n{filter:url(#a);}</style><filter id="a" x="0" y="0" width="425.4" height="539.401" filterUnits="userSpaceOnUse"><feOffset dx="-5" dy="5" input="SourceAlpha"/><feGaussianBlur stdDeviation="7.5" result="b"/><feFlood flood-color="#17224d" flood-opacity="0.149"/><feComposite operator="in" in2="b"/><feComposite in="SourceGraphic"/></filter></defs><g transform="translate(-865.299 -2477.299)"><g class="n" transform="matrix(1, 0, 0, 1, 865.3, 2477.3)"><rect class="a" width="378" height="492.001" rx="18" transform="translate(28.7 18.7)"/></g><path class="b" d="M6,0H162a6,6,0,0,1,6,6V30a6,6,0,0,1-6,6H6a6,6,0,0,1-6-6V6A6,6,0,0,1,6,0Z" transform="translate(998.999 2567.999)"/><text class="c" transform="translate(999.722 2654.471)"><tspan x="0" y="0">Jerry Godwin</tspan></text><text class="d" transform="translate(1024.729 2539.591)"><tspan x="0" y="0">Top Nerds</tspan></text><text class="e" transform="translate(1025.047 2592.61)"><tspan x="0" y="0">Subject</tspan></text><path class="f" d="M1141.862,2583.484l-7.142,7.015-7.141-7.015,2.021-1.985,5.12,5.029,5.12-5.029Z"/><text class="g" transform="translate(910.834 2671.304)"><tspan x="0" y="0">1.</tspan></text><path class="h" d="M1027.767,2692.538a.643.643,0,0,0-.549-.457l-3.464-.329-1.369-3.345a.627.627,0,0,0-1.173,0l-1.37,3.345-3.464.328a.643.643,0,0,0-.548.457.684.684,0,0,0,.186.707l2.619,2.4-.773,3.549a.682.682,0,0,0,.248.687.613.613,0,0,0,.7.032l2.988-1.864,2.986,1.864a.615.615,0,0,0,.7-.032.681.681,0,0,0,.248-.687l-.772-3.549,2.618-2.4a.687.687,0,0,0,.187-.708Zm0,0"/><path class="h" d="M1012.767,2692.538a.643.643,0,0,0-.549-.457l-3.464-.329-1.369-3.345a.627.627,0,0,0-1.173,0l-1.37,3.345-3.464.328a.643.643,0,0,0-.548.457.684.684,0,0,0,.186.707l2.618,2.4-.772,3.549a.682.682,0,0,0,.248.687.613.613,0,0,0,.7.032l2.987-1.864,2.987,1.864a.615.615,0,0,0,.7-.032.683.683,0,0,0,.248-.687l-.772-3.549,2.618-2.4a.687.687,0,0,0,.187-.708Zm0,0"/><path class="h" d="M1042.768,2692.538a.643.643,0,0,0-.549-.457l-3.464-.329-1.369-3.345a.627.627,0,0,0-1.173,0l-1.37,3.345-3.464.328a.642.642,0,0,0-.548.457.682.682,0,0,0,.186.707l2.618,2.4-.772,3.549a.682.682,0,0,0,.248.687.621.621,0,0,0,.374.127.611.611,0,0,0,.326-.095l2.988-1.864,2.987,1.864a.615.615,0,0,0,.7-.032.683.683,0,0,0,.248-.687l-.772-3.549,2.618-2.4a.687.687,0,0,0,.187-.708Zm0,0"/><path class="h" d="M1057.768,2692.538a.642.642,0,0,0-.549-.457l-3.463-.329-1.37-3.345a.627.627,0,0,0-1.173,0l-1.369,3.345-3.465.328a.643.643,0,0,0-.548.457.684.684,0,0,0,.186.707l2.619,2.4-.773,3.549a.682.682,0,0,0,.248.687.613.613,0,0,0,.7.032l2.988-1.864,2.986,1.864a.615.615,0,0,0,.7-.032.679.679,0,0,0,.248-.687l-.772-3.549,2.618-2.4a.685.685,0,0,0,.187-.708Zm0,0"/><path class="h" d="M1072.768,2692.538a.642.642,0,0,0-.549-.457l-3.463-.329-1.37-3.345a.627.627,0,0,0-1.173,0l-1.369,3.345-3.465.328a.643.643,0,0,0-.548.457.683.683,0,0,0,.187.707l2.618,2.4-.772,3.549a.678.678,0,0,0,.248.687.611.611,0,0,0,.7.032l2.988-1.864,2.986,1.864a.615.615,0,0,0,.7-.032.679.679,0,0,0,.248-.687l-.772-3.549,2.618-2.4a.685.685,0,0,0,.187-.708Zm0,0"/><rect class="i" width="96" height="30" rx="15" transform="translate(1158 2663.999)"/><text class="j" transform="translate(1172.313 2683.539)"><tspan x="0" y="0">Message</tspan></text><circle class="k" cx="24" cy="24" r="24" transform="translate(931.114 2646.177) rotate(-13.329)"/><path class="l" d="M959.884,2665.241h.211a6.117,6.117,0,0,0,4.672-2.022c2.551-2.876,2.127-7.806,2.08-8.276-.165-3.532-1.835-5.222-3.213-6.011a7.36,7.36,0,0,0-3.565-.933h-.113a7.368,7.368,0,0,0-3.564.907c-1.392.789-3.089,2.478-3.254,6.037-.046.47-.47,5.4,2.081,8.276a6.091,6.091,0,0,0,4.665,2.022Zm13.723,8.176h0a10.675,10.675,0,0,1-.319,3,.886.886,0,0,1-.344.417c-.2.126-4.964,3.168-12.934,3.168s-12.736-3.035-12.935-3.168a.847.847,0,0,1-.344-.417,10.163,10.163,0,0,1-.338-3v-.02a1.246,1.246,0,0,0,.007-.165c.039-1.306.125-4.373,3-5.362l.066-.019a18.852,18.852,0,0,0,5.5-2.506.895.895,0,0,1,1.027,1.466,20.862,20.862,0,0,1-6.05,2.763c-1.543.549-1.716,2.2-1.762,3.71,0,.061-.007.113-.007.166a11.319,11.319,0,0,0,.14,2.048,26.45,26.45,0,0,0,23.37.006,11.982,11.982,0,0,0,.139-2.048,1.449,1.449,0,0,1-.006-.165c-.047-1.511-.22-3.16-1.763-3.711a20.673,20.673,0,0,1-6.05-2.763.894.894,0,0,1,1.027-1.464,19.157,19.157,0,0,0,5.5,2.505c.019.006.047.012.066.019,2.876.982,2.962,4.049,3,5.361,0,.06.007.113.007.166v.019Zm-18.7-18.308h0c0-.021.007-.04.007-.053.218-4.752,3.592-5.262,5.036-5.262h.079c1.79.04,4.831.769,5.036,5.262a.126.126,0,0,0,.007.053c.007.046.471,4.552-1.637,6.924a4.343,4.343,0,0,1-3.412,1.419h-.067a4.333,4.333,0,0,1-3.406-1.419C954.45,2659.674,954.9,2655.148,954.907,2655.109Z"/><path class="m" d="M975,2688a9,9,0,1,0-9-9A9.017,9.017,0,0,0,975,2688Z"/><text class="e" transform="translate(1000.206 2676.919)"><tspan x="0" y="0">Mathematics</tspan></text><text class="e" transform="translate(1000.467 2724.28)"><tspan x="0" y="0">87 reviews</tspan></text><text class="c" transform="translate(999.722 2762.471)"><tspan x="0" y="0">Timmy Fernandes</tspan></text><text class="g" transform="translate(910.834 2779.304)"><tspan x="0" y="0">2.</tspan></text><path class="h" d="M1027.767,2800.538a.643.643,0,0,0-.549-.457l-3.464-.329-1.369-3.345a.627.627,0,0,0-1.173,0l-1.37,3.345-3.464.328a.643.643,0,0,0-.548.457.684.684,0,0,0,.186.707l2.619,2.4-.773,3.549a.682.682,0,0,0,.248.687.613.613,0,0,0,.7.032l2.988-1.864,2.986,1.864a.615.615,0,0,0,.7-.032.681.681,0,0,0,.248-.687l-.772-3.549,2.618-2.4a.687.687,0,0,0,.187-.708Zm0,0"/><path class="h" d="M1012.767,2800.538a.643.643,0,0,0-.549-.457l-3.464-.329-1.369-3.345a.627.627,0,0,0-1.173,0l-1.37,3.345-3.464.328a.643.643,0,0,0-.548.457.684.684,0,0,0,.186.707l2.618,2.4-.772,3.549a.682.682,0,0,0,.248.687.613.613,0,0,0,.7.032l2.987-1.864,2.987,1.864a.615.615,0,0,0,.7-.032.683.683,0,0,0,.248-.687l-.772-3.549,2.618-2.4a.687.687,0,0,0,.187-.708Zm0,0"/><path class="h" d="M1042.768,2800.538a.643.643,0,0,0-.549-.457l-3.464-.329-1.369-3.345a.627.627,0,0,0-1.173,0l-1.37,3.345-3.464.328a.642.642,0,0,0-.548.457.682.682,0,0,0,.186.707l2.618,2.4-.772,3.549a.682.682,0,0,0,.248.687.621.621,0,0,0,.374.127.611.611,0,0,0,.326-.095l2.988-1.864,2.987,1.864a.615.615,0,0,0,.7-.032.683.683,0,0,0,.248-.687l-.772-3.549,2.618-2.4a.687.687,0,0,0,.187-.708Zm0,0"/><path class="h" d="M1057.768,2800.538a.642.642,0,0,0-.549-.457l-3.463-.329-1.37-3.345a.627.627,0,0,0-1.173,0l-1.369,3.345-3.465.328a.643.643,0,0,0-.548.457.684.684,0,0,0,.186.707l2.619,2.4-.773,3.549a.682.682,0,0,0,.248.687.613.613,0,0,0,.7.032l2.988-1.864,2.986,1.864a.615.615,0,0,0,.7-.032.679.679,0,0,0,.248-.687l-.772-3.549,2.618-2.4a.685.685,0,0,0,.187-.708Zm0,0"/><path class="h" d="M1072.768,2800.538a.642.642,0,0,0-.549-.457l-3.463-.329-1.37-3.345a.627.627,0,0,0-1.173,0l-1.369,3.345-3.465.328a.643.643,0,0,0-.548.457.683.683,0,0,0,.187.707l2.618,2.4-.772,3.549a.678.678,0,0,0,.248.687.611.611,0,0,0,.7.032l2.988-1.864,2.986,1.864a.615.615,0,0,0,.7-.032.679.679,0,0,0,.248-.687l-.772-3.549,2.618-2.4a.685.685,0,0,0,.187-.708Zm0,0"/><rect class="i" width="96" height="30" rx="15" transform="translate(1158 2771.999)"/><text class="j" transform="translate(1172.313 2791.539)"><tspan x="0" y="0">Message</tspan></text><circle class="k" cx="24" cy="24" r="24" transform="translate(931.114 2754.177) rotate(-13.329)"/><path class="l" d="M959.884,2773.241h.211a6.117,6.117,0,0,0,4.672-2.022c2.551-2.876,2.127-7.806,2.08-8.276-.165-3.532-1.835-5.222-3.213-6.011a7.36,7.36,0,0,0-3.565-.933h-.113a7.368,7.368,0,0,0-3.564.907c-1.392.789-3.089,2.478-3.254,6.037-.046.47-.47,5.4,2.081,8.276a6.091,6.091,0,0,0,4.665,2.022Zm13.723,8.176h0a10.675,10.675,0,0,1-.319,3,.886.886,0,0,1-.344.417c-.2.126-4.964,3.168-12.934,3.168s-12.736-3.035-12.935-3.168a.847.847,0,0,1-.344-.417,10.163,10.163,0,0,1-.338-3v-.02a1.246,1.246,0,0,0,.007-.165c.039-1.306.125-4.373,3-5.362l.066-.019a18.852,18.852,0,0,0,5.5-2.506.895.895,0,0,1,1.027,1.466,20.862,20.862,0,0,1-6.05,2.763c-1.543.549-1.716,2.2-1.762,3.71,0,.061-.007.113-.007.166a11.319,11.319,0,0,0,.14,2.048,26.45,26.45,0,0,0,23.37.006,11.982,11.982,0,0,0,.139-2.048,1.449,1.449,0,0,1-.006-.165c-.047-1.511-.22-3.16-1.763-3.711a20.673,20.673,0,0,1-6.05-2.763.894.894,0,0,1,1.027-1.464,19.157,19.157,0,0,0,5.5,2.505c.019.006.047.012.066.019,2.876.982,2.962,4.049,3,5.361,0,.06.007.113.007.166v.019Zm-18.7-18.308h0c0-.021.007-.04.007-.053.218-4.752,3.592-5.262,5.036-5.262h.079c1.79.04,4.831.769,5.036,5.262a.126.126,0,0,0,.007.053c.007.046.471,4.552-1.637,6.924a4.343,4.343,0,0,1-3.412,1.419h-.067a4.333,4.333,0,0,1-3.406-1.419C954.45,2767.674,954.9,2763.148,954.907,2763.109Z"/><path class="m" d="M975,2796a9,9,0,1,0-9-9A9.017,9.017,0,0,0,975,2796Z"/><text class="e" transform="translate(1000.206 2784.919)"><tspan x="0" y="0">Mathematics</tspan></text><text class="e" transform="translate(1000.467 2832.28)"><tspan x="0" y="0">83 reviews</tspan></text><text class="c" transform="translate(999.722 2870.471)"><tspan x="0" y="0">Sukky Specter</tspan></text><text class="g" transform="translate(910.834 2887.304)"><tspan x="0" y="0">3.</tspan></text><path class="h" d="M1027.767,2908.538a.643.643,0,0,0-.549-.457l-3.464-.329-1.369-3.345a.627.627,0,0,0-1.173,0l-1.37,3.345-3.464.328a.643.643,0,0,0-.548.457.684.684,0,0,0,.186.707l2.619,2.4-.773,3.549a.682.682,0,0,0,.248.687.613.613,0,0,0,.7.032l2.988-1.864,2.986,1.864a.615.615,0,0,0,.7-.032.681.681,0,0,0,.248-.687l-.772-3.549,2.618-2.4a.687.687,0,0,0,.187-.708Zm0,0"/><path class="h" d="M1012.767,2908.538a.643.643,0,0,0-.549-.457l-3.464-.329-1.369-3.345a.627.627,0,0,0-1.173,0l-1.37,3.345-3.464.328a.643.643,0,0,0-.548.457.684.684,0,0,0,.186.707l2.618,2.4-.772,3.549a.682.682,0,0,0,.248.687.613.613,0,0,0,.7.032l2.987-1.864,2.987,1.864a.615.615,0,0,0,.7-.032.683.683,0,0,0,.248-.687l-.772-3.549,2.618-2.4a.687.687,0,0,0,.187-.708Zm0,0"/><path class="h" d="M1042.768,2908.538a.643.643,0,0,0-.549-.457l-3.464-.329-1.369-3.345a.627.627,0,0,0-1.173,0l-1.37,3.345-3.464.328a.642.642,0,0,0-.548.457.682.682,0,0,0,.186.707l2.618,2.4-.772,3.549a.682.682,0,0,0,.248.687.621.621,0,0,0,.374.127.611.611,0,0,0,.326-.095l2.988-1.864,2.987,1.864a.615.615,0,0,0,.7-.032.683.683,0,0,0,.248-.687l-.772-3.549,2.618-2.4a.687.687,0,0,0,.187-.708Zm0,0"/><path class="h" d="M1057.768,2908.538a.642.642,0,0,0-.549-.457l-3.463-.329-1.37-3.345a.627.627,0,0,0-1.173,0l-1.369,3.345-3.465.328a.643.643,0,0,0-.548.457.684.684,0,0,0,.186.707l2.619,2.4-.773,3.549a.682.682,0,0,0,.248.687.613.613,0,0,0,.7.032l2.988-1.864,2.986,1.864a.615.615,0,0,0,.7-.032.679.679,0,0,0,.248-.687l-.772-3.549,2.618-2.4a.685.685,0,0,0,.187-.708Zm0,0"/><path class="h" d="M1072.768,2908.538a.642.642,0,0,0-.549-.457l-3.463-.329-1.37-3.345a.627.627,0,0,0-1.173,0l-1.369,3.345-3.465.328a.643.643,0,0,0-.548.457.683.683,0,0,0,.187.707l2.618,2.4-.772,3.549a.678.678,0,0,0,.248.687.611.611,0,0,0,.7.032l2.988-1.864,2.986,1.864a.615.615,0,0,0,.7-.032.679.679,0,0,0,.248-.687l-.772-3.549,2.618-2.4a.685.685,0,0,0,.187-.708Zm0,0"/><rect class="i" width="96" height="30" rx="15" transform="translate(1158 2879.999)"/><text class="j" transform="translate(1172.313 2899.539)"><tspan x="0" y="0">Message</tspan></text><circle class="k" cx="24" cy="24" r="24" transform="translate(931.114 2862.177) rotate(-13.329)"/><path class="l" d="M959.884,2881.241h.211a6.117,6.117,0,0,0,4.672-2.022c2.551-2.876,2.127-7.806,2.08-8.276-.165-3.532-1.835-5.222-3.213-6.011a7.36,7.36,0,0,0-3.565-.933h-.113a7.368,7.368,0,0,0-3.564.907c-1.392.789-3.089,2.478-3.254,6.037-.046.47-.47,5.4,2.081,8.276a6.091,6.091,0,0,0,4.665,2.022Zm13.723,8.176h0a10.675,10.675,0,0,1-.319,3,.886.886,0,0,1-.344.417c-.2.126-4.964,3.168-12.934,3.168s-12.736-3.035-12.935-3.168a.847.847,0,0,1-.344-.417,10.163,10.163,0,0,1-.338-3v-.02a1.246,1.246,0,0,0,.007-.165c.039-1.306.125-4.373,3-5.362l.066-.019a18.852,18.852,0,0,0,5.5-2.506.895.895,0,0,1,1.027,1.466,20.862,20.862,0,0,1-6.05,2.763c-1.543.549-1.716,2.2-1.762,3.71,0,.061-.007.113-.007.166a11.319,11.319,0,0,0,.14,2.048,26.45,26.45,0,0,0,23.37.006,11.982,11.982,0,0,0,.139-2.048,1.449,1.449,0,0,1-.006-.165c-.047-1.511-.22-3.16-1.763-3.711a20.673,20.673,0,0,1-6.05-2.763.894.894,0,0,1,1.027-1.464,19.157,19.157,0,0,0,5.5,2.505c.019.006.047.012.066.019,2.876.982,2.962,4.049,3,5.361,0,.06.007.113.007.166v.019Zm-18.7-18.308h0c0-.021.007-.04.007-.053.218-4.752,3.592-5.262,5.036-5.262h.079c1.79.04,4.831.769,5.036,5.262a.126.126,0,0,0,.007.053c.007.046.471,4.552-1.637,6.924a4.343,4.343,0,0,1-3.412,1.419h-.067a4.333,4.333,0,0,1-3.406-1.419C954.45,2875.674,954.9,2871.148,954.907,2871.109Z"/><path class="m" d="M975,2904a9,9,0,1,0-9-9A9.017,9.017,0,0,0,975,2904Z"/><text class="e" transform="translate(1000.206 2892.919)"><tspan x="0" y="0">Mathematics</tspan></text><text class="e" transform="translate(1000.467 2940.28)"><tspan x="0" y="0">83 reviews</tspan></text></g></svg>