<svg xmlns="http://www.w3.org/2000/svg" xmlns:xlink="http://www.w3.org/1999/xlink" width="407.4" height="407.401" viewBox="0 0 407.4 407.401"><defs><style>.a,.h,.i,.j{fill:#fff;}.a{stroke:#afc4d9;stroke-width:2.4px;}.a,.b{stroke-miterlimit:2.613;}.b{fill:none;stroke:#e7eef4;stroke-width:1.92px;}.c,.m{fill:#ebf3fa;}.c,.g,.j,.l,.o,.p{fill-rule:evenodd;}.d,.f,.p{fill:#395c7f;}.d,.i,.k{font-size:16px;}.d,.e,.h,.i,.k,.m,.n{font-family:Ubuntu-Regular, Ubuntu;}.e,.o{fill:#344ba3;}.e,.h{font-size:18px;}.g{fill:#5d94cc;}.k,.n{fill:#748da5;}.l{fill:#afc4d9;}.m,.n{font-size:14px;}.q{filter:url(#a);}</style><filter id="a" x="0" y="0" width="407.4" height="407.401" filterUnits="userSpaceOnUse"><feOffset dx="-5" dy="5" input="SourceAlpha"/><feGaussianBlur stdDeviation="7.5" result="b"/><feFlood flood-color="#17224d" flood-opacity="0.149"/><feComposite operator="in" in2="b"/><feComposite in="SourceGraphic"/></filter></defs><g transform="translate(-1267.3 -2543.298)"><g class="q" transform="matrix(1, 0, 0, 1, 1267.3, 2543.3)"><rect class="a" width="360" height="360.001" rx="18" transform="translate(28.7 18.7)"/></g><line class="b" x2="360" transform="translate(1296 2633.998)"/><path class="c" d="M1416,2688h216a6.016,6.016,0,0,1,6,6v30H1416a6.018,6.018,0,0,1-6-6v-24A6.017,6.017,0,0,1,1416,2688Z"/><text class="d" transform="translate(1421.125 2711.203)"><tspan x="0" y="0">Hi, how can I help you?</tspan></text><text class="e" transform="translate(1362.283 2594.466)"><tspan x="0" y="0">Sukky Spectre</tspan></text><line class="b" x2="360" transform="translate(1296 2861.999)"/><circle class="f" cx="15" cy="15" r="15" transform="translate(1608 2876.999)"/><path class="g" d="M1314,2646h90a6.017,6.017,0,0,1,6,6v18a6.017,6.017,0,0,1-6,6h-84a6.017,6.017,0,0,1-6-6Z"/><text class="h" transform="translate(1324.951 2668.122)"><tspan x="0" y="0">Hiii</tspan></text><path class="g" d="M1314,2734h222a6.017,6.017,0,0,1,6,6v36a6.017,6.017,0,0,1-6,6H1320a6.017,6.017,0,0,1-6-6Z"/><text class="i" transform="translate(1324.951 2755.633)"><tspan x="0" y="0">I need help studying, I</tspan><tspan x="0" y="16">have maths test soon</tspan></text><path class="j" d="M1623,2892l-6.429,1.513v4.916l12.857-6.429-12.857-6.429v4.916Z"/><text class="k" transform="translate(1314.499 2897.203)"><tspan x="0" y="0">Type a message here...</tspan></text><path class="l" d="M1332,2616a18,18,0,1,0-18-18A18.035,18.035,0,0,0,1332,2616Z"/><path class="j" d="M1331.912,2598.93h.159a4.588,4.588,0,0,0,3.5-1.516c1.913-2.157,1.6-5.855,1.56-6.207a5.069,5.069,0,0,0-2.41-4.508,5.534,5.534,0,0,0-2.674-.7h-.085a5.527,5.527,0,0,0-2.673.681,5.075,5.075,0,0,0-2.44,4.528c-.035.352-.353,4.05,1.56,6.207a4.571,4.571,0,0,0,3.5,1.516Zm10.292,6.133h0a8.007,8.007,0,0,1-.238,2.246.662.662,0,0,1-.259.313,20.99,20.99,0,0,1-19.4,0,.635.635,0,0,1-.259-.313,7.636,7.636,0,0,1-.253-2.252v-.014a1,1,0,0,0,.005-.124c.029-.979.094-3.28,2.251-4.021.015,0,.03-.01.05-.015a14.135,14.135,0,0,0,4.124-1.879.671.671,0,0,1,.771,1.1,15.658,15.658,0,0,1-4.538,2.072c-1.157.413-1.287,1.65-1.321,2.783,0,.045-.006.085-.006.125a8.588,8.588,0,0,0,.1,1.536,19.835,19.835,0,0,0,17.528,0,9.067,9.067,0,0,0,.105-1.536.818.818,0,0,1-.006-.124c-.035-1.133-.164-2.37-1.322-2.783a15.511,15.511,0,0,1-4.537-2.072.67.67,0,1,1,.77-1.1,14.4,14.4,0,0,0,4.125,1.878l.05.015c2.157.736,2.222,3.037,2.251,4.02,0,.045.005.085.005.125v.015Zm-14.024-13.732h0c0-.015.005-.03.005-.04.164-3.563,2.693-3.946,3.777-3.946h.059c1.342.03,3.623.577,3.777,3.946a.1.1,0,0,0,.005.04c.006.034.353,3.414-1.227,5.193a3.258,3.258,0,0,1-2.56,1.064h-.05a3.245,3.245,0,0,1-2.554-1.064C1327.837,2594.755,1328.175,2591.36,1328.18,2591.331Z"/><text class="m" transform="translate(1367.197 2673.288)"><tspan x="0" y="0">16:45</tspan></text><text class="n" transform="translate(1633.214 2721.288)"><tspan x="-35.028" y="0">16:46</tspan></text><text class="m" transform="translate(1502.354 2779.286)"><tspan x="0" y="0">16:47</tspan></text><path class="o" d="M1629,2598h0a3.009,3.009,0,0,1-3,3h0a3.008,3.008,0,0,1-3-3h0a3.008,3.008,0,0,1,3-3h0a3.009,3.009,0,0,1,3,3Zm0,9h0a3.009,3.009,0,0,1-3,3h0a3.009,3.009,0,0,1-3-3h0a3.009,3.009,0,0,1,3-3h0a3.009,3.009,0,0,1,3,3Zm0-18h0a3.009,3.009,0,0,1-3,3h0a3.008,3.008,0,0,1-3-3h0a3.008,3.008,0,0,1,3-3h0A3.009,3.009,0,0,1,1629,2589Z"/><path class="p" d="M1582.637,2901.525l10.059-10.06a4.948,4.948,0,0,0-7-7l-10.934,10.934a3.093,3.093,0,0,0,4.373,4.374l9.186-9.185a1.237,1.237,0,0,0-1.75-1.75l-8.31,8.311-1.312-1.312,8.31-8.311a3.093,3.093,0,0,1,4.374,4.374l-9.185,9.185a4.949,4.949,0,0,1-7-7l10.935-10.935a6.8,6.8,0,0,1,9.623,9.623l-10.06,10.06Z"/><text class="d" transform="translate(1362.371 2616.291)"><tspan x="0" y="0">Active now</tspan></text><path class="p" d="M1556.22,2883.781a11.539,11.539,0,1,0,2.526,3.767,11.617,11.617,0,0,0-2.526-3.767Zm-3.624-2.874A12.073,12.073,0,1,1,1548,2880a11.988,11.988,0,0,1,4.593.908Zm1.64,11.8a.512.512,0,0,1,.514.514,6.747,6.747,0,0,1-13.495,0,.514.514,0,0,1,.514-.514Zm-12.467-.378h12.467a.891.891,0,0,1,.892.892,7.126,7.126,0,0,1-14.251,0,.891.891,0,0,1,.892-.892Zm6.234,6.611a5.725,5.725,0,0,1-5.673-4.993l-.027-.212h11.4l-.027.212a5.725,5.725,0,0,1-5.672,4.993Zm-3.525-1.709a5.338,5.338,0,0,1-1.743-3.118h10.535a5.339,5.339,0,0,1-8.792,3.118Zm10.121-8.214a.512.512,0,0,1,0,.726.485.485,0,0,1-.166.113.529.529,0,0,1-.2.038.538.538,0,0,1-.2-.038.515.515,0,0,1-.166-.113,1.738,1.738,0,0,0-2.454,0,.514.514,0,1,1-.727-.726,2.767,2.767,0,0,1,3.908,0Zm-1.954-1.186a3.134,3.134,0,0,1,2.222.918.893.893,0,0,1,0,1.262.874.874,0,0,1-.289.192.887.887,0,0,1-.342.069.9.9,0,0,1-.342-.068.892.892,0,0,1-.289-.193,1.359,1.359,0,0,0-1.92,0,.892.892,0,0,1-1.261-1.262,3.132,3.132,0,0,1,2.221-.918Zm-7.331,1.186a.512.512,0,0,1,0,.726.487.487,0,0,1-.167.113.52.52,0,0,1-.2.038.534.534,0,0,1-.2-.038.506.506,0,0,1-.167-.113,1.737,1.737,0,0,0-2.453,0,.513.513,0,0,1-.364.151.513.513,0,0,1-.363-.877,2.767,2.767,0,0,1,3.908,0Zm-1.954-1.186a3.132,3.132,0,0,1,2.221.918.891.891,0,0,1,0,1.262.905.905,0,0,1-.63.261.894.894,0,0,1-.631-.261,1.362,1.362,0,0,0-1.921,0,.892.892,0,0,1-1.261-1.261,3.136,3.136,0,0,1,2.222-.918Zm4.643,14.765a10.6,10.6,0,1,1,7.487-3.106,10.562,10.562,0,0,1-7.487,3.106Zm-7.221-3.374a10.2,10.2,0,1,1,7.221,3,10.186,10.186,0,0,1-7.221-3Zm13.454-6.515a.512.512,0,0,1,.514.514,6.747,6.747,0,0,1-13.495,0,.514.514,0,0,1,.514-.514Zm-11.933,1.028h11.4l-.027.212a5.719,5.719,0,0,1-11.345,0l-.027-.212Zm10.342-4.5a1.731,1.731,0,0,0-1.227.507.514.514,0,1,1-.727-.726,2.767,2.767,0,0,1,3.908,0,.512.512,0,0,1,0,.726.485.485,0,0,1-.166.113.529.529,0,0,1-.2.038.538.538,0,0,1-.2-.038.515.515,0,0,1-.166-.113,1.729,1.729,0,0,0-1.227-.507Zm-7.331-.219a.512.512,0,0,1,0,.726.487.487,0,0,1-.167.113.52.52,0,0,1-.2.038.534.534,0,0,1-.2-.038.506.506,0,0,1-.167-.113,1.737,1.737,0,0,0-2.453,0,.513.513,0,0,1-.364.151.513.513,0,0,1-.363-.877,2.767,2.767,0,0,1,3.908,0Zm-4.8-4.5a10.579,10.579,0,1,1-3.106,7.488,10.562,10.562,0,0,1,3.106-7.488Zm11.938-3.256a11.719,11.719,0,1,1-4.45-.878A11.617,11.617,0,0,1,1552.453,2881.255Z"/><path class="c" d="M1416,2794h216a6.017,6.017,0,0,1,6,6v30H1416a6.017,6.017,0,0,1-6-6v-24A6.018,6.018,0,0,1,1416,2794Z"/><text class="d" transform="translate(1421.125 2817.2)"><tspan x="0" y="0">Alright, lets get an A!</tspan></text><text class="n" transform="translate(1633.214 2827.286)"><tspan x="-35.028" y="0">16:46</tspan></text></g></svg>