<svg xmlns="http://www.w3.org/2000/svg" xmlns:xlink="http://www.w3.org/1999/xlink" width="407.4" height="503.401" viewBox="0 0 407.4 503.401"><defs><style>.a{fill:#fff;stroke:#afc4d9;stroke-width:2.4px;}.a,.e{stroke-miterlimit:2.613;}.b,.c,.f,.g,.j{fill:#395c7f;}.c{font-size:20px;}.c,.d,.j{font-family:Ubuntu-Bold, Ubuntu;font-weight:700;}.d{fill:#ebf3fa;font-size:18px;}.e{fill:none;stroke:#748da5;stroke-width:1.2px;}.f,.h,.j,.k{font-size:16px;}.f,.k{font-family:Ubuntu-Regular, Ubuntu;}.g{fill-rule:evenodd;}.h{fill:#afc4d9;font-family:Ubuntu-Italic, Ubuntu;font-style:italic;}.i,.k{fill:#344ba3;}.k{text-decoration:underline;}.l{filter:url(#a);}</style><filter id="a" x="0" y="0" width="407.4" height="503.401" filterUnits="userSpaceOnUse"><feOffset dx="-5" dy="5" input="SourceAlpha"/><feGaussianBlur stdDeviation="7.5" result="b"/><feFlood flood-color="#17224d" flood-opacity="0.149"/><feComposite operator="in" in2="b"/><feComposite in="SourceGraphic"/></filter></defs><g transform="translate(-235.3 -3029.299)"><g class="l" transform="matrix(1, 0, 0, 1, 235.3, 3029.3)"><rect class="a" width="360" height="456.001" rx="18" transform="translate(28.7 18.7)"/></g><rect class="b" width="115.2" height="38.4" rx="6" transform="translate(490.8 3441.599)"/><text class="c" transform="translate(283.027 3101.797)"><tspan x="0" y="0">Ask A Question</tspan></text><text class="d" transform="translate(518.507 3468.157)"><tspan x="0" y="0">Submit </tspan></text><path class="e" d="M6,0H317.281a6,6,0,0,1,6,6V116.88a6,6,0,0,1-6,6H6a6,6,0,0,1-6-6V6A6,6,0,0,1,6,0Z" transform="translate(282.719 3132.479)"/><path class="e" d="M6,0H317.282a6,6,0,0,1,6,6V24.72a6,6,0,0,1-6,6H6a6,6,0,0,1-6-6V6A6,6,0,0,1,6,0Z" transform="translate(282.719 3273.358)"/><text class="f" transform="translate(303.575 3293.741)"><tspan x="0" y="0">Select A Subject</tspan></text><path class="g" d="M585.52,3286.572l-6.094,5.986-6.094-5.986,1.725-1.694,4.369,4.291,4.369-4.291Z"/><text class="h" transform="translate(293.995 3158.227)"><tspan x="0" y="0">Explain your question in full detail.</tspan></text><path class="e" d="M6,0H317.282a6,6,0,0,1,6,6V24.72a6,6,0,0,1-6,6H6a6,6,0,0,1-6-6V6A6,6,0,0,1,6,0Z" transform="translate(282.719 3316.078)"/><text class="f" transform="translate(303.575 3336.461)"><tspan x="0" y="0">Select Coins</tspan></text><path class="g" d="M585.52,3329.292l-6.094,5.986-6.094-5.986,1.725-1.694,4.369,4.291,4.369-4.291Z"/><text class="f" transform="translate(388.692 3371.714)"><tspan x="0" y="0">Out Of Coins?</tspan><tspan class="i" y="0" xml:space="preserve"> Buy more coins</tspan></text><text class="j" transform="translate(283.057 3401.714)"><tspan x="0" y="0">Attachments</tspan></text><text class="k" transform="translate(283.219 3425.715)"><tspan x="0" y="0">Upload Attachments</tspan></text></g></svg>