<svg xmlns="http://www.w3.org/2000/svg" xmlns:xlink="http://www.w3.org/1999/xlink" width="407.4" height="365.4" viewBox="0 0 407.4 365.4"><defs><style>.a,.g{fill:#fff;}.a{stroke:#afc4d9;stroke-width:2.4px;}.a,.b,.e{stroke-miterlimit:2.613;}.b{fill:#ebf3fa;}.b,.e{stroke:#748da5;stroke-width:1.2px;}.c,.d{fill:#395c7f;}.c{font-size:24px;}.c,.l{font-family:Ubuntu-Bold, Ubuntu;font-weight:700;}.d,.h{font-size:16px;}.d,.h,.i{font-family:Ubuntu-Regular, Ubuntu;}.e{fill:none;}.f,.k{fill:#afc4d9;}.g,.j,.k,.m{fill-rule:evenodd;}.h,.i,.l,.m{fill:#344ba3;}.h,.l{text-decoration:underline;}.i{font-size:18px;}.j{fill:#748da5;}.l{font-size:15px;}.n{filter:url(#a);}</style><filter id="a" x="0" y="0" width="407.4" height="365.4" filterUnits="userSpaceOnUse"><feOffset dx="-5" dy="5" input="SourceAlpha"/><feGaussianBlur stdDeviation="7.5" result="b"/><feFlood flood-color="#17224d" flood-opacity="0.149"/><feComposite operator="in" in2="b"/><feComposite in="SourceGraphic"/></filter></defs><g transform="translate(-619.299 -3098.299)"><g class="n" transform="matrix(1, 0, 0, 1, 619.3, 3098.3)"><path class="a" d="M18,0H342a18,18,0,0,1,18,18V300a18,18,0,0,1-18,18H18A18,18,0,0,1,0,300V18A18,18,0,0,1,18,0Z" transform="translate(28.7 18.7)"/></g><rect class="b" width="324.001" height="72" rx="12" transform="translate(665.999 3177)"/><text class="c" transform="translate(666.259 3155.647)"><tspan x="0" y="0">Answers</tspan></text><text class="d" transform="translate(690.242 3279.916)"><tspan x="0" y="0">The answer is, 2.</tspan><tspan x="0" y="16" xml:space="preserve">2a = 4     a = 4/2     a = 2</tspan></text><text class="d" transform="translate(726.212 3399.57)"><tspan x="0" y="0">Add a comment...</tspan></text><rect class="e" width="324.001" height="114" rx="12" transform="translate(665.999 3249)"/><circle class="f" cx="15" cy="15" r="15" transform="translate(677.999 3375.001)"/><path class="g" d="M692.926,3390.778h.132a3.823,3.823,0,0,0,2.92-1.264c1.595-1.8,1.329-4.878,1.3-5.172a4.226,4.226,0,0,0-2.008-3.757,4.62,4.62,0,0,0-2.228-.584h-.071a4.61,4.61,0,0,0-2.228.567,4.23,4.23,0,0,0-2.033,3.774c-.029.294-.294,3.375,1.3,5.172a3.806,3.806,0,0,0,2.915,1.264Zm8.577,5.11h0a6.672,6.672,0,0,1-.2,1.872.553.553,0,0,1-.216.261,17.491,17.491,0,0,1-16.167,0,.531.531,0,0,1-.216-.261,6.37,6.37,0,0,1-.211-1.876v-.012a.7.7,0,0,0,.005-.1c.024-.816.078-2.733,1.876-3.351.012,0,.024-.008.041-.012a11.781,11.781,0,0,0,3.437-1.566.559.559,0,1,1,.642.916,13.041,13.041,0,0,1-3.781,1.727c-.965.343-1.073,1.375-1.1,2.319,0,.038,0,.071,0,.1a7.164,7.164,0,0,0,.087,1.279,16.533,16.533,0,0,0,14.606,0,7.47,7.47,0,0,0,.088-1.28.689.689,0,0,1-.005-.1c-.029-.944-.136-1.975-1.1-2.319a12.883,12.883,0,0,1-3.781-1.727.559.559,0,1,1,.642-.915,11.94,11.94,0,0,0,3.437,1.565c.012.005.029.008.041.013,1.8.613,1.852,2.53,1.876,3.35,0,.037.005.071.005.1v.012Zm-11.687-11.443h0c0-.012,0-.025,0-.033.136-2.97,2.245-3.289,3.147-3.289h.05c1.118.025,3.019.481,3.147,3.289a.068.068,0,0,0,.005.033c0,.029.294,2.845-1.024,4.328a2.711,2.711,0,0,1-2.132.886h-.042a2.7,2.7,0,0,1-2.128-.886C689.53,3387.3,689.812,3384.47,689.816,3384.445Z"/><text class="h" transform="translate(948.788 3339.31)"><tspan x="-147.391" y="0">mark as best answer</tspan></text><text class="i" transform="translate(750.206 3203.468)"><tspan x="0" y="0">Timmy Fernandes</tspan></text><path class="j" d="M790.452,3219.8a.964.964,0,0,0-.824-.687l-5.2-.492-2.054-5.018a.942.942,0,0,0-1.76,0l-2.054,5.016-5.2.492a.966.966,0,0,0-.823.687,1.026,1.026,0,0,0,.28,1.06l3.927,3.594-1.158,5.323a1.019,1.019,0,0,0,.372,1.03.92.92,0,0,0,1.051.048l4.481-2.795,4.48,2.795a.919.919,0,0,0,1.051-.048,1.02,1.02,0,0,0,.372-1.03l-1.158-5.323,3.927-3.593a1.028,1.028,0,0,0,.281-1.061Zm0,0"/><path class="j" d="M767.952,3219.8a.964.964,0,0,0-.824-.687l-5.2-.492-2.054-5.018a.942.942,0,0,0-1.76,0l-2.054,5.016-5.2.492a.966.966,0,0,0-.823.687,1.026,1.026,0,0,0,.28,1.06l3.927,3.594-1.158,5.323a1.019,1.019,0,0,0,.372,1.03.92.92,0,0,0,1.051.048l4.481-2.795,4.48,2.795a.919.919,0,0,0,1.051-.048,1.018,1.018,0,0,0,.372-1.03l-1.158-5.323,3.927-3.593a1.028,1.028,0,0,0,.281-1.061Zm0,0"/><path class="j" d="M812.953,3219.8a.965.965,0,0,0-.824-.687l-5.2-.492-2.055-5.018a.941.941,0,0,0-1.759,0l-2.054,5.016-5.2.492a.965.965,0,0,0-.823.687,1.024,1.024,0,0,0,.28,1.06l3.927,3.594-1.158,5.323a1.019,1.019,0,0,0,.372,1.03.928.928,0,0,0,.56.19.917.917,0,0,0,.49-.142l4.482-2.795,4.479,2.795a.921.921,0,0,0,1.052-.048,1.02,1.02,0,0,0,.372-1.03l-1.158-5.323,3.927-3.593a1.028,1.028,0,0,0,.281-1.061Zm0,0"/><path class="j" d="M835.453,3219.8a.964.964,0,0,0-.824-.687l-5.2-.492-2.054-5.018a.942.942,0,0,0-1.76,0l-2.054,5.016-5.2.492a.967.967,0,0,0-.823.687,1.026,1.026,0,0,0,.28,1.06l3.927,3.594-1.158,5.323a1.019,1.019,0,0,0,.372,1.03.92.92,0,0,0,1.051.048l4.481-2.795,4.48,2.795a.919.919,0,0,0,1.051-.048,1.018,1.018,0,0,0,.372-1.03l-1.158-5.323,3.927-3.593a1.028,1.028,0,0,0,.281-1.061Zm0,0"/><path class="j" d="M857.953,3219.8a.964.964,0,0,0-.824-.687l-5.2-.492-2.054-5.018a.942.942,0,0,0-1.76,0l-2.054,5.016-5.2.492a.967.967,0,0,0-.823.687,1.026,1.026,0,0,0,.28,1.06l3.927,3.594-1.158,5.323a1.019,1.019,0,0,0,.372,1.03.92.92,0,0,0,1.051.048l4.481-2.795,4.48,2.795a.919.919,0,0,0,1.051-.048,1.02,1.02,0,0,0,.372-1.03l-1.158-5.323,3.927-3.593a1.028,1.028,0,0,0,.281-1.061Zm0,0"/><path class="k" d="M714,3237a24,24,0,1,0-24-24A24.047,24.047,0,0,0,714,3237Z"/><path class="g" d="M713.883,3214.242h.211a6.116,6.116,0,0,0,4.672-2.021c2.551-2.877,2.127-7.806,2.08-8.277-.165-3.531-1.835-5.222-3.213-6.01a7.358,7.358,0,0,0-3.565-.934h-.113a7.379,7.379,0,0,0-3.564.907c-1.392.79-3.089,2.478-3.254,6.037-.046.471-.47,5.4,2.081,8.277a6.09,6.09,0,0,0,4.665,2.021Zm13.723,8.177h0a10.667,10.667,0,0,1-.319,3,.886.886,0,0,1-.344.417c-.2.127-4.964,3.169-12.934,3.169s-12.736-3.036-12.935-3.169a.855.855,0,0,1-.345-.417,10.183,10.183,0,0,1-.337-3v-.019a1.279,1.279,0,0,0,.007-.166c.039-1.3.125-4.373,3-5.361l.066-.02a18.892,18.892,0,0,0,5.5-2.5.894.894,0,1,1,1.027,1.465,20.832,20.832,0,0,1-6.05,2.763c-1.543.55-1.716,2.2-1.762,3.711,0,.06-.007.113-.007.166a11.405,11.405,0,0,0,.139,2.047,26.456,26.456,0,0,0,23.371.007,12,12,0,0,0,.139-2.048,1.476,1.476,0,0,1-.006-.166c-.047-1.51-.22-3.16-1.763-3.711a20.661,20.661,0,0,1-6.05-2.762.895.895,0,0,1,1.027-1.465,19.156,19.156,0,0,0,5.5,2.505c.019.007.047.013.066.02,2.876.981,2.962,4.049,3,5.36,0,.06.007.113.007.166v.02Zm-18.7-18.309h0c0-.02.007-.04.007-.053.218-4.751,3.592-5.262,5.036-5.262h.079c1.79.04,4.831.769,5.036,5.262a.126.126,0,0,0,.007.053c.007.046.471,4.552-1.637,6.925a4.343,4.343,0,0,1-3.412,1.418h-.067a4.331,4.331,0,0,1-3.406-1.418C708.449,3208.675,708.9,3204.15,708.906,3204.11Z"/><text class="l" transform="translate(690.499 3339.31)"><tspan x="0" y="0">Tip Nerd</tspan></text><path class="m" d="M970.7,3328.2l-6.219,6.218-3.186-3.185-1.691,1.691,4.877,4.875,7.909-7.909Z"/></g></svg>