<svg width="60" height="63" viewBox="0 0 60 63" fill="none" xmlns="http://www.w3.org/2000/svg">
<path fill-rule="evenodd" clip-rule="evenodd" d="M52.8018 27.5527V23.3817C52.8018 17.2437 50.3635 11.3571 46.0232 7.01685C41.683 2.6766 35.7964 0.238281 29.6584 0.238281C23.5203 0.238281 17.6336 2.6766 13.2934 7.01685C8.95311 11.3571 6.5148 17.2437 6.5148 23.3817V27.5527C4.69213 27.9737 3.06996 29.0091 1.92068 30.4851C0.771401 31.9611 0.165045 33.7877 0.203639 35.658C0.242234 37.5282 0.923403 39.3281 2.13259 40.7554C3.34179 42.1827 5.00529 43.1503 6.84378 43.4957C7.7661 48.8784 10.562 53.7617 14.737 57.2821C18.9119 60.8026 24.1972 62.7335 29.6584 62.7335C35.1195 62.7335 40.4048 60.8026 44.5797 57.2821C48.7547 53.7617 51.5505 48.8784 52.4728 43.4957C54.3121 43.1513 55.9767 42.1841 57.1867 40.7567C58.3967 39.3293 59.0782 37.5288 59.1168 35.658C59.1555 33.7871 58.5488 31.9601 57.3987 30.484C56.2486 29.0079 54.6253 27.9728 52.8018 27.5527ZM43.6579 35.4888C43.6579 36.3752 43.395 37.2418 42.9025 37.9789C42.41 38.7159 41.71 39.2904 40.891 39.6296C40.072 39.9689 39.1708 40.0576 38.3014 39.8846C37.432 39.7117 36.6334 39.2849 36.0066 38.6581C35.3798 38.0313 34.9529 37.2326 34.7799 36.3632C34.607 35.4937 34.6957 34.5925 35.0349 33.7736C35.3742 32.9546 35.9488 32.2546 36.6858 31.7621C37.4229 31.2696 38.2894 31.0067 39.1758 31.0067C40.3641 31.008 41.5034 31.4807 42.3437 32.3209C43.1839 33.1612 43.6565 34.3005 43.6579 35.4888V35.4888ZM39.1758 27.3458C37.5651 27.3475 35.991 27.826 34.652 28.7212C33.313 29.6164 32.2691 30.888 31.6519 32.3757H27.6648C27.1453 31.1178 26.3185 30.0104 25.2602 29.1548C24.2018 28.2991 22.9458 27.7226 21.607 27.478C20.2682 27.2335 18.8894 27.3287 17.597 27.7549C16.3045 28.1811 15.1395 28.9248 14.2088 29.9177L10.1768 27.9398V25.7018C10.6768 25.7168 11.1669 25.7247 11.6519 25.7247C17.8919 25.7658 24.072 24.5057 29.7979 22.0248C32.0117 21.0598 34.1223 19.8738 36.0978 18.4847C38.2628 20.7507 43.1278 25.0747 49.1448 25.5847V27.9437L45.1138 29.9218C44.3538 29.1097 43.4352 28.4624 42.4148 28.02C41.3944 27.5776 40.294 27.3494 39.1818 27.3497L39.1758 27.3458ZM20.1408 31.0067C21.0272 31.0069 21.8937 31.27 22.6306 31.7626C23.3676 32.2552 23.9418 32.9553 24.2809 33.7743C24.62 34.5933 24.7086 35.4944 24.5355 36.3638C24.3625 37.2331 23.9356 38.0316 23.3087 38.6583C22.6819 39.285 21.8832 39.7119 21.0138 39.8848C20.1444 40.0576 19.2434 39.9688 18.4245 39.6295C17.6055 39.2903 16.9056 38.7158 16.4131 37.9788C15.9207 37.2417 15.6579 36.3752 15.6579 35.4888C15.6592 34.3003 16.132 33.161 16.9724 32.3207C17.8129 31.4804 18.9523 31.0078 20.1408 31.0067V31.0067ZM50.9809 39.9718H50.9678H50.8848L49.2068 39.9448L49.0338 41.6147C48.5333 46.4053 46.2759 50.8406 42.6974 54.0647C39.1189 57.2887 34.4729 59.073 29.6563 59.073C24.8396 59.073 20.1938 57.2887 16.6153 54.0647C13.0368 50.8406 10.7794 46.4053 10.2788 41.6147L10.1068 39.9448L8.42886 39.9718H8.34585H8.33377C7.16655 39.9666 6.04745 39.5063 5.21426 38.6888C4.38107 37.8714 3.89958 36.7613 3.8721 35.5944C3.84462 34.4275 4.27325 33.2958 5.06704 32.4401C5.86083 31.5843 6.95715 31.0719 8.12283 31.0117L12.3559 33.0887C12.0174 34.1865 11.9151 35.3434 12.0556 36.4835C12.196 37.6236 12.5761 38.721 13.1708 39.7037C13.7655 40.6865 14.5615 41.5324 15.5064 42.1857C16.4512 42.839 17.5235 43.285 18.653 43.4944C19.7824 43.7038 20.9435 43.6718 22.0597 43.4006C23.176 43.1295 24.2222 42.6253 25.1297 41.921C26.0372 41.2168 26.7854 40.3284 27.3252 39.3145C27.865 38.3005 28.1843 37.1838 28.2619 36.0377H31.0498C31.1274 37.1838 31.4467 38.3005 31.9865 39.3145C32.5263 40.3284 33.2745 41.2168 34.182 41.921C35.0895 42.6253 36.1357 43.1295 37.252 43.4006C38.3682 43.6718 39.5293 43.7038 40.6587 43.4944C41.7882 43.285 42.8605 42.839 43.8053 42.1857C44.7502 41.5324 45.5462 40.6865 46.1409 39.7037C46.7356 38.721 47.1157 37.6236 47.2561 36.4835C47.3966 35.3434 47.2943 34.1865 46.9558 33.0887L51.1889 31.0117C52.3545 31.0718 53.4506 31.5842 54.2444 32.4398C55.0382 33.2955 55.4671 34.427 55.4397 35.5939C55.4124 36.7607 54.9309 37.8708 54.0979 38.6884C53.2649 39.5059 52.1459 39.9664 50.9788 39.9718H50.9809Z" fill="#344BA3"/>
</svg>
