<svg xmlns="http://www.w3.org/2000/svg" width="144" height="172.8" viewBox="0 0 144 172.8"><defs><style>.a{fill:#e6b34d;}.a,.b,.c{fill-rule:evenodd;}.b{fill:#132740;}.c,.e{fill:#fff;}.d{fill:#374b99;}.e{font-size:31.2px;font-family:NunitoSans-Bold, Nunito Sans;font-weight:700;}</style></defs><g transform="translate(-2267.998 -1406.396)"><path class="a" d="M2340,1406.4l36,21.6,36,21.6V1536l-36,21.6-36,21.6-36-21.6-36-21.6v-86.4l36-21.6Z"/><path class="b" d="M2340,1423.676l-57.6,34.375v69.489l57.6,34.375,57.6-34.375v-69.489Z"/><path class="c" d="M2356.2,1466.18a6.856,6.856,0,0,0,.681,2.427,5.228,5.228,0,0,1-.981,6.044l-1.082,1.081c.115.225.223.453.319.685a9.5,9.5,0,0,1,.727,3.655,3.331,3.331,0,0,1-.1.817l4.3,3.714a9.306,9.306,0,0,0,1.451-7.685,1.22,1.22,0,0,1,1.729-1.388l3.4,1.7a9.307,9.307,0,0,0-1.842-6.343l-.643-.857a1.22,1.22,0,0,1,.977-1.951h3.632a9.42,9.42,0,0,0-2.709-5.893l-1.785-1.786a1.219,1.219,0,0,1,.862-2.082h3.4a12.662,12.662,0,0,0-8.3-8.892l-2.8-.932a1.22,1.22,0,0,1,.09-2.341l4.75-1.188.615-.307a15.709,15.709,0,0,0-9.612-3.422h-.338a1.221,1.221,0,0,1-.546-2.312,25.985,25.985,0,0,0,2.333-1.367c.216-.136.434-.274.656-.412a11.561,11.561,0,0,0-5.258-.761,14.635,14.635,0,0,0-9.256,4.494,1.219,1.219,0,0,1-1.725,0c-5.089-5.089-11.152-5.089-14.5-3.8q.338.222.666.442a21.281,21.281,0,0,0,2.308,1.405,1.22,1.22,0,0,1-.546,2.312h-.338a15.264,15.264,0,0,0-9.171,3.076c3.424.869,1.825.272,5.174,1.933a1.22,1.22,0,0,1-.159,2.249l-2.8.932a12.66,12.66,0,0,0-8.306,8.891h3.4a1.221,1.221,0,0,1,.863,2.083c-.864,1.093-4.135,3.093-4.5,7.679h3.632a1.221,1.221,0,0,1,.977,1.952,9.977,9.977,0,0,0-2.486,7.2l3.4-1.7a1.22,1.22,0,0,1,1.729,1.388,9.306,9.306,0,0,0,1.451,7.685l4.3-3.715a3.316,3.316,0,0,1-.1-.816,9.525,9.525,0,0,1,1.044-4.341l-1.08-1.08a5.229,5.229,0,0,1-.981-6.045,7.318,7.318,0,0,0,.647-4.252,13.967,13.967,0,0,1,13.843-15.8h4.776a13.969,13.969,0,0,1,13.844,15.8,8.124,8.124,0,0,0-.057,1.529,1.173,1.173,0,0,1,.025.245c0,.018,0,.035,0,.052Zm-27.175,5.56a9.549,9.549,0,0,0-2.086,1.578c-.12.12-.235.242-.348.367l-.76-.76a2.791,2.791,0,0,1-.524-3.228,9.048,9.048,0,0,0,.621-1.616h.776a6.109,6.109,0,0,0,2.321,3.659Zm24.377-4.392h.5a9.136,9.136,0,0,0,.792,2.35,2.791,2.791,0,0,1-.524,3.227l-.76.76q-.169-.187-.348-.367a9.537,9.537,0,0,0-2.086-1.577,6.1,6.1,0,0,0,2.422-4.393Zm-11.353,2.578-.325,1.623a1.731,1.731,0,0,1-.164.466,1.756,1.756,0,0,1-3.116,0,1.818,1.818,0,0,1-.164-.466l-.324-1.623a6.062,6.062,0,0,0,.826-3.066,6.192,6.192,0,0,0-.124-1.232h2.689a6.193,6.193,0,0,0-.125,1.232,6.053,6.053,0,0,0,.827,3.066Zm1.614-3.066a3.66,3.66,0,1,1,3.367,3.648,3.662,3.662,0,0,1-3.367-3.648Zm-10.981,3.661a3.661,3.661,0,1,1,3.66-3.66,3.664,3.664,0,0,1-3.66,3.66Zm11.257,9.7-1.906-1.269a3.645,3.645,0,0,0-4.06,0l-1.908,1.27a1.392,1.392,0,0,1-2.163-1.158,1.221,1.221,0,0,0-1.9-1.015c-4.461,2.975-4.239,2.881-4.566,2.881a.852.852,0,0,1-.858-.855,7.113,7.113,0,0,1,6.573-7.09,7.268,7.268,0,0,1,3.363.556,4.192,4.192,0,0,0,6.971,0,7.28,7.28,0,0,1,3.353-.557,7.113,7.113,0,0,1,6.583,7.091.848.848,0,0,1-1.323.709l-4.1-2.735a1.22,1.22,0,0,0-1.9,1.015,1.392,1.392,0,0,1-2.164,1.158Zm-3.937,8.116c-4.028,0-7.631-2.791-9.567-6.309l1.548-1.032a3.835,3.835,0,0,0,5.436,1.256l1.908-1.271a1.213,1.213,0,0,1,1.352,0l1.907,1.27a3.835,3.835,0,0,0,5.435-1.256l1.549,1.032c-1.935,3.514-5.535,6.309-9.568,6.309Zm6.1.719a11.673,11.673,0,0,1-12.2,0v4.893h12.2v-4.893Zm-3.658-25.854h-4.885a6.1,6.1,0,0,0-10.856,2.44h-.423a10.648,10.648,0,0,0-.091-1.607A11.527,11.527,0,0,1,2337.611,1451h4.775a11.527,11.527,0,0,1,11.425,13.034c-.039.292-.065.584-.08.875h-.633a6.1,6.1,0,0,0-10.657-1.708Z"/><path class="d" d="M5.76,0H138.24A5.759,5.759,0,0,1,144,5.759V37.44a5.76,5.76,0,0,1-5.76,5.76H5.76A5.76,5.76,0,0,1,0,37.44V5.76A5.76,5.76,0,0,1,5.76,0Z" transform="translate(2267.998 1492.795)"/><text class="e" transform="translate(2283.387 1526.44)"><tspan x="0" y="0">Einstein</tspan></text></g></svg>