<svg xmlns="http://www.w3.org/2000/svg" width="48" height="30" viewBox="0 0 48 30"><defs><style>.a{fill:#e08e3d;}.a,.b,.c,.d,.e,.f{fill-rule:evenodd;}.b{fill:#f5a454;}.c{fill:#cd7f32;}.d{fill:#c47a31;}.e{fill:#78bec0;}.f{fill:#bf7934;}</style></defs><g transform="translate(-2579.999 -395.999)"><path class="a" d="M2628,414.658v5.9a2.256,2.256,0,0,1-.824,1.611,5.616,5.616,0,0,1-.525.433,9.028,9.028,0,0,1-1.35.788c-.168.078-.343.16-.525.237a17.97,17.97,0,0,1-2.139.753l-.522.154c-.867.232-1.807.443-2.814.623l-.525.093c-.825.134-1.689.257-2.589.355-.174.016-.348.036-.522.052-.6.061-1.213.108-1.839.149-.174.016-.348.026-.525.036q-1.174.062-2.4.082c-.174,0-.347.006-.524.006H2610c-.762,0-1.512-.016-2.25-.042-.177,0-.351-.015-.525-.02q-1.13-.054-2.211-.15l-.528-.046c-.5-.046-.984-.1-1.461-.159-.176-.026-.351-.047-.526-.073-.6-.082-1.2-.175-1.763-.278-.177-.03-.351-.062-.522-.1-.5-.092-.97-.2-1.428-.309-.177-.041-.351-.082-.522-.129-.57-.144-1.108-.3-1.614-.468-.181-.056-.354-.118-.525-.18a13.917,13.917,0,0,1-1.461-.608c-.186-.088-.36-.18-.528-.273a6.781,6.781,0,0,1-1.122-.758,3.937,3.937,0,0,1-.528-.534,2.007,2.007,0,0,1-.486-1.247v-5.9Z"/><path class="b" d="M2628,414.661c0,2.628-8.058,4.759-18,4.759s-18-2.131-18-4.759,8.059-4.759,18-4.759S2628,412.032,2628,414.661Z"/><path class="c" d="M2624.775,414.028c0,1.807-6.615,3.273-14.775,3.273s-14.775-1.466-14.775-3.273,6.615-3.274,14.775-3.274S2624.775,412.22,2624.775,414.028Z"/><path class="d" d="M2595.676,414.832c1.62-1.419,7.418-2.468,14.324-2.468s12.7,1.049,14.324,2.468a1.107,1.107,0,0,0,.451-.8c0-1.808-6.615-3.274-14.775-3.274s-14.775,1.466-14.775,3.274A1.107,1.107,0,0,0,2595.676,414.832Z"/><path class="d" d="M2609.928,425.928h.447v-2.606H2610c-.762,0-1.512-.016-2.25-.042h0v2.606q1.073.039,2.178.042ZM2592,417.949v2.607a2.007,2.007,0,0,0,.486,1.247h0V419.2a2.009,2.009,0,0,1-.486-1.248Zm18.9,7.973v-2.605h0c.817-.016,1.618-.042,2.4-.083v2.606h0q-1.174.062-2.4.082Zm-3.674-.056h0q-1.13-.054-2.211-.15V423.11h0q1.08.093,2.211.15v2.606Zm6.6-.062V423.2h0c.626-.041,1.239-.088,1.839-.149v2.606h0c-.6.061-1.213.108-1.839.149Zm-9.339-.134h0c-.5-.046-.984-.1-1.461-.159V422.9h0c.477.057.963.114,1.461.16v2.606Zm11.7-.067V423h0c.9-.1,1.764-.221,2.589-.355v2.606h0c-.825.134-1.689.257-2.589.355Zm-13.687-.165h0c-.6-.082-1.2-.175-1.763-.278v-2.606h0c.567.1,1.158.2,1.763.278v2.606Zm16.8-.283v-2.606h0c1.007-.18,1.947-.391,2.814-.623v2.606h0c-.867.232-1.807.443-2.814.623Zm-19.086-.093h0c-.5-.092-.97-.2-1.428-.309v-2.6h0c.458.112.932.215,1.428.308v2.606Zm-1.95-.438h0c-.57-.144-1.108-.3-1.614-.468V421.55h0c.506.17,1.044.325,1.614.469v2.6Zm24.372-.246v-2.607h0a17.98,17.98,0,0,0,2.139-.752v2.606h0a17.97,17.97,0,0,1-2.139.753Zm-26.511-.4h0a13.917,13.917,0,0,1-1.461-.608v-2.606h0a13.708,13.708,0,0,0,1.461.607v2.607Zm29.175-.588v-2.606h0a9.113,9.113,0,0,0,1.35-.788V422.6h0a9.028,9.028,0,0,1-1.35.788Zm-31.164-.293h0a6.781,6.781,0,0,1-1.122-.758v-2.606h0a6.844,6.844,0,0,0,1.122.758V423.1Zm33.039-.928v-2.6h0a2.26,2.26,0,0,0,.824-1.613v2.607A2.256,2.256,0,0,1,2627.175,422.167Z"/><path class="a" d="M2590.672,406.372v5.9a2.261,2.261,0,0,0,.824,1.612,6.075,6.075,0,0,0,.526.433,9.113,9.113,0,0,0,1.35.788c.168.077.343.16.525.236a17.828,17.828,0,0,0,2.139.753c.171.051.345.1.522.154.867.232,1.806.443,2.814.623.171.031.348.063.525.093.825.134,1.688.258,2.589.356.174.015.348.035.522.051.6.062,1.212.108,1.839.149.174.016.348.027.524.037.784.041,1.584.066,2.4.082.174,0,.348.005.525.005h.375c.762,0,1.511-.015,2.25-.041.177-.005.351-.016.525-.021.753-.035,1.491-.087,2.211-.149l.528-.046c.5-.047.984-.1,1.461-.16.176-.026.35-.046.525-.072.606-.082,1.2-.175,1.764-.279.177-.03.351-.061.522-.1q.742-.138,1.428-.308c.177-.041.351-.083.521-.129.571-.144,1.108-.3,1.615-.469.18-.056.354-.118.524-.18a13.833,13.833,0,0,0,1.462-.608c.186-.087.36-.18.528-.273a6.74,6.74,0,0,0,1.122-.757,3.887,3.887,0,0,0,.527-.535,2,2,0,0,0,.487-1.247v-5.9Z"/><path class="b" d="M2590.672,406.374c0,2.628,8.058,4.759,18,4.759s18-2.131,18-4.759-8.059-4.759-18-4.759S2590.672,403.746,2590.672,406.374Z"/><path class="c" d="M2593.9,405.741c0,1.807,6.615,3.273,14.774,3.273s14.775-1.466,14.775-3.273-6.614-3.274-14.775-3.274S2593.9,403.933,2593.9,405.741Z"/><path class="d" d="M2623,406.546c-1.619-1.419-7.417-2.469-14.324-2.469s-12.7,1.05-14.323,2.469a1.106,1.106,0,0,1-.451-.8c0-1.808,6.615-3.274,14.774-3.274s14.775,1.466,14.775,3.274A1.106,1.106,0,0,1,2623,406.546Z"/><path class="d" d="M2608.743,417.641h-.446v-2.606h.375c.762,0,1.511-.016,2.25-.041h0V417.6c-.716.025-1.441.04-2.179.041Zm17.929-7.978v2.606a2,2,0,0,1-.487,1.247h0V410.91a2,2,0,0,0,.487-1.247Zm-18.9,7.973V415.03h0c-.817-.016-1.617-.041-2.4-.083v2.607h0c.784.041,1.584.066,2.4.082Zm3.675-.057h0c.753-.035,1.491-.087,2.211-.149v-2.606h0c-.72.062-1.458.113-2.211.149v2.606Zm-6.6-.062v-2.605h0c-.627-.041-1.239-.088-1.839-.15v2.606h0c.6.062,1.212.108,1.839.149Zm9.339-.133h0c.5-.047.984-.1,1.461-.16v-2.606h0c-.477.056-.963.113-1.461.16v2.606Zm-11.7-.067v-2.606h0c-.9-.1-1.764-.222-2.589-.356v2.606h0c.825.134,1.688.258,2.589.356Zm13.686-.165h0c.606-.082,1.2-.175,1.764-.279v-2.6h0c-.567.1-1.158.2-1.764.278v2.606Zm-16.8-.284v-2.606h0c-1.008-.179-1.947-.391-2.814-.623v2.606h0c.867.232,1.806.443,2.814.623Zm19.086-.093h0q.742-.138,1.428-.308v-2.606h0q-.687.17-1.428.308v2.606Zm1.949-.437h0c.571-.144,1.108-.3,1.615-.469v-2.606h0c-.507.17-1.044.325-1.615.469v2.606Zm-24.371-.247v-2.606h0a18.006,18.006,0,0,1-2.139-.752v2.605h0a17.828,17.828,0,0,0,2.139.753Zm26.51-.4h0a13.833,13.833,0,0,0,1.462-.608v-2.606h0a13.63,13.63,0,0,1-1.462.608v2.606Zm-29.174-.587V412.5h0a9.205,9.205,0,0,1-1.35-.788v2.606h0a9.113,9.113,0,0,0,1.35.788Zm31.164-.294h0a6.74,6.74,0,0,0,1.122-.757v-2.606h0a6.8,6.8,0,0,1-1.122.757v2.606Zm-33.04-.927v-2.606h0a2.261,2.261,0,0,1-.824-1.612v2.606A2.261,2.261,0,0,0,2591.5,413.881Z"/><path class="e" d="M2587.99,422.688l-.752-2.242,6.461-15.71Z"/><path class="e" d="M2584.753,413.049l-.753-2.241,4.942-11.881Z"/><path class="f" d="M2613.4,411c0,.284-.006.562-.023.84-.011.233-.028.46-.057.687a13.826,13.826,0,0,1-.227,1.486c-.045.234-.1.461-.153.688a14.715,14.715,0,0,1-.987,2.718c-.1.233-.221.465-.34.687a15.036,15.036,0,0,1-.96,1.538,8.288,8.288,0,0,1-.516.686,12.85,12.85,0,0,1-1.351,1.488c-.25.244-.5.471-.766.686a14.35,14.35,0,0,1-1.97,1.4,12.634,12.634,0,0,1-1.294.687A14.864,14.864,0,0,1,2598.4,426H2595V396h3.406a14.9,14.9,0,0,1,6.833,1.652,12.1,12.1,0,0,1,1.2.686,14.274,14.274,0,0,1,1.957,1.487c.251.216.489.449.722.687a15.169,15.169,0,0,1,2.043,2.605c.136.222.273.449.4.681a14.723,14.723,0,0,1,1.186,2.816c.068.226.136.453.193.686a14.02,14.02,0,0,1,.386,2.248c.028.227.045.454.057.686C2613.391,410.488,2613.4,410.744,2613.4,411Z"/><path class="a" d="M2613.374,411.839c-.011.233-.028.46-.057.687h-4.188v-.687Z"/><path class="a" d="M2613.09,414.012c-.045.234-.1.461-.153.688h-5.147v-.688Z"/><path class="a" d="M2611.95,417.418c-.1.233-.221.465-.34.687h-5.069v-.687Z"/><path class="a" d="M2610.65,419.643a8.288,8.288,0,0,1-.516.686h-5.262v-.686Z"/><path class="a" d="M2608.783,421.817c-.25.244-.5.471-.766.686h-4.927v-.686Z"/><path class="a" d="M2606.047,423.9a12.634,12.634,0,0,1-1.294.687h-4.227V423.9Z"/><path class="a" d="M2613.38,410.233h-4.534v-.686h4.477C2613.351,409.774,2613.368,410,2613.38,410.233Z"/><path class="a" d="M2612.937,407.3h-4.609v-.686h4.416C2612.812,406.839,2612.88,407.066,2612.937,407.3Z"/><path class="a" d="M2611.558,403.8h-4.619v-.681h4.222C2611.3,403.338,2611.434,403.565,2611.558,403.8Z"/><path class="a" d="M2609.118,400.511h-5.142v-.687h4.42C2608.647,400.04,2608.885,400.273,2609.118,400.511Z"/><path class="a" d="M2606.439,398.337h-4.983v-.686h3.78A12.1,12.1,0,0,1,2606.439,398.337Z"/><path class="b" d="M2580,411a15,15,0,1,0,15-15A15,15,0,0,0,2580,411Z"/><path class="c" d="M2584,411a11,11,0,1,0,11-11A11,11,0,0,0,2584,411Z"/><path class="d" d="M2595.916,421.077a11,11,0,0,1-8.223-18.3A11,11,0,1,0,2603.22,418.3,10.957,10.957,0,0,1,2595.916,421.077Z"/><path class="b" d="M2588.508,408.135l7.8,5.85-.819.614a.844.844,0,0,1-.955-.014l-3.5-2.623-2.505,1.879,5.366,4.024.636.477a.846.846,0,0,0,.955.015l.651-.489,5.346-4.009-7.8-5.85.818-.614a.846.846,0,0,1,.956.015l3.5,2.622,2.5-1.878-6-4.5a.848.848,0,0,0-.956-.014Z"/></g></svg>