<svg xmlns="http://www.w3.org/2000/svg" width="48" height="32.57" viewBox="0 0 48 32.57"><defs><style>.a{fill:#e08e3d;}.a,.b,.c,.d,.e,.f{fill-rule:evenodd;}.b{fill:#f5a454;}.c{fill:#cd7f32;}.d{fill:#c47a31;}.e{fill:#78bec0;}.f{fill:#bf7934;}</style></defs><g transform="translate(-2579.999 -537.429)"><path class="a" d="M2628,560.608v4.914a1.881,1.881,0,0,1-.686,1.343,5.083,5.083,0,0,1-.438.361,7.765,7.765,0,0,1-1.125.657c-.14.064-.286.133-.438.2a14.936,14.936,0,0,1-1.782.627l-.435.129c-.723.193-1.506.368-2.345.519l-.438.077c-.687.111-1.407.215-2.157.3-.145.013-.29.03-.435.043-.5.052-1.01.09-1.533.125-.145.013-.29.021-.437.03-.653.034-1.32.055-2,.069-.145,0-.289,0-.437,0H2613c-.635,0-1.26-.013-1.875-.035-.148,0-.293-.013-.438-.017-.627-.03-1.242-.073-1.842-.124l-.44-.039c-.415-.038-.82-.086-1.218-.133l-.438-.06c-.505-.068-1-.146-1.469-.232-.148-.025-.293-.052-.435-.082-.413-.076-.808-.163-1.191-.257-.147-.034-.292-.069-.434-.107-.475-.12-.923-.249-1.345-.391-.151-.047-.295-.1-.438-.15a11.325,11.325,0,0,1-1.217-.507c-.155-.072-.3-.15-.44-.227a5.655,5.655,0,0,1-.935-.631,3.229,3.229,0,0,1-.44-.446,1.671,1.671,0,0,1-.405-1.039v-4.914Z"/><path class="b" d="M2628,560.61c0,2.19-6.715,3.966-15,3.966s-15-1.776-15-3.966,6.715-3.966,15-3.966S2628,558.419,2628,560.61Z"/><path class="c" d="M2625.312,560.082c0,1.506-5.512,2.727-12.312,2.727s-12.313-1.221-12.313-2.727,5.513-2.728,12.313-2.728S2625.312,558.575,2625.312,560.082Z"/><path class="d" d="M2601.063,560.752c1.35-1.182,6.181-2.057,11.937-2.057s10.587.875,11.936,2.057a.92.92,0,0,0,.376-.67c0-1.507-5.512-2.728-12.312-2.728s-12.313,1.221-12.313,2.728A.923.923,0,0,0,2601.063,560.752Z"/><path class="d" d="M2612.94,570h.372v-2.172H2613c-.635,0-1.26-.013-1.875-.034h0v2.171c.6.021,1.2.034,1.815.035ZM2598,563.35v2.172a1.671,1.671,0,0,0,.405,1.039h0v-2.172a1.671,1.671,0,0,1-.405-1.039Zm15.749,6.645v-2.172h0q1.021-.02,2-.069v2.172h0c-.653.034-1.32.055-2,.069Zm-3.062-.048h0c-.627-.03-1.242-.073-1.842-.124v-2.172h0q.9.078,1.842.125v2.171Zm5.5-.051v-2.172h0c.523-.034,1.033-.073,1.533-.124v2.171h0c-.5.052-1.01.09-1.533.125Zm-7.782-.112h0c-.415-.038-.82-.086-1.218-.133v-2.172h0c.4.047.8.095,1.218.133v2.172Zm9.75-.056v-2.171h0c.75-.082,1.47-.185,2.157-.3v2.171h0c-.687.111-1.407.215-2.157.3Zm-11.406-.137h0c-.505-.068-1-.146-1.469-.232v-2.172h0c.472.086.964.163,1.469.232v2.172Zm14-.236v-2.172h0c.839-.15,1.622-.326,2.345-.519v2.172h0c-.723.193-1.506.368-2.345.519Zm-15.905-.078h0c-.413-.076-.808-.163-1.191-.257v-2.171h0c.383.093.778.179,1.191.256v2.172Zm-1.625-.364h0c-.475-.12-.923-.249-1.345-.391V566.35h0c.422.142.87.271,1.345.391v2.172Zm20.31-.206v-2.172h0a14.936,14.936,0,0,0,1.782-.627v2.172h0a14.936,14.936,0,0,1-1.782.627Zm-22.093-.335h0a11.325,11.325,0,0,1-1.217-.507v-2.171h0a11.329,11.329,0,0,0,1.217.506v2.172Zm24.313-.489v-2.172h0a7.676,7.676,0,0,0,1.125-.657v2.172h0a7.765,7.765,0,0,1-1.125.657Zm-25.97-.245h0a5.655,5.655,0,0,1-.935-.631v-2.172h0a5.718,5.718,0,0,0,.935.632v2.171Zm27.533-.773v-2.171h0a1.888,1.888,0,0,0,.686-1.344v2.172A1.881,1.881,0,0,1,2627.313,566.865Z"/><path class="a" d="M2596.816,554.437v4.915a1.884,1.884,0,0,0,.687,1.343,4.994,4.994,0,0,0,.437.361,7.634,7.634,0,0,0,1.126.656c.14.065.285.133.437.2a15.061,15.061,0,0,0,1.783.628l.435.128c.722.193,1.505.369,2.344.52l.438.077c.687.111,1.407.214,2.157.3.145.013.29.03.436.043.5.051,1.01.09,1.532.124.145.013.29.022.437.03.653.035,1.32.056,2,.069.145,0,.289,0,.437,0h.313q.953,0,1.874-.034c.148,0,.293-.013.438-.017.627-.03,1.243-.073,1.842-.125l.441-.038c.414-.039.82-.086,1.217-.133.147-.022.292-.039.438-.061.505-.068,1-.145,1.47-.231.147-.026.292-.052.435-.082q.618-.115,1.19-.257c.147-.034.292-.069.434-.108.476-.12.924-.248,1.346-.39.15-.047.3-.1.437-.15a11.541,11.541,0,0,0,1.217-.507c.156-.073.3-.15.44-.227a5.593,5.593,0,0,0,.935-.632,3.214,3.214,0,0,0,.44-.445,1.673,1.673,0,0,0,.406-1.039v-4.915Z"/><path class="b" d="M2596.816,554.439c0,2.19,6.715,3.966,15,3.966s15-1.776,15-3.966-6.716-3.966-15-3.966S2596.816,552.249,2596.816,554.439Z"/><path class="c" d="M2599.5,553.912c0,1.506,5.512,2.727,12.312,2.727s12.313-1.221,12.313-2.727-5.512-2.729-12.313-2.729S2599.5,552.405,2599.5,553.912Z"/><path class="d" d="M2623.752,554.582c-1.35-1.182-6.181-2.057-11.937-2.057s-10.586.875-11.936,2.057a.922.922,0,0,1-.376-.67c0-1.507,5.512-2.729,12.312-2.729s12.313,1.222,12.313,2.729A.921.921,0,0,1,2623.752,554.582Z"/><path class="d" d="M2611.875,563.828h-.372v-2.171h.313c.635,0,1.259-.014,1.874-.035h0v2.172q-.894.031-1.815.034Zm14.941-6.648v2.172a1.673,1.673,0,0,1-.406,1.039h0v-2.172a1.673,1.673,0,0,0,.406-1.039Zm-15.75,6.644v-2.172h0c-.681-.013-1.348-.034-2-.068v2.171h0c.653.035,1.32.056,2,.069Zm3.062-.047h0c.627-.03,1.243-.073,1.842-.125V561.48h0c-.6.052-1.215.1-1.842.125v2.172Zm-5.5-.052v-2.171h0c-.522-.034-1.033-.074-1.532-.125V563.6h0c.5.051,1.01.09,1.532.124Zm7.783-.111h0c.414-.039.82-.086,1.217-.133v-2.172h0c-.4.047-.8.094-1.217.133v2.172Zm-9.751-.056v-2.172h0c-.75-.081-1.47-.184-2.157-.3v2.172h0c.687.111,1.407.214,2.157.3Zm11.406-.138h0c.505-.068,1-.145,1.47-.231v-2.172h0c-.473.086-.965.163-1.47.232v2.171Zm-14-.235v-2.172h0c-.839-.15-1.622-.327-2.344-.52v2.172h0c.722.193,1.505.369,2.344.52Zm15.906-.078h0q.618-.115,1.19-.257v-2.172h0q-.573.141-1.19.257v2.172Zm1.624-.365h0c.476-.12.924-.248,1.346-.39V560.18h0c-.422.142-.87.271-1.346.391v2.171Zm-20.309-.205v-2.172h0a15.066,15.066,0,0,1-1.783-.627v2.171h0a15.061,15.061,0,0,0,1.783.628Zm22.092-.335h0a11.541,11.541,0,0,0,1.217-.507v-2.172h0a11.35,11.35,0,0,1-1.217.507V562.2Zm-24.312-.49V559.54h0a7.628,7.628,0,0,1-1.126-.656v2.172h0a7.634,7.634,0,0,0,1.126.656Zm25.969-.244h0a5.593,5.593,0,0,0,.935-.632v-2.171h0a5.655,5.655,0,0,1-.935.631v2.172ZM2597.5,560.7v-2.172h0a1.882,1.882,0,0,1-.687-1.343v2.172A1.884,1.884,0,0,0,2597.5,560.7Z"/><path class="a" d="M2626.2,547.582V552.5a1.886,1.886,0,0,1-.687,1.344,4.97,4.97,0,0,1-.438.36,7.54,7.54,0,0,1-1.125.657c-.14.064-.286.133-.437.2a14.964,14.964,0,0,1-1.783.627l-.435.129c-.722.193-1.505.369-2.345.519l-.437.078c-.688.111-1.408.214-2.158.3-.145.012-.29.03-.435.043-.5.051-1.01.089-1.533.124-.144.013-.29.022-.437.03-.652.034-1.32.056-2,.069-.145,0-.29,0-.437,0h-.313c-.635,0-1.26-.013-1.875-.035-.148,0-.292-.012-.438-.017-.627-.029-1.242-.072-1.842-.124l-.44-.039c-.415-.038-.82-.086-1.217-.132-.148-.022-.293-.039-.438-.061-.505-.068-1-.146-1.47-.232-.148-.025-.293-.051-.435-.081-.413-.077-.808-.163-1.19-.257-.147-.035-.293-.069-.435-.108-.475-.12-.923-.249-1.345-.391-.15-.046-.3-.1-.437-.15a11.278,11.278,0,0,1-1.218-.506c-.155-.073-.3-.151-.44-.228a5.632,5.632,0,0,1-.935-.631,3.151,3.151,0,0,1-.439-.446,1.663,1.663,0,0,1-.406-1.039v-4.914Z"/><path class="b" d="M2626.2,547.584c0,2.19-6.715,3.966-15,3.966s-15-1.776-15-3.966,6.715-3.966,15-3.966S2626.2,545.394,2626.2,547.584Z"/><path class="c" d="M2623.509,547.056c0,1.506-5.513,2.728-12.313,2.728s-12.312-1.222-12.312-2.728,5.512-2.728,12.312-2.728S2623.509,545.55,2623.509,547.056Z"/><path class="d" d="M2599.26,547.727c1.349-1.182,6.181-2.057,11.936-2.057s10.587.875,11.937,2.057a.925.925,0,0,0,.376-.671c0-1.506-5.513-2.728-12.313-2.728s-12.312,1.222-12.312,2.728A.921.921,0,0,0,2599.26,547.727Z"/><path class="d" d="M2611.136,556.973h.373V554.8h-.313c-.635,0-1.26-.013-1.875-.034h0v2.171q.894.033,1.815.035Zm-14.94-6.648V552.5a1.663,1.663,0,0,0,.406,1.039h0v-2.172a1.662,1.662,0,0,1-.406-1.038Zm15.75,6.644V554.8h0c.68-.013,1.348-.034,2-.069V556.9h0c-.652.034-1.32.056-2,.069Zm-3.063-.048h0c-.627-.029-1.242-.072-1.842-.124v-2.172h0q.9.078,1.842.125v2.171Zm5.5-.051V554.7h0c.523-.034,1.033-.073,1.533-.124v2.172h0c-.5.051-1.01.089-1.533.124Zm-7.782-.112h0c-.415-.038-.82-.086-1.217-.132v-2.172h0c.4.046.8.094,1.217.132v2.172Zm9.75-.055v-2.172h0c.75-.082,1.47-.185,2.158-.3v2.172h0c-.688.111-1.408.214-2.158.3Zm-11.405-.138h0c-.505-.068-1-.146-1.47-.232v-2.171h0c.472.086.965.163,1.47.232v2.171Zm14-.236v-2.172h0c.84-.15,1.623-.326,2.345-.519v2.172h0c-.722.193-1.505.369-2.345.519Zm-15.905-.077h0c-.413-.077-.808-.163-1.19-.257v-2.172h0c.382.094.777.18,1.19.257v2.172Zm-1.625-.365h0c-.475-.12-.923-.249-1.345-.391v-2.171h0c.422.142.87.27,1.345.39v2.172Zm20.31-.206v-2.172h0a14.948,14.948,0,0,0,1.783-.626v2.171h0a14.964,14.964,0,0,1-1.783.627Zm-22.092-.335h0a11.278,11.278,0,0,1-1.218-.506v-2.172h0a11.274,11.274,0,0,0,1.218.507v2.171Zm24.312-.489v-2.172h0a7.625,7.625,0,0,0,1.125-.656V554.2h0a7.54,7.54,0,0,1-1.125.657Zm-25.97-.245h0a5.632,5.632,0,0,1-.935-.631v-2.172h0a5.634,5.634,0,0,0,.935.632v2.171Zm27.533-.772v-2.172h0a1.886,1.886,0,0,0,.687-1.343V552.5A1.886,1.886,0,0,1,2625.509,553.84Z"/><path class="a" d="M2624.641,541.393v4.914a1.883,1.883,0,0,1-.687,1.343,4.868,4.868,0,0,1-.438.361,7.638,7.638,0,0,1-1.125.656c-.14.065-.285.134-.437.2a15.144,15.144,0,0,1-1.783.627l-.435.129c-.722.193-1.505.368-2.345.518l-.437.078c-.687.112-1.407.215-2.157.3-.146.013-.291.03-.436.043-.5.052-1.01.09-1.533.125-.144.012-.29.021-.436.029-.653.035-1.32.056-2,.069-.145,0-.29.005-.437.005h-.313c-.635,0-1.26-.013-1.875-.035-.147,0-.292-.013-.437-.017-.628-.03-1.243-.073-1.843-.124l-.44-.039c-.415-.039-.82-.086-1.217-.133-.147-.021-.293-.039-.438-.06-.505-.069-1-.146-1.47-.232q-.22-.037-.435-.082c-.413-.077-.808-.163-1.19-.257-.147-.034-.293-.069-.434-.107-.476-.121-.924-.249-1.346-.391-.15-.047-.3-.1-.437-.15a11.358,11.358,0,0,1-1.218-.507c-.155-.073-.3-.15-.439-.227a5.642,5.642,0,0,1-.936-.631,3.154,3.154,0,0,1-.439-.446,1.667,1.667,0,0,1-.406-1.039v-4.914Z"/><path class="b" d="M2624.641,541.4c0,2.19-6.715,3.966-15,3.966s-15-1.776-15-3.966,6.716-3.966,15-3.966S2624.641,539.2,2624.641,541.4Z"/><path class="c" d="M2621.954,540.867c0,1.506-5.513,2.727-12.313,2.727s-12.312-1.221-12.312-2.727,5.512-2.728,12.312-2.728S2621.954,539.36,2621.954,540.867Z"/><path class="d" d="M2597.705,541.537c1.349-1.182,6.181-2.057,11.936-2.057s10.587.875,11.937,2.057a.919.919,0,0,0,.376-.67c0-1.507-5.513-2.728-12.313-2.728s-12.312,1.221-12.312,2.728A.919.919,0,0,0,2597.705,541.537Z"/><path class="d" d="M2609.582,550.784h.372v-2.172h-.313c-.635,0-1.26-.013-1.875-.035h0v2.172c.6.021,1.2.034,1.816.035Zm-14.941-6.649v2.172a1.667,1.667,0,0,0,.406,1.039h0v-2.172a1.667,1.667,0,0,1-.406-1.039Zm15.75,6.644v-2.171h0c.681-.014,1.348-.035,2-.069v2.171h0c-.653.035-1.32.056-2,.069Zm-3.062-.047h0c-.628-.03-1.243-.073-1.843-.124v-2.172h0c.6.051,1.215.094,1.843.125v2.171Zm5.5-.051v-2.172h0c.523-.034,1.033-.073,1.533-.125v2.172h0c-.5.052-1.01.09-1.533.125Zm-7.782-.112h0c-.415-.039-.82-.086-1.217-.133v-2.172h0c.4.047.8.1,1.217.133v2.172Zm9.751-.056v-2.171h0c.75-.082,1.47-.185,2.157-.3v2.172h0c-.687.112-1.407.215-2.157.3Zm-11.406-.137h0c-.505-.069-1-.146-1.47-.232v-2.172h0c.473.086.965.163,1.47.232v2.172Zm14-.237v-2.171h0c.84-.15,1.623-.326,2.345-.519v2.172h0c-.722.193-1.505.368-2.345.518Zm-15.905-.077h0c-.413-.077-.808-.163-1.19-.257v-2.172h0c.382.094.777.18,1.19.257v2.172Zm-1.624-.364h0c-.476-.121-.924-.249-1.346-.391v-2.172h0c.422.142.87.271,1.346.391V549.7Zm20.309-.206V547.32h0a14.958,14.958,0,0,0,1.783-.627v2.172h0a15.144,15.144,0,0,1-1.783.627Zm-22.092-.335h0a11.358,11.358,0,0,1-1.218-.507v-2.171h0a11.565,11.565,0,0,0,1.218.506v2.172Zm24.312-.49V546.5h0a7.725,7.725,0,0,0,1.125-.657v2.172h0a7.638,7.638,0,0,1-1.125.656Zm-25.969-.244h0a5.642,5.642,0,0,1-.936-.631V545.62h0a5.642,5.642,0,0,0,.936.631v2.172Zm27.532-.773v-2.172h0a1.883,1.883,0,0,0,.687-1.343v2.172A1.883,1.883,0,0,1,2623.954,547.65Z"/><path class="e" d="M2587.99,566.616l-.752-2.242,6.461-15.71Z"/><path class="e" d="M2584.753,556.977l-.753-2.241,4.942-11.881Z"/><path class="f" d="M2613.4,554.927c0,.284-.006.562-.023.84-.011.233-.028.46-.057.687a14.2,14.2,0,0,1-.227,1.487c-.045.233-.1.46-.153.687a14.717,14.717,0,0,1-.988,2.718c-.1.233-.221.465-.34.687a14.809,14.809,0,0,1-.959,1.538,8.507,8.507,0,0,1-.516.686,12.941,12.941,0,0,1-1.351,1.488c-.25.244-.506.471-.766.686a14.355,14.355,0,0,1-1.97,1.4,12.633,12.633,0,0,1-1.294.687,14.849,14.849,0,0,1-6.35,1.413H2595v-30h3.406a14.9,14.9,0,0,1,6.833,1.652,12.213,12.213,0,0,1,1.2.686,14.205,14.205,0,0,1,1.957,1.488c.251.215.489.448.722.686a15.215,15.215,0,0,1,2.043,2.6c.135.222.272.449.4.682a14.686,14.686,0,0,1,1.186,2.815c.068.226.136.453.193.686a14.24,14.24,0,0,1,.386,2.248c.028.226.045.454.056.686C2613.391,554.416,2613.4,554.672,2613.4,554.927Z"/><path class="a" d="M2613.374,555.767c-.011.233-.028.46-.057.687h-4.188v-.687Z"/><path class="a" d="M2613.09,557.941c-.045.233-.1.46-.153.687h-5.147v-.687Z"/><path class="a" d="M2611.949,561.346c-.1.233-.221.465-.34.687h-5.068v-.687Z"/><path class="a" d="M2610.65,563.571a8.507,8.507,0,0,1-.516.686h-5.262v-.686Z"/><path class="a" d="M2608.783,565.745c-.25.244-.506.471-.766.686h-4.927v-.686Z"/><path class="a" d="M2606.047,567.827a12.633,12.633,0,0,1-1.294.687h-4.228v-.687Z"/><path class="a" d="M2613.379,554.161h-4.534v-.686h4.478C2613.351,553.7,2613.368,553.929,2613.379,554.161Z"/><path class="a" d="M2612.937,551.227h-4.609v-.686h4.416C2612.812,550.767,2612.88,550.994,2612.937,551.227Z"/><path class="a" d="M2611.558,547.726h-4.619v-.682h4.222C2611.3,547.266,2611.433,547.493,2611.558,547.726Z"/><path class="a" d="M2609.118,544.439h-5.143v-.686h4.421C2608.647,543.968,2608.885,544.2,2609.118,544.439Z"/><path class="a" d="M2606.439,542.265h-4.984v-.686h3.781A12.213,12.213,0,0,1,2606.439,542.265Z"/><path class="b" d="M2580,554.925a15,15,0,1,0,15-15A15,15,0,0,0,2580,554.925Z"/><path class="c" d="M2584,554.925a11,11,0,1,0,11-11A11,11,0,0,0,2584,554.925Z"/><path class="d" d="M2595.916,565.005a11,11,0,0,1-8.223-18.3,11,11,0,1,0,15.526,15.523A10.954,10.954,0,0,1,2595.916,565.005Z"/><path class="b" d="M2588.508,552.063l7.8,5.851-.818.613a.846.846,0,0,1-.956-.014l-3.5-2.623-2.5,1.879,5.366,4.024.635.477a.848.848,0,0,0,.956.015l.651-.489,5.345-4.009-7.8-5.85.819-.614a.846.846,0,0,1,.955.015l3.5,2.622,2.5-1.878-6-4.5a.846.846,0,0,0-.955-.014Z"/></g></svg>