<svg xmlns="http://www.w3.org/2000/svg" width="30" height="30" viewBox="0 0 30 30">
  <path id="Path_3673" data-name="Path 3673" d="M4299,684.421a2.16,2.16,0,1,1-2.16,2.16,2.16,2.16,0,0,1,2.16-2.16Zm2.161,8.64v8.64a1.44,1.44,0,0,1,0,2.88h-4.321V694.5a1.441,1.441,0,0,1,0-2.881h4.321v1.44Zm8.714-13.56h-21.75a4.129,4.129,0,0,0-4.125,4.125v21.75a4.128,4.128,0,0,0,4.125,4.125h21.75a4.128,4.128,0,0,0,4.125-4.125v-21.75A4.129,4.129,0,0,0,4309.874,679.5Z" transform="translate(-4283.999 -679.501)" fill="#ccc" fill-rule="evenodd"/>
</svg>
