<svg xmlns="http://www.w3.org/2000/svg" viewBox="0 0 50 50"><path d="M20.21875 0C19.730469 0 19.296875 0.359375 19.21875 0.84375L18.25 6.6875C17.046875 7.035156 15.894531 7.5 14.8125 8.09375L10 4.65625C9.601563 4.371094 9.066406 4.40625 8.71875 4.75L4.8125 8.65625C4.46875 9 4.441406 9.539063 4.71875 9.9375L8.09375 14.78125C7.488281 15.878906 7.007813 17.046875 6.65625 18.25L0.84375 19.21875C0.363281 19.300781 0 19.730469 0 20.21875L0 25.71875C0 26.203125 0.335938 26.601563 0.8125 26.6875L6.65625 27.71875C7.003906 28.921875 7.488281 30.089844 8.09375 31.1875L4.65625 36C4.371094 36.398438 4.40625 36.933594 4.75 37.28125L8.65625 41.1875C9 41.53125 9.539063 41.558594 9.9375 41.28125L14.8125 37.875C15.90625 38.476563 17.054688 38.964844 18.25 39.3125L19.21875 45.15625C19.296875 45.636719 19.730469 46 20.21875 46L25.71875 46C25.75 46 25.855469 45.996094 26 46L26 49C26 49.554688 26.445313 50 27 50L49 50C49.554688 50 50 49.554688 50 49L50 31.84375C50 30.273438 48.726563 29 47.15625 29L38.78125 29C38.941406 28.570313 39.125 28.109375 39.25 27.71875L45.15625 26.6875C45.636719 26.601563 46 26.203125 46 25.71875L46 20.21875C46 19.730469 45.640625 19.296875 45.15625 19.21875L39.25 18.25C38.902344 17.0625 38.4375 15.921875 37.84375 14.84375L41.28125 9.9375C41.558594 9.539063 41.53125 9 41.1875 8.65625L37.28125 4.75C36.933594 4.402344 36.398438 4.371094 36 4.65625L31.15625 8.15625C30.066406 7.554688 28.910156 7.066406 27.71875 6.71875L26.6875 0.8125C26.601563 0.335938 26.203125 0 25.71875 0 Z M 23 15.65625C27.050781 15.65625 30.34375 18.949219 30.34375 23C30.34375 27.050781 27.050781 30.34375 23 30.34375C18.949219 30.34375 15.65625 27.050781 15.65625 23C15.65625 18.949219 18.949219 15.65625 23 15.65625 Z M 28.84375 31L47.15625 31C47.621094 31 48 31.375 48 31.84375L48 32L28 32L28 31.84375C28 31.375 28.375 31 28.84375 31 Z M 28 34L48 34L48 48L28 48 Z M 37 34.59375L36.28125 35.28125L32.9375 38.625L31.65625 37.53125L30.90625 36.875L29.59375 38.40625L30.34375 39.03125L32.34375 40.75L33.0625 41.375L37.71875 36.71875L38.40625 36 Z M 37 39.59375L36.28125 40.28125L32.9375 43.625L31.65625 42.53125L30.90625 41.875L29.59375 43.40625L30.34375 44.03125L32.34375 45.75L33.0625 46.375L37.71875 41.71875L38.40625 41Z" fill="#CCCCCC" /></svg>
