<svg xmlns="http://www.w3.org/2000/svg" width="24.001" height="24" viewBox="0 0 24.001 24"><defs><style>.a{fill:#a6adb7;fill-rule:evenodd;}</style></defs><path class="a" d="M1182.9,486.3a1.5,1.5,0,0,1-1.5,1.5h-6.3a1.5,1.5,0,1,1,0-3h6.3a1.5,1.5,0,0,1,1.5,1.5Zm3.78-6.3a1.5,1.5,0,0,1-1.5,1.5H1175.1a1.5,1.5,0,0,1,0-3h10.081a1.5,1.5,0,0,1,1.5,1.5Zm2.221-4.8h-13.8a1.5,1.5,0,0,1,0-3h13.8a1.5,1.5,0,0,1,0,3Zm1.8-7.2h-17.4a3.3,3.3,0,0,0-3.3,3.3v17.4a3.3,3.3,0,0,0,3.3,3.3h17.4a3.3,3.3,0,0,0,3.3-3.3V471.3A3.3,3.3,0,0,0,1190.7,468Z" transform="translate(-1170.001 -467.999)"/></svg>