<svg xmlns="http://www.w3.org/2000/svg" width="30" height="30" viewBox="0 0 30 30"><defs><style>.a{fill:#ccc;fill-rule:evenodd;}</style></defs><path class="a" d="M326.245,747.75c-.649,0-1.25-.209-1.25-1.719v-1.406a8.416,8.416,0,0,0-8.472-8.125h-8.749A7.875,7.875,0,0,0,300,744.469q0,.078,0,.156v13.75a7.876,7.876,0,0,0,7.619,8.122l.156,0h13.045c5.231,0,9.176-3.661,9.176-8.515V751.5c0-2.8-.946-3.75-3.75-3.75ZM309.373,744h6.249a1.875,1.875,0,0,1,0,3.75h-6.249a1.875,1.875,0,1,1,0-3.75Zm11.248,15H309.373a1.875,1.875,0,1,1,0-3.75h11.248a1.875,1.875,0,0,1,0,3.75Z" transform="translate(-299.995 -736.5)"/></svg>