<svg xmlns="http://www.w3.org/2000/svg" width="48" height="32.646" viewBox="0 0 48 32.646"><defs><style>.a{fill:#e08e3d;}.a,.b,.c,.d,.e,.f{fill-rule:evenodd;}.b{fill:#f5a454;}.c{fill:#cd7f32;}.d{fill:#c47a31;}.e{fill:#78bec0;}.f{fill:#bf7934;}</style></defs><g transform="translate(-2579.999 -465.353)"><path class="a" d="M2628,486.73v5.9a2.26,2.26,0,0,1-.824,1.612,5.951,5.951,0,0,1-.525.433,9.113,9.113,0,0,1-1.35.787c-.168.078-.343.16-.525.237a17.981,17.981,0,0,1-2.139.753c-.171.051-.345.1-.522.154-.867.232-1.807.443-2.814.623l-.525.093c-.825.134-1.689.257-2.589.356-.174.015-.348.035-.522.051-.6.062-1.213.108-1.839.149-.174.016-.348.026-.525.036-.783.041-1.584.067-2.4.083-.174,0-.347.005-.524.005H2610q-1.143,0-2.25-.042c-.177-.005-.351-.015-.525-.02-.753-.036-1.491-.087-2.211-.149l-.528-.047c-.5-.046-.984-.1-1.461-.159-.176-.026-.351-.047-.526-.072-.6-.083-1.2-.176-1.763-.279-.177-.03-.351-.062-.522-.1-.5-.092-.97-.2-1.428-.308-.177-.042-.351-.083-.522-.129-.57-.144-1.108-.3-1.614-.469-.181-.056-.354-.118-.525-.18a13.917,13.917,0,0,1-1.461-.608c-.186-.088-.36-.18-.528-.273a6.778,6.778,0,0,1-1.122-.757,3.938,3.938,0,0,1-.528-.535,2.007,2.007,0,0,1-.486-1.247v-5.9Z"/><path class="b" d="M2628,486.732c0,2.628-8.058,4.759-18,4.759s-18-2.131-18-4.759,8.059-4.759,18-4.759S2628,484.1,2628,486.732Z"/><path class="c" d="M2624.775,486.1c0,1.807-6.615,3.273-14.775,3.273s-14.775-1.466-14.775-3.273,6.615-3.274,14.775-3.274S2624.775,484.291,2624.775,486.1Z"/><path class="d" d="M2595.676,486.9c1.62-1.418,7.418-2.468,14.324-2.468s12.7,1.05,14.324,2.468a1.107,1.107,0,0,0,.451-.8c0-1.808-6.615-3.274-14.775-3.274s-14.775,1.466-14.775,3.274A1.107,1.107,0,0,0,2595.676,486.9Z"/><path class="d" d="M2609.928,498h.447v-2.606H2610c-.762,0-1.512-.016-2.25-.042h0v2.606q1.073.039,2.178.042ZM2592,490.021v2.606a2.007,2.007,0,0,0,.486,1.247h0v-2.606a2.009,2.009,0,0,1-.486-1.247Zm18.9,7.973v-2.606h0c.817-.016,1.618-.042,2.4-.083v2.606h0c-.783.041-1.584.067-2.4.083Zm-3.674-.057h0c-.753-.036-1.491-.087-2.211-.149v-2.607h0q1.08.094,2.211.15v2.606Zm6.6-.062v-2.606h0c.626-.041,1.239-.088,1.839-.149v2.606h0c-.6.062-1.213.108-1.839.149Zm-9.339-.134h0c-.5-.046-.984-.1-1.461-.159v-2.607h0c.477.057.963.114,1.461.16v2.606Zm11.7-.066v-2.607h0c.9-.1,1.764-.221,2.589-.355v2.606h0c-.825.134-1.689.257-2.589.356Zm-13.687-.165h0c-.6-.083-1.2-.176-1.763-.279v-2.606h0c.567.1,1.158.2,1.763.278v2.607Zm16.8-.284V494.62h0c1.007-.18,1.947-.391,2.814-.623V496.6h0c-.867.232-1.807.443-2.814.623Zm-19.086-.093h0c-.5-.092-.97-.2-1.428-.308v-2.606h0c.458.112.932.216,1.428.308v2.606Zm-1.95-.437h0c-.57-.144-1.108-.3-1.614-.469v-2.606h0c.506.17,1.044.325,1.614.469V496.7Zm24.372-.247v-2.607h0a17.985,17.985,0,0,0,2.139-.751V495.7h0a17.981,17.981,0,0,1-2.139.753Zm-26.511-.4h0a13.917,13.917,0,0,1-1.461-.608v-2.606h0a13.711,13.711,0,0,0,1.461.608v2.606Zm29.175-.588v-2.606h0a9.11,9.11,0,0,0,1.35-.788v2.607h0a9.113,9.113,0,0,1-1.35.787Zm-31.164-.293h0a6.778,6.778,0,0,1-1.122-.757V491.8h0a6.781,6.781,0,0,0,1.122.758v2.606Zm33.039-.927v-2.606h0a2.26,2.26,0,0,0,.824-1.612v2.606A2.26,2.26,0,0,1,2627.175,494.239Z"/><path class="a" d="M2590.672,478.443v5.9a2.259,2.259,0,0,0,.824,1.612,5.9,5.9,0,0,0,.526.433,9.119,9.119,0,0,0,1.35.788c.168.077.343.16.525.237a18.006,18.006,0,0,0,2.139.752q.257.078.522.154c.867.232,1.806.443,2.814.624l.525.093c.825.133,1.688.257,2.589.355.174.015.348.036.522.052.6.061,1.212.107,1.839.149.174.015.348.026.524.036q1.176.061,2.4.082c.174,0,.348.005.525.005h.375c.762,0,1.511-.015,2.25-.041.177-.005.351-.015.525-.021.753-.035,1.491-.087,2.211-.149l.528-.046c.5-.047.984-.1,1.461-.159.176-.027.35-.047.525-.073.606-.082,1.2-.175,1.764-.279.177-.03.351-.061.522-.1q.742-.139,1.428-.309c.177-.041.351-.083.521-.129.571-.144,1.108-.3,1.615-.468.18-.057.354-.119.524-.18a14.049,14.049,0,0,0,1.462-.608c.186-.088.36-.181.528-.273a6.8,6.8,0,0,0,1.122-.758,3.891,3.891,0,0,0,.527-.535,2,2,0,0,0,.487-1.247v-5.9Z"/><path class="b" d="M2590.672,478.445c0,2.629,8.058,4.759,18,4.759s18-2.13,18-4.759-8.059-4.759-18-4.759S2590.672,475.817,2590.672,478.445Z"/><path class="c" d="M2593.9,477.812c0,1.807,6.615,3.273,14.774,3.273s14.775-1.466,14.775-3.273-6.614-3.273-14.775-3.273S2593.9,476,2593.9,477.812Z"/><path class="d" d="M2623,478.617c-1.619-1.419-7.417-2.469-14.324-2.469s-12.7,1.05-14.323,2.469a1.106,1.106,0,0,1-.451-.8c0-1.808,6.615-3.273,14.774-3.273s14.775,1.465,14.775,3.273A1.106,1.106,0,0,1,2623,478.617Z"/><path class="d" d="M2608.743,489.712h-.446v-2.606h.375c.762,0,1.511-.015,2.25-.041h0v2.606c-.716.025-1.441.04-2.179.041Zm17.929-7.978v2.606a2,2,0,0,1-.487,1.247h0v-2.606a2,2,0,0,0,.487-1.247Zm-18.9,7.973V487.1h0c-.817-.016-1.617-.041-2.4-.082v2.606h0q1.176.061,2.4.082Zm3.675-.057h0c.753-.035,1.491-.087,2.211-.149v-2.606h0q-1.08.093-2.211.15v2.6Zm-6.6-.061v-2.606h0c-.627-.041-1.239-.088-1.839-.15v2.607h0c.6.061,1.212.107,1.839.149Zm9.339-.134h0c.5-.047.984-.1,1.461-.159v-2.607h0c-.477.056-.963.113-1.461.16v2.606Zm-11.7-.067v-2.606h0c-.9-.1-1.764-.222-2.589-.356v2.607h0c.825.133,1.688.257,2.589.355Zm13.686-.165h0c.606-.082,1.2-.175,1.764-.279v-2.605h0c-.567.1-1.158.2-1.764.278v2.606Zm-16.8-.283v-2.607h0c-1.008-.179-1.947-.391-2.814-.623v2.606h0c.867.232,1.806.443,2.814.624Zm19.086-.093h0q.742-.139,1.428-.309v-2.606h0q-.687.17-1.428.308v2.607Zm1.949-.438h0c.571-.144,1.108-.3,1.615-.468v-2.607h0c-.507.171-1.044.325-1.615.469v2.606Zm-24.371-.247v-2.606h0a18.006,18.006,0,0,1-2.139-.752v2.606h0a18.006,18.006,0,0,0,2.139.752Zm26.51-.4h0a14.049,14.049,0,0,0,1.462-.608v-2.607h0a13.421,13.421,0,0,1-1.462.608v2.607Zm-29.174-.588v-2.606h0a9.113,9.113,0,0,1-1.35-.788v2.606h0a9.119,9.119,0,0,0,1.35.788Zm31.164-.293h0a6.8,6.8,0,0,0,1.122-.758v-2.606h0a6.8,6.8,0,0,1-1.122.757v2.607Zm-33.04-.928v-2.606h0a2.259,2.259,0,0,1-.824-1.612v2.606A2.259,2.259,0,0,0,2591.5,485.952Z"/><path class="a" d="M2588.79,470.11v5.9a2.258,2.258,0,0,0,.823,1.612,5.961,5.961,0,0,0,.526.433,9.126,9.126,0,0,0,1.35.788c.168.077.343.16.525.237a18,18,0,0,0,2.139.752c.171.052.345.1.522.155.867.231,1.807.442,2.814.622.171.031.348.063.525.093.825.134,1.689.258,2.589.356.174.015.348.036.522.052.6.061,1.212.107,1.839.149.174.015.348.026.524.036q1.176.062,2.4.082c.174,0,.347.006.524.006h.375c.762,0,1.512-.016,2.25-.042.177-.005.351-.015.525-.021.753-.035,1.491-.087,2.211-.149l.528-.046c.5-.047.984-.1,1.461-.159.176-.027.351-.047.526-.073.6-.082,1.2-.175,1.763-.279.177-.03.351-.061.522-.1.5-.093.97-.2,1.428-.309.177-.041.351-.083.522-.129q.855-.216,1.614-.468c.18-.057.354-.119.525-.18a13.917,13.917,0,0,0,1.461-.608c.186-.088.36-.181.528-.273a6.768,6.768,0,0,0,1.122-.758,3.9,3.9,0,0,0,.528-.535,2,2,0,0,0,.486-1.247v-5.9Z"/><path class="b" d="M2588.79,470.112c0,2.629,8.058,4.76,18,4.76s18-2.131,18-4.76-8.059-4.759-18-4.759S2588.79,467.484,2588.79,470.112Z"/><path class="c" d="M2592.014,469.479c0,1.808,6.615,3.273,14.775,3.273s14.775-1.465,14.775-3.273-6.615-3.273-14.775-3.273S2592.014,467.671,2592.014,469.479Z"/><path class="d" d="M2621.113,470.284c-1.62-1.419-7.418-2.469-14.324-2.469s-12.7,1.05-14.324,2.469a1.109,1.109,0,0,1-.451-.8c0-1.808,6.615-3.273,14.775-3.273s14.775,1.465,14.775,3.273A1.109,1.109,0,0,1,2621.113,470.284Z"/><path class="d" d="M2606.861,481.38h-.447v-2.607h.375c.762,0,1.512-.016,2.25-.041h0v2.606q-1.073.037-2.178.042Zm17.928-7.979v2.606a2,2,0,0,1-.486,1.247h0v-2.606a2,2,0,0,0,.486-1.247Zm-18.9,7.973v-2.606h0c-.817-.016-1.618-.041-2.4-.083v2.607h0q1.176.062,2.4.082Zm3.674-.057h0c.753-.035,1.491-.087,2.211-.149v-2.606h0q-1.08.093-2.211.15v2.6Zm-6.6-.061V478.65h0c-.627-.041-1.239-.088-1.839-.15v2.607h0c.6.061,1.212.107,1.839.149Zm9.339-.134h0c.5-.047.984-.1,1.461-.159v-2.607h0c-.477.056-.963.113-1.461.16v2.606Zm-11.7-.067v-2.606h0c-.9-.1-1.764-.222-2.589-.356V480.7h0c.825.134,1.689.258,2.589.356Zm13.687-.165h0c.6-.082,1.2-.175,1.763-.279v-2.6h0c-.567.1-1.158.195-1.763.278v2.606Zm-16.8-.284V478h0c-1.007-.179-1.947-.391-2.814-.623v2.607h0c.867.231,1.807.442,2.814.622Zm19.086-.092h0c.5-.093.97-.2,1.428-.309V477.6h0c-.458.113-.932.216-1.428.308v2.607Zm1.95-.438h0q.855-.216,1.614-.468V477h0c-.506.171-1.044.325-1.614.469v2.606Zm-24.372-.247v-2.606h0a18,18,0,0,1-2.139-.752v2.606h0a18,18,0,0,0,2.139.752Zm26.511-.4h0a13.917,13.917,0,0,0,1.461-.608v-2.607h0a13.505,13.505,0,0,1-1.461.608v2.607Zm-29.175-.588v-2.606h0a9.221,9.221,0,0,1-1.35-.788v2.606h0a9.126,9.126,0,0,0,1.35.788Zm31.164-.293h0a6.768,6.768,0,0,0,1.122-.758v-2.606h0a6.767,6.767,0,0,1-1.122.757v2.607Zm-33.04-.928v-2.6h0a2.263,2.263,0,0,1-.823-1.613v2.606A2.258,2.258,0,0,0,2589.613,477.619Z"/><path class="e" d="M2587.99,494.688l-.752-2.242,6.461-15.71Z"/><path class="e" d="M2584.753,485.049l-.753-2.241,4.942-11.88Z"/><path class="f" d="M2613.4,483c0,.283-.006.562-.023.84-.011.233-.028.46-.057.687a13.865,13.865,0,0,1-.227,1.486c-.045.234-.1.46-.153.688a14.741,14.741,0,0,1-.987,2.718c-.1.233-.221.465-.34.686a15.05,15.05,0,0,1-.96,1.539,8.288,8.288,0,0,1-.516.686,12.761,12.761,0,0,1-1.351,1.487c-.25.244-.5.472-.766.687a14.437,14.437,0,0,1-1.97,1.4,12.634,12.634,0,0,1-1.294.687A14.864,14.864,0,0,1,2598.4,498H2595V468h3.406a14.9,14.9,0,0,1,6.833,1.652,12.1,12.1,0,0,1,1.2.686,14.193,14.193,0,0,1,1.957,1.487c.251.216.489.449.722.687a15.169,15.169,0,0,1,2.043,2.605c.136.222.273.449.4.681a14.741,14.741,0,0,1,1.186,2.815c.068.227.136.454.193.687a14.027,14.027,0,0,1,.386,2.247c.028.227.045.454.057.687C2613.391,482.488,2613.4,482.744,2613.4,483Z"/><path class="a" d="M2613.374,483.839c-.011.233-.028.46-.057.687h-4.188v-.687Z"/><path class="a" d="M2613.09,486.012c-.045.234-.1.46-.153.688h-5.147v-.688Z"/><path class="a" d="M2611.95,489.418c-.1.233-.221.465-.34.686h-5.069v-.686Z"/><path class="a" d="M2610.65,491.643a8.288,8.288,0,0,1-.516.686h-5.262v-.686Z"/><path class="a" d="M2608.783,493.816c-.25.244-.5.472-.766.687h-4.927v-.687Z"/><path class="a" d="M2606.047,495.9a12.634,12.634,0,0,1-1.294.687h-4.227V495.9Z"/><path class="a" d="M2613.38,482.233h-4.534v-.687h4.477C2613.351,481.773,2613.368,482,2613.38,482.233Z"/><path class="a" d="M2612.937,479.3h-4.609v-.687h4.416C2612.812,478.839,2612.88,479.066,2612.937,479.3Z"/><path class="a" d="M2611.558,475.8h-4.619v-.681h4.222C2611.3,475.338,2611.434,475.565,2611.558,475.8Z"/><path class="a" d="M2609.118,472.511h-5.142v-.687h4.42C2608.647,472.04,2608.885,472.273,2609.118,472.511Z"/><path class="a" d="M2606.439,470.337h-4.983v-.686h3.78A12.1,12.1,0,0,1,2606.439,470.337Z"/><path class="b" d="M2580,483a15,15,0,1,0,15-15A15,15,0,0,0,2580,483Z"/><path class="c" d="M2584,483a11,11,0,1,0,11-11A11,11,0,0,0,2584,483Z"/><path class="d" d="M2595.916,493.076a11,11,0,0,1-8.223-18.3A11,11,0,1,0,2603.22,490.3,10.956,10.956,0,0,1,2595.916,493.076Z"/><path class="b" d="M2588.508,480.135l7.8,5.85-.819.614a.846.846,0,0,1-.955-.015l-3.5-2.622-2.505,1.878,5.366,4.025.636.477a.846.846,0,0,0,.955.014l.651-.488,5.346-4.009-7.8-5.851.818-.613a.848.848,0,0,1,.956.014l3.5,2.623,2.5-1.878-6-4.5a.848.848,0,0,0-.956-.015Z"/></g></svg>