<svg xmlns="http://www.w3.org/2000/svg" viewBox="0 0 50 50">
  <path d="M24.78125 2.03125C20.660156 2.050781 16.613281 3.160156 13.03125 5.34375C7.816406 8.519531 4.144531 13.566406 2.6875 19.5625C1.230469 25.558594 2.167969 31.753906 5.34375 36.96875C8.519531 42.183594 13.566406 45.855469 19.5625 47.3125C21.402344 47.761719 23.285156 47.96875 25.125 47.96875C29.28125 47.96875 33.355469 46.855469 36.96875 44.65625C39.730469 42.972656 42.0625 40.75 43.90625 38.09375L44.46875 37.28125L26.84375 25.0625L45.15625 13.90625L44.65625 13.03125C41.480469 7.816406 36.433594 4.144531 30.4375 2.6875C28.5625 2.230469 26.65625 2.023438 24.78125 2.03125 Z M 36 22C34.34375 22 33 23.34375 33 25C33 26.65625 34.34375 28 36 28C37.65625 28 39 26.65625 39 25C39 23.34375 37.65625 22 36 22 Z M 45 22C43.34375 22 42 23.34375 42 25C42 26.65625 43.34375 28 45 28C46.65625 28 48 26.65625 48 25C48 23.34375 46.65625 22 45 22Z" fill="#CCCCCC" />
</svg>