<svg xmlns="http://www.w3.org/2000/svg" width="30" height="30" viewBox="0 0 30 30"><path d="M8282.367,525.9c0-.006.006-.013.011-.017l5.016-5.016v-3.152a.883.883,0,0,1,.258-.622l5.273-5.332a.879.879,0,0,1,1.5.622v2.637h2.7a.879.879,0,0,1,.622,1.5l-5.332,5.332a.877.877,0,0,1-.622.257h-3.151l-5.016,5.016c0,.005-.012.007-.018.012a.875.875,0,0,1-1.236-1.237Zm.632-7.306a7.91,7.91,0,1,0,7.91,7.91,7.833,7.833,0,0,0-.485-2.637h-1.059l-2.032,2.032a4.384,4.384,0,1,1-4.334-3.79,4.278,4.278,0,0,1,.6.062l2.032-2.032v-1.059a7.809,7.809,0,0,0-2.637-.486Zm0-7.09a15,15,0,1,0,15,15,14.872,14.872,0,0,0-1.466-6.29l-2.7,2.7a11.455,11.455,0,1,1-7.244-7.244l2.7-2.7A14.866,14.866,0,0,0,8283,511.5Z" transform="translate(-8267.999 -511.503)" fill="#ccc" fill-rule="evenodd"/></svg>