<svg xmlns="http://www.w3.org/2000/svg" width="30" height="27.001" viewBox="0 0 30 27.001"><defs><style>.a{fill:#ccc;fill-rule:evenodd;}</style></defs><g transform="translate(-1079.996 -57.184)"><path class="a" d="M1080,74.047a3.362,3.362,0,0,0,3.207,3.31h10.449a.982.982,0,0,1,.724.259l6.1,6.569,1.4-6.1a.93.93,0,0,1,.982-.724h4.294a3.088,3.088,0,0,0,2.844-3.31V59.926a2.608,2.608,0,0,0-2.844-2.742H1083.2c-1.707,0-3.207,1.035-3.207,2.742V74.047Zm25.294-2.9H1084.6a1.035,1.035,0,1,1,0-2.069h20.69a1.035,1.035,0,0,1,0,2.069Zm-8.276-6.207H1084.6a1.035,1.035,0,1,1,0-2.069h12.414a1.035,1.035,0,0,1,0,2.069Z"/><path class="a" d="M1093.766,77.357h8.943a.926.926,0,0,1,.149,0h4.294a3.088,3.088,0,0,0,2.844-3.31V59.926a2.608,2.608,0,0,0-2.844-2.742H1083.2c-1.707,0-3.207,1.035-3.207,2.742V74.047a3.362,3.362,0,0,0,3.207,3.31h10.449a1.085,1.085,0,0,1,.114,0Zm11.524-6.207H1084.6a1.035,1.035,0,1,1,0-2.069h20.69a1.035,1.035,0,0,1,0,2.069Zm-8.276-6.207H1084.6a1.035,1.035,0,1,1,0-2.069h12.414a1.035,1.035,0,0,1,0,2.069Z"/></g></svg>