<svg xmlns="http://www.w3.org/2000/svg" width="39.28" height="30.001" viewBox="0 0 39.28 30.001"><defs><style>.a{fill:#fff;fill-rule:evenodd;}</style></defs><path class="a" d="M1277.858,870v-19.22A10.793,10.793,0,0,1,1288.638,840h17.717a10.8,10.8,0,0,1,10.783,10.781v3.315a10.793,10.793,0,0,1-10.781,10.78h-17.469L1277.858,870Zm10.78-27.6a8.387,8.387,0,0,0-8.377,8.377v15.453l8.1-3.762h18a8.387,8.387,0,0,0,8.378-8.377v-3.315a8.389,8.389,0,0,0-8.38-8.377h-17.717Zm.793,8.194a2.285,2.285,0,1,0,2.286,2.286,2.285,2.285,0,0,0-2.286-2.286Zm16.133,0a2.285,2.285,0,1,0,2.285,2.286,2.285,2.285,0,0,0-2.285-2.286Zm-8.068,0a2.285,2.285,0,1,0,2.285,2.286A2.285,2.285,0,0,0,1297.5,850.6Z" transform="translate(-1277.858 -839.998)"/></svg>