<svg xmlns="http://www.w3.org/2000/svg" width="29.999" height="30.001" viewBox="0 0 29.999 30.001"><defs><style>.a{fill:#4d4d4d;fill-rule:evenodd;}</style></defs><path class="a" d="M71.562,232.5H62.187A2.19,2.19,0,0,1,60,230.312v-5.625a2.189,2.189,0,0,1,2.187-2.187h9.375a2.189,2.189,0,0,1,2.187,2.187v5.625a2.19,2.19,0,0,1-2.187,2.188Zm16.249,0H78.437a2.19,2.19,0,0,1-2.188-2.188V217.187A2.19,2.19,0,0,1,78.437,215h9.374A2.19,2.19,0,0,1,90,217.187v13.125a2.19,2.19,0,0,1-2.188,2.188Zm0-20H78.437a2.19,2.19,0,0,1-2.188-2.188v-5.625a2.19,2.19,0,0,1,2.188-2.188h9.374A2.19,2.19,0,0,1,90,204.687v5.625a2.19,2.19,0,0,1-2.188,2.188ZM71.562,220H62.187A2.19,2.19,0,0,1,60,217.812V204.687a2.19,2.19,0,0,1,2.187-2.188h9.375a2.19,2.19,0,0,1,2.187,2.188v13.125A2.19,2.19,0,0,1,71.562,220Z" transform="translate(-60 -202.499)"/></svg>