<svg xmlns="http://www.w3.org/2000/svg" width="384.288" height="227.999" viewBox="0 0 384.288 227.999"><defs><style>.a{fill:#ebf3fa;}.a,.aa,.ac,.ad,.ae,.af,.ag,.ah,.ai,.aj,.ak,.al,.am,.b,.c,.d,.e,.f,.h,.i,.j,.k,.l,.m,.n,.p,.q,.s,.u,.w,.x,.y,.z{fill-rule:evenodd;}.b{fill:#cde0fb;}.c{fill:#dfebfd;}.d,.v{fill:#f99746;}.e{fill:#aec3ff;}.f{fill:#fff7f0;}.g,.p{fill:#f9dec7;}.h{fill:#ffb27d;}.i{fill:#233862;}.j,.o{fill:#2b478b;}.k{fill:#ed975d;}.l{fill:#95b3ef;}.m{fill:#ed7d2b;}.n{fill:#fff;}.q{fill:#1b3770;}.r{fill:#e8c2a3;}.s{fill:#f78248;}.t{fill:#699dee;}.u{fill:#4b87dd;}.w{fill:#f9ddbf;}.x{fill:#1f4075;}.y{fill:#ef7e29;}.z{fill:#ed985f;}.aa{fill:#2c3a64;}.ab,.ac{fill:#ea642f;}.ad{fill:#ef873a;}.ae{fill:#a6c7ed;}.af{fill:#e3f0ff;}.ag{fill:#1c3d72;}.ah{fill:#fca56b;}.ai{fill:#163560;}.aj{fill:#1f4d84;}.ak{fill:#d9e3f5;}.al{fill:#d6d6e0;}.am{fill:#698ebf;}</style></defs><g transform="translate(-997.604 -228)"><path class="a" d="M1024.464,456s-40.589-11.441-21.977-63.839,54.016-29.793,43.786-75.618c-13.491-60.428,43.635-101.521,106.439-84.783s45.971,35.339,119.777,16.6c89.976-22.839,97.564,72.18,76.7,103.741S1406.147,388.219,1374,456Z"/><path class="b" d="M1308.185,337.13s10.4-21.2,16.218-19.322S1308.185,337.13,1308.185,337.13Z"/><path class="b" d="M1300.707,346.723s24.913-24.418,34.594-19.965-5.9,9.228-11.845,10.529S1300.707,346.723,1300.707,346.723Z"/><path class="b" d="M1363.137,438.77c8.9-5.847.447-21.328.447-21.328s-20.758-5.588-22.234-8.709,18.683,1.311,18.683,1.311c-1.459-6.507-14.459-20.046-14.459-20.046s-19.606,7.552-20.264,4.164,17.7-5.8,17.7-5.8c-3.831-5.5-12.821-8.867-12.821-8.867-13.932-3.319-17.475,14.742-17.475,14.742a34.154,34.154,0,0,1-16.188.8h0a24.755,24.755,0,0,0-4.593-.648l.545,1.665c.491-.011.973,0,1.441.027h.008l.021,0c.3.03.712.073,1.227.131h0c1.164.182,2.009.284,2.613.327h0c3.625.5,8.415,1.36,9.749,2.544a3.465,3.465,0,0,1,.646-.607c-.206.194-.42.4-.646.607-5.171,4.849-1.521,19.426,2.709,26.826s5.334,3.21,7.564-2.253-1.658-14.1-1.1-17.214,3.248.286,4.576,5.71-3.1,9.8-1.108,18.616,20.2,10.053,20.2,10.053c-3.765-5.3-3.98-16.948-2.077-18.02s6.832,14.659,8.243,16.9S1354.24,444.616,1363.137,438.77Z"/><path class="c" d="M1082.082,360.882s-13.118-26.744-20.454-24.37S1082.082,360.882,1082.082,360.882Z"/><path class="c" d="M1091.515,372.983s-31.422-30.8-43.632-25.183,7.443,11.64,14.939,13.28S1091.515,372.983,1091.515,372.983Z"/><path class="b" d="M1032.273,390.664c.162-9.358,15.634-10.351,15.634-10.351s13.906,12.8,16.918,12.423-9.753-13.261-9.753-13.261c5.519-1.976,21.686,1.319,21.686,1.319s3.6,18.115,6.428,17.013-4.006-15.876-4.006-15.876c5.888.261,12.61,5.358,12.61,5.358,9.012,8.79-2.74,19.908-2.74,19.908a30.027,30.027,0,0,0,7.012,12.4h0a21.8,21.8,0,0,1,2.639,3.108l-1.493.376c-.222-.368-.454-.722-.7-1.056l-.005-.005-.01-.015c-.16-.205-.39-.5-.674-.849v0h0c-.681-.778-1.155-1.359-1.47-1.786l0,0c-2.074-2.459-20.187,4.209-27.672,4.545s-4.89-2.453-1.88-6.678,11.256-5.393,13.306-7.269-1.74-2.279-6.392-.717-5.827,6.907-13.308,9.571-16.958-10.279-16.958-10.279c5.707.307,14.459-5.007,14.364-6.924s-14.1,1.812-16.429,1.817S1032.112,400.022,1032.273,390.664Z"/><path class="d" d="M1189.585,455.325H1079.1a4.351,4.351,0,0,1-4.346-4.358V303.356A4.352,4.352,0,0,1,1079.26,299l114.67,5.289V450.967A4.351,4.351,0,0,1,1189.585,455.325Z"/><path class="d" d="M1198.277,455.325h110.485a4.352,4.352,0,0,0,4.349-4.358V303.356A4.353,4.353,0,0,0,1308.6,299L1193.93,304.29V450.967A4.352,4.352,0,0,0,1198.277,455.325Z"/><path class="e" d="M1083.118,305.4l-3.583,2.911a2.186,2.186,0,0,0-.8,1.7V453.118a2.144,2.144,0,0,0,2.119,2.169h8.919a2.148,2.148,0,0,0,2.116-2.3Z"/><path class="e" d="M1304.961,305.4l3.584,2.911a2.186,2.186,0,0,1,.8,1.7V453.118a2.145,2.145,0,0,1-2.12,2.169h-8.919a2.15,2.15,0,0,1-2.116-2.3Z"/><path class="f" d="M1189.842,455.325H1085.887a4.151,4.151,0,0,1-4.089-4.21V308.5a4.145,4.145,0,0,1,4.242-4.207l90.739,3.506a18.114,18.114,0,0,1,17.151,18.337V451.115A4.15,4.15,0,0,1,1189.842,455.325Z"/><path class="f" d="M1197.683,455.325h104.625a3.808,3.808,0,0,0,3.754-3.863V308.14a3.8,3.8,0,0,0-3.894-3.861l-93.012,3.6a16.082,16.082,0,0,0-15.226,16.278v127.31A3.809,3.809,0,0,0,1197.683,455.325Z"/><rect class="g" width="0.564" height="92.603" transform="translate(1193.649 332.676)"/><path class="h" d="M1248.336,323.431a.748.748,0,0,1,.128.8l0,0a4.932,4.932,0,0,1-1.579,1.707c-.094.076-.179.145-.252.208l-.057.051c-.016.012-.029.026-.044.039-.692.63-.434.777-1.682,2.056-1.42,1.458-2.392,1.478-2.667,1.342-.233-.115.248-.891.78-1.762l.078-.127c.071-.116.14-.233.212-.35.623-1.049.469-1.544.334-3.112-.111-1.274-1.931-7.129-1.931-7.129l2.706-.446s.782,4.657,1.673,5.379c.478.386,1.014.394,1.474.68.031.02.064.041.094.062A3.5,3.5,0,0,1,1248.336,323.431Z"/><path class="i" d="M1248.336,323.431a.748.748,0,0,1,.128.8l0,0a5.724,5.724,0,0,1-1.58,1.7c-.094.077-.178.147-.251.213l-.057.051c-.016.012-.029.026-.044.039-.692.63-.434.777-1.682,2.056-1.42,1.458-2.392,1.478-2.667,1.342-.233-.115.248-.891.78-1.762a6.012,6.012,0,0,0,2.527-1.835c.858-1.078,1.435-2.467,2.019-3.27.031.02.064.041.094.062A3.5,3.5,0,0,1,1248.336,323.431Z"/><path class="h" d="M1226.55,321.589c-.174.833-1.363.686-2.689.352s-1.014.054-2.9-.169-2.457-.932-2.514-1.213c-.05-.25.885-.332,1.889-.44l.38-.043a8.179,8.179,0,0,0,3-1.451,12.008,12.008,0,0,0,2.448-2.866l2.592.224s-1.376,2.058-1.908,2.953a3.119,3.119,0,0,0-.267,1.766A3.385,3.385,0,0,1,1226.55,321.589Z"/><path class="i" d="M1223.861,321.941c-1.327-.334-1.014.054-2.9-.169s-2.457-.932-2.514-1.213c-.05-.25.885-.332,1.889-.44l.009.019a5.331,5.331,0,0,0,2.7.861c1.283.04,2.645-.318,3.531-.3a3.385,3.385,0,0,1-.026.887C1226.376,322.422,1225.187,322.275,1223.861,321.941Z"/><path class="i" d="M1245.406,319.235s-.18.118-.451.267a6,6,0,0,1-1.182.514,4.76,4.76,0,0,1-1.216.158c-.281,0-.466-.017-.466-.017l-3.106-8.542-.561-1.544-.6-1.644-.207-.572-1.012-2.782s2.472-6.338,4.993-3.317a6.092,6.092,0,0,1,.863,1.562c.184.448.359.953.526,1.5.124.412.245.846.361,1.3.314,1.23.593,2.589.836,3.954C1245,314.627,1245.406,319.235,1245.406,319.235Z"/><path class="j" d="M1262.1,305.785l-12.594.529a26.531,26.531,0,0,1-6.671-2.814l-.369-.182a7.369,7.369,0,0,0-1.064-.483c-.958-.2-1.451,1.361-2.263,3.282-.167.391-.344.8-.542,1.2a6.208,6.208,0,0,1-.768,1.105c-.067.08-.135.163-.207.247-2.788,3.256-9.964,9.319-9.964,9.319s-.085,0-.221,0a7.218,7.218,0,0,1-1.885-.228,2.863,2.863,0,0,1-.611-.317,1.4,1.4,0,0,1-.291-.261s8.587-16.789,13.033-21.363h0c.064-.067.127-.13.191-.191a3.606,3.606,0,0,1,1.275-.9c1.514-.477,11.313.055,11.313.055l.313-.509.524-.037.09-.006.435-.032h0l.6-.042.9-.063,2.421-.173.389-.027,4.477-.318s.2.46.481,1.224c.108.3.225.641.346,1.022C1262.235,298.323,1263.27,302.82,1262.1,305.785Z"/><path class="i" d="M1264.962,276.887c-2.237-1.91-3.834-2.382-4.056-5.406-.12-1.642-2.324-7.072-6.051-6.6a5.594,5.594,0,0,1-.94.055,3.48,3.48,0,0,0-1.9.476c-1.794,1.05-5.1,10.766-2.871,14.18a2.475,2.475,0,0,0,1.777,1.143l.287.161h0c.4.226.842.473,1.307.737,2.634,1.485,6.083,3.449,7.85,4.442h0c.108.06.207.117.3.169.2.115.377.211.514.286.206.113.328.176.337.176a7.643,7.643,0,0,0,1.092.308,4.168,4.168,0,0,0,3-.278,4.738,4.738,0,0,0,.949-.822C1268.357,283.912,1268.829,280.187,1264.962,276.887Z"/><path class="h" d="M1253.872,279.117a4.622,4.622,0,0,0,2.884.109,5.134,5.134,0,0,0,1.92-2.269c-.5-.027-1.04-.465-1.44-3.321l-.213.075-3.568,1.256s.249,1.144.409,2.232C1254,278.114,1254.067,278.989,1253.872,279.117Z"/><path class="k" d="M1253.455,274.967s.151.8.363,1.947a4.153,4.153,0,0,0,3.2-3.2Z"/><path class="h" d="M1252.917,276.1s4.875-.62,4.442-3.65-.094-5.152-3.225-4.884-3.57,1.51-3.672,2.556S1251.637,276.18,1252.917,276.1Z"/><path class="i" d="M1250.651,268.461s3.1,2.709,5.219,2.941,2.928-.443,2.928-.443a8.3,8.3,0,0,1-1.984-2.728,1.491,1.491,0,0,0-1.224-.888C1254.077,267.2,1251.207,267.122,1250.651,268.461Z"/><path class="i" d="M1252.6,268.234a7.673,7.673,0,0,0-1.385,1.747,5.917,5.917,0,0,0-.182,3.134s-1.6-3.172-.671-4.7A1.3,1.3,0,0,1,1252.6,268.234Z"/><path class="e" d="M1249.719,286.264c.078,9.862-.014,7.8,1.058,8.744a4.15,4.15,0,0,0,1.949.437c3.021.222,8.341-.239,8.547-.8.711-1.929.223-2.533.826-5.489.062-.314.14-.655.23-1.025.5-2.029.977-2.718-.721-6-1.54-2.97-3.145-5.383-3.291-5.3-4.135,2.415-4.453.359-4.453.359S1249.681,281.454,1249.719,286.264Z"/><path class="j" d="M1245.406,319.235s-.18.118-.451.267a6,6,0,0,1-1.182.514,4.76,4.76,0,0,1-1.216.158c-.281,0-.466-.017-.466-.017l-3.106-8.542.91-1.544,2.33-3.954.764-1.3c.124.412.245.846.361,1.3.314,1.23.593,2.589.836,3.954C1245,314.627,1245.406,319.235,1245.406,319.235Z"/><path class="e" d="M1253.864,277.2s-4.243.69-4.753,2.51-3.514,12.526-3.514,12.526,2.15.4,3.153-.586,3.528-9.208,3.528-9.208Z"/><path class="l" d="M1252.726,295.445c3.021.222,8.341-.239,8.547-.8.711-1.929.223-2.533.826-5.489l-1.43-4.117s.208,4.575-1.148,5.768-5.538,2.283-6.2,3.283A3.668,3.668,0,0,0,1252.726,295.445Z"/><path class="h" d="M1256.2,293.545s-2.978-.684-3.46-.423a6.989,6.989,0,0,0-1.817,1.552c-.149.334,1.074-.248,1.471-.351a3.528,3.528,0,0,1,1.265.286,4.211,4.211,0,0,0,2.268.244Z"/><path class="e" d="M1258.32,276.84s4,.275,5.375,2.218c1.933,2.736,5.724,14.365,3.494,15.9-2.512,1.725-11.378.376-11.378.376a3.612,3.612,0,0,1,.13-2.048c.416-.664,7.1-1.7,7.412-2s-3.811-6.037-3.8-6.961S1258.32,276.84,1258.32,276.84Z"/><path class="h" d="M1252.592,293.951a5.8,5.8,0,0,1-.836.9.614.614,0,0,1-.339.07l.427-.756Z"/><path class="h" d="M1252.743,293.122l-1.824.87a.324.324,0,0,0,.3.118,4.348,4.348,0,0,0,.789-.211Z"/><path class="d" d="M1252.145,295.7l-14.375-.1-4.248-10.783,14.353.1Z"/><path class="m" d="M1237.6,295.177l18.983.134,0,.419-18.813-.133Z"/><path class="n" d="M1241.436,290.247a.5.5,0,0,1,.494-.681.982.982,0,0,1,.876.69.5.5,0,0,1-.494.682A.983.983,0,0,1,1241.436,290.247Z"/><path class="o" d="M9.663,0h76.73a9.664,9.664,0,0,1,9.664,9.664v.4a9.664,9.664,0,0,1-9.664,9.664H9.663A9.663,9.663,0,0,1,0,10.068v-.4A9.663,9.663,0,0,1,9.663,0Z" transform="translate(1086.951 435.5)"/><path class="p" d="M1140.1,442.741l-.068,4.311a6.907,6.907,0,0,0,6.8,7.018l51,.814.015-.858a8.79,8.79,0,0,1-4.738-7.944l.024-1.517a8.789,8.789,0,0,1,4.988-7.789l0-.018-51-.814A6.91,6.91,0,0,0,1140.1,442.741Z"/><path class="q" d="M1199.16,455.231h-53.726c-3.465,0-6.179-4.337-6.179-9.872s2.714-9.871,6.179-9.871h53.726a.808.808,0,0,1,0,1.616h-53.726c-2.474,0-4.565,3.78-4.565,8.255s2.091,8.256,4.565,8.256h53.726a.808.808,0,0,1,0,1.616Z"/><rect class="r" width="46.202" height="0.128" transform="translate(1147.832 440.743)"/><rect class="r" width="17.539" height="0.116" transform="translate(1175.839 442.546)"/><rect class="r" width="30.598" height="0.117" transform="translate(1162.78 448.672)"/><path class="s" d="M1153.569,440.807a5.019,5.019,0,0,1,2.653,4.342,23.865,23.865,0,0,1,0,5.133l-2.862-1.363-2.889,1.363v-5.236s-.106-4.239-4.049-4.239Z"/><path class="t" d="M6.325,0H65.362a6.326,6.326,0,0,1,6.326,6.326v2.2a6.326,6.326,0,0,1-6.326,6.326H6.326A6.326,6.326,0,0,1,0,8.525v-2.2A6.325,6.325,0,0,1,6.325,0Z" transform="translate(1084.136 420.649)"/><path class="p" d="M1123.8,426.092l-.052,3.241a5.178,5.178,0,0,0,5.073,5.275l38.059.611.011-.646a6.61,6.61,0,0,1-3.536-5.97l.018-1.141a6.612,6.612,0,0,1,3.722-5.855l0-.012-38.059-.612A5.173,5.173,0,0,0,1123.8,426.092Z"/><path class="u" d="M1167.878,435.48h-40.1c-2.586,0-4.613-3.259-4.613-7.42s2.027-7.421,4.613-7.421h40.1a.607.607,0,0,1,0,1.214h-40.1c-1.846,0-3.406,2.842-3.406,6.207s1.56,6.205,3.406,6.205h40.1a.608.608,0,0,1,0,1.215Z"/><rect class="r" width="28.951" height="0.087" transform="translate(1135.102 424.595)"/><rect class="r" width="13.089" height="0.087" transform="translate(1150.474 425.945)"/><rect class="r" width="22.834" height="0.087" transform="translate(1140.728 430.55)"/><path class="h" d="M1292.8,408.336a14.648,14.648,0,0,1,.673,2.79,10.088,10.088,0,0,1-.857,2.75c-.331.455-.494-1.852-.757-2.2s-.053.868-.238.981-.568-.894-.735-1.249.405-1.663.408-2.576S1292.8,408.336,1292.8,408.336Z"/><path class="i" d="M1275.451,390.288a3.223,3.223,0,0,1,4.858-3.034c.048.027.093.055.137.084,3.346,2.154,10.565,12.2,11.059,13.207s1.965,9.013,1.965,9.013-1.813.664-2.658-.024c0,0-2.938-7.6-3.376-7.974s-11.753-6.731-11.848-9.111C1275.561,391.818,1275.511,391.062,1275.451,390.288Z"/><rect class="v" width="15.053" height="2.993" transform="translate(1246.316 391.036) rotate(-19.194)"/><path class="w" d="M1243.5,393.6l3.8.262-.984-2.827Z"/><path class="w" d="M1262.511,386.448l.311.894a1.055,1.055,0,0,1-.648,1.342l-.658.229-.984-2.826.715-.249A.992.992,0,0,1,1262.511,386.448Z"/><path class="x" d="M1295.649,449.1s1.348,1.23,1.087,2.106-1.483,1.457-1.646,2.525-.822,1.652-1.414,1.652h-2.823s-.437-.752.617-.979,1.449-1.482,1.384-2.649a20.21,20.21,0,0,1,.1-2.721l2.236-.517Z"/><path class="x" d="M1279.1,452.28s.241,2.8-.352,3.093l-7.578-.016s0-.874,1.217-1.069,3.355-.906,3.718-2.493S1279.1,452.28,1279.1,452.28Z"/><path class="d" d="M1272.706,412.711s.4,4.91.87,10.813c.637,8.017,1.4,17.865,1.479,19.732.131,3.24.658,8.421.658,8.421a4.187,4.187,0,0,0,3.751.713,83.682,83.682,0,0,0,2.867-15.226c.009-.129.018-.257.03-.386.592-7.969,1.511-24.748,1.511-24.748Z"/><path class="y" d="M1272.706,412.711s.4,4.91.87,10.813l8.755,13.64c.009-.129.018-.257.03-.386.592-7.969,1.511-24.748,1.511-24.748Z"/><path class="d" d="M1274.531,413.294s7.2,17.782,11.94,26.139,6.216,10.69,6.216,10.69,2.715-1.07,2.962-1.8c0,0-1.813-16.133-4.983-20.066-1.792-2.222-3.9-8.891-4-11.224s-.64-6.947-.64-6.947Z"/><path class="h" d="M1280.741,386.618s-4.826,2.448-7.653,1.632a6.633,6.633,0,0,1,1.872-1.56c-.107-.562-.194-1.049-.247-1.464a13.331,13.331,0,0,1-.146-1.5l1.852-1.517,1.753-1.45A7.181,7.181,0,0,0,1280.741,386.618Z"/><path class="j" d="M1285.537,411.493a19.848,19.848,0,0,1-5.954,2.564c-2.545.6-5.677.427-6.725.586a.428.428,0,0,1-.3-.076c-.084-.043-.545-3.15-1.009-7.07-.022-.158-.042-.317-.051-.477l-.006-.053c-.18-1.533-.338-3.143-.475-4.757-.112-1.256-.2-2.5-.267-3.665-.081-1.459-.113-2.8-.081-3.9.015-.5.044-.957.089-1.351a9.609,9.609,0,0,1,2.4-5.145l.854-.971a4.678,4.678,0,0,0,2.953-.754c1.042-.686,2.17-1.5,2.382-1.375,1.6.873,2.893,3.213,3.822,6.205a34.107,34.107,0,0,1,1.206,5.744c.083.643.154,1.3.208,1.957.012.121.021.243.03.362.125,1.793.33,3.474.557,4.974.306,2.024.654,3.72.9,4.914.122.608.217,1.077.273,1.414C1286.385,410.909,1285.8,411.33,1285.537,411.493Z"/><path class="z" d="M1278.234,382.282a6.457,6.457,0,0,1-3.521,2.944,13.331,13.331,0,0,1-.146-1.5l1.852-1.517Z"/><path class="h" d="M1273.707,383.681s4.664.667,5.043-2.2,1.238-4.711-1.724-5.259-3.686.472-4.049,1.4S1272.5,383.432,1273.707,383.681Z"/><path class="aa" d="M1280.33,375.815c.042-.049.137-.09.354-.107a.867.867,0,0,0-.407-.105,1.092,1.092,0,0,0-.745-.95.648.648,0,0,1,.325.463c-.613-.605-1.908-1.029-5.466-.677-4.687.464-3.081,3.441-2.465,3.786s2.126-.666,3.26-.6,1.381,1.7,1.771,1.917.23-.177.744-.423.584.615.444,1.179.59,1.287.59,1.287l.7-.792c.706-.791,1.322-4.1.979-4.793Z"/><path class="i" d="M1278.848,394.9a21.093,21.093,0,0,1-8.1,3.648c-.081-1.459-.113-2.8-.081-3.9Z"/><path class="h" d="M1254.7,391.037c-.062-.067-.864-2.748-2.251-2.552-.905.127-2.383.65-1.991,1.843.156.468,2.912,2.083,2.912,2.083Z"/><path class="j" d="M1279.336,389.116a3.225,3.225,0,0,1-.339,5.72c-.048.022-.1.042-.149.061-3.692,1.482-14.678,1.646-17.171,1.373-2.7-.3-8.486-3.618-8.486-3.618s.509-1.861,1.56-2.153a64.293,64.293,0,0,0,8.454,1.865c1.485.085,12.294-5.686,14.291-4.387C1278.023,388.321,1278.669,388.718,1279.336,389.116Z"/><path class="p" d="M1225.613,442.2l-24.993,1.23V418.441l24.993-1.228Z"/><path class="f" d="M1202.5,440.487l7.382-13.673,5.429,7.138,2.711-3.1,5.744,8.587Z"/><path class="f" d="M1213.4,424.731a2.028,2.028,0,0,1,1.91-2,1.8,1.8,0,0,1,1.911,1.817,2.03,2.03,0,0,1-1.911,2.005A1.8,1.8,0,0,1,1213.4,424.731Z"/><path class="p" d="M1299.882,346.64l-36.005,1.769V312.4l36.005-1.77Z"/><path class="f" d="M1266.58,344.163l10.636-19.7,7.821,10.282,3.906-4.46,8.276,12.37Z"/><path class="f" d="M1282.283,321.464a2.922,2.922,0,0,1,2.754-2.887,2.6,2.6,0,0,1,2.753,2.617,2.921,2.921,0,0,1-2.753,2.887A2.6,2.6,0,0,1,1282.283,321.464Z"/><path class="d" d="M1235.829,373.806l-35.209,1.73v-2.051l35.209-1.73Z"/><path class="p" d="M1219.5,378.759l-18.877.928v-1.026l18.877-.926Z"/><path class="p" d="M1213.964,382.443l-13.344.656v-1.025l13.344-.656Z"/><path class="p" d="M1229.9,381.659l-13.343.657v-1.025l13.343-.656Z"/><path class="p" d="M1248.057,380.769l-16.259.8v-1.024l16.259-.8Z"/><path class="p" d="M1212.2,385.871l-11.584.57v-1.026l11.584-.569Z"/><path class="p" d="M1226.038,385.191l-11.583.569v-1.025l11.583-.569Z"/><path class="p" d="M1241.8,384.417l-14.115.694v-1.026l14.115-.693Z"/><path class="d" d="M1235.829,350.663l-35.209,1.73v-2.051l35.209-1.731Z"/><path class="p" d="M1219.5,355.617l-18.877.928v-1.026l18.877-.928Z"/><path class="p" d="M1242.036,354.509l-18.875.928v-1.026l18.875-.927Z"/><path class="p" d="M1213.964,359.3l-13.344.656V358.93l13.344-.655Z"/><path class="p" d="M1229.9,358.517l-13.343.656v-1.026l13.343-.655Z"/><path class="p" d="M1248.057,357.624l-16.259.8V357.4l16.259-.8Z"/><path class="p" d="M1212.2,362.729l-11.584.569v-1.025l11.584-.569Z"/><path class="p" d="M1226.038,362.049l-11.583.569v-1.025l11.583-.569Z"/><path class="p" d="M1241.8,361.274l-14.115.693v-1.025l14.115-.693Z"/><path class="d" d="M1288.442,353.517l-24.769,1.217v-1.443l24.769-1.217Z"/><path class="p" d="M1276.952,357l-13.278.652v-.722l13.278-.652Z"/><path class="p" d="M1292.809,356.223l-13.28.652v-.722l13.28-.652Z"/><path class="p" d="M1273.061,359.592l-9.387.463v-.722l9.387-.461Z"/><path class="p" d="M1284.269,359.043l-9.386.461v-.722l9.386-.461Z"/><path class="p" d="M1297.045,358.415l-11.437.562v-.722l11.437-.562Z"/><path class="p" d="M1271.822,362.005l-8.149.4v-.72l8.149-.4Z"/><path class="p" d="M1281.554,361.526l-8.148.4v-.722l8.148-.4Z"/><path class="p" d="M1292.646,360.982l-9.931.487v-.72l9.931-.489Z"/><path class="d" d="M1235.829,397.947l-35.209,1.731v-2.051l35.209-1.73Z"/><path class="p" d="M1219.5,402.9l-18.877.928V402.8l18.877-.928Z"/><path class="p" d="M1242.036,401.793l-18.875.928V401.7l18.875-.928Z"/><path class="p" d="M1213.964,406.585l-13.344.657v-1.025l13.344-.657Z"/><path class="p" d="M1229.9,405.8l-13.343.655v-1.025l13.343-.657Z"/><path class="p" d="M1248.057,404.91l-16.259.8v-1.025l16.259-.8Z"/><path class="p" d="M1212.2,410.014l-11.584.569v-1.026l11.584-.569Z"/><path class="p" d="M1226.038,409.333l-11.583.571v-1.026l11.583-.569Z"/><path class="p" d="M1241.8,408.56l-14.115.693v-1.025l14.115-.695Z"/><path class="d" d="M1259.255,430.107l-27.2,1.336v-2.051l27.2-1.336Z"/><path class="p" d="M1246.638,434.878l-14.579.716v-1.025l14.579-.716Z"/><path class="p" d="M1264.049,434.022l-14.579.717v-1.025l14.579-.716Z"/><path class="p" d="M1242.365,438.5l-10.306.506v-1.025l10.306-.506Z"/><path class="p" d="M1254.673,437.9l-10.307.506v-1.025l10.307-.508Z"/><path class="p" d="M1268.7,437.206l-12.558.617V436.8l12.558-.617Z"/><path class="p" d="M1241.006,441.909l-8.947.44v-1.026l8.947-.44Z"/><path class="p" d="M1251.692,441.383l-8.948.439V440.8l8.948-.44Z"/><path class="p" d="M1263.869,440.784l-10.9.536V440.3l10.9-.536Z"/><path class="p" d="M1181.024,358.95l-39.237-1.425V318.289l39.237,1.425Z"/><path class="f" d="M1144.736,353.15l11.589-20.474,8.522,11.934,4.255-4.5,9.017,14.249Z"/><path class="f" d="M1161.848,329.877a2.871,2.871,0,0,1,3-2.89,3.135,3.135,0,0,1,3,3.108,2.87,2.87,0,0,1-3,2.89A3.133,3.133,0,0,1,1161.848,329.877Z"/><path class="d" d="M1176.337,374.422l-35.208-1.278v-2.052l35.208,1.279Z"/><path class="p" d="M1160,377.98l-18.875-.685v-1.025l18.875.685Z"/><path class="p" d="M1154.471,381.191l-13.342-.484v-1.025l13.342.484Z"/><path class="p" d="M1170.406,381.77l-13.344-.485v-1.025l13.344.483Z"/><path class="p" d="M1188.564,382.429l-16.257-.591v-1.025l16.257.59Z"/><path class="p" d="M1152.712,384.47l-11.584-.421v-1.026l11.584.422Z"/><path class="p" d="M1166.545,384.972l-11.583-.42v-1.026l11.583.42Z"/><path class="p" d="M1182.311,385.544l-14.115-.512v-1.026l14.115.513Z"/><path class="d" d="M1176.337,398.564l-35.208-1.278v-2.051l35.208,1.279Z"/><path class="p" d="M1160,402.122l-18.875-.685v-1.025L1160,401.1Z"/><path class="p" d="M1182.544,402.941l-18.877-.685v-1.026l18.877.685Z"/><path class="p" d="M1154.471,405.333l-13.342-.485v-1.025l13.342.484Z"/><path class="p" d="M1170.406,405.912l-13.344-.484V404.4l13.344.484Z"/><path class="p" d="M1188.564,406.571l-16.257-.591v-1.025l16.257.591Z"/><path class="p" d="M1152.712,408.611l-11.584-.42v-1.026l11.584.422Z"/><path class="p" d="M1166.545,409.113l-11.583-.42v-1.026l11.583.421Z"/><path class="p" d="M1182.311,409.685l-14.115-.512v-1.026l14.115.513Z"/><path class="d" d="M1126.309,314.489l-35.209-1.278V311.16l35.209,1.278Z"/><path class="p" d="M1109.975,318.047l-18.875-.685v-1.025l18.875.686Z"/><path class="p" d="M1132.516,318.866l-18.875-.685v-1.025l18.875.685Z"/><path class="p" d="M1104.443,321.258l-13.343-.484v-1.025l13.343.484Z"/><path class="p" d="M1120.377,321.837l-13.343-.484v-1.026l13.343.485Z"/><path class="p" d="M1138.537,322.5l-16.259-.59V320.88l16.259.59Z"/><path class="p" d="M1102.684,324.536l-11.584-.421V323.09l11.584.421Z"/><path class="p" d="M1116.517,325.038l-11.584-.42v-1.025l11.584.42Z"/><path class="p" d="M1132.282,325.611l-14.115-.512v-1.025l14.115.512Z"/><path class="s" d="M1037.748,450.725a4.492,4.492,0,0,0,.034.558,4.575,4.575,0,0,0,4.544,4.02h64.4a4.579,4.579,0,1,0,0-9.158h-64.4A4.579,4.579,0,0,0,1037.748,450.725Z"/><path class="s" d="M1042.659,445.316h22.08a.7.7,0,1,0,0-1.4h-22.08a.7.7,0,0,0,0,1.4Z"/><rect class="ab" width="2.393" height="0.828" transform="translate(1043.879 445.316)"/><path class="ac" d="M1038.3,452.915a4.584,4.584,0,0,0,4.023,2.388h13.641v-2.388Z"/><path class="d" d="M1119.828,449.383v2.683a3.236,3.236,0,0,1-3.237,3.237H1049.51a3.236,3.236,0,0,1-3.237-3.237v-2.683a3.236,3.236,0,0,1,3.237-3.238h67.081A3.236,3.236,0,0,1,1119.828,449.383Z"/><path class="ad" d="M1119.715,452.915a3.236,3.236,0,0,1-3.124,2.388H1049.51a3.235,3.235,0,0,1-3.124-2.388Z"/><path class="b" d="M1113.166,450.741a5.1,5.1,0,0,0,1.331,3.536c.02.019.037.037.055.056a3.25,3.25,0,0,0,2.3,1c1.358,0,4.725-2.048,6.81-3.409,1.04-.678,1.762-1.186,1.762-1.186s-.722-.508-1.762-1.186c-2.085-1.362-5.452-3.41-6.81-3.41a3.03,3.03,0,0,0-1.127.218,3.685,3.685,0,0,0-1.553,1.226,5.046,5.046,0,0,0-.932,2.24l0,.03A5.633,5.633,0,0,0,1113.166,450.741Z"/><path class="ae" d="M1113.166,450.741a5.1,5.1,0,0,0,1.331,3.536l10.326-3.552-11.589-.866A5.633,5.633,0,0,0,1113.166,450.741Z"/><path class="af" d="M1114.17,447.589l10.3,2.812-8.748-4.038A3.685,3.685,0,0,0,1114.17,447.589Z"/><path class="d" d="M1122.988,450.741a1.274,1.274,0,0,0,.672,1.186c1.04-.678,1.762-1.186,1.762-1.186s-.722-.508-1.762-1.186A1.272,1.272,0,0,0,1122.988,450.741Z"/><path class="i" d="M1093.075,455.606h0a1.188,1.188,0,0,0,1.08-.75l27.754-85.27a.561.561,0,0,0-.588-.762,1.188,1.188,0,0,0-1.079.751l-27.756,85.271A.561.561,0,0,0,1093.075,455.606Z"/><path class="i" d="M1070.706,455.475h0a1.186,1.186,0,0,0,1.08-.75l27.755-85.27a.56.56,0,0,0-.589-.76,1.186,1.186,0,0,0-1.08.751l-27.754,85.269A.56.56,0,0,0,1070.706,455.475Z"/><path class="i" d="M1094.791,381.336l22.462.131a1.121,1.121,0,0,0,1.019-.708.53.53,0,0,0-.555-.718l-22.462-.131a1.124,1.124,0,0,0-1.019.708A.53.53,0,0,0,1094.791,381.336Z"/><path class="i" d="M1089.945,396.224l22.462.131a1.12,1.12,0,0,0,1.019-.709.529.529,0,0,0-.555-.717l-22.462-.132a1.124,1.124,0,0,0-1.019.709A.53.53,0,0,0,1089.945,396.224Z"/><path class="i" d="M1085.278,410.563l22.462.131a1.126,1.126,0,0,0,1.02-.708.531.531,0,0,0-.556-.718l-22.462-.131a1.124,1.124,0,0,0-1.02.708A.531.531,0,0,0,1085.278,410.563Z"/><path class="i" d="M1080.024,426.706l22.462.131a1.122,1.122,0,0,0,1.019-.71.531.531,0,0,0-.555-.718l-22.462-.13a1.125,1.125,0,0,0-1.02.709A.531.531,0,0,0,1080.024,426.706Z"/><path class="i" d="M1074.524,443.6l22.462.131a1.125,1.125,0,0,0,1.02-.708.53.53,0,0,0-.555-.718l-22.462-.131a1.126,1.126,0,0,0-1.02.708A.53.53,0,0,0,1074.524,443.6Z"/><path class="h" d="M1116.068,350.278s.265-.6.437-.88.908-1.113,1.033-.924.625,1.451.359,1.8.018.969-1.3,1.342Z"/><path class="y" d="M1101.377,346.506s6.767,5.649,9.406,5.126a52.35,52.35,0,0,0,5.23-1.495l.634,1.62s-2.84,3.853-5.8,3.878a16.87,16.87,0,0,1-8.047-2Z"/><path class="ag" d="M1089.509,406.091s.2,3.169.809,3.213c.081.007,3.109.007,3.109.007l3.866-.023a1.253,1.253,0,0,0-1.155-1.127,5.247,5.247,0,0,1-3.706-2.485C1091.712,404.105,1089.509,406.091,1089.509,406.091Z"/><path class="j" d="M1089.285,406.31a8.072,8.072,0,0,0,2.093.393,7.713,7.713,0,0,0,1.954-.278,53.388,53.388,0,0,1,1.439-6.854c.638-2.471,1.549-5.647,2.846-9.6a129.76,129.76,0,0,0,4.775-17.9l.008-.048-.012-.006-11.023-4.841s1.362,15.038-.376,20.81a24.151,24.151,0,0,0-.631,2.765A110.824,110.824,0,0,0,1089.285,406.31Z"/><path class="i" d="M1094.771,399.571c.638-2.471,1.549-5.647,2.846-9.6a129.76,129.76,0,0,0,4.775-17.9c0-.02,0-.036,0-.054l-11.023-4.841s1.362,15.038-.376,20.81C1090.745,388.8,1094.771,399.571,1094.771,399.571Z"/><path class="ag" d="M1098.118,406.091s.2,3.169.81,3.213c.081.007,3.109.007,3.109.007l3.866-.023a1.253,1.253,0,0,0-1.155-1.127,5.247,5.247,0,0,1-3.706-2.485C1100.322,404.105,1098.118,406.091,1098.118,406.091Z"/><path class="j" d="M1104.368,367.54a156.951,156.951,0,0,1-1.543,21.708c-1.685,11.964-1.114,17.042-1.114,17.042a11.473,11.473,0,0,1-1.626.413,7.394,7.394,0,0,1-2.412-.278s-2.413-11.968-1.721-17.957-3.3-20.548-3.3-20.548Z"/><path class="h" d="M1096.551,344.739l2.152,1.411,1.96-.555a4.681,4.681,0,0,0,.459-2.35,14.675,14.675,0,0,0-.077-1.564l-2.9-1.282-1.084-.477c0,.016.085.889.1,1.016A7.405,7.405,0,0,1,1096.551,344.739Z"/><path class="d" d="M1104.417,370.249c-2.678,2.587-12.814,2.151-13.439-.7s.681-24.254,5.257-25.6c.949-.279,6.025,1.362,6.025,1.362a32.131,32.131,0,0,1,1.318,4.735c.1.516.4,5.986.619,11.1.1,2.394.191,4.71.235,6.407A18.351,18.351,0,0,1,1104.417,370.249Z"/><path class="ah" d="M1097.372,340.979c.588,1,2.655,1.867,3.75,2.266a14.675,14.675,0,0,0-.077-1.564l-2.9-1.282C1097.5,340.391,1097.109,340.534,1097.372,340.979Z"/><path class="h" d="M1102.14,341.5s-4.678,1.46-5.541-1.467-2.05-4.71.9-5.766,3.862-.11,4.388.8S1103.335,341.049,1102.14,341.5Z"/><path class="ai" d="M1101.7,334.785s-.3,3.406-1,3.258-1.48-.464-1.376.562-.685,2.787-1.7,2.783c-2.179-.009-4.546-5.6-3.949-6.658C1095.4,331.671,1104.191,331.054,1101.7,334.785Z"/><path class="y" d="M1101.015,344.027c-.06-.026-3.481-1.56-3.882-1.428s-.9,1.354-.9,1.354l6.026,1.362A3,3,0,0,0,1101.015,344.027Z"/><path class="aj" d="M1122.318,360.6l-19.18,18.059c-.377.355-.851.467-1.054.251l-.648-.688c-.2-.215-.062-.682.314-1.036l19.182-18.06c.376-.354.849-.467,1.054-.25l.646.687C1122.836,359.783,1122.695,360.25,1122.318,360.6Z"/><path class="s" d="M1111.555,370.738l-8.417,7.925c-.377.355-.851.467-1.054.251l-.648-.688c-.2-.215-.062-.682.314-1.036l8.417-7.926Z"/><path class="aj" d="M1122.207,339.909a13.849,13.849,0,1,1,.6,19.574,13.833,13.833,0,0,1-.6-19.574Zm-4.3,13.877a15.034,15.034,0,1,0,24.918-15.11c-.077-.077-.156-.153-.236-.227a15.034,15.034,0,0,0-24.682,15.337Z"/><path class="ak" d="M1132.268,363.246h.02a13.969,13.969,0,0,0,3.206-.374,13.788,13.788,0,0,0,6.883-3.987,14.168,14.168,0,0,0,1.084-1.3h0l-1.673-.061V339.319l-.007-.006a13.988,13.988,0,0,0-1.508-1.234,13.854,13.854,0,0,0-17.472,1.236c-.2.191-.4.389-.594.594a13.845,13.845,0,0,0,9.763,23.332C1132.07,363.244,1132.169,363.245,1132.268,363.246Z"/><path class="al" d="M1143.461,357.586l-1.673-.061V339.319a13.874,13.874,0,0,1,2.47,3.1l0,.008.007.011a13.75,13.75,0,0,1,1.372,3.271l0,0,.007.028a13.939,13.939,0,0,1,.42,5.052l-1.334,2.356.88.033A13.782,13.782,0,0,1,1143.461,357.586Z"/><path class="ak" d="M1145.616,353.182l-.88-.033,1.334-2.356A14.079,14.079,0,0,1,1145.616,353.182Z"/><path class="am" d="M1132.289,363.246c-.106,0-.213,0-.319-.005.106,0,.213.005.318.005a13.969,13.969,0,0,0,3.206-.374,13.788,13.788,0,0,0,6.883-3.987,14.046,14.046,0,0,0,1.084-1.3,13.782,13.782,0,0,0,2.155-4.4,14.079,14.079,0,0,0,.454-2.389,13.939,13.939,0,0,0-.42-5.052,13.845,13.845,0,0,1-13.361,17.505Zm-7.836-2.431a13.858,13.858,0,0,1-2.246-20.906c.193-.2.392-.4.594-.594-.2.191-.4.389-.594.594a13.858,13.858,0,0,0,2.246,20.906Zm21.19-15.1,0,0,0,0Zm-1.374-3.273-.007-.011.007.011Zm-.011-.019a13.874,13.874,0,0,0-2.47-3.1l-.007-.006a13.988,13.988,0,0,0-1.508-1.234,14,14,0,0,1,3.985,4.342Z"/><path class="y" d="M1104.432,367.56c-10.569-7.531-9.69-17.58-9.69-17.58,3.863,2.177,7.7,6.995,9.455,11.173C1104.3,363.547,1104.388,365.863,1104.432,367.56Z"/><path class="d" d="M1114.863,364.13a2.892,2.892,0,0,0,1.352-.834s.316.022-.054.7c-.03.058-.1.2-.151.306a.065.065,0,0,0,.056.094,6.994,6.994,0,0,1,1.691.036c.114.023.147.3.143.414a1.056,1.056,0,0,1-.223.721,3.671,3.671,0,0,1-1.336.7,4.035,4.035,0,0,1-2.066-.259l-.677-.314.21-1.257.17.035C1114.248,364.528,1114.582,364.2,1114.863,364.13Z"/><path class="d" d="M1098.022,345.315s-9.5,1.808,2.794,15.56c1.966,2.2,12.586,5.063,12.586,5.063s1.076-.916.535-1.658c0,0-7.313-5.31-8.922-6.153-.724-.381-2.809-8.477-3.989-10.425A5.315,5.315,0,0,0,1098.022,345.315Z"/><path class="h" d="M1116.325,350.445a4.808,4.808,0,0,0,.371-.907,5,5,0,0,1,.614-1.387c.064-.064.277.019.3.3a1.594,1.594,0,0,1-.153.6,6.743,6.743,0,0,0-.2,1.193C1117.111,350.719,1116.325,350.445,1116.325,350.445Z"/></g></svg>