<svg xmlns="http://www.w3.org/2000/svg" width="24" height="24.001" viewBox="0 0 24 24.001"><defs><style>.a{fill:#ebf3fa;fill-rule:evenodd;}</style></defs><path class="a" d="M81.253,330.159h-7.5a1.752,1.752,0,0,0-1.75,1.75v4.5a1.752,1.752,0,0,0,1.75,1.75h7.5a1.752,1.752,0,0,0,1.75-1.75v-4.5a1.752,1.752,0,0,0-1.75-1.75Zm13,0h-7.5a1.752,1.752,0,0,0-1.75,1.75v10.5a1.752,1.752,0,0,0,1.75,1.75h7.5a1.752,1.752,0,0,0,1.75-1.75v-10.5a1.752,1.752,0,0,0-1.75-1.75Zm0,16h-7.5a1.752,1.752,0,0,0-1.75,1.75v4.5a1.752,1.752,0,0,0,1.75,1.75h7.5A1.752,1.752,0,0,0,96,352.41v-4.5a1.752,1.752,0,0,0-1.75-1.75Zm-13-6h-7.5a1.752,1.752,0,0,0-1.75,1.75v10.5a1.752,1.752,0,0,0,1.75,1.75h7.5A1.752,1.752,0,0,0,83,352.41v-10.5A1.752,1.752,0,0,0,81.253,340.159Z" transform="translate(-72.003 -330.159)"/></svg>