<svg xmlns="http://www.w3.org/2000/svg" width="35.999" height="35.999" viewBox="0 0 35.999 35.999"><defs><style>.a{fill:#748da5;fill-rule:evenodd;}</style></defs><path class="a" d="M328.5,940.5A1.5,1.5,0,0,0,327,942v12a1.5,1.5,0,0,1-1.5,1.5h-21A1.5,1.5,0,0,1,303,954V933a1.5,1.5,0,0,1,1.5-1.5h12a1.5,1.5,0,0,0,0-3h-12A4.505,4.505,0,0,0,300,933v21a4.506,4.506,0,0,0,4.5,4.5h21A4.506,4.506,0,0,0,330,954V942a1.5,1.5,0,0,0-1.5-1.5Zm6.4-16.9h0a3.752,3.752,0,0,1,0,5.3l-2.076,2.077-5.3-5.3L329.6,923.6a3.754,3.754,0,0,1,5.3,0Zm-20.838,15.536,11.869-11.868,5.3,5.3-11.868,11.868a.756.756,0,0,1-.384.206l-5.3,1.06a.74.74,0,0,1-.147.015.749.749,0,0,1-.736-.9l1.06-5.3A.755.755,0,0,1,314.063,939.133Z" transform="translate(-299.999 -922.5)"/></svg>
