<svg xmlns="http://www.w3.org/2000/svg" width="32.009" height="30.002" viewBox="0 0 32.009 30.002"><defs><style>.a{fill:#ccc;fill-rule:evenodd;}</style></defs><path class="a" d="M71.053,372l-5.717.564-.212-2.144,5.718-.563L71.053,372Zm11.477,6.049h0L71.355,379.07l-.166,1.622,18.444,1.817,2.38-24.162-11.6-1.142,2.112,20.841Zm4.517-5.032h0L84.9,372.8l-1.221-.12-.215-2.187,3.792.373-.212,2.145Zm.423-4.288h0l-2.145-.212-2.073-.2-.216-2.186,4.644.457-.21,2.145Zm.422-4.289h0l-2.144-.212-2.927-.288-.216-2.186,5.5.541-.211,2.145Zm-11.543,2.709h0l-11.436,1.128-.21-2.146L76.137,365l.212,2.143Zm-.423-4.287h0l-11.435,1.126-.211-2.144,11.434-1.127.212,2.145Zm4.9,13.81h0l-2.382-24.162L60,354.324l2.38,24.162Z" transform="translate(-60.004 -352.507)"/></svg>