<svg xmlns="http://www.w3.org/2000/svg" width="29.999" height="23.304" viewBox="0 0 29.999 23.304"><defs><style>.a{fill:#ccc;fill-rule:evenodd;}</style></defs><path class="a" d="M309.1,703.848a5.816,5.816,0,1,0,5.475,5.806,5.654,5.654,0,0,0-5.475-5.806Zm9.083,21.7h0a8.823,8.823,0,0,0-8.81-8.27h-.547A8.826,8.826,0,0,0,300,726.1v1.048h18.2V726.1c0-.187,0-.373-.017-.557Zm3.6-9.968h0A8.228,8.228,0,0,1,330,723.8v1.75H319.945a10.6,10.6,0,0,0-4.128-7.843,8.193,8.193,0,0,1,5.509-2.125Zm-.231-10.9h-.037a4.544,4.544,0,0,0-3.333,1.507,5.185,5.185,0,0,0,.058,6.992,4.547,4.547,0,0,0,3.319,1.451h.038a4.543,4.543,0,0,0,3.332-1.507,5.094,5.094,0,0,0,1.327-3.507A4.851,4.851,0,0,0,321.55,704.679Z" transform="translate(-300 -703.848)"/></svg>