<svg xmlns="http://www.w3.org/2000/svg" width="48" height="32.896" viewBox="0 0 48 32.896"><defs><style>.a{fill:#fec335;}.a,.b,.c,.d,.e,.f,.g,.h,.i,.j{fill-rule:evenodd;}.b{fill:#ffdd2f;}.c{fill:#ffd033;}.d{fill:#faac38;}.e{fill:#e4a636;}.f{fill:#78bec0;}.g{fill:#a7772e;}.h{fill:#c98e33;}.i{fill:#e3b233;}.j{fill:#d89b35;}</style></defs><g transform="translate(-3000.002 -465.103)"><path class="a" d="M3012,486.73v5.9a2.26,2.26,0,0,0,.824,1.612,6.1,6.1,0,0,0,.525.433,9.126,9.126,0,0,0,1.35.787c.169.078.343.16.525.237a18,18,0,0,0,2.139.753c.171.051.345.1.522.154.867.232,1.807.443,2.814.623l.525.093c.825.134,1.689.257,2.589.356.174.015.348.035.522.051.6.062,1.213.108,1.84.149.173.016.347.026.524.036.783.041,1.584.067,2.4.083.174,0,.347.005.524.005H3030q1.143,0,2.25-.042c.177-.005.351-.015.525-.02.753-.036,1.491-.087,2.211-.149l.528-.047c.5-.046.984-.1,1.461-.159.177-.026.351-.047.526-.072.606-.083,1.2-.176,1.763-.279.177-.03.351-.062.522-.1.5-.092.97-.2,1.429-.308.176-.042.35-.083.521-.129.57-.144,1.108-.3,1.614-.469.181-.056.354-.118.525-.18a13.917,13.917,0,0,0,1.461-.608c.186-.088.36-.18.528-.273a6.778,6.778,0,0,0,1.122-.757,3.955,3.955,0,0,0,.528-.535,2.008,2.008,0,0,0,.486-1.247v-5.9Z"/><path class="b" d="M3012,486.732c0,2.628,8.058,4.759,18,4.759s18-2.131,18-4.759-8.058-4.759-18-4.759S3012,484.1,3012,486.732Z"/><path class="c" d="M3015.227,486.1c0,1.807,6.615,3.273,14.775,3.273s14.775-1.466,14.775-3.273-6.614-3.274-14.775-3.274S3015.227,484.291,3015.227,486.1Z"/><path class="d" d="M3044.326,486.9c-1.62-1.418-7.418-2.468-14.324-2.468s-12.7,1.05-14.324,2.468a1.107,1.107,0,0,1-.451-.8c0-1.808,6.615-3.274,14.775-3.274s14.775,1.466,14.775,3.274A1.1,1.1,0,0,1,3044.326,486.9Z"/><path class="e" d="M3030.074,498h-.447v-2.606H3030c.762,0,1.512-.016,2.25-.042h0v2.606q-1.072.039-2.178.042ZM3048,490.021v2.606a2.008,2.008,0,0,1-.486,1.247h0v-2.606a2.01,2.01,0,0,0,.486-1.247Zm-18.9,7.973v-2.606h0c-.817-.016-1.618-.042-2.4-.083v2.606h0c.783.041,1.584.067,2.4.083Zm3.674-.057h0c.753-.036,1.491-.087,2.211-.149v-2.607h0q-1.08.094-2.211.15v2.606Zm-6.6-.062v-2.606h0c-.627-.041-1.24-.088-1.84-.149v2.606h0c.6.062,1.213.108,1.84.149Zm9.338-.134h0c.5-.046.984-.1,1.461-.159v-2.607h0c-.477.057-.963.114-1.461.16v2.606Zm-11.7-.066v-2.607h0c-.9-.1-1.764-.221-2.589-.355v2.606h0c.825.134,1.689.257,2.589.356Zm13.687-.165h0c.606-.083,1.2-.176,1.763-.279v-2.606h0c-.567.1-1.157.2-1.763.278v2.607Zm-16.8-.284V494.62h0c-1.007-.18-1.947-.391-2.814-.623V496.6h0c.867.232,1.807.443,2.814.623Zm19.086-.093h0c.5-.092.97-.2,1.429-.308v-2.606h0c-.459.112-.933.216-1.429.308v2.606Zm1.95-.437h0c.57-.144,1.108-.3,1.614-.469v-2.606h0c-.506.17-1.044.325-1.614.469V496.7Zm-24.372-.247v-2.607h0a18,18,0,0,1-2.139-.751V495.7h0a18,18,0,0,0,2.139.753Zm26.511-.4h0a13.917,13.917,0,0,0,1.461-.608v-2.606h0a13.711,13.711,0,0,1-1.461.608v2.606Zm-29.175-.588v-2.606h0a9.123,9.123,0,0,1-1.35-.788v2.607h0a9.126,9.126,0,0,0,1.35.787Zm31.164-.293h0a6.778,6.778,0,0,0,1.122-.757V491.8h0a6.781,6.781,0,0,1-1.122.758v2.606Zm-33.039-.927v-2.606h0a2.26,2.26,0,0,1-.824-1.612v2.606A2.26,2.26,0,0,0,3012.827,494.239Z"/><path class="a" d="M3046.828,478.271v5.9a2.259,2.259,0,0,1-.824,1.612,5.9,5.9,0,0,1-.526.433,9.019,9.019,0,0,1-1.35.788c-.168.077-.342.16-.525.237a18.011,18.011,0,0,1-2.139.752q-.257.078-.522.154c-.866.232-1.806.443-2.814.623l-.525.093c-.824.134-1.688.258-2.588.356-.174.015-.349.036-.523.051-.6.062-1.212.108-1.839.15-.173.015-.348.026-.524.036q-1.176.061-2.4.082c-.174,0-.348.006-.524.006h-.376c-.762,0-1.511-.016-2.25-.042-.177-.005-.35-.015-.525-.021-.752-.035-1.491-.087-2.21-.149l-.529-.046c-.5-.047-.984-.1-1.46-.16-.177-.026-.351-.046-.526-.072-.606-.082-1.2-.175-1.764-.279-.176-.03-.351-.061-.522-.1-.495-.093-.969-.2-1.428-.309-.176-.041-.351-.083-.521-.129-.571-.144-1.108-.3-1.615-.468-.18-.057-.354-.119-.524-.181a13.408,13.408,0,0,1-1.461-.608c-.187-.087-.361-.18-.528-.272a6.72,6.72,0,0,1-1.122-.758,3.845,3.845,0,0,1-.528-.535,2.008,2.008,0,0,1-.487-1.247v-5.9Z"/><path class="b" d="M3046.828,478.273c0,2.629-8.058,4.759-18,4.759s-18-2.13-18-4.759,8.059-4.759,18-4.759S3046.828,475.645,3046.828,478.273Z"/><path class="c" d="M3043.6,477.64c0,1.807-6.615,3.273-14.774,3.273s-14.775-1.466-14.775-3.273,6.614-3.273,14.775-3.273S3043.6,475.832,3043.6,477.64Z"/><path class="d" d="M3014.5,478.445c1.619-1.419,7.417-2.469,14.324-2.469s12.7,1.05,14.323,2.469a1.106,1.106,0,0,0,.451-.8c0-1.808-6.615-3.273-14.774-3.273s-14.775,1.465-14.775,3.273A1.106,1.106,0,0,0,3014.5,478.445Z"/><path class="e" d="M3028.757,489.541h.447v-2.607h-.376c-.762,0-1.511-.016-2.25-.041h0V489.5q1.074.037,2.179.042Zm-17.929-7.979v2.606a2.008,2.008,0,0,0,.487,1.247h0v-2.606a2.01,2.01,0,0,1-.487-1.247Zm18.9,7.973v-2.606h0c.817-.016,1.617-.041,2.4-.083v2.607h0q-1.176.061-2.4.082Zm-3.675-.057h0c-.752-.035-1.491-.087-2.21-.149v-2.606h0c.719.062,1.458.113,2.21.15v2.605Zm6.6-.061v-2.606h0c.627-.041,1.24-.088,1.839-.15v2.606h0c-.6.062-1.212.108-1.839.15Zm-9.339-.134h0c-.5-.047-.984-.1-1.46-.16v-2.606h0c.476.056.962.113,1.46.16v2.606Zm11.7-.067V486.61h0c.9-.1,1.764-.222,2.588-.356v2.606h0c-.824.134-1.688.258-2.588.356Zm-13.687-.165h0c-.606-.082-1.2-.175-1.764-.279v-2.605h0c.567.1,1.158.2,1.764.278v2.606Zm16.8-.284v-2.606h0c1.008-.179,1.948-.391,2.814-.623v2.606h0c-.866.232-1.806.443-2.814.623Zm-19.086-.092h0c-.495-.093-.969-.2-1.428-.309V485.76h0c.459.113.933.216,1.428.308v2.607Zm-1.949-.438h0c-.571-.144-1.108-.3-1.615-.468v-2.607h0c.507.17,1.044.325,1.615.469v2.606Zm24.371-.247v-2.606h0a18.006,18.006,0,0,0,2.139-.752v2.606h0a18.011,18.011,0,0,1-2.139.752Zm-26.51-.4h0a13.408,13.408,0,0,1-1.461-.608v-2.606h0a13.4,13.4,0,0,0,1.461.608v2.606Zm29.174-.587v-2.606h0a9.1,9.1,0,0,0,1.35-.788v2.606h0a9.019,9.019,0,0,1-1.35.788Zm-31.163-.293h0a6.72,6.72,0,0,1-1.122-.758v-2.606h0a6.719,6.719,0,0,0,1.122.757v2.607ZM3046,485.78v-2.606h0a2.261,2.261,0,0,0,.824-1.612v2.606A2.259,2.259,0,0,1,3046,485.78Z"/><path class="a" d="M3009.209,469.86v5.9a2.264,2.264,0,0,0,.824,1.612,5.927,5.927,0,0,0,.526.432,9.023,9.023,0,0,0,1.35.788c.168.078.343.16.525.237a17.975,17.975,0,0,0,2.139.753c.171.051.345.1.522.154.867.232,1.807.443,2.814.623l.525.093c.825.134,1.688.257,2.589.355.174.016.348.036.522.052.6.061,1.212.108,1.839.149.174.016.348.026.524.036.784.041,1.584.067,2.4.083.174,0,.348.005.525.005h.375c.762,0,1.511-.016,2.25-.042.177-.005.351-.015.525-.02q1.13-.054,2.211-.15c.177-.014.354-.03.528-.046.5-.046.984-.1,1.461-.159.176-.026.351-.047.526-.073.6-.082,1.2-.175,1.763-.278.177-.03.351-.062.522-.1.495-.092.97-.2,1.428-.308.177-.042.351-.083.521-.129.571-.144,1.109-.3,1.615-.469.18-.056.354-.118.525-.18a13.917,13.917,0,0,0,1.461-.608c.186-.088.36-.18.528-.273a6.885,6.885,0,0,0,1.122-.757,3.928,3.928,0,0,0,.527-.535,2,2,0,0,0,.487-1.247v-5.9Z"/><path class="b" d="M3009.209,469.862c0,2.628,8.058,4.759,18,4.759s18-2.131,18-4.759-8.059-4.759-18-4.759S3009.209,467.233,3009.209,469.862Z"/><path class="c" d="M3012.434,469.229c0,1.807,6.615,3.273,14.775,3.273s14.775-1.466,14.775-3.273-6.615-3.274-14.775-3.274S3012.434,467.421,3012.434,469.229Z"/><path class="d" d="M3041.533,470.033c-1.62-1.418-7.418-2.468-14.324-2.468s-12.705,1.05-14.324,2.468a1.1,1.1,0,0,1-.451-.8c0-1.808,6.615-3.274,14.775-3.274s14.775,1.466,14.775,3.274A1.107,1.107,0,0,1,3041.533,470.033Z"/><path class="e" d="M3027.281,481.129h-.447v-2.606h.375c.762,0,1.511-.016,2.25-.042h0v2.606q-1.073.039-2.178.042Zm17.928-7.978v2.606a2,2,0,0,1-.487,1.247h0V474.4a2,2,0,0,0,.487-1.247Zm-18.9,7.973v-2.606h0c-.817-.016-1.617-.042-2.4-.083v2.606h0c.784.041,1.584.067,2.4.083Zm3.675-.057h0q1.13-.054,2.211-.15v-2.606h0q-1.08.093-2.211.15v2.606Zm-6.6-.062V478.4h0c-.627-.041-1.239-.088-1.839-.149v2.606h0c.6.061,1.212.108,1.839.149Zm9.339-.134h0c.5-.046.984-.1,1.461-.159v-2.607h0c-.477.057-.963.114-1.461.16v2.606Zm-11.7-.067V478.2h0c-.9-.1-1.764-.221-2.589-.355v2.606h0c.825.134,1.688.257,2.589.355Zm13.687-.165h0c.6-.082,1.2-.175,1.763-.278v-2.606h0c-.567.1-1.158.2-1.763.278v2.606Zm-16.8-.283V477.75h0c-1.007-.18-1.947-.391-2.814-.623v2.606h0c.867.232,1.807.443,2.814.623Zm19.086-.093h0c.495-.092.97-.2,1.428-.308v-2.606h0q-.687.168-1.428.308v2.606Zm1.949-.437h0c.571-.144,1.109-.3,1.615-.469v-2.606h0c-.506.17-1.044.325-1.615.469v2.606Zm-24.371-.247v-2.607h0a18.161,18.161,0,0,1-2.139-.751v2.6h0a17.975,17.975,0,0,0,2.139.753Zm26.511-.4h0a13.917,13.917,0,0,0,1.461-.608v-2.606h0a13.923,13.923,0,0,1-1.461.608v2.606Zm-29.175-.588v-2.606h0a9.115,9.115,0,0,1-1.35-.788V477.8h0a9.023,9.023,0,0,0,1.35.788Zm31.164-.293h0a6.885,6.885,0,0,0,1.122-.757v-2.607h0a6.823,6.823,0,0,1-1.122.758V478.3Zm-33.04-.927v-2.606h0a2.264,2.264,0,0,1-.824-1.612v2.606A2.264,2.264,0,0,0,3010.033,477.369Z"/><path class="f" d="M3007.993,494.688l-.752-2.242,6.461-15.71Z"/><path class="g" d="M3004.757,485.049l-.753-2.241,4.942-11.88Z"/><path class="h" d="M3033.4,483c0,.283-.006.562-.022.84-.012.233-.029.46-.057.687a14.18,14.18,0,0,1-.228,1.486c-.045.234-.1.46-.153.688a14.741,14.741,0,0,1-.987,2.718c-.1.233-.221.465-.34.686a14.921,14.921,0,0,1-.96,1.539,8.346,8.346,0,0,1-.516.686,12.761,12.761,0,0,1-1.351,1.487c-.25.244-.5.472-.766.687a14.437,14.437,0,0,1-1.97,1.4,12.744,12.744,0,0,1-1.293.687,14.874,14.874,0,0,1-6.351,1.413H3015V468h3.406a14.9,14.9,0,0,1,6.833,1.652,12.073,12.073,0,0,1,1.2.686,14.261,14.261,0,0,1,1.958,1.487c.25.216.488.449.721.687a15.174,15.174,0,0,1,2.044,2.605c.135.222.272.449.4.681a14.68,14.68,0,0,1,1.186,2.815c.069.227.137.454.193.687a14,14,0,0,1,.386,2.247c.029.227.046.454.057.687C3033.394,482.488,3033.4,482.744,3033.4,483Z"/><path class="g" d="M3033.378,483.839c-.012.233-.029.46-.057.687h-4.189v-.687Z"/><path class="g" d="M3033.093,486.012c-.045.234-.1.46-.153.688h-5.147v-.688Z"/><path class="g" d="M3031.953,489.418c-.1.233-.221.465-.34.686h-5.069v-.686Z"/><path class="g" d="M3030.653,491.643a8.346,8.346,0,0,1-.516.686h-5.262v-.686Z"/><path class="g" d="M3028.786,493.816c-.25.244-.5.472-.766.687h-4.927v-.687Z"/><path class="g" d="M3026.05,495.9a12.744,12.744,0,0,1-1.293.687h-4.228V495.9Z"/><path class="g" d="M3033.383,482.233h-4.534v-.687h4.477C3033.355,481.773,3033.372,482,3033.383,482.233Z"/><path class="g" d="M3032.94,479.3h-4.608v-.687h4.415C3032.816,478.839,3032.884,479.066,3032.94,479.3Z"/><path class="g" d="M3031.561,475.8h-4.619v-.681h4.223C3031.3,475.338,3031.437,475.565,3031.561,475.8Z"/><path class="g" d="M3029.121,472.511h-5.142v-.687h4.421C3028.65,472.04,3028.888,472.273,3029.121,472.511Z"/><path class="g" d="M3026.442,470.337h-4.983v-.686h3.78A12.073,12.073,0,0,1,3026.442,470.337Z"/><path class="c" d="M3000,483a15,15,0,1,0,15-15A15,15,0,0,0,3000,483Z"/><path class="i" d="M3004,483a11,11,0,1,0,11-11A11,11,0,0,0,3004,483Z"/><path class="j" d="M3015.919,493.076a11,11,0,0,1-8.223-18.3,11,11,0,1,0,15.527,15.523A10.954,10.954,0,0,1,3015.919,493.076Z"/><path class="c" d="M3008.511,480.135l7.8,5.85-.818.614a.847.847,0,0,1-.956-.015l-3.5-2.622-2.505,1.878,5.366,4.025.636.477a.847.847,0,0,0,.956.014l.651-.488,5.345-4.009-7.8-5.851.818-.613a.847.847,0,0,1,.956.014l3.5,2.623,2.505-1.878-6-4.5a.847.847,0,0,0-.956-.015Z"/></g></svg>