<svg xmlns="http://www.w3.org/2000/svg" width="48" height="34.483" viewBox="0 0 48 34.483"><defs><style>.a{fill:#fec335;}.a,.b,.c,.d,.e,.f,.g,.h,.i,.j{fill-rule:evenodd;}.b{fill:#ffdd2f;}.c{fill:#ffd033;}.d{fill:#faac38;}.e{fill:#e4a636;}.f{fill:#78bec0;}.g{fill:#a7772e;}.h{fill:#c98e33;}.i{fill:#e3b233;}.j{fill:#d89b35;}</style></defs><g transform="translate(-3000.002 -535.516)"><path class="a" d="M3018,560.608v4.914a1.882,1.882,0,0,0,.686,1.343,4.973,4.973,0,0,0,.438.361,7.625,7.625,0,0,0,1.125.656c.14.065.286.134.438.2a14.875,14.875,0,0,0,1.782.627c.143.042.288.086.435.128.722.194,1.506.369,2.345.52l.438.077c.687.111,1.407.214,2.157.3.145.013.29.03.435.043.5.052,1.01.09,1.533.125.145.012.29.021.437.03.653.034,1.32.055,2,.068.144,0,.289.005.437.005H3033c.635,0,1.26-.013,1.875-.035.148,0,.293-.013.438-.017.627-.03,1.242-.073,1.842-.124l.44-.039c.415-.039.82-.086,1.218-.133.147-.022.292-.039.438-.06.5-.069,1-.146,1.469-.232.148-.025.293-.052.435-.082.413-.076.808-.163,1.191-.257.147-.034.292-.069.434-.107.475-.12.923-.249,1.345-.391.151-.047.3-.1.438-.15a11.325,11.325,0,0,0,1.217-.507c.155-.073.3-.15.44-.227a5.655,5.655,0,0,0,.935-.631,3.215,3.215,0,0,0,.44-.446,1.671,1.671,0,0,0,.405-1.039v-4.914Z"/><path class="b" d="M3018,560.609c0,2.191,6.714,3.967,15,3.967s15-1.776,15-3.967-6.715-3.966-15-3.966S3018,558.419,3018,560.609Z"/><path class="c" d="M3020.69,560.082c0,1.506,5.512,2.727,12.312,2.727s12.313-1.221,12.313-2.727-5.513-2.728-12.313-2.728S3020.69,558.575,3020.69,560.082Z"/><path class="d" d="M3044.939,560.752c-1.35-1.182-6.182-2.057-11.937-2.057s-10.587.875-11.937,2.057a.922.922,0,0,1-.375-.67c0-1.507,5.512-2.728,12.312-2.728s12.313,1.221,12.313,2.728A.922.922,0,0,1,3044.939,560.752Z"/><path class="e" d="M3033.062,570h-.372v-2.172H3033c.635,0,1.26-.013,1.875-.035h0v2.172c-.6.021-1.2.034-1.815.035ZM3048,563.35v2.172a1.671,1.671,0,0,1-.405,1.039h0v-2.172a1.671,1.671,0,0,0,.405-1.039Zm-15.749,6.644v-2.171h0c-.681-.014-1.348-.035-2-.069v2.172h0c.653.034,1.32.055,2,.068Zm3.062-.047h0c.627-.03,1.242-.073,1.842-.124v-2.172h0c-.6.051-1.215.094-1.842.125v2.171Zm-5.5-.051v-2.172h0c-.523-.034-1.033-.073-1.533-.124v2.171h0c.5.052,1.01.09,1.533.125Zm7.782-.112h0c.415-.039.82-.086,1.218-.133v-2.172h0c-.4.047-.8.094-1.218.133v2.172Zm-9.75-.056v-2.172h0c-.75-.081-1.47-.184-2.157-.3v2.172h0c.687.111,1.407.214,2.157.3Zm11.406-.137h0c.5-.069,1-.146,1.469-.232v-2.172h0c-.472.086-.965.163-1.469.232v2.172Zm-14-.236v-2.172h0c-.839-.15-1.623-.326-2.345-.519v2.171h0c.722.194,1.506.369,2.345.52Zm15.905-.078h0c.413-.076.808-.163,1.191-.257v-2.172h0c-.383.094-.778.18-1.191.257v2.172Zm1.625-.364h0c.475-.12.923-.249,1.345-.391V566.35h0c-.422.142-.87.271-1.345.391v2.172Zm-20.31-.206v-2.172h0a14.875,14.875,0,0,1-1.782-.627v2.172h0a14.875,14.875,0,0,0,1.782.627Zm22.093-.335h0a11.325,11.325,0,0,0,1.217-.507v-2.172h0a11.325,11.325,0,0,1-1.217.507v2.172Zm-24.313-.49v-2.171h0a7.625,7.625,0,0,1-1.125-.657v2.172h0a7.625,7.625,0,0,0,1.125.656Zm25.97-.244h0a5.655,5.655,0,0,0,.935-.631v-2.172h0a5.655,5.655,0,0,1-.935.631v2.172Zm-27.533-.773v-2.171h0a1.884,1.884,0,0,1-.686-1.344v2.172A1.882,1.882,0,0,0,3018.689,566.865Z"/><path class="a" d="M3016.662,553.7v4.915a1.885,1.885,0,0,0,.687,1.343,4.8,4.8,0,0,0,.438.36,7.527,7.527,0,0,0,1.125.657c.14.065.285.133.437.2a14.944,14.944,0,0,0,1.783.628l.435.128c.722.193,1.505.369,2.345.519l.437.078c.687.111,1.407.214,2.157.3.146.013.291.03.436.043.5.051,1.01.09,1.533.124.144.013.29.022.436.03q.98.051,2,.069c.145,0,.29.005.437.005h.313c.635,0,1.259-.013,1.875-.035.147,0,.292-.013.437-.017.628-.03,1.243-.073,1.843-.125l.44-.038c.415-.039.82-.086,1.217-.133.147-.022.292-.039.438-.06.5-.069,1-.146,1.47-.232.147-.026.292-.052.435-.082.413-.077.808-.163,1.19-.257.147-.034.293-.069.434-.108.476-.12.923-.249,1.346-.39.15-.047.295-.1.437-.15a11.565,11.565,0,0,0,1.218-.507c.155-.073.3-.15.439-.227a5.753,5.753,0,0,0,.936-.631,3.338,3.338,0,0,0,.439-.446,1.669,1.669,0,0,0,.406-1.039V553.7Z"/><path class="b" d="M3016.662,553.706c0,2.19,6.715,3.966,15,3.966s15-1.776,15-3.966-6.716-3.966-15-3.966S3016.662,551.516,3016.662,553.706Z"/><path class="c" d="M3019.349,553.179c0,1.506,5.512,2.727,12.313,2.727s12.312-1.221,12.312-2.727-5.512-2.728-12.312-2.728S3019.349,551.672,3019.349,553.179Z"/><path class="d" d="M3043.6,553.849c-1.349-1.182-6.181-2.057-11.936-2.057s-10.587.875-11.937,2.057a.921.921,0,0,1-.376-.67c0-1.507,5.512-2.728,12.313-2.728s12.312,1.221,12.312,2.728A.921.921,0,0,1,3043.6,553.849Z"/><path class="e" d="M3031.721,563.1h-.372v-2.172h.313c.635,0,1.259-.013,1.875-.035h0v2.172c-.6.021-1.2.034-1.816.035Zm14.941-6.649v2.172a1.669,1.669,0,0,1-.406,1.039h0v-2.172a1.669,1.669,0,0,0,.406-1.039Zm-15.75,6.644V560.92h0c-.681-.014-1.348-.035-2-.069v2.171h0q.98.051,2,.069Zm3.062-.047h0c.628-.03,1.243-.073,1.843-.125v-2.171h0c-.6.051-1.215.094-1.843.124v2.172Zm-5.5-.052v-2.171h0c-.523-.034-1.033-.073-1.533-.125v2.172h0c.5.051,1.01.09,1.533.124Zm7.782-.111h0c.415-.039.82-.086,1.217-.133v-2.172h0c-.4.047-.8.094-1.217.133v2.172Zm-9.751-.056v-2.172h0c-.75-.081-1.47-.184-2.157-.3v2.172h0c.687.111,1.407.214,2.157.3Zm11.406-.137h0c.5-.069,1-.146,1.47-.232v-2.172h0c-.473.086-.965.163-1.47.232v2.172Zm-14-.237V560.28h0c-.84-.15-1.623-.326-2.345-.52v2.172h0c.722.193,1.505.369,2.345.519Zm15.9-.077h0c.413-.077.808-.163,1.19-.257v-2.172h0c-.382.094-.777.18-1.19.257v2.172Zm1.624-.365h0c.476-.12.923-.249,1.346-.39v-2.172h0c-.423.142-.87.271-1.346.391v2.171Zm-20.309-.2v-2.172h0a14.949,14.949,0,0,1-1.783-.627v2.171h0a14.944,14.944,0,0,0,1.783.628Zm22.092-.335h0a11.565,11.565,0,0,0,1.218-.507V558.79h0a11.361,11.361,0,0,1-1.218.507v2.172Zm-24.312-.49v-2.171h0a7.7,7.7,0,0,1-1.125-.657v2.171h0a7.527,7.527,0,0,0,1.125.657Zm25.969-.244h0a5.753,5.753,0,0,0,.936-.631v-2.172h0a5.691,5.691,0,0,1-.936.631v2.172Zm-27.532-.773V557.79h0a1.882,1.882,0,0,1-.687-1.343v2.172A1.885,1.885,0,0,0,3017.349,559.962Z"/><path class="a" d="M3045.662,546.485V551.4a1.881,1.881,0,0,1-.686,1.343,4.85,4.85,0,0,1-.438.361,7.689,7.689,0,0,1-1.125.657c-.14.064-.286.133-.438.2a14.864,14.864,0,0,1-1.782.627l-.435.129c-.723.193-1.506.369-2.345.519l-.438.077c-.687.112-1.407.215-2.157.3-.145.012-.29.029-.435.042-.5.052-1.011.09-1.533.125-.145.013-.29.021-.437.03-.653.034-1.32.055-2,.068-.144,0-.289.005-.437.005h-.312c-.635,0-1.26-.013-1.875-.035-.148,0-.293-.012-.438-.017q-.941-.045-1.842-.124c-.148-.012-.3-.026-.44-.039-.415-.038-.821-.086-1.218-.132-.147-.022-.292-.039-.438-.061-.505-.069-1-.146-1.469-.232-.148-.025-.293-.051-.435-.082-.413-.076-.808-.162-1.191-.257-.147-.034-.292-.069-.434-.107-.475-.12-.923-.249-1.346-.391-.15-.047-.294-.1-.437-.15a11.545,11.545,0,0,1-1.217-.506c-.155-.073-.3-.151-.44-.228a5.568,5.568,0,0,1-.935-.631,3.215,3.215,0,0,1-.44-.446,1.671,1.671,0,0,1-.405-1.039v-4.914Z"/><path class="b" d="M3045.662,546.486c0,2.191-6.715,3.967-15,3.967s-15-1.776-15-3.967,6.715-3.965,15-3.965S3045.662,544.3,3045.662,546.486Z"/><path class="c" d="M3042.975,545.959c0,1.506-5.512,2.727-12.312,2.727s-12.313-1.221-12.313-2.727,5.512-2.728,12.313-2.728S3042.975,544.452,3042.975,545.959Z"/><path class="d" d="M3018.726,546.629c1.35-1.182,6.181-2.057,11.937-2.057s10.587.875,11.937,2.057a.922.922,0,0,0,.375-.67c0-1.507-5.512-2.728-12.312-2.728s-12.313,1.221-12.313,2.728A.923.923,0,0,0,3018.726,546.629Z"/><path class="e" d="M3030.6,555.876h.372V553.7h-.312c-.635,0-1.26-.013-1.875-.034h0v2.171c.6.021,1.2.034,1.815.035Zm-14.94-6.649V551.4a1.671,1.671,0,0,0,.405,1.039h0v-2.172a1.671,1.671,0,0,1-.405-1.039Zm15.749,6.644V553.7h0c.681-.014,1.348-.035,2-.069V555.8h0c-.653.034-1.32.055-2,.068Zm-3.062-.047h0q-.941-.045-1.842-.124v-2.172h0q.9.078,1.842.125v2.171Zm5.5-.051V553.6h0c.522-.034,1.033-.073,1.533-.124v2.171h0c-.5.052-1.011.09-1.533.125Zm-7.782-.112h0c-.415-.038-.821-.086-1.218-.132v-2.173h0c.4.047.8.095,1.218.133v2.172Zm9.75-.055v-2.172h0c.75-.082,1.47-.185,2.157-.3v2.172h0c-.687.112-1.407.215-2.157.3Zm-11.406-.138h0c-.505-.069-1-.146-1.469-.232v-2.172h0c.472.086.964.163,1.469.232v2.172Zm14-.236V553.06h0c.839-.15,1.622-.326,2.345-.519v2.172h0c-.723.193-1.506.369-2.345.519Zm-15.905-.078h0c-.413-.076-.808-.162-1.191-.257v-2.171h0c.383.094.778.18,1.191.257v2.171Zm-1.625-.364h0c-.475-.12-.923-.249-1.346-.391v-2.172h0c.423.142.871.271,1.346.391v2.172Zm20.31-.206v-2.172h0a14.864,14.864,0,0,0,1.782-.627v2.172h0a14.864,14.864,0,0,1-1.782.627Zm-22.093-.335h0a11.545,11.545,0,0,1-1.217-.506v-2.172h0a11.341,11.341,0,0,0,1.217.506v2.172Zm24.313-.489v-2.172h0a7.6,7.6,0,0,0,1.125-.657V553.1h0a7.689,7.689,0,0,1-1.125.657Zm-25.97-.245h0a5.568,5.568,0,0,1-.935-.631v-2.172h0a5.631,5.631,0,0,0,.935.631v2.172Zm27.533-.773v-2.171h0a1.884,1.884,0,0,0,.686-1.344V551.4A1.881,1.881,0,0,1,3044.976,552.742Z"/><path class="a" d="M3013.972,539.48V544.4a1.884,1.884,0,0,0,.687,1.343,5.04,5.04,0,0,0,.438.361,7.638,7.638,0,0,0,1.125.656c.14.065.285.134.437.2a14.96,14.96,0,0,0,1.783.628l.435.128c.722.193,1.505.369,2.345.52l.437.077c.688.111,1.408.214,2.158.3.145.013.29.03.435.043.5.051,1.01.09,1.533.124.144.013.29.022.436.031.653.034,1.32.055,2,.068.145,0,.29.005.437.005h.313c.635,0,1.259-.013,1.875-.035.148,0,.292-.013.437-.017.628-.03,1.243-.073,1.843-.125l.44-.038c.415-.039.82-.086,1.217-.133.148-.022.293-.039.438-.06.505-.069,1-.146,1.47-.233.147-.025.292-.051.435-.081.413-.077.808-.163,1.19-.257.147-.034.293-.069.435-.108.475-.12.923-.248,1.345-.39.15-.047.3-.1.437-.15a11.462,11.462,0,0,0,1.218-.507c.155-.073.3-.15.44-.227a5.683,5.683,0,0,0,.935-.631,3.263,3.263,0,0,0,.439-.446,1.667,1.667,0,0,0,.406-1.039V539.48Z"/><path class="b" d="M3013.972,539.482c0,2.19,6.715,3.966,15,3.966s15-1.776,15-3.966-6.716-3.966-15-3.966S3013.972,537.292,3013.972,539.482Z"/><path class="c" d="M3016.659,538.955c0,1.506,5.513,2.727,12.313,2.727s12.312-1.221,12.312-2.727-5.512-2.729-12.312-2.729S3016.659,537.448,3016.659,538.955Z"/><path class="d" d="M3040.908,539.625c-1.349-1.182-6.181-2.057-11.936-2.057s-10.587.875-11.937,2.057a.925.925,0,0,1-.376-.67c0-1.507,5.513-2.729,12.313-2.729s12.312,1.222,12.312,2.729A.921.921,0,0,1,3040.908,539.625Z"/><path class="e" d="M3029.032,548.872h-.373V546.7h.313c.635,0,1.259-.013,1.875-.035h0v2.172c-.6.021-1.2.034-1.815.035Zm14.94-6.649V544.4a1.667,1.667,0,0,1-.406,1.039h0v-2.172a1.667,1.667,0,0,0,.406-1.039Zm-15.75,6.644V546.7h0c-.681-.014-1.348-.035-2-.069V548.8h0c.653.034,1.32.055,2,.068Zm3.062-.047h0c.628-.03,1.243-.073,1.843-.125v-2.171h0c-.6.051-1.215.094-1.843.124v2.172Zm-5.5-.052V546.6h0c-.523-.034-1.033-.073-1.533-.125v2.172h0c.5.051,1.01.09,1.533.124Zm7.782-.111h0c.415-.039.82-.086,1.217-.133v-2.172h0c-.4.047-.8.094-1.217.133v2.172Zm-9.75-.056v-2.172h0c-.75-.081-1.47-.184-2.158-.3V548.3h0c.688.111,1.408.214,2.158.3Zm11.405-.137h0c.505-.069,1-.146,1.47-.233V546.06h0c-.473.086-.965.163-1.47.232v2.172Zm-14-.236v-2.172h0c-.84-.15-1.623-.326-2.345-.52v2.172h0c.722.193,1.505.369,2.345.52Zm15.905-.078h0c.413-.077.808-.163,1.19-.257v-2.172h0c-.382.094-.777.18-1.19.257v2.172Zm1.625-.365h0c.475-.12.923-.248,1.345-.39v-2.172h0c-.422.142-.87.271-1.345.391v2.171Zm-20.31-.2v-2.172h0a14.964,14.964,0,0,1-1.783-.627v2.171h0a14.96,14.96,0,0,0,1.783.628Zm22.092-.335h0a11.462,11.462,0,0,0,1.218-.507v-2.172h0a11.262,11.262,0,0,1-1.218.507v2.172Zm-24.312-.49v-2.171h0a7.725,7.725,0,0,1-1.125-.657V546.1h0a7.638,7.638,0,0,0,1.125.656Zm25.97-.244h0a5.683,5.683,0,0,0,.935-.631v-2.172h0a5.683,5.683,0,0,1-.935.631v2.172Zm-27.533-.773v-2.171h0a1.886,1.886,0,0,1-.687-1.344V544.4A1.884,1.884,0,0,0,3014.659,545.738Z"/><path class="f" d="M3007.993,566.687l-.752-2.242,6.461-15.71Z"/><path class="g" d="M3004.757,557.048l-.753-2.241,4.942-11.88Z"/><path class="h" d="M3033.4,555c0,.283-.006.562-.022.84-.012.233-.029.46-.057.686a14.2,14.2,0,0,1-.228,1.487c-.045.234-.1.46-.153.687a14.688,14.688,0,0,1-.987,2.718c-.1.234-.221.466-.34.687a14.908,14.908,0,0,1-.96,1.538,8.365,8.365,0,0,1-.516.687,12.919,12.919,0,0,1-1.351,1.487c-.25.244-.5.472-.766.687a14.435,14.435,0,0,1-1.97,1.4,12.736,12.736,0,0,1-1.293.686,14.859,14.859,0,0,1-6.351,1.414H3015V540h3.406a14.884,14.884,0,0,1,6.833,1.652,12.073,12.073,0,0,1,1.2.686,14.266,14.266,0,0,1,1.958,1.487c.25.216.488.449.721.687a15.166,15.166,0,0,1,2.044,2.6c.135.222.272.449.4.682a14.653,14.653,0,0,1,1.186,2.815c.069.227.137.454.193.686a14.013,14.013,0,0,1,.386,2.248c.029.227.046.454.057.686Q3033.4,554.616,3033.4,555Z"/><path class="g" d="M3033.378,555.839c-.012.233-.029.46-.057.686h-4.189v-.686Z"/><path class="g" d="M3033.093,558.012c-.045.234-.1.46-.153.687h-5.147v-.687Z"/><path class="g" d="M3031.953,561.417c-.1.234-.221.466-.34.687h-5.069v-.687Z"/><path class="g" d="M3030.653,563.642a8.365,8.365,0,0,1-.516.687h-5.262v-.687Z"/><path class="g" d="M3028.786,565.816c-.25.244-.5.472-.766.687h-4.927v-.687Z"/><path class="g" d="M3026.05,567.9a12.736,12.736,0,0,1-1.293.686h-4.228V567.9Z"/><path class="g" d="M3033.383,554.232h-4.534v-.686h4.477C3033.355,553.773,3033.372,554,3033.383,554.232Z"/><path class="g" d="M3032.94,551.3h-4.608v-.686h4.415C3032.816,550.839,3032.884,551.066,3032.94,551.3Z"/><path class="g" d="M3031.561,547.8h-4.619v-.682h4.223C3031.3,547.337,3031.437,547.564,3031.561,547.8Z"/><path class="g" d="M3029.121,544.511h-5.142v-.687h4.421C3028.65,544.04,3028.888,544.273,3029.121,544.511Z"/><path class="g" d="M3026.442,542.337h-4.983v-.686h3.78A12.073,12.073,0,0,1,3026.442,542.337Z"/><path class="c" d="M3000,555a15,15,0,1,0,15-15A15,15,0,0,0,3000,555Z"/><path class="i" d="M3004,555a11,11,0,1,0,11-11A11,11,0,0,0,3004,555Z"/><path class="j" d="M3015.919,565.076a11,11,0,0,1-8.223-18.3,11,11,0,1,0,15.527,15.523A10.954,10.954,0,0,1,3015.919,565.076Z"/><path class="c" d="M3008.511,552.134l7.8,5.851-.818.614a.847.847,0,0,1-.956-.015l-3.5-2.623-2.505,1.879,5.366,4.024.636.477a.847.847,0,0,0,.956.015l.651-.488,5.345-4.009-7.8-5.851.818-.614a.847.847,0,0,1,.956.015l3.5,2.623,2.505-1.879-6-4.5a.847.847,0,0,0-.956-.015Z"/></g></svg>