<svg xmlns="http://www.w3.org/2000/svg" width="48" height="30" viewBox="0 0 48 30"><defs><style>.a{fill:#fec335;}.a,.b,.c,.d,.e,.f,.g,.h,.i,.j{fill-rule:evenodd;}.b{fill:#ffdd2f;}.c{fill:#ffd033;}.d{fill:#faac38;}.e{fill:#e4a636;}.f{fill:#78bec0;}.g{fill:#a7772e;}.h{fill:#c98e33;}.i{fill:#e3b233;}.j{fill:#d89b35;}</style></defs><g transform="translate(-3000.002 -395.999)"><path class="a" d="M3012,414.73v5.9a2.258,2.258,0,0,0,.824,1.612,6.1,6.1,0,0,0,.525.433,9.123,9.123,0,0,0,1.35.788c.169.077.343.16.525.237a18,18,0,0,0,2.139.752c.171.051.345.1.522.154.867.232,1.807.443,2.814.623l.525.093c.825.134,1.689.258,2.589.356.174.015.348.036.522.051.6.062,1.213.108,1.84.15.173.015.347.025.524.036.783.041,1.584.066,2.4.082.174,0,.347.005.524.005H3030c.762,0,1.512-.015,2.25-.041.177-.005.351-.016.525-.021.753-.036,1.491-.087,2.211-.149l.528-.046c.5-.047.984-.1,1.461-.16.177-.026.351-.046.526-.072.606-.082,1.2-.175,1.763-.279.177-.03.351-.061.522-.1.5-.092.97-.2,1.429-.308.176-.041.35-.083.521-.129.57-.144,1.108-.3,1.614-.469.181-.056.354-.118.525-.18a13.917,13.917,0,0,0,1.461-.608c.186-.088.36-.18.528-.273a6.718,6.718,0,0,0,1.122-.757,3.9,3.9,0,0,0,.528-.535,2.006,2.006,0,0,0,.486-1.247v-5.9Z"/><path class="b" d="M3012,414.732c0,2.628,8.058,4.759,18,4.759s18-2.131,18-4.759-8.058-4.759-18-4.759S3012,412.1,3012,414.732Z"/><path class="c" d="M3015.227,414.1c0,1.807,6.615,3.273,14.775,3.273s14.775-1.466,14.775-3.273-6.614-3.274-14.775-3.274S3015.227,412.291,3015.227,414.1Z"/><path class="d" d="M3044.326,414.9c-1.62-1.419-7.418-2.469-14.324-2.469s-12.7,1.05-14.324,2.469a1.109,1.109,0,0,1-.451-.8c0-1.808,6.615-3.274,14.775-3.274s14.775,1.466,14.775,3.274A1.105,1.105,0,0,1,3044.326,414.9Z"/><path class="e" d="M3030.074,426h-.447v-2.606H3030c.762,0,1.512-.016,2.25-.042h0v2.607c-.715.025-1.441.04-2.178.041ZM3048,418.021v2.606a2.006,2.006,0,0,1-.486,1.247h0v-2.606a2.008,2.008,0,0,0,.486-1.247Zm-18.9,7.973v-2.606h0c-.817-.016-1.618-.041-2.4-.083v2.607h0c.783.041,1.584.066,2.4.082Zm3.674-.057h0c.753-.036,1.491-.087,2.211-.149v-2.606h0c-.72.062-1.458.113-2.211.149v2.606Zm-6.6-.061V423.27h0c-.627-.041-1.24-.088-1.84-.15v2.606h0c.6.062,1.213.108,1.84.15Zm9.338-.134h0c.5-.047.984-.1,1.461-.16v-2.606h0c-.477.056-.963.113-1.461.16v2.606Zm-11.7-.067v-2.606h0c-.9-.1-1.764-.222-2.589-.356v2.606h0c.825.134,1.689.258,2.589.356Zm13.687-.165h0c.606-.082,1.2-.175,1.763-.279v-2.6h0c-.567.1-1.157.2-1.763.278v2.606Zm-16.8-.284V422.62h0c-1.007-.18-1.947-.391-2.814-.623V424.6h0c.867.232,1.807.443,2.814.623Zm19.086-.093h0c.5-.092.97-.2,1.429-.308v-2.606h0c-.459.113-.933.216-1.429.308v2.606Zm1.95-.437h0c.57-.144,1.108-.3,1.614-.469v-2.606h0c-.506.17-1.044.325-1.614.469V424.7Zm-24.372-.247v-2.606h0a17.99,17.99,0,0,1-2.139-.752V423.7h0a18,18,0,0,0,2.139.752Zm26.511-.4h0a13.917,13.917,0,0,0,1.461-.608v-2.606h0a13.505,13.505,0,0,1-1.461.608v2.606Zm-29.175-.587v-2.606h0a9.215,9.215,0,0,1-1.35-.788v2.606h0a9.123,9.123,0,0,0,1.35.788Zm31.164-.294h0a6.718,6.718,0,0,0,1.122-.757V419.8h0a6.78,6.78,0,0,1-1.122.757v2.606Zm-33.039-.927v-2.606h0a2.258,2.258,0,0,1-.824-1.612v2.606A2.258,2.258,0,0,0,3012.827,422.239Z"/><path class="a" d="M3011.141,406.162v5.9a2.259,2.259,0,0,0,.824,1.612,5.89,5.89,0,0,0,.526.433,9.113,9.113,0,0,0,1.35.788c.168.077.343.16.525.237a17.833,17.833,0,0,0,2.139.752c.171.052.345.1.522.155.867.231,1.806.442,2.814.623l.525.093c.825.133,1.688.257,2.589.355.174.015.348.036.522.052.6.061,1.212.107,1.839.149.174.015.348.026.524.036q1.176.062,2.4.082c.174,0,.348.006.525.006h.375c.762,0,1.511-.016,2.25-.042.177-.005.351-.015.525-.021.753-.035,1.491-.087,2.211-.149l.528-.046c.5-.047.984-.1,1.461-.159.176-.027.351-.047.525-.073.606-.082,1.2-.175,1.764-.279.177-.03.351-.061.522-.1.5-.092.969-.2,1.428-.309.177-.041.351-.082.521-.129.571-.144,1.108-.3,1.615-.468.18-.057.354-.118.524-.18a13.833,13.833,0,0,0,1.462-.608c.186-.088.36-.181.527-.273a6.772,6.772,0,0,0,1.123-.758,3.835,3.835,0,0,0,.527-.535,2,2,0,0,0,.487-1.247v-5.9Z"/><path class="b" d="M3011.141,406.164c0,2.629,8.058,4.76,18,4.76s18-2.131,18-4.76-8.059-4.759-18-4.759S3011.141,403.536,3011.141,406.164Z"/><path class="c" d="M3014.366,405.532c0,1.807,6.615,3.272,14.774,3.272s14.775-1.465,14.775-3.272-6.614-3.274-14.775-3.274S3014.366,403.723,3014.366,405.532Z"/><path class="d" d="M3043.464,406.336c-1.619-1.419-7.417-2.469-14.324-2.469s-12.7,1.05-14.323,2.469a1.106,1.106,0,0,1-.451-.8c0-1.809,6.615-3.274,14.774-3.274s14.775,1.465,14.775,3.274A1.106,1.106,0,0,1,3043.464,406.336Z"/><path class="e" d="M3029.212,417.432h-.446v-2.607h.375c.762,0,1.511-.015,2.25-.041h0v2.606c-.716.025-1.441.041-2.179.042Zm17.929-7.979v2.606a2,2,0,0,1-.487,1.247h0V410.7a2,2,0,0,0,.487-1.247Zm-18.9,7.973V414.82h0q-1.225-.023-2.4-.082v2.606h0q1.176.062,2.4.082Zm3.675-.057h0c.753-.035,1.491-.087,2.211-.149v-2.606h0q-1.08.093-2.211.15v2.6Zm-6.6-.061V414.7h0c-.627-.041-1.24-.088-1.839-.15v2.607h0c.6.061,1.212.107,1.839.149Zm9.339-.134h0c.5-.047.984-.1,1.461-.159v-2.607h0c-.477.056-.963.113-1.461.16v2.606Zm-11.7-.067V414.5h0c-.9-.1-1.764-.222-2.589-.356v2.607h0c.825.133,1.688.257,2.589.355Zm13.686-.165h0c.606-.082,1.2-.175,1.764-.279v-2.6h0c-.567.1-1.158.195-1.764.278v2.606Zm-16.8-.283v-2.607h0c-1.008-.179-1.947-.391-2.814-.623v2.607h0c.867.231,1.806.442,2.814.623Zm19.086-.093h0c.5-.092.969-.2,1.428-.309v-2.606h0c-.459.113-.933.216-1.428.308v2.607Zm1.949-.438h0c.571-.144,1.108-.3,1.615-.468v-2.607h0c-.507.171-1.044.325-1.615.469v2.606Zm-24.371-.247v-2.606h0a18.011,18.011,0,0,1-2.139-.752v2.606h0a17.833,17.833,0,0,0,2.139.752Zm26.51-.4h0a13.833,13.833,0,0,0,1.462-.608v-2.606h0a13.622,13.622,0,0,1-1.462.607v2.607Zm-29.174-.588v-2.606h0a9.116,9.116,0,0,1-1.35-.788V414.1h0a9.113,9.113,0,0,0,1.35.788ZM3045,414.6h0a6.772,6.772,0,0,0,1.123-.758v-2.606h0a6.834,6.834,0,0,1-1.123.758V414.6Zm-33.039-.928v-2.6h0a2.263,2.263,0,0,1-.824-1.613v2.606A2.259,2.259,0,0,0,3011.965,413.671Z"/><path class="f" d="M3007.993,422.688l-.752-2.242,6.461-15.71Z"/><path class="g" d="M3004.757,413.049l-.753-2.241,4.942-11.881Z"/><path class="h" d="M3033.4,411c0,.284-.006.562-.022.84-.012.233-.029.46-.057.687a14.139,14.139,0,0,1-.228,1.486c-.045.234-.1.461-.153.688a14.715,14.715,0,0,1-.987,2.718c-.1.233-.221.465-.34.687a14.907,14.907,0,0,1-.96,1.538,8.346,8.346,0,0,1-.516.686,12.85,12.85,0,0,1-1.351,1.488c-.25.244-.5.471-.766.686a14.35,14.35,0,0,1-1.97,1.4,12.744,12.744,0,0,1-1.293.687,14.874,14.874,0,0,1-6.351,1.413H3015V396h3.406a14.9,14.9,0,0,1,6.833,1.652,12.073,12.073,0,0,1,1.2.686,14.342,14.342,0,0,1,1.958,1.487c.25.216.488.449.721.687a15.174,15.174,0,0,1,2.044,2.605c.135.222.272.449.4.681a14.662,14.662,0,0,1,1.186,2.816c.069.226.137.453.193.686a13.992,13.992,0,0,1,.386,2.248c.029.227.046.454.057.686C3033.394,410.488,3033.4,410.744,3033.4,411Z"/><path class="g" d="M3033.378,411.839c-.012.233-.029.46-.057.687h-4.189v-.687Z"/><path class="g" d="M3033.093,414.012c-.045.234-.1.461-.153.688h-5.147v-.688Z"/><path class="g" d="M3031.953,417.418c-.1.233-.221.465-.34.687h-5.069v-.687Z"/><path class="g" d="M3030.653,419.643a8.346,8.346,0,0,1-.516.686h-5.262v-.686Z"/><path class="g" d="M3028.786,421.817c-.25.244-.5.471-.766.686h-4.927v-.686Z"/><path class="g" d="M3026.05,423.9a12.744,12.744,0,0,1-1.293.687h-4.228V423.9Z"/><path class="g" d="M3033.383,410.233h-4.534v-.686h4.477C3033.355,409.774,3033.372,410,3033.383,410.233Z"/><path class="g" d="M3032.94,407.3h-4.608v-.686h4.415C3032.816,406.839,3032.884,407.066,3032.94,407.3Z"/><path class="g" d="M3031.561,403.8h-4.619v-.681h4.223C3031.3,403.338,3031.437,403.565,3031.561,403.8Z"/><path class="g" d="M3029.121,400.511h-5.142v-.687h4.421C3028.65,400.04,3028.888,400.273,3029.121,400.511Z"/><path class="g" d="M3026.442,398.337h-4.983v-.686h3.78A12.073,12.073,0,0,1,3026.442,398.337Z"/><path class="c" d="M3000,411a15,15,0,1,0,15-15A15,15,0,0,0,3000,411Z"/><path class="i" d="M3004,411a11,11,0,1,0,11-11A11,11,0,0,0,3004,411Z"/><path class="j" d="M3015.919,421.077a11,11,0,0,1-8.223-18.3,11,11,0,1,0,15.527,15.523A10.955,10.955,0,0,1,3015.919,421.077Z"/><path class="c" d="M3008.511,408.135l7.8,5.85-.818.614a.845.845,0,0,1-.956-.014l-3.5-2.623-2.505,1.879,5.366,4.024.636.477a.847.847,0,0,0,.956.015l.651-.489,5.345-4.009-7.8-5.85.818-.614a.845.845,0,0,1,.956.015l3.5,2.622,2.505-1.878-6-4.5a.847.847,0,0,0-.956-.014Z"/></g></svg>