<svg xmlns="http://www.w3.org/2000/svg" width="30" height="29.999" viewBox="0 0 30 29.999">
    <defs>
        <style>
            .a{fill:#ccc;fill-rule:evenodd;}
        </style>
    </defs>
    <path class="a" d="M1341.85,623.335a1.606,1.606,0,0,0-1.372-1.144l-8.659-.82-3.424-8.362a1.569,1.569,0,0,0-2.932,0l-3.424,8.361-8.66.82a1.613,1.613,0,0,0-1.372,1.144,1.712,1.712,0,0,0,.467,1.768l6.545,5.99-1.93,8.87a1.7,1.7,0,0,0,.62,1.718,1.549,1.549,0,0,0,.934.317,1.533,1.533,0,0,0,.817-.237l7.469-4.658,7.466,4.658a1.533,1.533,0,0,0,1.753-.08,1.7,1.7,0,0,0,.62-1.718l-1.93-8.87,6.545-5.989a1.712,1.712,0,0,0,.467-1.769Zm0,0" transform="translate(-1311.929 -611.999)"/>
</svg>
