<svg xmlns="http://www.w3.org/2000/svg" width="30" height="26.367" viewBox="0 0 30 26.367"><defs><style>.a{fill:#ccc;fill-rule:evenodd;}</style></defs><path class="a" d="M312.362,791.379h5.274v1.758h-5.274v-1.758Zm6.153-14.062h-7.031a2.639,2.639,0,0,0-2.637,2.636v.879h-7.336l3.315,9.946a.879.879,0,0,0,.835.6h4.944V790.5a.879.879,0,0,1,.879-.879h7.031a.88.88,0,0,1,.879.879v.879h4.944a.878.878,0,0,0,.834-.6l3.315-9.946h-7.336v-.879a2.638,2.638,0,0,0-2.636-2.636Zm-7.91,3.515v-.879a.88.88,0,0,1,.879-.879h7.031a.88.88,0,0,1,.879.879v.879Zm13.733,12.305h-4.944v.879a.879.879,0,0,1-.879.879h-7.031a.878.878,0,0,1-.879-.879v-.879h-4.944a2.635,2.635,0,0,1-2.5-1.8L300,781.852v19.2a2.64,2.64,0,0,0,2.637,2.637h24.726A2.64,2.64,0,0,0,330,801.047V781.853l-3.16,9.481a2.635,2.635,0,0,1-2.5,1.8Z" transform="translate(-299.999 -777.317)"/></svg>