<svg xmlns="http://www.w3.org/2000/svg" width="30" height="30" viewBox="0 0 30 30"><defs><style>.a{fill:#748da5;fill-rule:evenodd;}</style></defs><path class="a" d="M315,550.5a14.992,14.992,0,0,0-15,15v15h15a15,15,0,0,0,0-30Zm-.569,19.387c-.992,0-1.331-.364-1.331-1.622a4.433,4.433,0,0,1,1.622-3.68c.8-.677,2.154-1.428,2.154-2.735,0-1.113-.968-1.646-2.178-1.646-2.469,0-1.937,1.864-3.244,1.864a1.388,1.388,0,0,1-1.452-1.38c0-1.307,1.5-3.244,4.768-3.244,3.1,0,5.156,1.719,5.156,4s-2.057,3.921-2.711,4.429a3.041,3.041,0,0,0-1.355,3.026c0,.46-.243.993-1.429.993Zm-1.815,3.534a1.86,1.86,0,0,1,1.84-1.864,1.863,1.863,0,0,1,0,3.727A1.859,1.859,0,0,1,312.615,573.421Z" transform="translate(-299.999 -550.5)"/></svg>
