<svg xmlns="http://www.w3.org/2000/svg" width="30" height="30.001" viewBox="0 0 30 30.001"><defs><style>.a{fill:#ccc;fill-rule:evenodd;}</style></defs><path class="a" d="M69.067,526.507a3,3,0,1,0,3,3,2.986,2.986,0,0,0-3-3Zm15,0h0a3,3,0,1,0,3,3,2.986,2.986,0,0,0-3-3Zm-13.35-7.5H81.892a3.01,3.01,0,0,0,2.625-1.546l5.362-9.735a1.446,1.446,0,0,0,.188-.72,1.5,1.5,0,0,0-1.5-1.5H66.389l-1.425-3h-4.9v3h3l5.392,11.378-2.024,3.675a3.043,3.043,0,0,0-.368,1.448,3,3,0,0,0,3,3h18v-3H69.7a.371.371,0,0,1-.375-.375.354.354,0,0,1,.045-.18Z" transform="translate(-60.067 -502.506)"/></svg>