<svg xmlns="http://www.w3.org/2000/svg" width="42" height="42" viewBox="0 0 42 42">
  <path id="Path_3671" data-name="Path 3671" d="M4956.772,221.855l1.561-.582a1.911,1.911,0,0,1,1.333,0l1.6.6.42.157.589.219.292.109.463.173-.153-3.583a1.912,1.912,0,0,1,.412-1.268l1.33-1.676.9-1.132-3.455-.962a1.913,1.913,0,0,1-1.079-.784L4959,210.133l-1.981,2.988a1.913,1.913,0,0,1-1.079.784l-3.455.961.9,1.133,1.331,1.676a1.912,1.912,0,0,1,.412,1.268l-.153,3.583.443-.166.332-.123.689-.257.335-.125ZM4959,225.1l-1.327.494-.3.111-.859.321-.306.114-.637.237-.6.223-.375.139-.379.142-.612.228c-.057.021-.116.04-.174.055a1.917,1.917,0,0,1-.456.065,1.962,1.962,0,0,1-.452-.046,1.871,1.871,0,0,1-.316-.1,1.9,1.9,0,0,1-.815-.644c-.031-.042-.059-.086-.086-.13a1.907,1.907,0,0,1-.275-1.071l.246-5.747L4948.508,216l-.8-1.013a1.909,1.909,0,0,1,.983-3.026l5.542-1.543,3.179-4.793a1.916,1.916,0,0,1,1.021-.767,1.9,1.9,0,0,1,.57-.087c.046,0,.092,0,.138,0a1.912,1.912,0,0,1,1.453.849l3.179,4.793,5.542,1.543a1.909,1.909,0,0,1,.984,3.026l-.8,1.013-2.773,3.492.1,2.39.069,1.606.062,1.47.012.281v.017a1.908,1.908,0,0,1-2.546,1.864l-.029-.01-.3-.113-.492-.183-.328-.123-1.015-.378-.319-.119-1.342-.5-.332-.124L4959,225.1Zm-17.773,2.064c-.113-.179-.223-.36-.331-.543q-.216-.364-.415-.738-.078-.144-.154-.291a20.963,20.963,0,0,1-1.851-14.042c.016-.071.031-.142.047-.214.031-.131.062-.262.094-.393.019-.076.039-.152.058-.227.037-.14.075-.28.114-.419.019-.068.039-.136.059-.2a20.894,20.894,0,0,1,2.226-5.011c.05-.083.1-.165.153-.247.144-.229.293-.454.445-.676h0q.338-.492.7-.963a21.242,21.242,0,0,1,1.828-2.072c.094-.093.188-.185.284-.277.071-.068.143-.137.216-.2.107-.1.215-.2.324-.3q.661-.591,1.372-1.127c.109-.082.22-.164.331-.244a20.923,20.923,0,0,1,24.261-.2c.112.078.222.156.332.236l.261.193q.459.347.9.716c.15.126.3.255.445.385q.45.4.877.824.619.618,1.187,1.284l.235.28c.159.194.315.392.468.592.06.078.12.158.179.238q.193.261.379.526.237.344.462.694a20.956,20.956,0,0,1,2.49,16.982c-.038.13-.076.261-.115.39a20.99,20.99,0,0,1-37.863,5.049Z" transform="translate(-4937.999 -194.999)" fill="gray" fill-rule="evenodd"/>
</svg>
