<svg xmlns="http://www.w3.org/2000/svg" width="42.008" height="41.999" viewBox="0 0 42.008 41.999"><path d="M4846.5,693.175h-9a1.507,1.507,0,0,0-1.5,1.5v22.5a1.5,1.5,0,0,0,1.5,1.5h9a1.5,1.5,0,0,0,1.5-1.5v-22.5a1.5,1.5,0,0,0-1.5-1.5Zm30-4.5h-9a1.5,1.5,0,0,0-1.5,1.5v27a1.5,1.5,0,0,0,1.5,1.5h9a1.5,1.5,0,0,0,1.5-1.5v-27a1.5,1.5,0,0,0-1.5-1.5Zm-15-12h-9a1.5,1.5,0,0,0-1.5,1.493v39a1.5,1.5,0,0,0,1.5,1.5h9a1.5,1.5,0,0,0,1.5-1.5V678.182A1.5,1.5,0,0,0,4861.5,676.68Z" transform="translate(-4835.999 -676.68)" fill="gray" fill-rule="evenodd"/></svg>
