<svg xmlns="http://www.w3.org/2000/svg" width="30" height="28.125" viewBox="0 0 30 28.125"><defs><style>.a{fill:#748da5;fill-rule:evenodd;}</style></defs><path class="a" d="M327.812,294.938H302.187A2.189,2.189,0,0,1,300,292.751v-3.125a2.19,2.19,0,0,1,2.187-2.188h25.625A2.19,2.19,0,0,1,330,289.626v3.125a2.19,2.19,0,0,1-2.188,2.187Zm-26.406,20.625h27.188A1.411,1.411,0,0,0,330,314.157h0a1.41,1.41,0,0,0-1.406-1.406H301.406A1.41,1.41,0,0,0,300,314.157h0a1.411,1.411,0,0,0,1.406,1.406Zm0-4.687h27.188A1.411,1.411,0,0,0,330,309.469h0a1.411,1.411,0,0,0-1.406-1.406H301.406A1.411,1.411,0,0,0,300,309.469h0a1.411,1.411,0,0,0,1.406,1.407Zm0-5.625h10.922a1.41,1.41,0,0,0,1.406-1.407h0a1.41,1.41,0,0,0-1.406-1.406H301.406A1.411,1.411,0,0,0,300,303.844h0a1.411,1.411,0,0,0,1.406,1.407Zm0-4.688h10.922a1.41,1.41,0,0,0,1.406-1.406h0a1.409,1.409,0,0,0-1.406-1.406H301.406A1.41,1.41,0,0,0,300,299.157h0a1.411,1.411,0,0,0,1.406,1.406Zm26.406,5.625h-9.374A2.19,2.19,0,0,1,316.25,304v-5a2.19,2.19,0,0,1,2.188-2.188h9.374A2.19,2.19,0,0,1,330,299v5a2.19,2.19,0,0,1-2.188,2.188Z" transform="translate(-300 -287.438)"/></svg>
