<svg xmlns="http://www.w3.org/2000/svg" width="34.057" height="30.001" viewBox="0 0 34.057 30.001"><defs><style>.a{fill:#ccc;fill-rule:evenodd;}</style></defs><path class="a" d="M83.085,427.5H63.064A3.054,3.054,0,0,0,60,430.494V454.44a3.112,3.112,0,0,0,3.06,3.061H83.085a3.055,3.055,0,0,0,2.994-3.061V430.494a3,3,0,0,0-2.994-2.994Zm9.273,21.659h0a1.827,1.827,0,0,0-2.58,0L88.636,450.3l1.486,4.455a1,1,0,0,0,1.892,0L93.5,450.3l-1.141-1.142Zm-4.284-11.681h0v10.563l.293-.293a3.825,3.825,0,0,1,5.4,0l.292.293V437.478Zm0,10.563L91.068,429.5a3,3,0,0,1,2.993,2.993v2.993H88.074v-2.993a3,3,0,0,1,2.994-2.993l-2.994,18.545ZM64.354,435.19h0a1,1,0,0,1,1.411-1.411l1.29,1.29,1.29-1.29a1,1,0,0,1,1.411,1.411l-1.29,1.29,1.29,1.29a1,1,0,0,1-1.411,1.412l-1.29-1.291-1.29,1.291a1,1,0,0,1-1.411-1.412l1.29-1.29-1.29-1.29Zm7.4,13.969h0L67.76,453.15a1,1,0,0,1-1.411,0l-2-1.995a1,1,0,0,1,1.411-1.411l1.29,1.29,3.285-3.286a1,1,0,0,1,1.411,1.411Zm0-6.984h0l-3.991,3.991a1,1,0,0,1-1.411,0l-2-2a1,1,0,1,1,1.411-1.41l1.29,1.289,3.285-3.285a1,1,0,1,1,1.411,1.411Zm9.339,9.272H75.037a1,1,0,1,1,0-1.995H81.09a1,1,0,1,1,0,1.995Zm0-6.985H75.037a1,1,0,1,1,0-1.995H81.09a1,1,0,1,1,0,1.995Zm0-6.984H75.037a1,1,0,1,1,0-2H81.09a1,1,0,1,1,0,2Z" transform="translate(-60.004 -427.5)"/></svg>