<svg xmlns="http://www.w3.org/2000/svg" width="30.247" height="30" viewBox="0 0 30.247 30"><defs><style>.a{fill:#ccc;fill-rule:evenodd;}</style></defs><path class="a" d="M89.218,277.73H73.14a.968.968,0,0,0-.968.969v6.828l.7-.818a2.225,2.225,0,0,1,1.235-.729v-4.314H88.251v12.641H74.107v-2.116l-.435.51a2.255,2.255,0,0,1-1.5.775v1.8a.968.968,0,0,0,.968.967h5.221l-2.652,12.044a1,1,0,1,0,1.955.432l2.747-12.476h1.6l2.747,12.476a1,1,0,0,0,.977.785,1.012,1.012,0,0,0,.217-.023,1,1,0,0,0,.762-1.194l-2.653-12.044h5.159a.968.968,0,0,0,.968-.967V278.7a.968.968,0,0,0-.968-.969Zm-24.359,5.287h0a2.813,2.813,0,0,0,2.674,0,2.927,2.927,0,1,0-2.674,0Zm1.875.9H65.659a2.506,2.506,0,0,0-2,1.008l-3.3,3.036a1.251,1.251,0,0,0-.1,1.768l2.69,3a1.251,1.251,0,1,0,1.863-1.67l-1.854-2.071,2.634-2.357-1.534,2.085,1.5,1.675a2.245,2.245,0,0,1-2.418,3.619s.011,5.789.011,11.988a1.5,1.5,0,0,0,3,0v-8.948h1V306a2.475,2.475,0,0,1-.314,1.188,1.484,1.484,0,0,0,.907.313,1.5,1.5,0,0,0,1.5-1.5c0-6.2,0-3.6,0-19.566a2.518,2.518,0,0,0-2.519-2.518Zm14.8-.536h0a.372.372,0,0,1-.16.459l-4.57,2.675-1.737,1.016-2.154,2.518a1.251,1.251,0,0,1-1.764.136l-.892-.765v-2.985c0-.116-.024-.226-.035-.34l1.6,1.375,1.809-2.113a1.252,1.252,0,0,1,1.714-.174l5.7-2.012A.372.372,0,0,1,81.532,283.383Z" transform="translate(-59.939 -277.504)"/></svg>