<svg xmlns="http://www.w3.org/2000/svg" width="30" height="25.448" viewBox="0 0 30 25.448"><defs><style>.a{fill:#ccc;fill-rule:evenodd;}</style></defs><path class="a" d="M325.669,677.515h-2.32a6.021,6.021,0,0,1,.366,2.075v8.768a2.588,2.588,0,0,1-.149.866H327.4a2.6,2.6,0,0,0,2.6-2.6v-4.78a4.336,4.336,0,0,0-4.331-4.331Zm-1.524-8.885a3.895,3.895,0,1,0,3.9,3.9,3.9,3.9,0,0,0-3.9-3.9Zm-18.29,0a3.893,3.893,0,1,0,3.895,3.9,3.9,3.9,0,0,0-3.895-3.9ZM315,663.776a5.207,5.207,0,1,0,5.208,5.208A5.214,5.214,0,0,0,315,663.776Zm2.652,11.483a4.336,4.336,0,0,1,4.331,4.331v8.768a.866.866,0,0,1-.866.866H308.883a.866.866,0,0,1-.866-.866V679.59a4.336,4.336,0,0,1,4.331-4.331Zm-11.367,4.331a6.025,6.025,0,0,1,.366-2.075h-2.32A4.336,4.336,0,0,0,300,681.846v4.78a2.6,2.6,0,0,0,2.6,2.6h3.836a2.588,2.588,0,0,1-.149-.866Z" transform="translate(-300 -663.776)"/></svg>