<svg xmlns="http://www.w3.org/2000/svg" width="29.999" height="23.303" viewBox="0 0 29.999 23.303"><defs><style>.a{fill:#ccc;fill-rule:evenodd;}</style></defs><path class="a" d="M1179.1,55.85a5.815,5.815,0,1,0,5.476,5.805,5.654,5.654,0,0,0-5.476-5.805Zm9.083,21.7h0a8.826,8.826,0,0,0-8.809-8.271h-.547A8.827,8.827,0,0,0,1170,78.105v1.048h18.2V78.105c0-.187-.006-.372-.018-.556Zm3.6-9.968h0A8.227,8.227,0,0,1,1200,75.8v1.75h-10.053a10.559,10.559,0,0,0-3.087-6.929,10.7,10.7,0,0,0-1.041-.915,8.188,8.188,0,0,1,5.509-2.124Zm-.231-10.9h-.037a4.541,4.541,0,0,0-3.333,1.506,5.188,5.188,0,0,0,.058,6.992,4.544,4.544,0,0,0,3.319,1.452h.038a4.542,4.542,0,0,0,3.333-1.506,5.1,5.1,0,0,0,1.327-3.507A4.853,4.853,0,0,0,1191.547,56.68Z" transform="translate(-1169.997 -55.85)"/></svg>