<svg xmlns="http://www.w3.org/2000/svg" width="368.617" height="354.696" viewBox="0 0 368.617 354.696"><defs><style>.a{fill:#5d93cb;}.a,.b,.c,.e,.f,.g,.h,.i,.j,.k,.l,.m,.n,.o,.p,.q,.r,.s,.t,.u{fill-rule:evenodd;}.b{fill:#395c7f;}.c{fill:#df8d3d;}.d,.i{fill:#f4a354;}.e{fill:#ffcf33;}.f{fill:#f9ab38;}.g{fill:#c37a31;}.h{fill:#e09337;}.j{fill:#cc7f32;}.k{fill:#49a3ac;}.l{fill:#78bdbf;}.m{fill:#1f6a5b;}.n{fill:#277b68;}.o{fill:#fdc235;}.p{fill:#ffdc2f;}.q{fill:#e3a536;}.r{fill:#c88d33;}.s{fill:#a6772e;}.t{fill:#e2b133;}.u{fill:#d79a35;}</style></defs><g transform="translate(-852 -96)"><path class="a" d="M2881.86,342.445c-35.839,6.866-65.556,25.152-86.919,51.516-56.7,69.964-39.25,177.5,38.965,240.181C3132.02,873.065,3294.89,263.321,2881.86,342.445Z" transform="translate(-1909.636 -239.305)"/><g transform="translate(-1903.942 -239.578)"><path class="b" d="M3027.01,576.334c0,5.966-22.819,10.8-50.968,10.8s-50.97-4.837-50.97-10.8,22.821-10.8,50.97-10.8S3027.01,570.368,3027.01,576.334Z"/><path class="b" d="M3056.25,592.926c0,5.966-22.82,10.8-50.969,10.8s-50.97-4.837-50.97-10.8,22.821-10.8,50.97-10.8S3056.25,586.961,3056.25,592.926Z"/><path class="c" d="M3022.66,557.4v14.062a5.391,5.391,0,0,1-1.966,3.844,13.905,13.905,0,0,1-1.254,1.032,21.68,21.68,0,0,1-3.219,1.878c-.4.185-.814.38-1.252.565a43.016,43.016,0,0,1-5.1,1.794c-.407.121-.821.245-1.243.368-2.069.553-4.308,1.057-6.71,1.487-.41.073-.83.147-1.252.22-1.969.319-4.029.615-6.174.848-.415.036-.832.086-1.245.123-1.431.146-2.89.257-4.385.355-.415.038-.83.062-1.253.086-1.866.1-3.776.16-5.723.2-.415,0-.83.011-1.251.011h-.9c-1.816,0-3.6-.036-5.365-.1-.422-.012-.837-.037-1.252-.049-1.795-.086-3.555-.209-5.271-.357l-1.261-.109c-1.188-.111-2.347-.247-3.483-.381-.422-.062-.837-.111-1.253-.174-1.445-.194-2.853-.416-4.205-.661-.423-.074-.838-.148-1.245-.234-1.181-.222-2.312-.467-3.407-.736-.421-.1-.836-.2-1.244-.306-1.358-.346-2.64-.714-3.849-1.118-.43-.137-.843-.284-1.251-.431a32.691,32.691,0,0,1-3.484-1.45c-.443-.208-.86-.43-1.26-.65a16.348,16.348,0,0,1-2.675-1.806,9.422,9.422,0,0,1-1.258-1.276,4.788,4.788,0,0,1-1.16-2.973V557.4Z"/><ellipse class="d" cx="42.923" cy="11.349" rx="42.923" ry="11.349" transform="translate(2936.813 546.052)"/><path class="e" d="M3014.97,555.89c0,4.31-15.774,7.8-35.232,7.8s-35.232-3.495-35.232-7.8,15.773-7.806,35.232-7.806S3014.97,551.579,3014.97,555.89Z"/><path class="f" d="M2945.58,557.81c3.863-3.384,17.689-5.888,34.158-5.888s30.3,2.5,34.158,5.888a2.64,2.64,0,0,0,1.074-1.92c0-4.311-15.774-7.806-35.232-7.806s-35.232,3.495-35.232,7.806a2.641,2.641,0,0,0,1.074,1.92Z"/><path class="f" d="M2988.86,570.832v13.14c-.415.038-.83.062-1.253.086V570.832Z"/><path class="f" d="M2994.49,570.832v12.662c-.415.036-.832.086-1.245.123V570.832Z"/><path class="f" d="M3001.91,569.382v13.044c-.41.073-.83.147-1.252.22V569.382Z"/><path class="f" d="M3009.87,567.994v12.577c-.407.121-.821.245-1.243.368V567.994Z"/><path class="f" d="M3016.22,564.618v13.594c-.4.185-.814.38-1.252.565V564.618Z"/><path class="c" d="M3020.69,562.308V575.3a13.9,13.9,0,0,1-1.254,1.032V562.308Z"/><path class="g" d="M2979.57,584.267h1.065v-6.215h-.9q-2.724,0-5.365-.1h0v6.214c1.7.06,3.437.1,5.2.1Zm43.093-12.809v-6.215a5.4,5.4,0,0,1-1.966,3.845h0V575.3a5.394,5.394,0,0,0,1.966-3.844Zm-85.846-6.215v6.215a4.788,4.788,0,0,0,1.16,2.973h0v-6.215a4.787,4.787,0,0,1-1.159-2.973Zm45.069,19.013v-6.215h0c1.947-.037,3.857-.1,5.723-.2v6.214h0c-1.866.1-3.776.16-5.723.2Zm-8.763-.136h0c-1.795-.086-3.555-.209-5.271-.357v-6.214h0c1.716.147,3.476.271,5.271.355Zm15.739-.148v-6.214h0c1.5-.1,2.954-.209,4.385-.357v6.216h0C2991.816,583.763,2990.357,583.874,2988.862,583.972Zm-22.271-.318h0c-1.188-.111-2.347-.247-3.483-.381v-6.215h0c1.136.135,2.295.27,3.483.381Zm27.9-.16v-6.215h0c2.145-.232,4.205-.529,6.174-.847v6.214h0C2998.7,582.965,2996.636,583.261,2994.491,583.494Zm-32.637-.4h0c-1.445-.194-2.853-.416-4.205-.661v-6.216h0c1.352.247,2.76.468,4.205.664V583.1Zm40.063-.673V576.21h0c2.4-.429,4.641-.933,6.71-1.485v6.214h0c-2.069.553-4.308,1.057-6.71,1.487ZM2956.4,582.2h0c-1.181-.222-2.312-.467-3.407-.736v-6.215h0c1.1.269,2.226.517,3.407.736Zm-4.651-1.042h0c-1.358-.346-2.64-.714-3.849-1.118v-6.216h0q1.813.6,3.849,1.118Zm58.117-.591v-6.214h0a43.242,43.242,0,0,0,5.1-1.794v6.214h0A43.027,43.027,0,0,1,3009.866,580.567Zm-63.217-.958h0a32.7,32.7,0,0,1-3.484-1.45v-6.214h0a32.679,32.679,0,0,0,3.484,1.449Zm69.57-1.4V572h0a21.41,21.41,0,0,0,3.219-1.879v6.216h0a21.7,21.7,0,0,1-3.219,1.878Zm-74.314-.7h0a16.335,16.335,0,0,1-2.675-1.806v-6.214h0a16.487,16.487,0,0,0,2.675,1.8Z"/><path class="c" d="M2987.6,584.058v-6.214c.423-.024.838-.049,1.253-.086v6.214C2988.44,584.01,2988.03,584.034,2987.6,584.058Z"/><path class="c" d="M2993.24,583.617V577.4c.413-.036.83-.085,1.245-.122v6.215C2994.07,583.53,2993.66,583.58,2993.24,583.617Z"/><path class="c" d="M3000.66,582.646v-6.214c.422-.074.842-.147,1.252-.222v6.216C3001.5,582.5,3001.08,582.573,3000.66,582.646Z"/><path class="h" d="M3008.62,580.939v-6.214q.633-.186,1.243-.368v6.214C3009.46,580.692,3009.05,580.816,3008.62,580.939Z"/><path class="h" d="M3014.97,578.777v-6.214c.438-.184.852-.38,1.252-.566v6.215C3015.82,578.4,3015.41,578.592,3014.97,578.777Z"/><path class="c" d="M3019.44,576.334v-6.216a13.7,13.7,0,0,0,1.254-1.03V575.3a13.938,13.938,0,0,1-1.254,1.034Z"/><path class="c" d="M3018.96,540.321v14.062a5.389,5.389,0,0,1-1.965,3.844,13.96,13.96,0,0,1-1.253,1.032,21.922,21.922,0,0,1-3.219,1.879c-.4.184-.816.381-1.253.564a42.885,42.885,0,0,1-5.1,1.794c-.408.123-.822.245-1.244.369-2.066.552-4.306,1.054-6.71,1.485-.408.073-.831.147-1.253.221-1.967.319-4.027.615-6.173.848-.415.037-.829.086-1.246.122-1.43.148-2.889.259-4.385.356-.414.038-.829.062-1.251.087-1.866.1-3.778.16-5.724.2-.414,0-.83.012-1.252.012h-.893c-1.818,0-3.607-.037-5.366-.1-.422-.01-.836-.036-1.251-.048-1.8-.086-3.556-.209-5.272-.356-.422-.036-.845-.074-1.26-.111-1.188-.11-2.347-.246-3.484-.38-.422-.061-.838-.111-1.252-.172-1.445-.2-2.854-.418-4.205-.664-.423-.073-.838-.147-1.247-.233q-1.768-.33-3.4-.737c-.422-.1-.837-.2-1.244-.307-1.362-.344-2.641-.711-3.851-1.117-.429-.135-.844-.282-1.252-.431a32.614,32.614,0,0,1-3.483-1.449c-.444-.208-.859-.429-1.26-.651a16.153,16.153,0,0,1-2.675-1.8,9.413,9.413,0,0,1-1.259-1.277,4.79,4.79,0,0,1-1.16-2.972v-14.07Z"/><path class="i" d="M3018.96,540.326c0,6.267-19.217,11.349-42.921,11.349s-42.925-5.082-42.925-11.349,19.219-11.348,42.925-11.348S3018.96,534.058,3018.96,540.326Z"/><path class="e" d="M3011.27,538.816c0,4.31-15.774,7.8-35.231,7.8s-35.233-3.495-35.233-7.8,15.774-7.807,35.233-7.807S3011.27,534.505,3011.27,538.816Z"/><path class="f" d="M2941.88,540.735c3.861-3.384,17.687-5.887,34.157-5.887s30.295,2.5,34.155,5.887a2.639,2.639,0,0,0,1.075-1.919c0-4.311-15.773-7.807-35.23-7.807s-35.233,3.5-35.233,7.807a2.633,2.633,0,0,0,1.076,1.919Z"/><path class="f" d="M2990.79,553.756v12.663c-.415.037-.829.086-1.246.122V553.756Z"/><path class="f" d="M2998.22,552.307V565.35c-.408.073-.831.147-1.253.221V552.307Z"/><path class="f" d="M3006.17,550.92V563.5c-.408.123-.822.245-1.244.369V550.92Z"/><path class="f" d="M3012.52,547.541v13.6c-.4.184-.816.381-1.253.564V547.541Z"/><path class="f" d="M3017,545.233v12.994a13.973,13.973,0,0,1-1.253,1.032V545.233Z"/><path class="g" d="M2975.87,567.193h1.064v-6.215h-.893c-1.818,0-3.607-.037-5.366-.1h0v6.213c1.7.061,3.436.1,5.2.1Zm43.092-12.81v-6.214a5.388,5.388,0,0,1-1.965,3.843h0v6.215a5.39,5.39,0,0,0,1.965-3.844Zm-85.846-6.214v6.214a4.788,4.788,0,0,0,1.16,2.972h0V551.14a4.789,4.789,0,0,1-1.16-2.971Zm45.07,19.012v-6.215h0c1.946-.037,3.858-.1,5.724-.2v6.216h0c-1.866.1-3.778.16-5.724.2Zm-8.762-.136h0c-1.8-.086-3.556-.209-5.272-.356v-6.215h0c1.716.147,3.476.271,5.272.357v6.214Zm15.737-.148v-6.214h0c1.5-.1,2.955-.209,4.385-.356v6.214h0C2988.116,566.689,2986.657,566.8,2985.161,566.9Zm-22.269-.319h0c-1.188-.11-2.347-.246-3.484-.38v-6.215h0c1.137.135,2.3.27,3.484.381v6.214Zm27.9-.159V560.2h0c2.146-.233,4.206-.528,6.173-.848v6.215h0c-1.967.319-4.027.615-6.173.848Zm-32.636-.393h0c-1.445-.2-2.854-.418-4.205-.664v-6.215h0c1.351.246,2.76.468,4.205.663Zm40.062-.676v-6.215h0c2.4-.429,4.644-.932,6.71-1.485v6.215h0C3002.862,564.417,3000.622,564.919,2998.218,565.35Zm-45.514-.221h0q-1.768-.33-3.4-.737v-6.215h0q1.641.406,3.4.737Zm-4.648-1.044h0c-1.362-.344-2.641-.711-3.851-1.117v-6.215h0c1.21.405,2.489.774,3.851,1.118v6.214Zm58.116-.589v-6.214h0a43.091,43.091,0,0,0,5.1-1.794V561.7h0a42.907,42.907,0,0,1-5.1,1.794Zm-63.219-.959h0a32.613,32.613,0,0,1-3.483-1.449v-6.215h0a33.01,33.01,0,0,0,3.483,1.451Zm69.572-1.4v-6.215h0a21.847,21.847,0,0,0,3.219-1.879v6.215h0a21.927,21.927,0,0,1-3.219,1.879Zm-74.315-.7h0a16.145,16.145,0,0,1-2.675-1.8v-6.215h0a16.2,16.2,0,0,0,2.675,1.806Z"/><path class="h" d="M2989.54,566.541v-6.214c.417-.038.831-.086,1.246-.123v6.215C2990.38,566.456,2989.96,566.505,2989.54,566.541Z"/><path class="h" d="M2996.96,565.571v-6.215c.422-.074.845-.146,1.253-.221v6.215C2997.81,565.423,2997.39,565.5,2996.96,565.571Z"/><path class="h" d="M3004.93,563.865V557.65q.633-.185,1.244-.368V563.5C3005.76,563.619,3005.35,563.741,3004.93,563.865Z"/><path class="h" d="M3011.27,561.7v-6.214c.437-.184.853-.38,1.253-.565v6.215C3012.12,561.322,3011.71,561.519,3011.27,561.7Z"/><path class="h" d="M3015.74,559.259v-6.215a14.072,14.072,0,0,0,1.253-1.032v6.215A13.973,13.973,0,0,1,3015.74,559.259Z"/><path class="c" d="M3022.66,522.392v14.062a5.4,5.4,0,0,1-1.966,3.846,14.088,14.088,0,0,1-1.254,1.031,21.619,21.619,0,0,1-3.219,1.878c-.4.186-.814.382-1.252.566a42.87,42.87,0,0,1-5.1,1.793c-.407.123-.821.245-1.243.369-2.069.552-4.308,1.056-6.71,1.485-.41.075-.83.149-1.252.223-1.969.318-4.029.613-6.174.846-.415.037-.832.085-1.245.123-1.431.147-2.89.258-4.385.356-.415.036-.83.061-1.253.086-1.866.1-3.776.16-5.723.2-.415,0-.83.013-1.251.013h-.9c-1.816,0-3.6-.037-5.365-.1-.422-.012-.837-.037-1.252-.05-1.795-.086-3.555-.209-5.271-.356-.424-.036-.845-.075-1.261-.111-1.188-.11-2.347-.245-3.483-.38-.422-.061-.837-.111-1.253-.173-1.445-.2-2.853-.417-4.205-.663-.423-.073-.838-.146-1.245-.233-1.181-.22-2.312-.466-3.407-.737-.421-.1-.836-.2-1.244-.306-1.358-.345-2.64-.712-3.849-1.118-.43-.136-.843-.283-1.251-.43a32.661,32.661,0,0,1-3.484-1.45c-.443-.208-.86-.429-1.26-.65a16.352,16.352,0,0,1-2.675-1.806,9.26,9.26,0,0,1-1.258-1.277,4.783,4.783,0,0,1-1.16-2.973V522.392Z"/><path class="i" d="M3022.66,522.4c0,6.266-19.217,11.347-42.923,11.347s-42.923-5.081-42.923-11.347,19.217-11.35,42.923-11.35S3022.66,516.13,3022.66,522.4Z"/><path class="e" d="M3014.97,520.888c0,4.311-15.774,7.8-35.232,7.8s-35.232-3.494-35.232-7.8,15.773-7.806,35.232-7.806S3014.97,516.577,3014.97,520.888Z"/><path class="f" d="M2945.58,522.807c3.863-3.383,17.689-5.887,34.158-5.887s30.3,2.5,34.158,5.887a2.639,2.639,0,0,0,1.074-1.919c0-4.311-15.774-7.806-35.232-7.806s-35.232,3.5-35.232,7.806a2.641,2.641,0,0,0,1.074,1.919Z"/><path class="g" d="M2979.57,549.265h1.065V543.05h-.9c-1.816,0-3.6-.036-5.365-.1h0v6.215c1.7.059,3.437.1,5.2.1Zm43.093-12.811v-6.213a5.4,5.4,0,0,1-1.966,3.844h0V540.3a5.4,5.4,0,0,0,1.966-3.846Zm-85.846-6.213v6.213a4.783,4.783,0,0,0,1.16,2.973h0v-6.215a4.782,4.782,0,0,1-1.16-2.971Zm45.069,19.011v-6.214h0c1.947-.037,3.857-.1,5.723-.2v6.214h0C2985.743,549.152,2983.833,549.212,2981.886,549.252Zm-8.763-.135h0c-1.795-.086-3.555-.209-5.271-.356v-6.215h0c1.716.148,3.476.271,5.271.358v6.213Zm15.739-.147v-6.214h0c1.5-.1,2.954-.21,4.385-.356v6.214h0C2991.816,548.761,2990.357,548.872,2988.862,548.97Zm-22.271-.32h0c-1.188-.11-2.347-.245-3.483-.38v-6.214h0c1.136.134,2.295.27,3.483.381Zm27.9-.159v-6.215h0c2.145-.233,4.205-.528,6.174-.846v6.215h0C2998.7,547.963,2996.636,548.258,2994.491,548.491Zm-32.637-.394h0c-1.445-.2-2.853-.417-4.205-.663V541.22h0c1.352.245,2.76.468,4.205.663V548.1Zm40.063-.675v-6.213h0c2.4-.431,4.641-.934,6.71-1.487v6.215h0C3006.558,546.489,3004.319,546.993,3001.917,547.422ZM2956.4,547.2h0c-1.181-.22-2.312-.466-3.407-.737V540.25h0c1.1.27,2.226.517,3.407.737Zm-4.651-1.043h0c-1.358-.345-2.64-.712-3.849-1.118v-6.214h0q1.813.6,3.849,1.117v6.215Zm58.117-.59v-6.214h0a42.693,42.693,0,0,0,5.1-1.794v6.215h0a42.87,42.87,0,0,1-5.1,1.793Zm-63.217-.958h0a32.674,32.674,0,0,1-3.484-1.45v-6.214h0a32.676,32.676,0,0,0,3.484,1.449Zm69.57-1.4v-6.214h0a21.6,21.6,0,0,0,3.219-1.879v6.215h0a21.614,21.614,0,0,1-3.219,1.878Zm-74.314-.7h0a16.332,16.332,0,0,1-2.675-1.806V534.49h0a16.48,16.48,0,0,0,2.675,1.806Z"/><path class="c" d="M3027.28,505.318V519.38a5.393,5.393,0,0,1-1.967,3.845,13.832,13.832,0,0,1-1.252,1.031,21.943,21.943,0,0,1-3.219,1.879c-.4.185-.817.381-1.253.565a42.6,42.6,0,0,1-5.1,1.794c-.408.122-.822.246-1.244.368-2.067.552-4.308,1.055-6.711,1.485-.408.075-.829.148-1.251.221-1.968.32-4.028.614-6.173.849-.417.036-.831.085-1.246.122-1.431.147-2.891.258-4.387.356-.413.037-.829.062-1.25.085-1.867.1-3.776.16-5.724.2-.416,0-.829.013-1.25.013h-.9c-1.818,0-3.606-.037-5.367-.1-.421-.013-.836-.037-1.251-.05-1.795-.085-3.555-.208-5.272-.356l-1.26-.11c-1.187-.111-2.347-.247-3.482-.381-.422-.062-.839-.111-1.254-.173-1.445-.2-2.853-.415-4.206-.663-.421-.072-.837-.146-1.245-.233-1.18-.22-2.311-.467-3.406-.736-.421-.1-.836-.2-1.243-.308q-2.04-.513-3.849-1.117c-.43-.134-.844-.282-1.251-.429a33.019,33.019,0,0,1-3.485-1.451c-.443-.208-.858-.429-1.259-.65a16.267,16.267,0,0,1-2.675-1.8,9.424,9.424,0,0,1-1.259-1.277,4.786,4.786,0,0,1-1.16-2.973V505.318Z"/><path class="i" d="M3027.28,505.323c0,6.267-19.216,11.349-42.922,11.349s-42.924-5.082-42.924-11.349,19.218-11.349,42.924-11.349S3027.28,499.056,3027.28,505.323Z"/><path class="j" d="M3019.59,503.813c0,4.311-15.773,7.8-35.231,7.8s-35.232-3.494-35.232-7.8,15.773-7.806,35.232-7.806S3019.59,499.5,3019.59,503.813Z"/><path class="f" d="M2950.2,505.732c3.862-3.384,17.689-5.888,34.158-5.888s30.293,2.5,34.157,5.888a2.637,2.637,0,0,0,1.074-1.919c0-4.311-15.773-7.806-35.231-7.806s-35.232,3.5-35.232,7.806a2.636,2.636,0,0,0,1.074,1.919Z"/><path class="g" d="M2984.19,532.19h1.066v-6.215h-.9c-1.818,0-3.606-.037-5.367-.1h0v6.215c1.706.059,3.437.1,5.2.1Zm43.093-12.81v-6.215a5.393,5.393,0,0,1-1.967,3.845h0v6.215a5.394,5.394,0,0,0,1.967-3.845Zm-85.846-6.215v6.215a4.787,4.787,0,0,0,1.16,2.973h0v-6.214a4.788,4.788,0,0,1-1.16-2.974Zm45.069,19.012v-6.213h0c1.948-.038,3.857-.1,5.724-.2v6.213h0C2990.363,532.077,2988.454,532.137,2986.506,532.177Zm-8.763-.135h0c-1.795-.085-3.555-.208-5.272-.356v-6.215h0c1.717.147,3.477.271,5.272.357v6.214Zm15.737-.147v-6.214h0c1.5-.1,2.956-.21,4.387-.356v6.214h0C2996.436,531.686,2994.976,531.8,2993.48,531.9Zm-22.269-.319h0c-1.187-.111-2.347-.247-3.482-.381V524.98h0c1.135.135,2.295.271,3.482.381v6.215Zm27.9-.159V525.2h0c2.145-.235,4.2-.53,6.173-.848v6.213h0c-1.968.32-4.028.614-6.173.849Zm-32.638-.4h0c-1.445-.2-2.853-.415-4.206-.663V524.14h0c1.353.247,2.761.467,4.206.663Zm40.062-.675v-6.213h0c2.4-.431,4.644-.934,6.711-1.487v6.215h0C3011.179,529.409,3008.938,529.912,3006.535,530.342Zm-45.513-.221h0c-1.18-.22-2.311-.467-3.406-.736v-6.214h0c1.095.269,2.226.514,3.406.736Zm-4.649-1.044h0q-2.04-.513-3.849-1.117v-6.21h0c1.208.405,2.489.774,3.849,1.119v6.213Zm58.117-.588v-6.216h0a42.778,42.778,0,0,0,5.1-1.793v6.22h0a42.582,42.582,0,0,1-5.1,1.794Zm-63.217-.958h0a33.019,33.019,0,0,1-3.485-1.451v-6.214h0a32.561,32.561,0,0,0,3.485,1.449Zm69.57-1.4V519.92h0a21.958,21.958,0,0,0,3.219-1.878v6.214h0a21.973,21.973,0,0,1-3.219,1.879Zm-74.314-.7h0a16.277,16.277,0,0,1-2.675-1.8v-6.215h0a16.152,16.152,0,0,0,2.675,1.8Z"/><path class="c" d="M3025.4,485v14.062a5.386,5.386,0,0,1-1.968,3.844,13.245,13.245,0,0,1-1.253,1.032,21.529,21.529,0,0,1-3.219,1.879c-.4.185-.814.381-1.251.566a43.076,43.076,0,0,1-5.1,1.793c-.407.122-.821.246-1.243.368-2.068.552-4.308,1.056-6.71,1.486-.408.074-.831.148-1.252.22-1.968.32-4.028.616-6.173.849-.415.037-.832.086-1.245.123-1.431.147-2.891.258-4.385.356-.416.036-.831.06-1.253.085-1.867.1-3.777.16-5.723.2-.415,0-.831.013-1.251.013h-.9c-1.817,0-3.606-.037-5.366-.1-.422-.011-.837-.037-1.251-.049q-2.694-.131-5.272-.356l-1.261-.111c-1.187-.11-2.347-.245-3.483-.381-.421-.061-.836-.111-1.253-.172-1.444-.2-2.853-.417-4.205-.664-.422-.072-.837-.146-1.245-.233-1.18-.22-2.311-.466-3.406-.735-.421-.1-.837-.2-1.244-.307-1.358-.344-2.64-.713-3.849-1.119-.43-.134-.843-.282-1.251-.429a32.539,32.539,0,0,1-3.484-1.45c-.444-.208-.859-.43-1.259-.65a16.348,16.348,0,0,1-2.676-1.806,9.122,9.122,0,0,1-1.258-1.277,4.78,4.78,0,0,1-1.162-2.973V485Z"/><path class="i" d="M3025.4,485.005c0,6.267-19.218,11.347-42.923,11.347s-42.925-5.08-42.925-11.347,19.218-11.349,42.925-11.349S3025.4,478.736,3025.4,485.005Z"/><path class="e" d="M3017.71,483.495c0,4.309-15.774,7.8-35.232,7.8s-35.233-3.5-35.233-7.8,15.774-7.807,35.233-7.807S3017.71,479.182,3017.71,483.495Z"/><path class="f" d="M2948.32,485.414c3.863-3.384,17.69-5.888,34.159-5.888s30.295,2.5,34.157,5.888a2.642,2.642,0,0,0,1.075-1.919c0-4.313-15.774-7.807-35.232-7.807s-35.233,3.494-35.233,7.807a2.64,2.64,0,0,0,1.074,1.919Z"/><path class="g" d="M2982.31,511.872h1.066v-6.215h-.9c-1.817,0-3.606-.037-5.366-.1h0v6.214c1.7.06,3.437.1,5.2.1Zm43.094-12.811v-6.215a5.391,5.391,0,0,1-1.968,3.845h0V502.9a5.386,5.386,0,0,0,1.968-3.844Zm-85.848-6.215v6.215a4.78,4.78,0,0,0,1.162,2.973h0v-6.215a4.781,4.781,0,0,1-1.162-2.973Zm45.071,19.013v-6.215h0q2.919-.054,5.723-.2v6.213h0c-1.867.1-3.777.16-5.723.2Zm-8.763-.135h0q-2.694-.131-5.272-.356v-6.216h0c1.717.148,3.476.272,5.272.357Zm15.739-.147v-6.215h0c1.494-.1,2.954-.21,4.385-.356v6.215h0C2994.557,511.368,2993.1,511.479,2991.6,511.577Zm-22.272-.32h0c-1.187-.11-2.347-.245-3.483-.381v-6.213h0c1.136.134,2.3.269,3.483.38v6.214Zm27.9-.159v-6.215h0c2.145-.233,4.205-.528,6.173-.847v6.213h0c-1.968.32-4.028.616-6.173.849Zm-32.638-.394h0c-1.444-.2-2.853-.417-4.205-.664v-6.213h0c1.352.245,2.761.466,4.205.662V510.7Zm40.063-.675v-6.215h0c2.4-.429,4.642-.933,6.71-1.485v6.214h0C3009.3,509.1,3007.058,509.6,3004.656,510.029Zm-45.513-.222h0c-1.18-.22-2.311-.466-3.406-.735v-6.215h0c1.095.27,2.226.516,3.406.736Zm-4.65-1.042h0c-1.358-.344-2.64-.713-3.849-1.119v-6.213h0q1.813.6,3.849,1.117Zm58.116-.59V501.96h0a42.716,42.716,0,0,0,5.1-1.793v6.215h0A43.058,43.058,0,0,1,3012.609,508.175Zm-63.216-.958h0a32.58,32.58,0,0,1-3.484-1.45v-6.215h0a32.369,32.369,0,0,0,3.484,1.45Zm69.569-1.4V499.6h0a21.437,21.437,0,0,0,3.219-1.878v6.214h0a21.515,21.515,0,0,1-3.219,1.879Zm-74.312-.7h0a16.342,16.342,0,0,1-2.676-1.806V497.1h0a16.283,16.283,0,0,0,2.676,1.806Z"/><path class="c" d="M3021.7,467.925v14.063a5.386,5.386,0,0,1-1.966,3.843,14.01,14.01,0,0,1-1.253,1.032,21.92,21.92,0,0,1-3.219,1.879c-.4.184-.815.38-1.252.564a42.859,42.859,0,0,1-5.1,1.794q-.612.184-1.245.368c-2.066.553-4.306,1.056-6.709,1.486-.409.074-.832.147-1.253.221-1.967.32-4.027.615-6.174.848-.415.036-.829.086-1.245.122-1.43.148-2.89.258-4.385.357-.415.036-.83.062-1.252.086-1.866.1-3.778.159-5.724.2-.414,0-.83.012-1.251.012h-.894c-1.818,0-3.6-.037-5.366-.1-.422-.012-.836-.036-1.251-.049-1.8-.085-3.554-.209-5.272-.356-.422-.036-.844-.074-1.26-.111-1.187-.11-2.346-.245-3.484-.38-.422-.062-.837-.111-1.252-.173-1.445-.2-2.854-.417-4.2-.663-.424-.073-.839-.147-1.248-.233-1.179-.22-2.309-.466-3.4-.737-.422-.1-.838-.2-1.246-.307-1.36-.344-2.64-.712-3.85-1.118-.428-.134-.843-.282-1.251-.43a32.148,32.148,0,0,1-3.483-1.449c-.444-.208-.859-.428-1.259-.65a16.223,16.223,0,0,1-2.677-1.806,9.4,9.4,0,0,1-1.258-1.277,4.784,4.784,0,0,1-1.16-2.971V467.925Z"/><path class="i" d="M3021.7,467.93c0,6.267-19.218,11.348-42.922,11.348s-42.924-5.081-42.924-11.348,19.218-11.35,42.924-11.35S3021.7,461.662,3021.7,467.93Z"/><path class="e" d="M3014.01,466.42c0,4.311-15.774,7.8-35.232,7.8s-35.233-3.494-35.233-7.8,15.774-7.807,35.233-7.807S3014.01,462.109,3014.01,466.42Z"/><path class="f" d="M2944.62,468.339c3.861-3.383,17.687-5.887,34.157-5.887s30.3,2.5,34.155,5.887a2.633,2.633,0,0,0,1.077-1.919c0-4.311-15.774-7.807-35.232-7.807s-35.233,3.5-35.233,7.807a2.637,2.637,0,0,0,1.076,1.919Z"/><path class="g" d="M2978.61,494.8h1.065v-6.215h-.894c-1.818,0-3.6-.037-5.366-.1h0V494.7c1.706.06,3.436.1,5.2.1Zm-42.753-19.025v6.216a4.784,4.784,0,0,0,1.16,2.971h0v-6.214a4.785,4.785,0,0,1-1.16-2.973Zm45.069,19.013V488.57h0c1.946-.037,3.858-.1,5.724-.2v6.215h0c-1.866.1-3.778.159-5.724.2Zm-8.762-.136h0c-1.8-.085-3.554-.209-5.272-.356v-6.214h0c1.718.147,3.476.27,5.272.356Zm15.738-.147v-6.216h0c1.5-.1,2.955-.207,4.385-.354v6.213h0C2990.857,494.3,2989.4,494.406,2987.9,494.505Zm-22.27-.32h0c-1.187-.11-2.346-.245-3.484-.38V487.59h0c1.138.134,2.3.27,3.484.381Zm27.9-.159v-6.215h0c2.147-.233,4.207-.528,6.174-.848v6.215h0C2997.739,493.5,2995.679,493.793,2993.532,494.026Zm-32.636-.394h0c-1.445-.2-2.854-.417-4.2-.663v-6.215h0c1.35.246,2.759.468,4.2.663Zm40.063-.675V486.74h0c2.4-.43,4.643-.933,6.709-1.486v6.214h0c-2.066.553-4.306,1.056-6.709,1.486Zm-45.515-.221h0c-1.179-.22-2.309-.466-3.4-.737v-6.214h0c1.094.269,2.224.516,3.4.736Zm-4.649-1.044h0c-1.36-.344-2.64-.712-3.85-1.118V484.36h0c1.21.4,2.49.773,3.85,1.118Zm58.118-.589v-6.214h0a42.663,42.663,0,0,0,5.1-1.795v6.215h0a42.842,42.842,0,0,1-5.1,1.794Zm-63.219-.959h0a32.148,32.148,0,0,1-3.483-1.449v-6.214h0a32.74,32.74,0,0,0,3.483,1.449Zm69.571-1.4v-6.215h0a21.92,21.92,0,0,0,3.219-1.879v6.215h0a21.914,21.914,0,0,1-3.219,1.879Zm-74.313-.7h0a16.223,16.223,0,0,1-2.677-1.806v-6.214h0a16.353,16.353,0,0,0,2.677,1.8v6.215Zm78.785-2.211v-6.214h0a5.387,5.387,0,0,0,1.966-3.845v6.216a5.387,5.387,0,0,1-1.963,3.841Z"/><path class="c" d="M3025.4,450v14.061a5.394,5.394,0,0,1-1.968,3.846,13.543,13.543,0,0,1-1.253,1.031,21.486,21.486,0,0,1-3.219,1.878c-.4.185-.814.381-1.251.566a42.875,42.875,0,0,1-5.1,1.793q-.61.185-1.243.368c-2.068.554-4.308,1.057-6.71,1.486-.408.074-.831.149-1.252.222-1.968.319-4.028.614-6.173.847-.415.037-.832.086-1.245.124-1.431.145-2.891.257-4.385.355-.416.037-.831.062-1.253.086-1.867.1-3.777.16-5.723.2-.415,0-.831.012-1.251.012h-.9q-2.725,0-5.366-.1c-.422-.013-.837-.037-1.251-.05-1.8-.085-3.555-.208-5.272-.357l-1.261-.109c-1.187-.111-2.347-.246-3.483-.382-.421-.06-.836-.109-1.253-.171-1.444-.2-2.853-.418-4.205-.664-.422-.072-.837-.146-1.245-.233-1.18-.22-2.311-.466-3.406-.736-.421-.1-.837-.2-1.244-.307-1.358-.345-2.64-.712-3.849-1.117-.43-.137-.843-.285-1.251-.431a32.363,32.363,0,0,1-3.484-1.45c-.444-.208-.859-.429-1.259-.65a16.282,16.282,0,0,1-2.676-1.806,9.122,9.122,0,0,1-1.258-1.277,4.781,4.781,0,0,1-1.162-2.973V450Z"/><path class="i" d="M3025.4,450c0,6.267-19.218,11.348-42.923,11.348s-42.925-5.081-42.925-11.348,19.218-11.35,42.925-11.35S3025.4,443.733,3025.4,450Z"/><path class="e" d="M3017.71,448.492c0,4.31-15.774,7.8-35.232,7.8s-35.233-3.495-35.233-7.8,15.774-7.806,35.233-7.806S3017.71,444.18,3017.71,448.492Z"/><path class="f" d="M2948.32,450.411c3.863-3.383,17.69-5.887,34.159-5.887s30.295,2.5,34.157,5.887a2.643,2.643,0,0,0,1.075-1.919c0-4.312-15.774-7.806-35.232-7.806s-35.233,3.494-35.233,7.806a2.641,2.641,0,0,0,1.074,1.919Z"/><path class="g" d="M2982.31,476.869h1.066v-6.215h-.9q-2.725,0-5.366-.1h0v6.215c1.7.06,3.437.1,5.2.1Zm43.094-12.811v-6.214a5.393,5.393,0,0,1-1.968,3.846h0v6.21a5.394,5.394,0,0,0,1.968-3.846Zm-85.848-6.214v6.214a4.781,4.781,0,0,0,1.162,2.973h0v-6.215a4.776,4.776,0,0,1-1.162-2.972Zm45.071,19.013v-6.215h0c1.946-.037,3.856-.1,5.723-.2v6.215h0C2988.483,476.757,2986.573,476.817,2984.627,476.857Zm-8.763-.136h0c-1.8-.085-3.555-.208-5.272-.357v-6.213h0c1.717.147,3.476.27,5.272.355Zm15.739-.147v-6.215h0c1.494-.1,2.954-.208,4.385-.355v6.215h0C2994.557,476.364,2993.1,476.476,2991.6,476.574Zm-22.272-.319h0c-1.187-.111-2.347-.246-3.483-.382V469.66h0c1.136.134,2.3.27,3.483.38Zm27.9-.16v-6.214h0c2.145-.234,4.205-.529,6.173-.848v6.215h0C3001.436,475.567,2999.376,475.862,2997.231,476.1Zm-32.638-.393h0c-1.444-.2-2.853-.418-4.205-.664v-6.214h0c1.352.245,2.761.467,4.205.663V475.7Zm40.063-.676v-6.214h0c2.4-.43,4.642-.934,6.71-1.485v6.213h0c-2.068.554-4.308,1.057-6.71,1.486Zm-45.513-.221h0c-1.18-.22-2.311-.466-3.406-.736v-6.215h0c1.095.27,2.226.516,3.406.737V474.8Zm-4.65-1.043h0c-1.358-.345-2.64-.712-3.849-1.117V466.43h0q1.813.6,3.849,1.117Zm58.116-.59v-6.215h0a42.52,42.52,0,0,0,5.1-1.793v6.215h0a42.847,42.847,0,0,1-5.1,1.793Zm-63.216-.958h0a32.376,32.376,0,0,1-3.484-1.45V464.55h0a32.564,32.564,0,0,0,3.484,1.449Zm69.569-1.4V464.6h0a21.437,21.437,0,0,0,3.219-1.878v6.215h0a21.494,21.494,0,0,1-3.219,1.878Zm-74.312-.7h0a16.267,16.267,0,0,1-2.676-1.806V462.1h0a16.407,16.407,0,0,0,2.676,1.8Z"/><path class="c" d="M3030.02,432.922v14.062a5.386,5.386,0,0,1-1.966,3.844,14.066,14.066,0,0,1-1.252,1.032,21.885,21.885,0,0,1-3.219,1.879c-.4.184-.817.381-1.252.564a42.751,42.751,0,0,1-5.1,1.8q-.61.183-1.244.368c-2.067.552-4.308,1.055-6.71,1.486l-1.253.221c-1.966.319-4.026.614-6.172.847-.415.037-.831.086-1.246.123-1.43.147-2.89.258-4.386.356-.414.037-.83.062-1.25.086-1.868.1-3.777.159-5.725.2-.415,0-.829.012-1.251.012h-.894c-1.817,0-3.6-.037-5.366-.1-.422-.012-.837-.036-1.251-.049-1.8-.085-3.556-.208-5.272-.356-.422-.035-.845-.073-1.26-.11-1.187-.111-2.347-.247-3.483-.38-.421-.062-.837-.111-1.254-.173-1.445-.2-2.853-.417-4.205-.664-.422-.072-.837-.147-1.245-.233-1.181-.22-2.312-.467-3.406-.736-.421-.1-.837-.2-1.242-.308-1.361-.343-2.643-.712-3.851-1.117-.43-.134-.844-.282-1.25-.429a32.935,32.935,0,0,1-3.485-1.45c-.444-.209-.859-.43-1.259-.651a16.223,16.223,0,0,1-2.676-1.806,9.356,9.356,0,0,1-1.258-1.276,4.782,4.782,0,0,1-1.161-2.973V432.922Z"/><path class="i" d="M3030.02,432.927c0,6.267-19.216,11.349-42.921,11.349s-42.925-5.082-42.925-11.349,19.218-11.349,42.925-11.349S3030.02,426.659,3030.02,432.927Z"/><path class="j" d="M3022.33,431.417c0,4.31-15.774,7.8-35.231,7.8s-35.233-3.495-35.233-7.8,15.773-7.806,35.233-7.806S3022.33,427.106,3022.33,431.417Z"/><path class="g" d="M2952.94,433.336c3.862-3.383,17.688-5.887,34.158-5.887s30.294,2.5,34.156,5.887a2.639,2.639,0,0,0,1.075-1.919c0-4.311-15.774-7.806-35.231-7.806s-35.233,3.495-35.233,7.806A2.642,2.642,0,0,0,2952.94,433.336Z"/><path class="g" d="M2986.93,459.794h1.065V453.58h-.894c-1.817,0-3.6-.038-5.366-.1h0v6.22c1.706.06,3.437.1,5.2.1Zm-42.753-19.024v6.214a4.781,4.781,0,0,0,1.161,2.973h0v-6.214a4.788,4.788,0,0,1-1.161-2.973Zm45.069,19.012v-6.214h0c1.948-.038,3.857-.1,5.725-.2v6.215h0c-1.868.1-3.777.159-5.725.2Zm-8.762-.136h0c-1.8-.085-3.556-.208-5.272-.356v-6.214h0q2.574.222,5.272.357v6.213Zm15.737-.147v-6.214h0c1.5-.1,2.956-.209,4.386-.356v6.214h0C2999.177,459.29,2997.717,459.4,2996.221,459.5Zm-22.269-.319h0c-1.187-.111-2.347-.247-3.483-.38v-6.216h0c1.136.134,2.3.271,3.483.381Zm27.9-.16v-6.214h0c2.146-.233,4.206-.528,6.172-.848v6.215h0C3006.058,458.492,3004,458.787,3001.852,459.02Zm-32.638-.393h0c-1.445-.2-2.853-.417-4.205-.664v-6.214h0c1.352.247,2.76.467,4.205.663Zm40.063-.675v-6.215h0c2.4-.429,4.643-.933,6.71-1.486v6.215h0C3013.92,457.018,3011.679,457.521,3009.277,457.952Zm-45.513-.222h0c-1.181-.22-2.312-.467-3.406-.736V450.78h0c1.094.268,2.225.514,3.406.735v6.215Zm-4.648-1.044h0c-1.361-.343-2.643-.712-3.851-1.117v-6.216h0c1.208.407,2.49.776,3.851,1.119v6.214Zm58.115-.588v-6.216h0a42.745,42.745,0,0,0,5.1-1.793V454.3h0a42.751,42.751,0,0,1-5.1,1.8Zm-63.216-.958h0a32.948,32.948,0,0,1-3.485-1.45v-6.215h0a32.494,32.494,0,0,0,3.485,1.45Zm69.569-1.4v-6.215h0a21.937,21.937,0,0,0,3.22-1.879v6.215h0a21.865,21.865,0,0,1-3.22,1.879Zm-74.313-.7h0a16.207,16.207,0,0,1-2.676-1.806v-6.215h0a16.215,16.215,0,0,0,2.676,1.806Zm78.785-2.211v-6.214h0a5.4,5.4,0,0,0,1.966-3.844v6.214a5.386,5.386,0,0,1-1.962,3.843Z"/><path class="j" d="M3051.89,584.91c-.555.445-1.108.871-1.678,1.275-.474.344-.945.667-1.433.968a35.348,35.348,0,0,1-3.263,1.892c-.528.28-1.053.536-1.586.781a36.956,36.956,0,0,1-6.866,2.341c-.617.167-1.26.3-1.878.415a37.129,37.129,0,0,1-4.517.54,20.2,20.2,0,0,1-2.153.071,32.585,32.585,0,0,1-5.031-.3c-.87-.106-1.718-.248-2.547-.419a36.236,36.236,0,0,1-5.827-1.657,32.35,32.35,0,0,1-3.375-1.452,37.306,37.306,0,0,1-12.746-10.2l-5.353-6.66L3052.3,525.35l5.354,6.66a37.38,37.38,0,0,1,7.509,15.958,29.634,29.634,0,0,1,.548,3.432,35.454,35.454,0,0,1,.17,6.165c-.027.828-.11,1.661-.209,2.49a38.048,38.048,0,0,1-1.882,8.091c-.221.611-.448,1.237-.709,1.845a36.879,36.879,0,0,1-3.639,6.745c-.338.491-.674.979-1.04,1.456a35.358,35.358,0,0,1-3.789,4.288c-.4.412-.815.8-1.253,1.189Q3052.64,584.307,3051.89,584.91Z"/><path class="c" d="M3050.21,586.185c-.474.344-.945.667-1.433.968l-6.583-8.189,1.343-1.08Z"/><path class="c" d="M3045.51,589.045c-.528.28-1.053.536-1.586.781l-8.09-10.065,1.345-1.081Z"/><path class="c" d="M3037.06,592.167c-.617.167-1.26.3-1.878.415l-7.967-9.911,1.342-1.081Z"/><path class="c" d="M3030.67,593.122a20.2,20.2,0,0,1-2.153.071l-8.271-10.289,1.343-1.079Z"/><path class="c" d="M3023.48,592.89c-.87-.106-1.718-.248-2.547-.419l-7.745-9.634,1.344-1.079Z"/><path class="c" d="M3015.11,590.814a32.345,32.345,0,0,1-3.375-1.452l-6.647-8.268,1.342-1.078Z"/><path class="c" d="M3053.36,583.67l-7.127-8.866,1.344-1.079,7.036,8.756C3054.22,582.893,3053.8,583.283,3053.36,583.67Z"/><path class="c" d="M3058.4,578.193l-7.244-9.011,1.342-1.079,6.942,8.634C3059.1,577.228,3058.77,577.716,3058.4,578.193Z"/><path class="c" d="M3063.08,569.992l-7.261-9.032,1.332-1.07,6.638,8.257C3063.57,568.758,3063.34,569.384,3063.08,569.992Z"/><path class="c" d="M3065.67,560.056,3057.59,550l1.342-1.079,6.949,8.644C3065.85,558.394,3065.77,559.227,3065.67,560.056Z"/><path class="i" d="M2999.09,525.351a37.629,37.629,0,1,0,53.214,0A37.629,37.629,0,0,0,2999.09,525.351Z"/><path class="j" d="M3006.18,532.447a27.595,27.595,0,1,0,39.024,0A27.595,27.595,0,0,0,3006.18,532.447Z"/><path class="g" d="M3009.44,571.47a27.589,27.589,0,0,1,17.878-47.053,27.59,27.59,0,1,0,.007,55.083,27.486,27.486,0,0,1-17.885-8.03Z"/><path class="i" d="M3019.26,535.369l3.46,24.218-2.541-.363a2.124,2.124,0,0,1-1.669-1.721l-1.551-10.857-7.776-1.111,2.379,16.659.282,1.974a2.124,2.124,0,0,0,1.67,1.721l2.021.289,16.595,2.371-3.46-24.218,2.541.362a2.125,2.125,0,0,1,1.669,1.722l1.551,10.856,7.776,1.111-2.662-18.633a2.123,2.123,0,0,0-1.669-1.721Z"/><path class="g" d="M3034.84,561.694c0,.711-.016,1.41-.057,2.108-.028.584-.072,1.153-.144,1.723a34.879,34.879,0,0,1-.569,3.729c-.112.587-.241,1.155-.385,1.725a36.878,36.878,0,0,1-2.477,6.819c-.256.584-.555,1.168-.853,1.723a37.344,37.344,0,0,1-2.407,3.859,20.832,20.832,0,0,1-1.3,1.723,32.363,32.363,0,0,1-3.389,3.732c-.627.611-1.268,1.181-1.922,1.722a35.841,35.841,0,0,1-4.942,3.5,31.905,31.905,0,0,1-3.245,1.722,37.3,37.3,0,0,1-15.932,3.547h-8.545V524.06h8.545a37.36,37.36,0,0,1,17.143,4.145,29.91,29.91,0,0,1,3.017,1.723,35.445,35.445,0,0,1,4.913,3.731c.626.54,1.225,1.124,1.808,1.722a37.957,37.957,0,0,1,5.126,6.536c.341.555.685,1.125,1,1.709a36.878,36.878,0,0,1,2.977,7.062c.171.57.341,1.139.483,1.723a35.232,35.232,0,0,1,.969,5.638c.072.569.114,1.139.142,1.722C3034.82,560.413,3034.84,561.054,3034.84,561.694Z"/><path class="c" d="M3034.8,559.771h-11.376v-1.722h11.233C3034.73,558.619,3034.77,559.188,3034.8,559.771Z"/><path class="c" d="M3033.69,552.41h-11.562v-1.721H3033.2C3033.37,551.257,3033.54,551.826,3033.69,552.41Z"/><path class="c" d="M3030.23,543.626h-11.589v-1.71h10.594C3029.57,542.473,3029.92,543.042,3030.23,543.626Z"/><path class="c" d="M3024.1,535.38h-12.9v-1.722h11.091C3022.92,534.2,3023.52,534.784,3024.1,535.38Z"/><path class="c" d="M3017.38,529.926h-12.5v-1.721h9.485a30.609,30.609,0,0,1,3.015,1.721Z"/><path class="c" d="M3034.78,563.8c-.028.584-.072,1.153-.144,1.723h-10.507V563.8Z"/><path class="c" d="M3034.07,569.254c-.112.587-.241,1.155-.385,1.725h-12.913v-1.725Z"/><path class="c" d="M3031.21,577.8c-.256.584-.555,1.168-.853,1.723h-12.716V577.8Z"/><path class="c" d="M3027.95,583.38a20.831,20.831,0,0,1-1.3,1.723h-13.2V583.38Z"/><path class="c" d="M3023.26,588.835c-.627.611-1.268,1.181-1.922,1.722h-12.359v-1.722Z"/><path class="c" d="M3016.4,594.06a31.882,31.882,0,0,1-3.245,1.722h-10.608V594.06Z"/><path class="c" d="M3034.8,559.771h-11.38v-1.722h11.234C3034.73,558.618,3034.77,559.188,3034.8,559.771Z"/><path class="i" d="M2951.05,561.689a37.629,37.629,0,1,0,37.629-37.629,37.629,37.629,0,0,0-37.629,37.629Z"/><path class="j" d="M2961.08,561.688a27.594,27.594,0,1,0,27.594-27.594A27.594,27.594,0,0,0,2961.08,561.688Z"/><path class="g" d="M2990.98,586.977a27.59,27.59,0,0,1-20.631-45.914,27.59,27.59,0,1,0,38.955,38.945,27.489,27.489,0,0,1-18.324,6.969Z"/><path class="i" d="M2972.4,554.507l19.571,14.678-2.053,1.541a2.125,2.125,0,0,1-2.4-.037l-8.774-6.58-6.284,4.713,13.463,10.1,1.595,1.2a2.123,2.123,0,0,0,2.4.037l1.634-1.225,13.41-10.058L2985.391,554.2l2.053-1.541a2.127,2.127,0,0,1,2.4.037l8.773,6.58,6.284-4.713-15.057-11.293a2.125,2.125,0,0,0-2.4-.037Z"/><path class="b" d="M2927.88,580.011c0,5.966-22.819,10.8-50.968,10.8s-50.97-4.837-50.97-10.8,22.82-10.8,50.97-10.8S2927.88,574.045,2927.88,580.011Z"/><path class="k" d="M2884.63,558.407l-1.89-5.622-31.77-17.908Z"/><path class="l" d="M2881.15,548.054l-1.887-5.621,14.528-33.457Z"/><path class="l" d="M2873.03,523.875l-1.885-5.621,19.814-45.034Z"/><path class="l" d="M2864.91,499.7l-1.887-5.625,16.209-39.414Z"/><path class="l" d="M2856.79,475.512l-1.889-5.623,12.4-29.807Z"/><path class="m" d="M2880.43,561.873l-5.128-2.985-35.7,7.463Z"/><path class="n" d="M2870.99,556.374l-5.126-2.984-11.114-34.739Z"/><path class="o" d="M2923.53,557.4v14.062a5.392,5.392,0,0,1-1.968,3.844,13.97,13.97,0,0,1-1.252,1.032,21.751,21.751,0,0,1-3.219,1.878c-.4.185-.816.38-1.253.565a43.014,43.014,0,0,1-5.1,1.794c-.409.121-.822.245-1.245.368-2.067.553-4.307,1.057-6.71,1.487-.409.073-.831.147-1.251.22-1.968.319-4.028.615-6.174.848-.415.036-.83.086-1.245.123-1.43.146-2.89.257-4.385.355-.415.038-.831.062-1.252.086-1.868.1-3.776.16-5.724.2-.414,0-.831.011-1.251.011h-.9c-1.817,0-3.6-.036-5.365-.1-.422-.012-.837-.037-1.252-.049-1.8-.086-3.555-.209-5.273-.357l-1.259-.109c-1.188-.111-2.346-.247-3.483-.381-.422-.062-.838-.111-1.253-.174-1.445-.194-2.853-.416-4.206-.661-.422-.074-.837-.148-1.245-.234-1.18-.222-2.311-.467-3.406-.736-.421-.1-.835-.2-1.244-.306-1.358-.346-2.639-.714-3.848-1.118-.43-.137-.844-.284-1.251-.431a32.493,32.493,0,0,1-3.484-1.45c-.444-.208-.86-.43-1.26-.65a16.329,16.329,0,0,1-2.676-1.806,9.364,9.364,0,0,1-1.258-1.276,4.789,4.789,0,0,1-1.161-2.973V557.4Z"/><path class="p" d="M2923.53,557.4c0,6.269-19.218,11.349-42.924,11.349s-42.924-5.08-42.924-11.349,19.219-11.348,42.924-11.348S2923.53,551.133,2923.53,557.4Z"/><path class="e" d="M2915.84,555.89c0,4.31-15.773,7.8-35.232,7.8s-35.232-3.495-35.232-7.8,15.773-7.806,35.232-7.806S2915.84,551.579,2915.84,555.89Z"/><path class="f" d="M2846.45,557.81c3.863-3.384,17.689-5.888,34.158-5.888s30.3,2.5,34.157,5.888a2.638,2.638,0,0,0,1.075-1.92c0-4.311-15.773-7.806-35.232-7.806s-35.232,3.495-35.232,7.806a2.642,2.642,0,0,0,1.074,1.92Z"/><path class="f" d="M2840.11,563.7v12.012a9.339,9.339,0,0,1-1.258-1.276V563.7Z"/><path class="f" d="M2844.04,567.22v10.943c-.444-.208-.86-.43-1.26-.65V567.22Z"/><path class="f" d="M2848.78,569.382v10.662c-.43-.137-.844-.284-1.251-.431V569.382Z"/><path class="f" d="M2853.87,570.832v10.636c-.421-.1-.835-.2-1.244-.306v-10.33Z"/><path class="f" d="M2858.52,572.219v10.219c-.422-.074-.837-.148-1.245-.234v-9.985Z"/><path class="f" d="M2863.98,573.141v10.132c-.422-.062-.838-.111-1.253-.174v-9.958Z"/><path class="f" d="M2868.72,573.141v10.622l-1.259-.109V573.141Z"/><path class="f" d="M2875.25,573.141v11.028c-.422-.012-.837-.037-1.252-.049V573.141Z"/><path class="f" d="M2882.76,572.219v12.037c-.414,0-.831.011-1.251.011V572.219Z"/><path class="f" d="M2889.73,570.832v13.14c-.415.038-.831.062-1.252.086V570.832Z"/><path class="f" d="M2895.36,570.832v12.662c-.415.036-.83.086-1.245.123V570.832Z"/><path class="f" d="M2902.79,569.382v13.044c-.409.073-.831.147-1.251.22V569.382Z"/><path class="f" d="M2910.74,567.994v12.577c-.409.121-.822.245-1.245.368V567.994Z"/><path class="f" d="M2917.1,564.618v13.594c-.4.185-.816.38-1.253.565V564.618Z"/><path class="f" d="M2921.57,562.308V575.3a13.949,13.949,0,0,1-1.252,1.032V562.308Z"/><path class="q" d="M2881.51,584.267h-.9c-1.817,0-3.6-.036-5.365-.1v-6.214q2.64.093,5.365.1h.9v6.215Zm1.251-.011v-6.215c1.948-.037,3.856-.1,5.724-.2v6.214c-1.868.1-3.776.16-5.724.2ZM2874,584.12h0c-1.8-.086-3.555-.209-5.273-.357v-6.214c1.718.147,3.477.271,5.273.355Zm15.739-.148v-6.214c1.5-.1,2.955-.209,4.385-.357v6.216C2892.692,583.763,2891.232,583.874,2889.737,583.972Zm-22.271-.318h0c-1.188-.111-2.346-.247-3.483-.381v-6.215c1.137.135,2.295.27,3.483.381Zm27.9-.16v-6.215c2.146-.232,4.206-.529,6.174-.847v6.214C2899.572,582.965,2897.512,583.261,2895.366,583.494Zm-32.637-.4h0c-1.445-.194-2.853-.416-4.206-.661v-6.216c1.353.247,2.761.468,4.206.664V583.1Zm40.062-.673V576.21c2.4-.429,4.643-.933,6.71-1.485v6.214c-2.067.553-4.307,1.057-6.71,1.487Zm-45.513-.222h0c-1.18-.222-2.311-.467-3.406-.736v-6.215c1.1.269,2.226.517,3.406.736V582.2Zm-4.65-1.042h0c-1.358-.346-2.639-.714-3.848-1.118v-6.216q1.813.6,3.848,1.118Zm58.118-.591v-6.214a43.17,43.17,0,0,0,5.1-1.794v6.214a43.028,43.028,0,0,1-5.1,1.794Zm-63.217-.958h0a32.493,32.493,0,0,1-3.484-1.45v-6.214a32.512,32.512,0,0,0,3.484,1.449Zm69.57-1.4V572a21.488,21.488,0,0,0,3.219-1.879v6.216a21.751,21.751,0,0,1-3.219,1.878Zm-74.314-.7h0a16.329,16.329,0,0,1-2.676-1.806v-6.214a16.436,16.436,0,0,0,2.676,1.8V577.5Zm78.785-2.211v-6.214a5.4,5.4,0,0,0,1.968-3.845v6.215a5.392,5.392,0,0,1-1.968,3.844Zm-82.719-.871h0a4.789,4.789,0,0,1-1.161-2.973v-6.215a4.787,4.787,0,0,0,1.161,2.973Z"/><path class="h" d="M2840.11,575.707a9.344,9.344,0,0,1-1.258-1.276v-6.215a9.311,9.311,0,0,0,1.258,1.277Z"/><path class="h" d="M2844.04,578.163c-.444-.208-.86-.43-1.26-.65V571.3c.4.222.816.443,1.26.651Z"/><path class="h" d="M2848.78,580.044c-.43-.137-.844-.284-1.251-.431V573.4c.407.148.821.295,1.251.43Z"/><path class="h" d="M2853.87,581.468c-.421-.1-.835-.2-1.244-.306v-6.216c.409.11.823.208,1.244.307Z"/><path class="h" d="M2858.52,582.438c-.422-.074-.837-.148-1.245-.234v-6.215c.408.087.823.161,1.245.233Z"/><path class="h" d="M2863.98,583.273c-.422-.062-.838-.111-1.253-.174v-6.213c.415.062.831.111,1.253.172Z"/><path class="h" d="M2868.72,583.763l-1.259-.109v-6.215l1.259.11Z"/><path class="h" d="M2875.25,584.169c-.422-.012-.837-.037-1.252-.049V577.9c.415.014.83.039,1.252.051Z"/><path class="h" d="M2881.51,584.267v-6.215c.42,0,.837-.011,1.251-.011v6.215C2882.34,584.256,2881.93,584.267,2881.51,584.267Z"/><path class="h" d="M2888.48,584.058v-6.214c.421-.024.837-.049,1.252-.086v6.214C2889.32,584.01,2888.9,584.034,2888.48,584.058Z"/><path class="h" d="M2894.12,583.617V577.4c.415-.036.83-.085,1.245-.122v6.215C2894.95,583.53,2894.53,583.58,2894.12,583.617Z"/><path class="h" d="M2901.54,582.646v-6.214c.42-.074.842-.147,1.251-.222v6.216C2902.38,582.5,2901.96,582.573,2901.54,582.646Z"/><path class="h" d="M2909.5,580.939v-6.214c.423-.124.836-.246,1.245-.368v6.214C2910.33,580.692,2909.92,580.816,2909.5,580.939Z"/><path class="h" d="M2915.84,578.777v-6.214c.437-.184.852-.38,1.253-.566v6.215C2916.7,578.4,2916.28,578.592,2915.84,578.777Z"/><path class="h" d="M2920.31,576.334v-6.216a13.8,13.8,0,0,0,1.252-1.03V575.3a13.933,13.933,0,0,1-1.252,1.034Z"/><path class="o" d="M2919.83,540.321v14.062a5.387,5.387,0,0,1-1.967,3.844,13.782,13.782,0,0,1-1.25,1.032,22.031,22.031,0,0,1-3.218,1.879c-.4.184-.817.381-1.254.564a43.006,43.006,0,0,1-5.1,1.794c-.41.123-.823.245-1.245.369-2.068.552-4.306,1.054-6.709,1.485l-1.254.221c-1.968.319-4.027.615-6.174.848-.414.037-.828.086-1.245.122-1.43.148-2.89.259-4.385.356-.415.038-.828.062-1.252.087-1.866.1-3.777.16-5.723.2-.414,0-.83.012-1.253.012h-.892c-1.819,0-3.606-.037-5.366-.1-.422-.01-.836-.036-1.252-.048-1.795-.086-3.555-.209-5.272-.356-.422-.036-.844-.074-1.258-.111-1.189-.11-2.347-.246-3.485-.38-.422-.061-.838-.111-1.251-.172-1.445-.2-2.855-.418-4.206-.664-.425-.073-.838-.147-1.247-.233-1.18-.22-2.309-.467-3.4-.737-.422-.1-.838-.2-1.245-.307-1.36-.344-2.641-.711-3.85-1.117-.429-.135-.844-.282-1.251-.431a32.437,32.437,0,0,1-3.484-1.449c-.444-.208-.858-.429-1.26-.651a16.08,16.08,0,0,1-2.673-1.8,9.412,9.412,0,0,1-1.261-1.277,4.782,4.782,0,0,1-1.158-2.972v-14.07Z"/><path class="p" d="M2919.83,540.326c0,6.267-19.217,11.349-42.921,11.349s-42.923-5.082-42.923-11.349,19.217-11.348,42.923-11.348S2919.83,534.058,2919.83,540.326Z"/><path class="e" d="M2912.15,538.816c0,4.31-15.774,7.8-35.231,7.8s-35.234-3.495-35.234-7.8,15.775-7.807,35.234-7.807S2912.15,534.505,2912.15,538.816Z"/><path class="f" d="M2842.76,540.735c3.86-3.384,17.689-5.887,34.158-5.887s30.295,2.5,34.156,5.887a2.636,2.636,0,0,0,1.075-1.919c0-4.311-15.774-7.807-35.231-7.807s-35.234,3.5-35.234,7.807A2.642,2.642,0,0,0,2842.76,540.735Z"/><path class="f" d="M2836.41,546.621v12.011a9.388,9.388,0,0,1-1.261-1.277V546.621Z"/><path class="f" d="M2840.34,550.145v10.943c-.444-.208-.858-.429-1.26-.651V550.145Z"/><path class="f" d="M2845.08,552.307v10.661c-.429-.135-.844-.282-1.251-.431v-10.23Z"/><path class="f" d="M2850.17,553.756v10.636c-.422-.1-.838-.2-1.245-.307V553.756Z"/><path class="f" d="M2854.82,555.144v10.218c-.425-.073-.838-.147-1.247-.233v-9.985Z"/><path class="f" d="M2860.28,556.065V566.2c-.422-.061-.838-.111-1.251-.172v-9.961Z"/><path class="f" d="M2865.02,556.065v10.624c-.422-.036-.844-.074-1.258-.111V556.065Z"/><path class="f" d="M2871.55,556.065v11.028c-.422-.01-.836-.036-1.252-.048v-10.98Z"/><path class="f" d="M2879.06,555.144v12.037c-.414,0-.83.012-1.253.012V555.144Z"/><path class="f" d="M2886.03,553.756V566.9c-.415.038-.828.062-1.252.087V553.756Z"/><path class="f" d="M2891.66,553.756v12.663c-.414.037-.828.086-1.245.122V553.756Z"/><path class="f" d="M2899.09,552.307V565.35l-1.254.221V552.307Z"/><path class="f" d="M2907.05,550.92V563.5c-.41.123-.823.245-1.245.369V550.92Z"/><path class="f" d="M2913.4,547.541v13.6c-.4.184-.817.381-1.254.564V547.541Z"/><path class="f" d="M2917.87,545.233v12.994a13.782,13.782,0,0,1-1.251,1.032V545.233Z"/><path class="q" d="M2876.74,567.193h1.063v-6.215h-.892c-1.819,0-3.606-.037-5.366-.1h0v6.213c1.7.061,3.436.1,5.2.1Zm43.092-12.81v-6.214a5.382,5.382,0,0,1-1.967,3.843h0v6.215a5.387,5.387,0,0,0,1.967-3.844Zm-85.844-6.214v6.214a4.78,4.78,0,0,0,1.158,2.972h0V551.14a4.778,4.778,0,0,1-1.158-2.971Zm45.068,19.012v-6.215h0c1.946-.037,3.857-.1,5.723-.2v6.216h0c-1.866.1-3.777.16-5.723.2Zm-8.763-.136h0c-1.795-.086-3.555-.209-5.272-.356v-6.215h0c1.717.147,3.477.271,5.272.357v6.214Zm15.738-.148v-6.214h0c1.5-.1,2.955-.209,4.385-.356v6.214h0C2888.986,566.689,2887.526,566.8,2886.031,566.9Zm-22.268-.319h0c-1.189-.11-2.347-.246-3.485-.38v-6.215h0c1.138.135,2.3.27,3.485.381v6.214Zm27.9-.159V560.2h0c2.147-.233,4.206-.528,6.174-.848v6.215h0c-1.968.319-4.027.615-6.174.848Zm-32.634-.393h0c-1.445-.2-2.855-.418-4.206-.664v-6.215h0c1.351.246,2.761.468,4.206.663Zm40.062-.676v-6.215h0c2.4-.429,4.641-.932,6.709-1.485v6.215h0C2903.732,564.417,2901.494,564.919,2899.091,565.35Zm-45.515-.221h0c-1.18-.22-2.309-.467-3.4-.737v-6.215h0c1.095.271,2.224.517,3.4.737Zm-4.649-1.044h0c-1.36-.344-2.641-.711-3.85-1.117v-6.215h0c1.209.405,2.49.774,3.85,1.118v6.214Zm58.118-.589v-6.214h0a43.194,43.194,0,0,0,5.1-1.794V561.7h0a42.976,42.976,0,0,1-5.1,1.794Zm-63.219-.959h0a32.462,32.462,0,0,1-3.484-1.449v-6.215h0a32.9,32.9,0,0,0,3.484,1.451Zm69.572-1.4v-6.215h0a21.909,21.909,0,0,0,3.218-1.879v6.215h0a22.014,22.014,0,0,1-3.218,1.879Zm-74.316-.7h0a16.08,16.08,0,0,1-2.673-1.8v-6.215h0a16.132,16.132,0,0,0,2.673,1.806Z"/><path class="h" d="M2836.41,558.632a9.39,9.39,0,0,1-1.261-1.277V551.14a9.3,9.3,0,0,0,1.261,1.277Z"/><path class="h" d="M2840.34,561.088c-.444-.208-.858-.429-1.26-.651v-6.214c.4.222.816.442,1.26.65Z"/><path class="h" d="M2845.08,562.968c-.429-.135-.844-.282-1.251-.431v-6.213c.407.147.822.3,1.251.429Z"/><path class="h" d="M2850.17,564.392c-.422-.1-.838-.2-1.245-.307v-6.214c.407.111.823.209,1.245.306Z"/><path class="h" d="M2854.82,565.362c-.425-.073-.838-.147-1.247-.233v-6.215c.409.086.822.16,1.247.233Z"/><path class="h" d="M2860.28,566.2c-.422-.061-.838-.111-1.251-.172V559.81c.413.063.829.112,1.251.173Z"/><path class="h" d="M2865.02,566.689c-.422-.036-.844-.074-1.258-.111v-6.214l1.258.11Z"/><path class="h" d="M2871.55,567.093c-.422-.01-.836-.036-1.252-.048v-6.214c.416.012.83.037,1.252.049Z"/><path class="h" d="M2877.81,567.193v-6.215c.423,0,.839-.012,1.253-.012v6.215C2878.65,567.181,2878.23,567.193,2877.81,567.193Z"/><path class="h" d="M2884.78,566.984v-6.216c.424-.023.837-.048,1.252-.085V566.9C2885.62,566.935,2885.21,566.959,2884.78,566.984Z"/><path class="h" d="M2890.42,566.541v-6.214c.417-.038.831-.086,1.245-.123v6.215C2891.25,566.456,2890.84,566.505,2890.42,566.541Z"/><path class="h" d="M2897.84,565.571v-6.215c.421-.074.845-.146,1.254-.221v6.215Z"/><path class="h" d="M2905.8,563.865V557.65c.422-.123.835-.246,1.245-.368V563.5Z"/><path class="h" d="M2912.15,561.7v-6.214c.437-.184.853-.38,1.254-.565v6.215C2913,561.322,2912.58,561.519,2912.15,561.7Z"/><path class="h" d="M2916.62,559.259v-6.215a13.861,13.861,0,0,0,1.251-1.032v6.215a13.7,13.7,0,0,1-1.251,1.032Z"/><path class="o" d="M2923.53,522.392v14.062a5.4,5.4,0,0,1-1.968,3.846,14.055,14.055,0,0,1-1.252,1.031,21.662,21.662,0,0,1-3.219,1.878c-.4.186-.816.382-1.253.566a42.869,42.869,0,0,1-5.1,1.793c-.409.123-.822.245-1.245.369-2.067.552-4.307,1.056-6.71,1.485-.409.075-.831.149-1.251.223-1.968.318-4.028.613-6.174.846-.415.037-.83.085-1.245.123-1.43.147-2.89.258-4.385.356-.415.036-.831.061-1.252.086-1.868.1-3.776.16-5.724.2-.414,0-.831.013-1.251.013h-.9c-1.817,0-3.6-.037-5.365-.1-.422-.012-.837-.037-1.252-.05-1.8-.086-3.555-.209-5.273-.356-.421-.036-.844-.075-1.259-.111-1.188-.11-2.346-.245-3.483-.38-.422-.061-.838-.111-1.253-.173-1.445-.2-2.853-.417-4.206-.663-.422-.073-.837-.146-1.245-.233-1.18-.22-2.311-.466-3.406-.737-.421-.1-.835-.2-1.244-.306-1.358-.345-2.639-.712-3.848-1.118-.43-.136-.844-.283-1.251-.43a32.472,32.472,0,0,1-3.484-1.45c-.444-.208-.86-.429-1.26-.65a16.329,16.329,0,0,1-2.676-1.806,9.19,9.19,0,0,1-1.259-1.277,4.784,4.784,0,0,1-1.161-2.973V522.392Z"/><path class="p" d="M2923.53,522.4c0,6.266-19.218,11.347-42.924,11.347s-42.924-5.081-42.924-11.347,19.219-11.35,42.924-11.35S2923.53,516.13,2923.53,522.4Z"/><path class="e" d="M2915.84,520.888c0,4.311-15.773,7.8-35.232,7.8s-35.232-3.494-35.232-7.8,15.773-7.806,35.232-7.806S2915.84,516.577,2915.84,520.888Z"/><path class="f" d="M2846.45,522.807c3.863-3.383,17.689-5.887,34.158-5.887s30.3,2.5,34.157,5.887a2.638,2.638,0,0,0,1.075-1.919c0-4.311-15.773-7.806-35.232-7.806s-35.232,3.5-35.232,7.806A2.643,2.643,0,0,0,2846.45,522.807Z"/><path class="f" d="M2840.11,528.693V540.7a9.193,9.193,0,0,1-1.258-1.277v-10.73Z"/><path class="f" d="M2844.04,532.218V543.16c-.444-.208-.86-.429-1.26-.65V532.218Z"/><path class="f" d="M2848.78,534.379V545.04c-.43-.136-.844-.283-1.251-.43V534.379Z"/><path class="f" d="M2853.87,535.828v10.636c-.421-.1-.835-.2-1.244-.306v-10.33Z"/><path class="f" d="M2858.52,537.216v10.218c-.422-.073-.837-.146-1.245-.233v-9.985Z"/><path class="f" d="M2863.98,538.138V548.27c-.422-.061-.838-.111-1.253-.173v-9.959Z"/><path class="f" d="M2868.72,538.138v10.623c-.421-.036-.844-.075-1.259-.111V538.138Z"/><path class="f" d="M2875.25,538.138v11.029c-.422-.012-.837-.037-1.252-.05V538.138Z"/><path class="f" d="M2882.76,537.216v12.036c-.414,0-.831.013-1.251.013V537.216Z"/><path class="f" d="M2889.73,535.828V548.97c-.415.036-.831.061-1.252.086V535.828Z"/><path class="f" d="M2895.36,535.828v12.663c-.415.037-.83.085-1.245.123V535.828Z"/><path class="f" d="M2902.79,534.379v13.043c-.409.075-.831.149-1.251.223V534.379Z"/><path class="f" d="M2910.74,532.991v12.577c-.409.123-.822.245-1.245.369V532.991Z"/><path class="f" d="M2917.1,529.614v13.595c-.4.186-.816.382-1.253.566V529.614Z"/><path class="f" d="M2921.57,527.306V540.3a14.114,14.114,0,0,1-1.252,1.031V527.306Z"/><path class="q" d="M2880.44,549.265h1.065V543.05h-.9c-1.817,0-3.6-.036-5.365-.1h0v6.215c1.7.059,3.437.1,5.2.1Zm43.094-12.811v-6.213a5.394,5.394,0,0,1-1.968,3.844h0V540.3a5.4,5.4,0,0,0,1.968-3.846Zm-85.848-6.213v6.213a4.784,4.784,0,0,0,1.161,2.973h0v-6.215a4.783,4.783,0,0,1-1.161-2.971Zm45.07,19.011v-6.214h0c1.948-.037,3.856-.1,5.724-.2v6.214h0C2886.612,549.152,2884.7,549.212,2882.756,549.252Zm-8.763-.135h0c-1.8-.086-3.555-.209-5.273-.356v-6.215h0c1.718.148,3.477.271,5.273.358v6.213Zm15.739-.147v-6.214h0c1.5-.1,2.955-.21,4.385-.356v6.214h0C2892.687,548.761,2891.227,548.872,2889.732,548.97Zm-22.271-.32h0c-1.188-.11-2.346-.245-3.483-.38v-6.214h0c1.137.134,2.295.27,3.483.381Zm27.9-.159v-6.215h0c2.146-.233,4.206-.528,6.174-.846v6.215h0C2899.567,547.963,2897.507,548.258,2895.361,548.491Zm-32.637-.394h0c-1.445-.2-2.853-.417-4.206-.663V541.22h0c1.353.245,2.761.468,4.206.663V548.1Zm40.062-.675v-6.213h0c2.4-.431,4.643-.934,6.71-1.487v6.215h0C2907.429,546.489,2905.189,546.993,2902.786,547.422Zm-45.513-.221h0c-1.18-.22-2.311-.466-3.406-.737V540.25h0c1.1.27,2.226.517,3.406.737V547.2Zm-4.65-1.043h0c-1.358-.345-2.639-.712-3.848-1.118v-6.214h0q1.813.6,3.848,1.117v6.215Zm58.118-.59v-6.214h0a42.661,42.661,0,0,0,5.1-1.794v6.215h0a42.889,42.889,0,0,1-5.1,1.793Zm-63.217-.958h0a32.469,32.469,0,0,1-3.484-1.45v-6.214h0a32.475,32.475,0,0,0,3.484,1.449Zm69.57-1.4V537h0a21.673,21.673,0,0,0,3.219-1.879v6.215h0a21.659,21.659,0,0,1-3.219,1.878Zm-74.314-.7h0a16.321,16.321,0,0,1-2.676-1.806V534.49h0a16.446,16.446,0,0,0,2.676,1.806Z"/><path class="h" d="M2840.11,540.7a9.193,9.193,0,0,1-1.258-1.277v-6.215a9.239,9.239,0,0,0,1.258,1.278Z"/><path class="h" d="M2844.04,543.16c-.444-.208-.86-.429-1.26-.65V536.3c.4.221.816.441,1.26.65Z"/><path class="h" d="M2848.78,545.04c-.43-.136-.844-.283-1.251-.43V538.4c.407.148.821.295,1.251.431Z"/><path class="h" d="M2853.87,546.464c-.421-.1-.835-.2-1.244-.306v-6.215c.409.11.823.209,1.244.307Z"/><path class="h" d="M2858.52,547.434c-.422-.073-.837-.146-1.245-.233v-6.214c.408.086.823.16,1.245.233Z"/><path class="h" d="M2863.98,548.27c-.422-.061-.838-.111-1.253-.173v-6.214c.415.061.831.11,1.253.173Z"/><path class="h" d="M2868.72,548.761c-.421-.036-.844-.075-1.259-.111v-6.213l1.259.109Z"/><path class="h" d="M2875.25,549.167c-.422-.012-.837-.037-1.252-.05V542.9c.415.011.83.036,1.252.048Z"/><path class="h" d="M2881.51,549.265V543.05c.42,0,.837-.012,1.251-.012v6.214C2882.34,549.252,2881.93,549.265,2881.51,549.265Z"/><path class="h" d="M2888.48,549.056v-6.214c.421-.025.837-.049,1.252-.086v6.214C2889.32,549.006,2888.9,549.031,2888.48,549.056Z"/><path class="h" d="M2894.12,548.614V542.4c.415-.037.83-.088,1.245-.124v6.215C2894.95,548.528,2894.53,548.576,2894.12,548.614Z"/><path class="h" d="M2901.54,547.645V541.43l1.251-.221v6.213C2902.38,547.5,2901.96,547.571,2901.54,547.645Z"/><path class="h" d="M2909.5,545.937v-6.215c.423-.123.836-.246,1.245-.368v6.214Z"/><path class="h" d="M2915.84,543.775V537.56c.437-.184.852-.381,1.253-.565v6.214C2916.7,543.4,2916.28,543.591,2915.84,543.775Z"/><path class="h" d="M2920.31,541.331v-6.215a13.991,13.991,0,0,0,1.252-1.031V540.3A14.114,14.114,0,0,1,2920.31,541.331Z"/><path class="o" d="M2928.16,505.318V519.38a5.4,5.4,0,0,1-1.967,3.845,14.2,14.2,0,0,1-1.254,1.031,21.9,21.9,0,0,1-3.218,1.879c-.4.185-.817.381-1.253.565a42.713,42.713,0,0,1-5.1,1.794c-.408.122-.823.246-1.245.368-2.066.552-4.3,1.055-6.71,1.485-.408.075-.829.148-1.252.221-1.967.32-4.027.614-6.173.849-.416.036-.83.085-1.244.122-1.432.147-2.892.258-4.388.356-.412.037-.829.062-1.25.085-1.868.1-3.777.16-5.724.2-.414,0-.829.013-1.251.013h-.9c-1.817,0-3.6-.037-5.366-.1-.421-.013-.836-.037-1.25-.05-1.8-.085-3.556-.208-5.274-.356l-1.259-.11c-1.187-.111-2.347-.247-3.483-.381-.421-.062-.838-.111-1.254-.173-1.444-.2-2.853-.415-4.2-.663-.423-.072-.838-.146-1.247-.233-1.179-.22-2.309-.467-3.4-.736-.421-.1-.836-.2-1.244-.308-1.36-.342-2.64-.712-3.849-1.117-.43-.134-.844-.282-1.251-.429a32.934,32.934,0,0,1-3.485-1.451c-.443-.208-.859-.429-1.259-.65a16.367,16.367,0,0,1-2.675-1.8,9.293,9.293,0,0,1-1.259-1.277,4.789,4.789,0,0,1-1.16-2.973V505.318Z"/><path class="p" d="M2928.16,505.323c0,6.267-19.217,11.349-42.924,11.349s-42.924-5.082-42.924-11.349,19.218-11.349,42.924-11.349S2928.16,499.056,2928.16,505.323Z"/><path class="e" d="M2920.47,503.813c0,4.311-15.772,7.8-35.232,7.8s-35.238-3.494-35.238-7.8,15.774-7.806,35.232-7.806S2920.47,499.5,2920.47,503.813Z"/><path class="f" d="M2851.08,505.732c3.862-3.384,17.688-5.888,34.157-5.888s30.3,2.5,34.158,5.888a2.635,2.635,0,0,0,1.074-1.919c0-4.311-15.772-7.806-35.232-7.806S2850,499.5,2850,503.813a2.639,2.639,0,0,0,1.08,1.919Z"/><path class="f" d="M2844.73,511.618V523.63a9.293,9.293,0,0,1-1.259-1.277V511.618Z"/><path class="f" d="M2848.66,515.142v10.943c-.443-.208-.859-.429-1.259-.65V515.142Z"/><path class="f" d="M2853.4,517.3v10.661c-.43-.134-.844-.282-1.251-.429V517.3Z"/><path class="f" d="M2858.49,518.754V529.39c-.421-.1-.836-.2-1.244-.308V518.754Z"/><path class="f" d="M2863.14,520.142v10.217c-.423-.072-.838-.146-1.247-.233v-9.984Z"/><path class="f" d="M2868.6,521.062V531.2c-.421-.062-.838-.111-1.254-.173v-9.96Z"/><path class="f" d="M2873.34,521.062v10.624l-1.259-.11V521.062Z"/><path class="f" d="M2879.87,521.062v11.03c-.421-.013-.836-.037-1.25-.05v-10.98Z"/><path class="f" d="M2887.38,520.142v12.035c-.414,0-.829.013-1.251.013V520.142Z"/><path class="f" d="M2894.35,518.754V531.9c-.412.037-.829.062-1.25.085V518.754Z"/><path class="f" d="M2899.99,518.754v12.663c-.416.036-.83.085-1.244.122V518.754Z"/><path class="f" d="M2907.41,517.3v13.043c-.408.075-.829.148-1.252.221V517.3Z"/><path class="f" d="M2915.36,515.917v12.577c-.408.122-.823.246-1.245.368V515.917Z"/><path class="f" d="M2921.72,512.539v13.6c-.4.185-.817.381-1.253.565V512.539Z"/><path class="f" d="M2926.19,510.23v13a14.185,14.185,0,0,1-1.254,1.031V510.23Z"/><path class="q" d="M2885.06,532.19h1.065v-6.215h-.9c-1.817,0-3.6-.037-5.366-.1h0v6.215c1.706.059,3.437.1,5.2.1Zm43.094-12.779V513.2a5.409,5.409,0,0,1-1.967,3.814h0v6.215a5.412,5.412,0,0,0,1.967-3.814Zm-85.848-6.246v6.215a4.789,4.789,0,0,0,1.161,2.973h0v-6.214a4.788,4.788,0,0,1-1.161-2.974Zm45.07,19.012v-6.213h0c1.947-.038,3.856-.1,5.724-.2v6.213h0C2891.232,532.077,2889.323,532.137,2887.376,532.177Zm-8.762-.135h0c-1.8-.085-3.556-.208-5.274-.356v-6.215h0c1.718.147,3.478.271,5.274.357v6.214Zm15.736-.147v-6.214h0c1.5-.1,2.956-.21,4.388-.356v6.214h0C2897.306,531.686,2895.846,531.8,2894.35,531.9Zm-22.269-.319h0c-1.187-.111-2.347-.247-3.483-.381V524.98h0c1.136.135,2.3.271,3.483.381v6.215Zm27.9-.159V525.2h0c2.146-.235,4.206-.53,6.173-.848v6.213h0c-1.967.32-4.027.614-6.173.849Zm-32.638-.4h0c-1.444-.2-2.853-.415-4.2-.663V524.14h0c1.351.247,2.76.467,4.2.663Zm40.063-.675v-6.213h0c2.405-.431,4.644-.934,6.71-1.487v6.215h0C2912.05,529.409,2909.811,529.912,2907.406,530.342Zm-45.514-.221h0c-1.179-.22-2.309-.467-3.4-.736v-6.214h0c1.095.269,2.225.514,3.4.736Zm-4.648-1.044h0c-1.36-.342-2.64-.712-3.849-1.117v-6.21h0c1.209.405,2.489.774,3.849,1.119v6.213Zm58.117-.588v-6.216h0a42.837,42.837,0,0,0,5.1-1.793v6.22h0a42.64,42.64,0,0,1-5.1,1.794Zm-63.217-.958h0a32.934,32.934,0,0,1-3.485-1.451v-6.214h0a32.478,32.478,0,0,0,3.485,1.449Zm69.57-1.4V519.92h0a21.891,21.891,0,0,0,3.218-1.878v6.214h0a21.91,21.91,0,0,1-3.218,1.879Zm-74.314-.7h0a16.367,16.367,0,0,1-2.675-1.8v-6.215h0a16.217,16.217,0,0,0,2.675,1.8Z"/><path class="h" d="M2844.73,523.63a9.293,9.293,0,0,1-1.259-1.277v-6.214a9.251,9.251,0,0,0,1.259,1.276Z"/><path class="h" d="M2848.66,526.085c-.443-.208-.859-.429-1.259-.65V519.22c.4.222.816.443,1.259.651Z"/><path class="h" d="M2853.4,527.965c-.43-.134-.844-.282-1.251-.429V521.32c.407.148.821.295,1.251.43Z"/><path class="h" d="M2858.49,529.39c-.421-.1-.836-.2-1.244-.308v-6.213c.408.11.823.208,1.244.307Z"/><path class="h" d="M2863.14,530.359c-.423-.072-.838-.146-1.247-.233v-6.214c.409.086.824.161,1.247.233Z"/><path class="h" d="M2868.6,531.2c-.421-.062-.838-.111-1.254-.173v-6.214c.416.062.833.111,1.254.172Z"/><path class="h" d="M2873.34,531.686l-1.259-.11v-6.215l1.259.11Z"/><path class="h" d="M2879.87,532.092c-.421-.013-.836-.037-1.25-.05v-6.214c.414.012.829.037,1.25.049Z"/><path class="h" d="M2886.13,532.19v-6.215c.422,0,.837-.011,1.251-.011v6.213C2886.97,532.177,2886.55,532.19,2886.13,532.19Z"/><path class="h" d="M2893.1,531.98v-6.213c.421-.025.838-.05,1.25-.086V531.9C2893.94,531.932,2893.52,531.957,2893.1,531.98Z"/><path class="h" d="M2898.74,531.539v-6.214c.414-.037.828-.087,1.244-.122v6.214C2899.57,531.453,2899.16,531.5,2898.74,531.539Z"/><path class="h" d="M2906.16,530.568v-6.213l1.252-.221v6.213C2907,530.422,2906.58,530.495,2906.16,530.568Z"/><path class="h" d="M2914.12,528.862v-6.215c.422-.123.837-.247,1.245-.369v6.216C2914.96,528.616,2914.54,528.74,2914.12,528.862Z"/><path class="h" d="M2920.47,526.7v-6.215c.436-.185.851-.38,1.253-.565v6.215C2921.32,526.32,2920.9,526.516,2920.47,526.7Z"/><path class="h" d="M2924.94,524.256v-6.214a14.186,14.186,0,0,0,1.254-1.032v6.215a14.132,14.132,0,0,1-1.254,1.031Z"/><path class="r" d="M2928.65,470.369c0,.711-.016,1.41-.058,2.108-.029.584-.071,1.154-.144,1.723a35.072,35.072,0,0,1-.57,3.729c-.113.587-.242,1.155-.384,1.725a36.955,36.955,0,0,1-2.476,6.819c-.256.585-.555,1.168-.854,1.723a37.381,37.381,0,0,1-2.407,3.859,21.1,21.1,0,0,1-1.3,1.723,32.356,32.356,0,0,1-3.389,3.732c-.628.611-1.268,1.182-1.922,1.721a35.874,35.874,0,0,1-4.942,3.5,31.818,31.818,0,0,1-3.245,1.723A37.3,37.3,0,0,1,2891.03,508h-8.545V432.736h8.545a37.373,37.373,0,0,1,17.144,4.145,30.2,30.2,0,0,1,3.017,1.721,35.748,35.748,0,0,1,4.912,3.731c.628.542,1.225,1.126,1.809,1.723a37.978,37.978,0,0,1,5.127,6.536c.34.556.684,1.125,1,1.709a36.926,36.926,0,0,1,2.976,7.063c.17.569.341,1.138.483,1.722a35.272,35.272,0,0,1,.969,5.639c.071.57.113,1.139.142,1.722Q2928.65,469.409,2928.65,470.369Z"/><path class="s" d="M2928.6,472.477c-.029.584-.071,1.154-.144,1.723h-10.508v-1.723Z"/><path class="s" d="M2927.88,477.929c-.113.587-.242,1.155-.384,1.725h-12.913v-1.725Z"/><path class="s" d="M2925.02,486.473c-.256.585-.555,1.168-.854,1.723h-12.717v-1.723Z"/><path class="s" d="M2921.76,492.055a21.084,21.084,0,0,1-1.3,1.723h-13.2v-1.723Z"/><path class="s" d="M2917.08,497.51c-.628.611-1.268,1.182-1.922,1.721H2902.8V497.51Z"/><path class="s" d="M2910.21,502.734a31.806,31.806,0,0,1-3.245,1.723h-10.6v-1.723Z"/><path class="s" d="M2928.61,468.447h-11.375v-1.722h11.233C2928.54,467.3,2928.58,467.864,2928.61,468.447Z"/><path class="s" d="M2927.5,461.086h-11.562v-1.722h11.079C2927.19,459.933,2927.36,460.5,2927.5,461.086Z"/><path class="s" d="M2924.04,452.3h-11.59v-1.709h10.593C2923.38,451.148,2923.73,451.717,2924.04,452.3Z"/><path class="s" d="M2917.92,444.056h-12.9v-1.723h11.092C2916.74,442.875,2917.33,443.459,2917.92,444.056Z"/><path class="s" d="M2911.2,438.6h-12.5v-1.721h9.485a30.219,30.219,0,0,1,3.015,1.721Z"/><path class="e" d="M2844.86,470.365a37.628,37.628,0,1,0,37.628-37.628A37.628,37.628,0,0,0,2844.86,470.365Z"/><path class="t" d="M2854.9,470.365a27.594,27.594,0,1,0,27.6-27.6,27.593,27.593,0,0,0-27.6,27.6Z"/><path class="u" d="M2884.79,495.653a27.59,27.59,0,0,1-20.631-45.914,27.59,27.59,0,1,0,38.955,38.945,27.484,27.484,0,0,1-18.324,6.969Z"/><path class="e" d="M2866.21,463.183l19.571,14.679-2.053,1.539a2.125,2.125,0,0,1-2.4-.036l-8.773-6.58-6.284,4.713,13.462,10.1,1.6,1.2a2.125,2.125,0,0,0,2.4.037l1.633-1.225,13.411-10.058L2879.2,462.867l2.054-1.54a2.123,2.123,0,0,1,2.4.036l8.773,6.581,6.285-4.714-15.058-11.293a2.123,2.123,0,0,0-2.4-.037Z"/></g></g></svg>