<svg xmlns="http://www.w3.org/2000/svg" width="385.667" height="449.267" viewBox="0 0 385.667 449.267"><defs><style>.a{fill:#5d93cb;}.a,.aa,.ab,.ac,.ad,.ae,.af,.ag,.ah,.ai,.aj,.ak,.al,.am,.an,.ao,.ap,.aq,.ar,.as,.b,.c,.d,.e,.f,.g,.h,.i,.j,.k,.l,.m,.n,.o,.p,.q,.r,.s,.t,.u,.v,.w,.x,.y,.z{fill-rule:evenodd;}.b{fill:#ff9e40;}.c{fill:#c26f50;}.d{fill:#ffd3a8;}.e{fill:#e3bdaf;}.f{fill:#390075;}.g{fill:#f6c314;}.h{fill:#bd8831;}.i{fill:#f0d6ff;}.j{fill:#fcecb7;}.k{fill:#c2b1d4;}.l{fill:#eadac0;}.m{fill:#30cd52;}.n{fill:#32a459;}.o{fill:#a1e8b0;}.p{fill:#a2d5b3;}.q{fill:#4289f8;}.r{fill:#aa6bd4;}.s{fill:#338f5d;}.t{fill:#3f60d0;}.u{fill:#a58bc0;}.v{fill:#fff;}.w{fill:#a9c9fb;}.x{fill:#a7b6e9;}.y{fill:#9b80b9;}.z{fill:#89423a;}.aa{fill:#c9a9a5;}.ab{fill:#ffb689;}.ac{fill:#ffdec9;}.ad{fill:#c28083;}.ae{fill:#f65cb7;}.af{fill:#fab4de;}.ag{fill:#e3c5c7;}.ah{fill:#f79aa5;}.ai{fill:#ce75a1;}.aj{fill:#d69185;}.ak{fill:#b7c4d2;}.al{fill:#f0f2f5;}.am{fill:#c6d2e2;}.an{fill:#f3f5f8;}.ao{fill:#bbabd0;}.ap{fill:#9189b6;}.aq{fill:#d6cbe2;}.ar{fill:#95554e;}.as{fill:#722e4c;}</style></defs><g transform="translate(-222 -529)"><path class="a" d="M3570.91,809.987c63.27,78.852,188.54,139.861,341.09,133.851V494.98C3530.04,503.709,3467.26,680.8,3570.91,809.987Z" transform="translate(-3304.333 34.02)"/><g transform="translate(-3303.588 57.374)"><path class="b" d="M3866.08,808.624h-220.9a5.774,5.774,0,0,1-5.774-5.775h0a5.774,5.774,0,0,1,5.774-5.774h220.9a5.776,5.776,0,0,1,5.774,5.774h0a5.776,5.776,0,0,1-5.773,5.775Z"/><path class="c" d="M3866.08,807.319h-220.9a4.47,4.47,0,0,1-3.712-1.982,5.774,5.774,0,0,1,.371-1.419,5.742,5.742,0,0,0,1.47.191h220.9a5.763,5.763,0,0,0,5.349-3.619c.13.034.261.073.386.115a4.467,4.467,0,0,1-3.863,6.714Z"/><path class="d" d="M3641.84,803.918a5.762,5.762,0,0,1-1.08-.405,4.543,4.543,0,0,1-.049-.664,4.475,4.475,0,0,1,4.47-4.469h220.9a4.463,4.463,0,0,1,3.589,1.812c-.035.1-.072.2-.112.3a5.745,5.745,0,0,0-1.465-.189H3647.2a5.757,5.757,0,0,0-5.358,3.617Z"/><path class="e" d="M3641.47,805.337a4.446,4.446,0,0,1-.709-1.824.984.984,0,0,1,.709,1.824Zm228.47-4.737c-.125-.042-.256-.081-.386-.115.04-.1.077-.2.112-.3a4.844,4.844,0,0,1,.274.415Z"/><path class="f" d="M3645.18,798.38a4.47,4.47,0,0,0,0,8.939h220.9a4.47,4.47,0,0,0,0-8.939Zm220.9,11.55h-220.9a7.08,7.08,0,1,1,0-14.16h220.9a7.08,7.08,0,0,1,0,14.16Z"/><path class="g" d="M3854.08,771.6v13.754c0,.238-.008.482-.021.72-.019.31-.053.627-.093.931h-.006a11.557,11.557,0,0,1-2.4,5.587,3.561,3.561,0,0,1-.222.29,11.718,11.718,0,0,1-20.7-7.528V771.6a1.93,1.93,0,0,1,1.928-1.929h19.584A1.932,1.932,0,0,1,3854.08,771.6Z"/><path class="f" d="M3832.57,769.909a1.692,1.692,0,0,0-1.691,1.691v13.754a11.482,11.482,0,0,0,20.283,7.376c.072-.087.146-.178.208-.27a11.406,11.406,0,0,0,2.361-5.488l.029-.2c.029-.235.05-.474.066-.709s.019-.472.019-.705V771.6a1.692,1.692,0,0,0-1.691-1.691Zm9.792,27.4A11.973,11.973,0,0,1,3830.4,785.35V771.6a2.169,2.169,0,0,1,2.167-2.166h19.584a2.169,2.169,0,0,1,2.167,2.166v13.754c0,.242-.008.491-.021.733-.019.319-.053.64-.094.948l-.037.207a11.818,11.818,0,0,1-2.416,5.5,3.063,3.063,0,0,1-.229.3,11.926,11.926,0,0,1-9.164,4.271Z"/><path class="f" d="M3839.68,797.011a11.8,11.8,0,0,1-1.191-.186c.1-.02.187-.041.279-.063C3839.07,796.857,3839.37,796.939,3839.68,797.011Z"/><path class="h" d="M3843.66,796.754a11.617,11.617,0,0,1-2.425-.875,11.808,11.808,0,0,0,3.826-3,2.9,2.9,0,0,0,.223-.29,11.578,11.578,0,0,0,2.4-5.587h.006c.04-.3.072-.621.093-.931.013-.238.021-.482.021-.72V771.6a1.927,1.927,0,0,0-1-1.691h4.847a1.925,1.925,0,0,1,1,1.691v13.754c0,.238,0,.482-.019.72-.018.31-.053.627-.092.931h-.006a11.563,11.563,0,0,1-2.4,5.587,3.5,3.5,0,0,1-.222.29,11.719,11.719,0,0,1-6.251,3.872Z"/><path class="f" d="M3840.93,797.075a12.021,12.021,0,0,1-1.247-.064c-.308-.072-.611-.154-.912-.249q.223-.053.447-.114a11.605,11.605,0,0,0,2.428.406q-.356.021-.716.021Zm10.718-27.166H3846.8a1.9,1.9,0,0,0-.925-.238h4.847a1.9,1.9,0,0,1,.928.238Z"/><path class="i" d="M3845.05,765.668a3.032,3.032,0,0,0,.074-.818c0-.275-.01-.551-.021-.826-.024-.552-.061-1.1-.1-1.654l-.128-1.651-.032-.413-.018-.206-.027-.183a2.389,2.389,0,0,0-.212-.691,2.515,2.515,0,0,0-2.205-1.449h-.17l-.205.009-.414.019-.83.037-1.659.074-6.631.237-.829.029-.415.015h-.08c-.125,0-.271-.007-.4-.01a6.054,6.054,0,0,1-4.951-2.974,6.345,6.345,0,0,1-.741-1.886,6.275,6.275,0,0,1,5.353-7.493c.173-.029.347-.029.521-.042l.255-.013h.208l.827-.011,1.659-.021,6.631-.058,6.633-.019,6.631.017,1.657.013h.8c.1-.007.192-.005.287-.014s.186-.028.279-.039a3.135,3.135,0,0,0,2.5-3.374,3.2,3.2,0,0,0-2.039-2.675,1.774,1.774,0,0,0-.282-.1l-.146-.042-.146-.025a1.672,1.672,0,0,0-.3-.041c-.109,0-.181-.022-.335-.022l-3.318-.084c-2.21-.062-4.419-.1-6.631-.181l-3.316-.117-1.659-.058-.207-.008-.258-.019a3.546,3.546,0,0,1-.511-.083,3.725,3.725,0,0,1-.957-.38A3.662,3.662,0,0,1,3837.8,737a3.527,3.527,0,0,1,.261-3.733,3.618,3.618,0,0,1,.67-.681,3.5,3.5,0,0,1,.827-.458,3.234,3.234,0,0,1,.909-.209,1.619,1.619,0,0,1,.219-.012h.24l.414.023c.152.009.29.015.421.015a3.071,3.071,0,0,0,.356-.02,2.834,2.834,0,0,0,.731-.205,2.771,2.771,0,0,0,1.2-.98,2.612,2.612,0,0,0,.362-.718,2.985,2.985,0,0,0,.159-.8,2.956,2.956,0,0,1-.326,1.638,3.1,3.1,0,0,1-2.024,1.588,4.65,4.65,0,0,1-.875.1l-.414.022a3.349,3.349,0,0,0-.365.05,2.437,2.437,0,0,0-.68.236,2.653,2.653,0,0,0-.58.411,3.124,3.124,0,0,0-.441.542,2.457,2.457,0,0,0-.345,1.3,2.326,2.326,0,0,0,1.343,2.078,2.642,2.642,0,0,0,.595.184c.094.005.181.025.274.025h.192l.207-.007,1.659-.058,3.316-.118c2.212-.079,4.421-.118,6.631-.18l3.318-.085h.109c.117,0,.26.006.383.011a3.693,3.693,0,0,1,.524.051l.26.039.258.06a3.813,3.813,0,0,1,.51.148,5.739,5.739,0,0,1,3.837,4.713,5.834,5.834,0,0,1-4.576,6.418l-.54.086c-.178.019-.358.025-.542.035-.1.006-.162.006-.231.006h-.622l-1.657.014-6.631.016-6.633-.019-6.631-.058-1.659-.022-.827-.009h-.208l-.162.006c-.1.006-.2,0-.306.014a3.789,3.789,0,0,0-3.36,3.165,3.892,3.892,0,0,0-.014,1.266,3.967,3.967,0,0,0,2.266,2.97,4.134,4.134,0,0,0,1.273.338c.117.007.208.021.346.026l.415.015.829.028,6.631.237,1.659.074.83.037.414.019.208.009.247.022a3.434,3.434,0,0,1,1.779.73,3.316,3.316,0,0,1,1.085,1.535,3.121,3.121,0,0,1,.175.915l.008.23v.207l-.011.417c-.016.555-.032,1.108-.056,1.663s-.061,1.109-.106,1.663c-.027.277-.051.554-.088.83a2.9,2.9,0,0,1-.193.818Z"/><path class="j" d="M3843.58,796.773c.027-.005.056-.012.083-.019l.032.007-.115.012Zm-3.924-.256a11.5,11.5,0,0,1-8.779-11.163V771.6a1.692,1.692,0,0,1,1.691-1.691h3.116a1.926,1.926,0,0,0-1,1.691v13.754a11.726,11.726,0,0,0,6.559,10.525,11.818,11.818,0,0,1-1.592.638Z"/><path class="k" d="M3842.36,797.075c-.24,0-.479-.007-.715-.021a11.725,11.725,0,0,0,1.935-.281l.115-.012c.225.055.46.1.691.142a11.937,11.937,0,0,1-2.026.172Zm-3.143-.427a11.725,11.725,0,0,1-8.577-11.294V771.6a1.931,1.931,0,0,1,1.928-1.929h4.041a1.9,1.9,0,0,0-.925.238h-3.116a1.692,1.692,0,0,0-1.691,1.691v13.754a11.5,11.5,0,0,0,8.779,11.163c-.146.046-.3.09-.436.131Z"/><path class="l" d="M3842.36,796.838a11.48,11.48,0,0,1-2.7-.321,11.757,11.757,0,0,0,1.582-.638,11.624,11.624,0,0,0,2.425.875c-.027.007-.056.014-.083.019A11.52,11.52,0,0,1,3842.36,796.838Z"/><path class="k" d="M3841.64,797.054a11.61,11.61,0,0,1-2.428-.406c.146-.041.293-.085.439-.131a11.528,11.528,0,0,0,3.924.256,11.719,11.719,0,0,1-1.935.281Z"/><path class="g" d="M3863.88,780.2v1.928a7.6,7.6,0,0,1-3.954,6.676l-5.448,3.1a5.16,5.16,0,0,1-2.914.68,11.553,11.553,0,0,0,2.4-5.587h.006c.04-.3.074-.621.093-.931l3.289-1.875a2.343,2.343,0,0,0,1.247-2.067V780.2a2.341,2.341,0,0,0-2.337-2.337h-2.178V772.58h2.178a7.622,7.622,0,0,1,7.618,7.62Z"/><path class="f" d="M3854.17,787.242a11.809,11.809,0,0,1-2.132,5.121,4.939,4.939,0,0,0,2.326-.658l5.446-3.1a7.362,7.362,0,0,0,3.836-6.47V780.2a7.393,7.393,0,0,0-7.383-7.384h-1.941v4.809h1.941a2.579,2.579,0,0,1,2.576,2.575v1.928a2.569,2.569,0,0,1-1.372,2.275l-3.174,1.81c-.022.274-.051.551-.086.818l-.037.207Zm-2.262,5.6a3.509,3.509,0,0,1-.356-.012l-.45-.03.279-.354a11.367,11.367,0,0,0,2.351-5.472l.029-.2c.029-.235.05-.474.066-.709l.008-.127,3.4-1.939a2.1,2.1,0,0,0,1.127-1.861V780.2a2.1,2.1,0,0,0-2.1-2.1h-2.417v-5.758h2.417a7.864,7.864,0,0,1,7.856,7.858v1.928a7.835,7.835,0,0,1-4.078,6.884l-5.443,3.1a5.436,5.436,0,0,1-2.7.728Z"/><path class="f" d="M3853.97,787.005Zm-21.4-15.911a.507.507,0,0,0-.506.506v13.754a10.3,10.3,0,0,0,18.186,6.615,1.662,1.662,0,0,0,.131-.164,1.186,1.186,0,0,1,.071-.1,10.182,10.182,0,0,0,2.1-4.9.587.587,0,0,1,.022-.118c.026-.233.05-.473.066-.707.011-.2.016-.418.016-.63V771.6a.506.506,0,0,0-.5-.506Zm9.792,27.405a13.16,13.16,0,0,1-13.145-13.145V771.6a3.357,3.357,0,0,1,3.353-3.352h19.584a3.357,3.357,0,0,1,3.353,3.352v13.754c0,.265-.006.536-.021.8q-.033.5-.1,1.034a1.142,1.142,0,0,1-.029.157,12.986,12.986,0,0,1-2.638,6.088,4.408,4.408,0,0,1-.29.375,13.1,13.1,0,0,1-10.069,4.692Z"/><path class="f" d="M3855.35,787.345a13,13,0,0,1-.782,2.876l4.65-2.65a6.189,6.189,0,0,0,3.238-5.439V780.2a6.2,6.2,0,0,0-6.2-6.2h-.755v2.436h.755a3.766,3.766,0,0,1,3.762,3.761v1.928a3.791,3.791,0,0,1-1.989,3.316l-2.622,1.5c-.01.081-.018.162-.031.244a1.14,1.14,0,0,1-.029.157Zm-3.446,6.682c-.144,0-.29-.005-.436-.016a1.421,1.421,0,0,1-1.019-2.3,10.18,10.18,0,0,0,2.1-4.9.571.571,0,0,1,.022-.118c.026-.233.05-.473.066-.707a1.425,1.425,0,0,1,.715-1.147l3.289-1.874a.95.95,0,0,0,.529-.831V780.2a.915.915,0,0,0-.914-.914h-2.181a1.423,1.423,0,0,1-1.422-1.423V772.58a1.424,1.424,0,0,1,1.422-1.424h2.181a9.054,9.054,0,0,1,9.045,9.044v1.928a9.021,9.021,0,0,1-4.7,7.925l-5.424,3.091a6.6,6.6,0,0,1-3.277.883Z"/><path class="m" d="M3662.07,711.322l.238,1.208,9.539,48.529c-.079-4.554,2.509-8.661,4.791-12.6a31.481,31.481,0,0,0,2.967-6.353,12.25,12.25,0,0,0,.409-6.536c-.611-2.582-2.24-4.786-3.217-7.251-3.675-9.265,2.392-19.977-.238-29.6a17.03,17.03,0,0,0-6.965-9.613,3.322,3.322,0,0,0-2.825-.708c-1.684.61-1.52,3-1.214,4.767a26.515,26.515,0,0,1-3.485,18.162Z"/><path class="n" d="M3677.2,744.442a24.3,24.3,0,0,0-1.585-3.419,50.429,50.429,0,0,0-3.346-4.977,34.413,34.413,0,0,1-4.028-6.427,16.74,16.74,0,0,1-1.205-8.945c.066-.462.152-.923.238-1.384a16.627,16.627,0,0,0,.393-3.677,6.769,6.769,0,0,0-1.439-4,26.411,26.411,0,0,0,1.167-2.512,3.269,3.269,0,0,1,1.026.294,4.591,4.591,0,0,1,2.239,4.047,26.766,26.766,0,0,1-.623,4.809,18,18,0,0,0,1.307,9.693c1.831,4.205,5.187,7.544,7.44,11.535v.008a17.969,17.969,0,0,1-1.585,4.955Z"/><path class="o" d="M3664.48,709.794a28.021,28.021,0,0,0,2.433-16.866c-.317-1.833-.2-3.04.326-3.23a.586.586,0,0,1,.193-.029,2.789,2.789,0,0,1,1.4.591c.172.113.34.23.507.351-.79.985-.641,2.777-.4,4.176a26.514,26.514,0,0,1-1.544,14.31,3.487,3.487,0,0,0-.418-.025,5.269,5.269,0,0,0-2.5.722Z"/><path class="p" d="M3666.23,711.609a4.7,4.7,0,0,0-1.585-1.236c-.122-.058-.247-.111-.373-.158.072-.139.142-.281.21-.421a5.268,5.268,0,0,1,2.5-.722,3.473,3.473,0,0,1,.419.025,26.478,26.478,0,0,1-1.171,2.512Z"/><path class="f" d="M3671.84,762.443a1.382,1.382,0,0,1-1.383-1.36c-.079-4.65,2.271-8.675,4.544-12.566l.439-.756c2.122-3.654,4.165-7.924,3.226-11.879a18.114,18.114,0,0,0-1.744-4.1,31.185,31.185,0,0,1-1.413-2.954c-2.077-5.232-1.261-10.813-.473-16.21.7-4.765,1.352-9.267.186-13.531a15.687,15.687,0,0,0-6.393-8.826c-.966-.64-1.411-.627-1.592-.562-.521.19-.643,1.4-.326,3.23a27.966,27.966,0,0,1-3.668,19.119,1.384,1.384,0,1,1-2.359-1.446,25.157,25.157,0,0,0,3.3-17.2c-.6-3.456.113-5.576,2.108-6.3,1.787-.649,3.5.482,4.063.855a18.482,18.482,0,0,1,7.534,10.4c1.319,4.822.589,9.823-.118,14.661-.769,5.268-1.5,10.245.308,14.789a28.79,28.79,0,0,0,1.295,2.694,20.462,20.462,0,0,1,1.983,4.742c1.163,4.9-1.129,9.781-3.525,13.909l-.444.761c-2.08,3.564-4.232,7.247-4.166,11.124a1.382,1.382,0,0,1-1.36,1.407Z"/><path class="m" d="M3674.74,765.02a24.836,24.836,0,0,0-.334-23.318c-2.247-3.992-5.606-7.331-7.436-11.532a18.007,18.007,0,0,1-1.3-9.692,26.93,26.93,0,0,0,.617-4.812,4.572,4.572,0,0,0-2.236-4.045c-1.807-.862-3.965.154-5.459,1.485a16.82,16.82,0,0,0-5.157,12.532A30.238,30.238,0,0,0,3657.02,739c1.5,3,3.343,6.078,3.1,9.42-.219,3.065-2.152,5.688-3.553,8.423s-2.236,6.261-.4,8.724Z"/><path class="o" d="M3658.89,764.422h-1.822c-1.366-2.3.039-5.593.733-6.948.314-.611.652-1.211,1.01-1.846,1.23-2.186,2.5-4.446,2.694-7.109.237-3.317-1.251-6.228-2.691-9.042-.187-.367-.374-.731-.555-1.095a28.484,28.484,0,0,1-3.443-12.743,15.5,15.5,0,0,1,4.694-11.5,5.421,5.421,0,0,1,2.934-1.446q-.259.2-.5.411c-3.474,3.094-5.152,7.879-5.158,12.536A30.269,30.269,0,0,0,3660.38,739c1.5,3,3.344,6.079,3.106,9.418-.219,3.063-2.155,5.687-3.558,8.423C3658.73,759.174,3657.95,762.085,3658.89,764.422Z"/><path class="f" d="M3656.17,766.951a1.379,1.379,0,0,1-1.11-.557c-1.861-2.5-1.76-6.208.278-10.183.337-.659.7-1.31,1.059-1.94,1.131-2.008,2.2-3.9,2.345-5.949.183-2.548-1.069-4.995-2.394-7.586-.191-.375-.383-.747-.568-1.119a31.145,31.145,0,0,1-3.733-13.981,18.045,18.045,0,0,1,5.62-13.563c2.3-2.05,4.909-2.686,6.974-1.7a5.945,5.945,0,0,1,3.024,5.24,16.613,16.613,0,0,1-.393,3.677c-.086.461-.172.922-.238,1.384a16.742,16.742,0,0,0,1.205,8.945,34.411,34.411,0,0,0,4.028,6.427,50.44,50.44,0,0,1,3.345,4.977,26.367,26.367,0,0,1,.351,24.642,1.383,1.383,0,1,1-2.448-1.289,23.537,23.537,0,0,0-.315-21.995,47.339,47.339,0,0,0-3.166-4.7,37.035,37.035,0,0,1-4.333-6.956,19.275,19.275,0,0,1-1.406-10.443c.071-.5.164-1,.255-1.5a14.2,14.2,0,0,0,.349-3.065,3.293,3.293,0,0,0-1.45-2.851c-1.21-.577-2.88.324-3.943,1.27a15.5,15.5,0,0,0-4.694,11.5,28.484,28.484,0,0,0,3.443,12.743c.181.364.368.728.555,1.095,1.44,2.814,2.928,5.725,2.691,9.042-.191,2.663-1.464,4.923-2.694,7.109-.358.635-.7,1.235-1.01,1.846-.726,1.419-2.234,4.967-.52,7.268a1.382,1.382,0,0,1-1.108,2.209Z"/><path class="q" d="M3663.4,797.075h5.54a10.113,10.113,0,0,0,10.106-9.735l.748-20.017a2.8,2.8,0,0,0-2.8-2.9h-21.658a2.8,2.8,0,0,0-2.795,2.9l.748,20.017a10.112,10.112,0,0,0,10.111,9.735Z"/><path class="r" d="M3678.29,764.736a2.775,2.775,0,0,0-1.289-.314h-.43c.082-.181.162-.364.24-.546a2.792,2.792,0,0,1,1.479.86Z"/><path class="s" d="M3673.49,764.422h-1.23a2.788,2.788,0,0,0-1.745-.611h3.284c-.093.191-.189.379-.286.565Z"/><path class="f" d="M3676.57,764.422h-3.079l.023-.046c.1-.186.193-.374.286-.565h2.41a2.818,2.818,0,0,1,.6.065C3676.73,764.058,3676.65,764.241,3676.57,764.422Z"/><path class="t" d="M3668.16,796.465h-4.56l-.132-.049a10.11,10.11,0,0,0,9.1-9.686l.75-20.02a2.778,2.778,0,0,0-1.05-2.288H3677a1.828,1.828,0,0,1,2.006,2.288l-.745,20.02A10.118,10.118,0,0,1,3668.16,796.465Z"/><path class="u" d="M3667.06,797.075h-3.66a10.141,10.141,0,0,1-2.738-.375,10.143,10.143,0,0,0,2.738.375Z"/><path class="v" d="M3653.99,790.656a10.114,10.114,0,0,1-.691-3.316l-.433-11.641.435,11.641a10.106,10.106,0,0,0,.689,3.316Z"/><path class="w" d="M3667.06,797.075h-3.66a10.1,10.1,0,0,1-10.106-9.735l-.435-11.641-.312-8.378a2.8,2.8,0,0,1,2.8-2.9h3.662a2.8,2.8,0,0,0-2.8,2.9l.745,20.019a10.125,10.125,0,0,0,6.51,9.076c-.307.03-.618.047-.932.049h1.064a10.1,10.1,0,0,0,3.464.61Z"/><path class="x" d="M3663.6,796.465h-1.064c.314,0,.625-.019.932-.049Z"/><path class="f" d="M3655.34,765.8a1.415,1.415,0,0,0-1.413,1.466l.748,20.018a8.7,8.7,0,0,0,8.724,8.4h5.54a8.7,8.7,0,0,0,8.724-8.4l.748-20.016A1.415,1.415,0,0,0,3677,765.8Zm13.6,32.654h-5.54a11.458,11.458,0,0,1-11.488-11.067l-.749-20.017a4.182,4.182,0,0,1,4.178-4.337H3677a4.182,4.182,0,0,1,4.178,4.337l-.749,20.016a11.458,11.458,0,0,1-11.489,11.073Z"/><path class="f" d="M3679.62,773.435l-26.9-1.383,26.9-1.384Z"/><path class="f" d="M3663.56,737.227a31.236,31.236,0,0,1,4.616,5.664,13.231,13.231,0,0,1,1.431,3.462,9.642,9.642,0,0,1,.185,3.843c-.408,2.575-1.656,4.809-2.337,6.978a10.1,10.1,0,0,0-.507,3.21,4.378,4.378,0,0,0,.846,2.638,1.387,1.387,0,1,1-2.255,1.607l-.028-.043a7.013,7.013,0,0,1-.983-4.266,12.343,12.343,0,0,1,.981-3.866c1.017-2.355,2.368-4.322,2.927-6.528a10.075,10.075,0,0,0-.874-6.715,30.982,30.982,0,0,0-4-5.984Z"/><path class="v" d="M3698.14,650.736a1.6,1.6,0,0,1-.811-.22l-10.421-6.084a3.882,3.882,0,0,0-1.955-.532,3.753,3.753,0,0,0-.98.13,24.851,24.851,0,0,1-6.219.844h-.213a24.8,24.8,0,1,1,0-49.6h.487a24.791,24.791,0,0,1,17.923,41.394,3.988,3.988,0,0,0-.466,4.7l4.049,6.934a1.611,1.611,0,0,1-1.392,2.422Z"/><path class="f" d="M3677.54,593.671h0a26.407,26.407,0,1,0,.007,52.814h.227a26.477,26.477,0,0,0,6.623-.9,2.118,2.118,0,0,1,.562-.074,2.271,2.271,0,0,1,1.143.312l10.421,6.084a3.221,3.221,0,0,0,4.4-4.4l-4.048-6.934a2.381,2.381,0,0,1,.271-2.81,26.4,26.4,0,0,0-19.088-44.081c-.172,0-.344-.006-.516-.006Zm0,3.223H3678a23.181,23.181,0,0,1,16.759,38.7,5.614,5.614,0,0,0-.661,6.591l4.047,6.934-10.421-6.084a5.479,5.479,0,0,0-2.766-.751,5.409,5.409,0,0,0-1.4.183,23.137,23.137,0,0,1-5.815.79h-.2a23.185,23.185,0,0,1,0-46.37Z"/><path class="v" d="M3657.86,631.91c-.185-.179-.367-.358-.547-.542a22.931,22.931,0,0,1-2.868-9.179v-.021q-.077-.849-.09-1.713a23.189,23.189,0,0,1,20.826-23.444q1.162-.115,2.357-.117h.457a23.1,23.1,0,0,1,16.092,7q.357.635.676,1.29a23.079,23.079,0,0,0-15.55-6.458c-.153,0-.306-.006-.459-.006a23.186,23.186,0,0,0-23.182,23.564,22.881,22.881,0,0,0,2.288,9.631Z"/><path class="y" d="M3654.45,622.189Zm0-.021q-.077-.849-.09-1.713a23.19,23.19,0,0,1,20.826-23.444,23.189,23.189,0,0,0-20.826,23.444Q3654.37,621.319,3654.45,622.168Z"/><path class="k" d="M3698.14,649.125l-10.421-6.084a5.481,5.481,0,0,0-2.766-.751,5.409,5.409,0,0,0-1.4.183,23.145,23.145,0,0,1-5.815.79h-.2a22.978,22.978,0,0,1-6.117-.826h0l-.065-.017h-.006l-.027-.007h0l-.028-.009h-.043l-.018-.005-.024-.006h-.01a23.414,23.414,0,0,1-13.894-11.02l.013.014a23.813,23.813,0,0,0,1.547,2.393c-.359-.6-.694-1.218-1-1.851a23.127,23.127,0,0,0,16.027,6.485h.2a23.137,23.137,0,0,0,5.816-.79,4.888,4.888,0,0,1,.854-.114,11.984,11.984,0,0,0,8.65-4.831c.519-.677,1.11-1.281,1.7-1.929a23.077,23.077,0,0,0,3.661-25.549,23.552,23.552,0,0,1,2.657,3.026h0a23.5,23.5,0,0,0-3.333-4.316h0a23.11,23.11,0,0,1,.728,31.644l-.028.033-.031.034a5.566,5.566,0,0,0-1.433,3.808,5.465,5.465,0,0,0,.748,2.744v.006c.006.011.013.022.02.033l1.625,2.786Z"/><path class="f" d="M3698.14,649.125l-10.421-6.083a5.465,5.465,0,0,0-2.766-.748,5.539,5.539,0,0,0-1.425.187,23.247,23.247,0,0,1-5.79.783h-.2a22.994,22.994,0,0,1-6.119-.828,22.986,22.986,0,0,0,6.121.827h.2a23.136,23.136,0,0,0,5.815-.79,5.412,5.412,0,0,1,1.4-.183,5.479,5.479,0,0,1,2.766.751l10.421,6.084Zm-2.422-4.148-1.625-2.786c-.007-.011-.014-.022-.02-.033l1.645,2.819Zm-24.3-2.54-.065-.017Zm-.071-.02-.027-.007Zm-.032-.008-.028-.009Zm-.04-.012h0Zm-.031-.009-.018-.005Zm-.042-.011h0Zm22.115-2.969a5.566,5.566,0,0,1,1.433-3.808l.031-.034a5.781,5.781,0,0,0-1.46,3.842Z"/><path class="k" d="M3658.86,633.761a23.809,23.809,0,0,1-1.547-2.393c.179.184.362.363.547.542C3658.166,632.543,3658.5,633.16,3658.86,633.761Zm38.558-25.554a23.544,23.544,0,0,0-2.657-3.026q-.319-.654-.676-1.29a23.485,23.485,0,0,1,3.335,4.316Z"/><path class="f" d="M3674.13,626.991a2.725,2.725,0,1,1,2.71,2.77,2.639,2.639,0,0,1-2.71-2.77Zm.791-4.2-.03-.792a6.7,6.7,0,0,1,1.8-4.779c.974-1.157,1.766-2.131,1.766-3.166,0-1.067-.7-1.767-2.222-1.828a5.76,5.76,0,0,0-3.014.914l-1.036-3.318a10.441,10.441,0,0,1,5.085-1.249c4.019,0,5.845,2.223,5.845,4.75,0,2.314-1.43,3.836-2.588,5.114a5.239,5.239,0,0,0-1.552,3.806v.548Z"/><path class="z" d="M3725.27,651.018q-11.217,19.937-10.706,44.366l74.7-1.824c9.141-16.316,8.521-37.806.063-48.632Z"/><path class="aa" d="M3715.85,693.435a84.1,84.1,0,0,1,9.583-39.986,10.563,10.563,0,0,0,1.443,1.357,84.515,84.515,0,0,0-8.927,36.319,19.336,19.336,0,0,0-2.1,2.31Z"/><path class="f" d="M3726.08,652.252a84.066,84.066,0,0,0-10.226,41.8l72.63-1.774c8.032-14.908,8.131-35.177.243-45.976l-62.647,5.955Zm-11.512,44.436a1.3,1.3,0,0,1-1.306-1.277c-.343-16.447,3.316-31.6,10.875-45.033a1.3,1.3,0,0,1,1.014-.659l64.055-6.09a1.315,1.315,0,0,1,1.151.5c4.34,5.555,6.771,13.741,6.845,23.049a55.2,55.2,0,0,1-6.8,27.024,1.3,1.3,0,0,1-1.106.666l-74.7,1.824Z"/><path class="ab" d="M3804.1,724h-96.451c1.319-10.479,3.716-19.522,7.415-26.877a18.23,18.23,0,0,1,11.828-9.433l21.152-5.3.574-.146a3.445,3.445,0,0,0,2.611-3.189l.156-3.227s8-11.532,15.6-1.732v3.784a3.639,3.639,0,0,0,2.028,3.264l3.976,1.966,3.475,1.719,3.7,1.835.617.3,7.264,3.595,3.8,1.877,1.943.962a11.972,11.972,0,0,1,6.084,7.052,96.066,96.066,0,0,1,3.905,19.724Q3803.96,722.071,3804.1,724Z"/><path class="f" d="M3707.92,723.757h95.909c-.087-1.187-.19-2.38-.308-3.549a96.129,96.129,0,0,0-3.893-19.673,11.791,11.791,0,0,0-5.96-6.906L3768.9,681.37a3.863,3.863,0,0,1-2.164-3.483v-3.7c-2.016-2.574-4.228-3.846-6.6-3.785-4.453.117-8.092,4.94-8.511,5.516l-.154,3.154a3.713,3.713,0,0,1-2.795,3.417l-.574.145-21.152,5.3a17.954,17.954,0,0,0-11.669,9.3c-3.524,7.01-6,15.931-7.356,26.521Zm96.173.492h-96.451a.245.245,0,0,1-.244-.277c1.356-10.767,3.859-19.836,7.439-26.957a18.454,18.454,0,0,1,11.989-9.56l21.726-5.442a3.218,3.218,0,0,0,2.423-2.962l.158-3.227a.262.262,0,0,1,.044-.129c.16-.23,3.978-5.652,8.94-5.782,2.549-.073,4.925,1.291,7.055,4.04a.243.243,0,0,1,.052.15v3.784a3.378,3.378,0,0,0,1.892,3.043l24.77,12.258a12.288,12.288,0,0,1,6.209,7.2,96.642,96.642,0,0,1,3.915,19.773c.127,1.261.238,2.548.328,3.828a.247.247,0,0,1-.245.263Z"/><path class="ac" d="M3711.41,721.938h-2.165c1.384-9.609,3.731-17.75,6.987-24.225a16.83,16.83,0,0,1,9.3-8.237l-.065,2.044a18.127,18.127,0,0,0-7.211,7.573,78.493,78.493,0,0,0-6.844,22.845Zm27.365-34.453c-.263-.4-.526-.806-.79-1.222l9.92-2.484a2.708,2.708,0,0,1-1.952,1.909Z"/><path class="ad" d="M3761.72,685.41a31.961,31.961,0,0,1-11.849-2.23,4.724,4.724,0,0,0,2.66-4.053l.022-.439a33.542,33.542,0,0,0,7.484.825c.8,0,1.618-.026,2.44-.08h.055q1.677-.18,3.259-.494a4.916,4.916,0,0,0,2.639,3.383l1.164.575c.074.444.145.887.214,1.332a34.293,34.293,0,0,1-5.76,1.108Q3762.86,685.409,3761.72,685.41Z"/><path class="ae" d="M3788.04,690.568V724h-62.31l1.16-36.309,9.036-2.261c13.939,22.808,28.677,28.222,44.882,1.554Z"/><path class="ad" d="M3802.62,721.938h-1.775l-7.171-12.561-1.444-2.53-.723-1.264c-.232-.412-.451-.812-.662-1.225a26.532,26.532,0,0,1-1.5-3.588v-8.1l2.559,1.267c.023.307.051.613.084.92a27.657,27.657,0,0,0,3.493,10.8l6.651,11.656Q3802.42,719.579,3802.62,721.938Z"/><path class="af" d="M3729,721.938h-1.9l1.062-33.216,7.153-1.79q.4.641.8,1.26l-6.091,1.524Z"/><path class="af" d="M3762.21,706.873a14.1,14.1,0,0,1-4.576-.783q.723.07,1.446.071h.019c5.289-.007,10.424-2.789,15.537-8.455.024.11.048.221.073.331q.228,1.059.542,2.1c.025.082.049.163.073.244C3770.85,704.82,3766.48,706.873,3762.21,706.873Z"/><path class="f" d="M3727.08,722.7h59.66V691.378l-5.442-2.692c-7.342,11.746-14.611,17.465-22.2,17.475h-.019c-7.921,0-15.7-6.291-23.763-19.229l-7.153,1.79-1.087,33.977Zm60.965,2.611H3725.73a1.306,1.306,0,0,1-1.3-1.347l1.161-36.309a1.3,1.3,0,0,1,.987-1.224l9.037-2.263a1.307,1.307,0,0,1,1.431.586c7.621,12.473,15.038,18.8,22.04,18.8h.014c6.721-.007,13.651-5.808,20.6-17.239a1.306,1.306,0,0,1,1.695-.492l7.233,3.579a1.3,1.3,0,0,1,.726,1.17V724a1.3,1.3,0,0,1-1.314,1.31Z"/><path class="f" d="M3709.13,722.7h93.555a97.8,97.8,0,0,0-4.068-21.837,10.731,10.731,0,0,0-5.42-6.286l-24.773-12.258a4.918,4.918,0,0,1-2.749-4.431V674.56c-1.693-2.057-3.5-3.1-5.38-3.1h-.128c-3.581.089-6.681,3.769-7.5,4.834l-.138,2.83a4.734,4.734,0,0,1-3.6,4.393l-21.726,5.442a16.861,16.861,0,0,0-10.979,8.751c-3.341,6.645-5.726,15.045-7.094,24.986Zm94.963,2.611h-96.451a1.307,1.307,0,0,1-1.3-1.469c1.368-10.879,3.907-20.064,7.547-27.3a19.463,19.463,0,0,1,12.675-10.11l21.725-5.441a2.169,2.169,0,0,0,1.625-1.985l.157-3.231a1.31,1.31,0,0,1,.231-.682c.173-.248,4.292-6.093,9.786-6.237,2.9-.073,5.571,1.42,7.919,4.449a1.3,1.3,0,0,1,.273.8v3.784a2.321,2.321,0,0,0,1.3,2.091l24.772,12.259a13.364,13.364,0,0,1,6.748,7.824,102.108,102.108,0,0,1,4.291,23.851,1.3,1.3,0,0,1-1.3,1.4Z"/><path class="ab" d="M3788.11,635.451V650.6a26.455,26.455,0,0,1-2.754,11.9c-5.17,10.3-13.693,14.631-22.973,15.637a32.308,32.308,0,0,1-17.15-3.493,20.779,20.779,0,0,1-10.394-12.525l-2.015-6.58c-9.033,0-11.969-13.185-6.629-17.078a5.992,5.992,0,0,1,3.9-1.065.1.1,0,0,1,.042,0c18.107,1.555,35.589-11,36.782-27.967.751,2.209,1.543,4.279,2.4,6.211a43.708,43.708,0,0,0,6.225,10.387A34.089,34.089,0,0,0,3788.11,635.451Z"/><path class="f" d="M3729.74,637.626a5.628,5.628,0,0,0-3.4,1.027c-2.452,1.788-3.255,5.83-1.952,9.83,1.072,3.289,3.851,6.8,8.437,6.8a.242.242,0,0,1,.234.174l2.015,6.579a20.624,20.624,0,0,0,10.271,12.378,31.943,31.943,0,0,0,17.023,3.467c10.516-1.139,18.18-6.354,22.769-15.5a26.328,26.328,0,0,0,2.728-11.785V635.61a34.446,34.446,0,0,1-12.5-9.433,43.893,43.893,0,0,1-6.258-10.446c-.7-1.579-1.374-3.273-2.039-5.155a28.85,28.85,0,0,1-10.276,18.561,36.459,36.459,0,0,1-26.666,8.5.175.175,0,0,1-.033,0c-.12,0-.238-.008-.354-.008Zm30.3,40.825a32.2,32.2,0,0,1-14.913-3.6,21.116,21.116,0,0,1-10.518-12.671l-1.963-6.409c-4.74-.09-7.61-3.73-8.72-7.139-1.368-4.2-.493-8.469,2.129-10.38a6.228,6.228,0,0,1,4.05-1.113.371.371,0,0,1,.068,0,35.964,35.964,0,0,0,26.3-8.381,28.168,28.168,0,0,0,10.21-19.358.242.242,0,0,1,.214-.226.245.245,0,0,1,.263.162c.783,2.3,1.567,4.33,2.4,6.19a43.373,43.373,0,0,0,6.188,10.332,34.022,34.022,0,0,0,12.472,9.364.246.246,0,0,1,.145.223V650.6a26.83,26.83,0,0,1-2.78,12.005c-4.67,9.3-12.464,14.611-23.167,15.77Q3761.21,678.451,3760.04,678.451Z"/><path class="ad" d="M3763.12,676.468a31.949,31.949,0,0,1-13.367-2.87,32.858,32.858,0,0,0,5.273.419q1.143,0,2.327-.076c9.279-1.006,17.8-5.334,22.972-15.637a25.178,25.178,0,0,0,1.626-4.092c.873-.244,1.454-.679,1.454-1.176,0-.383-.346-.729-.906-.98a27.549,27.549,0,0,0,.58-5.647v-12.14a40.557,40.557,0,0,0,3.734,2.017V650.6a25.728,25.728,0,0,1-1.46,8.6l-.626-.917a1.516,1.516,0,0,0-1.259-.669,1.594,1.594,0,0,0-.264.023,1.516,1.516,0,0,0-1.221,1.116l-.237.892a6.642,6.642,0,0,0,.78,5.2,26.677,26.677,0,0,1-4,4.865c-.083,0-.166-.005-.249-.005a6.491,6.491,0,0,0-1.9.281l-.708.221-1.39.438-.694.219c-.106.031-.248.081-.392.135s-.285.1-.421.164a6.7,6.7,0,0,0-3.729,4.214,30.4,30.4,0,0,1-3.984,1.038Q3764.08,676.469,3763.12,676.468Z"/><path class="ac" d="M3749.75,673.6a31.7,31.7,0,0,1-6.7-1.858,19.777,19.777,0,0,1-6.958-10.009l-2.016-6.579a1.3,1.3,0,0,0-1.247-.924,7.519,7.519,0,0,1-6.594-4.146c-1.7-3.043-1.867-6.964-.408-9.322a4.285,4.285,0,0,1,1.453-1.459c-2.021,4.8.493,12.8,6.595,14.261a3.874,3.874,0,0,1,2.752,2.664l1.271,4.148a20.786,20.786,0,0,0,10.394,12.525Q3749.01,673.265,3749.75,673.6Z"/><path class="ag" d="M3760.05,676.9a30.69,30.69,0,0,1-14.218-3.429,18.552,18.552,0,0,1-2.779-1.734,174.738,174.738,0,0,0,20.067,4.728q.96,0,1.947-.054-1.358.261-2.788.417Q3761.15,676.9,3760.05,676.9Z"/><path class="f" d="M3729.73,638.688a4.3,4.3,0,0,0-3.9,2.072c-1.459,2.358-1.288,6.279.408,9.322a7.52,7.52,0,0,0,6.594,4.146,1.3,1.3,0,0,1,1.247.924l2.016,6.579a19.552,19.552,0,0,0,9.737,11.743,30.936,30.936,0,0,0,16.447,3.357c10.131-1.1,17.5-6.125,21.918-14.921a25.253,25.253,0,0,0,2.615-11.31V636.286c-9.046-4.309-14.9-10.834-19.393-21.815a30.574,30.574,0,0,1-9.935,15.473,37.516,37.516,0,0,1-27.391,8.752h-.047c-.106-.005-.21-.007-.313-.007Zm30.3,40.825a33.232,33.232,0,0,1-15.387-3.711,22.183,22.183,0,0,1-11.05-13.308l-1.748-5.7a10.135,10.135,0,0,1-7.893-5.437c-2.163-3.883-2.3-8.8-.347-11.967a6.953,6.953,0,0,1,6.506-3.3,1.327,1.327,0,0,1,.141.005h0a34.887,34.887,0,0,0,25.527-8.13,27.113,27.113,0,0,0,9.841-18.629,1.3,1.3,0,0,1,2.537-.327c4.573,13.412,10.51,20.73,20.492,25.262a1.3,1.3,0,0,1,.765,1.188V650.6a27.868,27.868,0,0,1-2.893,12.482c-4.841,9.646-12.916,15.147-24,16.347h-.055C3761.65,679.487,3760.84,679.513,3760.03,679.513Z"/><path class="f" d="M3730.57,638.934a1.5,1.5,0,0,1-.189-.011c-.1-.013-.2-.016-.3-.019l.127-3.025c.185.008.36.017.544.041a1.513,1.513,0,0,1-.185,3.014Z"/><path class="ab" d="M3788.12,648.167V635.454c.473-.333.92-.678,1.35-1.041C3797.2,633.032,3797.8,648.167,3788.12,648.167Z"/><path class="f" d="M3788.36,635.581v12.336a6.449,6.449,0,0,0,5.859-3.633,8.019,8.019,0,0,0-.411-7.993,4.131,4.131,0,0,0-4.235-1.648C3789.185,634.969,3788.787,635.277,3788.36,635.581Zm-.245,12.831a.245.245,0,0,1-.246-.245V635.454a.25.25,0,0,1,.1-.2c.473-.333.909-.669,1.333-1.028a.249.249,0,0,1,.116-.054A4.667,4.667,0,0,1,3794.2,636a8.535,8.535,0,0,1,.456,8.507,6.953,6.953,0,0,1-6.536,3.9Z"/><path class="f" d="M3789.42,636.117v10.628a5.265,5.265,0,0,0,3.851-2.936,7.011,7.011,0,0,0-.311-6.884,3.058,3.058,0,0,0-2.944-1.274c-.2.159-.393.313-.6.466Zm-1.3,13.354a1.3,1.3,0,0,1-1.3-1.3V635.454a1.307,1.307,0,0,1,.553-1.067c.448-.315.859-.632,1.259-.97a1.287,1.287,0,0,1,.613-.289,5.685,5.685,0,0,1,5.817,2.235,9.649,9.649,0,0,1,.553,9.616,8.068,8.068,0,0,1-7.49,4.492Z"/><path class="f" d="M3770.73,659.009c-.96.118-1.806.175-2.616.3a19.579,19.579,0,0,0-2.33.481c-.76.208-1.519.456-2.314.733s-1.616.585-2.562.829h0a.266.266,0,0,1-.323-.191.261.261,0,0,1,.021-.185,6.548,6.548,0,0,1,1.892-2.218,7.515,7.515,0,0,1,2.673-1.307,6.376,6.376,0,0,1,5.709,1.1.264.264,0,0,1-.139.462Z"/><path class="ah" d="M3747.66,658.573c-1.7,0-3-.516-3.144-1.359-.193-1.1,1.635-2.335,4.08-2.762a9.533,9.533,0,0,1,1.632-.146c1.7,0,3,.516,3.144,1.359.192,1.1-1.635,2.335-4.081,2.762a9.527,9.527,0,0,1-1.631.146Z"/><path class="ah" d="M3780.32,654.422c-1.7,0-3.087-.62-3.087-1.386s1.382-1.385,3.087-1.385a5.5,5.5,0,0,1,2.181.405q-.228,1.089-.548,2.156A6.125,6.125,0,0,1,3780.32,654.422Z"/><path class="ai" d="M3781.95,654.212q.32-1.065.548-2.156c.56.251.906.6.906.98C3783.4,653.533,3782.82,653.968,3781.95,654.212Z"/><path class="f" d="M3777.71,630.175c.026,0,0-.011-.026-.019a.357.357,0,0,0-.074-.027,1.5,1.5,0,0,0-.175-.047c-.121-.033-.252-.049-.384-.071a4.4,4.4,0,0,0-.813-.02,4.549,4.549,0,0,0-1.642.433,5.8,5.8,0,0,0-1.486,1.087c-.238.218-.424.489-.646.736-.194.268-.375.551-.567.833l-.026.037a.378.378,0,0,1-.67-.334c.116-.343.225-.7.354-1.043.162-.333.291-.691.491-1.017a7.387,7.387,0,0,1,1.466-1.849,6.729,6.729,0,0,1,2.148-1.274,7.091,7.091,0,0,1,1.251-.329c.217-.029.435-.061.661-.071.111-.01.228-.011.347-.011h.185a1.863,1.863,0,0,1,.234.021,1.513,1.513,0,1,1-.629,2.96Z"/><path class="f" d="M3731.54,655.745l.026-6.276a.264.264,0,0,1,.515-.085l2.035,5.938a1.323,1.323,0,1,1-2.5.858,1.347,1.347,0,0,1-.076-.435Z"/><path class="f" d="M3739.81,635.234c.5.186,1.118.37,1.694.527s1.182.308,1.781.429a25.947,25.947,0,0,0,3.634.514,17.649,17.649,0,0,0,3.648-.115,10.8,10.8,0,0,0,3.457-1.129l.015-.008a.364.364,0,0,1,.406.6,11.847,11.847,0,0,1-3.52,1.943,19.426,19.426,0,0,1-3.935.886,28.134,28.134,0,0,1-4.017.2c-.672-.007-1.342-.042-2.014-.1s-1.32-.113-2.062-.234h-.018a1.825,1.825,0,1,1,.587-3.6,1.957,1.957,0,0,1,.344.087Z"/><path class="z" d="M3797.2,617.291c-1.011,8.172-3.584,14.311-9.081,18.16-10.9-4.945-16.751-13.014-21.187-26.029-1.193,16.968-18.675,29.522-36.782,27.967a.1.1,0,0,0-.042,0c-.03,0-.066-.006-.1-.006-.236-.024-.472-.049-.7-.085a12.08,12.08,0,0,1-8.312-5.357,12.422,12.422,0,0,1-2.052-7.307c1.029-29.474,29.663-54.668,53.744-31.859l4.213-1.938a7.018,7.018,0,0,1,8.16,1.646c1.083,1.212,2.107,2.441,3.063,3.7a43.8,43.8,0,0,1,9.077,21.108Z"/><path class="aj" d="M3735.89,641.242q-1.518,0-3.044-.13h-.042c-.03,0-.067-.006-.1-.006-.236-.024-.472-.049-.7-.085a11.921,11.921,0,0,1-4.668-1.748,4.738,4.738,0,0,1,2.4-.585c.1,0,.207,0,.313.007h.051l-.009.207a2.325,2.325,0,0,1,.3.019,1.53,1.53,0,0,0,.863-.148q.988.054,1.977.053a37.577,37.577,0,0,0,4.976-.331,1.806,1.806,0,0,0,.674.25h.018c.742.121,1.378.18,2.062.234s1.342.088,2.014.1h.553a26.584,26.584,0,0,0,3.464-.2,19.443,19.443,0,0,0,3.886-.869,36.619,36.619,0,0,1-14.982,3.229Zm12.416-4.5c-.464,0-.929-.015-1.391-.041-.329-.019-.658-.048-.987-.084a36.921,36.921,0,0,0,11.556-6.676h0a30.571,30.571,0,0,0,9.935-15.473q.706,1.727,1.459,3.307c-2.025,7.939-7.676,14.578-15.056,18.744.212-.148.419-.3.619-.469a.364.364,0,0,0-.406-.6l-.015.008a10.8,10.8,0,0,1-3.457,1.129,15.064,15.064,0,0,1-2.253.158Z"/><path class="f" d="M3727.33,639.273a12.17,12.17,0,0,1-1.131-.819,5.379,5.379,0,0,1,.651-.406,13.33,13.33,0,0,0,3.035.634l.113.01h.047c-.106-.005-.21-.007-.313-.007a4.739,4.739,0,0,0-2.4.585Zm5.894-.445q-.989,0-1.977-.053h0c.658.036,1.317.052,1.974.052a37.79,37.79,0,0,0,4.982-.331h0a37.572,37.572,0,0,1-4.98.332Zm-3.128-.131Zm15.831-2.077h0a36.9,36.9,0,0,0,11.557-6.676,36.918,36.918,0,0,1-11.554,6.676Z"/><path class="f" d="M3730.57,638.934a1.5,1.5,0,0,1-.189-.011c-.1-.013-.2-.016-.3-.019l.009-.207q.578.048,1.151.078h0a1.5,1.5,0,0,1-.67.159Z"/><path class="f" d="M3743.52,639.082h-.553c-.672-.007-1.342-.042-2.014-.1s-1.32-.113-2.062-.234h-.018a1.806,1.806,0,0,1-.67-.25h0a37.854,37.854,0,0,0,7.723-1.876h0c.329.036.658.065.987.084.462.026.927.041,1.391.041a15.053,15.053,0,0,0,2.257-.156,10.8,10.8,0,0,0,3.457-1.129l.015-.008a.364.364,0,0,1,.406.6c-.2.164-.407.321-.619.469q-1.434.809-2.95,1.491a19.444,19.444,0,0,1-3.886.869,26.591,26.591,0,0,1-3.464.2Z"/><path class="aa" d="M3722.21,631.443a11.173,11.173,0,0,1-1.974-6.766c.576-16.484,10.359-32.282,23.259-37.568a24.143,24.143,0,0,1,9.181-1.856,24.48,24.48,0,0,1,10.937,2.659,24.867,24.867,0,0,0-8.184-1.4c-17.632,0-33.048,19.212-33.8,40.7a12.482,12.482,0,0,0,.584,4.236Zm53.165-36.094c-.582-.553-1.165-1.074-1.752-1.571l3.815-1.753a5.764,5.764,0,0,1,6.095.8,6.988,6.988,0,0,0-.971-.067,7.082,7.082,0,0,0-2.973.652Z"/><path class="f" d="M3730.26,636.09h0a34.887,34.887,0,0,0,25.527-8.13,27.114,27.114,0,0,0,9.841-18.629,1.3,1.3,0,0,1,2.537-.327c4.468,13.1,10.236,20.387,19.8,24.941.224-.173.442-.347.656-.528,3.979-3.37,6.288-8.493,7.257-16.116-1.191-8.557-5.053-16.393-11.8-23.946a5.744,5.744,0,0,0-6.64-1.33l-4.215,1.936a1.3,1.3,0,0,1-1.443-.236c-8.649-8.2-18.693-10.543-28.285-6.616-12.9,5.286-22.683,21.084-23.259,37.568a10.976,10.976,0,0,0,9.88,11.4h.035a.639.639,0,0,1,.1.005Zm2.964,2.737q-1.564,0-3.129-.131H3730l-.113-.01a13.589,13.589,0,0,1-12.256-14.1c.621-17.74,10.852-34.144,24.88-39.89,10.355-4.241,21.125-1.919,30.419,6.53l3.42-1.571a8.369,8.369,0,0,1,9.678,1.962c7.15,8,11.227,16.346,12.465,25.5a1.373,1.373,0,0,1,0,.335c-1.043,8.407-3.643,14.112-8.183,17.954-.46.389-.931.753-1.441,1.113a1.3,1.3,0,0,1-1.291.121c-9.483-4.3-15.54-10.883-20.159-22.171a30.574,30.574,0,0,1-9.935,15.473,37.485,37.485,0,0,1-24.265,8.885Z"/><path class="ab" d="M3782.94,677.571l1.708-4.857a6.972,6.972,0,0,0-.676-6.032l-1.225-1.948a6.379,6.379,0,0,1-.765-5.028l.238-.89a1.286,1.286,0,0,1,2.3-.4l5.991,8.768a3.782,3.782,0,0,1,.528,3.128l-2.621,9.662Z"/><path class="f" d="M3788.42,680.224a.23.23,0,0,1-.063-.009.246.246,0,0,1-.174-.3l2.622-9.661a3.529,3.529,0,0,0-.493-2.926l-5.991-8.769a1.042,1.042,0,0,0-1.865.32l-.237.891a6.141,6.141,0,0,0,.736,4.834l1.225,1.949a7.185,7.185,0,0,1,.7,6.243l-1.71,4.857a.246.246,0,0,1-.463-.163l1.708-4.857a6.686,6.686,0,0,0-.651-5.818l-1.226-1.95a6.636,6.636,0,0,1-.794-5.22l.237-.892a1.532,1.532,0,0,1,2.745-.47l5.991,8.768a4.027,4.027,0,0,1,.563,3.33l-2.622,9.663a.248.248,0,0,1-.239.18Z"/><path class="ac" d="M3786.66,672.987l-1.6-.763a7.182,7.182,0,0,0-.875-5.672l-1.225-1.949a6.141,6.141,0,0,1-.736-4.834l.237-.891a1.042,1.042,0,0,1,1.865-.32l.079.118-.147.56a6.394,6.394,0,0,0,.763,5.031l1.228,1.949a6.959,6.959,0,0,1,.672,6.029Z"/><path class="u" d="M3785.05,672.224l-.222-.106h0a6.981,6.981,0,0,0-.853-5.434l-1.229-1.949a6.381,6.381,0,0,1-.763-5.025l.236-.889a1.28,1.28,0,0,1,1.25-.958,1.26,1.26,0,0,1,1.013.5l-.082.312-.079-.118a1.042,1.042,0,0,0-1.865.32l-.237.891a6.139,6.139,0,0,0,.736,4.834l1.225,1.949A7.183,7.183,0,0,1,3785.05,672.224Z"/><path class="f" d="M3788.42,681.283a1.308,1.308,0,0,1-1.261-1.647l2.622-9.661a2.476,2.476,0,0,0-.345-2.051l-5.991-8.768-.2.886a5.078,5.078,0,0,0,.608,4l1.225,1.949a8.239,8.239,0,0,1,.8,7.159L3784.17,678a1.305,1.305,0,1,1-2.463-.866l1.71-4.858a5.65,5.65,0,0,0-.549-4.9l-1.227-1.948a7.7,7.7,0,0,1-.92-6.057l.237-.892a2.591,2.591,0,0,1,4.643-.8l5.991,8.768a5.083,5.083,0,0,1,.71,4.206l-2.622,9.662A1.305,1.305,0,0,1,3788.42,681.283Z"/><path class="ab" d="M3776.28,685.414c-2.862,6.562.978,16.292.978,16.292l6.861,28.551H3804.1l-13.771-24.119a27.742,27.742,0,0,1-3.492-10.808,31.218,31.218,0,0,1,1.035-11.582,42.106,42.106,0,0,0,1.4-8.073l-10.593-5.045-4.834,1.524a5.388,5.388,0,0,0-3.7,6.006l1.67,10.228s3.783-.152,4.691-3.633l1.06-4.767Z"/><path class="f" d="M3784.31,730.012h19.361L3790.11,706.26a27.807,27.807,0,0,1-3.523-10.9,31.354,31.354,0,0,1,1.042-11.672,42.2,42.2,0,0,0,1.375-7.859l-10.354-4.932-4.742,1.495a5.167,5.167,0,0,0-3.528,5.732l1.633,10a4.936,4.936,0,0,0,3.967-2.641c.024-.056.047-.112.072-.167l.01-.021a4.849,4.849,0,0,0,.2-.6l1.057-4.758a.245.245,0,0,1,.479.107l-1.059,4.766a5.135,5.135,0,0,1-.23.691v.023l-.03.07c-2.722,6.391.977,15.927,1.016,16.023l6.825,28.4Zm19.784.491H3784.12a.246.246,0,0,1-.239-.188l-6.86-28.553c-.137-.336-3.231-8.31-1.564-14.7a6.154,6.154,0,0,1-3.636,1.573.258.258,0,0,1-.253-.205L3769.9,678.2a5.663,5.663,0,0,1,3.865-6.28l4.834-1.523a.241.241,0,0,1,.179.013l10.595,5.044a.247.247,0,0,1,.138.24,42.6,42.6,0,0,1-1.4,8.121,30.924,30.924,0,0,0-1.028,11.49,27.333,27.333,0,0,0,3.462,10.713l13.77,24.119a.245.245,0,0,1-.213.367Z"/><path class="ac" d="M3772.91,686.728c-.264-1.431-.521-2.863-.75-4.3l-.469-2.875-.235-1.436-.027-.177-.016-.138c-.008-.092-.027-.182-.028-.274a4.03,4.03,0,0,1,.008-.551,4.083,4.083,0,0,1,2.43-3.422c.082-.043.172-.065.257-.1a2.474,2.474,0,0,1,.3-.1l.694-.22.421-.132a5.391,5.391,0,0,0-2.057,5.159l1.211,7.424a3.35,3.35,0,0,1-.923.765,4.248,4.248,0,0,1-.816.377Z"/><path class="ac" d="M3785.42,721.938h-1.953l-1.5-6.261c-.572-2.379-1.146-4.759-1.7-7.144l-1.641-7.155a1.019,1.019,0,0,0-.041-.139l-.017-.048c-.437-1.188-.822-2.516-1.153-3.8a37.062,37.062,0,0,1-.776-3.915,33.682,33.682,0,0,1-.321-3.937q0-.693.046-1.387a4.838,4.838,0,0,0,3.165-2.624c-2.766,6.557,1.029,16.176,1.029,16.176Z"/><path class="f" d="M3776.68,685.588a21.952,21.952,0,0,0-.365,3.955,33.786,33.786,0,0,0,.321,3.937,37.064,37.064,0,0,0,.776,3.915c.331,1.28.716,2.608,1.153,3.8l.017.048a1.02,1.02,0,0,1,.041.139l1.641,7.155c.549,2.385,1.123,4.765,1.7,7.144l3.43,14.275-1.268-1H3804.1l-1.134,1.952-11.552-20.235-1.445-2.529-.721-1.265c-.246-.434-.493-.886-.723-1.336a28.946,28.946,0,0,1-2.173-5.687,30.5,30.5,0,0,1-.673-12.074q.213-1.5.57-2.981c.113-.483.257-1,.379-1.448s.241-.909.349-1.367q.327-1.372.555-2.766.115-.7.2-1.4a1.809,1.809,0,0,0-.08-.842,1.9,1.9,0,0,0-.456-.721,1.806,1.806,0,0,0-.339-.267c-.06-.043-.125-.067-.191-.106l-.329-.157-2.63-1.252-2.63-1.252-1.264-.6a4.028,4.028,0,0,0-1.053-.282,3.944,3.944,0,0,0-1.09.018,3.726,3.726,0,0,0-.532.122l-.681.213-1.389.437-.694.22c-.127.038-.214.071-.3.1a1.759,1.759,0,0,0-.257.1,4.084,4.084,0,0,0-2.43,3.422,4.028,4.028,0,0,0-.008.551c0,.092.02.182.028.274l.016.138.027.177.235,1.436.469,2.875c.306,1.918.659,3.827,1.017,5.736L3771.75,687l.211-.029c.088-.018.175-.029.265-.052a5,5,0,0,0,.528-.145,4.386,4.386,0,0,0,.964-.429,3.458,3.458,0,0,0,1.357-1.406c.081-.149.131-.307.212-.459l.213-.659q.216-.666.471-1.324a20.567,20.567,0,0,1,1.16-2.608.453.453,0,0,1,.85.19,20.784,20.784,0,0,1-.058,2.873c-.034.474-.079.946-.139,1.415-.029.238-.054.462-.1.71a7.911,7.911,0,0,1-.247.867,5.593,5.593,0,0,1-2.257,2.767,6.431,6.431,0,0,1-1.582.735,6.935,6.935,0,0,1-.83.207c-.138.03-.283.048-.425.07a4.048,4.048,0,0,1-.487.043h-.03a1.353,1.353,0,0,1-1.392-1.161c-.269-1.923-.541-3.846-.861-5.761l-.469-2.874-.235-1.438-.029-.182-.027-.224c-.015-.15-.041-.3-.045-.45a7.008,7.008,0,0,1,.01-.9,6.694,6.694,0,0,1,3.99-5.615c.136-.066.28-.11.421-.164s.286-.1.392-.135l.694-.219,1.39-.438.708-.221a6.438,6.438,0,0,1,.886-.2,6.55,6.55,0,0,1,1.812-.029,6.623,6.623,0,0,1,1.753.468c.3.133.481.225.711.332l.657.313,2.63,1.252,2.629,1.252.329.157c.146.077.3.152.445.246a4.331,4.331,0,0,1,.8.632,4.448,4.448,0,0,1,1.287,3.751c-.064.5-.138.991-.219,1.485q-.245,1.482-.591,2.944-.174.73-.371,1.455c-.134.488-.251.907-.359,1.369q-.328,1.356-.523,2.737a27.855,27.855,0,0,0,.611,11.036,26.283,26.283,0,0,0,1.977,5.176c.211.413.43.813.662,1.225l.723,1.264,1.444,2.53,11.552,20.233a1.3,1.3,0,0,1-.487,1.781,1.32,1.32,0,0,1-.646.172H3784.12a1.306,1.306,0,0,1-1.269-1l-3.43-14.277c-.57-2.379-1.141-4.759-1.735-7.133l-1.79-7.12.059.186c-.283-.724-.5-1.386-.7-2.087s-.39-1.389-.542-2.1a28.848,28.848,0,0,1-.64-4.3,18.611,18.611,0,0,1,.223-4.386,11.41,11.41,0,0,1,1.59-4.115.441.441,0,0,1,.8.324Z"/><path class="ak" d="M3812.52,797.075H3697.61a11.2,11.2,0,0,1-11.2-11.2h137.308A11.2,11.2,0,0,1,3812.52,797.075Z"/><path class="f" d="M3686.63,786.093a11,11,0,0,0,10.98,10.765h114.909a11,11,0,0,0,10.98-10.765Zm125.889,11.2H3697.61a11.43,11.43,0,0,1-11.417-11.416v-.218h137.743v.218a11.429,11.429,0,0,1-11.416,11.415Z"/><path class="al" d="M3821.98,788.765h-6.345l.216-1.583h6.474a9.8,9.8,0,0,1-.345,1.583Zm-127.174,0h-6.663a9.855,9.855,0,0,1-.344-1.583h6.789Z"/><path class="f" d="M3687.8,787.182a9.908,9.908,0,0,0,9.808,8.588h114.909a9.909,9.909,0,0,0,9.809-8.588Zm124.717,11.2H3697.61a12.519,12.519,0,0,1-12.5-12.5,1.305,1.305,0,0,1,1.306-1.3h137.308a1.306,1.306,0,0,1,1.3,1.3,12.519,12.519,0,0,1-12.5,12.5Z"/><path class="am" d="M3703.34,797.075H3807.1a6.738,6.738,0,0,0,6.853-5.639l8.357-61.049c.487-3.8-2.719-7.144-6.853-7.144H3694.98c-4.133,0-7.34,3.343-6.853,7.144l8.359,61.049A6.736,6.736,0,0,0,3703.34,797.075Z"/><path class="f" d="M3694.98,723.461a6.883,6.883,0,0,0-5.186,2.281,5.8,5.8,0,0,0-1.451,4.618l8.358,61.047a6.523,6.523,0,0,0,6.637,5.451H3807.1a6.522,6.522,0,0,0,6.637-5.45l8.358-61.05a5.8,5.8,0,0,0-1.45-4.616,6.884,6.884,0,0,0-5.188-2.281Zm112.12,73.831H3703.34a6.958,6.958,0,0,1-7.069-5.829l-8.357-61.046a6.223,6.223,0,0,1,1.555-4.962,7.319,7.319,0,0,1,5.513-2.429h120.473a7.321,7.321,0,0,1,5.515,2.429,6.225,6.225,0,0,1,1.554,4.96l-8.358,61.05A6.956,6.956,0,0,1,3807.1,797.292Z"/><path class="an" d="M3700.69,786.427q-1.8-.24-3.637-.509l-7.625-55.7a4.73,4.73,0,0,1,1.187-3.761,5.8,5.8,0,0,1,4.371-1.912h111.508c-.158,1.34-.337,2.665-.533,3.959H3700.04a6.091,6.091,0,0,0-6.26,6.662Z"/><path class="ak" d="M3707.68,797.075h95.09a6.192,6.192,0,0,0,6.261-5.259l7.635-56.647a6.092,6.092,0,0,0-6.261-6.662H3700.04a6.091,6.091,0,0,0-6.26,6.662l7.635,56.647A6.19,6.19,0,0,0,3707.68,797.075Z"/><path class="f" d="M3694.98,724.548a5.8,5.8,0,0,0-4.371,1.912,4.729,4.729,0,0,0-1.187,3.761l8.357,61.037a5.435,5.435,0,0,0,5.559,4.512H3807.1a5.434,5.434,0,0,0,5.558-4.5l8.36-61.06a4.728,4.728,0,0,0-1.189-3.75,5.8,5.8,0,0,0-4.372-1.912ZM3807.1,798.38H3703.34a8.045,8.045,0,0,1-8.147-6.778l-8.357-61.038a7.313,7.313,0,0,1,1.816-5.829,8.408,8.408,0,0,1,6.33-2.8h120.473a8.41,8.41,0,0,1,6.331,2.8,7.31,7.31,0,0,1,1.818,5.818l-8.36,61.059a8.043,8.043,0,0,1-8.144,6.768Z"/><path class="ao" d="M3807.1,795.77h-.4a5.878,5.878,0,0,0,2.324-3.954l7.636-56.647a6.092,6.092,0,0,0-6.261-6.662h-4.443c.2-1.294.375-2.619.533-3.959h8.965a5.8,5.8,0,0,1,4.372,1.912,4.728,4.728,0,0,1,1.189,3.75l-8.36,61.06a5.435,5.435,0,0,1-5.558,4.5Zm-103.362,0h-.4a5.435,5.435,0,0,1-5.559-4.512l-.732-5.34q1.833.267,3.637.509l.727,5.389a5.881,5.881,0,0,0,2.329,3.954Z"/><path class="ap" d="M3806.7,795.77H3703.74a5.88,5.88,0,0,1-2.323-3.954l-.727-5.389a214.793,214.793,0,0,0,28.318,2.055c44.678,0,70.635-18.277,76.953-59.975h4.443a6.092,6.092,0,0,1,6.261,6.662l-7.636,56.647a5.877,5.877,0,0,1-2.329,3.954Z"/><path class="f" d="M3807.1,797.075H3703.34a6.736,6.736,0,0,1-6.852-5.639l-.731-5.706h0l1.292.192.732,5.34a5.435,5.435,0,0,0,5.559,4.512H3807.1a5.434,5.434,0,0,0,5.558-4.5l8.36-61.06a4.728,4.728,0,0,0-1.189-3.75,5.8,5.8,0,0,0-4.372-1.912h-8.965c.051-.434.1-.866.147-1.3h8.822c4.132,0,7.338,3.341,6.851,7.145l-8.36,61.048a6.737,6.737,0,0,1-6.852,5.63Z"/><path class="f" d="M3762.85,764.368a7.9,7.9,0,0,1-7.627,5.267c-4.4,0-7.955-3.3-7.955-7.368s3.56-7.361,7.955-7.361a8.007,8.007,0,0,1,1.089.073,5.726,5.726,0,0,0-1.089,3.353,6.633,6.633,0,0,0,7.627,6.036Z"/><path class="al" d="M3758.67,763.7a6.093,6.093,0,0,1-3.43-4.964h0v-.4h0v-.061h0a5.661,5.661,0,0,1,.8-2.844h.055a8.031,8.031,0,0,1,1.09.073,5.737,5.737,0,0,0-1.09,3.353,5.939,5.939,0,0,0,2.575,4.845Z"/><path class="aq" d="M3755.24,758.738Zm0-.026Zm0-.013Zm0-.025Zm0-.014Zm0-.016Zm0-.022Zm0-.018Zm0-.02Zm0-.018Zm0-.02v0Zm0-.019Zm0-.018Zm0-.022Zm0-.017Zm0-.021Zm0-.019Zm0-.021Zm0-.019Zm0-.02Zm0-.02v-.018h0Zm0-.018Zm0-.018Zm0-.015Zm0-.014ZM3755.24,758.271Z"/><path class="al" d="M3756.09,770.156a8.331,8.331,0,0,1-4.755-1.463,8.431,8.431,0,0,0,3.775.941h.319a7.951,7.951,0,0,0,7.206-4.665h.053a6.554,6.554,0,0,0,1.029-.078,7.9,7.9,0,0,1-7.627,5.265Z"/><path class="aq" d="M3755.25,769.635Zm-.043,0Zm.063,0Zm-.091,0Zm.111,0Zm-.133,0Zm.154,0Zm-.181,0Zm.2,0Zm-.222,0a8.433,8.433,0,0,1-3.775-.941h0a8.447,8.447,0,0,0,3.778.944Zm.242,0Zm.02,0Zm.019,0Zm.019,0Zm.019,0a7.954,7.954,0,0,0,7.2-4.665h0a7.95,7.95,0,0,1-7.2,4.662Z"/><path class="ar" d="M3735.24,617.616a2.4,2.4,0,0,1-1.27-.364c-2.571-1.563-2.147-6.958.948-12.05,2.523-4.15,6.04-6.82,8.648-6.82a3.052,3.052,0,0,1,1.613.429c2.571,1.56.809,6.144-2.285,11.238C3740.29,614.335,3737.57,617.616,3735.24,617.616Z"/><path class="as" d="M3733.23,636.218q-1.479,0-2.965-.128h0c-.034,0-.069-.005-.1-.005h-.035a10.724,10.724,0,0,1-6.915-3.4,29.494,29.494,0,0,0,8.5,1.385c8.253,0,15.306-4.571,20.448-16.444,2.688-7.7,5.753-10.679,9.054-10.679a8.494,8.494,0,0,1,4.674,1.712,1.291,1.291,0,0,0-.251.68,27.113,27.113,0,0,1-9.841,18.629,34.852,34.852,0,0,1-22.569,8.25Z"/><path class="f" d="M3733.19,637.52q-1.518,0-3.045-.131h-.042c-.03,0-.066-.006-.1-.006-.236-.024-.472-.049-.7-.085-4.51-2.9-8.312-5.357-8.312-5.357q1.119.4,2.217.736a10.722,10.722,0,0,0,6.915,3.4h.035a.639.639,0,0,1,.1.005h0q1.484.129,2.965.128a34.851,34.851,0,0,0,22.562-8.258,27.115,27.115,0,0,0,9.841-18.629,1.291,1.291,0,0,1,.251-.68c.348.236.7.491,1.049.771C3765.8,625.435,3750.17,637.518,3733.19,637.52Z"/><path class="as" d="M3787.97,633.945c-9.047-4.306-14.7-11.055-19.061-22.854,7.079,5.8,12.911,8.615,16.941,8.615,6.074,0,8.056-6.4,4.063-18.628a41.175,41.175,0,0,1,5.97,16.223c-.969,7.623-3.278,12.746-7.257,16.116C3788.41,633.6,3788.19,633.772,3787.97,633.945Z"/><path class="f" d="M3788.11,635.451c-10.9-4.945-16.751-13.014-21.187-26.029q1,.873,1.979,1.669c4.365,11.8,10.014,18.548,19.061,22.854.224-.173.442-.347.656-.528,3.979-3.37,6.288-8.493,7.257-16.116a41.175,41.175,0,0,0-5.97-16.223q-.753-2.309-1.8-4.894a43.8,43.8,0,0,1,9.081,21.107C3796.19,625.463,3793.61,631.6,3788.11,635.451Z"/><path class="f" d="M3750.09,643.934a10.771,10.771,0,0,1-1.154-.024c-.367-.024-.73-.06-1.091-.106a17.15,17.15,0,0,1-2.128-.411,12.7,12.7,0,0,1-2.017-.723,8.994,8.994,0,0,1-1.774-1.1,9.366,9.366,0,0,0,3.92.349,15.041,15.041,0,0,0,1.9-.332q.467-.112.919-.253a7.72,7.72,0,0,0,.845-.3,1.52,1.52,0,1,1,.7,2.9Z"/><path class="f" d="M3746.28,646.788c.155,3.124,2.066,5.569,4.269,5.459s3.863-2.73,3.709-5.853-2.066-5.569-4.268-5.459S3746.12,643.664,3746.28,646.788Z"/><path class="f" d="M3746.49,646.777c.145,2.936,1.885,5.256,3.909,5.256h.13a3.291,3.291,0,0,0,2.567-1.7,7.229,7.229,0,0,0-.384-7.75,3.256,3.256,0,0,0-2.721-1.433c-2.08.1-3.65,2.626-3.5,5.625Zm3.911,5.691c-2.255,0-4.189-2.5-4.345-5.669-.16-3.238,1.6-5.967,3.915-6.082a3.7,3.7,0,0,1,3.084,1.6,7.655,7.655,0,0,1,.408,8.249,3.708,3.708,0,0,1-2.911,1.9Z"/><path class="v" d="M3749.93,645.129c.045.909.6,1.621,1.242,1.589s1.125-.8,1.08-1.705-.6-1.62-1.243-1.588S3749.88,644.22,3749.93,645.129Z"/><path class="f" d="M3776.31,637.217a7,7,0,0,0,.817.256c.292.078.59.145.892.2a13.8,13.8,0,0,0,1.837.23,8.707,8.707,0,0,0,3.74-.559,8.428,8.428,0,0,1-1.631,1.178,11.732,11.732,0,0,1-1.9.818,15.58,15.58,0,0,1-2.032.511c-.346.063-.695.116-1.049.156a10.1,10.1,0,0,1-1.116.077h-.126a1.494,1.494,0,0,1-.017-2.988,1.525,1.525,0,0,1,.585.121Z"/><path class="f" d="M3779.67,642.787c0,3.133-1.717,5.674-3.835,5.674S3772,645.92,3772,642.787s1.716-5.674,3.834-5.674S3779.67,639.653,3779.67,642.787Z"/><path class="f" d="M3775.84,637.331c-1.994,0-3.616,2.448-3.616,5.456s1.622,5.456,3.616,5.456,3.617-2.448,3.617-5.456S3777.835,637.331,3775.84,637.331Zm0,11.348c-2.234,0-4.051-2.644-4.051-5.892s1.817-5.891,4.051-5.891,4.052,2.643,4.052,5.891S3778.07,648.679,3775.84,648.679Z"/><path class="v" d="M3776.09,641.307c0,.913-.5,1.652-1.117,1.652s-1.116-.739-1.116-1.652.5-1.652,1.116-1.652S3776.09,640.4,3776.09,641.307Z"/><path class="f" d="M3866.08,809.93h-220.9a7.036,7.036,0,0,1-3.691-1.042h228.278a7.04,7.04,0,0,1-3.687,1.042Z"/><path class="f" d="M3622.05,808.351a127.062,127.062,0,0,1,16.627-1.136c5.542-.116,11.084-.055,16.627.009q8.313.072,16.626.053h191.207l4.155-.038,4.159-.068a79.463,79.463,0,0,1,16.628,1.183.549.549,0,0,1,.425.648.556.556,0,0,1-.425.426,79.53,79.53,0,0,1-16.628,1.181l-4.159-.067-4.155-.038H3671.93q-8.313-.012-16.626.054c-5.543.062-11.085.124-16.627.008a127.254,127.254,0,0,1-16.627-1.135.543.543,0,0,1,0-1.074Z"/></g></g></svg>