<svg xmlns="http://www.w3.org/2000/svg" width="812.034" height="718.25" viewBox="0 0 812.034 718.25"><defs><style>.a{fill:#5d93cb;}.a,.b,.c,.d,.e,.f,.g,.h,.i,.j,.k,.l,.n{fill-rule:evenodd;}.b{fill:#7b7b99;}.c{fill:#aeb0c9;}.d,.e,.m{fill:#2b2a3f;}.e{opacity:0.2;}.f{fill:#00497b;}.g{fill:#f8b486;}.h{fill:#f19467;}.i{fill:#5b5b6b;}.j{fill:#de3641;}.k{fill:#3d84a9;}.l{fill:#fff;}.n{fill:#82509d;}</style></defs><g transform="translate(-1047.966 -156.875)"><path class="a" d="M1778.123,309.62c-19.733-76.643-91.759-71.878-160-57.656-36.71,7.65-88.116,18.236-141.76,2.6-115.462-33.648-248.223-42.052-313.649,0s-104.755,92.717-85.89,163.5,66.792,134.428,26.034,172.313-40.074,181.365,127.529,192.538,150.98-149.669,261.668-142.2,337.9,116.349,347.5,37.411-113.68-135.245-69.487-266.326C1778.836,385.791,1787.143,344.649,1778.123,309.62Z"/><path class="b" d="M1750.584,875.125s12.171-2.148,11.455-18.257-6.085-38.3-16.825-44.748-18.579,2.864-18.579,2.864Z"/><path class="c" d="M1702.612,812.121c.359,5.37,5.369,13.242,16.109,18.972s16.469,26.135,21.3,35.08a19.213,19.213,0,0,0,6.588,7.545,8.455,8.455,0,0,0,3.98,1.407s.058-1.412.07-3.855a182.214,182.214,0,0,0-2.294-29.8c-2.937-17.537-13.333-23.627-13.333-23.627-1.9-3.232-5.982-5.536-10.638-6.991-7.614-2.379-16.743-2.486-20.281-.693C1703.111,810.661,1702.558,811.321,1702.612,812.121Z"/><path class="d" d="M1744.222,838.611c2.54,10.744,3.689,28.475,2.384,35.107a8.455,8.455,0,0,0,3.98,1.407,181.111,181.111,0,0,0-2.224-33.653c-2.937-17.537-13.333-23.627-13.333-23.627-1.9-3.232-5.982-5.536-10.638-6.991C1730.545,817.019,1742.069,829.514,1744.222,838.611Z"/><path class="e" d="M1702.612,812.121c.359,5.37,5.369,13.242,16.109,18.972s16.469,26.135,21.3,35.08a19.213,19.213,0,0,0,6.588,7.545,8.455,8.455,0,0,0,3.98,1.407s.058-1.412.07-3.855a1.829,1.829,0,0,0-.79-.441c-3.577-.9-8.409-2.277-11.277-15.572s-7.694-22.913-15.927-27.027c-7.512-3.753-16.947-15.948-18.552-18.069C1703.111,810.661,1702.558,811.321,1702.612,812.121Z"/><path class="d" d="M1616.117,475.688s82.9-12.45,105.406,22.752S1713.8,651.307,1689.4,669.125s-64.931,8.581-80.1-2.618S1587.1,492.687,1616.117,475.688Z"/><path class="f" d="M1712.153,622.208s10.508-2.506,14.267-14.856l-12.53-5.549S1708.985,614.512,1712.153,622.208Z"/><path class="g" d="M1712.154,600.552c17.183,26.135,55.969,32.933,55.969,32.933,8.028-2.347,18.73-13.516,29.314-27.139h.005c20.1-25.893,39.774-60.657,39.774-60.657l-16.109-5.37s-28.283,31.237-40.451,38.035S1764.9,591.6,1764.9,591.6a42.554,42.554,0,0,0-4.312-4.028c-8.651-7.136-20.571-12.715-20.571-12.715C1726.233,571,1712.154,600.552,1712.154,600.552Z"/><path class="h" d="M1712.154,600.552c17.183,26.135,55.969,32.933,55.969,32.933,8.028-2.347,18.73-13.516,29.314-27.139,0,0-18.9,20.083-30.925,21.769s-34.785-14.676-37.084-20.942,1.1-22.209,10.59-32.315C1726.233,571,1712.154,600.552,1712.154,600.552Z"/><path class="d" d="M1547.281,669.125s-.905,52.829,6.512,86.187,39.1-54.614,39.1-54.614S1564.5,675.767,1547.281,669.125Z"/><path class="d" d="M1658.016,700.07s-.688,31.145-21.093,53.161-29.169,47.791-29.169,47.791,30.545-13.962,50.262-10.2c0,0,10.32.537,14.079-3.759s4.833-9.4,10.74-7.786,14.23-.269,16.378-.537,15.841,21.479,13.156,35.709c0,0-10.74,2.954-12.082,4.833s-9.129,9.934-13.962,9.666-17.72,7.249-17.72,7.249-66.413,25.269-72.493,29.534c-10.239,7.182-58.53,15.035-62.826-12.082s37.857-155.992,43.764-169.954S1650.917,683.155,1658.016,700.07Z"/><path class="i" d="M1597.629,789.447l1.872.684c.68-1.86,1.513-3.841,2.476-5.887l-1.8-.849C1599.185,785.495,1598.329,787.531,1597.629,789.447Z"/><path class="i" d="M1695.815,786.744l.427,1.946c1.971-.433,4.1-.848,6.326-1.237l-.343-1.962C1699.972,785.883,1697.815,786.3,1695.815,786.744Z"/><path class="i" d="M1597.1,804.786l-1.981.219.027.224a10.9,10.9,0,0,0,2.533,6.276l1.462-1.353a9.155,9.155,0,0,1-2.018-5.175Z"/><path class="i" d="M1612.836,810.644l.536,1.919c2.047-.572,4.2-1.263,6.232-1.922l-.615-1.9C1616.978,809.4,1614.846,810.083,1612.836,810.644Z"/><path class="i" d="M1611.264,764.329c-1.259,1.891-2.448,3.729-3.534,5.463l1.69,1.058c1.075-1.719,2.254-3.542,3.5-5.417Z"/><path class="i" d="M1607.1,774.66l-1.715-1.013c-1.162,1.966-2.234,3.883-3.188,5.7l1.763.928C1604.9,778.486,1605.956,776.6,1607.1,774.66Z"/><path class="i" d="M1648.4,697.947l-1.964-.34c-.365,2.1-.792,4.222-1.271,6.3l1.942.448C1647.594,702.242,1648.028,700.086,1648.4,697.947Z"/><path class="i" d="M1619.141,756.434l-1.624-1.154c-1.356,1.9-2.576,3.647-3.728,5.323l1.641,1.129C1616.576,760.065,1617.791,758.332,1619.141,756.434Z"/><path class="i" d="M1623.95,746.389q-1.894,2.591-3.814,5.241l1.615,1.167q1.91-2.641,3.807-5.232Z"/><path class="i" d="M1598.163,794.318l-1.924-.519a35.993,35.993,0,0,0-1.175,6.544l1.986.155A34.11,34.11,0,0,1,1598.163,794.318Z"/><path class="i" d="M1602.5,811.9l-.376,1.957a13.167,13.167,0,0,0,2.465.217,23.7,23.7,0,0,0,4.34-.453l-.366-1.959A16.642,16.642,0,0,1,1602.5,811.9Z"/><path class="i" d="M1655.84,803.257l.333,1.964c2.169-.368,4.329-.838,6.418-1.4l-.515-1.925C1660.046,802.443,1657.949,802.9,1655.84,803.257Z"/><path class="i" d="M1666.294,800.6l.654,1.882a50.921,50.921,0,0,0,6.093-2.543l-.892-1.781A49.353,49.353,0,0,1,1666.294,800.6Z"/><path class="i" d="M1623.264,807.365l.6,1.9c2.489-.787,4.39-1.34,6.167-1.793l-.492-1.931C1627.725,806,1625.79,806.566,1623.264,807.365Z"/><path class="i" d="M1645.091,804.217l.017,1.993c2.162-.019,4.369-.144,6.559-.373l-.206-1.982C1649.333,804.077,1647.19,804.2,1645.091,804.217Z"/><path class="i" d="M1685.119,789.8l.722,1.857a58.369,58.369,0,0,1,6.075-1.926l-.51-1.926A60.174,60.174,0,0,0,1685.119,789.8Z"/><path class="i" d="M1678.886,793.474a17.338,17.338,0,0,1-2.98,2.5l1.125,1.644a19.2,19.2,0,0,0,3.323-2.8,8.057,8.057,0,0,1,1.622-1.3l-1.065-1.684A9.965,9.965,0,0,0,1678.886,793.474Z"/><path class="i" d="M1644.083,708.221c-.567,2.086-1.194,4.153-1.865,6.143l1.888.637c.683-2.028,1.323-4.133,1.9-6.257Z"/><path class="i" d="M1626.6,742.769l1.608,1.176q1.953-2.67,3.818-5.243l-1.615-1.167Q1628.555,740.1,1626.6,742.769Z"/><path class="i" d="M1637.954,729.335l-1.755-.943c-1.026,1.908-2.12,3.759-3.256,5.5l1.669,1.089C1635.778,733.192,1636.9,731.293,1637.954,729.335Z"/><path class="i" d="M1638.189,724.434l1.8.847c.908-1.931,1.774-3.956,2.574-6.02l-1.859-.72C1639.925,720.562,1639.077,722.545,1638.189,724.434Z"/><path class="i" d="M1634,804.578l.335,1.965a28.156,28.156,0,0,1,6.229-.45l.1-1.99A30.082,30.082,0,0,0,1634,804.578Z"/><path class="g" d="M1544.832,315.594l8.1,34.511.048.215a137.934,137.934,0,0,0,2.277,14.832c1.944,9.4,5.4,21.356,11.3,29.85a33.651,33.651,0,0,0,2.889,3.646s5.128,19.7,10.654,36.719h.005c3.254,10.026,6.643,19.122,9.209,22.7,0,0,32.724-6.148,24.884-25.715,0,0-11.132-25.512-19.9-44.317a.04.04,0,0,1-.006-.016c-1.7-3.641-3.308-7.029-4.73-9.934L1579.526,355.2l-4.806-10.97-14.585-33.288Z"/><path class="h" d="M1580.1,435.367c3.254,10.026,6.643,19.122,9.209,22.7,0,0,32.724-6.148,24.884-25.715,0,0-11.132-25.512-19.9-44.317.209.73,7.871,27.612,5.579,35.167C1597.547,430.867,1590.748,438.084,1580.1,435.367Z"/><path class="j" d="M1580.3,459.343c.483,14.225,6.341,31.172,13.129,41.272,4.091,4.312,9.209,4.3,14.439,2.047,13.3-5.709,27.37-25.824,27.37-25.824l-19.165-40.515-1.879-3.968c-10.826,2.953-21.791,10.658-28.154,15.7-3.442,2.728-5.536,4.677-5.536,4.677A48.385,48.385,0,0,0,1580.3,459.343Z"/><path class="e" d="M1580.3,459.343c.483,14.225,6.341,31.172,13.129,41.272,4.091,4.312,9.209,4.3,14.439,2.047-11.486-11.406-19.342-43.33-21.828-54.606-3.442,2.728-5.536,4.677-5.536,4.677A48.385,48.385,0,0,0,1580.3,459.343Z"/><path class="d" d="M1580.3,459.343c8.962-8.9,29.469-19.782,35.773-23.02l-1.879-3.968c-16.679,4.553-33.69,20.378-33.69,20.378A48.385,48.385,0,0,0,1580.3,459.343Z"/><path class="j" d="M1536.777,675.906c24.936,32.288,129.084,34.366,129.084,34.366s-3.689-42.737,0-63.9c4.059-23.268,7.577-57.457,7.577-57.457,9.526,6.965,24.078,19.928,32.363,27.456,3.856,3.507,6.353,5.837,6.353,5.837a102.865,102.865,0,0,1,10-27.917c8.549-15.508,17.86-19.433,17.86-19.433l-4.361-5.7-31.612-41.283-33.969-28.144-5.847-4.843L1637.5,477.767l-10.943-7.013s-28.294,11.841-36.348,24.137-26.559,69.275-32.219,97.247c-7.34,36.278-16.152,66.987-19.659,78.693l-.011.022C1537.34,674.123,1536.777,675.906,1536.777,675.906Z"/><path class="e" d="M1536.777,675.906c24.936,32.288,129.084,34.366,129.084,34.366s-3.689-42.737,0-63.9c4.059-23.268,7.577-57.457,7.577-57.457,9.526,6.965,24.078,19.928,32.363,27.456,3.856,3.507,6.353,5.837,6.353,5.837a102.865,102.865,0,0,1,10-27.917s-36.507-19.78-52.106-37.057c0,0-19.451,53.8-26.148,80.9-8.667,35.082-38.061,49.4-65.033,47.61s-40.543-14.918-40.543-14.918l-.011.022C1537.34,674.123,1536.777,675.906,1536.777,675.906Z"/><path class="d" d="M1653.451,506.025c6.175-1.214,9.314-4.651,14-8.463l-3.224-2.671-28.514-22.633c-3.781,2.4-8.5,4.757-9.159,14.364C1625.562,501.12,1640.851,508.5,1653.451,506.025Z"/><path class="d" d="M1705.8,616.371c3.856,3.507,6.353,5.837,6.353,5.837,8.538-39.2,27.864-47.35,27.864-47.35l-4.361-5.7A76.056,76.056,0,0,0,1705.8,616.371Z"/><path class="d" d="M1685.651,461.728s.558,15.557-17.373,18.749C1668.278,480.477,1672.764,460.117,1685.651,461.728Z"/><path class="j" d="M1656.257,428.381c10.831,17.408,28.336,32.058,28.336,32.058s37.363-18.043,25.082-47.684c-3.3-7.958-7.34-13.768-11.727-17.951V394.8h-.006c-18.686-17.843-43.591-6.315-43.591-6.315C1643.477,399.749,1647.859,414.892,1656.257,428.381Z"/><path class="k" d="M1697.942,394.8l.006.006V394.8Z"/><path class="e" d="M1656.257,428.381c10.831,17.408,28.336,32.058,28.336,32.058s37.363-18.043,25.082-47.684c-3.3-7.958-7.34-13.768-11.727-17.951.215.344,10.519,16.845-.006,27.826C1687.305,433.729,1668.881,437.709,1656.257,428.381Z"/><path class="d" d="M1684.389,420.471s-9.766-50.52-41.02-48.226c-29.265,2.148-6.463,40.877-6.463,40.877S1679.151,425.186,1684.389,420.471Z"/><path class="d" d="M1645.758,402.6s-13.405,2.669-12.153,15.02C1633.6,417.62,1644.962,410.889,1645.758,402.6Z"/><path class="g" d="M1669.142,477.4l-4.913,17.486a6.226,6.226,0,0,1-4.734,4.787c-20.518,4.514-30.291-10.531-28.227-15.806,2.653-.944,48.328-15.555,56.636-33.108C1687.9,450.762,1684.993,466.448,1669.142,477.4Z"/><path class="g" d="M1633.612,476.645c6.568,2.529,15.82,4.822,25.453,3.114,18.172-3.227,27.633-24.734,27.633-24.734s3.034-14.61-1.047-28.11a33.785,33.785,0,0,0-5.091-10.434c-8.548-11.555-22.757-13.617-30.575-14.364a10.213,10.213,0,0,0-9.687,4.823l-3.426,5.605-2.287,3.738a25.4,25.4,0,0,0-1.332,2.47,25.753,25.753,0,0,0-2.384,9.048l-.269,3.662a25.884,25.884,0,0,0-5.418,14.718l-.709,16.5A14.308,14.308,0,0,0,1633.612,476.645Z"/><path class="d" d="M1652.408,421.78s14.54-5.5,17.644,6.535l-2.272,1.738s-4.4-9.273-15.961-5.136Z"/><path class="h" d="M1630.6,431.465a25.59,25.59,0,0,0-4.044,7.478c2.863-.6,7.829.031,16.16,5.1,0,0-3.068-5.933-7.771-8.089a2.067,2.067,0,0,1-.683-3.253l6.189-6.953a6.026,6.026,0,0,0-2-3.525,37.969,37.969,0,0,0-5.2-3.468,25.725,25.725,0,0,0-2.382,9.049Z"/><path class="d" d="M1634.766,416.508a28.019,28.019,0,0,1,5.674,3.916l-.839,2.781a19.875,19.875,0,0,0-6.042-3.88,1.656,1.656,0,0,1-1-2.218l.015-.029A1.594,1.594,0,0,1,1634.766,416.508Z"/><path class="l" d="M1629.134,445.87l25.216,8.285s-8.488,11.857-21.221,5.9C1623.144,455.38,1629.134,445.87,1629.134,445.87Z"/><path class="h" d="M1635.238,476.84s15.831,4.689,33.038-12.692c0,0,.374,9.339-8.856,18.5-6.717,6.666-19.407,5.562-25.816,4.467a2.794,2.794,0,0,1-1.949-4.169Z"/><path class="g" d="M1682.014,448.76s8.36-6.705,13.31.113-7.431,25.045-15.467,17.106S1682.014,448.76,1682.014,448.76Z"/><path class="d" d="M1652.064,430.761s3.305-3.7,7.182-2.03a7.131,7.131,0,0,1,4.654,7.682S1661.713,426.483,1652.064,430.761Z"/><path class="d" d="M1638.048,428.229s-1.866-6.325-6.626-1.718C1631.422,426.511,1635.594,424.057,1638.048,428.229Z"/><path class="h" d="M1636.688,412.451c.01.189-.432.891-.421,1.084,0,0,8.16-6.832,22.53-1.284s21.409,19.148,21.409,19.148l5.445-4.484a33.785,33.785,0,0,0-5.091-10.434c-8.548-11.555-22.757-13.617-30.575-14.364a10.213,10.213,0,0,0-9.687,4.823Z"/><path class="d" d="M1677.639,449.839l4.721,2.148,6.884-6.176c1.085-5.934-3.727-21.774-4.855-25.34-.607-.58-1.6-1.149-2.306-1.718,0,0-4.739,16.388.389,22.456Z"/><path class="h" d="M1552.929,350.105l.048.215a137.934,137.934,0,0,0,2.277,14.832l24.272-9.956-4.806-10.97Z"/><path class="e" d="M1588.541,516.452l19.213,17.155s-6.872,26.957-21.575,20.942C1568.459,547.3,1588.541,516.452,1588.541,516.452Z"/><rect class="m" width="91.282" height="60.443" transform="translate(1506.085 311.609) rotate(-20.473)"/><path class="d" d="M1506.084,311.608l21.142,56.626,85.515-31.927-3.22-.914-101.008-28.686-1.637,3.3,0,0Z"/><path class="l" d="M1506.877,310.007l20.187,54.293,2.591-.967,30.7-43.482-51.838-13.145Z"/><rect class="m" width="87.292" height="60.443" transform="translate(1508.515 306.708) rotate(-20.473)"/><path class="g" d="M1536.169,291.693l.012-.012a5.555,5.555,0,0,1,3.893-1.881c.245-1.125,1.56-1.954,3.038-2.257a3.878,3.878,0,0,1,2.532.386c.673-1.3,2.369-2.069,3.293-1.555,0,0,.226.1.608.273a3.058,3.058,0,0,1,1.041-1.466h0c.951-1.343,3.671-2.052,4.709-1.476,0,0,9.053,3.654,9.915,10.632s2.142,15.1-1.092,13.945c-.927-.331-1.838-1.488-2.645-3.056.349,4.19.146,7.32-1.946,6.572-1.164-.417-2.3-2.134-3.242-4.338.2,3.554-.151,6.021-2.033,5.348-1.7-.609-3.35-3.986-4.387-7.609.314,4.043.073,7.01-1.972,6.278-2.5-.9-3.216-6.516-4.966-11.059-2.054-5.324-2.527-2.539-5.541-4.487l-2.708,1.01A6.093,6.093,0,0,1,1536.169,291.693Z"/><path class="g" d="M1816.462,549.345a17.793,17.793,0,0,1-7.752-10.4c-.343-1.242-.745-2.558-1.207-3.851-1.79-5.012-.358-15.751,0-20.047s3.4-12.53,4.3-13.425,6.265,2.921,4.117,8.441-.6,11.656.5,13.421,6.12-1.456,7.372-4.678,12.172-27.565,14.32-28.281,3.938-.179,2.506,6.086-8.233,17.183-7.339,20.226,2.506.537,3.043-1.074,9.308-24.652,10.74-25.482,5.548-2.266,3.4,7.491-8.815,21.66-8.412,23.809,9.531-21.614,12.082-22.957,4.43,1.074,2.416,6.981-7.392,17.36-7.842,18.653c-.38,1.091-.168,2.009.772,1.471s6.619-14.485,7.919-15.291,4.521.671,1.031,10.2-5.818,17.977-15.3,26.748c-5.856,5.414-8.726,8.693-14.23,7.887C1825.595,554.795,1820.58,551.9,1816.462,549.345Z"/><path class="d" d="M1697.948,522.543s2.339-25.808-17.926-31.178c-14.531-3.85-39.154,22.92-45.386,52.982-11.022,53.16,14.524,99.519,31.227,105.605,0,0,15.247-11.813,3.625-27.744,0,0-31.44-31.7-17.424-77.324,11.676-38.006,30.323-47.791,37.338-29.137Z"/><path class="d" d="M1568.41,552.761l8.685-26.716s-1.208-46.672,48.031-58.438a14.116,14.116,0,0,1-.656-4.929l.306-7.115C1618.618,455.965,1555.85,474.11,1568.41,552.761Z"/><path class="h" d="M1764.9,607.173a72.032,72.032,0,0,1,0-15.572,42.554,42.554,0,0,0-4.312-4.028C1758.459,604.04,1764.9,607.173,1764.9,607.173Z"/><path class="h" d="M1566.552,395a33.651,33.651,0,0,0,2.889,3.646s8.286-4.832,10.675-6.089C1580.116,392.559,1572.469,392.693,1566.552,395Z"/><path class="c" d="M1699.213,779.983c4.446,4.2,8.043,14.021,10.379,21.978.006.011.006.022.011.033,1.9,6.455,2.954,11.679,2.954,11.679,3.952,4.3,12.967,3.061,27.461,4.635,13.043,1.417,22.182,10.487,31.907,14.39h.011a26.557,26.557,0,0,0,3.259,1.1c5.784,1.52,9.859.569,12.077-2.229,2.008-2.529,2.5-6.578,1.348-11.685-2.417-10.76-29.534-34.387-37.321-37.534s-12.618-4.989-21.871-12.6-18.67-8.135-20.55-5.284c-.317.478-.794,1.235-1.38,2.159C1704.609,771.209,1699.213,779.983,1699.213,779.983Z"/><path class="d" d="M1707.5,766.618c3.066-.338,8.253-.494,11.943,1.648,5.547,3.222,13.424,10.739,21.833,14.676s24.524,15.035,32.939,22.913,13.359,20.271,10.916,24.341-6.894,3.931-13.193,2.5a26.557,26.557,0,0,0,3.259,1.1c11.008,2.888,15.841-3.152,13.425-13.914s-29.534-34.387-37.321-37.534-12.618-4.989-21.871-12.6-18.67-8.135-20.55-5.284C1708.561,764.937,1708.084,765.694,1707.5,766.618Z"/><path class="e" d="M1709.6,801.994c1.9,6.455,2.954,11.679,2.954,11.679,3.952,4.3,12.967,3.061,27.461,4.635,13.043,1.417,22.182,10.487,31.907,14.39h.011a26.557,26.557,0,0,0,3.259,1.1c5.784,1.52,9.859.569,12.077-2.229l.719-4.231a22.92,22.92,0,0,1-20.76-1.611c-8.495-4.93-12.326-9.735-19.146-11.636,1.268-5.159-1.618-10.74-1.618-10.74a41.072,41.072,0,0,1-2.116,9.853,22.645,22.645,0,0,0-4.328-.187C1728.945,813.55,1711.655,808.218,1709.6,801.994Z"/><path class="c" d="M1062.018,699.6c3.383-.191,6.175-1.917,8.572-4.426.074-.076.153-.157.227-.238.005,0,.005-.005.01-.005,4.175-4.493,7.179-11.335,10.141-16.485a32.335,32.335,0,0,1,2.623-4.006c2.8-3.519,7.678-12.8,11.925-21.351.218-.431.43-.867.642-1.293,4.132-8.361,7.509-15.681,7.509-15.681a71.688,71.688,0,0,0-4.072-9.3,42.655,42.655,0,0,0-2.56-4.247c-1.863-2.7-4.014-4.916-6.311-5.622-7.161-2.205-13.8,2.544-19.3,8.957-5.394,6.279-20.238,32.762-22.657,43.756-.052.234-.1.462-.138.685C1046.111,684.174,1050.827,700.247,1062.018,699.6Z"/><path class="d" d="M1062.018,699.6c3.492-.2,6.351-2.026,8.8-4.664-7.79,3.733-12.537,1.475-15.269-1.615-3.415-3.862-4.7-14.465-3.809-18.945,2.171-10.905,10.242-28,14.347-34.808s12.246-18.039,20.156-19.137a17.5,17.5,0,0,1,10.793,2.139c-1.863-2.7-4.014-4.916-6.311-5.622-7.161-2.205-13.8,2.544-19.3,8.957s-20.876,33.9-22.8,44.441C1046.111,684.174,1050.827,700.247,1062.018,699.6Z"/><path class="e" d="M1062.018,699.6c3.383-.191,6.175-1.917,8.572-4.426.074-.076.153-.157.227-.238.005,0,.005-.005.01-.005,4.175-4.493,7.179-11.335,10.141-16.485a32.335,32.335,0,0,1,2.623-4.006c2.8-3.519,7.678-12.8,11.925-21.351.218-.431.43-.867.642-1.293a4.874,4.874,0,0,0-5.413-1.613s-5.554,5.121-10.8,15.656c-5.769,11.578-8.8,22.569-19.6,22.662s-8.853-6.992-10.3-17.2c-.2-1.423-.653-1.888-1.283-1.636-.052.234-.1.462-.138.685C1046.111,684.174,1050.827,700.247,1062.018,699.6Z"/><path class="c" d="M1240.736,796.491c.118,5.986,4.824,45.594,17.736,53.608,6.521,4.047,10.266,3.888,12.14.864,1.078-1.726,1.546-4.384,1.573-7.723a63.142,63.142,0,0,0-.546-8.127c-1.77-14.523-1.985-48.142,10.785-55.44,0,0-2.339-17.348-8.314-28.035-1.793-3.222-3.925-5.838-6.42-7.192a144.773,144.773,0,0,0-14.521.811c-2.423.328-5.689.221-8.748,1.052-4.018,1.1-7.684,3.81-8.634,11.255C1234.113,770.68,1240.612,790.505,1240.736,796.491Z"/><path class="d" d="M1240.736,796.491c.118,5.986,4.824,45.594,17.736,53.608,6.521,4.047,10.266,3.888,12.14.864a17.586,17.586,0,0,1-11.933-4.461c-5.611-4.82-12.667-32.012-12.254-40.785s-3.2-24.736-6.379-36.985c-2.406-9.269,2.065-18.491,4.375-22.423-4.018,1.1-7.684,3.81-8.634,11.255C1234.113,770.68,1240.612,790.505,1240.736,796.491Z"/><path class="e" d="M1240.736,796.491c.118,5.986,4.824,45.594,17.736,53.608,6.521,4.047,10.266,3.888,12.14.864,1.078-1.726,1.546-4.384,1.573-7.723-2.466.552-6.169-.382-10.469-2.8-7.566-4.252-9.074-27.452-7.987-42.772s-8.069-27.364-2.805-37.005,22.665-7.463,22.665-7.463a14.751,14.751,0,0,0,.521-1.563c-1.793-3.222-3.925-5.838-6.42-7.192a144.773,144.773,0,0,0-14.521.811c-2.423.328-5.689.221-8.748,1.052-4.018,1.1-7.684,3.81-8.634,11.255C1234.113,770.68,1240.612,790.505,1240.736,796.491Z"/><path class="d" d="M1241.855,376.738s-77.739,2.108-92.57,37.917,31.91,138.361,57.088,150.667,60.7-2.719,72.73-15.414S1271.123,387.545,1241.855,376.738Z"/><path class="g" d="M1193.323,472.154a97.912,97.912,0,0,1-6.038,30.189s-1.74,10.492-4.45,23.5v.006c-3.191,15.318-6.293,26.582-10.885,35.9a160.979,160.979,0,0,0-8.58,21.224q-.35,1.07-.653,2.057l0,.005c-1.821,5.867-2.629,9.624-2.629,9.624l-17.053-5.684s-1.062-17.964-.751-27.748c.381-12.128-.886-35.83,6.867-55.464l0,0a34.141,34.141,0,0,1,2.014-4.277s2.184-19.357,5.338-32.141c1.049-4.236,2.2-7.748,3.417-9.6C1159.914,459.741,1185.164,457.1,1193.323,472.154Z"/><path class="h" d="M1162.18,503.24s-9.925.1-13.032,2.518l0,0a34.141,34.141,0,0,1,2.014-4.277S1158.786,501.03,1162.18,503.24Z"/><path class="h" d="M1193.323,472.154a97.912,97.912,0,0,1-6.038,30.189s-1.74,10.492-4.45,23.5c1.046-9.791.312-27.358.516-40.176.136-8.75-7.741-10.8-14.625-13.275-2.865-1.028-8.487-2.093-11.809-3.188-.142-.047-.282.094-.42.135,1.049-4.236,2.2-7.748,3.417-9.6C1159.914,459.741,1185.164,457.1,1193.323,472.154Z"/><path class="g" d="M1157.564,581.375l16.339,11.584a6.667,6.667,0,0,1,2.808,5.323l.267,15.739a3.39,3.39,0,0,1-6.676.891l-3.766-14.832-3.855-1.41,2.418,8.855,2.977,8.03,7.448,9.317a3.037,3.037,0,0,1-4.561,4l-9.813-10.2-6.567-8.057,5.171,10.118,9.966,14.882a2.911,2.911,0,0,1-4.471,3.685l-10.8-10.738-6.14-9.572,5.4,16.883,4.78,10.8a2.619,2.619,0,0,1-4.622,2.437l-6.938-11.219-5.01-13.016,3.228,11.207,1.776,3.822a1.591,1.591,0,0,1-2.732,1.6l-2.646-3.657-3.935-9.28,5.505-39.773S1145.4,583.354,1157.564,581.375Z"/><path class="h" d="M1162.714,585.03a18.986,18.986,0,0,0-10.96-2.248s6.373-2.4,11.617.186Z"/><path class="g" d="M1318.393,346.489c17.388-34.288,10.314-79.322,9.079-90.709a15.852,15.852,0,0,0-1.267-4.085v-.006c-6.592-15.663-36.442-57.895-43.239-67.433-.461-.648-.817-1.141-1.054-1.468-.213-.3-.328-.463-.328-.463l-20.942,9.754s14.08,14.721,19.613,33.2,18.78,42.7,18.78,42.7c-5.831,21.434-6.27,49.48-6.27,49.48C1302.892,341.232,1318.393,346.489,1318.393,346.489Z"/><path class="h" d="M1318.393,346.489c17.388-34.288,10.314-79.322,9.079-90.709a15.852,15.852,0,0,0-1.267-4.085c-.01.566-.513,36.825-2.873,48.539-2.382,11.808-6.177,24.2-13.062,25.861s-13.775-2.251-17.505-8.632C1302.892,341.232,1318.393,346.489,1318.393,346.489Z"/><path class="g" d="M1281.525,184.009c-2.8,2.97-14.97,11.219-16.744,12.011-.62.276-1.455-.118-2.276-.747-.814.02-6.166.1-9.067-1.295-1.594-.772-1.514-3.051-1.036-5.457-3.851-1.032-11.252-7.135-11.007-12.76.267-6.129,6.865-6.418,6.865-6.418.289-7.038,6.96-5.735,6.96-5.735.418-3.057,6.015-4.281,6.015-4.281.633-2.6,4.279-2.961,6.41-1.884s14.592,16.271,15.092,19.011S1281.525,184.009,1281.525,184.009Z"/><path class="h" d="M1262.425,185.376c.843,3.544-2.13,3.924-2.13,3.924.612-.444.6-1.949.468-3.247a7.962,7.962,0,0,0-.3-1.944l0-.009a4.924,4.924,0,0,0-2.487-3.23c-2.628-1.252-3.851-.473-3.851-.473l-5.1-7.286a39.563,39.563,0,0,1,6.219,5.723,6.837,6.837,0,0,1,6.925,5.336,2.4,2.4,0,0,0,2.356-1.695,6.654,6.654,0,0,0-.837-5.048l-7.083-9.921s9.759,9.56,9.9,13.2C1266.675,185.537,1262.425,185.376,1262.425,185.376Z"/><path class="h" d="M1264,164.623s6.34,7.966,7.153,10.12a3.844,3.844,0,0,1-2.363,5.054,2.943,2.943,0,0,1-2.663-.482l-.057,2.46s6.579,1.187,6.67-5.083C1272.786,173.557,1264,164.623,1264,164.623Z"/><path class="h" d="M1272.361,175.233a3.833,3.833,0,0,0,3.507.992c1.946-.576,2.376-1.873,1.952-3.075a2.288,2.288,0,0,1,.1,2.842c-1.362,2.163-4.6,1.687-5.613,1.394Z"/><path class="h" d="M1279.014,186.858a6.843,6.843,0,0,0,3.952-2.6c-.461-.648-.817-1.141-1.054-1.468A16.088,16.088,0,0,1,1279.014,186.858Z"/><path class="h" d="M1264.1,196.089a13.144,13.144,0,0,0,4.8-1.354,7.831,7.831,0,0,1-3.792,2.618Z"/><path class="h" d="M1299.035,267.983s9.165-1.393,12.286-4a14.855,14.855,0,0,1-13.337,8.174Z"/><path class="d" d="M1089.01,664.248c3.695,2.748,1.995,3.376,5.641,5.348,3.532,1.91,12.805,9.505,13.38,9.977l.027.022c24.241,25.74,65.1,65.8,87.247,68.838,20.874,2.869,51.981-55.68,71.854-98.661l0,0c.211-.316,8.313-12.26,20.415-8.741,12.26,3.566,57.438,45.973,78.234,56.7,0,0-27.868,1.428-36.975,13.109s-34.486,22.846-39.092,24.694-7.011-.218-11.293,2.6-10.762,6.311-10.762,6.311c-.174,13.01,4.679,24.273,14.177,35.569a47.328,47.328,0,0,1,7.755-3.26c5.276-1.56,16.4-4.49,18.367-8.137s70.651-18.094,70.651-18.094,52.762-10.457,56.859-35.5-103.031-137.561-103.031-137.561l-8.29-36.084-38.671,6.4v-.014l-70.584,5.349s-12.07,32.446-15.473,61.706c-2.277,19.587-15.234,66.119-15.234,66.119s-11.942-12.275-35.175-22.214c-5.938-2.543-12.058-5.316-17.879-8.032l0-.005s-8.808-4.423-11.878-8.687-4.945-2.622-8.268-3.62-6.126-5.03-8.343-4.613a4.2,4.2,0,0,0-2.873,1.507c-5.654,5.327-8.208,8.825-11.967,21.849C1087.836,657.124,1085.315,661.5,1089.01,664.248Z"/><path class="i" d="M1152.147,671.585l-.8,1.259c1.646,1.053,3.418,2.292,5.265,3.68l.9-1.2C1155.627,673.918,1153.824,672.659,1152.147,671.585Z"/><path class="i" d="M1142.453,666.339l-.7,1.321c1.594.843,3.131,1.626,4.568,2.327q.6.294,1.206.615l.7-1.32q-.629-.333-1.25-.638C1145.555,667.95,1144.033,667.174,1142.453,666.339Z"/><path class="i" d="M1132.156,662.284c1.917,1.128,3.815,2.214,5.641,3.228l.726-1.307c-1.816-1.008-3.7-2.088-5.61-3.209Z"/><path class="i" d="M1160.125,679.266c1.556,1.255,3.175,2.611,4.95,4.146l.977-1.13c-1.788-1.546-3.42-2.913-4.988-4.178Z"/><path class="i" d="M1177.592,692.577l-.986,1.123a43.89,43.89,0,0,0,4.58,3.68,6.153,6.153,0,0,0,.712.4l.634-1.353a4.7,4.7,0,0,1-.535-.3A42.782,42.782,0,0,1,1177.592,692.577Z"/><path class="i" d="M1186.137,696.165l.725,1.3a15.136,15.136,0,0,0,4.758-4.8l-1.234-.844A13.74,13.74,0,0,1,1186.137,696.165Z"/><path class="i" d="M1169.431,685.251l-.993,1.117c1.412,1.257,2.764,2.479,4.036,3.629l.778.7,1-1.109-.778-.7C1172.2,687.737,1170.847,686.512,1169.431,685.251Z"/><path class="i" d="M1122.783,656.536c1.776,1.137,3.631,2.294,5.513,3.44l.777-1.277c-1.872-1.14-3.718-2.291-5.485-3.422Z"/><path class="i" d="M1096.908,640.986c-.379.443-.752.891-1.114,1.348,1.167.161,2.879.438,4.744.875l.341-1.455C1099.39,641.406,1098.011,641.157,1096.908,640.986Z"/><path class="i" d="M1105.271,643.047l-.516,1.4a14.8,14.8,0,0,1,4.982,2.785c.106.1.218.2.338.308l.994-1.117c-.11-.1-.214-.192-.311-.283A16.241,16.241,0,0,0,1105.271,643.047Z"/><path class="i" d="M1114.541,649.155l-.881,1.207c1.516,1.108,3.317,2.358,5.352,3.714l.829-1.243C1117.824,651.489,1116.041,650.252,1114.541,649.155Z"/><path class="i" d="M1212.645,603.042l1.445.38q.824-3.132,1.677-6.261l-1.442-.394Q1213.471,599.9,1212.645,603.042Z"/><path class="i" d="M1215.52,592.435l1.439.4c.586-2.1,1.176-4.182,1.768-6.235l-1.437-.413Q1216.4,589.273,1215.52,592.435Z"/><path class="i" d="M1207.427,624.389l1.459.325c.453-2.039.941-4.162,1.451-6.313l-1.454-.344C1208.372,620.214,1207.882,622.344,1207.427,624.389Z"/><path class="i" d="M1209.936,613.685l1.452.356c.5-2.038,1.03-4.153,1.576-6.285l-1.448-.37C1210.969,609.522,1210.437,611.642,1209.936,613.685Z"/><path class="i" d="M1218.547,581.872l1.433.423q.936-3.174,1.859-6.209l-1.429-.435C1219.794,577.674,1219.171,579.753,1218.547,581.872Z"/><path class="i" d="M1192.625,688.046l1.325.69a64.929,64.929,0,0,0,2.705-5.969l-1.388-.552A63.762,63.762,0,0,1,1192.625,688.046Z"/><path class="i" d="M1225.126,560.89l1.415.479c.754-2.23,1.473-4.285,2.137-6.109l-1.4-.511C1226.606,556.583,1225.883,558.649,1225.126,560.89Z"/><path class="i" d="M1221.735,571.353l1.426.446c.667-2.133,1.328-4.21,1.968-6.173l-1.421-.463C1223.067,567.131,1222.4,569.214,1221.735,571.353Z"/><path class="i" d="M1196.807,678.041l1.413.484c.677-1.975,1.328-4.071,1.932-6.229l-1.438-.4C1198.116,674.023,1197.475,676.092,1196.807,678.041Z"/><path class="i" d="M1205.2,635.165l1.468.276c.373-1.984.8-4.119,1.268-6.346l-1.462-.308C1206,631.024,1205.576,633.17,1205.2,635.165Z"/><path class="i" d="M1199.846,667.578l1.451.356c.509-2.076.982-4.216,1.406-6.359l-1.466-.291C1200.817,663.406,1200.349,665.524,1199.846,667.578Z"/><path class="i" d="M1202.04,656.893l1.474.247c.359-2.143.674-4.311.937-6.444l-1.483-.183C1202.708,652.625,1202.4,654.771,1202.04,656.893Z"/><path class="i" d="M1203.469,646.056l1.484.178c.229-1.908.543-4.057.932-6.386l-1.474-.246C1204.018,641.954,1203.7,644.126,1203.469,646.056Z"/><path class="i" d="M1294.73,633.663a20.68,20.68,0,0,0-6.624.925l.441,1.428a19.182,19.182,0,0,1,6.145-.859Z"/><path class="i" d="M1304.76,638.095l.738-1.3c-.594-.337-1.161-.633-1.684-.881a24.606,24.606,0,0,0-4.489-1.618l-.363,1.449a23,23,0,0,1,4.214,1.521C1303.666,637.5,1304.2,637.777,1304.76,638.095Z"/><path class="i" d="M1308.637,733.652l.666,1.338c1.948-.968,3.9-1.964,5.792-2.958l-.693-1.324C1312.515,731.7,1310.575,732.688,1308.637,733.652Z"/><path class="i" d="M1318.35,728.6l.715,1.311c2.015-1.1,3.922-2.176,5.668-3.2l-.756-1.289C1322.244,726.435,1320.351,727.5,1318.35,728.6Z"/><path class="i" d="M1327.792,723.1l.8,1.263a60.358,60.358,0,0,0,5.39-3.756l-.937-1.165A58.364,58.364,0,0,1,1327.792,723.1Z"/><path class="i" d="M1271.258,752.522c1.345-.932,2.657-1.795,3.915-2.575l-.788-1.271c-1.109.688-2.261,1.445-3.437,2.249Q1271.1,751.725,1271.258,752.522Z"/><path class="i" d="M1278.318,746.409l.7,1.321a33.427,33.427,0,0,1,5.817-2.493l-.431-1.431A34.876,34.876,0,0,0,1278.318,746.409Z"/><path class="i" d="M1317.095,647.181c1.511,1.259,3.167,2.671,4.923,4.2l.98-1.128c-1.763-1.534-3.428-2.953-4.946-4.218Z"/><path class="i" d="M1288.661,742.51l.5,1.408c1.721-.612,3.764-1.42,6.074-2.4l-.584-1.376C1292.369,741.111,1290.353,741.908,1288.661,742.51Z"/><path class="i" d="M1298.749,738.347l.614,1.362c1.9-.853,3.879-1.776,5.9-2.744l-.646-1.348C1302.606,736.58,1300.633,737.5,1298.749,738.347Z"/><path class="i" d="M1282.958,638.689c.489-.324,1.027-.653,1.61-.975l-.72-1.31a24.724,24.724,0,0,0-2.722,1.741C1281.735,638.331,1282.345,638.515,1282.958,638.689Z"/><path class="i" d="M1309.336,639.257l-.857,1.224c1.525,1.068,3.257,2.37,5.147,3.873l.93-1.17C1312.642,641.663,1310.886,640.342,1309.336,639.257Z"/><path class="i" d="M1373.771,705.6a19,19,0,0,1-5.21,1.92l.392,1.442c3.057-.832,4.818-1.5,5.711-2.164.183-.136.363-.28.537-.434l-.985-1.124Q1374,705.434,1373.771,705.6Z"/><path class="i" d="M1359.2,682.316l-.935,1.165c2,1.6,3.709,2.893,5.226,3.936l.847-1.232C1362.851,685.163,1361.17,683.9,1359.2,682.316Z"/><path class="i" d="M1368.13,688.453l-.047-.023-.641,1.35.051.025a24.287,24.287,0,0,1,5.285,3.261l.96-1.145A25.735,25.735,0,0,0,1368.13,688.453Z"/><path class="i" d="M1376.836,695.474l-1.288.757a7.877,7.877,0,0,1,.986,2.6,6.627,6.627,0,0,1-.16,3.035l1.436.417a8.107,8.107,0,0,0,.195-3.713A9.353,9.353,0,0,0,1376.836,695.474Z"/><path class="i" d="M1361.025,709.387c-1.011.239-2.05.486-3.1.74l.349,1.453c1.054-.254,2.092-.5,3.1-.739,1.108-.263,2.182-.518,3.209-.766l-.351-1.452C1363.2,708.871,1362.131,709.125,1361.025,709.387Z"/><path class="i" d="M1347.271,712.934l.429,1.432c1.848-.554,3.883-1.115,6.223-1.712l-.37-1.448C1351.194,711.809,1349.139,712.374,1347.271,712.934Z"/><path class="i" d="M1336.907,716.906l.693,1.324a46.051,46.051,0,0,1,5.867-2.488l-.5-1.408A46.931,46.931,0,0,0,1336.907,716.906Z"/><path class="i" d="M1337.959,663.654q-1.7-1.548-3.413-3.1l-1,1.108q1.706,1.545,3.411,3.1l1.389,1.262,1.005-1.107Z"/><path class="i" d="M1341.671,669.04c1.632,1.477,3.244,2.931,4.824,4.342l1-1.115c-1.578-1.408-3.187-2.86-4.818-4.335Z"/><path class="i" d="M1355.747,679.469c-1.5-1.264-3.1-2.647-4.9-4.227l-.987,1.123c1.805,1.587,3.415,2.975,4.923,4.247Z"/><path class="i" d="M1331.217,657.545c-1.628-1.466-3.245-2.915-4.839-4.326l-.99,1.118c1.59,1.41,3.2,2.855,4.829,4.319Z"/><path class="n" d="M1338.5,574.929s-70.736,23.034-108.934,12.712c-2.849-.776-26.083-5.479-26.083-5.479s13.112-49.774,9.446-82.831c-.957-8.767-3.029-26.062-9.226-41.764-2.212-5.619-4.483-11.337-6.715-16.9-6.635-16.459-12.812-31.463-15.542-38.039a30.9,30.9,0,0,1,11.4-5.14,2,2,0,0,1,.22-.021,188.619,188.619,0,0,0,22.834-5.28h.02c11-3.347,22.895-8.209,33.2-15.3l9.565-5.32,10.042-5.6s12.354,4.463,25.186,22.8a83.136,83.136,0,0,1-10.66,10.68,58.81,58.81,0,0,0,10.381,5.221,38.811,38.811,0,0,0,6.955-5.042c8.129,15.064,15.581,36.544,19.228,66.931,3.288,27.6,9.086,59.8,13.37,81.894C1336.232,564.289,1338.5,574.929,1338.5,574.929Z"/><path class="d" d="M1234.85,403.828c-13.112-1.116-16.12-7.373-18.93-11.637,11-3.347,22.895-8.209,33.2-15.3l6.272-3.523c1.8,0,6.224,3.3,6.224,9.93C1261.612,392.2,1252.284,405.322,1234.85,403.828Z"/><path class="e" d="M1276.8,422.788l23.009-10.3s17.885,26.872,3.3,32.13C1287.442,450.268,1276.8,422.788,1276.8,422.788Z"/><path class="d" d="M1252.221,311.624s9.661-7.315,5.7-22c0,0-3.242,5.574-6.189,6.13,0,0,7.468-20.215-15.366-31.474,0,0,2.674,11.121-.043,14.824,0,0-6.028-12.865-14.965-15.518,0,0,1.343,22.545-12.632,27.1-9.97,3.251-22.856,14.83-26.409,33.862,0,0-5.788-1.672-7.947.6,0,0,7.421,1.251,8.446,5.985,0,0-3.117-1.578-5.464.414,0,0,5.244,1.083,6.055,5.185s20.664,35.46,32.638,40.684S1252.221,311.624,1252.221,311.624Z"/><path class="g" d="M1221.244,382.177l1.6,9.2a6.065,6.065,0,0,0,4.43,4.838c19.809,5.162,28.539-7.146,29.523-11.913-2.548-1.018-47.923-19.374-55.355-36.775C1201.438,347.524,1206.22,370.917,1221.244,382.177Z"/><path class="g" d="M1257.954,330.877a25.179,25.179,0,0,1,4.724,14.532l.073,16.087a13.941,13.941,0,0,1-9.421,13.258c-6.488,2.22-15.579,4.105-24.894,2.08-17.577-3.822-25.985-25.115-25.985-25.115s-7.323-22.074,7.417-37.3c10.213-10.546,23.916-12.616,31.372-12.893a8.517,8.517,0,0,1,7.756,4.34l5.647,10.08a24.313,24.313,0,0,1,1.2,2.455,25.073,25.073,0,0,1,1.981,8.9Z"/><path class="d" d="M1237.083,320.632s-13.952-5.894-17.423,5.7l2.147,1.777s4.625-8.864,15.733-4.4Z"/><path class="h" d="M1257.954,330.877a24.927,24.927,0,0,1,3.658,7.433c-2.765-.688-7.623-.263-15.924,4.362,0,0,3.208-5.663,7.868-7.587a2.012,2.012,0,0,0,.787-3.141l-5.767-7a5.875,5.875,0,0,1,2.076-3.357,36.942,36.942,0,0,1,5.194-3.182,25.073,25.073,0,0,1,1.981,8.9Z"/><path class="d" d="M1254.457,316.158a27.256,27.256,0,0,0-5.67,3.6l.713,2.738a19.386,19.386,0,0,1,6.026-3.552,1.613,1.613,0,0,0,1.055-2.122l-.013-.028A1.555,1.555,0,0,0,1254.457,316.158Z"/><path class="l" d="M1258.844,344.958l-24.863,7.124s7.821,11.862,20.442,6.536C1264.32,354.441,1258.844,344.958,1258.844,344.958Z"/><path class="h" d="M1251.742,374.884s-15.59,3.974-31.693-13.593c0,0-.713,9.08,7.931,18.342s28.813,4.666,28.813,4.666Z"/><path class="g" d="M1207.248,345.8s-7.89-6.842-12.964-.388,6.3,24.663,14.42,17.233S1207.248,345.8,1207.248,345.8Z"/><path class="d" d="M1237.082,329.39s-3.08-3.727-6.918-2.245a6.946,6.946,0,0,0-4.817,7.305S1227.847,324.863,1237.082,329.39Z"/><path class="d" d="M1250.824,327.449s2.053-6.089,6.515-1.425C1257.339,326.024,1253.369,323.478,1250.824,327.449Z"/><path class="d" d="M1204.2,321.015s6.05,7.314,1.133,14.952l5.091,11.709-5.267,1.351-4.377-6.494-3.382-16.786S1201.478,318.069,1204.2,321.015Z"/><path class="n" d="M1332.126,332.593s-.637,3.188-1.952,8.25c-4.284,16.339-15.781,52.185-36.544,63.822a58.81,58.81,0,0,1-10.381-5.221c-8.747-5.48-19.707-15.383-18.71-30.367,0,0,17.813-29.589,25.365-50.411.7-1.894,1.3-3.726,1.794-5.46l33.116,15.881Z"/><path class="d" d="M1332.126,332.593s-.637,3.188-1.952,8.25c-7.771-6.018-32.459-18.332-40.27-22.177.7-1.894,1.3-3.726,1.794-5.46l33.116,15.881Z"/><path class="e" d="M1332.132,332.593s-9.361,47.087-31.55,67.028a108.738,108.738,0,0,0-6.675-10.86c16.881-20.116,27.222-48.415,30.9-59.678Z"/><path class="n" d="M1207.053,428.556a62.525,62.525,0,0,1-1.374,6.575l-1.973,22.436-2.232,21.6-.638,6.256c-3.765,5.28-16.518,5.759-28.573,4.882v-.02a218.173,218.173,0,0,1-24.548-3.347s.318-2.431,1.036-6.6a299.457,299.457,0,0,1,13.37-50.891c5.34-14.466,12.971-22.456,19.328-26.82a30.9,30.9,0,0,1,11.4-5.14,2,2,0,0,1,.22-.021C1209.444,399.006,1208.688,418.174,1207.053,428.556Z"/><path class="d" d="M1201.474,479.167l-.638,6.256c-3.765,5.28-16.518,5.759-28.573,4.882v-.02a218.173,218.173,0,0,1-24.548-3.347s.318-2.431,1.036-6.6c5.28,1.394,17.854,3.205,29.039,3.353C1190.349,483.862,1197.649,480.88,1201.474,479.167Z"/><path class="d" d="M1251.928,375.315s25.863-3.954,42.288,10.668,32.742,45.282,22.811,63.685l4.023,26.652s27.049-42.491-1.973-83.653c-19.529-27.7-44.489-28.372-57.1-26.511a13.533,13.533,0,0,1-8.573,8.337Z"/><path class="d" d="M1189.552,398.42s7.408-16.919,21.211-14.968,55.127,58.1,46.383,99.4-44.467,45.685-44.467,45.685-6.917-10.484.858-20.233c0,0,23.473-5.757,29.81-32.641s-25.605-81.412-37.34-83.085c-4.223-.6-7.4,3.89-7.4,3.89S1193.638,397.815,1189.552,398.42Z"/><path class="e" d="M1338.508,574.931s-70.75,23.039-108.939,12.7c-2.848-.768-26.091-5.467-26.091-5.467s13.126-49.79,9.463-82.845c-.97-8.758-3.042-26.057-9.228-41.766l-2.874,27.873c-3.77,5.264-16.514,5.753-28.571,4.869v-.005s19.243-10.244,21.316-33.254a66.466,66.466,0,0,1,3.412-16.361c3.7-10.422,8.793-14.236,8.793-14.236s.474.755,1.26,2.108c3.75,6.407,14.616,26.191,15.889,42.12,1.545,19.285,7.649,60.364,37.419,84.689,16.563,13.533,71.9,11.409,72.779-6.371.007-.188.021-.367.041-.538C1336.234,564.295,1338.508,574.931,1338.508,574.931Z"/></g></svg>