<svg xmlns="http://www.w3.org/2000/svg" width="385.667" height="449.266" viewBox="0 0 385.667 449.266"><defs><style>.a{fill:#5d93cb;}.a,.b,.c,.d,.e,.f,.g,.h,.i,.j,.k,.l,.m{fill-rule:evenodd;}.b{fill:#fff;}.c{fill:#233862;}.d{fill:#f89646;}.e{fill:#ec7d2b;}.f{fill:#ffb17d;}.g{fill:#2b478a;}.h{fill:#ec965d;}.i{fill:#163560;}.j{fill:#f8dcbe;}.k{fill:#f1cba9;}.l{fill:#e7935b;}.m{fill:#eaf2f9;}</style></defs><g transform="translate(-719 -39)"><path class="a" d="M2333.09,557.657C2269.82,478.8,2144.55,417.8,1992,423.806V872.664C2373.96,863.934,2436.74,686.847,2333.09,557.657Z" transform="translate(-1273 -384.398)"/><g transform="translate(712.417 -383.259)"><path class="b" d="M2121.97,544.83c-.662-16.32,13.02-23.571,27.008-23.571s29.2,3.624,30.521,25.325c.851,13.961-6.59,22.551-28.019,22.551-7.23,0-12.846-1.139-17.152-3.173l-10.714,9.52,5.266-13.158C2124.22,557.988,2122.26,551.872,2121.97,544.83Z" transform="translate(-1992)"/><path class="c" d="M2082.62,603.429l18.308,34.741,9.39-3.417-3.043,9.272,18.357,55.3S2135.78,629.061,2082.62,603.429Z" transform="translate(-1992)"/><path class="c" d="M2113.17,634.147S2132.89,688.7,2126.4,782c0,0-7.834,3.873-34.215-.761C2065.67,776.579,2113.17,634.147,2113.17,634.147Z" transform="translate(-1992)"/><path class="d" d="M2118.57,756.506s-.078,1-.224,2.847c-.338,4.225-1.03,12.882-1.92,24.136-.294,3.714-.614,7.714-.951,11.935h-54.837c-.2-3.6-.4-7.059-.582-10.354-.119-2.045-.23-4.023-.338-5.922v-.008c-.582-10.357-1.026-18.5-1.268-22.856-.012-.333-.031-.649-.047-.936-.1-1.672-.139-2.576-.139-2.576l2.387.146,3.813.238,15.166.94,4.76.293,7.127.441h.008l14.421.9Z" transform="translate(-1992)"/><path class="e" d="M2118.57,756.506s-.078,1-.224,2.847c-2.752,34.467,9.273,81.746,5.088,102.117l-36.414,4.957-26.382-71c-.2-3.6-.4-7.059-.582-10.354-.119-2.045-.23-4.023-.338-5.922v-.008c-.582-10.357-1.026-18.5-1.268-22.856-.012-.333-.031-.649-.047-.936-.1-1.672-.139-2.576-.139-2.576l2.387.146,3.813.238,15.166.94,4.76.293,7.127.441h.008l14.421.9Z" transform="translate(-1992)"/><path class="d" d="M2108.71,759.7s-.069.17-.2.5c-.449,1.126-1.643,4.083-3.415,8.452-.761,1.858-1.626,3.98-2.586,6.319-.925,2.267-1.945,4.741-3.043,7.4q-.87,2.1-1.807,4.353c-1.142,2.75-2.352,5.66-3.632,8.7l-17.1,72.095-51.344,3.907,14.875-76a83.809,83.809,0,0,0,2.7-15.205c.023-.52.047-1.067.075-1.629.443-8.388,1.692-20.867,2.545-28.834.487-4.559.848-7.643.848-7.643l17.3,4.9,13.977,3.96,6.608,1.871,7.008,1.987h.008l14.248,4.038Z" transform="translate(-1992)"/><path class="f" d="M2099.03,617.516c-15.2,4.8-41.51-8.15-41.51-8.15s14.016-10.522,13.283-32.4l11.756,9.474,7.984,6.435a95.307,95.307,0,0,1-.9,10.442c-.163,1.212-.35,2.521-.568,3.919a2.822,2.822,0,0,0,1.277,2.837,35.92,35.92,0,0,1,8.678,7.443Z" transform="translate(-1992)"/><path class="b" d="M2120.25,758.746a2.456,2.456,0,0,1-1.6.61c-5.707-.079-22.351,3.092-36.442,1.645-11.877-1.137-22.388-4.657-33.678-9.716-1.5-.673-4.947-2.513-4.872-4.189.052-1.836.235-4.5.465-7.849.8-11.65,2.192-31.691.832-54.814-.246-4.3-.373-8.573-.389-12.779-.115-31.336,6.1-58.9,18.584-68.225,0,0,8.7,4.884,14.734,6.811,5.9,1.887,8.942,1.507,12-.524,0,0,5.963,2.963,8.514,5.741,5.9,6.433,10.5,14.968,13.549,27.224,2.594,10.429,5.015,25.639,5.854,45.13C2118.18,696.642,2120.63,758.44,2120.25,758.746Z" transform="translate(-1992)"/><path class="g" d="M2104.47,775.771c-.312,3.155-.666,6.287-1.055,9.367,0,0-31.307,12.2-69.686-11.872l7.452-69.378,5.232-48.685,16.74-51.773s40.175,15.154,42.034,71.886C2105.87,687.339,2108.6,733.987,2104.47,775.771Z" transform="translate(-1992)"/><path class="c" d="M2104.47,775.771c-.312,3.155-.666,6.287-1.055,9.367,0,0-31.307,12.2-69.686-11.872l7.452-69.378L2067.81,678s-.112.9-.262,2.513C2066.29,694.2,2062.55,759.761,2104.47,775.771Z" transform="translate(-1992)"/><path class="h" d="M2090.54,592.878a95.426,95.426,0,0,1-.9,10.442c-8.848-1.518-18.885-15.82-18.885-15.82a28.2,28.2,0,0,1,11.8-1.057Z" transform="translate(-1992)"/><path class="f" d="M2097.13,592.472s-27.384,4.55-29.952-12.548-7.837-28.025,9.537-31.652,21.764,2.384,24.012,7.882S2104.18,590.848,2097.13,592.472Z" transform="translate(-1992)"/><path class="f" d="M2060.68,750.96s-.238,4.884.543,6.244c5.288,9.212,10.116,7.71,3.044,19.61,0,0-3.286,4.689-5.688,1.3s.706-5.578-3.131-10c-4.428-5.1-4.4-5.2-2.716-10.567l-.289-5.625Z" transform="translate(-1992)"/><path class="g" d="M2055.25,757.152a42.875,42.875,0,0,0,9.272-3.337s-4.007-45.332-3.889-49.676,18.5-63,18.5-63l-15.978-37.714s-22.48,12.688-24.954,32.509c-3.052,24.49-2.148,61.453-2.188,67.542-.131,18.2,12.189,53.664,12.189,53.664a18.032,18.032,0,0,0,7.048.012Z" transform="translate(-1992)"/><path class="g" d="M2067.15,578.278s2.81-.469,2.354-4.339-.443-8.932,2.7-7.988,3.306,3.463,4.6,1.991,1.316-7.67,10.683-8.1,13.168,2.828,17.518.913,4.591-8.5,4.591-8.5a7.525,7.525,0,0,1-3.113,3.1s7.264-9.936-1.15-16.749-16.982-2.353-21.85-2.059c-10.726.649-17.651,1.292-21.155,8.34S2060.27,571.5,2067.15,578.278Z" transform="translate(-1992)"/><path class="f" d="M2059.46,757.414s3.992.852,4.828,1.767c2.684,2.938,4.726,3.608,4.419,4.333-.633,1.506-3.768.107-5.953-1.569a11.947,11.947,0,0,1-3.294-4.531Z" transform="translate(-1992)"/><path class="c" d="M2063.15,603.429l18.309,34.741,9.39-3.417-3.047,9.272,18.354,55.3S2116.31,629.061,2063.15,603.429Z" transform="translate(-1992)"/><path class="b" d="M2098.99,583.318s-1.063,2.819-3.727,2.9-4.725-2.514-4.725-2.514S2096.33,582.358,2098.99,583.318Z" transform="translate(-1992)"/><path class="i" d="M2273.42,578.3c-7.756-4.026-13.973-1.5-13.973-1.5-23.726-2.786-30.643,24.888-30.323,34.408s1.409,19.752-9.192,32.119c-12.339,14.4-9.287,23.256-1.245,28.7a38.974,38.974,0,0,0,9.866,4.559c1.262.408,2.551.777,3.839,1.1,2.974.762,5.949,1.329,8.681,1.749a108.745,108.745,0,0,0,12.365,1.2c.355-19.05,15.711-20.754,25.447-18.911a26.619,26.619,0,0,1,5.128,1.462c1.91.8,2.974,1.642,2.68,2.209a31.834,31.834,0,0,0,3.147.6c6.434.924,10.748-.63,13.394-3.909C2316.58,645.634,2287.77,585.737,2273.42,578.3Z" transform="translate(-1992)"/><path class="f" d="M2181.89,697.313s-4.176-6.351-7.531-6.478-9.6-1.866-9.1-.622,4.358,1.371,4.73,2.12-5.724,1.868-7.471,1.991-5.854,0-5.732.871,7.41,4.488,12.554,3.988,11.492,1.495,11.492,1.495Z" transform="translate(-1992)"/><path class="j" d="M2242.24,699.37a63.226,63.226,0,0,1-6.382,9.652c-4.963,6.211-12.606,13.386-22.2,14.8a23.822,23.822,0,0,1-13.2-2.14.05.05,0,0,0-.018,0c-11.655-5.177-20.423-17.077-20.423-17.077a9.572,9.572,0,0,1,1.315-9.407s23.536,5.3,25.775,4.175,15.322-38.8,18.435-43.533,13.731-7.2,13.731-7.2Z" transform="translate(-1992)"/><path class="k" d="M2235.86,709.022c-4.963,6.211-12.606,13.386-22.2,14.8a23.822,23.822,0,0,1-13.2-2.14c.458.059,12.1,1.5,16.74-6.806,4.738-8.471,9.857-21.925,16.887-17.438C2237.12,699.374,2236.99,704.182,2235.86,709.022Z" transform="translate(-1992)"/><path class="f" d="M2298.03,757.033c-8.3-18.626-13.385-23.974-12.417-29.757.726-4.3-2.2-80.223-2.2-80.223-.986-.3-2.966-.578-4.038-.82a10.11,10.11,0,0,1-7.4-6.438,51.5,51.5,0,0,1-2.516-17.128l-1.063.21-17.89,3.54s.406,5.632.423,10.936v.131a10.294,10.294,0,0,1-7.427,9.95c-2.257.65-4.228,1.208-4.228,1.208s-6.572,18.754-7.817,38.019c-1.262,19.269,11.941,27.637-.1,66.138C2219.06,792.118,2302.62,767.324,2298.03,757.033Z" transform="translate(-1992)"/><path class="l" d="M2250.51,626.417s.406,5.632.423,10.936c10-.281,15.3-9.414,17.467-14.476Z" transform="translate(-1992)"/><path class="f" d="M2247.17,631.439s23.683.393,23.7-14.36,3.078-24.64-12.045-25.513-18.063,4.753-19.265,9.675S2241.01,630.96,2247.17,631.439Z" transform="translate(-1992)"/><path class="i" d="M2248.04,591.2s6.486,17.308,16.438,19.868,14.267-.107,14.267-.107a28.177,28.177,0,0,1-9.218-16.651S2252.94,582.967,2248.04,591.2Z" transform="translate(-1992)"/><path class="i" d="M2249.65,592.609s-4.808,1.8-6.788,5.3a23.782,23.782,0,0,0-3.2,13.545s-4.885-11.765.6-18.42C2246.09,585.982,2249.65,592.609,2249.65,592.609Z" transform="translate(-1992)"/><path class="m" d="M2252.32,622.286a5.979,5.979,0,0,1-4.912,2,4.367,4.367,0,0,1-3.649-2.41S2248.61,620.711,2252.32,622.286Z" transform="translate(-1992)"/><path class="j" d="M2294.81,680.636s-.087,11.234-.692,21.409c-.4,6.743-1.02,13.025-1.989,15.262-2.429,5.6-5.162,6.516-5.162,6.516l-21.193,5.193-7.453,1.823-23.5-7.016s-10.7-29.872-6.4-46.687a129.357,129.357,0,0,1,10.861-28.494s19.169,18.774,44.141-1.593Z" transform="translate(-1992)"/><path class="k" d="M2294.11,702.045c-.4,6.743-1.02,13.025-1.989,15.262-2.429,5.6-5.162,6.516-5.162,6.516l-21.193,5.193-9.209-2.7s30.731-4.658,27.324-31.089Z" transform="translate(-1992)"/><path class="e" d="M2272.18,795.424l-10.313,26.038-29.122,12.265-7.291-38.3c-1.055-9.652-1.652-16.366-1.522-18.515.6-9.918,8.249-35.28,11.215-44.841.717-2.322,1.167-3.714,1.167-3.714H2267.8v.468c.009.821.026,2.691.087,5.45.173,7.345.639,20.989,2,37.788C2270.47,779.338,2271.22,787.211,2272.18,795.424Z" transform="translate(-1992)"/><path class="d" d="M2306.63,795.424l-19.511,12.694-25.259,13.344-8.329-26.038a170.279,170.279,0,0,0-9.632-21.814q-1.091-2.056-2.248-4.007c-3.494-5.891-.087-25.052,1.781-34.035.1-.483.2-.943.294-1.367.026-.139.052-.27.078-.4.406-1.848.674-2.958.674-2.958l4.643-.4,1.678-.139,4.4-.384h.009L2265.7,729h.009l.19-.012h.008l1.894-.166,17.812-1.546s.986,1.324,2.516,3.556c4.955,7.242,15.625,24.056,16.887,36.361C2305.6,772.818,2306.09,783.389,2306.63,795.424Z" transform="translate(-1992)"/><path class="b" d="M2251.8,622.682s-.406,1.741-4.738,1.471c0,0-3.632-.225-3.519-2.136a11.69,11.69,0,0,1,8.257.665Z" transform="translate(-1992)"/><path class="c" d="M2234.46,722.765s4.669,3.7,13.947,3.884c11.085.222,38.555-2.826,38.555-2.826a22.685,22.685,0,0,1,1.167,7.009s-33.549,8.463-52.986,1.236C2235.14,732.068,2232.64,727.351,2234.46,722.765Z" transform="translate(-1992)"/><path class="b" d="M2249.13,730.475a3.828,3.828,0,0,1-3.095,4.035h-.017c-.087.008-.173.012-.26.012a2.773,2.773,0,0,1-.951-.162h-.018a3.144,3.144,0,0,1-.976-.559,4.352,4.352,0,0,1-1.436-3.322,4.614,4.614,0,0,1,.5-2.121,3.615,3.615,0,0,1,1.625-1.641,3.174,3.174,0,0,1,.882-.262q.185-.021.372-.023a2.8,2.8,0,0,1,.856.135,3.327,3.327,0,0,1,1.7,1.287h.008a3.5,3.5,0,0,1,.3.5,4.474,4.474,0,0,1,.5,2.081v.04Zm1.678-.179a6.709,6.709,0,0,0-.3-1.791c-.017-.052-.035-.1-.052-.151a5.852,5.852,0,0,0-.934-1.693,4.807,4.807,0,0,0-3.761-1.914,4.664,4.664,0,0,0-3.173,1.273h-.009c-.026.027-.06.055-.095.09a5.719,5.719,0,0,0-1.427,2.244,6.315,6.315,0,0,0-.363,2.121,6.187,6.187,0,0,0,.977,3.373,5.346,5.346,0,0,0,1.773,1.72,4.578,4.578,0,0,0,2.317.631,4.7,4.7,0,0,0,3.312-1.412,6.046,6.046,0,0,0,1.738-4.312Z" transform="translate(-1992)"/><path class="f" d="M2321.02,768.088s.026,4.29.839,6.355,3.251,4.828,4.064,4.828-.744-4.309-.337-4.222,2.369,7.171,3.8,7.342,2.715-7.948,1.971-11.136-3.969-7.011-3.969-7.011Z" transform="translate(-1992)"/><path class="j" d="M2283.42,647.053a28.825,28.825,0,0,1,20.147,15.67c5.456,10.738,9.191,44.511,13.039,55.142,3.683,10.18,8.759,29.853,11.587,45.614a2.6,2.6,0,0,1-1.609,2.885l-4.816,1.911a2.287,2.287,0,0,1-2.8-.948c-4.271-7.19-21.158-35.976-27.02-52.633a87.008,87.008,0,0,0-19.672-31.565Z" transform="translate(-1992)"/><path class="b" d="M2222.5,597.7c.562-13.848-11.048-20-22.916-20s-24.781,3.075-25.9,21.488c-.722,11.846,5.592,19.135,23.775,19.135,6.134,0,10.9-.967,14.553-2.692l9.091,8.077-4.468-11.164C2220.59,608.86,2222.26,603.67,2222.5,597.7Z" transform="translate(-1992)"/></g></g></svg>