<svg xmlns="http://www.w3.org/2000/svg" width="144" height="172.799" viewBox="0 0 144 172.799"><defs><style>.a{fill:#e6984b;}.a,.b,.e{fill-rule:evenodd;}.b{fill:#132740;}.c{fill:#374b99;}.d,.e{fill:#fff;}.d{font-size:31.2px;font-family:NunitoSans-Bold, Nunito Sans;font-weight:700;}</style></defs><g transform="translate(-2267.998 -604.799)"><path class="a" d="M2340,604.8l36,21.6,36,21.6v86.4L2376,756l-36,21.6L2304,756l-36-21.6V648l36-21.6Z"/><path class="b" d="M2340,622.079l-57.6,34.375v69.489l57.6,34.375,57.6-34.375V656.455Z"/><path class="c" d="M5.76,0H138.24A5.759,5.759,0,0,1,144,5.759V37.44a5.76,5.76,0,0,1-5.76,5.76H5.76A5.76,5.76,0,0,1,0,37.44V5.76A5.76,5.76,0,0,1,5.76,0Z" transform="translate(2267.998 691.199)"/><text class="d" transform="translate(2275.197 724.797)"><tspan x="0" y="0">Comrade</tspan></text><path class="e" d="M2334.884,642.379a4.428,4.428,0,1,0-3.531-5.172,4.426,4.426,0,0,0,3.531,5.172Zm25.235,44.085h-11.052v-3.627a1.108,1.108,0,0,0-1.108-1.107H2318.77V691.2h42.457v-3.628a1.108,1.108,0,0,0-1.108-1.107Zm-.07-34.692a4.428,4.428,0,1,0-5.171-3.529,4.427,4.427,0,0,0,5.171,3.529Zm10.719,36.544a2.273,2.273,0,0,1-4.379,1.221l-2.536-9.1a2.368,2.368,0,0,1-.083-.659l.12-5.757-6.036,2.532-1.377,7.3a2.272,2.272,0,1,1-4.466-.84l1.6-8.508a2.269,2.269,0,0,1,1.354-1.675l4.137-1.734-1.964-10.394c.4-.231,2.889-1.645,3.258-1.9l-7.348,2.57a1.906,1.906,0,0,1-.892.086l-8.374-1.2a.583.583,0,0,0-.938.68,1.9,1.9,0,0,1-2.675.128l-5.742-5.217c-.011-.011-.015-.024-.024-.034a1.87,1.87,0,0,1-.37-.472l-3.471-6.472c.1.5,2.018,6.68,2.169,7.17a1.908,1.908,0,0,0,.7.9l.495.449-1.142,6.049,3.569,4.229a2.284,2.284,0,0,1,.536,1.492l-.119,9.795a2.272,2.272,0,0,1-2.272,2.245h-.028a2.273,2.273,0,0,1-2.245-2.3l.11-8.95-3.149-3.731.451,2.792a2.305,2.305,0,0,1-.12,1.172l-3.642,9.553a2.273,2.273,0,0,1-4.248-1.619l3.426-8.984-1.112-6.7a6.172,6.172,0,0,1,.024-2.169l2.571-13.617a3.816,3.816,0,0,1,4.455-3.04l1.6.3a3.812,3.812,0,0,1,3.04,4.453l-.118.629c-.264-.321-1.351-1.673-1.629-1.941l3.329,6.208,5.051,4.59a1.866,1.866,0,0,1,2.05-1.346l7.918,1.131,6.9-2.413c-.534.042-1.257.165-1.829.253a3.8,3.8,0,0,1,2.433-1.585l1.6-.3a3.814,3.814,0,0,1,4.455,3.04l2.619,13.864a7.8,7.8,0,0,1,.132,1.687l-.221,7.342Z"/></g></svg>