<svg xmlns="http://www.w3.org/2000/svg" width="144.002" height="172.801" viewBox="0 0 144.002 172.801"><defs><style>.a{fill:#d8a572;}.a,.b,.c{fill-rule:evenodd;}.b{fill:#132740;}.c,.e{fill:#fff;}.d{fill:#374b99;}.e{font-size:33.599px;font-family:NunitoSans-Bold, Nunito Sans;font-weight:700;}</style></defs><g transform="translate(-2267.998 -324)"><path class="a" d="M2340,324l36,21.6,36,21.6v86.4l-36,21.6-36,21.6-36-21.6-36-21.6V367.2l36-21.6Z"/><path class="b" d="M2340,341.28l-57.6,34.376v69.49l57.6,34.376,57.6-34.376v-69.49Z"/><path class="c" d="M2346.245,367.444a8.579,8.579,0,0,0,2.411-5.988,8.657,8.657,0,1,0-17.314,0,8.579,8.579,0,0,0,2.411,5.988Zm4.31,30.524h-21.112a5.622,5.622,0,0,0-5.478,4.394h10.558a1.22,1.22,0,1,1,0,2.44h-12.585a2.688,2.688,0,0,0-2.685,2.685V410.4h41.492v-2.914a2.689,2.689,0,0,0-2.685-2.685h-12.554a1.22,1.22,0,1,1,0-2.44h10.527a5.621,5.621,0,0,0-5.478-4.394Zm-4.754-22.714h-11.6a48.789,48.789,0,0,1-4.5,20.274h20.6a48.769,48.769,0,0,1-4.5-20.274Zm2.06-5.37h-15.724a1.464,1.464,0,0,0,0,2.929h15.724a1.464,1.464,0,0,0,0-2.929Z"/><rect class="d" width="144.002" height="43.2" rx="5.76" transform="translate(2267.998 410.4)"/><text class="e" transform="translate(2286.654 444.895)"><tspan x="0" y="0">Rookie</tspan></text></g></svg>