<svg xmlns="http://www.w3.org/2000/svg" width="144" height="172.799" viewBox="0 0 144 172.799"><defs><style>.a{fill:silver;}.a,.b,.c{fill-rule:evenodd;}.b{fill:#132740;}.c,.e{fill:#fff;}.d{fill:#374b99;}.e{font-size:31.2px;font-family:NunitoSans-Bold, Nunito Sans;font-weight:700;}</style></defs><g transform="translate(-2267.998 -957.598)"><path class="a" d="M2340,957.6l36,21.6,36,21.6v86.4l-36,21.6-36,21.6-36-21.6-36-21.6v-86.4l36-21.6Z"/><path class="b" d="M2340,974.878l-57.6,34.375v69.489l57.6,34.375,57.6-34.375v-69.489Z"/><path class="c" d="M2367.177,998.4h-30.871a1.858,1.858,0,0,0-1.858,1.859v13.11l1.343-1.57a4.275,4.275,0,0,1,2.373-1.4v-8.283h27.155v24.271h-27.155v-4.063l-.837.978a4.314,4.314,0,0,1-2.879,1.487v3.456a1.858,1.858,0,0,0,1.858,1.858h10.026l-5.094,23.125a1.922,1.922,0,1,0,3.754.828l5.276-23.953h3.067l5.275,23.953a1.922,1.922,0,0,0,1.876,1.508,1.954,1.954,0,0,0,.415-.044,1.921,1.921,0,0,0,1.463-2.292l-5.093-23.125h9.906a1.859,1.859,0,0,0,1.858-1.858v-27.987a1.859,1.859,0,0,0-1.858-1.859Zm-46.77,10.151a5.617,5.617,0,0,0,8.183-4.969,5.618,5.618,0,1,0-8.183,4.969Zm3.6,1.73h-2.062a4.815,4.815,0,0,0-3.851,1.937l-6.331,5.829a2.4,2.4,0,0,0-.187,3.393l5.165,5.766a2.4,2.4,0,1,0,3.578-3.205l-3.561-3.976,5.057-4.525-2.945,4,2.881,3.217a4.31,4.31,0,0,1-4.643,6.948s.022,11.114.022,23.016a2.883,2.883,0,1,0,5.765,0V1035.5h1.923v17.179a4.772,4.772,0,0,1-.6,2.282,2.846,2.846,0,0,0,1.741.6,2.883,2.883,0,0,0,2.884-2.883c0-11.9,0-6.91,0-37.565a4.836,4.836,0,0,0-4.838-4.836Zm28.414-1.028a.716.716,0,0,1-.307.882l-8.776,5.134-3.334,1.951-4.135,4.835a2.4,2.4,0,0,1-3.388.261l-1.713-1.468v-5.731c0-.224-.046-.435-.066-.653l3.079,2.64,3.473-4.056a2.4,2.4,0,0,1,3.292-.336l10.945-3.863A.716.716,0,0,1,2352.42,1009.249Z"/><path class="d" d="M5.76,0H138.24A5.759,5.759,0,0,1,144,5.759V37.44a5.76,5.76,0,0,1-5.76,5.76H5.76A5.76,5.76,0,0,1,0,37.44V5.76A5.76,5.76,0,0,1,5.76,0Z" transform="translate(2267.998 1043.997)"/><text class="e" transform="translate(2285.742 1077.596)"><tspan x="0" y="0">Scholar</tspan></text></g></svg>