<?xml version="1.0" encoding="UTF-8"?><!DOCTYPE svg PUBLIC "-//W3C//DTD SVG 1.1//EN" "http://www.w3.org/Graphics/SVG/1.1/DTD/svg11.dtd"><svg xmlns="http://www.w3.org/2000/svg" xmlns:xlink="http://www.w3.org/1999/xlink"><defs/><symbol id="app-outline" viewBox="0 0 20 20">
<path fill-rule="evenodd" clip-rule="evenodd" d="M2 9.5H7.5C8.03043 9.5 8.53911 9.28932 8.91418 8.91425C9.28926 8.53917 9.5 8.03043 9.5 7.5V2C9.5 1.46957 9.28926 0.960888 8.91418 0.585815C8.53911 0.210743 8.03043 0 7.5 0H2C1.47005 0.00158273 0.962255 0.212794 0.587524 0.587524C0.212794 0.962255 0.00158273 1.47005 0 2V7.5C0.00132012 8.03003 0.212432 8.53799 0.587219 8.91278C0.962006 9.28757 1.46997 9.49868 2 9.5ZM13.5 11.5C12.9696 11.5 12.4609 11.7107 12.0858 12.0858C11.7107 12.4609 11.5 12.9696 11.5 13.5V18C11.5016 18.5299 11.7128 19.0377 12.0875 19.4125C12.4623 19.7872 12.9701 19.9984 13.5 20H18C18.5304 20 19.0391 19.7893 19.4142 19.4142C19.7893 19.0392 20 18.5304 20 18V13.5C20 12.9696 19.7893 12.4609 19.4142 12.0858C19.0391 11.7107 18.5304 11.5 18 11.5H13.5ZM13.5 12.979H18C18.1378 12.9795 18.2697 13.0345 18.3671 13.1319C18.4645 13.2293 18.5195 13.3613 18.52 13.499V17.999C18.5195 18.1368 18.4645 18.2687 18.3671 18.3661C18.2697 18.4635 18.1378 18.5185 18 18.519H13.5C13.3622 18.5185 13.2303 18.4635 13.1329 18.3661C13.0355 18.2687 12.9805 18.1368 12.98 17.999V13.499C12.9805 13.3613 13.0355 13.2293 13.1329 13.1319C13.2303 13.0345 13.3622 12.9795 13.5 12.979ZM9.5 13.499C9.5 12.9686 9.28926 12.4599 8.91418 12.0848C8.53911 11.7097 8.03043 11.499 7.5 11.499H3C2.46997 11.5003 1.96201 11.7115 1.58722 12.0862C1.21243 12.461 1.00132 12.969 1 13.499V17.999C1.00158 18.529 1.21279 19.0368 1.58752 19.4115C1.96225 19.7862 2.47005 19.9974 3 19.999H7.5C8.02995 19.9974 8.53775 19.7862 8.91248 19.4115C9.28721 19.0368 9.49842 18.529 9.5 17.999V13.499ZM7.5 12.979C7.63775 12.9795 7.76972 13.0345 7.86713 13.1319C7.96453 13.2293 8.01949 13.3613 8.02002 13.499V17.999C8.01949 18.1368 7.96453 18.2687 7.86713 18.3661C7.76972 18.4635 7.63775 18.5185 7.5 18.519H3C2.86225 18.5185 2.73028 18.4635 2.63287 18.3661C2.53547 18.2687 2.48051 18.1368 2.47998 17.999V13.499C2.48051 13.3613 2.53547 13.2293 2.63287 13.1319C2.73028 13.0345 2.86225 12.9795 3 12.979H7.5ZM11.5 7.49799C11.5013 8.02801 11.7124 8.53598 12.0872 8.91077C12.462 9.28555 12.97 9.49667 13.5 9.49799H18C18.5304 9.49799 19.0391 9.2873 19.4142 8.91223C19.7893 8.53716 20 8.02842 20 7.49799V2.99799C20 2.46755 19.7893 1.95887 19.4142 1.5838C19.0391 1.20873 18.5304 0.997986 18 0.997986H13.5C12.9696 0.997986 12.4609 1.20873 12.0858 1.5838C11.7107 1.95887 11.5 2.46755 11.5 2.99799V7.49799ZM18 8.01801H13.5C13.3622 8.01748 13.2303 7.96252 13.1329 7.86511C13.0355 7.76771 12.9805 7.63574 12.98 7.49799V2.99799C12.9805 2.86024 13.0355 2.72826 13.1329 2.63086C13.2303 2.53345 13.3622 2.47855 13.5 2.47803H18C18.1378 2.47855 18.2697 2.53345 18.3671 2.63086C18.4645 2.72826 18.5195 2.86024 18.52 2.99799V7.49799C18.5195 7.63574 18.4645 7.76771 18.3671 7.86511C18.2697 7.96252 18.1378 8.01748 18 8.01801ZM7.5 8.01801H2C1.86225 8.01748 1.73028 7.96252 1.63287 7.86511C1.53547 7.76771 1.48051 7.63574 1.47998 7.49799V1.99799C1.48051 1.86024 1.53547 1.72826 1.63287 1.63086C1.73028 1.53345 1.86225 1.47855 2 1.47803H7.5C7.63775 1.47855 7.76972 1.53345 7.86713 1.63086C7.96453 1.72826 8.01949 1.86024 8.02002 1.99799V7.49799C8.02002 7.63608 7.96526 7.76856 7.8678 7.86639C7.77034 7.96423 7.6381 8.01949 7.5 8.02002V8.01801Z" fill="currentColor"/>
</symbol><symbol id="app" viewBox="0 0 20 20">
<path fill-rule="evenodd" clip-rule="evenodd" d="M2 0H7.5C8.03043 0 8.53914 0.210743 8.91422 0.585815C9.28929 0.960888 9.5 1.46957 9.5 2V7.5C9.5 8.03043 9.28929 8.53917 8.91422 8.91425C8.53914 9.28932 8.03043 9.5 7.5 9.5H2C1.46997 9.49868 0.962037 9.28757 0.58725 8.91278C0.212463 8.53799 0.00132012 8.03003 0 7.5V2C0.00158273 1.47005 0.212794 0.962316 0.587524 0.587585C0.962255 0.212855 1.47005 0.00158273 2 0ZM3 11.5H7.5C8.03003 11.5013 8.53796 11.7125 8.91275 12.0873C9.28754 12.4621 9.49868 12.97 9.5 13.5V18C9.49842 18.5299 9.28721 19.0377 8.91248 19.4125C8.53775 19.7872 8.02995 19.9984 7.5 20H3C2.47005 19.9984 1.96225 19.7872 1.58752 19.4125C1.21279 19.0377 1.00158 18.5299 1 18V13.5C1.00132 12.97 1.21246 12.4621 1.58725 12.0873C1.96204 11.7125 2.46997 11.5013 3 11.5ZM13.5 11.5H18C18.5304 11.5 19.0391 11.7107 19.4142 12.0858C19.7893 12.4609 20 12.9696 20 13.5V18C20 18.5304 19.7893 19.0392 19.4142 19.4142C19.0391 19.7893 18.5304 20 18 20H13.5C12.9701 19.9984 12.4623 19.7872 12.0875 19.4125C11.7128 19.0377 11.5016 18.5299 11.5 18V13.5C11.5 12.9696 11.7107 12.4609 12.0858 12.0858C12.4609 11.7107 12.9696 11.5 13.5 11.5ZM13.5 1H18C18.5304 1 19.0391 1.21074 19.4142 1.58582C19.7893 1.96089 20 2.46957 20 3V7.5C20 8.03043 19.7893 8.53917 19.4142 8.91425C19.0391 9.28932 18.5304 9.5 18 9.5H13.5C12.97 9.49868 12.462 9.28757 12.0872 8.91278C11.7125 8.53799 11.5013 8.03003 11.5 7.5V3C11.5 2.46957 11.7107 1.96089 12.0858 1.58582C12.4609 1.21074 12.9696 1 13.5 1Z" fill="currentColor"/>
</symbol><symbol id="arrow-left" viewBox="0 0 16 25">
<path fill-rule="evenodd" clip-rule="evenodd" d="M14.53 19.6005C14.7742 19.8389 14.9687 20.1234 15.1021 20.4375C15.2354 20.7516 15.3051 21.0891 15.3071 21.4303C15.3092 21.7715 15.2434 22.1098 15.1138 22.4255C14.9841 22.7411 14.7931 23.0279 14.5518 23.2692C14.3105 23.5105 14.0237 23.7016 13.708 23.8312C13.3923 23.9609 13.0541 24.0266 12.7129 24.0246C12.3716 24.0225 12.0341 23.9528 11.72 23.8194C11.4059 23.686 11.1215 23.4916 10.8831 23.2475L6.17212 18.5355L1.46094 13.8245C0.978093 13.3404 0.707031 12.6846 0.707031 12.0009C0.707031 11.3173 0.978093 10.6615 1.46094 10.1775L10.8831 0.755463C11.3665 0.27184 12.0222 9.37514e-05 12.7061 2.42549e-08C13.3899 -9.37028e-05 14.0459 0.271454 14.5295 0.754944C15.0132 1.23843 15.2848 1.89424 15.2849 2.57809C15.285 3.26195 15.0135 3.91784 14.53 4.40146L6.92993 12.0015L14.53 19.6005Z" fill="#4D5C6F"/>
</symbol><symbol id="arrow-right" viewBox="0 0 16 24">
<path fill-rule="evenodd" clip-rule="evenodd" d="M1.4622 19.6004C0.988024 20.0859 0.724534 20.7388 0.728561 21.4175C0.732588 22.0962 1.00378 22.7459 1.48369 23.2258C1.9636 23.7058 2.61336 23.9771 3.29204 23.9812C3.97072 23.9852 4.62361 23.7215 5.10918 23.2474L9.82036 18.5354L14.5313 13.8244C15.0141 13.3403 15.2852 12.6845 15.2852 12.0008C15.2852 11.3172 15.0141 10.6614 14.5313 10.1774L5.10918 0.755356C4.62361 0.281176 3.97072 0.0175031 3.29204 0.0215298C2.61336 0.0255566 1.9636 0.296962 1.48369 0.77687C1.00378 1.25678 0.732588 1.90651 0.728561 2.58519C0.724534 3.26387 0.988024 3.91679 1.4622 4.40236L9.0623 12.0024L1.4622 19.6004Z" fill="#4D5C6F"/>
</symbol><symbol id="bell-outline" viewBox="0 0 20 20">
<path fill-rule="evenodd" clip-rule="evenodd" d="M16.9586 6.81832C16.9643 7.86632 17.0311 8.91311 17.1587 9.95333C17.2751 10.9886 17.5482 12.0002 17.9687 12.9533C18.0865 13.208 18.2285 13.4507 18.3927 13.6783C18.483 13.8119 18.5913 13.9324 18.7147 14.0363C19.0309 14.2113 19.2676 14.5014 19.3756 14.8463C19.4513 15.092 19.4558 15.3541 19.3886 15.6023C19.3069 15.903 19.1284 16.1683 18.8808 16.3574C18.6332 16.5464 18.3302 16.6487 18.0186 16.6483H14.0957L13.7287 17.4783C13.3305 18.4014 12.5983 19.1401 11.6787 19.5463C11.1539 19.7777 10.5867 19.8972 10.0131 19.8972C9.43963 19.8972 8.87245 19.7777 8.34768 19.5463C7.42797 19.1399 6.69548 18.4013 6.29666 17.4783L5.92965 16.6483H2.00765C1.68929 16.6479 1.37996 16.5424 1.12765 16.3483C0.871266 16.1495 0.694022 15.8659 0.62765 15.5483C0.535024 15.286 0.539858 14.9992 0.6412 14.7401C0.742542 14.4811 0.933633 14.2671 1.17965 14.1373C1.56502 13.8207 1.8674 13.4151 2.06063 12.9553C2.42051 12.1431 2.66947 11.286 2.80068 10.4073C2.98442 9.23103 3.07268 8.04185 3.06466 6.85134C3.09081 5.02821 3.83225 3.28832 5.12918 2.00673C6.4261 0.725147 8.17464 0.00448071 9.99795 2.08222e-05C11.8213 -0.00443907 13.5733 0.707704 14.8765 1.98293C16.1797 3.25816 16.9296 4.99437 16.9647 6.81734L16.9586 6.81832ZM15.6587 10.1483C15.524 9.0494 15.4543 7.94347 15.4497 6.83632V6.82729C15.4273 5.39781 14.8429 4.03466 13.8229 3.03286C12.8029 2.03106 11.4295 1.47122 9.99984 1.47451C8.57019 1.47779 7.19933 2.04395 6.18399 3.05044C5.16864 4.05692 4.59049 5.42274 4.57467 6.85232C4.5817 8.12469 4.48536 9.39552 4.28665 10.6523C4.13309 11.6682 3.84243 12.6586 3.42263 13.5963C3.17098 14.178 2.80042 14.7005 2.33468 15.1303H17.6726C17.4872 14.9616 17.3197 14.7743 17.1726 14.5713C16.951 14.2655 16.7595 13.939 16.6007 13.5963C16.1126 12.5001 15.7952 11.3356 15.6596 10.1433L15.6587 10.1483ZM12.3267 16.8743C12.3577 16.8033 12.3857 16.7283 12.4107 16.6513H7.61068C7.63568 16.7283 7.66367 16.8033 7.69467 16.8743L7.78665 17.0843C8.04594 17.5639 8.45712 17.9437 8.95565 18.1643C9.28862 18.3094 9.64792 18.3843 10.0111 18.3843C10.3743 18.3843 10.7337 18.3094 11.0667 18.1643C11.5626 17.9448 11.9722 17.5676 12.2317 17.0913L12.3267 16.8743Z" fill="currentColor"/>
</symbol><symbol id="bell" viewBox="0 0 19 21">
<path fill-rule="evenodd" clip-rule="evenodd" d="M6.0991 17.8795C6.37815 18.5143 6.83593 19.0541 7.41659 19.4332C7.99725 19.8122 8.67568 20.0141 9.3691 20.0141C10.0625 20.0141 10.741 19.8122 11.3216 19.4332C11.9023 19.0541 12.36 18.5143 12.6391 17.8795H12.6231C12.8133 17.4417 12.913 16.9699 12.9161 16.4925H18.0281C18.1891 16.4954 18.3462 16.4432 18.4734 16.3447C18.6007 16.2461 18.6906 16.107 18.7281 15.9505C18.7641 15.7998 18.7469 15.6412 18.6795 15.5017C18.6121 15.3621 18.4986 15.2501 18.3581 15.1845C17.8588 14.7842 17.473 14.2602 17.2391 13.6645C16.3846 11.4501 15.988 9.08551 16.0731 6.71351V6.68654C16.0713 5.80668 15.8963 4.93575 15.5579 4.12355C15.2196 3.31135 14.7246 2.57379 14.1012 1.95289C13.4778 1.332 12.7382 0.839965 11.9246 0.504896C11.1111 0.169828 10.2395 -0.00175925 9.3596 1.35987e-05C8.47974 0.00178644 7.60886 0.176867 6.79665 0.515211C5.98445 0.853556 5.24684 1.34853 4.62594 1.97194C4.00504 2.59534 3.51301 3.33495 3.17794 4.14851C2.84287 4.96207 2.67133 5.83366 2.6731 6.71351C2.75826 9.08551 2.3616 11.4501 1.5071 13.6645C1.27291 14.2597 0.887576 14.7837 0.389107 15.1845C0.248602 15.2501 0.134986 15.362 0.0674063 15.5015C-0.000173807 15.6411 -0.0175881 15.7996 0.0181051 15.9505C0.0556486 16.107 0.145492 16.2461 0.272774 16.3447C0.400056 16.4432 0.557151 16.4954 0.718102 16.4925H5.8301C5.83275 16.9699 5.93244 17.4418 6.1231 17.8795H6.0991Z" fill="currentColor"/>
</symbol><symbol id="chat" viewBox="0 0 24 24">
<path fill-rule="evenodd" clip-rule="evenodd" d="M14.4 16.8H6C5.68174 16.8 5.37653 16.6736 5.15149 16.4485C4.92645 16.2235 4.80005 15.9183 4.80005 15.6C4.80005 15.2817 4.92645 14.9765 5.15149 14.7515C5.37653 14.5264 5.68174 14.4 6 14.4H14.4C14.7183 14.4 15.0235 14.5264 15.2485 14.7515C15.4736 14.9765 15.6 15.2817 15.6 15.6C15.6 15.9183 15.4736 16.2235 15.2485 16.4485C15.0235 16.6736 14.7183 16.8 14.4 16.8ZM0 12V24H12C14.3734 24 16.6935 23.2962 18.6669 21.9776C20.6403 20.6591 22.1783 18.7849 23.0865 16.5922C23.9948 14.3995 24.2324 11.9867 23.7694 9.65892C23.3064 7.33115 22.1635 5.19295 20.4852 3.51472C18.807 1.83649 16.6688 0.693605 14.3411 0.230582C12.0133 -0.232441 9.60055 0.00519943 7.40784 0.913451C5.21512 1.8217 3.34092 3.35977 2.02234 5.33316C0.703762 7.30655 0 9.62663 0 12ZM18 10.8H6C5.68174 10.8 5.37653 10.6736 5.15149 10.4485C4.92645 10.2235 4.80005 9.91826 4.80005 9.6C4.80005 9.28174 4.92645 8.97652 5.15149 8.75148C5.37653 8.52643 5.68174 8.40001 6 8.40001H18C18.3183 8.40001 18.6235 8.52643 18.8485 8.75148C19.0736 8.97652 19.2 9.28174 19.2 9.6C19.2 9.91826 19.0736 10.2235 18.8485 10.4485C18.6235 10.6736 18.3183 10.8 18 10.8Z" fill="currentColor"/>
</symbol><symbol id="close" viewBox="0 0 18 18">
<path fill-rule="evenodd" clip-rule="evenodd" d="M3.27499 0L9 5.725L14.725 0L18 3.275L12.275 9L18 14.725L14.725 18L9 12.275L3.27499 18L0 14.725L5.72501 9L0 3.275L3.27499 0Z" fill="currentColor"/>
</symbol><symbol id="create-outline" viewBox="0 0 20 20">
<path fill-rule="evenodd" clip-rule="evenodd" d="M14.621 0H5.37903C4.67287 5.39331e-05 3.97364 0.139616 3.32153 0.410583C2.66943 0.681551 2.07723 1.07863 1.57898 1.57904C1.07825 2.07711 0.68094 2.66922 0.40979 3.32135C0.13864 3.97348 -0.000955752 4.67277 -0.000976556 5.37903V14.621C-0.00101054 15.3273 0.138515 16.0266 0.409668 16.6787C0.680821 17.3309 1.07821 17.923 1.57898 18.421C2.07705 18.9217 2.66916 19.3191 3.32129 19.5903C3.97342 19.8614 4.67277 20.001 5.37903 20.001H14.621C16.0465 19.9971 17.4126 19.429 18.4205 18.4208C19.4285 17.4127 19.9963 16.0466 20 14.621V5.37903C20 4.67277 19.8604 3.97348 19.5892 3.32135C19.3181 2.66922 18.9207 2.07711 18.42 1.57904C17.9217 1.07863 17.3296 0.681551 16.6775 0.410583C16.0254 0.139616 15.3262 5.39331e-05 14.62 0H14.621ZM8.81201 10.9901H5.44501C5.18244 10.9901 4.93059 10.8857 4.74493 10.7001C4.55927 10.5144 4.45502 10.2626 4.45502 10C4.45502 9.73744 4.55927 9.48565 4.74493 9.29999C4.93059 9.11433 5.18244 9.01001 5.44501 9.01001H8.81201C8.83828 9.01001 8.86428 9.00486 8.88855 8.99481C8.91282 8.98476 8.93486 8.97005 8.95343 8.95148C8.972 8.93291 8.98671 8.9108 8.99677 8.88654C9.00682 8.86227 9.01202 8.83626 9.01202 8.81V5.44C9.01202 5.17744 9.11628 4.92565 9.30194 4.73999C9.4876 4.55433 9.73945 4.45001 10.002 4.45001C10.2646 4.45001 10.5164 4.55433 10.702 4.73999C10.8877 4.92565 10.992 5.17744 10.992 5.44V8.80701C10.992 8.86005 11.0131 8.91092 11.0506 8.94843C11.0881 8.98593 11.139 9.00702 11.192 9.00702H14.559C14.8216 9.00702 15.0734 9.11134 15.259 9.297C15.4447 9.48266 15.549 9.73444 15.549 9.99701C15.549 10.2596 15.4447 10.5114 15.259 10.6971C15.0734 10.8827 14.8216 10.987 14.559 10.987H11.192C11.139 10.987 11.0881 11.0081 11.0506 11.0456C11.0131 11.0831 10.992 11.134 10.992 11.187V14.554C10.992 14.8166 10.8877 15.0684 10.702 15.2541C10.5164 15.4398 10.2646 15.544 10.002 15.544C9.73945 15.544 9.4876 15.4398 9.30194 15.2541C9.11628 15.0684 9.01202 14.8166 9.01202 14.554V11.187C9.01202 11.1607 9.00682 11.1347 8.99677 11.1105C8.98671 11.0862 8.972 11.0642 8.95343 11.0456C8.93486 11.027 8.91282 11.0123 8.88855 11.0023C8.86428 10.9922 8.83828 10.987 8.81201 10.987V10.9901ZM5.37903 1.51605H14.621C15.6445 1.51922 16.6253 1.92717 17.3491 2.65094C18.0728 3.37471 18.4808 4.35547 18.484 5.37903V14.621C18.4808 15.6446 18.0728 16.6253 17.3491 17.3491C16.6253 18.0728 15.6445 18.4808 14.621 18.484H5.37903C4.35523 18.4816 3.37402 18.0739 2.65009 17.35C1.92615 16.626 1.51837 15.6448 1.51599 14.621V5.37903C1.51837 4.35523 1.92615 3.37402 2.65009 2.65009C3.37402 1.92615 4.35523 1.51843 5.37903 1.51605Z" fill="currentColor"/>
</symbol><symbol id="create" viewBox="0 0 20 20">
<path fill-rule="evenodd" clip-rule="evenodd" d="M11.286 11.071H14.929C15.2075 11.0625 15.4718 10.9459 15.6658 10.7459C15.8598 10.5459 15.9683 10.2782 15.9683 9.99951C15.9683 9.72087 15.8598 9.45319 15.6658 9.25317C15.4718 9.05316 15.2075 8.93655 14.929 8.92804H11.286C11.2579 8.92804 11.2301 8.9225 11.2041 8.91174C11.1781 8.90099 11.1545 8.88523 11.1347 8.86536C11.1148 8.84548 11.099 8.82186 11.0883 8.7959C11.0775 8.76993 11.072 8.74215 11.072 8.71405V5.07104C11.0635 4.79253 10.9469 4.52823 10.7469 4.33423C10.5468 4.14023 10.2791 4.03174 10.0005 4.03174C9.72186 4.03174 9.45417 4.14023 9.25415 4.33423C9.05413 4.52823 8.93751 4.79253 8.929 5.07104V8.71405C8.929 8.74215 8.92346 8.76993 8.9127 8.7959C8.90195 8.82186 8.88619 8.84548 8.86632 8.86536C8.84645 8.88523 8.82285 8.90099 8.79689 8.91174C8.77093 8.9225 8.7431 8.92804 8.715 8.92804H5.07201C4.92854 8.92366 4.78566 8.94812 4.65182 9C4.51799 9.05188 4.39594 9.13011 4.29291 9.23004C4.18988 9.32997 4.10797 9.44954 4.05203 9.58173C3.99609 9.71391 3.96727 9.85598 3.96727 9.99951C3.96727 10.143 3.99609 10.2851 4.05203 10.4173C4.10797 10.5495 4.18988 10.6691 4.29291 10.769C4.39594 10.869 4.51799 10.9472 4.65182 10.9991C4.78566 11.051 4.92854 11.0754 5.07201 11.071H8.715C8.74318 11.071 8.77109 11.0766 8.79712 11.0874C8.82315 11.0982 8.84678 11.1141 8.86667 11.134C8.88655 11.154 8.9023 11.1777 8.91299 11.2038C8.92369 11.2299 8.92913 11.2578 8.929 11.286V14.928C8.92462 15.0715 8.94909 15.2144 9.00096 15.3482C9.05284 15.482 9.13106 15.6041 9.23099 15.7071C9.33092 15.8101 9.45053 15.8921 9.58272 15.948C9.7149 16.0039 9.85697 16.0328 10.0005 16.0328C10.144 16.0328 10.2861 16.0039 10.4183 15.948C10.5505 15.8921 10.6701 15.8101 10.77 15.7071C10.8699 15.6041 10.9482 15.482 11 15.3482C11.0519 15.2144 11.0764 15.0715 11.072 14.928V11.286C11.0719 11.2578 11.0773 11.2299 11.088 11.2038C11.0987 11.1777 11.1144 11.154 11.1343 11.134C11.1542 11.1141 11.1778 11.0982 11.2039 11.0874C11.2299 11.0766 11.2578 11.071 11.286 11.071ZM5 0H15C16.3249 0.00369436 17.5946 0.531685 18.5314 1.46857C19.4683 2.40545 19.9963 3.67505 20 5V15C19.9963 16.3249 19.4683 17.5946 18.5314 18.5315C17.5946 19.4684 16.3249 19.9963 15 20H5C3.67513 19.996 2.40567 19.468 1.46884 18.5312C0.532016 17.5944 0.00395682 16.3249 0 15V5C0.00395682 3.67513 0.532016 2.4057 1.46884 1.46887C2.40567 0.532047 3.67513 0.00395682 5 0Z" fill="currentColor"/>
</symbol><symbol id="equal-to" viewBox="0 0 30 18">
<path fill-rule="evenodd" clip-rule="evenodd" d="M30 5.5H0V0H30V5.5ZM30 18H0V12.5H30V18Z" fill="currentColor"/>
</symbol><symbol id="filter" viewBox="0 0 30 28">
<path fill-rule="evenodd" clip-rule="evenodd" d="M28.8271 2.77054H10.9541C10.7081 2.03842 10.2384 1.40204 9.61133 0.951202C8.98424 0.50036 8.23132 0.257812 7.45898 0.257812C6.68665 0.257813 5.93373 0.50036 5.30664 0.951202C4.67955 1.40204 4.20985 2.03842 3.96387 2.77054H1.17383C0.862464 2.77054 0.563918 2.89424 0.34375 3.11441C0.123582 3.33458 0 3.63319 0 3.94455C0 4.25591 0.123582 4.55452 0.34375 4.77469C0.563918 4.99486 0.862464 5.11853 1.17383 5.11853H3.96387C4.20985 5.85064 4.67955 6.48702 5.30664 6.93787C5.93373 7.38871 6.68665 7.63126 7.45898 7.63126C8.23132 7.63126 8.98424 7.38871 9.61133 6.93787C10.2384 6.48702 10.7081 5.85064 10.9541 5.11853H28.8271C29.1385 5.11853 29.4371 4.99486 29.6572 4.77469C29.8774 4.55452 30.001 4.25591 30.001 3.94455C30.001 3.63319 29.8774 3.33458 29.6572 3.11441C29.4371 2.89424 29.1385 2.77054 28.8271 2.77054ZM28.8271 22.8815H15.9814C15.7357 22.1493 15.2657 21.5127 14.6387 21.0618C14.0116 20.6108 13.2587 20.3682 12.4863 20.3682C11.714 20.3682 10.961 20.6108 10.334 21.0618C9.70696 21.5127 9.2379 22.1493 8.99219 22.8815H1.17383C0.868527 22.8904 0.579009 23.018 0.366211 23.2371C0.153413 23.4562 0.0341797 23.7496 0.0341797 24.0551C0.0341797 24.3605 0.153413 24.6539 0.366211 24.873C0.579009 25.0921 0.868527 25.2196 1.17383 25.2285H8.99219C9.2379 25.9608 9.70696 26.5973 10.334 27.0483C10.961 27.4993 11.714 27.7419 12.4863 27.7419C13.2587 27.7419 14.0116 27.4993 14.6387 27.0483C15.2657 26.5973 15.7357 25.9608 15.9814 25.2285H28.8271C29.1325 25.2196 29.422 25.0921 29.6348 24.873C29.8476 24.6539 29.9668 24.3605 29.9668 24.0551C29.9668 23.7496 29.8476 23.4562 29.6348 23.2371C29.422 23.018 29.1325 22.8904 28.8271 22.8815ZM28.8271 12.8265H26.0371C25.7911 12.0944 25.3214 11.458 24.6943 11.0072C24.0672 10.5564 23.3143 10.3138 22.542 10.3138C21.7697 10.3138 21.0167 10.5564 20.3896 11.0072C19.7626 11.458 19.2929 12.0944 19.0469 12.8265H1.17383C0.868527 12.8355 0.579009 12.963 0.366211 13.1821C0.153413 13.4012 0.0341797 13.6946 0.0341797 14C0.0341797 14.3055 0.153413 14.5989 0.366211 14.818C0.579009 15.0371 0.868527 15.1646 1.17383 15.1736H19.0469C19.2929 15.9057 19.7626 16.542 20.3896 16.9929C21.0167 17.4437 21.7697 17.6862 22.542 17.6862C23.3143 17.6862 24.0672 17.4437 24.6943 16.9929C25.3214 16.542 25.7911 15.9057 26.0371 15.1736H28.8271C29.1325 15.1646 29.422 15.0371 29.6348 14.818C29.8476 14.5989 29.9668 14.3055 29.9668 14C29.9668 13.6946 29.8476 13.4012 29.6348 13.1821C29.422 12.963 29.1325 12.8355 28.8271 12.8265Z" fill="currentColor"/>
</symbol><symbol id="hamburger" viewBox="0 0 24 20">
<path fill-rule="evenodd" clip-rule="evenodd" d="M1.91992 0.560059H22.0801C22.5889 0.561378 23.0765 0.764089 23.4363 1.12387C23.7961 1.48366 23.9987 1.97125 24 2.48006C23.9987 2.98887 23.7961 3.47646 23.4363 3.83625C23.0765 4.19603 22.5889 4.39874 22.0801 4.40006H1.91992C1.41119 4.39848 0.923692 4.19568 0.563965 3.83596C0.204237 3.47623 0.00158237 2.98879 0 2.48006C0.00158237 1.97133 0.204237 1.48389 0.563965 1.12416C0.923692 0.764435 1.41119 0.561641 1.91992 0.560059ZM1.91992 15.9201H22.0801C22.5889 15.9214 23.0765 16.1241 23.4363 16.4839C23.7961 16.8437 23.9987 17.3312 24 17.8401C23.9987 18.3489 23.7961 18.8365 23.4363 19.1962C23.0765 19.556 22.5889 19.7587 22.0801 19.7601H1.91992C1.41119 19.7585 0.923692 19.5557 0.563965 19.196C0.204237 18.8362 0.00158237 18.3488 0 17.8401C0.00158237 17.3313 0.204237 16.8439 0.563965 16.4842C0.923692 16.1244 1.41119 15.9216 1.91992 15.9201ZM1.91992 8.24006H22.0801C22.5889 8.24138 23.0765 8.44409 23.4363 8.80387C23.7961 9.16366 23.9987 9.65125 24 10.1601C23.9989 10.669 23.7964 11.1567 23.4365 11.5165C23.0767 11.8764 22.589 12.079 22.0801 12.0801H1.91992C1.41111 12.0787 0.923505 11.876 0.563721 11.5162C0.203937 11.1565 0.00131988 10.6689 0 10.1601C0.00158237 9.65133 0.204237 9.16389 0.563965 8.80416C0.923692 8.44444 1.41119 8.24164 1.91992 8.24006Z" fill="currentColor"/>
</symbol><symbol id="home-outline" viewBox="0 0 20 21">
<path fill-rule="evenodd" clip-rule="evenodd" d="M11.739 0.72101L19.2809 8.26502C19.509 8.4929 19.69 8.76352 19.8133 9.0614C19.9367 9.35929 20.0001 9.67861 19.9999 10.001C20.0009 10.3236 19.9381 10.6432 19.8152 10.9414C19.6924 11.2397 19.5118 11.5107 19.2839 11.739C19.0004 12.0342 18.6425 12.2473 18.2479 12.356C18.1719 12.377 18.0979 12.394 18.0239 12.407V17.251C18.0229 17.9798 17.7329 18.6784 17.2176 19.1937C16.7023 19.709 16.0037 19.9989 15.2749 20H12.325C11.9802 20 11.6495 19.8631 11.4057 19.6193C11.1619 19.3755 11.0249 19.0448 11.0249 18.7V14.35C11.0257 14.3107 11.011 14.2726 10.9839 14.244C10.9555 14.2166 10.9174 14.2015 10.8779 14.202H9.13794C9.09797 14.2023 9.05973 14.2183 9.03146 14.2465C9.0032 14.2748 8.9872 14.3131 8.98694 14.353V18.703C8.98694 19.0478 8.84997 19.3785 8.60617 19.6223C8.36237 19.8661 8.03173 20.0031 7.68695 20.0031H4.73795C4.0091 20.002 3.31039 19.7121 2.79492 19.1968C2.27946 18.6815 1.98927 17.9829 1.98795 17.254V12.42C1.51836 12.3294 1.08696 12.0994 0.74994 11.76C0.51647 11.5264 0.330688 11.2496 0.202943 10.945C0.0733451 10.6404 0.00535835 10.3131 0.00293087 9.98206C0.0026142 9.66341 0.0659729 9.3479 0.189271 9.05408C0.312569 8.76026 0.49334 8.49406 0.720948 8.27106L8.26495 0.724001C8.49227 0.495075 8.76254 0.31333 9.06027 0.189089C9.358 0.0648481 9.67733 0.000557453 9.99994 2.05602e-06C10.3223 -0.000415686 10.6416 0.0628285 10.9395 0.186037C11.2374 0.309246 11.508 0.490014 11.7359 0.71802L11.739 0.72101ZM18.2109 9.33203L10.6679 1.79303C10.5809 1.70444 10.4771 1.63407 10.3626 1.586C10.2481 1.53793 10.1251 1.51309 10.0009 1.513C9.877 1.51292 9.75424 1.53736 9.63977 1.5849C9.5253 1.63244 9.42138 1.70217 9.33395 1.79004L1.78894 9.33405C1.70288 9.41762 1.63441 9.51751 1.58753 9.62793C1.54064 9.73835 1.51629 9.85709 1.51593 9.97705C1.51701 10.2417 1.62227 10.4954 1.80893 10.683C1.89149 10.7659 1.98974 10.8314 2.0979 10.8759C2.20607 10.9203 2.32199 10.9428 2.43894 10.942H3.49994V17.249C3.49961 17.4107 3.53114 17.5708 3.59274 17.7203C3.65434 17.8697 3.74481 18.0056 3.85895 18.1201C3.97319 18.235 4.10906 18.3261 4.25873 18.3882C4.4084 18.4504 4.56888 18.4823 4.73093 18.4821H7.46393V14.35C7.46446 13.9081 7.64028 13.4844 7.95279 13.1719C8.2653 12.8594 8.689 12.6836 9.13095 12.683H10.8709C11.3116 12.6842 11.7338 12.86 12.045 13.172C12.1997 13.3261 12.3225 13.5093 12.4064 13.7109C12.4903 13.9125 12.5336 14.1287 12.5339 14.347V18.481H15.2679C15.5949 18.4808 15.9083 18.3507 16.1395 18.1196C16.3707 17.8884 16.5007 17.575 16.5009 17.248V10.94H17.2589C17.4531 10.9487 17.6475 10.9336 17.838 10.895C17.9791 10.8523 18.1061 10.7725 18.2059 10.664C18.3832 10.4872 18.4832 10.2474 18.4839 9.99701C18.4842 9.74802 18.3861 9.50902 18.2109 9.33203Z" fill="currentColor"/>
</symbol><symbol id="home" viewBox="0 0 20 20">
<path fill-rule="evenodd" clip-rule="evenodd" d="M19.461 8.69647L11.299 0.537476C10.9539 0.193311 10.4864 0 9.99902 0C9.51163 0 9.04413 0.193311 8.69902 0.537476L0.545023 8.69147L0.537024 8.70044C0.193103 9.04568 0 9.51318 0 10.0005C0 10.4878 0.193103 10.9552 0.537024 11.3005C0.861515 11.6274 1.29778 11.8192 1.75802 11.8375C1.77701 11.8385 1.79604 11.8385 1.81502 11.8375H2.14002V17.8375C2.13976 18.1211 2.19542 18.402 2.30381 18.6641C2.41221 18.9262 2.57121 19.1644 2.77173 19.3651C2.97225 19.5657 3.21036 19.7248 3.47242 19.8333C3.73449 19.9418 4.01538 19.9976 4.29902 19.9974H7.48902C7.64444 19.9974 7.79349 19.9357 7.90339 19.8258C8.01328 19.7159 8.07502 19.5669 8.07502 19.4114V14.7045C8.07529 14.4438 8.17894 14.1939 8.36323 14.0096C8.54752 13.8254 8.7974 13.7217 9.05802 13.7214H10.941C11.2016 13.7217 11.4515 13.8254 11.6358 14.0096C11.8201 14.1939 11.9238 14.4438 11.924 14.7045V19.4114C11.924 19.5669 11.9858 19.7159 12.0957 19.8258C12.2056 19.9357 12.3546 19.9974 12.51 19.9974H15.699C16.2703 19.9966 16.818 19.7694 17.222 19.3654C17.6259 18.9614 17.8532 18.4138 17.854 17.8425V11.8425H18.154C18.5178 11.842 18.8733 11.7337 19.1756 11.5313C19.4779 11.3289 19.7135 11.0415 19.8526 10.7053C19.9917 10.3692 20.0281 9.99934 19.9571 9.64252C19.8862 9.2857 19.7111 8.95784 19.454 8.70044L19.461 8.69647Z" fill="currentColor"/>
</symbol><symbol id="logo" viewBox="0 0 168 34">
<path fill-rule="evenodd" clip-rule="evenodd" d="M6.25488 23.434C6.93087 23.4751 7.60846 23.3817 8.24805 23.159C8.44278 23.0623 8.60318 22.9084 8.70776 22.7178C8.81235 22.5272 8.85608 22.3092 8.83301 22.093C8.81507 21.8616 8.73548 21.6392 8.60254 21.4489C8.4696 21.2586 8.28804 21.1074 8.0769 21.011C7.34251 20.5945 6.57307 20.2435 5.7771 19.962C5.03431 19.6895 4.30562 19.3798 3.59399 19.034C2.98118 18.7405 2.41859 18.3521 1.927 17.883C1.46477 17.4294 1.10213 16.8845 0.862061 16.283C0.593361 15.57 0.464833 14.8117 0.483887 14.05C0.4541 13.2773 0.61033 12.5087 0.939209 11.8088C1.26809 11.109 1.76015 10.4982 2.37402 10.028C3.88854 8.9656 5.71697 8.44489 7.56396 8.54999C8.62485 8.54667 9.68374 8.64444 10.7261 8.84199C11.5445 8.98588 12.3494 9.19864 13.1321 9.47799L12.238 13.465C11.6009 13.2473 10.9525 13.0637 10.2959 12.915C9.52269 12.7471 8.73307 12.6666 7.94189 12.675C6.33789 12.675 5.53589 13.1217 5.53589 14.015C5.53129 14.2032 5.56543 14.3904 5.63599 14.565C5.72954 14.7539 5.87227 14.9142 6.04907 15.029C6.31541 15.2132 6.59716 15.3741 6.89111 15.51C7.33339 15.724 7.78625 15.9152 8.24805 16.083C9.20473 16.4251 10.1351 16.8365 11.032 17.314C11.6781 17.652 12.2646 18.0935 12.7681 18.621C13.1796 19.0687 13.4852 19.6032 13.6621 20.185C13.8439 20.8313 13.9303 21.5007 13.9189 22.172C13.9618 22.9631 13.7992 23.7518 13.447 24.4615C13.0948 25.1712 12.5649 25.7777 11.9089 26.222C10.1902 27.232 8.21007 27.7085 6.21997 27.591C4.87477 27.6187 3.53128 27.4803 2.21997 27.179C1.46572 27.0033 0.725064 26.7733 0.00390625 26.491L0.863037 22.333C1.73268 22.6762 2.62937 22.9461 3.54395 23.14C4.43616 23.3326 5.34626 23.4308 6.25903 23.433L6.25488 23.434ZM118.806 9.44999C120.055 22.82 116.575 33.881 102.173 33.881C100.002 33.8815 97.8427 33.5473 95.7729 32.89C90.6129 31.239 88.584 27.742 88.584 24.99V12.31C88.584 7.60199 92.0839 4.38999 98.4919 3.02499C100.607 2.58015 102.758 2.32812 104.918 2.27199C106.966 2.20387 109.016 2.35709 111.032 2.72899C115.539 3.60999 118.809 5.77799 118.809 9.44999H118.806ZM116.606 9.44999C116.606 7.14999 114.095 5.70299 110.634 5.02599C108.766 4.68296 106.866 4.54215 104.967 4.60599C102.933 4.66095 100.909 4.90094 98.9189 5.32299C93.4689 6.48299 90.781 8.94099 90.781 12.31V24.988C90.781 26.788 92.128 29.281 96.397 30.648C98.2532 31.2534 100.195 31.5572 102.147 31.548C114.474 31.387 117.762 21.28 116.606 9.44799V9.44999ZM137.775 9.44999C136.526 22.82 140.006 33.881 154.408 33.881C156.58 33.8815 158.738 33.5473 160.808 32.89C165.968 31.239 167.997 27.742 167.997 24.99V12.31C167.997 8.36899 165.544 5.47599 160.986 3.83799V0.437988L155.865 1.26299V2.62999C154.473 2.42858 153.071 2.30904 151.665 2.27199C149.617 2.20389 147.567 2.35711 145.552 2.72899C141.045 3.60999 137.775 5.77799 137.775 9.44999ZM139.975 9.44999C139.975 7.14999 142.486 5.70299 145.947 5.02599C147.815 4.68295 149.715 4.54214 151.614 4.60599C153.039 4.64423 154.46 4.7735 155.868 4.99299V9.44499C155.319 9.20112 154.751 9.00571 154.168 8.86099C153.543 8.7159 152.902 8.64641 152.26 8.65399C151.087 8.63267 149.923 8.85503 148.84 9.30699C147.861 9.7295 146.995 10.3774 146.314 11.198C145.593 12.0855 145.055 13.1077 144.733 14.205C144.351 15.4931 144.165 16.8315 144.183 18.175C144.164 19.5022 144.379 20.8223 144.818 22.075C145.211 23.1813 145.838 24.1896 146.657 25.031C147.493 25.8652 148.502 26.5047 149.613 26.904C150.892 27.3577 152.243 27.5789 153.6 27.557C154.219 27.557 154.866 27.5283 155.542 27.471C156.218 27.4137 156.883 27.3393 157.536 27.248C158.189 27.156 158.814 27.047 159.409 26.921C160.004 26.795 160.531 26.6617 160.99 26.521V6.32099C164.208 7.65799 165.801 9.71199 165.801 12.305V24.988C165.801 26.788 164.454 29.281 160.184 30.648C158.328 31.2535 156.387 31.5573 154.435 31.548C142.108 31.387 138.82 21.28 139.976 9.44799L139.975 9.44999ZM139.436 5.52199C136.209 4.07 132.698 3.35894 129.161 3.44099C124.436 3.44099 120.261 4.52499 117.727 6.18499C118.244 6.86294 118.587 7.657 118.727 8.49799C121.853 6.58516 125.464 5.61533 129.127 5.70499C132.215 5.66174 135.272 6.32604 138.064 7.64699C138.349 6.84217 138.817 6.11464 139.431 5.52199H139.436ZM149.406 17.934C149.406 14.6353 150.621 12.9857 153.05 12.985C153.578 12.9853 154.103 13.0546 154.613 13.191C155.055 13.2981 155.478 13.4721 155.868 13.707V23.021C155.616 23.067 155.295 23.107 154.906 23.141C154.517 23.175 154.093 23.1923 153.634 23.193C153.029 23.2316 152.423 23.1199 151.871 22.868C151.32 22.6161 150.838 22.2317 150.471 21.749C149.713 20.6257 149.34 19.2873 149.406 17.934ZM133.527 13.569C133.068 13.455 132.53 13.3347 131.911 13.208C131.254 13.0783 130.586 13.015 129.917 13.019C129.532 13.0238 129.148 13.0525 128.766 13.105C128.424 13.1428 128.085 13.206 127.752 13.294V27.111H122.631V9.99999C123.696 9.63674 124.78 9.33261 125.879 9.08899C127.25 8.78923 128.651 8.64499 130.055 8.65899C130.33 8.65899 130.662 8.67699 131.055 8.71099C131.448 8.74499 131.835 8.79099 132.224 8.84799C132.613 8.90499 133.004 8.97399 133.393 9.05499C133.735 9.12009 134.07 9.21787 134.393 9.34699L133.534 13.574L133.527 13.569ZM94 18.209C93.9892 19.4688 94.1811 20.7221 94.5681 21.921C94.9242 23.0297 95.5226 24.0453 96.3201 24.894C97.1602 25.7639 98.1812 26.4385 99.311 26.87C100.667 27.3786 102.107 27.6237 103.555 27.592C104.198 27.5931 104.841 27.5597 105.48 27.492C106.122 27.4253 106.722 27.3393 107.28 27.234C107.796 27.1419 108.306 27.0214 108.809 26.873C109.187 26.7667 109.554 26.6289 109.909 26.461L109.221 22.302C108.508 22.5952 107.765 22.8085 107.005 22.938C106.093 23.1106 105.166 23.197 104.238 23.196C103.001 23.2599 101.775 22.9354 100.732 22.268C100.315 21.9853 99.9663 21.6136 99.7107 21.1797C99.4551 20.7458 99.2991 20.2606 99.2539 19.759H110.872C110.894 19.4837 110.917 19.1687 110.94 18.814C110.963 18.4593 110.975 18.1327 110.975 17.834C110.975 14.7867 110.23 12.478 108.74 10.908C107.949 10.1097 106.998 9.48737 105.95 9.08173C104.901 8.67609 103.779 8.49626 102.657 8.55399C101.556 8.55403 100.465 8.76412 99.4431 9.17299C98.4051 9.58267 97.4629 10.2027 96.676 10.994C95.8361 11.8568 95.1772 12.8788 94.738 14C94.2205 15.342 93.9695 16.772 93.999 18.21L94 18.209ZM106.03 16.25C106.008 15.8185 105.933 15.3913 105.807 14.978C105.687 14.5762 105.488 14.2024 105.222 13.878C104.947 13.5482 104.606 13.2792 104.222 13.088C103.754 12.8669 103.239 12.7609 102.722 12.779C102.214 12.7657 101.71 12.8654 101.245 13.071C100.85 13.2525 100.498 13.516 100.213 13.844C99.9337 14.1737 99.7183 14.5524 99.5779 14.961C99.4302 15.3799 99.3208 15.8113 99.251 16.25H106.03ZM69.3911 9.64999C70.4986 9.34881 71.6233 9.11505 72.759 8.94999C74.1916 8.72754 75.6394 8.6182 77.0891 8.62299C78.3929 8.58435 79.6925 8.78778 80.9221 9.22299C81.864 9.56913 82.699 10.1551 83.345 10.923C83.9563 11.6893 84.3906 12.5812 84.6169 13.535C84.8799 14.638 85.007 15.7691 84.9951 16.903V27.111H79.873V17.522C79.9664 16.3163 79.7411 15.1072 79.22 14.016C78.9385 13.6463 78.5652 13.3566 78.1372 13.1757C77.7092 12.9949 77.2413 12.9291 76.78 12.985C76.4134 12.985 76.0238 13.0023 75.6111 13.037C75.1984 13.0717 74.8316 13.1117 74.511 13.157V27.111H69.3899V9.65099L69.3911 9.64999ZM57.1589 23.536C57.6629 23.536 58.1444 23.5243 58.603 23.501C58.9713 23.488 59.3383 23.4546 59.7029 23.401V19.516C59.396 19.4545 59.0863 19.4085 58.7749 19.378C57.9471 19.2805 57.1104 19.2862 56.2839 19.395C55.8959 19.4415 55.5182 19.5516 55.166 19.721C54.8611 19.869 54.6002 20.0945 54.4099 20.375C54.2174 20.6835 54.1217 21.0426 54.135 21.406C54.1013 21.7315 54.159 22.06 54.3018 22.3545C54.4445 22.649 54.6667 22.8978 54.9431 23.073C55.63 23.4154 56.3933 23.5752 57.1599 23.537L57.1589 23.536ZM56.7471 8.54999C58.0267 8.5166 59.3033 8.69086 60.5271 9.06599C61.4437 9.35263 62.2756 9.86019 62.95 10.544C63.5678 11.2033 64.011 12.0067 64.239 12.881C64.5014 13.8791 64.6284 14.908 64.6169 15.94V26.6C63.8836 26.76 62.8641 26.949 61.5581 27.167C59.9885 27.4037 58.4022 27.5127 56.8149 27.493C55.7473 27.503 54.6817 27.3994 53.636 27.184C52.7587 27.0085 51.9238 26.6642 51.178 26.17C50.4976 25.7079 49.9522 25.0732 49.5979 24.331C49.2066 23.4565 49.0188 22.5046 49.0481 21.547C49.0183 20.6127 49.2378 19.6873 49.6841 18.866C50.0932 18.1472 50.6781 17.544 51.384 17.113C52.1374 16.6609 52.9626 16.3413 53.824 16.168C54.7621 15.971 55.7184 15.8731 56.677 15.876C57.2681 15.8725 57.859 15.9012 58.447 15.962C58.8703 16.0025 59.2896 16.0771 59.7009 16.185V15.7C59.7193 15.3146 59.6588 14.9295 59.5229 14.5684C59.3871 14.2073 59.1787 13.8777 58.9109 13.6C58.1309 12.9907 57.1453 12.7072 56.1609 12.809C55.2984 12.8084 54.4371 12.8715 53.584 12.998C52.8343 13.0999 52.0972 13.2785 51.384 13.531L50.731 9.40599C51.029 9.31532 51.4012 9.21799 51.8479 9.11399C52.2946 9.00999 52.7814 8.91832 53.3081 8.83899C53.8361 8.75899 54.3921 8.69032 54.9761 8.63299C55.5601 8.57565 56.1501 8.54699 56.7461 8.54699L56.7471 8.54999ZM45.9541 13.568C45.4961 13.454 44.9578 13.3337 44.3391 13.207C43.6825 13.0773 43.0143 13.014 42.345 13.018C41.9599 13.0228 41.5756 13.0515 41.1941 13.104C40.8519 13.1418 40.5128 13.205 40.1799 13.293V27.111H35.0591V9.99999C36.1241 9.63674 37.2083 9.33261 38.3069 9.08899C39.6783 8.78923 41.0792 8.64499 42.4829 8.65899C42.7579 8.65899 43.0899 8.67699 43.4829 8.71099C43.8759 8.74499 44.2609 8.79099 44.6509 8.84799C45.0409 8.90499 45.4301 8.97399 45.8201 9.05499C46.162 9.12016 46.4968 9.21794 46.8201 9.34699L45.9609 13.574L45.9541 13.568ZM18.595 4.52899L23.7161 3.70399V9.03099H29.8689V13.293H23.7161V19.652C23.6741 20.546 23.8696 21.4352 24.283 22.229C24.5427 22.5796 24.892 22.854 25.2942 23.0234C25.6963 23.1928 26.1367 23.251 26.5691 23.192C27.1392 23.1899 27.708 23.1381 28.269 23.037C28.8147 22.9446 29.3502 22.801 29.8689 22.608L30.5901 26.595C29.9198 26.8631 29.2306 27.0814 28.5281 27.248C27.6139 27.4476 26.6794 27.5399 25.7439 27.523C24.561 27.5602 23.3823 27.3673 22.2729 26.955C21.4182 26.6222 20.6614 26.0787 20.073 25.375C19.5031 24.6565 19.1091 23.8148 18.9221 22.917C18.6947 21.8658 18.5848 20.7925 18.595 19.717V4.52899Z" fill="currentColor"/>
</symbol><symbol id="questions-outline" viewBox="0 0 21 21">
<path fill-rule="evenodd" clip-rule="evenodd" d="M2.93085 2.97144C3.9261 1.96421 5.12385 1.1798 6.44495 0.67017C7.76605 0.160537 9.18033 -0.0627521 10.5942 0.015141C12.008 0.0930342 13.3892 0.470338 14.6464 1.12201C15.9035 1.77369 17.0078 2.68488 17.8864 3.79535C18.765 4.90582 19.3977 6.19022 19.7427 7.56354C20.0877 8.93686 20.1371 10.3678 19.8877 11.7617C19.6383 13.1555 19.0957 14.4805 18.2958 15.6489C17.4959 16.8174 16.457 17.8026 15.2478 18.5394C13.6638 19.5166 11.84 20.0358 9.97883 20.0394C8.52678 20.0383 7.0928 19.7174 5.77881 19.0994L1.8498 19.9924C1.60165 20.0495 1.34315 20.0427 1.09833 19.9727C0.853514 19.9028 0.630398 19.7719 0.449834 19.5924C0.269659 19.4122 0.137941 19.1893 0.06696 18.9446C-0.00402085 18.6998 -0.0119667 18.441 0.0438277 18.1924L0.93781 14.2654C0.072552 12.4065 -0.199659 10.3264 0.158147 8.3075C0.515952 6.28858 1.48644 4.42871 2.93781 2.98041L2.93085 2.97144ZM6.43085 8.82239H14.1419C14.343 8.82239 14.5359 8.74247 14.6782 8.60022C14.8204 8.45798 14.9003 8.26508 14.9003 8.06391C14.9003 7.86274 14.8204 7.66984 14.6782 7.52759C14.5359 7.38535 14.343 7.30542 14.1419 7.30542H6.43085C6.22968 7.30542 6.03672 7.38535 5.89447 7.52759C5.75223 7.66984 5.67231 7.86274 5.67231 8.06391C5.67231 8.26508 5.75223 8.45798 5.89447 8.60022C6.03672 8.74247 6.22968 8.82239 6.43085 8.82239ZM12.2868 11.5224H6.49982C6.3979 11.5187 6.29625 11.5356 6.20099 11.572C6.10574 11.6085 6.01886 11.6638 5.94544 11.7346C5.87202 11.8054 5.81357 11.8903 5.77369 11.9841C5.7338 12.078 5.71326 12.1789 5.71326 12.2809C5.71326 12.3829 5.7338 12.4838 5.77369 12.5777C5.81357 12.6716 5.87202 12.7565 5.94544 12.8273C6.01886 12.8981 6.10574 12.9534 6.20099 12.9898C6.29625 13.0263 6.3979 13.0431 6.49982 13.0394H12.2838C12.3857 13.0431 12.4874 13.0263 12.5826 12.9898C12.6779 12.9534 12.7648 12.8981 12.8383 12.8273C12.9117 12.7565 12.9701 12.6716 13.01 12.5777C13.0498 12.4838 13.0704 12.3829 13.0704 12.2809C13.0704 12.1789 13.0498 12.078 13.01 11.9841C12.9701 11.8903 12.9117 11.8054 12.8383 11.7346C12.7648 11.6638 12.6779 11.6085 12.5826 11.572C12.4874 11.5356 12.3857 11.5187 12.2838 11.5224H12.2868ZM9.99982 1.55744C8.55391 1.55577 7.13156 1.9239 5.86805 2.6269C4.60453 3.32989 3.5418 4.34435 2.78089 5.57386C2.01997 6.80336 1.58617 8.20706 1.5207 9.65149C1.45522 11.0959 1.76025 12.5331 2.4068 13.8264L2.52582 14.0654C1.20082 19.8954 0.135829 18.8354 5.97083 17.5084L6.20984 17.6274C7.37924 18.217 8.67019 18.5252 9.9798 18.5274C11.5606 18.522 13.1091 18.0803 14.4549 17.251C15.8007 16.4217 16.8914 15.237 17.6068 13.8274C18.1408 12.7387 18.438 11.5492 18.4789 10.3373C18.5197 9.12537 18.3033 7.91857 17.8438 6.79639C17.1998 5.24616 16.1112 3.92137 14.7152 2.98902C13.3193 2.05666 11.6785 1.55854 9.99982 1.55744Z" fill="currentColor"/>
</symbol><symbol id="questions" viewBox="0 0 20 20">
<path fill-rule="evenodd" clip-rule="evenodd" d="M17.0703 2.92516C15.3919 1.24853 13.172 0.223189 10.8073 0.0324018C8.44256 -0.158386 6.08704 0.497803 4.1615 1.88366C2.23597 3.26952 0.865853 5.29478 0.295925 7.59771C-0.274003 9.90063 -0.00661433 12.3312 1.05031 14.4551L0.0203132 18.9841C-0.0103661 19.1195 -0.00623711 19.2604 0.0323143 19.3937C0.0708656 19.527 0.142577 19.6484 0.240757 19.7465C0.338937 19.8445 0.460378 19.9162 0.593731 19.9546C0.727084 19.993 0.867996 19.9969 1.00331 19.9661L5.53431 18.9371C7.65731 19.9924 10.0862 20.2591 12.3876 19.6896C14.689 19.1201 16.7132 17.7515 18.099 15.8279C19.4849 13.9044 20.1423 11.5509 19.9538 9.18761C19.7654 6.8243 18.7435 4.60485 17.0703 2.92516ZM12.4763 13.2352H6.21831C6.00057 13.2352 5.79174 13.1486 5.63778 12.9947C5.48381 12.8407 5.39731 12.6319 5.39731 12.4141C5.39731 12.1964 5.48381 11.9876 5.63778 11.8336C5.79174 11.6796 6.00057 11.5931 6.21831 11.5931H12.4763C12.694 11.5931 12.9029 11.6796 13.0568 11.8336C13.2108 11.9876 13.2973 12.1964 13.2973 12.4141C13.2973 12.6319 13.2108 12.8407 13.0568 12.9947C12.9029 13.1486 12.694 13.2352 12.4763 13.2352ZM14.4843 8.67516H6.14031C5.92257 8.67516 5.71374 8.58865 5.55977 8.43468C5.40581 8.28072 5.31931 8.07186 5.31931 7.85412C5.31931 7.63637 5.40581 7.42758 5.55977 7.27361C5.71374 7.11965 5.92257 7.03313 6.14031 7.03313H14.4843C14.7021 7.03313 14.9109 7.11965 15.0648 7.27361C15.2188 7.42758 15.3053 7.63637 15.3053 7.85412C15.3053 8.07186 15.2188 8.28072 15.0648 8.43468C14.9109 8.58865 14.7021 8.67516 14.4843 8.67516Z" fill="currentColor"/>
</symbol><symbol id="right-nav" viewBox="0 0 24 25">
<path fill-rule="evenodd" clip-rule="evenodd" d="M15.2668 15.9601C15.5086 16.2018 15.6443 16.5297 15.6443 16.8716C15.6443 17.2135 15.5086 17.5413 15.2668 17.7831C15.0251 18.0248 14.6971 18.1606 14.3552 18.1606C14.0133 18.1606 13.6856 18.0248 13.4438 17.7831L8.73267 13.0721C8.49109 12.83 8.35547 12.502 8.35547 12.1601C8.35547 11.8181 8.49109 11.4901 8.73267 11.2481L13.4438 6.53708C13.6857 6.29533 14.0137 6.15957 14.3557 6.15967C14.6977 6.15976 15.0256 6.2957 15.2673 6.53758C15.5091 6.77945 15.6449 7.10746 15.6448 7.44943C15.6447 7.7914 15.5087 8.11933 15.2668 8.36108L11.4668 12.1611L15.2668 15.9601Z" fill="currentColor"/>
<path fill-rule="evenodd" clip-rule="evenodd" d="M6.44409 0.159784H17.5549C19.2619 0.164528 20.8977 0.84439 22.1052 2.05095C23.3127 3.25752 23.9939 4.89279 24 6.59978V17.7158C23.9995 18.5612 23.8319 19.3981 23.5071 20.1786C23.1822 20.9591 22.7064 21.6677 22.1069 22.2638C21.5101 22.8632 20.8007 23.339 20.0195 23.6636C19.2384 23.9883 18.4009 24.1556 17.5549 24.1558H6.44409C5.59866 24.1552 4.76157 23.9878 3.98096 23.6631C3.20035 23.3385 2.4915 22.8629 1.89502 22.2638C1.29514 21.6679 0.818858 20.9594 0.493652 20.1789C0.168447 19.3984 0.000708001 18.5613 0 17.7158V6.59978C6.94528e-06 5.75382 0.167255 4.91619 0.491943 4.13502C0.816632 3.35384 1.29245 2.64452 1.89209 2.04778C2.48835 1.44828 3.19714 0.972442 3.97778 0.647589C4.75843 0.322735 5.59538 0.155264 6.44092 0.154785L6.44409 0.159784ZM17.5549 1.93778H6.44409C5.20723 1.94043 4.02172 2.43301 3.14722 3.3077C2.27272 4.18239 1.78045 5.36792 1.77808 6.60478V17.7158C1.78072 18.9525 2.27299 20.1378 3.14746 21.0122C4.02193 21.8867 5.2074 22.3791 6.44409 22.3818H17.5549C18.7914 22.3781 19.9762 21.8853 20.8506 21.0111C21.725 20.1369 22.218 18.9522 22.2219 17.7158V6.59978C22.2182 5.36316 21.7255 4.17823 20.8511 3.3038C19.9766 2.42936 18.7916 1.93648 17.5549 1.93279V1.93778Z" fill="CurrentColor"/>
</symbol><symbol id="search" viewBox="0 0 25 25">
<path fill-rule="evenodd" clip-rule="evenodd" d="M19.595 16.7389L24.5869 21.7309C24.7841 21.9301 24.9182 22.183 24.9724 22.4579C25.0267 22.7329 24.9988 23.0177 24.8921 23.2768C24.7854 23.536 24.6047 23.7579 24.3726 23.915C24.1405 24.0721 23.8672 24.1572 23.5869 24.1599C23.2127 24.1542 22.8548 24.0053 22.5869 23.7439L17.5869 18.7489C15.4904 20.3362 12.8696 21.0687 10.2539 20.7982C7.63823 20.5278 5.22259 19.2747 3.49514 17.292C1.76769 15.3094 0.85725 12.745 0.947532 10.1169C1.03781 7.48881 2.12228 4.99294 3.98171 3.1335C5.84115 1.27406 8.33702 0.189669 10.9651 0.0993867C13.5932 0.00910469 16.1575 0.919664 18.1402 2.64711C20.1228 4.37456 21.3758 6.79014 21.6463 9.40583C21.9167 12.0215 21.1843 14.6424 19.5969 16.7389H19.595ZM6.04299 5.2059C4.81855 6.43283 4.05745 8.04632 3.88918 9.77151C3.72091 11.4967 4.15586 13.2269 5.12014 14.6673C6.08442 16.1077 7.51836 17.1692 9.17751 17.671C10.8367 18.1729 12.6183 18.0839 14.2193 17.4194C15.8202 16.7548 17.1412 15.5558 17.9573 14.0265C18.7734 12.4973 19.0341 10.7324 18.6948 9.03252C18.3556 7.33265 17.4375 5.80298 16.0969 4.70408C14.7564 3.60519 13.0764 3.00505 11.343 3.00591C10.3583 3.00552 9.38319 3.19967 8.47366 3.57721C7.56412 3.95475 6.73801 4.50824 6.04299 5.2059Z" fill="currentColor"/>
</symbol></svg>